<svg width="36" height="26" viewBox="0 0 36 26" fill="none" xmlns="http://www.w3.org/2000/svg">
<path d="M0 24.2353H28V25.7647L33.8824 22.5882L28 19.5294V21.0588H25.7647V5.05882H22.9412V21.0588H20.3529V14.3529C19.4118 14.3529 18.5882 14.3529 17.6471 14.3529V21.0588H15.0588V12.7059C14.1176 12.7059 13.1765 12.7059 12.2353 12.7059V21.0588H9.76471V7.88235C8.82353 7.88235 7.88235 7.88235 6.94118 7.88235V21.0588H4.47059V16.5882H1.64706V21.0588H0V24.2353ZM36 6.82353C36 4.70588 32.2353 0 32.2353 0C32.2353 0 28.5882 4.70588 28.5882 6.82353C28.5882 11.6471 36 11.6471 36 6.82353ZM30.2353 6.11765C30.8235 6.11765 30.9412 7.29412 30.8235 7.76471C30.4706 8.47059 30 8.35294 29.7647 7.76471C29.6471 7.29412 29.7647 6.11765 30.2353 6.11765Z" fill="#C01045"/>
</svg>
