<svg width="295" height="82" viewBox="0 0 295 82" fill="none" xmlns="http://www.w3.org/2000/svg">
<rect y="30" width="295" height="8" rx="4" fill="#E2E3E9"/>
<circle cx="247" cy="34" r="14" fill="#DE2B70" stroke="white" stroke-width="4"/>
<path d="M238.083 13.36V17H236.341V13.36L232.915 7.601H234.456C234.608 7.601 234.727 7.63783 234.814 7.7115C234.905 7.78517 234.98 7.87833 235.041 7.991L236.757 11.1305C236.857 11.3168 236.943 11.4923 237.017 11.657C237.095 11.8217 237.164 11.9863 237.225 12.151C237.281 11.9863 237.346 11.8217 237.42 11.657C237.494 11.4923 237.578 11.3168 237.674 11.1305L239.383 7.991C239.431 7.89567 239.502 7.80683 239.598 7.7245C239.693 7.64217 239.814 7.601 239.962 7.601H241.509L238.083 13.36ZM250.894 12.3005C250.894 12.9895 250.779 13.6287 250.549 14.218C250.324 14.803 250.003 15.31 249.587 15.739C249.171 16.168 248.671 16.5038 248.086 16.7465C247.501 16.9848 246.851 17.104 246.136 17.104C245.425 17.104 244.777 16.9848 244.192 16.7465C243.607 16.5038 243.105 16.168 242.684 15.739C242.268 15.31 241.945 14.803 241.716 14.218C241.486 13.6287 241.371 12.9895 241.371 12.3005C241.371 11.6115 241.486 10.9745 241.716 10.3895C241.945 9.80017 242.268 9.291 242.684 8.862C243.105 8.433 243.607 8.09933 244.192 7.861C244.777 7.61833 245.425 7.497 246.136 7.497C246.612 7.497 247.061 7.55333 247.481 7.666C247.902 7.77433 248.287 7.93033 248.638 8.134C248.989 8.33333 249.303 8.57817 249.581 8.8685C249.862 9.1545 250.101 9.47517 250.296 9.8305C250.491 10.1858 250.638 10.5715 250.738 10.9875C250.842 11.4035 250.894 11.8412 250.894 12.3005ZM249.106 12.3005C249.106 11.7848 249.037 11.3233 248.898 10.916C248.76 10.5043 248.562 10.1555 248.307 9.8695C248.051 9.5835 247.739 9.36467 247.371 9.213C247.007 9.06133 246.595 8.9855 246.136 8.9855C245.676 8.9855 245.263 9.06133 244.894 9.213C244.53 9.36467 244.218 9.5835 243.958 9.8695C243.703 10.1555 243.505 10.5043 243.367 10.916C243.228 11.3233 243.159 11.7848 243.159 12.3005C243.159 12.8162 243.228 13.2798 243.367 13.6915C243.505 14.0988 243.703 14.4455 243.958 14.7315C244.218 15.0132 244.53 15.2298 244.894 15.3815C245.263 15.5332 245.676 15.609 246.136 15.609C246.595 15.609 247.007 15.5332 247.371 15.3815C247.739 15.2298 248.051 15.0132 248.307 14.7315C248.562 14.4455 248.76 14.0988 248.898 13.6915C249.037 13.2798 249.106 12.8162 249.106 12.3005ZM256.212 15.5895C256.55 15.5895 256.851 15.5332 257.116 15.4205C257.384 15.3078 257.61 15.1497 257.792 14.946C257.974 14.7423 258.112 14.4953 258.208 14.205C258.307 13.9147 258.357 13.5897 258.357 13.23V7.601H260.106V13.23C260.106 13.789 260.015 14.3068 259.833 14.7835C259.655 15.2558 259.397 15.6653 259.059 16.012C258.726 16.3543 258.318 16.623 257.837 16.818C257.356 17.0087 256.815 17.104 256.212 17.104C255.606 17.104 255.062 17.0087 254.581 16.818C254.1 16.623 253.69 16.3543 253.352 16.012C253.019 15.6653 252.761 15.2558 252.579 14.7835C252.401 14.3068 252.312 13.789 252.312 13.23V7.601H254.061V13.2235C254.061 13.5832 254.108 13.9082 254.204 14.1985C254.303 14.4888 254.444 14.738 254.626 14.946C254.813 15.1497 255.038 15.3078 255.302 15.4205C255.571 15.5332 255.874 15.5895 256.212 15.5895Z" fill="#DE2B70"/>
<path d="M234.86 70.493C234.86 71.447 234.701 72.332 234.383 73.148C234.071 73.958 233.627 74.66 233.051 75.254C232.475 75.848 231.782 76.313 230.972 76.649C230.162 76.979 229.262 77.144 228.272 77.144C227.288 77.144 226.391 76.979 225.581 76.649C224.771 76.313 224.075 75.848 223.493 75.254C222.917 74.66 222.47 73.958 222.152 73.148C221.834 72.332 221.675 71.447 221.675 70.493C221.675 69.539 221.834 68.657 222.152 67.847C222.47 67.031 222.917 66.326 223.493 65.732C224.075 65.138 224.771 64.676 225.581 64.346C226.391 64.01 227.288 63.842 228.272 63.842C228.932 63.842 229.553 63.92 230.135 64.076C230.717 64.226 231.251 64.442 231.737 64.724C232.223 65 232.658 65.339 233.042 65.741C233.432 66.137 233.762 66.581 234.032 67.073C234.302 67.565 234.506 68.099 234.644 68.675C234.788 69.251 234.86 69.857 234.86 70.493ZM232.385 70.493C232.385 69.779 232.289 69.14 232.097 68.576C231.905 68.006 231.632 67.523 231.278 67.127C230.924 66.731 230.492 66.428 229.982 66.218C229.478 66.008 228.908 65.903 228.272 65.903C227.636 65.903 227.063 66.008 226.553 66.218C226.049 66.428 225.617 66.731 225.257 67.127C224.903 67.523 224.63 68.006 224.438 68.576C224.246 69.14 224.15 69.779 224.15 70.493C224.15 71.207 224.246 71.849 224.438 72.419C224.63 72.983 224.903 73.463 225.257 73.859C225.617 74.249 226.049 74.549 226.553 74.759C227.063 74.969 227.636 75.074 228.272 75.074C228.908 75.074 229.478 74.969 229.982 74.759C230.492 74.549 230.924 74.249 231.278 73.859C231.632 73.463 231.905 72.983 232.097 72.419C232.289 71.849 232.385 71.207 232.385 70.493ZM238.717 74.606C238.969 74.912 239.242 75.128 239.536 75.254C239.836 75.38 240.151 75.443 240.481 75.443C240.823 75.443 241.129 75.383 241.399 75.263C241.675 75.137 241.909 74.945 242.101 74.687C242.293 74.423 242.44 74.09 242.542 73.688C242.644 73.28 242.695 72.794 242.695 72.23C242.695 71.216 242.527 70.484 242.191 70.034C241.855 69.578 241.372 69.35 240.742 69.35C240.316 69.35 239.944 69.449 239.626 69.647C239.308 69.839 239.005 70.112 238.717 70.466V74.606ZM238.717 68.9C239.089 68.51 239.5 68.201 239.95 67.973C240.406 67.739 240.925 67.622 241.507 67.622C242.041 67.622 242.521 67.727 242.947 67.937C243.379 68.147 243.745 68.45 244.045 68.846C244.351 69.236 244.585 69.71 244.747 70.268C244.909 70.826 244.99 71.453 244.99 72.149C244.99 72.899 244.897 73.58 244.711 74.192C244.525 74.804 244.258 75.329 243.91 75.767C243.568 76.199 243.154 76.535 242.668 76.775C242.182 77.015 241.642 77.135 241.048 77.135C240.76 77.135 240.499 77.105 240.265 77.045C240.031 76.991 239.815 76.913 239.617 76.811C239.419 76.709 239.236 76.586 239.068 76.442C238.906 76.292 238.75 76.127 238.6 75.947L238.501 76.568C238.465 76.724 238.402 76.835 238.312 76.901C238.228 76.967 238.111 77 237.961 77H236.494V63.626H238.717V68.9ZM252.656 71.321C252.656 71.033 252.614 70.763 252.53 70.511C252.452 70.253 252.332 70.028 252.17 69.836C252.008 69.644 251.801 69.494 251.549 69.386C251.303 69.272 251.015 69.215 250.685 69.215C250.043 69.215 249.536 69.398 249.164 69.764C248.798 70.13 248.564 70.649 248.462 71.321H252.656ZM248.417 72.662C248.453 73.136 248.537 73.547 248.669 73.895C248.801 74.237 248.975 74.522 249.191 74.75C249.407 74.972 249.662 75.14 249.956 75.254C250.256 75.362 250.586 75.416 250.946 75.416C251.306 75.416 251.615 75.374 251.873 75.29C252.137 75.206 252.365 75.113 252.557 75.011C252.755 74.909 252.926 74.816 253.07 74.732C253.22 74.648 253.364 74.606 253.502 74.606C253.688 74.606 253.826 74.675 253.916 74.813L254.555 75.623C254.309 75.911 254.033 76.154 253.727 76.352C253.421 76.544 253.1 76.7 252.764 76.82C252.434 76.934 252.095 77.015 251.747 77.063C251.405 77.111 251.072 77.135 250.748 77.135C250.106 77.135 249.509 77.03 248.957 76.82C248.405 76.604 247.925 76.289 247.517 75.875C247.109 75.455 246.788 74.939 246.554 74.327C246.32 73.709 246.203 72.995 246.203 72.185C246.203 71.555 246.305 70.964 246.509 70.412C246.713 69.854 247.004 69.371 247.382 68.963C247.766 68.549 248.231 68.222 248.777 67.982C249.329 67.742 249.95 67.622 250.64 67.622C251.222 67.622 251.759 67.715 252.251 67.901C252.743 68.087 253.166 68.36 253.52 68.72C253.874 69.074 254.15 69.512 254.348 70.034C254.552 70.55 254.654 71.141 254.654 71.807C254.654 72.143 254.618 72.371 254.546 72.491C254.474 72.605 254.336 72.662 254.132 72.662H248.417ZM261.957 69.566C261.897 69.662 261.834 69.731 261.768 69.773C261.702 69.809 261.618 69.827 261.516 69.827C261.408 69.827 261.291 69.797 261.165 69.737C261.045 69.677 260.904 69.611 260.742 69.539C260.58 69.461 260.394 69.392 260.184 69.332C259.98 69.272 259.737 69.242 259.455 69.242C259.017 69.242 258.672 69.335 258.42 69.521C258.174 69.707 258.051 69.95 258.051 70.25C258.051 70.448 258.114 70.616 258.24 70.754C258.372 70.886 258.543 71.003 258.753 71.105C258.969 71.207 259.212 71.3 259.482 71.384C259.752 71.462 260.025 71.549 260.301 71.645C260.583 71.741 260.859 71.852 261.129 71.978C261.399 72.098 261.639 72.254 261.849 72.446C262.065 72.632 262.236 72.857 262.362 73.121C262.494 73.385 262.56 73.703 262.56 74.075C262.56 74.519 262.479 74.93 262.317 75.308C262.161 75.68 261.927 76.004 261.615 76.28C261.303 76.55 260.916 76.763 260.454 76.919C259.998 77.069 259.47 77.144 258.87 77.144C258.552 77.144 258.24 77.114 257.934 77.054C257.634 77 257.343 76.922 257.061 76.82C256.785 76.718 256.527 76.598 256.287 76.46C256.053 76.322 255.846 76.172 255.666 76.01L256.179 75.164C256.245 75.062 256.323 74.984 256.413 74.93C256.503 74.876 256.617 74.849 256.755 74.849C256.893 74.849 257.022 74.888 257.142 74.966C257.268 75.044 257.412 75.128 257.574 75.218C257.736 75.308 257.925 75.392 258.141 75.47C258.363 75.548 258.642 75.587 258.978 75.587C259.242 75.587 259.467 75.557 259.653 75.497C259.845 75.431 260.001 75.347 260.121 75.245C260.247 75.143 260.337 75.026 260.391 74.894C260.451 74.756 260.481 74.615 260.481 74.471C260.481 74.255 260.415 74.078 260.283 73.94C260.157 73.802 259.986 73.682 259.77 73.58C259.56 73.478 259.317 73.388 259.041 73.31C258.771 73.226 258.492 73.136 258.204 73.04C257.922 72.944 257.643 72.833 257.367 72.707C257.097 72.575 256.854 72.41 256.638 72.212C256.428 72.014 256.257 71.771 256.125 71.483C255.999 71.195 255.936 70.847 255.936 70.439C255.936 70.061 256.011 69.701 256.161 69.359C256.311 69.017 256.53 68.72 256.818 68.468C257.112 68.21 257.475 68.006 257.907 67.856C258.345 67.7 258.849 67.622 259.419 67.622C260.055 67.622 260.634 67.727 261.156 67.937C261.678 68.147 262.113 68.423 262.461 68.765L261.957 69.566ZM270.182 71.321C270.182 71.033 270.14 70.763 270.056 70.511C269.978 70.253 269.858 70.028 269.696 69.836C269.534 69.644 269.327 69.494 269.075 69.386C268.829 69.272 268.541 69.215 268.211 69.215C267.569 69.215 267.062 69.398 266.69 69.764C266.324 70.13 266.09 70.649 265.988 71.321H270.182ZM265.943 72.662C265.979 73.136 266.063 73.547 266.195 73.895C266.327 74.237 266.501 74.522 266.717 74.75C266.933 74.972 267.188 75.14 267.482 75.254C267.782 75.362 268.112 75.416 268.472 75.416C268.832 75.416 269.141 75.374 269.399 75.29C269.663 75.206 269.891 75.113 270.083 75.011C270.281 74.909 270.452 74.816 270.596 74.732C270.746 74.648 270.89 74.606 271.028 74.606C271.214 74.606 271.352 74.675 271.442 74.813L272.081 75.623C271.835 75.911 271.559 76.154 271.253 76.352C270.947 76.544 270.626 76.7 270.29 76.82C269.96 76.934 269.621 77.015 269.273 77.063C268.931 77.111 268.598 77.135 268.274 77.135C267.632 77.135 267.035 77.03 266.483 76.82C265.931 76.604 265.451 76.289 265.043 75.875C264.635 75.455 264.314 74.939 264.08 74.327C263.846 73.709 263.729 72.995 263.729 72.185C263.729 71.555 263.831 70.964 264.035 70.412C264.239 69.854 264.53 69.371 264.908 68.963C265.292 68.549 265.757 68.222 266.303 67.982C266.855 67.742 267.476 67.622 268.166 67.622C268.748 67.622 269.285 67.715 269.777 67.901C270.269 68.087 270.692 68.36 271.046 68.72C271.4 69.074 271.676 69.512 271.874 70.034C272.078 70.55 272.18 71.141 272.18 71.807C272.18 72.143 272.144 72.371 272.072 72.491C272 72.605 271.862 72.662 271.658 72.662H265.943Z" fill="#222222"/>
<path d="M0 34C0 31.7909 1.79086 30 4 30H106V38H4C1.79086 38 0 36.2091 0 34Z" fill="#2D73F6"/>
<rect x="50" y="20" width="7" height="28" rx="3.5" fill="#2D73F6" stroke="white" stroke-width="4"/>
<path opacity="0.6" d="M11.2693 65.512V77H10.4053C10.272 77 10.16 76.976 10.0693 76.928C9.98398 76.88 9.89598 76.8027 9.80531 76.696L3.31731 68.304C3.32798 68.448 3.33598 68.5893 3.34131 68.728C3.35198 68.8667 3.35731 68.9973 3.35731 69.12V77H1.86131V65.512H2.74131C2.89065 65.512 3.00265 65.5307 3.07731 65.568C3.15198 65.6 3.23465 65.6773 3.32531 65.8L9.82931 74.2C9.81331 74.0453 9.79998 73.896 9.78931 73.752C9.78398 73.6027 9.78131 73.464 9.78131 73.336V65.512H11.2693ZM17.0053 68.744C17.6026 68.744 18.1413 68.8427 18.6213 69.04C19.1066 69.232 19.5173 69.512 19.8533 69.88C20.1946 70.2427 20.456 70.6827 20.6373 71.2C20.8186 71.712 20.9093 72.288 20.9093 72.928C20.9093 73.568 20.8186 74.1467 20.6373 74.664C20.456 75.1813 20.1946 75.6213 19.8533 75.984C19.5173 76.3467 19.1066 76.6267 18.6213 76.824C18.1413 77.016 17.6026 77.112 17.0053 77.112C16.4026 77.112 15.8586 77.016 15.3733 76.824C14.8933 76.6267 14.4826 76.3467 14.1413 75.984C13.8 75.6213 13.536 75.1813 13.3493 74.664C13.168 74.1467 13.0773 73.568 13.0773 72.928C13.0773 72.288 13.168 71.712 13.3493 71.2C13.536 70.6827 13.8 70.2427 14.1413 69.88C14.4826 69.512 14.8933 69.232 15.3733 69.04C15.8586 68.8427 16.4026 68.744 17.0053 68.744ZM17.0053 75.896C17.7733 75.896 18.3466 75.6373 18.7253 75.12C19.104 74.6027 19.2933 73.8747 19.2933 72.936C19.2933 71.9973 19.104 71.2693 18.7253 70.752C18.3466 70.2293 17.7733 69.968 17.0053 69.968C16.2266 69.968 15.6453 70.2293 15.2613 70.752C14.8826 71.2693 14.6933 71.9973 14.6933 72.936C14.6933 73.8747 14.8826 74.6027 15.2613 75.12C15.6453 75.6373 16.2266 75.896 17.0053 75.896ZM24.1227 70.432C24.384 69.8987 24.6987 69.48 25.0667 69.176C25.4347 68.872 25.8774 68.72 26.3947 68.72C26.5707 68.72 26.736 68.7413 26.8907 68.784C27.0507 68.8213 27.1894 68.88 27.3067 68.96L27.2027 70.136C27.1654 70.28 27.0774 70.352 26.9387 70.352C26.864 70.352 26.752 70.3387 26.6027 70.312C26.4534 70.28 26.2934 70.264 26.1227 70.264C25.872 70.264 25.6507 70.3013 25.4587 70.376C25.2667 70.4453 25.0934 70.552 24.9387 70.696C24.7894 70.8347 24.656 71.008 24.5387 71.216C24.4214 71.4187 24.312 71.6507 24.2107 71.912V77H22.6507V68.872H23.5467C23.7174 68.872 23.832 68.904 23.8907 68.968C23.9547 69.0267 24 69.1333 24.0267 69.288L24.1227 70.432ZM28.5101 77V68.872H29.4461C29.6647 68.872 29.8007 68.976 29.8541 69.184L29.9661 69.96C30.2647 69.6027 30.5954 69.312 30.9581 69.088C31.3261 68.8587 31.7554 68.744 32.2461 68.744C32.7847 68.744 33.2221 68.8933 33.5581 69.192C33.8941 69.4853 34.1394 69.8853 34.2941 70.392C34.4114 70.104 34.5634 69.856 34.7501 69.648C34.9367 69.44 35.1447 69.2693 35.3741 69.136C35.6034 69.0027 35.8461 68.904 36.1021 68.84C36.3634 68.776 36.6274 68.744 36.8941 68.744C37.3261 68.744 37.7101 68.8133 38.0461 68.952C38.3874 69.0853 38.6754 69.2827 38.9101 69.544C39.1447 69.8053 39.3234 70.128 39.4461 70.512C39.5687 70.896 39.6301 71.3333 39.6301 71.824V77H38.0621V71.824C38.0621 71.216 37.9287 70.7573 37.6621 70.448C37.4007 70.1387 37.0167 69.984 36.5101 69.984C36.2861 69.984 36.0727 70.024 35.8701 70.104C35.6674 70.1787 35.4887 70.2933 35.3341 70.448C35.1847 70.6027 35.0647 70.7947 34.9741 71.024C34.8887 71.2533 34.8461 71.52 34.8461 71.824V77H33.2781V71.824C33.2781 71.1947 33.1527 70.7307 32.9021 70.432C32.6514 70.1333 32.2834 69.984 31.7981 69.984C31.4621 69.984 31.1501 70.072 30.8621 70.248C30.5741 70.424 30.3101 70.664 30.0701 70.968V77H28.5101ZM46.0968 73.392C45.4621 73.4133 44.9235 73.464 44.4808 73.544C44.0381 73.6187 43.6781 73.72 43.4008 73.848C43.1235 73.976 42.9235 74.128 42.8008 74.304C42.6781 74.4747 42.6168 74.6667 42.6168 74.88C42.6168 75.0827 42.6488 75.2587 42.7128 75.408C42.7821 75.552 42.8728 75.672 42.9848 75.768C43.1021 75.8587 43.2381 75.9253 43.3928 75.968C43.5475 76.0107 43.7155 76.032 43.8968 76.032C44.1368 76.032 44.3555 76.008 44.5528 75.96C44.7555 75.912 44.9448 75.8453 45.1208 75.76C45.2968 75.6693 45.4648 75.56 45.6248 75.432C45.7848 75.304 45.9421 75.1573 46.0968 74.992V73.392ZM41.5208 70.008C41.9741 69.576 42.4648 69.2533 42.9928 69.04C43.5261 68.8267 44.1101 68.72 44.7448 68.72C45.2088 68.72 45.6195 68.7973 45.9768 68.952C46.3341 69.1013 46.6355 69.312 46.8808 69.584C47.1261 69.856 47.3101 70.1813 47.4328 70.56C47.5608 70.9387 47.6248 71.3573 47.6248 71.816V77H46.9288C46.7741 77 46.6568 76.976 46.5768 76.928C46.4968 76.8747 46.4328 76.7787 46.3848 76.64L46.2168 75.928C46.0088 76.12 45.8035 76.2907 45.6008 76.44C45.3981 76.584 45.1848 76.7093 44.9608 76.816C44.7421 76.9173 44.5075 76.9947 44.2568 77.048C44.0061 77.1013 43.7288 77.128 43.4248 77.128C43.1048 77.128 42.8035 77.0853 42.5208 77C42.2435 76.9093 42.0008 76.7733 41.7928 76.592C41.5848 76.4107 41.4195 76.184 41.2968 75.912C41.1795 75.64 41.1208 75.3227 41.1208 74.96C41.1208 74.64 41.2061 74.3333 41.3768 74.04C41.5528 73.7413 41.8355 73.4747 42.2248 73.24C42.6195 73.0053 43.1315 72.8133 43.7608 72.664C44.3955 72.5147 45.1741 72.4293 46.0968 72.408V71.816C46.0968 71.2027 45.9661 70.744 45.7048 70.44C45.4435 70.136 45.0595 69.984 44.5528 69.984C44.2115 69.984 43.9235 70.0267 43.6888 70.112C43.4595 70.1973 43.2595 70.2933 43.0888 70.4C42.9235 70.5013 42.7768 70.5947 42.6488 70.68C42.5261 70.7653 42.3981 70.808 42.2648 70.808C42.1581 70.808 42.0648 70.7787 41.9848 70.72C41.9101 70.6613 41.8488 70.592 41.8008 70.512L41.5208 70.008ZM51.3132 65.192V77H49.7452V65.192H51.3132ZM58.5402 71.976C58.5402 73.1067 58.6815 74.208 58.9642 75.28C59.2469 76.352 59.6602 77.368 60.2042 78.328C60.2949 78.504 60.3189 78.64 60.2762 78.736C60.2335 78.832 60.1669 78.9093 60.0762 78.968L59.3802 79.392C58.9802 78.7787 58.6389 78.168 58.3562 77.56C58.0789 76.9573 57.8522 76.352 57.6762 75.744C57.5055 75.1307 57.3802 74.512 57.3002 73.888C57.2202 73.264 57.1802 72.6267 57.1802 71.976C57.1802 71.32 57.2202 70.68 57.3002 70.056C57.3802 69.432 57.5055 68.816 57.6762 68.208C57.8522 67.5947 58.0789 66.9867 58.3562 66.384C58.6389 65.776 58.9802 65.1653 59.3802 64.552L60.0762 64.976C60.1669 65.0347 60.2335 65.112 60.2762 65.208C60.3189 65.304 60.2949 65.44 60.2042 65.616C59.6602 66.576 59.2469 67.5947 58.9642 68.672C58.6815 69.744 58.5402 70.8453 58.5402 71.976ZM66.3091 75.648C66.7411 75.648 67.1091 75.5973 67.4131 75.496C67.7224 75.3947 67.9731 75.256 68.1651 75.08C68.3624 74.904 68.5064 74.696 68.5971 74.456C68.6877 74.2107 68.7331 73.944 68.7331 73.656C68.7331 73.0853 68.5357 72.6373 68.1411 72.312C67.7464 71.9813 67.1357 71.816 66.3091 71.816H63.9091V75.648H66.3091ZM63.9091 66.848V70.608H65.8691C66.7064 70.608 67.3277 70.44 67.7331 70.104C68.1437 69.7627 68.3491 69.304 68.3491 68.728C68.3491 68.072 68.1544 67.5947 67.7651 67.296C67.3757 66.9973 66.7704 66.848 65.9491 66.848H63.9091ZM65.9491 65.512C66.6691 65.512 67.2851 65.5813 67.7971 65.72C68.3144 65.8587 68.7384 66.0587 69.0691 66.32C69.3997 66.5813 69.6424 66.8987 69.7971 67.272C69.9571 67.64 70.0371 68.0587 70.0371 68.528C70.0371 68.8053 69.9944 69.072 69.9091 69.328C69.8237 69.584 69.6931 69.824 69.5171 70.048C69.3411 70.2667 69.1197 70.464 68.8531 70.64C68.5864 70.816 68.2717 70.9627 67.9091 71.08C69.5784 71.4107 70.4131 72.2827 70.4131 73.696C70.4131 74.1867 70.3224 74.6347 70.1411 75.04C69.9597 75.44 69.6957 75.7867 69.3491 76.08C69.0024 76.3733 68.5757 76.6 68.0691 76.76C67.5624 76.92 66.9864 77 66.3411 77H62.2051V65.512H65.9491ZM84.6757 65.512V77H83.1877V68.824C83.1877 68.7013 83.1904 68.5707 83.1957 68.432C83.2064 68.2933 83.217 68.152 83.2277 68.008L79.4037 75.024C79.2704 75.2853 79.065 75.416 78.7877 75.416H78.5477C78.2704 75.416 78.0677 75.2853 77.9397 75.024L74.0437 67.984C74.0757 68.2827 74.0917 68.5627 74.0917 68.824V77H72.5957V65.512H73.8597C74.009 65.512 74.1237 65.528 74.2037 65.56C74.289 65.5867 74.369 65.6667 74.4437 65.8L78.2837 72.68C78.3584 72.8187 78.4277 72.9653 78.4917 73.12C78.5557 73.2747 78.617 73.4293 78.6757 73.584C78.7877 73.2693 78.9184 72.9653 79.0677 72.672L82.8357 65.8C82.905 65.6667 82.9797 65.5867 83.0597 65.56C83.145 65.528 83.2624 65.512 83.4117 65.512H84.6757ZM89.2296 77H87.5176V65.512H89.2296V77ZM102.583 75.52C102.754 75.52 102.887 75.5707 102.983 75.672C103.079 75.768 103.127 75.896 103.127 76.056V77H95.4153V76.464C95.4153 76.3573 95.4366 76.2453 95.4793 76.128C95.522 76.0053 95.594 75.896 95.6953 75.8L99.3273 72.16C99.6313 71.856 99.906 71.5627 100.151 71.28C100.397 70.9973 100.605 70.7173 100.775 70.44C100.946 70.1573 101.077 69.8693 101.167 69.576C101.263 69.2827 101.311 68.9733 101.311 68.648C101.311 68.328 101.261 68.048 101.159 67.808C101.058 67.5627 100.919 67.36 100.743 67.2C100.567 67.04 100.359 66.92 100.119 66.84C99.8793 66.76 99.6206 66.72 99.3433 66.72C99.066 66.72 98.81 66.76 98.5753 66.84C98.346 66.92 98.1406 67.032 97.9593 67.176C97.778 67.32 97.626 67.4907 97.5033 67.688C97.3806 67.8853 97.2926 68.0987 97.2393 68.328C97.1646 68.5307 97.0686 68.6667 96.9513 68.736C96.8393 68.8053 96.674 68.8213 96.4553 68.784L95.6393 68.64C95.714 68.1067 95.8606 67.6373 96.0793 67.232C96.298 66.8267 96.5726 66.488 96.9033 66.216C97.234 65.9387 97.6126 65.7307 98.0393 65.592C98.4713 65.4533 98.9353 65.384 99.4313 65.384C99.9326 65.384 100.394 65.4587 100.815 65.608C101.242 65.752 101.61 65.9627 101.919 66.24C102.229 66.5173 102.471 66.856 102.647 67.256C102.823 67.6507 102.911 68.0987 102.911 68.6C102.911 69.0267 102.847 69.424 102.719 69.792C102.597 70.1547 102.426 70.5013 102.207 70.832C101.994 71.1627 101.743 71.4853 101.455 71.8C101.173 72.1093 100.871 72.424 100.551 72.744L97.6393 75.72C97.8633 75.6613 98.0873 75.6133 98.3113 75.576C98.5406 75.5387 98.7566 75.52 98.9593 75.52H102.583ZM112.153 75.808V77H105.945V75.808H108.377V68.28C108.377 68.04 108.385 67.792 108.401 67.536L106.449 69.192C106.374 69.2507 106.299 69.288 106.225 69.304C106.15 69.32 106.078 69.3227 106.009 69.312C105.945 69.3013 105.886 69.28 105.833 69.248C105.785 69.2107 105.745 69.1733 105.713 69.136L105.225 68.456L108.665 65.488H109.937V75.808H112.153ZM115.514 71.976C115.514 70.8453 115.37 69.744 115.082 68.672C114.799 67.5947 114.386 66.576 113.842 65.616C113.751 65.44 113.727 65.304 113.77 65.208C113.818 65.112 113.887 65.0347 113.978 64.976L114.674 64.552C115.074 65.1653 115.412 65.776 115.69 66.384C115.967 66.9867 116.194 67.5947 116.37 68.208C116.546 68.816 116.674 69.432 116.754 70.056C116.834 70.68 116.874 71.32 116.874 71.976C116.874 72.6267 116.834 73.264 116.754 73.888C116.674 74.512 116.546 75.1307 116.37 75.744C116.194 76.352 115.967 76.9573 115.69 77.56C115.412 78.168 115.074 78.7787 114.674 79.392L113.978 78.968C113.887 78.9093 113.818 78.832 113.77 78.736C113.727 78.64 113.751 78.504 113.842 78.328C114.386 77.368 114.799 76.352 115.082 75.28C115.37 74.208 115.514 73.1067 115.514 71.976Z" fill="#222222"/>
</svg>
