<svg width="486" height="80" viewBox="0 0 486 80" fill="none" xmlns="http://www.w3.org/2000/svg">
<rect y="27" width="486" height="8" rx="4" fill="#E2E3E9"/>
<rect x="191" y="27" width="106" height="8" fill="#2D73F6"/>
<circle cx="92" cy="31" r="14" fill="#DE2B70" stroke="white" stroke-width="4"/>
<path opacity="0.6" d="M448.446 67.556C448.446 68.522 448.293 69.41 447.987 70.22C447.681 71.024 447.249 71.717 446.691 72.299C446.133 72.881 445.461 73.334 444.675 73.658C443.895 73.976 443.031 74.135 442.083 74.135C441.135 74.135 440.271 73.976 439.491 73.658C438.711 73.334 438.042 72.881 437.484 72.299C436.926 71.717 436.494 71.024 436.188 70.22C435.882 69.41 435.729 68.522 435.729 67.556C435.729 66.59 435.882 65.705 436.188 64.901C436.494 64.091 436.926 63.395 437.484 62.813C438.042 62.225 438.711 61.769 439.491 61.445C440.271 61.121 441.135 60.959 442.083 60.959C443.031 60.959 443.895 61.121 444.675 61.445C445.461 61.769 446.133 62.225 446.691 62.813C447.249 63.395 447.681 64.091 447.987 64.901C448.293 65.705 448.446 66.59 448.446 67.556ZM446.655 67.556C446.655 66.764 446.547 66.053 446.331 65.423C446.115 64.793 445.809 64.262 445.413 63.83C445.017 63.392 444.537 63.056 443.973 62.822C443.409 62.588 442.779 62.471 442.083 62.471C441.393 62.471 440.766 62.588 440.202 62.822C439.638 63.056 439.155 63.392 438.753 63.83C438.357 64.262 438.051 64.793 437.835 65.423C437.619 66.053 437.511 66.764 437.511 67.556C437.511 68.348 437.619 69.059 437.835 69.689C438.051 70.313 438.357 70.844 438.753 71.282C439.155 71.714 439.638 72.047 440.202 72.281C440.766 72.509 441.393 72.623 442.083 72.623C442.779 72.623 443.409 72.509 443.973 72.281C444.537 72.047 445.017 71.714 445.413 71.282C445.809 70.844 446.115 70.313 446.331 69.689C446.547 69.059 446.655 68.348 446.655 67.556ZM452.001 71.804C452.295 72.2 452.616 72.479 452.964 72.641C453.318 72.803 453.705 72.884 454.125 72.884C454.983 72.884 455.64 72.581 456.096 71.975C456.552 71.369 456.78 70.466 456.78 69.266C456.78 68.15 456.576 67.331 456.168 66.809C455.766 66.281 455.19 66.017 454.44 66.017C453.918 66.017 453.462 66.137 453.072 66.377C452.688 66.617 452.331 66.956 452.001 67.394V71.804ZM452.001 66.197C452.385 65.753 452.817 65.399 453.297 65.135C453.783 64.871 454.341 64.739 454.971 64.739C455.505 64.739 455.985 64.841 456.411 65.045C456.843 65.249 457.209 65.546 457.509 65.936C457.809 66.32 458.037 66.788 458.193 67.34C458.355 67.892 458.436 68.513 458.436 69.203C458.436 69.941 458.346 70.613 458.166 71.219C457.986 71.825 457.725 72.344 457.383 72.776C457.047 73.202 456.636 73.535 456.15 73.775C455.664 74.009 455.118 74.126 454.512 74.126C453.912 74.126 453.405 74.015 452.991 73.793C452.583 73.565 452.226 73.244 451.92 72.83L451.839 73.658C451.791 73.886 451.653 74 451.425 74H450.39V60.743H452.001V66.197ZM466.564 68.447C466.564 68.075 466.51 67.736 466.402 67.43C466.3 67.118 466.147 66.851 465.943 66.629C465.745 66.401 465.502 66.227 465.214 66.107C464.926 65.981 464.599 65.918 464.233 65.918C463.465 65.918 462.856 66.143 462.406 66.593C461.962 67.037 461.686 67.655 461.578 68.447H466.564ZM467.86 72.722C467.662 72.962 467.425 73.172 467.149 73.352C466.873 73.526 466.576 73.67 466.258 73.784C465.946 73.898 465.622 73.982 465.286 74.036C464.95 74.096 464.617 74.126 464.287 74.126C463.657 74.126 463.075 74.021 462.541 73.811C462.013 73.595 461.554 73.283 461.164 72.875C460.78 72.461 460.48 71.951 460.264 71.345C460.048 70.739 459.94 70.043 459.94 69.257C459.94 68.621 460.036 68.027 460.228 67.475C460.426 66.923 460.708 66.446 461.074 66.044C461.44 65.636 461.887 65.318 462.415 65.09C462.943 64.856 463.537 64.739 464.197 64.739C464.743 64.739 465.247 64.832 465.709 65.018C466.177 65.198 466.579 65.462 466.915 65.81C467.257 66.152 467.524 66.578 467.716 67.088C467.908 67.592 468.004 68.168 468.004 68.816C468.004 69.068 467.977 69.236 467.923 69.32C467.869 69.404 467.767 69.446 467.617 69.446H461.524C461.542 70.022 461.62 70.523 461.758 70.949C461.902 71.375 462.1 71.732 462.352 72.02C462.604 72.302 462.904 72.515 463.252 72.659C463.6 72.797 463.99 72.866 464.422 72.866C464.824 72.866 465.169 72.821 465.457 72.731C465.751 72.635 466.003 72.533 466.213 72.425C466.423 72.317 466.597 72.218 466.735 72.128C466.879 72.032 467.002 71.984 467.104 71.984C467.236 71.984 467.338 72.035 467.41 72.137L467.86 72.722ZM475.282 66.386C475.21 66.518 475.099 66.584 474.949 66.584C474.859 66.584 474.757 66.551 474.643 66.485C474.529 66.419 474.388 66.347 474.22 66.269C474.058 66.185 473.863 66.11 473.635 66.044C473.407 65.972 473.137 65.936 472.825 65.936C472.555 65.936 472.312 65.972 472.096 66.044C471.88 66.11 471.694 66.203 471.538 66.323C471.388 66.443 471.271 66.584 471.187 66.746C471.109 66.902 471.07 67.073 471.07 67.259C471.07 67.493 471.136 67.688 471.268 67.844C471.406 68 471.586 68.135 471.808 68.249C472.03 68.363 472.282 68.465 472.564 68.555C472.846 68.639 473.134 68.732 473.428 68.834C473.728 68.93 474.019 69.038 474.301 69.158C474.583 69.278 474.835 69.428 475.057 69.608C475.279 69.788 475.456 70.01 475.588 70.274C475.726 70.532 475.795 70.844 475.795 71.21C475.795 71.63 475.72 72.02 475.57 72.38C475.42 72.734 475.198 73.043 474.904 73.307C474.61 73.565 474.25 73.769 473.824 73.919C473.398 74.069 472.906 74.144 472.348 74.144C471.712 74.144 471.136 74.042 470.62 73.838C470.104 73.628 469.666 73.361 469.306 73.037L469.684 72.425C469.732 72.347 469.789 72.287 469.855 72.245C469.921 72.203 470.005 72.182 470.107 72.182C470.215 72.182 470.329 72.224 470.449 72.308C470.569 72.392 470.713 72.485 470.881 72.587C471.055 72.689 471.265 72.782 471.511 72.866C471.757 72.95 472.063 72.992 472.429 72.992C472.741 72.992 473.014 72.953 473.248 72.875C473.482 72.791 473.677 72.68 473.833 72.542C473.989 72.404 474.103 72.245 474.175 72.065C474.253 71.885 474.292 71.693 474.292 71.489C474.292 71.237 474.223 71.03 474.085 70.868C473.953 70.7 473.776 70.559 473.554 70.445C473.332 70.325 473.077 70.223 472.789 70.139C472.507 70.049 472.216 69.956 471.916 69.86C471.622 69.764 471.331 69.656 471.043 69.536C470.761 69.41 470.509 69.254 470.287 69.068C470.065 68.882 469.885 68.654 469.747 68.384C469.615 68.108 469.549 67.775 469.549 67.385C469.549 67.037 469.621 66.704 469.765 66.386C469.909 66.062 470.119 65.78 470.395 65.54C470.671 65.294 471.01 65.099 471.412 64.955C471.814 64.811 472.273 64.739 472.789 64.739C473.389 64.739 473.926 64.835 474.4 65.027C474.88 65.213 475.294 65.471 475.642 65.801L475.282 66.386ZM483.861 68.447C483.861 68.075 483.807 67.736 483.699 67.43C483.597 67.118 483.444 66.851 483.24 66.629C483.042 66.401 482.799 66.227 482.511 66.107C482.223 65.981 481.896 65.918 481.53 65.918C480.762 65.918 480.153 66.143 479.703 66.593C479.259 67.037 478.983 67.655 478.875 68.447H483.861ZM485.157 72.722C484.959 72.962 484.722 73.172 484.446 73.352C484.17 73.526 483.873 73.67 483.555 73.784C483.243 73.898 482.919 73.982 482.583 74.036C482.247 74.096 481.914 74.126 481.584 74.126C480.954 74.126 480.372 74.021 479.838 73.811C479.31 73.595 478.851 73.283 478.461 72.875C478.077 72.461 477.777 71.951 477.561 71.345C477.345 70.739 477.237 70.043 477.237 69.257C477.237 68.621 477.333 68.027 477.525 67.475C477.723 66.923 478.005 66.446 478.371 66.044C478.737 65.636 479.184 65.318 479.712 65.09C480.24 64.856 480.834 64.739 481.494 64.739C482.04 64.739 482.544 64.832 483.006 65.018C483.474 65.198 483.876 65.462 484.212 65.81C484.554 66.152 484.821 66.578 485.013 67.088C485.205 67.592 485.301 68.168 485.301 68.816C485.301 69.068 485.274 69.236 485.22 69.32C485.166 69.404 485.064 69.446 484.914 69.446H478.821C478.839 70.022 478.917 70.523 479.055 70.949C479.199 71.375 479.397 71.732 479.649 72.02C479.901 72.302 480.201 72.515 480.549 72.659C480.897 72.797 481.287 72.866 481.719 72.866C482.121 72.866 482.466 72.821 482.754 72.731C483.048 72.635 483.3 72.533 483.51 72.425C483.72 72.317 483.894 72.218 484.032 72.128C484.176 72.032 484.299 71.984 484.401 71.984C484.533 71.984 484.635 72.035 484.707 72.137L485.157 72.722Z" fill="#222222"/>
<path opacity="0.6" d="M189.303 62.076V75H188.331C188.181 75 188.055 74.973 187.953 74.919C187.857 74.865 187.758 74.778 187.656 74.658L180.357 65.217C180.369 65.379 180.378 65.538 180.384 65.694C180.396 65.85 180.402 65.997 180.402 66.135V75H178.719V62.076H179.709C179.877 62.076 180.003 62.097 180.087 62.139C180.171 62.175 180.264 62.262 180.366 62.4L187.683 71.85C187.665 71.676 187.65 71.508 187.638 71.346C187.632 71.178 187.629 71.022 187.629 70.878V62.076H189.303ZM195.756 65.712C196.428 65.712 197.034 65.823 197.574 66.045C198.12 66.261 198.582 66.576 198.96 66.99C199.344 67.398 199.638 67.893 199.842 68.475C200.046 69.051 200.148 69.699 200.148 70.419C200.148 71.139 200.046 71.79 199.842 72.372C199.638 72.954 199.344 73.449 198.96 73.857C198.582 74.265 198.12 74.58 197.574 74.802C197.034 75.018 196.428 75.126 195.756 75.126C195.078 75.126 194.466 75.018 193.92 74.802C193.38 74.58 192.918 74.265 192.534 73.857C192.15 73.449 191.853 72.954 191.643 72.372C191.439 71.79 191.337 71.139 191.337 70.419C191.337 69.699 191.439 69.051 191.643 68.475C191.853 67.893 192.15 67.398 192.534 66.99C192.918 66.576 193.38 66.261 193.92 66.045C194.466 65.823 195.078 65.712 195.756 65.712ZM195.756 73.758C196.62 73.758 197.265 73.467 197.691 72.885C198.117 72.303 198.33 71.484 198.33 70.428C198.33 69.372 198.117 68.553 197.691 67.971C197.265 67.383 196.62 67.089 195.756 67.089C194.88 67.089 194.226 67.383 193.794 67.971C193.368 68.553 193.155 69.372 193.155 70.428C193.155 71.484 193.368 72.303 193.794 72.885C194.226 73.467 194.88 73.758 195.756 73.758ZM203.763 67.611C204.057 67.011 204.411 66.54 204.825 66.198C205.239 65.856 205.737 65.685 206.319 65.685C206.517 65.685 206.703 65.709 206.877 65.757C207.057 65.799 207.213 65.865 207.345 65.955L207.228 67.278C207.186 67.44 207.087 67.521 206.931 67.521C206.847 67.521 206.721 67.506 206.553 67.476C206.385 67.44 206.205 67.422 206.013 67.422C205.731 67.422 205.482 67.464 205.266 67.548C205.05 67.626 204.855 67.746 204.681 67.908C204.513 68.064 204.363 68.259 204.231 68.493C204.099 68.721 203.976 68.982 203.862 69.276V75H202.107V65.856H203.115C203.307 65.856 203.436 65.892 203.502 65.964C203.574 66.03 203.625 66.15 203.655 66.324L203.763 67.611ZM208.699 75V65.856H209.752C209.998 65.856 210.151 65.973 210.211 66.207L210.337 67.08C210.673 66.678 211.045 66.351 211.453 66.099C211.867 65.841 212.35 65.712 212.902 65.712C213.508 65.712 214 65.88 214.378 66.216C214.756 66.546 215.032 66.996 215.206 67.566C215.338 67.242 215.509 66.963 215.719 66.729C215.929 66.495 216.163 66.303 216.421 66.153C216.679 66.003 216.952 65.892 217.24 65.82C217.534 65.748 217.831 65.712 218.131 65.712C218.617 65.712 219.049 65.79 219.427 65.946C219.811 66.096 220.135 66.318 220.399 66.612C220.663 66.906 220.864 67.269 221.002 67.701C221.14 68.133 221.209 68.625 221.209 69.177V75H219.445V69.177C219.445 68.493 219.295 67.977 218.995 67.629C218.701 67.281 218.269 67.107 217.699 67.107C217.447 67.107 217.207 67.152 216.979 67.242C216.751 67.326 216.55 67.455 216.376 67.629C216.208 67.803 216.073 68.019 215.971 68.277C215.875 68.535 215.827 68.835 215.827 69.177V75H214.063V69.177C214.063 68.469 213.922 67.947 213.64 67.611C213.358 67.275 212.944 67.107 212.398 67.107C212.02 67.107 211.669 67.206 211.345 67.404C211.021 67.602 210.724 67.872 210.454 68.214V75H208.699ZM228.484 70.941C227.77 70.965 227.164 71.022 226.666 71.112C226.168 71.196 225.763 71.31 225.451 71.454C225.139 71.598 224.914 71.769 224.776 71.967C224.638 72.159 224.569 72.375 224.569 72.615C224.569 72.843 224.605 73.041 224.677 73.209C224.755 73.371 224.857 73.506 224.983 73.614C225.115 73.716 225.268 73.791 225.442 73.839C225.616 73.887 225.805 73.911 226.009 73.911C226.279 73.911 226.525 73.884 226.747 73.83C226.975 73.776 227.188 73.701 227.386 73.605C227.584 73.503 227.773 73.38 227.953 73.236C228.133 73.092 228.31 72.927 228.484 72.741V70.941ZM223.336 67.134C223.846 66.648 224.398 66.285 224.992 66.045C225.592 65.805 226.249 65.685 226.963 65.685C227.485 65.685 227.947 65.772 228.349 65.946C228.751 66.114 229.09 66.351 229.366 66.657C229.642 66.963 229.849 67.329 229.987 67.755C230.131 68.181 230.203 68.652 230.203 69.168V75H229.42C229.246 75 229.114 74.973 229.024 74.919C228.934 74.859 228.862 74.751 228.808 74.595L228.619 73.794C228.385 74.01 228.154 74.202 227.926 74.37C227.698 74.532 227.458 74.673 227.206 74.793C226.96 74.907 226.696 74.994 226.414 75.054C226.132 75.114 225.82 75.144 225.478 75.144C225.118 75.144 224.779 75.096 224.461 75C224.149 74.898 223.876 74.745 223.642 74.541C223.408 74.337 223.222 74.082 223.084 73.776C222.952 73.47 222.886 73.113 222.886 72.705C222.886 72.345 222.982 72 223.174 71.67C223.372 71.334 223.69 71.034 224.128 70.77C224.572 70.506 225.148 70.29 225.856 70.122C226.57 69.954 227.446 69.858 228.484 69.834V69.168C228.484 68.478 228.337 67.962 228.043 67.62C227.749 67.278 227.317 67.107 226.747 67.107C226.363 67.107 226.039 67.155 225.775 67.251C225.517 67.347 225.292 67.455 225.1 67.575C224.914 67.689 224.749 67.794 224.605 67.89C224.467 67.986 224.323 68.034 224.173 68.034C224.053 68.034 223.948 68.001 223.858 67.935C223.774 67.869 223.705 67.791 223.651 67.701L223.336 67.134ZM234.352 61.716V75H232.588V61.716H234.352ZM242.483 69.348C242.483 70.62 242.642 71.859 242.96 73.065C243.278 74.271 243.743 75.414 244.355 76.494C244.457 76.692 244.484 76.845 244.436 76.953C244.388 77.061 244.313 77.148 244.211 77.214L243.428 77.691C242.978 77.001 242.594 76.314 242.276 75.63C241.964 74.952 241.709 74.271 241.511 73.587C241.319 72.897 241.178 72.201 241.088 71.499C240.998 70.797 240.953 70.08 240.953 69.348C240.953 68.61 240.998 67.89 241.088 67.188C241.178 66.486 241.319 65.793 241.511 65.109C241.709 64.419 241.964 63.735 242.276 63.057C242.594 62.373 242.978 61.686 243.428 60.996L244.211 61.473C244.313 61.539 244.388 61.626 244.436 61.734C244.484 61.842 244.457 61.995 244.355 62.193C243.743 63.273 243.278 64.419 242.96 65.631C242.642 66.837 242.483 68.076 242.483 69.348ZM251.223 73.479C251.709 73.479 252.123 73.422 252.465 73.308C252.813 73.194 253.095 73.038 253.311 72.84C253.533 72.642 253.695 72.408 253.797 72.138C253.899 71.862 253.95 71.562 253.95 71.238C253.95 70.596 253.728 70.092 253.284 69.726C252.84 69.354 252.153 69.168 251.223 69.168H248.523V73.479H251.223ZM248.523 63.579V67.809H250.728C251.67 67.809 252.369 67.62 252.825 67.242C253.287 66.858 253.518 66.342 253.518 65.694C253.518 64.956 253.299 64.419 252.861 64.083C252.423 63.747 251.742 63.579 250.818 63.579H248.523ZM250.818 62.076C251.628 62.076 252.321 62.154 252.897 62.31C253.479 62.466 253.956 62.691 254.328 62.985C254.7 63.279 254.973 63.636 255.147 64.056C255.327 64.47 255.417 64.941 255.417 65.469C255.417 65.781 255.369 66.081 255.273 66.369C255.177 66.657 255.03 66.927 254.832 67.179C254.634 67.425 254.385 67.647 254.085 67.845C253.785 68.043 253.431 68.208 253.023 68.34C254.901 68.712 255.84 69.693 255.84 71.283C255.84 71.835 255.738 72.339 255.534 72.795C255.33 73.245 255.033 73.635 254.643 73.965C254.253 74.295 253.773 74.55 253.203 74.73C252.633 74.91 251.985 75 251.259 75H246.606V62.076H250.818ZM271.885 62.076V75H270.211V65.802C270.211 65.664 270.214 65.517 270.22 65.361C270.232 65.205 270.244 65.046 270.256 64.884L265.954 72.777C265.804 73.071 265.573 73.218 265.261 73.218H264.991C264.679 73.218 264.451 73.071 264.307 72.777L259.924 64.857C259.96 65.193 259.978 65.508 259.978 65.802V75H258.295V62.076H259.717C259.885 62.076 260.014 62.094 260.104 62.13C260.2 62.16 260.29 62.25 260.374 62.4L264.694 70.14C264.778 70.296 264.856 70.461 264.928 70.635C265 70.809 265.069 70.983 265.135 71.157C265.261 70.803 265.408 70.461 265.576 70.131L269.815 62.4C269.893 62.25 269.977 62.16 270.067 62.13C270.163 62.094 270.295 62.076 270.463 62.076H271.885ZM277.008 75H275.082V62.076H277.008V75ZM292.031 73.335C292.223 73.335 292.373 73.392 292.481 73.506C292.589 73.614 292.643 73.758 292.643 73.938V75H283.967V74.397C283.967 74.277 283.991 74.151 284.039 74.019C284.087 73.881 284.168 73.758 284.282 73.65L288.368 69.555C288.71 69.213 289.019 68.883 289.295 68.565C289.571 68.247 289.805 67.932 289.997 67.62C290.189 67.302 290.336 66.978 290.438 66.648C290.546 66.318 290.6 65.97 290.6 65.604C290.6 65.244 290.543 64.929 290.429 64.659C290.315 64.383 290.159 64.155 289.961 63.975C289.763 63.795 289.529 63.66 289.259 63.57C288.989 63.48 288.698 63.435 288.386 63.435C288.074 63.435 287.786 63.48 287.522 63.57C287.264 63.66 287.033 63.786 286.829 63.948C286.625 64.11 286.454 64.302 286.316 64.524C286.178 64.746 286.079 64.986 286.019 65.244C285.935 65.472 285.827 65.625 285.695 65.703C285.569 65.781 285.383 65.799 285.137 65.757L284.219 65.595C284.303 64.995 284.468 64.467 284.714 64.011C284.96 63.555 285.269 63.174 285.641 62.868C286.013 62.556 286.439 62.322 286.919 62.166C287.405 62.01 287.927 61.932 288.485 61.932C289.049 61.932 289.568 62.016 290.042 62.184C290.522 62.346 290.936 62.583 291.284 62.895C291.632 63.207 291.905 63.588 292.103 64.038C292.301 64.482 292.4 64.986 292.4 65.55C292.4 66.03 292.328 66.477 292.184 66.891C292.046 67.299 291.854 67.689 291.608 68.061C291.368 68.433 291.086 68.796 290.762 69.15C290.444 69.498 290.105 69.852 289.745 70.212L286.469 73.56C286.721 73.494 286.973 73.44 287.225 73.398C287.483 73.356 287.726 73.335 287.954 73.335H292.031ZM302.797 73.659V75H295.813V73.659H298.549V65.19C298.549 64.92 298.558 64.641 298.576 64.353L296.38 66.216C296.296 66.282 296.212 66.324 296.128 66.342C296.044 66.36 295.963 66.363 295.885 66.351C295.813 66.339 295.747 66.315 295.687 66.279C295.633 66.237 295.588 66.195 295.552 66.153L295.003 65.388L298.873 62.049H300.304V73.659H302.797ZM306.578 69.348C306.578 68.076 306.416 66.837 306.092 65.631C305.774 64.419 305.309 63.273 304.697 62.193C304.595 61.995 304.568 61.842 304.616 61.734C304.67 61.626 304.748 61.539 304.85 61.473L305.633 60.996C306.083 61.686 306.464 62.373 306.776 63.057C307.088 63.735 307.343 64.419 307.541 65.109C307.739 65.793 307.883 66.486 307.973 67.188C308.063 67.89 308.108 68.61 308.108 69.348C308.108 70.08 308.063 70.797 307.973 71.499C307.883 72.201 307.739 72.897 307.541 73.587C307.343 74.271 307.088 74.952 306.776 75.63C306.464 76.314 306.083 77.001 305.633 77.691L304.85 77.214C304.748 77.148 304.67 77.061 304.616 76.953C304.568 76.845 304.595 76.692 304.697 76.494C305.309 75.414 305.774 74.271 306.092 73.065C306.416 71.859 306.578 70.62 306.578 69.348Z" fill="#222222"/>
<rect x="241" y="17" width="7" height="28" rx="3.5" fill="#2D73F6" stroke="white" stroke-width="4"/>
<path d="M6.687 73.047C7.155 73.047 7.572 72.969 7.938 72.813C8.31 72.657 8.622 72.438 8.874 72.156C9.126 71.874 9.318 71.532 9.45 71.13C9.588 70.728 9.657 70.278 9.657 69.78V61.986H12.078V69.78C12.078 70.554 11.952 71.271 11.7 71.931C11.454 72.585 11.097 73.152 10.629 73.632C10.167 74.106 9.603 74.478 8.937 74.748C8.271 75.012 7.521 75.144 6.687 75.144C5.847 75.144 5.094 75.012 4.428 74.748C3.762 74.478 3.195 74.106 2.727 73.632C2.265 73.152 1.908 72.585 1.656 71.931C1.41 71.271 1.287 70.554 1.287 69.78V61.986H3.708V69.771C3.708 70.269 3.774 70.719 3.906 71.121C4.044 71.523 4.239 71.868 4.491 72.156C4.749 72.438 5.061 72.657 5.427 72.813C5.799 72.969 6.219 73.047 6.687 73.047ZM16.2375 66.9C16.4235 66.714 16.6185 66.543 16.8225 66.387C17.0325 66.225 17.2515 66.09 17.4795 65.982C17.7135 65.868 17.9625 65.781 18.2265 65.721C18.4905 65.655 18.7785 65.622 19.0905 65.622C19.5945 65.622 20.0415 65.709 20.4315 65.883C20.8215 66.051 21.1455 66.291 21.4035 66.603C21.6675 66.909 21.8655 67.278 21.9975 67.71C22.1355 68.136 22.2045 68.607 22.2045 69.123V75H19.9815V69.123C19.9815 68.559 19.8525 68.124 19.5945 67.818C19.3365 67.506 18.9435 67.35 18.4155 67.35C18.0315 67.35 17.6715 67.437 17.3355 67.611C16.9995 67.785 16.6815 68.022 16.3815 68.322V75H14.1585V65.766H15.5175C15.8055 65.766 15.9945 65.901 16.0845 66.171L16.2375 66.9ZM30.1147 68.124C29.8627 67.818 29.5867 67.602 29.2867 67.476C28.9927 67.35 28.6747 67.287 28.3327 67.287C27.9967 67.287 27.6937 67.35 27.4237 67.476C27.1537 67.602 26.9227 67.794 26.7307 68.052C26.5387 68.304 26.3917 68.628 26.2897 69.024C26.1877 69.414 26.1367 69.876 26.1367 70.41C26.1367 70.95 26.1787 71.409 26.2627 71.787C26.3527 72.159 26.4787 72.465 26.6407 72.705C26.8027 72.939 27.0007 73.11 27.2347 73.218C27.4687 73.32 27.7297 73.371 28.0177 73.371C28.4797 73.371 28.8727 73.275 29.1967 73.083C29.5207 72.891 29.8267 72.618 30.1147 72.264V68.124ZM32.3377 61.626V75H30.9787C30.6847 75 30.4987 74.865 30.4207 74.595L30.2317 73.704C29.8597 74.13 29.4307 74.475 28.9447 74.739C28.4647 75.003 27.9037 75.135 27.2617 75.135C26.7577 75.135 26.2957 75.03 25.8757 74.82C25.4557 74.61 25.0927 74.307 24.7867 73.911C24.4867 73.509 24.2527 73.014 24.0847 72.426C23.9227 71.838 23.8417 71.166 23.8417 70.41C23.8417 69.726 23.9347 69.09 24.1207 68.502C24.3067 67.914 24.5737 67.404 24.9217 66.972C25.2697 66.54 25.6867 66.204 26.1727 65.964C26.6587 65.718 27.2047 65.595 27.8107 65.595C28.3267 65.595 28.7677 65.676 29.1337 65.838C29.4997 66 29.8267 66.219 30.1147 66.495V61.626H32.3377ZM40.4806 69.321C40.4806 69.033 40.4386 68.763 40.3546 68.511C40.2766 68.253 40.1566 68.028 39.9946 67.836C39.8326 67.644 39.6256 67.494 39.3736 67.386C39.1276 67.272 38.8396 67.215 38.5096 67.215C37.8676 67.215 37.3606 67.398 36.9886 67.764C36.6226 68.13 36.3886 68.649 36.2866 69.321H40.4806ZM36.2416 70.662C36.2776 71.136 36.3616 71.547 36.4936 71.895C36.6256 72.237 36.7996 72.522 37.0156 72.75C37.2316 72.972 37.4866 73.14 37.7806 73.254C38.0806 73.362 38.4106 73.416 38.7706 73.416C39.1306 73.416 39.4396 73.374 39.6976 73.29C39.9616 73.206 40.1896 73.113 40.3816 73.011C40.5796 72.909 40.7506 72.816 40.8946 72.732C41.0446 72.648 41.1886 72.606 41.3266 72.606C41.5126 72.606 41.6506 72.675 41.7406 72.813L42.3796 73.623C42.1336 73.911 41.8576 74.154 41.5516 74.352C41.2456 74.544 40.9246 74.7 40.5886 74.82C40.2586 74.934 39.9196 75.015 39.5716 75.063C39.2296 75.111 38.8966 75.135 38.5726 75.135C37.9306 75.135 37.3336 75.03 36.7816 74.82C36.2296 74.604 35.7496 74.289 35.3416 73.875C34.9336 73.455 34.6126 72.939 34.3786 72.327C34.1446 71.709 34.0276 70.995 34.0276 70.185C34.0276 69.555 34.1296 68.964 34.3336 68.412C34.5376 67.854 34.8286 67.371 35.2066 66.963C35.5906 66.549 36.0556 66.222 36.6016 65.982C37.1536 65.742 37.7746 65.622 38.4646 65.622C39.0466 65.622 39.5836 65.715 40.0756 65.901C40.5676 66.087 40.9906 66.36 41.3446 66.72C41.6986 67.074 41.9746 67.512 42.1726 68.034C42.3766 68.55 42.4786 69.141 42.4786 69.807C42.4786 70.143 42.4426 70.371 42.3706 70.491C42.2986 70.605 42.1606 70.662 41.9566 70.662H36.2416ZM46.2438 67.368C46.5318 66.816 46.8738 66.384 47.2698 66.072C47.6658 65.754 48.1338 65.595 48.6738 65.595C49.0998 65.595 49.4418 65.688 49.6998 65.874L49.5558 67.539C49.5258 67.647 49.4808 67.725 49.4208 67.773C49.3668 67.815 49.2918 67.836 49.1958 67.836C49.1058 67.836 48.9708 67.821 48.7908 67.791C48.6168 67.761 48.4458 67.746 48.2778 67.746C48.0318 67.746 47.8128 67.782 47.6208 67.854C47.4288 67.926 47.2548 68.031 47.0988 68.169C46.9488 68.301 46.8138 68.463 46.6938 68.655C46.5798 68.847 46.4718 69.066 46.3698 69.312V75H44.1468V65.766H45.4518C45.6798 65.766 45.8388 65.808 45.9288 65.892C46.0188 65.97 46.0788 66.114 46.1088 66.324L46.2438 67.368ZM64.0467 65.766L61.1127 75H59.3307C59.1267 75 58.9857 74.868 58.9077 74.604L57.2517 69.267C57.1977 69.087 57.1467 68.91 57.0987 68.736C57.0567 68.556 57.0207 68.376 56.9907 68.196C56.9547 68.376 56.9127 68.559 56.8647 68.745C56.8227 68.925 56.7747 69.105 56.7207 69.285L55.0377 74.604C54.9657 74.868 54.8067 75 54.5607 75H52.8507L49.9257 65.766H51.6987C51.8607 65.766 51.9987 65.805 52.1127 65.883C52.2267 65.961 52.3017 66.06 52.3377 66.18L53.6607 71.112C53.7267 71.382 53.7837 71.646 53.8317 71.904C53.8857 72.162 53.9307 72.42 53.9667 72.678C54.0327 72.42 54.1017 72.162 54.1737 71.904C54.2517 71.646 54.3327 71.382 54.4167 71.112L55.9467 66.162C55.9827 66.042 56.0517 65.943 56.1537 65.865C56.2617 65.787 56.3907 65.748 56.5407 65.748H57.5217C57.6777 65.748 57.8097 65.787 57.9177 65.865C58.0317 65.943 58.1067 66.042 58.1427 66.162L59.6277 71.112C59.7057 71.382 59.7777 71.649 59.8437 71.913C59.9157 72.171 59.9847 72.429 60.0507 72.687C60.1287 72.177 60.2397 71.652 60.3837 71.112L61.7427 66.18C61.7847 66.06 61.8597 65.961 61.9677 65.883C62.0757 65.805 62.2047 65.766 62.3547 65.766H64.0467ZM71.1017 69.321C71.1017 69.033 71.0597 68.763 70.9757 68.511C70.8977 68.253 70.7777 68.028 70.6157 67.836C70.4537 67.644 70.2467 67.494 69.9947 67.386C69.7487 67.272 69.4607 67.215 69.1307 67.215C68.4887 67.215 67.9817 67.398 67.6097 67.764C67.2437 68.13 67.0097 68.649 66.9077 69.321H71.1017ZM66.8627 70.662C66.8987 71.136 66.9827 71.547 67.1147 71.895C67.2467 72.237 67.4207 72.522 67.6367 72.75C67.8527 72.972 68.1077 73.14 68.4017 73.254C68.7017 73.362 69.0317 73.416 69.3917 73.416C69.7517 73.416 70.0607 73.374 70.3187 73.29C70.5827 73.206 70.8107 73.113 71.0027 73.011C71.2007 72.909 71.3717 72.816 71.5157 72.732C71.6657 72.648 71.8097 72.606 71.9477 72.606C72.1337 72.606 72.2717 72.675 72.3617 72.813L73.0007 73.623C72.7547 73.911 72.4787 74.154 72.1727 74.352C71.8667 74.544 71.5457 74.7 71.2097 74.82C70.8797 74.934 70.5407 75.015 70.1927 75.063C69.8507 75.111 69.5177 75.135 69.1937 75.135C68.5517 75.135 67.9547 75.03 67.4027 74.82C66.8507 74.604 66.3707 74.289 65.9627 73.875C65.5547 73.455 65.2337 72.939 64.9997 72.327C64.7657 71.709 64.6487 70.995 64.6487 70.185C64.6487 69.555 64.7507 68.964 64.9547 68.412C65.1587 67.854 65.4497 67.371 65.8277 66.963C66.2117 66.549 66.6767 66.222 67.2227 65.982C67.7747 65.742 68.3957 65.622 69.0857 65.622C69.6677 65.622 70.2047 65.715 70.6967 65.901C71.1887 66.087 71.6117 66.36 71.9657 66.72C72.3197 67.074 72.5957 67.512 72.7937 68.034C72.9977 68.55 73.0997 69.141 73.0997 69.807C73.0997 70.143 73.0637 70.371 72.9917 70.491C72.9197 70.605 72.7817 70.662 72.5777 70.662H66.8627ZM77.0719 65.766V75H74.8399V65.766H77.0719ZM77.3779 63.075C77.3779 63.267 77.3389 63.447 77.2609 63.615C77.1829 63.783 77.0779 63.93 76.9459 64.056C76.8199 64.182 76.6699 64.284 76.4959 64.362C76.3219 64.434 76.1359 64.47 75.9379 64.47C75.7459 64.47 75.5629 64.434 75.3889 64.362C75.2209 64.284 75.0739 64.182 74.9479 64.056C74.8219 63.93 74.7199 63.783 74.6419 63.615C74.5699 63.447 74.5339 63.267 74.5339 63.075C74.5339 62.877 74.5699 62.691 74.6419 62.517C74.7199 62.343 74.8219 62.193 74.9479 62.067C75.0739 61.941 75.2209 61.842 75.3889 61.77C75.5629 61.692 75.7459 61.653 75.9379 61.653C76.1359 61.653 76.3219 61.692 76.4959 61.77C76.6699 61.842 76.8199 61.941 76.9459 62.067C77.0779 62.193 77.1829 62.343 77.2609 62.517C77.3389 62.691 77.3779 62.877 77.3779 63.075ZM82.7132 70.158C82.9892 70.158 83.2292 70.122 83.4332 70.05C83.6372 69.972 83.8052 69.867 83.9372 69.735C84.0752 69.603 84.1772 69.444 84.2432 69.258C84.3152 69.072 84.3512 68.868 84.3512 68.646C84.3512 68.19 84.2132 67.83 83.9372 67.566C83.6672 67.296 83.2592 67.161 82.7132 67.161C82.1672 67.161 81.7562 67.296 81.4802 67.566C81.2102 67.83 81.0752 68.19 81.0752 68.646C81.0752 68.862 81.1082 69.063 81.1742 69.249C81.2462 69.435 81.3482 69.597 81.4802 69.735C81.6182 69.867 81.7892 69.972 81.9932 70.05C82.2032 70.122 82.4432 70.158 82.7132 70.158ZM85.2242 75.414C85.2242 75.234 85.1702 75.087 85.0622 74.973C84.9542 74.859 84.8072 74.772 84.6212 74.712C84.4352 74.646 84.2162 74.598 83.9642 74.568C83.7182 74.538 83.4542 74.517 83.1722 74.505C82.8962 74.487 82.6082 74.472 82.3082 74.46C82.0142 74.448 81.7262 74.424 81.4442 74.388C81.1982 74.526 80.9972 74.688 80.8412 74.874C80.6912 75.06 80.6162 75.276 80.6162 75.522C80.6162 75.684 80.6552 75.834 80.7332 75.972C80.8172 76.116 80.9462 76.239 81.1202 76.341C81.3002 76.443 81.5312 76.521 81.8132 76.575C82.0952 76.635 82.4402 76.665 82.8482 76.665C83.2622 76.665 83.6192 76.632 83.9192 76.566C84.2192 76.506 84.4652 76.419 84.6572 76.305C84.8552 76.197 84.9992 76.065 85.0892 75.909C85.1792 75.759 85.2242 75.594 85.2242 75.414ZM87.4382 66.081V66.909C87.4382 67.173 87.2792 67.335 86.9612 67.395L86.1332 67.548C86.2592 67.866 86.3222 68.214 86.3222 68.592C86.3222 69.048 86.2292 69.462 86.0432 69.834C85.8632 70.2 85.6112 70.512 85.2872 70.77C84.9632 71.028 84.5792 71.229 84.1352 71.373C83.6972 71.511 83.2232 71.58 82.7132 71.58C82.5332 71.58 82.3592 71.571 82.1912 71.553C82.0232 71.535 81.8582 71.511 81.6962 71.481C81.4082 71.655 81.2642 71.85 81.2642 72.066C81.2642 72.252 81.3482 72.39 81.5162 72.48C81.6902 72.564 81.9182 72.624 82.2002 72.66C82.4822 72.696 82.8032 72.72 83.1632 72.732C83.5232 72.738 83.8922 72.756 84.2702 72.786C84.6482 72.816 85.0172 72.87 85.3772 72.948C85.7372 73.02 86.0582 73.137 86.3402 73.299C86.6222 73.461 86.8472 73.683 87.0152 73.965C87.1892 74.241 87.2762 74.598 87.2762 75.036C87.2762 75.444 87.1742 75.84 86.9702 76.224C86.7722 76.608 86.4812 76.95 86.0972 77.25C85.7192 77.55 85.2512 77.79 84.6932 77.97C84.1412 78.156 83.5112 78.249 82.8032 78.249C82.1072 78.249 81.5012 78.18 80.9852 78.042C80.4692 77.91 80.0402 77.73 79.6982 77.502C79.3562 77.28 79.1012 77.022 78.9332 76.728C78.7652 76.434 78.6812 76.128 78.6812 75.81C78.6812 75.378 78.8102 75.018 79.0682 74.73C79.3322 74.436 79.6922 74.202 80.1482 74.028C79.9022 73.902 79.7072 73.734 79.5632 73.524C79.4192 73.314 79.3472 73.038 79.3472 72.696C79.3472 72.558 79.3712 72.417 79.4192 72.273C79.4732 72.123 79.5482 71.976 79.6442 71.832C79.7462 71.688 79.8722 71.553 80.0222 71.427C80.1722 71.295 80.3492 71.178 80.5532 71.076C80.0852 70.824 79.7162 70.488 79.4462 70.068C79.1822 69.648 79.0502 69.156 79.0502 68.592C79.0502 68.136 79.1402 67.725 79.3202 67.359C79.5062 66.987 79.7612 66.672 80.0852 66.414C80.4152 66.15 80.8022 65.949 81.2462 65.811C81.6962 65.673 82.1852 65.604 82.7132 65.604C83.1092 65.604 83.4812 65.646 83.8292 65.73C84.1772 65.808 84.4952 65.925 84.7832 66.081H87.4382ZM91.071 66.756C91.431 66.42 91.827 66.147 92.259 65.937C92.691 65.727 93.198 65.622 93.78 65.622C94.284 65.622 94.731 65.709 95.121 65.883C95.511 66.051 95.835 66.291 96.093 66.603C96.357 66.909 96.555 67.278 96.687 67.71C96.825 68.136 96.894 68.607 96.894 69.123V75H94.671V69.123C94.671 68.559 94.542 68.124 94.284 67.818C94.026 67.506 93.633 67.35 93.105 67.35C92.721 67.35 92.361 67.437 92.025 67.611C91.689 67.785 91.371 68.022 91.071 68.322V75H88.848V61.626H91.071V66.756ZM101.963 75.144C101.159 75.144 100.541 74.919 100.109 74.469C99.6831 74.013 99.4701 73.386 99.4701 72.588V67.431H98.5251C98.4051 67.431 98.3031 67.392 98.2191 67.314C98.1351 67.236 98.0931 67.119 98.0931 66.963V66.081L99.5781 65.838L100.046 63.318C100.076 63.198 100.133 63.105 100.217 63.039C100.301 62.973 100.409 62.94 100.541 62.94H101.693V65.847H104.159V67.431H101.693V72.435C101.693 72.723 101.762 72.948 101.9 73.11C102.044 73.272 102.239 73.353 102.485 73.353C102.623 73.353 102.737 73.338 102.827 73.308C102.923 73.272 103.004 73.236 103.07 73.2C103.142 73.164 103.205 73.131 103.259 73.101C103.313 73.065 103.367 73.047 103.421 73.047C103.487 73.047 103.541 73.065 103.583 73.101C103.625 73.131 103.67 73.179 103.718 73.245L104.384 74.325C104.06 74.595 103.688 74.799 103.268 74.937C102.848 75.075 102.413 75.144 101.963 75.144Z" fill="#222222"/>
<path d="M83.083 6.36V10H81.341V6.36L77.9155 0.600999H79.456C79.6077 0.600999 79.7268 0.637833 79.8135 0.7115C79.9045 0.785166 79.9803 0.878333 80.041 0.991L81.757 4.1305C81.8567 4.31683 81.9433 4.49233 82.017 4.657C82.095 4.82167 82.1643 4.98633 82.225 5.151C82.2813 4.98633 82.3463 4.82167 82.42 4.657C82.4937 4.49233 82.5782 4.31683 82.6735 4.1305L84.383 0.991C84.4307 0.895666 84.5022 0.806833 84.5975 0.7245C84.6928 0.642166 84.8142 0.600999 84.9615 0.600999H86.5085L83.083 6.36ZM95.8938 5.3005C95.8938 5.9895 95.779 6.62867 95.5493 7.218C95.324 7.803 95.0033 8.31 94.5873 8.739C94.1713 9.168 93.6708 9.50383 93.0858 9.7465C92.5008 9.98483 91.8508 10.104 91.1358 10.104C90.4251 10.104 89.7773 9.98483 89.1923 9.7465C88.6073 9.50383 88.1046 9.168 87.6843 8.739C87.2683 8.31 86.9455 7.803 86.7158 7.218C86.4861 6.62867 86.3713 5.9895 86.3713 5.3005C86.3713 4.6115 86.4861 3.9745 86.7158 3.3895C86.9455 2.80017 87.2683 2.291 87.6843 1.862C88.1046 1.433 88.6073 1.09933 89.1923 0.861C89.7773 0.618333 90.4251 0.497 91.1358 0.497C91.6125 0.497 92.061 0.553333 92.4813 0.665999C92.9016 0.774333 93.2873 0.930333 93.6383 1.134C93.9893 1.33333 94.3035 1.57817 94.5808 1.8685C94.8625 2.1545 95.1008 2.47517 95.2958 2.8305C95.4908 3.18583 95.6381 3.5715 95.7378 3.9875C95.8418 4.4035 95.8938 4.84117 95.8938 5.3005ZM94.1063 5.3005C94.1063 4.78483 94.037 4.32333 93.8983 3.916C93.7596 3.50433 93.5625 3.1555 93.3068 2.8695C93.0511 2.5835 92.7391 2.36467 92.3708 2.213C92.0068 2.06133 91.5951 1.9855 91.1358 1.9855C90.6765 1.9855 90.2626 2.06133 89.8943 2.213C89.5303 2.36467 89.2183 2.5835 88.9583 2.8695C88.7026 3.1555 88.5055 3.50433 88.3668 3.916C88.2281 4.32333 88.1588 4.78483 88.1588 5.3005C88.1588 5.81617 88.2281 6.27983 88.3668 6.6915C88.5055 7.09883 88.7026 7.4455 88.9583 7.7315C89.2183 8.01317 89.5303 8.22983 89.8943 8.3815C90.2626 8.53317 90.6765 8.609 91.1358 8.609C91.5951 8.609 92.0068 8.53317 92.3708 8.3815C92.7391 8.22983 93.0511 8.01317 93.3068 7.7315C93.5625 7.4455 93.7596 7.09883 93.8983 6.6915C94.037 6.27983 94.1063 5.81617 94.1063 5.3005ZM101.212 8.5895C101.55 8.5895 101.851 8.53317 102.116 8.4205C102.384 8.30783 102.61 8.14967 102.792 7.946C102.974 7.74233 103.112 7.49533 103.208 7.205C103.307 6.91467 103.357 6.58967 103.357 6.23V0.600999H105.106V6.23C105.106 6.789 105.015 7.30683 104.833 7.7835C104.655 8.25583 104.397 8.66533 104.059 9.012C103.726 9.35433 103.318 9.623 102.837 9.818C102.356 10.0087 101.815 10.104 101.212 10.104C100.606 10.104 100.062 10.0087 99.5808 9.818C99.0998 9.623 98.6903 9.35433 98.3523 9.012C98.0186 8.66533 97.7608 8.25583 97.5788 7.7835C97.4011 7.30683 97.3123 6.789 97.3123 6.23V0.600999H99.0608V6.2235C99.0608 6.58317 99.1085 6.90817 99.2038 7.1985C99.3035 7.48883 99.4443 7.738 99.6263 7.946C99.8126 8.14967 100.038 8.30783 100.302 8.4205C100.571 8.53317 100.874 8.5895 101.212 8.5895Z" fill="#DE2B70"/>
</svg>
