<svg width="296" height="74" viewBox="0 0 296 74" fill="none" xmlns="http://www.w3.org/2000/svg">
<rect y="23" width="295" height="8" rx="4" fill="#E2E3E9"/>
<circle cx="62" cy="27" r="14" fill="#DE2B70" stroke="white" stroke-width="4"/>
<path d="M53.083 6.36V10H51.341V6.36L47.9155 0.600999H49.456C49.6077 0.600999 49.7268 0.637833 49.8135 0.7115C49.9045 0.785166 49.9803 0.878333 50.041 0.991L51.757 4.1305C51.8567 4.31683 51.9433 4.49233 52.017 4.657C52.095 4.82167 52.1643 4.98633 52.225 5.151C52.2813 4.98633 52.3463 4.82167 52.42 4.657C52.4937 4.49233 52.5782 4.31683 52.6735 4.1305L54.383 0.991C54.4307 0.895666 54.5022 0.806833 54.5975 0.7245C54.6928 0.642166 54.8142 0.600999 54.9615 0.600999H56.5085L53.083 6.36ZM65.8938 5.3005C65.8938 5.9895 65.779 6.62867 65.5493 7.218C65.324 7.803 65.0033 8.31 64.5873 8.739C64.1713 9.168 63.6708 9.50383 63.0858 9.7465C62.5008 9.98483 61.8508 10.104 61.1358 10.104C60.4251 10.104 59.7773 9.98483 59.1923 9.7465C58.6073 9.50383 58.1046 9.168 57.6843 8.739C57.2683 8.31 56.9455 7.803 56.7158 7.218C56.4861 6.62867 56.3713 5.9895 56.3713 5.3005C56.3713 4.6115 56.4861 3.9745 56.7158 3.3895C56.9455 2.80017 57.2683 2.291 57.6843 1.862C58.1046 1.433 58.6073 1.09933 59.1923 0.861C59.7773 0.618333 60.4251 0.497 61.1358 0.497C61.6125 0.497 62.061 0.553333 62.4813 0.665999C62.9016 0.774333 63.2873 0.930333 63.6383 1.134C63.9893 1.33333 64.3035 1.57817 64.5808 1.8685C64.8625 2.1545 65.1008 2.47517 65.2958 2.8305C65.4908 3.18583 65.6381 3.5715 65.7378 3.9875C65.8418 4.4035 65.8938 4.84117 65.8938 5.3005ZM64.1063 5.3005C64.1063 4.78483 64.037 4.32333 63.8983 3.916C63.7596 3.50433 63.5625 3.1555 63.3068 2.8695C63.0511 2.5835 62.7391 2.36467 62.3708 2.213C62.0068 2.06133 61.5951 1.9855 61.1358 1.9855C60.6765 1.9855 60.2626 2.06133 59.8943 2.213C59.5303 2.36467 59.2183 2.5835 58.9583 2.8695C58.7026 3.1555 58.5055 3.50433 58.3668 3.916C58.2281 4.32333 58.1588 4.78483 58.1588 5.3005C58.1588 5.81617 58.2281 6.27983 58.3668 6.6915C58.5055 7.09883 58.7026 7.4455 58.9583 7.7315C59.2183 8.01317 59.5303 8.22983 59.8943 8.3815C60.2626 8.53317 60.6765 8.609 61.1358 8.609C61.5951 8.609 62.0068 8.53317 62.3708 8.3815C62.7391 8.22983 63.0511 8.01317 63.3068 7.7315C63.5625 7.4455 63.7596 7.09883 63.8983 6.6915C64.037 6.27983 64.1063 5.81617 64.1063 5.3005ZM71.2123 8.5895C71.5503 8.5895 71.8515 8.53317 72.1158 8.4205C72.3845 8.30783 72.6098 8.14967 72.7918 7.946C72.9738 7.74233 73.1125 7.49533 73.2078 7.205C73.3075 6.91467 73.3573 6.58967 73.3573 6.23V0.600999H75.1058V6.23C75.1058 6.789 75.0148 7.30683 74.8328 7.7835C74.6551 8.25583 74.3973 8.66533 74.0593 9.012C73.7256 9.35433 73.3183 9.623 72.8373 9.818C72.3563 10.0087 71.8146 10.104 71.2123 10.104C70.6056 10.104 70.0618 10.0087 69.5808 9.818C69.0998 9.623 68.6903 9.35433 68.3523 9.012C68.0186 8.66533 67.7608 8.25583 67.5788 7.7835C67.4011 7.30683 67.3123 6.789 67.3123 6.23V0.600999H69.0608V6.2235C69.0608 6.58317 69.1085 6.90817 69.2038 7.1985C69.3035 7.48883 69.4443 7.738 69.6263 7.946C69.8126 8.14967 70.038 8.30783 70.3023 8.4205C70.571 8.53317 70.8743 8.5895 71.2123 8.5895Z" fill="#DE2B70"/>
<path d="M16.9448 68.047C17.4128 68.047 17.8298 67.969 18.1958 67.813C18.5678 67.657 18.8798 67.438 19.1318 67.156C19.3838 66.874 19.5758 66.532 19.7078 66.13C19.8458 65.728 19.9148 65.278 19.9148 64.78V56.986H22.3358V64.78C22.3358 65.554 22.2098 66.271 21.9578 66.931C21.7118 67.585 21.3548 68.152 20.8868 68.632C20.4248 69.106 19.8608 69.478 19.1948 69.748C18.5288 70.012 17.7788 70.144 16.9448 70.144C16.1048 70.144 15.3518 70.012 14.6858 69.748C14.0198 69.478 13.4528 69.106 12.9848 68.632C12.5228 68.152 12.1658 67.585 11.9138 66.931C11.6678 66.271 11.5448 65.554 11.5448 64.78V56.986H13.9658V64.771C13.9658 65.269 14.0318 65.719 14.1638 66.121C14.3018 66.523 14.4968 66.868 14.7488 67.156C15.0068 67.438 15.3188 67.657 15.6848 67.813C16.0568 67.969 16.4768 68.047 16.9448 68.047ZM26.4954 61.9C26.6814 61.714 26.8764 61.543 27.0804 61.387C27.2904 61.225 27.5094 61.09 27.7374 60.982C27.9714 60.868 28.2204 60.781 28.4844 60.721C28.7484 60.655 29.0364 60.622 29.3484 60.622C29.8524 60.622 30.2994 60.709 30.6894 60.883C31.0794 61.051 31.4034 61.291 31.6614 61.603C31.9254 61.909 32.1234 62.278 32.2554 62.71C32.3934 63.136 32.4624 63.607 32.4624 64.123V70H30.2394V64.123C30.2394 63.559 30.1104 63.124 29.8524 62.818C29.5944 62.506 29.2014 62.35 28.6734 62.35C28.2894 62.35 27.9294 62.437 27.5934 62.611C27.2574 62.785 26.9394 63.022 26.6394 63.322V70H24.4164V60.766H25.7754C26.0634 60.766 26.2524 60.901 26.3424 61.171L26.4954 61.9ZM40.3725 63.124C40.1205 62.818 39.8445 62.602 39.5445 62.476C39.2505 62.35 38.9325 62.287 38.5905 62.287C38.2545 62.287 37.9515 62.35 37.6815 62.476C37.4115 62.602 37.1805 62.794 36.9885 63.052C36.7965 63.304 36.6495 63.628 36.5475 64.024C36.4455 64.414 36.3945 64.876 36.3945 65.41C36.3945 65.95 36.4365 66.409 36.5205 66.787C36.6105 67.159 36.7365 67.465 36.8985 67.705C37.0605 67.939 37.2585 68.11 37.4925 68.218C37.7265 68.32 37.9875 68.371 38.2755 68.371C38.7375 68.371 39.1305 68.275 39.4545 68.083C39.7785 67.891 40.0845 67.618 40.3725 67.264V63.124ZM42.5955 56.626V70H41.2365C40.9425 70 40.7565 69.865 40.6785 69.595L40.4895 68.704C40.1175 69.13 39.6885 69.475 39.2025 69.739C38.7225 70.003 38.1615 70.135 37.5195 70.135C37.0155 70.135 36.5535 70.03 36.1335 69.82C35.7135 69.61 35.3505 69.307 35.0445 68.911C34.7445 68.509 34.5105 68.014 34.3425 67.426C34.1805 66.838 34.0995 66.166 34.0995 65.41C34.0995 64.726 34.1925 64.09 34.3785 63.502C34.5645 62.914 34.8315 62.404 35.1795 61.972C35.5275 61.54 35.9445 61.204 36.4305 60.964C36.9165 60.718 37.4625 60.595 38.0685 60.595C38.5845 60.595 39.0255 60.676 39.3915 60.838C39.7575 61 40.0845 61.219 40.3725 61.495V56.626H42.5955ZM50.7384 64.321C50.7384 64.033 50.6964 63.763 50.6124 63.511C50.5344 63.253 50.4144 63.028 50.2524 62.836C50.0904 62.644 49.8834 62.494 49.6314 62.386C49.3854 62.272 49.0974 62.215 48.7674 62.215C48.1254 62.215 47.6184 62.398 47.2464 62.764C46.8804 63.13 46.6464 63.649 46.5444 64.321H50.7384ZM46.4994 65.662C46.5354 66.136 46.6194 66.547 46.7514 66.895C46.8834 67.237 47.0574 67.522 47.2734 67.75C47.4894 67.972 47.7444 68.14 48.0384 68.254C48.3384 68.362 48.6684 68.416 49.0284 68.416C49.3884 68.416 49.6974 68.374 49.9554 68.29C50.2194 68.206 50.4474 68.113 50.6394 68.011C50.8374 67.909 51.0084 67.816 51.1524 67.732C51.3024 67.648 51.4464 67.606 51.5844 67.606C51.7704 67.606 51.9084 67.675 51.9984 67.813L52.6374 68.623C52.3914 68.911 52.1154 69.154 51.8094 69.352C51.5034 69.544 51.1824 69.7 50.8464 69.82C50.5164 69.934 50.1774 70.015 49.8294 70.063C49.4874 70.111 49.1544 70.135 48.8304 70.135C48.1884 70.135 47.5914 70.03 47.0394 69.82C46.4874 69.604 46.0074 69.289 45.5994 68.875C45.1914 68.455 44.8704 67.939 44.6364 67.327C44.4024 66.709 44.2854 65.995 44.2854 65.185C44.2854 64.555 44.3874 63.964 44.5914 63.412C44.7954 62.854 45.0864 62.371 45.4644 61.963C45.8484 61.549 46.3134 61.222 46.8594 60.982C47.4114 60.742 48.0324 60.622 48.7224 60.622C49.3044 60.622 49.8414 60.715 50.3334 60.901C50.8254 61.087 51.2484 61.36 51.6024 61.72C51.9564 62.074 52.2324 62.512 52.4304 63.034C52.6344 63.55 52.7364 64.141 52.7364 64.807C52.7364 65.143 52.7004 65.371 52.6284 65.491C52.5564 65.605 52.4184 65.662 52.2144 65.662H46.4994ZM56.5016 62.368C56.7896 61.816 57.1316 61.384 57.5276 61.072C57.9236 60.754 58.3916 60.595 58.9316 60.595C59.3576 60.595 59.6996 60.688 59.9576 60.874L59.8136 62.539C59.7836 62.647 59.7386 62.725 59.6786 62.773C59.6246 62.815 59.5496 62.836 59.4536 62.836C59.3636 62.836 59.2286 62.821 59.0486 62.791C58.8746 62.761 58.7036 62.746 58.5356 62.746C58.2896 62.746 58.0706 62.782 57.8786 62.854C57.6866 62.926 57.5126 63.031 57.3566 63.169C57.2066 63.301 57.0716 63.463 56.9516 63.655C56.8376 63.847 56.7296 64.066 56.6276 64.312V70H54.4046V60.766H55.7096C55.9376 60.766 56.0966 60.808 56.1866 60.892C56.2766 60.97 56.3366 61.114 56.3666 61.324L56.5016 62.368ZM74.3045 60.766L71.3705 70H69.5885C69.3845 70 69.2435 69.868 69.1655 69.604L67.5095 64.267C67.4555 64.087 67.4045 63.91 67.3565 63.736C67.3145 63.556 67.2785 63.376 67.2485 63.196C67.2125 63.376 67.1705 63.559 67.1225 63.745C67.0805 63.925 67.0325 64.105 66.9785 64.285L65.2955 69.604C65.2235 69.868 65.0645 70 64.8185 70H63.1085L60.1835 60.766H61.9565C62.1185 60.766 62.2565 60.805 62.3705 60.883C62.4845 60.961 62.5595 61.06 62.5955 61.18L63.9185 66.112C63.9845 66.382 64.0415 66.646 64.0895 66.904C64.1435 67.162 64.1885 67.42 64.2245 67.678C64.2905 67.42 64.3595 67.162 64.4315 66.904C64.5095 66.646 64.5905 66.382 64.6745 66.112L66.2045 61.162C66.2405 61.042 66.3095 60.943 66.4115 60.865C66.5195 60.787 66.6485 60.748 66.7985 60.748H67.7795C67.9355 60.748 68.0675 60.787 68.1755 60.865C68.2895 60.943 68.3645 61.042 68.4005 61.162L69.8855 66.112C69.9635 66.382 70.0355 66.649 70.1015 66.913C70.1735 67.171 70.2425 67.429 70.3085 67.687C70.3865 67.177 70.4975 66.652 70.6415 66.112L72.0005 61.18C72.0425 61.06 72.1175 60.961 72.2255 60.883C72.3335 60.805 72.4625 60.766 72.6125 60.766H74.3045ZM81.3595 64.321C81.3595 64.033 81.3175 63.763 81.2335 63.511C81.1555 63.253 81.0355 63.028 80.8735 62.836C80.7115 62.644 80.5045 62.494 80.2525 62.386C80.0065 62.272 79.7185 62.215 79.3885 62.215C78.7465 62.215 78.2395 62.398 77.8675 62.764C77.5015 63.13 77.2675 63.649 77.1655 64.321H81.3595ZM77.1205 65.662C77.1565 66.136 77.2405 66.547 77.3725 66.895C77.5045 67.237 77.6785 67.522 77.8945 67.75C78.1105 67.972 78.3655 68.14 78.6595 68.254C78.9595 68.362 79.2895 68.416 79.6495 68.416C80.0095 68.416 80.3185 68.374 80.5765 68.29C80.8405 68.206 81.0685 68.113 81.2605 68.011C81.4585 67.909 81.6295 67.816 81.7735 67.732C81.9235 67.648 82.0675 67.606 82.2055 67.606C82.3915 67.606 82.5295 67.675 82.6195 67.813L83.2585 68.623C83.0125 68.911 82.7365 69.154 82.4305 69.352C82.1245 69.544 81.8035 69.7 81.4675 69.82C81.1375 69.934 80.7985 70.015 80.4505 70.063C80.1085 70.111 79.7755 70.135 79.4515 70.135C78.8095 70.135 78.2125 70.03 77.6605 69.82C77.1085 69.604 76.6285 69.289 76.2205 68.875C75.8125 68.455 75.4915 67.939 75.2575 67.327C75.0235 66.709 74.9065 65.995 74.9065 65.185C74.9065 64.555 75.0085 63.964 75.2125 63.412C75.4165 62.854 75.7075 62.371 76.0855 61.963C76.4695 61.549 76.9345 61.222 77.4805 60.982C78.0325 60.742 78.6535 60.622 79.3435 60.622C79.9255 60.622 80.4625 60.715 80.9545 60.901C81.4465 61.087 81.8695 61.36 82.2235 61.72C82.5775 62.074 82.8535 62.512 83.0515 63.034C83.2555 63.55 83.3575 64.141 83.3575 64.807C83.3575 65.143 83.3215 65.371 83.2495 65.491C83.1775 65.605 83.0395 65.662 82.8355 65.662H77.1205ZM87.3297 60.766V70H85.0977V60.766H87.3297ZM87.6357 58.075C87.6357 58.267 87.5967 58.447 87.5187 58.615C87.4407 58.783 87.3357 58.93 87.2037 59.056C87.0777 59.182 86.9277 59.284 86.7537 59.362C86.5797 59.434 86.3937 59.47 86.1957 59.47C86.0037 59.47 85.8207 59.434 85.6467 59.362C85.4787 59.284 85.3317 59.182 85.2057 59.056C85.0797 58.93 84.9777 58.783 84.8997 58.615C84.8277 58.447 84.7917 58.267 84.7917 58.075C84.7917 57.877 84.8277 57.691 84.8997 57.517C84.9777 57.343 85.0797 57.193 85.2057 57.067C85.3317 56.941 85.4787 56.842 85.6467 56.77C85.8207 56.692 86.0037 56.653 86.1957 56.653C86.3937 56.653 86.5797 56.692 86.7537 56.77C86.9277 56.842 87.0777 56.941 87.2037 57.067C87.3357 57.193 87.4407 57.343 87.5187 57.517C87.5967 57.691 87.6357 57.877 87.6357 58.075ZM92.971 65.158C93.247 65.158 93.487 65.122 93.691 65.05C93.895 64.972 94.063 64.867 94.195 64.735C94.333 64.603 94.435 64.444 94.501 64.258C94.573 64.072 94.609 63.868 94.609 63.646C94.609 63.19 94.471 62.83 94.195 62.566C93.925 62.296 93.517 62.161 92.971 62.161C92.425 62.161 92.014 62.296 91.738 62.566C91.468 62.83 91.333 63.19 91.333 63.646C91.333 63.862 91.366 64.063 91.432 64.249C91.504 64.435 91.606 64.597 91.738 64.735C91.876 64.867 92.047 64.972 92.251 65.05C92.461 65.122 92.701 65.158 92.971 65.158ZM95.482 70.414C95.482 70.234 95.428 70.087 95.32 69.973C95.212 69.859 95.065 69.772 94.879 69.712C94.693 69.646 94.474 69.598 94.222 69.568C93.976 69.538 93.712 69.517 93.43 69.505C93.154 69.487 92.866 69.472 92.566 69.46C92.272 69.448 91.984 69.424 91.702 69.388C91.456 69.526 91.255 69.688 91.099 69.874C90.949 70.06 90.874 70.276 90.874 70.522C90.874 70.684 90.913 70.834 90.991 70.972C91.075 71.116 91.204 71.239 91.378 71.341C91.558 71.443 91.789 71.521 92.071 71.575C92.353 71.635 92.698 71.665 93.106 71.665C93.52 71.665 93.877 71.632 94.177 71.566C94.477 71.506 94.723 71.419 94.915 71.305C95.113 71.197 95.257 71.065 95.347 70.909C95.437 70.759 95.482 70.594 95.482 70.414ZM97.696 61.081V61.909C97.696 62.173 97.537 62.335 97.219 62.395L96.391 62.548C96.517 62.866 96.58 63.214 96.58 63.592C96.58 64.048 96.487 64.462 96.301 64.834C96.121 65.2 95.869 65.512 95.545 65.77C95.221 66.028 94.837 66.229 94.393 66.373C93.955 66.511 93.481 66.58 92.971 66.58C92.791 66.58 92.617 66.571 92.449 66.553C92.281 66.535 92.116 66.511 91.954 66.481C91.666 66.655 91.522 66.85 91.522 67.066C91.522 67.252 91.606 67.39 91.774 67.48C91.948 67.564 92.176 67.624 92.458 67.66C92.74 67.696 93.061 67.72 93.421 67.732C93.781 67.738 94.15 67.756 94.528 67.786C94.906 67.816 95.275 67.87 95.635 67.948C95.995 68.02 96.316 68.137 96.598 68.299C96.88 68.461 97.105 68.683 97.273 68.965C97.447 69.241 97.534 69.598 97.534 70.036C97.534 70.444 97.432 70.84 97.228 71.224C97.03 71.608 96.739 71.95 96.355 72.25C95.977 72.55 95.509 72.79 94.951 72.97C94.399 73.156 93.769 73.249 93.061 73.249C92.365 73.249 91.759 73.18 91.243 73.042C90.727 72.91 90.298 72.73 89.956 72.502C89.614 72.28 89.359 72.022 89.191 71.728C89.023 71.434 88.939 71.128 88.939 70.81C88.939 70.378 89.068 70.018 89.326 69.73C89.59 69.436 89.95 69.202 90.406 69.028C90.16 68.902 89.965 68.734 89.821 68.524C89.677 68.314 89.605 68.038 89.605 67.696C89.605 67.558 89.629 67.417 89.677 67.273C89.731 67.123 89.806 66.976 89.902 66.832C90.004 66.688 90.13 66.553 90.28 66.427C90.43 66.295 90.607 66.178 90.811 66.076C90.343 65.824 89.974 65.488 89.704 65.068C89.44 64.648 89.308 64.156 89.308 63.592C89.308 63.136 89.398 62.725 89.578 62.359C89.764 61.987 90.019 61.672 90.343 61.414C90.673 61.15 91.06 60.949 91.504 60.811C91.954 60.673 92.443 60.604 92.971 60.604C93.367 60.604 93.739 60.646 94.087 60.73C94.435 60.808 94.753 60.925 95.041 61.081H97.696ZM101.329 61.756C101.689 61.42 102.085 61.147 102.517 60.937C102.949 60.727 103.456 60.622 104.038 60.622C104.542 60.622 104.989 60.709 105.379 60.883C105.769 61.051 106.093 61.291 106.351 61.603C106.615 61.909 106.813 62.278 106.945 62.71C107.083 63.136 107.152 63.607 107.152 64.123V70H104.929V64.123C104.929 63.559 104.8 63.124 104.542 62.818C104.284 62.506 103.891 62.35 103.363 62.35C102.979 62.35 102.619 62.437 102.283 62.611C101.947 62.785 101.629 63.022 101.329 63.322V70H99.1058V56.626H101.329V61.756ZM112.221 70.144C111.417 70.144 110.799 69.919 110.367 69.469C109.941 69.013 109.728 68.386 109.728 67.588V62.431H108.783C108.663 62.431 108.561 62.392 108.477 62.314C108.393 62.236 108.351 62.119 108.351 61.963V61.081L109.836 60.838L110.304 58.318C110.334 58.198 110.391 58.105 110.475 58.039C110.559 57.973 110.667 57.94 110.799 57.94H111.951V60.847H114.417V62.431H111.951V67.435C111.951 67.723 112.02 67.948 112.158 68.11C112.302 68.272 112.497 68.353 112.743 68.353C112.881 68.353 112.995 68.338 113.085 68.308C113.181 68.272 113.262 68.236 113.328 68.2C113.4 68.164 113.463 68.131 113.517 68.101C113.571 68.065 113.625 68.047 113.679 68.047C113.745 68.047 113.799 68.065 113.841 68.101C113.883 68.131 113.928 68.179 113.976 68.245L114.642 69.325C114.318 69.595 113.946 69.799 113.526 69.937C113.106 70.075 112.671 70.144 112.221 70.144Z" fill="#222222"/>
<path d="M178 27C178 24.7909 179.791 23 182 23H292C294.209 23 296 24.7909 296 27C296 29.2091 294.209 31 292 31H182C179.791 31 178 29.2091 178 27Z" fill="#2D73F6"/>
<path opacity="0.6" d="M189.269 58.512V70H188.405C188.272 70 188.16 69.976 188.069 69.928C187.984 69.88 187.896 69.8027 187.805 69.696L181.317 61.304C181.328 61.448 181.336 61.5893 181.341 61.728C181.352 61.8667 181.357 61.9973 181.357 62.12V70H179.861V58.512H180.741C180.891 58.512 181.003 58.5307 181.077 58.568C181.152 58.6 181.235 58.6773 181.325 58.8L187.829 67.2C187.813 67.0453 187.8 66.896 187.789 66.752C187.784 66.6027 187.781 66.464 187.781 66.336V58.512H189.269ZM195.005 61.744C195.603 61.744 196.141 61.8427 196.621 62.04C197.107 62.232 197.517 62.512 197.853 62.88C198.195 63.2427 198.456 63.6827 198.637 64.2C198.819 64.712 198.909 65.288 198.909 65.928C198.909 66.568 198.819 67.1467 198.637 67.664C198.456 68.1813 198.195 68.6213 197.853 68.984C197.517 69.3467 197.107 69.6267 196.621 69.824C196.141 70.016 195.603 70.112 195.005 70.112C194.403 70.112 193.859 70.016 193.373 69.824C192.893 69.6267 192.483 69.3467 192.141 68.984C191.8 68.6213 191.536 68.1813 191.349 67.664C191.168 67.1467 191.077 66.568 191.077 65.928C191.077 65.288 191.168 64.712 191.349 64.2C191.536 63.6827 191.8 63.2427 192.141 62.88C192.483 62.512 192.893 62.232 193.373 62.04C193.859 61.8427 194.403 61.744 195.005 61.744ZM195.005 68.896C195.773 68.896 196.347 68.6373 196.725 68.12C197.104 67.6027 197.293 66.8747 197.293 65.936C197.293 64.9973 197.104 64.2693 196.725 63.752C196.347 63.2293 195.773 62.968 195.005 62.968C194.227 62.968 193.645 63.2293 193.261 63.752C192.883 64.2693 192.693 64.9973 192.693 65.936C192.693 66.8747 192.883 67.6027 193.261 68.12C193.645 68.6373 194.227 68.896 195.005 68.896ZM202.123 63.432C202.384 62.8987 202.699 62.48 203.067 62.176C203.435 61.872 203.877 61.72 204.395 61.72C204.571 61.72 204.736 61.7413 204.891 61.784C205.051 61.8213 205.189 61.88 205.307 61.96L205.203 63.136C205.165 63.28 205.077 63.352 204.939 63.352C204.864 63.352 204.752 63.3387 204.603 63.312C204.453 63.28 204.293 63.264 204.123 63.264C203.872 63.264 203.651 63.3013 203.459 63.376C203.267 63.4453 203.093 63.552 202.939 63.696C202.789 63.8347 202.656 64.008 202.539 64.216C202.421 64.4187 202.312 64.6507 202.211 64.912V70H200.651V61.872H201.547C201.717 61.872 201.832 61.904 201.891 61.968C201.955 62.0267 202 62.1333 202.027 62.288L202.123 63.432ZM206.51 70V61.872H207.446C207.665 61.872 207.801 61.976 207.854 62.184L207.966 62.96C208.265 62.6027 208.595 62.312 208.958 62.088C209.326 61.8587 209.755 61.744 210.246 61.744C210.785 61.744 211.222 61.8933 211.558 62.192C211.894 62.4853 212.139 62.8853 212.294 63.392C212.411 63.104 212.563 62.856 212.75 62.648C212.937 62.44 213.145 62.2693 213.374 62.136C213.603 62.0027 213.846 61.904 214.102 61.84C214.363 61.776 214.627 61.744 214.894 61.744C215.326 61.744 215.71 61.8133 216.046 61.952C216.387 62.0853 216.675 62.2827 216.91 62.544C217.145 62.8053 217.323 63.128 217.446 63.512C217.569 63.896 217.63 64.3333 217.63 64.824V70H216.062V64.824C216.062 64.216 215.929 63.7573 215.662 63.448C215.401 63.1387 215.017 62.984 214.51 62.984C214.286 62.984 214.073 63.024 213.87 63.104C213.667 63.1787 213.489 63.2933 213.334 63.448C213.185 63.6027 213.065 63.7947 212.974 64.024C212.889 64.2533 212.846 64.52 212.846 64.824V70H211.278V64.824C211.278 64.1947 211.153 63.7307 210.902 63.432C210.651 63.1333 210.283 62.984 209.798 62.984C209.462 62.984 209.15 63.072 208.862 63.248C208.574 63.424 208.31 63.664 208.07 63.968V70H206.51ZM224.097 66.392C223.462 66.4133 222.923 66.464 222.481 66.544C222.038 66.6187 221.678 66.72 221.401 66.848C221.123 66.976 220.923 67.128 220.801 67.304C220.678 67.4747 220.617 67.6667 220.617 67.88C220.617 68.0827 220.649 68.2587 220.713 68.408C220.782 68.552 220.873 68.672 220.985 68.768C221.102 68.8587 221.238 68.9253 221.393 68.968C221.547 69.0107 221.715 69.032 221.897 69.032C222.137 69.032 222.355 69.008 222.553 68.96C222.755 68.912 222.945 68.8453 223.121 68.76C223.297 68.6693 223.465 68.56 223.625 68.432C223.785 68.304 223.942 68.1573 224.097 67.992V66.392ZM219.521 63.008C219.974 62.576 220.465 62.2533 220.993 62.04C221.526 61.8267 222.11 61.72 222.745 61.72C223.209 61.72 223.619 61.7973 223.977 61.952C224.334 62.1013 224.635 62.312 224.881 62.584C225.126 62.856 225.31 63.1813 225.433 63.56C225.561 63.9387 225.625 64.3573 225.625 64.816V70H224.929C224.774 70 224.657 69.976 224.577 69.928C224.497 69.8747 224.433 69.7787 224.385 69.64L224.217 68.928C224.009 69.12 223.803 69.2907 223.601 69.44C223.398 69.584 223.185 69.7093 222.961 69.816C222.742 69.9173 222.507 69.9947 222.257 70.048C222.006 70.1013 221.729 70.128 221.425 70.128C221.105 70.128 220.803 70.0853 220.521 70C220.243 69.9093 220.001 69.7733 219.793 69.592C219.585 69.4107 219.419 69.184 219.297 68.912C219.179 68.64 219.121 68.3227 219.121 67.96C219.121 67.64 219.206 67.3333 219.377 67.04C219.553 66.7413 219.835 66.4747 220.225 66.24C220.619 66.0053 221.131 65.8133 221.761 65.664C222.395 65.5147 223.174 65.4293 224.097 65.408V64.816C224.097 64.2027 223.966 63.744 223.705 63.44C223.443 63.136 223.059 62.984 222.553 62.984C222.211 62.984 221.923 63.0267 221.689 63.112C221.459 63.1973 221.259 63.2933 221.089 63.4C220.923 63.5013 220.777 63.5947 220.649 63.68C220.526 63.7653 220.398 63.808 220.265 63.808C220.158 63.808 220.065 63.7787 219.985 63.72C219.91 63.6613 219.849 63.592 219.801 63.512L219.521 63.008ZM229.313 58.192V70H227.745V58.192H229.313ZM236.54 64.976C236.54 66.1067 236.682 67.208 236.964 68.28C237.247 69.352 237.66 70.368 238.204 71.328C238.295 71.504 238.319 71.64 238.276 71.736C238.234 71.832 238.167 71.9093 238.076 71.968L237.38 72.392C236.98 71.7787 236.639 71.168 236.356 70.56C236.079 69.9573 235.852 69.352 235.676 68.744C235.506 68.1307 235.38 67.512 235.3 66.888C235.22 66.264 235.18 65.6267 235.18 64.976C235.18 64.32 235.22 63.68 235.3 63.056C235.38 62.432 235.506 61.816 235.676 61.208C235.852 60.5947 236.079 59.9867 236.356 59.384C236.639 58.776 236.98 58.1653 237.38 57.552L238.076 57.976C238.167 58.0347 238.234 58.112 238.276 58.208C238.319 58.304 238.295 58.44 238.204 58.616C237.66 59.576 237.247 60.5947 236.964 61.672C236.682 62.744 236.54 63.8453 236.54 64.976ZM244.309 68.648C244.741 68.648 245.109 68.5973 245.413 68.496C245.722 68.3947 245.973 68.256 246.165 68.08C246.362 67.904 246.506 67.696 246.597 67.456C246.688 67.2107 246.733 66.944 246.733 66.656C246.733 66.0853 246.536 65.6373 246.141 65.312C245.746 64.9813 245.136 64.816 244.309 64.816H241.909V68.648H244.309ZM241.909 59.848V63.608H243.869C244.706 63.608 245.328 63.44 245.733 63.104C246.144 62.7627 246.349 62.304 246.349 61.728C246.349 61.072 246.154 60.5947 245.765 60.296C245.376 59.9973 244.77 59.848 243.949 59.848H241.909ZM243.949 58.512C244.669 58.512 245.285 58.5813 245.797 58.72C246.314 58.8587 246.738 59.0587 247.069 59.32C247.4 59.5813 247.642 59.8987 247.797 60.272C247.957 60.64 248.037 61.0587 248.037 61.528C248.037 61.8053 247.994 62.072 247.909 62.328C247.824 62.584 247.693 62.824 247.517 63.048C247.341 63.2667 247.12 63.464 246.853 63.64C246.586 63.816 246.272 63.9627 245.909 64.08C247.578 64.4107 248.413 65.2827 248.413 66.696C248.413 67.1867 248.322 67.6347 248.141 68.04C247.96 68.44 247.696 68.7867 247.349 69.08C247.002 69.3733 246.576 69.6 246.069 69.76C245.562 69.92 244.986 70 244.341 70H240.205V58.512H243.949ZM262.676 58.512V70H261.188V61.824C261.188 61.7013 261.19 61.5707 261.196 61.432C261.206 61.2933 261.217 61.152 261.228 61.008L257.404 68.024C257.27 68.2853 257.065 68.416 256.788 68.416H256.548C256.27 68.416 256.068 68.2853 255.94 68.024L252.044 60.984C252.076 61.2827 252.092 61.5627 252.092 61.824V70H250.596V58.512H251.86C252.009 58.512 252.124 58.528 252.204 58.56C252.289 58.5867 252.369 58.6667 252.444 58.8L256.284 65.68C256.358 65.8187 256.428 65.9653 256.492 66.12C256.556 66.2747 256.617 66.4293 256.676 66.584C256.788 66.2693 256.918 65.9653 257.068 65.672L260.836 58.8C260.905 58.6667 260.98 58.5867 261.06 58.56C261.145 58.528 261.262 58.512 261.412 58.512H262.676ZM267.23 70H265.518V58.512H267.23V70ZM280.583 68.52C280.754 68.52 280.887 68.5707 280.983 68.672C281.079 68.768 281.127 68.896 281.127 69.056V70H273.415V69.464C273.415 69.3573 273.437 69.2453 273.479 69.128C273.522 69.0053 273.594 68.896 273.695 68.8L277.327 65.16C277.631 64.856 277.906 64.5627 278.151 64.28C278.397 63.9973 278.605 63.7173 278.775 63.44C278.946 63.1573 279.077 62.8693 279.167 62.576C279.263 62.2827 279.311 61.9733 279.311 61.648C279.311 61.328 279.261 61.048 279.159 60.808C279.058 60.5627 278.919 60.36 278.743 60.2C278.567 60.04 278.359 59.92 278.119 59.84C277.879 59.76 277.621 59.72 277.343 59.72C277.066 59.72 276.81 59.76 276.575 59.84C276.346 59.92 276.141 60.032 275.959 60.176C275.778 60.32 275.626 60.4907 275.503 60.688C275.381 60.8853 275.293 61.0987 275.239 61.328C275.165 61.5307 275.069 61.6667 274.951 61.736C274.839 61.8053 274.674 61.8213 274.455 61.784L273.639 61.64C273.714 61.1067 273.861 60.6373 274.079 60.232C274.298 59.8267 274.573 59.488 274.903 59.216C275.234 58.9387 275.613 58.7307 276.039 58.592C276.471 58.4533 276.935 58.384 277.431 58.384C277.933 58.384 278.394 58.4587 278.815 58.608C279.242 58.752 279.61 58.9627 279.919 59.24C280.229 59.5173 280.471 59.856 280.647 60.256C280.823 60.6507 280.911 61.0987 280.911 61.6C280.911 62.0267 280.847 62.424 280.719 62.792C280.597 63.1547 280.426 63.5013 280.207 63.832C279.994 64.1627 279.743 64.4853 279.455 64.8C279.173 65.1093 278.871 65.424 278.551 65.744L275.639 68.72C275.863 68.6613 276.087 68.6133 276.311 68.576C276.541 68.5387 276.757 68.52 276.959 68.52H280.583ZM290.153 68.808V70H283.945V68.808H286.377V61.28C286.377 61.04 286.385 60.792 286.401 60.536L284.449 62.192C284.374 62.2507 284.299 62.288 284.225 62.304C284.15 62.32 284.078 62.3227 284.009 62.312C283.945 62.3013 283.886 62.28 283.833 62.248C283.785 62.2107 283.745 62.1733 283.713 62.136L283.225 61.456L286.665 58.488H287.937V68.808H290.153ZM293.514 64.976C293.514 63.8453 293.37 62.744 293.082 61.672C292.799 60.5947 292.386 59.576 291.842 58.616C291.751 58.44 291.727 58.304 291.77 58.208C291.818 58.112 291.887 58.0347 291.978 57.976L292.674 57.552C293.074 58.1653 293.412 58.776 293.69 59.384C293.967 59.9867 294.194 60.5947 294.37 61.208C294.546 61.816 294.674 62.432 294.754 63.056C294.834 63.68 294.874 64.32 294.874 64.976C294.874 65.6267 294.834 66.264 294.754 66.888C294.674 67.512 294.546 68.1307 294.37 68.744C294.194 69.352 293.967 69.9573 293.69 70.56C293.412 71.168 293.074 71.7787 292.674 72.392L291.978 71.968C291.887 71.9093 291.818 71.832 291.77 71.736C291.727 71.64 291.751 71.504 291.842 71.328C292.386 70.368 292.799 69.352 293.082 68.28C293.37 67.208 293.514 66.1067 293.514 64.976Z" fill="#222222"/>
</svg>
