<?xml version="1.0" encoding="utf-8"?>
<svg id="master-artboard" viewBox="0 0 33.429670333862305 45.34541702270508" version="1.1" xmlns="http://www.w3.org/2000/svg" x="0px" y="0px" style="enable-background:new 0 0 336 235.2;" width="33.42967224121094px" height="45.34541702270508px"><g transform="matrix(0.14345894753932953, 0, 0, 0.14423486590385437, 1.4277906779827276, 0.6071826811936205)"><rect id="ee-background" x="0" y="0" width="33.42967224121094" height="45.34541702270508" style="fill: white; fill-opacity: 0; pointer-events: none;"/><g transform="matrix(10.399701118469238, 0, 0, 10.399701118469238, 4.441139221191406, 0.0000033600963433855213)"><path fill-rule="evenodd" clip-rule="evenodd" d="M13.0266 26.9865C16.8523 25.2354 19.2732 22.5333 18.6008 17.7377C18.1447 18.4747 17.5892 19.1148 16.7858 19.5113C19.4051 14.5291 17.0653 11.7101 14.0153 8.50464C13.9857 14.3525 11.3331 14.1157 11.0819 18.3711C7.97069 16.7239 16.6561 5.32139 6.41506 0C7.84135 7.98241 -1.86479 14.3193 0.322538 21.412C1.3126 24.6223 4.48315 27.4729 8.10068 28C2.55548 24.0075 3.19858 18.4727 6.54505 13.6833C5.80324 17.741 5.85569 20.8962 9.27807 23.3654C11.4892 22.4949 13.597 21.6527 14.3714 19.6615C14.3623 22.7128 13.08 23.466 12.2932 24.2013C13.0419 24.4418 14.5252 24.2202 15.2676 23.3654C15.0552 25.0813 14.0046 25.8338 13.0266 26.9865Z" fill="#2D73F6"/></g></g></svg>