<svg width="30" height="43" viewBox="0 0 30 43" fill="none" xmlns="http://www.w3.org/2000/svg">
<path d="M25.4131 26.6652C25.7322 25.2078 25.6948 23.7701 25.3096 22.2316C24.7695 20.0765 24.0446 17.7128 23.0828 15.984C22.571 18.2052 19.486 21.6861 17.1179 23.4094C17.9171 21.4023 18.9306 18.2631 19.2196 15.5411C19.6258 11.7139 15.5212 1.58431 11.4764 0C12.7765 6.44892 6.25132 22.7954 4.9468 22.2299C3.64228 21.6642 2.95337 20.9561 0.802367 17.6015C-0.621161 21.8845 -0.169987 32.5158 2.31176 36.317C4.6042 39.4085 5.66913 41.5433 12.9209 42.5001C9.91614 38.6478 9.38025 33.4065 10.2039 29.2847C10.5822 27.3906 11.1879 25.5169 11.8677 23.698C13.0552 25.5588 16.5037 28.2528 14.5152 35.1503C17.2638 34.9172 19.3554 32.6569 20.7335 30.3048C20.9675 31.945 21.0179 33.6376 20.7053 35.2484C20.2184 37.7557 16.7545 42.0223 17.0072 42.117C21.2701 43.7186 25.4587 39.5768 27.3399 36.1649C29.4268 32.3815 30.7233 23.7174 29.5652 23.104C29.1296 24.6913 26.6917 25.5803 25.4131 26.6652Z" fill="#31C062"/>
</svg>
