<svg width="42" height="18" viewBox="0 0 42 18" fill="none" xmlns="http://www.w3.org/2000/svg">
<path fill-rule="evenodd" clip-rule="evenodd" d="M0 3.21482C0 1.43945 1.44672 0 3.2304 0H38.4362C40.2207 0 41.6666 1.43945 41.6666 3.21482V14.7034C41.6666 16.4778 40.2207 17.9175 38.4362 17.9175H3.2304C1.44672 17.9175 0 16.4778 0 14.7034V3.21482Z" fill="white"/>
<path fill-rule="evenodd" clip-rule="evenodd" d="M1.3252 3.32501V14.5947C1.3252 15.7039 2.22948 16.6035 3.34493 16.6035H21.7896V1.31616H3.34493C2.22948 1.31616 1.3252 2.21578 1.3252 3.32501ZM26.5554 8.90355C26.5554 9.62106 26.2005 10.1142 25.6129 10.1142C25.0939 10.1142 24.6612 9.62106 24.6612 8.96398C24.6612 8.28953 25.0417 7.7881 25.6129 7.7881C26.2186 7.7881 26.5554 8.30691 26.5554 8.90355ZM23.1055 13.0188H24.6612V10.5718H24.6785C24.9732 11.108 25.5616 11.3067 26.1061 11.3067C27.4459 11.3067 28.1634 10.2003 28.1634 8.86878C28.1634 7.7798 27.4807 6.59456 26.2352 6.59456C25.5268 6.59456 24.8697 6.88018 24.5577 7.51156H24.5403V6.69911H23.1055V13.0188ZM30.2882 9.77645C30.2882 9.34453 30.7027 9.18085 31.2309 9.18085C31.4641 9.18085 31.6893 9.1972 31.888 9.20653C31.888 9.73365 31.5162 10.2698 30.9279 10.2698C30.5647 10.2698 30.2882 10.0885 30.2882 9.77645ZM33.4262 11.2032C33.3575 10.8491 33.3401 10.494 33.3401 10.1399V8.46255C33.3401 7.08796 32.3463 6.59456 31.1961 6.59456C30.5307 6.59456 29.9515 6.68976 29.3979 6.91493L29.4244 7.97019C29.8552 7.72764 30.3577 7.63244 30.8591 7.63244C31.4202 7.63244 31.8786 7.79718 31.888 8.4112C31.6893 8.37643 31.4119 8.34996 31.1614 8.34996C30.332 8.34996 28.836 8.5147 28.836 9.88903C28.836 10.8665 29.6311 11.3067 30.5217 11.3067C31.1614 11.3067 31.594 11.0569 31.9484 10.494H31.9658C31.9658 10.7282 31.9912 10.9606 32.0005 11.2032H33.4262ZM34.1264 13.0188C34.4465 13.0883 34.7661 13.1233 35.0945 13.1233C36.5212 13.1233 36.8579 12.025 37.2989 10.8921L38.9508 6.69911H37.3941L36.4691 9.63845H36.4517L35.4833 6.69911H33.8068L35.6307 11.3067C35.5181 11.7046 35.2244 11.9298 34.8436 11.9298C34.6268 11.9298 34.4374 11.9033 34.2296 11.8346L34.1264 13.0188Z" fill="#DE2B70"/>
<path fill-rule="evenodd" clip-rule="evenodd" d="M5.12635 8.91255C5.12635 8.29853 5.42934 7.78801 6.00859 7.78801C6.70874 7.78801 7.00239 8.34988 7.00239 8.85131C7.00239 9.54316 6.56139 10.0098 6.00859 10.0098C5.54192 10.0098 5.12635 9.61268 5.12635 8.91255ZM8.50694 6.69903H7.09759V7.51148H7.08124C6.75179 6.95791 6.21534 6.59448 5.55022 6.59448C4.14994 6.59448 3.51855 7.59838 3.51855 8.93821C3.51855 10.2697 4.2882 11.2031 5.5235 11.2031C6.14685 11.2031 6.66567 10.9605 7.03714 10.4334H7.05452V10.676C7.05452 11.5574 6.57047 11.9811 5.67189 11.9811C5.02311 11.9811 4.62492 11.8428 4.14994 11.6096L4.07212 12.8376C4.43452 12.9676 5.04854 13.1232 5.79277 13.1232C7.60836 13.1232 8.50694 12.5263 8.50694 10.676V6.69903ZM11.1371 4.823H9.58062V5.96413H11.1371V4.823ZM9.5814 11.2031H11.1371V6.69903H9.5814V11.2031ZM15.4702 6.64663C15.3145 6.6212 15.1241 6.59448 14.9431 6.59448C14.2686 6.59448 13.8798 6.95791 13.6115 7.52886H13.5942V6.69903H12.1765V11.2031H13.7324V9.30165C13.7324 8.41941 14.1394 7.8923 14.8653 7.8923C15.0474 7.8923 15.2193 7.8923 15.3924 7.9434L15.4702 6.64663ZM18.1496 10.2176C17.4321 10.2176 17.1385 9.62098 17.1385 8.9556C17.1385 8.28115 17.4321 7.68451 18.1496 7.68451C18.8679 7.68451 19.1618 8.28115 19.1618 8.9556C19.1618 9.62098 18.8679 10.2176 18.1496 10.2176ZM18.1496 11.3066C19.6368 11.3066 20.7696 10.4428 20.7696 8.9556C20.7696 7.45935 19.6368 6.59448 18.1496 6.59448C16.6627 6.59448 15.5307 7.45935 15.5307 8.9556C15.5307 10.4428 16.6627 11.3066 18.1496 11.3066Z" fill="white"/>
</svg>
