<svg width="22" height="29" viewBox="0 0 22 29" fill="none" xmlns="http://www.w3.org/2000/svg">
<path d="M0.0170898 10.3641V10.8684C0.0341734 13.2507 0.973772 15.4765 2.69922 17.1111C4.40758 18.7631 6.71386 19.6847 9.19098 19.6847H9.70349V19.1804C9.66932 16.8155 8.72973 14.607 7.00428 12.9551C5.29592 11.3031 2.98964 10.3815 0.512514 10.3815L0.0170898 10.3641Z" fill="#C31A49"/>
<path d="M9.17389 28.501H9.6864V27.9968C9.66932 25.6144 8.72972 23.3886 7.00428 21.754C5.29592 20.102 2.98963 19.1804 0.512508 19.1804H0V19.6847C0.0170836 22.067 0.956682 24.2928 2.68213 25.9274C4.40757 27.5794 6.71386 28.501 9.17389 28.501Z" fill="#C31A49"/>
<path d="M11.7192 19.7021H12.2317C14.7089 19.6847 16.9981 18.7805 18.7235 17.1285C20.4319 15.4765 21.3886 13.2506 21.4056 10.8857V10.3814H20.8931C18.416 10.3988 16.1268 11.3204 14.4014 12.955C12.693 14.607 11.7363 16.8328 11.7192 19.1978V19.7021Z" fill="#C31A49"/>
<path d="M21.4056 19.6847V19.1804H20.8931C18.416 19.1978 16.1268 20.1194 14.4014 21.754C12.693 23.406 11.7363 25.6318 11.7192 27.9968V28.501H12.2317C14.7089 28.4836 16.9981 27.5794 18.7235 25.9274C20.4319 24.2755 21.3886 22.067 21.4056 19.6847Z" fill="#C31A49"/>
<path d="M11.07 13.1115C12.8126 11.39 13.7693 9.11198 13.7693 6.72965C13.7693 4.34732 12.8126 2.08671 11.07 0.347786L10.7113 0L10.3354 0.365175C8.61 2.08671 7.65332 4.34732 7.65332 6.74704C7.65332 9.12937 8.61 11.39 10.3525 13.1289L10.7113 13.4941L11.07 13.1115Z" fill="#C31A49"/>
</svg>
