<svg width="21" height="27" viewBox="0 0 21 27" fill="none" xmlns="http://www.w3.org/2000/svg">
<path d="M9.07444 12.6199C8.54287 12.3971 7.91749 12.6517 7.6986 13.1928L7.22957 14.3227C7.01068 14.8638 7.26084 15.4845 7.79241 15.7232C7.93312 15.7868 8.0582 15.8027 8.19891 15.8027C8.60541 15.8027 8.99627 15.564 9.16825 15.1503L9.63728 14.0203C9.85617 13.4793 9.60602 12.8586 9.07444 12.6199Z" fill="#C31A49"/>
<path d="M7.15118 17.2669C6.61961 17.0441 6.00987 17.2987 5.77535 17.8398L4.64967 20.5452C4.47769 20.9749 4.50896 21.4523 4.74347 21.8342C4.97799 22.2002 5.40012 22.423 5.86916 22.423C6.44763 22.423 6.91667 21.9456 6.91667 21.3568C6.91667 21.1817 6.86976 21.0067 6.79159 20.8635L7.69839 18.6832C7.93291 18.1262 7.68276 17.4897 7.15118 17.2669Z" fill="#C31A49"/>
<path d="M20.5969 20.4815L15.5157 8.19578V0H5.44718V8.19578L0.366003 20.4815C-0.21247 21.8979 -0.103029 23.3938 0.678691 24.5873C1.46041 25.7809 2.7737 26.4652 4.2746 26.4652H16.7039C18.2049 26.4652 19.5181 25.7809 20.2999 24.5873C21.0659 23.3779 21.191 21.8819 20.5969 20.4815ZM18.5488 23.3938C18.1579 23.9985 17.4857 24.3327 16.6883 24.3327H4.25897C3.47725 24.3327 2.78933 23.9985 2.41411 23.4097C2.02325 22.8209 1.97635 22.057 2.28903 21.309L7.54219 8.62547V2.13249H13.4207V8.62547L18.6739 21.309C18.9709 22.0411 18.924 22.805 18.5488 23.3938Z" fill="#C31A49"/>
</svg>
