<svg width="25" height="25" viewBox="0 0 25 25" fill="none" xmlns="http://www.w3.org/2000/svg">
<path d="M12.4989 23.9977C18.8495 23.9977 23.9977 18.8495 23.9977 12.4989C23.9977 6.14821 18.8495 1 12.4989 1C6.14821 1 1 6.14821 1 12.4989C1 18.8495 6.14821 23.9977 12.4989 23.9977Z" fill="#5890FF" stroke="white" stroke-width="2"/>
<path d="M9.25699 10.5085H7.37152C7.10022 10.5085 6.88135 10.7274 6.88135 10.9987V17.6856C6.88135 17.9569 7.10022 18.1758 7.37152 18.1758H9.25699C9.52829 18.1758 9.74716 17.9569 9.74716 17.6856V10.9987C9.74716 10.7274 9.52601 10.5085 9.25699 10.5085Z" fill="white"/>
<path d="M18.1188 11.5162C18.1188 10.9075 17.6263 10.415 17.0176 10.415H13.9694C14.2954 9.53273 14.2566 8.41331 14.2544 8.36543C14.2772 7.06818 13.8554 6.82423 13.3743 6.82423C12.891 6.82423 12.4989 7.1457 12.4989 7.54012V8.36543L10.6613 10.9394C10.6613 10.9394 10.5564 11.0603 10.5564 11.1674V11.5162V13.1919C10.5564 13.1942 10.5564 13.1965 10.5564 13.1988C10.5564 13.2011 10.5564 13.2033 10.5564 13.2056V14.8631C10.5564 14.8677 10.5564 14.8699 10.5564 14.8745C10.5564 14.8791 10.5564 14.8813 10.5564 14.8859V16.5776C10.5564 16.5867 10.5564 16.5935 10.5564 16.6027C10.5564 16.6232 10.5564 16.6437 10.5587 16.6642C10.5564 16.6779 10.5564 16.6938 10.5564 16.7075V17.0655C10.5564 17.3368 10.7753 17.5556 11.0466 17.5556H11.5094H11.5459H16.7417C17.2684 17.5556 17.6947 17.1293 17.6947 16.6027C17.6947 16.2401 17.4918 15.9232 17.1909 15.7637C17.4918 15.5835 17.6947 15.253 17.6947 14.8768C17.6947 14.5758 17.567 14.3068 17.3618 14.1176C17.6719 13.9329 17.8794 13.5932 17.8794 13.2056C17.8794 12.9184 17.7654 12.6585 17.5807 12.4669C17.9022 12.2686 18.1188 11.9175 18.1188 11.5162Z" fill="white"/>
</svg>
