<svg width="21" height="21" viewBox="0 0 21 21" fill="none" xmlns="http://www.w3.org/2000/svg">
<path d="M10.4989 20.9977C16.2972 20.9977 20.9977 16.2972 20.9977 10.4989C20.9977 4.7005 16.2972 0 10.4989 0C4.7005 0 0 4.7005 0 10.4989C0 16.2972 4.7005 20.9977 10.4989 20.9977Z" fill="#FFD972"/>
<path d="M10.499 18.9276C12.2102 18.9276 13.5974 17.0658 13.5974 14.7691C13.5974 12.4724 12.2102 10.6106 10.499 10.6106C8.78782 10.6106 7.40063 12.4724 7.40063 14.7691C7.40063 17.0658 8.78782 18.9276 10.499 18.9276Z" fill="#262C38"/>
<path d="M15.7109 10.29C16.5716 10.1541 17.1176 9.08302 16.9304 7.8977C16.7432 6.71237 15.8937 5.86166 15.033 5.99759C14.1723 6.13352 13.6264 7.20461 13.8136 8.38993C14.0007 9.57526 14.8502 10.426 15.7109 10.29Z" fill="#262C38"/>
<path d="M7.18801 8.38772C7.37509 7.2024 6.82901 6.13138 5.96831 5.99554C5.10761 5.8597 4.25823 6.71048 4.07115 7.8958C3.88408 9.08113 4.43016 10.1521 5.29085 10.288C6.15155 10.4238 7.00094 9.57305 7.18801 8.38772Z" fill="#262C38"/>
<path d="M14.2561 3.19867C14.9674 2.82021 15.8816 2.81337 16.4584 3.42438C16.7867 3.7732 17.3111 3.24655 16.9828 2.90001C16.1666 2.03593 14.8853 2.02453 13.8799 2.5603C13.4604 2.78145 13.8343 3.42438 14.2561 3.19867Z" fill="#262C38"/>
<path d="M4.54162 3.43994C5.15491 2.91557 6.06458 2.75142 6.74626 3.22335C7.14068 3.49466 7.5123 2.85173 7.12016 2.58271C6.14665 1.91014 4.87448 2.18145 4.01724 2.91557C3.65246 3.22563 4.17912 3.75001 4.54162 3.43994Z" fill="#262C38"/>
</svg>
