<svg width="12" height="16" viewBox="0 0 12 16" fill="none" xmlns="http://www.w3.org/2000/svg">
<path d="M11.1867 6.58679H10.4059V4.27833C10.4059 1.91948 8.42941 0 6.00011 0C3.56992 0 1.5938 1.91922 1.5938 4.27833V6.58679H0.813231C0.363985 6.58679 0 6.94037 0 7.3764V15.2104C0 15.6465 0.363985 16 0.813231 16H11.1868C11.6351 16 12 15.6465 12 15.2104V7.3764C12 6.94037 11.635 6.58679 11.1867 6.58679ZM3.22008 4.27833C3.22008 2.78972 4.46695 1.57907 6.00007 1.57907C7.53282 1.57907 8.77974 2.78972 8.77974 4.27833V6.58679H3.22008V4.27833Z" fill="white"/>
</svg>
