<svg width="120" height="15" viewBox="0 0 120 15" fill="none" xmlns="http://www.w3.org/2000/svg">
<path fill-rule="evenodd" clip-rule="evenodd" d="M24 1V14.7454H27.6672V10.278H34.3312V7.22578H27.6672V4.07247H35.6504V1H24Z" fill="#222222"/>
<path fill-rule="evenodd" clip-rule="evenodd" d="M41.0356 1L35 14.7454H38.6087L39.5419 12.6027H46.3451L47.2575 14.7454H50.887L44.8312 1H41.0356ZM43.2394 5L45.4379 10.1343H41L43.2394 5Z" fill="#222222"/>
<path fill-rule="evenodd" clip-rule="evenodd" d="M63.218 4.81547H59.6487C59.6487 4.09426 58.7732 3.11849 57.2404 3.11849C56.1673 3.11849 54.8533 3.58516 54.8533 4.41244C54.8533 5.11244 55.8385 5.3882 57.941 5.91851C60.2836 6.51275 63.5899 7.27639 63.5899 10.4585C63.5899 13.2164 61.0943 14.9346 57.6126 14.9346C52.9489 14.9346 51 11.8797 51 9.63094H54.569C54.569 9.63094 54.8533 11.9222 57.8093 11.9222C59.4081 11.9222 59.999 11.2646 59.999 10.6494C59.999 9.7373 58.7513 9.41882 57.3714 9.10064C55.1385 8.59155 51.2186 7.78548 51.2186 4.58214C51.2186 1.95153 53.89 0 57.2841 0C61.1594 0 63.218 2.56668 63.218 4.81547Z" fill="#222222"/>
<path fill-rule="evenodd" clip-rule="evenodd" d="M79.1884 3.22456H73.9114V14.4258H70.2767V3.22456H65V0H79.1884V3.22456Z" fill="#222222"/>
<path fill-rule="evenodd" clip-rule="evenodd" d="M81 14.4255H84.5909V0H81V14.4255Z" fill="#222222"/>
<path fill-rule="evenodd" clip-rule="evenodd" d="M102.758 14.4255H99.1452L91.6134 5.60033V14.4255H88V0H91.6134L99.1452 8.80367V0H102.758V14.4255Z" fill="#222222"/>
<path fill-rule="evenodd" clip-rule="evenodd" d="M119.757 3.16092L116.648 4.68849C115.903 3.77607 114.743 3.26698 113.036 3.26698C110.43 3.26698 108.613 5.02789 108.613 7.42517C108.613 9.71609 110.473 11.6891 113.079 11.6891C114.678 11.6891 115.948 11.2012 116.735 10.4797V9.07972H112.203V6.40668H119.911V11.7528C119.801 11.9649 117.458 14.9349 113.101 14.9349C108.174 14.9349 105 11.3494 105 7.46759C105 3.45789 108.394 0 113.079 0C115.948 0 118.269 1.25182 119.757 3.16092Z" fill="#222222"/>
<path fill-rule="evenodd" clip-rule="evenodd" d="M2 7.84494H3.82228C5.33815 7.84494 6.38888 6.87862 6.38888 5.40968C6.38888 3.8376 5.36483 3 3.82228 3H2V7.84494ZM8.77777 5.36824C8.77777 7.91943 6.8229 9.762 4.00352 9.762H0V1.01312L4.00352 1.00007C6.98217 0.987272 8.77777 2.84264 8.77777 5.36824Z" fill="#DE2B70"/>
<path fill-rule="evenodd" clip-rule="evenodd" d="M3 7.35773H4.57085C5.95575 7.35773 6.88602 6.47679 6.88602 5.16581C6.88602 3.7893 6.04225 3 4.57085 3H3V7.35773ZM4.07344 8.33215H2V3H4.07344C5.81164 3 6.89148 4.01672 6.89148 5.65302C6.89148 7.23031 5.73268 8.33215 4.07344 8.33215ZM1 9.275H4.75181C7.41463 9.275 9.27463 7.56846 9.27463 5.12458C9.27463 3.94076 8.86986 2.92431 8.10452 2.18592C7.2939 1.40419 6.13186 0.987742 4.75289 1.00027L1 1.01229V9.275ZM4.25468 10.2494H0V1.0141L4.25387 1.00026C4.26438 1.00026 4.27516 1 4.28567 1C5.79022 1 7.06086 1.45901 7.96203 2.32768C8.82439 3.15981 9.28037 4.29532 9.28037 5.61178C9.28037 8.299 7.16677 10.2494 4.25468 10.2494Z" fill="#DE2B70"/>
<path fill-rule="evenodd" clip-rule="evenodd" d="M12 5.56399C12 6.99428 13.1971 8.14103 14.6733 8.14103C16.1232 8.14103 17.32 6.99428 17.32 5.56399C17.32 4.14648 16.1232 3 14.6733 3C13.1971 3 12 4.14648 12 5.56399ZM19.3361 5.5358C19.3361 8.03556 17.2347 10.0716 14.6681 10.0716C12.0748 10.0716 10 8.03556 10 5.5358C10 3.0491 12.0748 1 14.6681 1C17.2347 1 19.3361 3.0491 19.3361 5.5358Z" fill="#DE2B70"/>
<path fill-rule="evenodd" clip-rule="evenodd" d="M14.4216 3C13.0863 3 12 4.041 12 5.32064C12 6.60733 13.0863 7.65408 14.4216 7.65408C15.7421 7.65408 16.8168 6.60733 16.8168 5.32064C16.8168 4.041 15.7421 3 14.4216 3ZM14.9248 8.6285C13.3121 8.6285 12 7.36321 12 5.80785C12 4.25954 13.3121 3 14.9248 3C16.5228 3 17.8228 4.25954 17.8228 5.80785C17.8228 7.36321 16.5228 8.6285 14.9248 8.6285ZM15.4169 1C12.9815 1 11 2.92534 11 5.2922C11 7.65879 12.9815 9.58413 15.4169 9.58413C17.8523 9.58413 19.8338 7.65879 19.8338 5.2922C19.8338 2.92534 17.8523 1 15.4169 1ZM14.9195 10.5585C12.2068 10.5585 10 8.41441 10 5.77941C10 3.14414 12.2068 1 14.9195 1C17.6322 1 19.839 3.14414 19.839 5.77941C19.839 8.41441 17.6322 10.5585 14.9195 10.5585Z" fill="#DE2B70"/>
</svg>
