<svg width="374" height="39" viewBox="0 0 374 39" fill="none" xmlns="http://www.w3.org/2000/svg">
<path d="M82.315 12.335V14H75.115V12.335H77.752V4.748C77.752 4.448 77.761 4.139 77.779 3.821L75.907 5.387C75.799 5.471 75.691 5.525 75.583 5.549C75.481 5.567 75.382 5.567 75.286 5.549C75.196 5.531 75.115 5.501 75.043 5.459C74.971 5.411 74.917 5.36 74.881 5.306L74.179 4.343L78.148 0.967999H79.975V12.335H82.315ZM92.2704 11.93C92.5104 11.93 92.6994 11.999 92.8374 12.137C92.9814 12.269 93.0534 12.446 93.0534 12.668V14H84.1254V13.262C84.1254 13.112 84.1554 12.956 84.2154 12.794C84.2814 12.626 84.3834 12.476 84.5214 12.344L88.4724 8.384C88.8024 8.048 89.0964 7.727 89.3544 7.421C89.6184 7.115 89.8374 6.812 90.0114 6.512C90.1854 6.212 90.3174 5.909 90.4074 5.603C90.5034 5.291 90.5514 4.964 90.5514 4.622C90.5514 4.31 90.5064 4.037 90.4164 3.803C90.3264 3.563 90.1974 3.362 90.0294 3.2C89.8674 3.038 89.6694 2.918 89.4354 2.84C89.2074 2.756 88.9494 2.714 88.6614 2.714C88.3974 2.714 88.1514 2.753 87.9234 2.831C87.7014 2.903 87.5034 3.008 87.3294 3.146C87.1554 3.278 87.0084 3.434 86.8884 3.614C86.7684 3.794 86.6784 3.992 86.6184 4.208C86.5164 4.484 86.3844 4.667 86.2224 4.757C86.0604 4.847 85.8264 4.868 85.5204 4.82L84.3504 4.613C84.4404 3.989 84.6144 3.443 84.8724 2.975C85.1304 2.501 85.4514 2.108 85.8354 1.796C86.2254 1.478 86.6694 1.241 87.1674 1.085C87.6714 0.923 88.2114 0.842 88.7874 0.842C89.3874 0.842 89.9364 0.932 90.4344 1.112C90.9324 1.286 91.3584 1.535 91.7124 1.859C92.0664 2.183 92.3424 2.573 92.5404 3.029C92.7384 3.485 92.8374 3.992 92.8374 4.55C92.8374 5.03 92.7654 5.474 92.6214 5.882C92.4834 6.29 92.2944 6.68 92.0544 7.052C91.8204 7.424 91.5444 7.784 91.2264 8.132C90.9084 8.48 90.5754 8.834 90.2274 9.194L87.2934 12.191C87.5754 12.107 87.8544 12.044 88.1304 12.002C88.4124 11.954 88.6794 11.93 88.9314 11.93H92.2704ZM103.873 7.493C103.873 8.627 103.75 9.614 103.504 10.454C103.264 11.288 102.928 11.978 102.496 12.524C102.07 13.07 101.563 13.478 100.975 13.748C100.393 14.012 99.7628 14.144 99.0848 14.144C98.4068 14.144 97.7768 14.012 97.1948 13.748C96.6188 13.478 96.1178 13.07 95.6918 12.524C95.2658 11.978 94.9328 11.288 94.6928 10.454C94.4528 9.614 94.3328 8.627 94.3328 7.493C94.3328 6.353 94.4528 5.366 94.6928 4.532C94.9328 3.698 95.2658 3.008 95.6918 2.462C96.1178 1.916 96.6188 1.511 97.1948 1.247C97.7768 0.977 98.4068 0.842 99.0848 0.842C99.7628 0.842 100.393 0.977 100.975 1.247C101.563 1.511 102.07 1.916 102.496 2.462C102.928 3.008 103.264 3.698 103.504 4.532C103.75 5.366 103.873 6.353 103.873 7.493ZM101.578 7.493C101.578 6.551 101.509 5.771 101.371 5.153C101.233 4.535 101.047 4.043 100.813 3.677C100.585 3.311 100.321 3.056 100.021 2.912C99.7208 2.762 99.4088 2.687 99.0848 2.687C98.7668 2.687 98.4578 2.762 98.1578 2.912C97.8638 3.056 97.6028 3.311 97.3748 3.677C97.1468 4.043 96.9638 4.535 96.8258 5.153C96.6938 5.771 96.6278 6.551 96.6278 7.493C96.6278 8.435 96.6938 9.215 96.8258 9.833C96.9638 10.451 97.1468 10.943 97.3748 11.309C97.6028 11.675 97.8638 11.933 98.1578 12.083C98.4578 12.227 98.7668 12.299 99.0848 12.299C99.4088 12.299 99.7208 12.227 100.021 12.083C100.321 11.933 100.585 11.675 100.813 11.309C101.047 10.943 101.233 10.451 101.371 9.833C101.509 9.215 101.578 8.435 101.578 7.493ZM114.314 7.493C114.314 8.627 114.191 9.614 113.945 10.454C113.705 11.288 113.369 11.978 112.937 12.524C112.511 13.07 112.004 13.478 111.416 13.748C110.834 14.012 110.204 14.144 109.526 14.144C108.848 14.144 108.218 14.012 107.636 13.748C107.06 13.478 106.559 13.07 106.133 12.524C105.707 11.978 105.374 11.288 105.134 10.454C104.894 9.614 104.774 8.627 104.774 7.493C104.774 6.353 104.894 5.366 105.134 4.532C105.374 3.698 105.707 3.008 106.133 2.462C106.559 1.916 107.06 1.511 107.636 1.247C108.218 0.977 108.848 0.842 109.526 0.842C110.204 0.842 110.834 0.977 111.416 1.247C112.004 1.511 112.511 1.916 112.937 2.462C113.369 3.008 113.705 3.698 113.945 4.532C114.191 5.366 114.314 6.353 114.314 7.493ZM112.019 7.493C112.019 6.551 111.95 5.771 111.812 5.153C111.674 4.535 111.488 4.043 111.254 3.677C111.026 3.311 110.762 3.056 110.462 2.912C110.162 2.762 109.85 2.687 109.526 2.687C109.208 2.687 108.899 2.762 108.599 2.912C108.305 3.056 108.044 3.311 107.816 3.677C107.588 4.043 107.405 4.535 107.267 5.153C107.135 5.771 107.069 6.551 107.069 7.493C107.069 8.435 107.135 9.215 107.267 9.833C107.405 10.451 107.588 10.943 107.816 11.309C108.044 11.675 108.305 11.933 108.599 12.083C108.899 12.227 109.208 12.299 109.526 12.299C109.85 12.299 110.162 12.227 110.462 12.083C110.762 11.933 111.026 11.675 111.254 11.309C111.488 10.943 111.674 10.451 111.812 9.833C111.95 9.215 112.019 8.435 112.019 7.493ZM115.792 7.637H120.454V9.491H115.792V7.637ZM130.795 12.335V14H123.595V12.335H126.232V4.748C126.232 4.448 126.241 4.139 126.259 3.821L124.387 5.387C124.279 5.471 124.171 5.525 124.063 5.549C123.961 5.567 123.862 5.567 123.766 5.549C123.676 5.531 123.595 5.501 123.523 5.459C123.451 5.411 123.397 5.36 123.361 5.306L122.659 4.343L126.628 0.967999H128.455V12.335H130.795ZM132.894 4.613C132.984 3.989 133.158 3.443 133.416 2.975C133.674 2.501 133.995 2.108 134.379 1.796C134.769 1.478 135.213 1.241 135.711 1.085C136.215 0.923 136.755 0.842 137.331 0.842C137.931 0.842 138.471 0.929 138.951 1.103C139.437 1.271 139.851 1.508 140.193 1.814C140.535 2.114 140.796 2.468 140.976 2.876C141.162 3.284 141.255 3.725 141.255 4.199C141.255 4.613 141.207 4.979 141.111 5.297C141.021 5.609 140.889 5.882 140.715 6.116C140.541 6.35 140.325 6.548 140.067 6.71C139.809 6.872 139.518 7.007 139.194 7.115C139.974 7.361 140.556 7.736 140.94 8.24C141.324 8.744 141.516 9.377 141.516 10.139C141.516 10.787 141.396 11.36 141.156 11.858C140.916 12.356 140.592 12.776 140.184 13.118C139.776 13.454 139.302 13.709 138.762 13.883C138.228 14.057 137.661 14.144 137.061 14.144C136.407 14.144 135.837 14.069 135.351 13.919C134.865 13.769 134.442 13.547 134.082 13.253C133.722 12.959 133.416 12.599 133.164 12.173C132.912 11.747 132.696 11.255 132.516 10.697L133.497 10.292C133.755 10.184 133.995 10.157 134.217 10.211C134.445 10.259 134.61 10.379 134.712 10.571C134.82 10.781 134.937 10.988 135.063 11.192C135.195 11.396 135.351 11.579 135.531 11.741C135.711 11.897 135.921 12.026 136.161 12.128C136.407 12.224 136.698 12.272 137.034 12.272C137.412 12.272 137.742 12.212 138.024 12.092C138.306 11.966 138.54 11.804 138.726 11.606C138.918 11.408 139.059 11.189 139.149 10.949C139.245 10.703 139.293 10.457 139.293 10.211C139.293 9.899 139.26 9.617 139.194 9.365C139.128 9.107 138.99 8.888 138.78 8.708C138.57 8.528 138.267 8.387 137.871 8.285C137.481 8.183 136.956 8.132 136.296 8.132V6.548C136.842 6.542 137.295 6.491 137.655 6.395C138.015 6.299 138.3 6.167 138.51 5.999C138.726 5.825 138.876 5.618 138.96 5.378C139.044 5.138 139.086 4.874 139.086 4.586C139.086 3.974 138.915 3.509 138.573 3.191C138.231 2.873 137.775 2.714 137.205 2.714C136.941 2.714 136.698 2.753 136.476 2.831C136.254 2.903 136.053 3.008 135.873 3.146C135.699 3.278 135.552 3.434 135.432 3.614C135.312 3.794 135.222 3.992 135.162 4.208C135.06 4.484 134.925 4.667 134.757 4.757C134.595 4.847 134.364 4.868 134.064 4.82L132.894 4.613ZM152.353 7.493C152.353 8.627 152.23 9.614 151.984 10.454C151.744 11.288 151.408 11.978 150.976 12.524C150.55 13.07 150.043 13.478 149.455 13.748C148.873 14.012 148.243 14.144 147.565 14.144C146.887 14.144 146.257 14.012 145.675 13.748C145.099 13.478 144.598 13.07 144.172 12.524C143.746 11.978 143.413 11.288 143.173 10.454C142.933 9.614 142.813 8.627 142.813 7.493C142.813 6.353 142.933 5.366 143.173 4.532C143.413 3.698 143.746 3.008 144.172 2.462C144.598 1.916 145.099 1.511 145.675 1.247C146.257 0.977 146.887 0.842 147.565 0.842C148.243 0.842 148.873 0.977 149.455 1.247C150.043 1.511 150.55 1.916 150.976 2.462C151.408 3.008 151.744 3.698 151.984 4.532C152.23 5.366 152.353 6.353 152.353 7.493ZM150.058 7.493C150.058 6.551 149.989 5.771 149.851 5.153C149.713 4.535 149.527 4.043 149.293 3.677C149.065 3.311 148.801 3.056 148.501 2.912C148.201 2.762 147.889 2.687 147.565 2.687C147.247 2.687 146.938 2.762 146.638 2.912C146.344 3.056 146.083 3.311 145.855 3.677C145.627 4.043 145.444 4.535 145.306 5.153C145.174 5.771 145.108 6.551 145.108 7.493C145.108 8.435 145.174 9.215 145.306 9.833C145.444 10.451 145.627 10.943 145.855 11.309C146.083 11.675 146.344 11.933 146.638 12.083C146.938 12.227 147.247 12.299 147.565 12.299C147.889 12.299 148.201 12.227 148.501 12.083C148.801 11.933 149.065 11.675 149.293 11.309C149.527 10.943 149.713 10.451 149.851 9.833C149.989 9.215 150.058 8.435 150.058 7.493ZM162.795 7.493C162.795 8.627 162.672 9.614 162.426 10.454C162.186 11.288 161.85 11.978 161.418 12.524C160.992 13.07 160.485 13.478 159.897 13.748C159.315 14.012 158.685 14.144 158.007 14.144C157.329 14.144 156.699 14.012 156.117 13.748C155.541 13.478 155.04 13.07 154.614 12.524C154.188 11.978 153.855 11.288 153.615 10.454C153.375 9.614 153.255 8.627 153.255 7.493C153.255 6.353 153.375 5.366 153.615 4.532C153.855 3.698 154.188 3.008 154.614 2.462C155.04 1.916 155.541 1.511 156.117 1.247C156.699 0.977 157.329 0.842 158.007 0.842C158.685 0.842 159.315 0.977 159.897 1.247C160.485 1.511 160.992 1.916 161.418 2.462C161.85 3.008 162.186 3.698 162.426 4.532C162.672 5.366 162.795 6.353 162.795 7.493ZM160.5 7.493C160.5 6.551 160.431 5.771 160.293 5.153C160.155 4.535 159.969 4.043 159.735 3.677C159.507 3.311 159.243 3.056 158.943 2.912C158.643 2.762 158.331 2.687 158.007 2.687C157.689 2.687 157.38 2.762 157.08 2.912C156.786 3.056 156.525 3.311 156.297 3.677C156.069 4.043 155.886 4.535 155.748 5.153C155.616 5.771 155.55 6.551 155.55 7.493C155.55 8.435 155.616 9.215 155.748 9.833C155.886 10.451 156.069 10.943 156.297 11.309C156.525 11.675 156.786 11.933 157.08 12.083C157.38 12.227 157.689 12.299 158.007 12.299C158.331 12.299 158.643 12.227 158.943 12.083C159.243 11.933 159.507 11.675 159.735 11.309C159.969 10.943 160.155 10.451 160.293 9.833C160.431 9.215 160.5 8.435 160.5 7.493ZM170.944 0.625999V8.285H171.358C171.508 8.285 171.625 8.267 171.709 8.231C171.799 8.189 171.889 8.108 171.979 7.988L174.274 5.153C174.37 5.027 174.475 4.931 174.589 4.865C174.709 4.799 174.862 4.766 175.048 4.766H177.082L174.211 8.195C174.007 8.465 173.785 8.672 173.545 8.816C173.671 8.906 173.782 9.011 173.878 9.131C173.98 9.251 174.076 9.38 174.166 9.518L177.244 14H175.237C175.063 14 174.913 13.973 174.787 13.919C174.661 13.859 174.556 13.754 174.472 13.604L172.114 10.103C172.03 9.965 171.943 9.875 171.853 9.833C171.763 9.791 171.628 9.77 171.448 9.77H170.944V14H168.721V0.625999H170.944ZM184.477 6.719C184.411 6.803 184.345 6.869 184.279 6.917C184.219 6.965 184.129 6.989 184.009 6.989C183.895 6.989 183.784 6.956 183.676 6.89C183.568 6.818 183.439 6.74 183.289 6.656C183.139 6.566 182.959 6.488 182.749 6.422C182.545 6.35 182.29 6.314 181.984 6.314C181.594 6.314 181.252 6.386 180.958 6.53C180.664 6.668 180.418 6.869 180.22 7.133C180.028 7.397 179.884 7.718 179.788 8.096C179.692 8.468 179.644 8.891 179.644 9.365C179.644 9.857 179.695 10.295 179.797 10.679C179.905 11.063 180.058 11.387 180.256 11.651C180.454 11.909 180.694 12.107 180.976 12.245C181.258 12.377 181.576 12.443 181.93 12.443C182.284 12.443 182.569 12.401 182.785 12.317C183.007 12.227 183.193 12.131 183.343 12.029C183.493 11.921 183.622 11.825 183.73 11.741C183.844 11.651 183.97 11.606 184.108 11.606C184.288 11.606 184.423 11.675 184.513 11.813L185.152 12.623C184.906 12.911 184.639 13.154 184.351 13.352C184.063 13.544 183.763 13.7 183.451 13.82C183.145 13.934 182.827 14.015 182.497 14.063C182.173 14.111 181.849 14.135 181.525 14.135C180.955 14.135 180.418 14.03 179.914 13.82C179.41 13.604 178.969 13.292 178.591 12.884C178.213 12.476 177.913 11.978 177.691 11.39C177.475 10.796 177.367 10.121 177.367 9.365C177.367 8.687 177.463 8.06 177.655 7.484C177.853 6.902 178.141 6.401 178.519 5.981C178.897 5.555 179.365 5.222 179.923 4.982C180.481 4.742 181.123 4.622 181.849 4.622C182.539 4.622 183.142 4.733 183.658 4.955C184.18 5.177 184.648 5.495 185.062 5.909L184.477 6.719ZM191.423 10.058C190.781 10.088 190.241 10.145 189.803 10.229C189.365 10.307 189.014 10.409 188.75 10.535C188.486 10.661 188.297 10.808 188.183 10.976C188.069 11.144 188.012 11.327 188.012 11.525C188.012 11.915 188.126 12.194 188.354 12.362C188.588 12.53 188.891 12.614 189.263 12.614C189.719 12.614 190.112 12.533 190.442 12.371C190.778 12.203 191.105 11.951 191.423 11.615V10.058ZM186.329 6.053C187.391 5.081 188.669 4.595 190.163 4.595C190.703 4.595 191.186 4.685 191.612 4.865C192.038 5.039 192.398 5.285 192.692 5.603C192.986 5.915 193.208 6.29 193.358 6.728C193.514 7.166 193.592 7.646 193.592 8.168V14H192.584C192.374 14 192.212 13.97 192.098 13.91C191.984 13.844 191.894 13.715 191.828 13.523L191.63 12.857C191.396 13.067 191.168 13.253 190.946 13.415C190.724 13.571 190.493 13.703 190.253 13.811C190.013 13.919 189.755 14 189.479 14.054C189.209 14.114 188.909 14.144 188.579 14.144C188.189 14.144 187.829 14.093 187.499 13.991C187.169 13.883 186.884 13.724 186.644 13.514C186.404 13.304 186.218 13.043 186.086 12.731C185.954 12.419 185.888 12.056 185.888 11.642C185.888 11.408 185.927 11.177 186.005 10.949C186.083 10.715 186.209 10.493 186.383 10.283C186.563 10.073 186.794 9.875 187.076 9.689C187.358 9.503 187.703 9.341 188.111 9.203C188.525 9.065 189.005 8.954 189.551 8.87C190.097 8.78 190.721 8.726 191.423 8.708V8.168C191.423 7.55 191.291 7.094 191.027 6.8C190.763 6.5 190.382 6.35 189.884 6.35C189.524 6.35 189.224 6.392 188.984 6.476C188.75 6.56 188.543 6.656 188.363 6.764C188.183 6.866 188.018 6.959 187.868 7.043C187.724 7.127 187.562 7.169 187.382 7.169C187.226 7.169 187.094 7.13 186.986 7.052C186.878 6.968 186.791 6.872 186.725 6.764L186.329 6.053ZM197.936 0.625999V14H195.713V0.625999H197.936Z" fill="#222222"/>
<rect y="25" width="374" height="8" rx="4" fill="#E2E3E9"/>
<rect x="78" y="21" width="113" height="16" rx="8" fill="#DE2B70" stroke="white" stroke-width="4"/>
</svg>
