<svg width="40" height="40" viewBox="0 0 40 40" fill="none" xmlns="http://www.w3.org/2000/svg">
<path d="M10.6594 18.2805C9.91007 18.2805 9.33571 18.5213 9.33571 18.5213L9.17706 19.4632C9.17706 19.4632 9.65086 19.2706 10.3683 19.2706C10.7755 19.2706 11.073 19.3159 11.073 19.6467C11.073 19.8478 11.0368 19.9222 11.0368 19.9222C11.0368 19.9222 10.716 19.896 10.5673 19.896C9.62182 19.896 8.62891 20.2982 8.62891 21.5156C8.62891 22.4746 9.27976 22.6934 9.68415 22.6934C10.4554 22.6934 10.7883 22.1934 10.8053 22.192L10.7691 22.6098H11.7316L12.1608 19.5999C12.1601 18.3216 11.046 18.2805 10.6594 18.2805ZM10.1197 21.7777C9.78046 21.7777 9.69194 21.5192 9.69194 21.3648C9.69194 21.0659 9.85412 20.7062 10.6551 20.7062C10.8421 20.7069 10.8619 20.726 10.8931 20.7317C10.9143 20.9158 10.7783 21.7777 10.1197 21.7777Z" fill="#7A809A"/>
<path d="M14.135 19.2897C14.2887 19.2897 14.8815 19.3386 14.8815 19.3386L15.0196 18.374C15.0196 18.374 14.6357 18.2883 14.0111 18.2883C13.2023 18.2883 12.3822 18.6113 12.3822 19.7154C12.3822 20.9675 13.7505 20.84 13.7505 21.3684C13.7505 21.7196 13.368 21.7487 13.0734 21.7487C12.5628 21.7487 12.1039 21.5744 12.1024 21.5815L11.9565 22.5383C11.9827 22.5454 12.266 22.6715 13.1832 22.6715C13.4289 22.6715 14.8361 22.7352 14.8361 21.2827C14.8361 19.9243 13.5337 20.1927 13.5337 19.6467C13.5337 19.3747 13.7455 19.2897 14.135 19.2897Z" fill="#7A809A"/>
<path d="M16.4349 19.4128H17.0135L17.1531 18.3845H16.6077L16.7189 17.7471H15.6261C15.6021 17.7704 14.981 21.342 14.981 21.7754C14.981 22.4206 15.3429 22.7067 15.8521 22.7017C16.2508 22.6989 16.5617 22.5884 16.6715 22.558L16.8082 21.6288C16.7331 21.6288 16.6233 21.6614 16.5263 21.6614C16.146 21.6614 16.1042 21.4581 16.1283 21.3087L16.4349 19.4128Z" fill="#7A809A"/>
<path d="M21.015 13.4468H19.0646C18.8026 13.8009 18.5561 14.1777 18.333 14.5459H21.8125C21.571 14.1621 21.304 13.7952 21.015 13.4468Z" fill="#7A809A"/>
<path d="M36.2329 25.811C36.2117 25.7791 36.194 25.755 36.1798 25.7402C36.172 25.7331 36.1621 25.7253 36.1494 25.7217C36.1798 25.7196 36.2053 25.7083 36.2237 25.6892C36.2414 25.67 36.2513 25.6474 36.2513 25.6212C36.2513 25.6028 36.2457 25.5851 36.2351 25.5688C36.2244 25.5525 36.2089 25.5404 36.1897 25.5341C36.172 25.527 36.1416 25.5234 36.0998 25.5234H35.9766V25.8811H36.0346V25.7295H36.0679C36.0878 25.7295 36.104 25.7338 36.1132 25.7423C36.1281 25.7543 36.1494 25.7819 36.1742 25.8251L36.2053 25.8818H36.2768L36.2329 25.811ZM36.104 25.6821H36.0332V25.5744H36.0998C36.1274 25.5744 36.1458 25.5766 36.1564 25.5808C36.1678 25.5851 36.1749 25.5914 36.1812 25.5992C36.1869 25.6077 36.1897 25.6169 36.1897 25.6268C36.1897 25.6431 36.1841 25.6573 36.172 25.6672C36.16 25.6764 36.1366 25.6821 36.104 25.6821Z" fill="#7A809A"/>
<path d="M22.4037 15.6248H17.7245C17.4256 16.1906 17.2273 16.6184 17.1714 16.7246H22.847C22.7188 16.3464 22.5715 15.9803 22.4037 15.6248Z" fill="#7A809A"/>
<path d="M7.28948 17.4102L6.21229 20.6042L6.15634 17.4102H4.56144L3.6875 22.6148H4.74203L5.40705 18.6913L5.50478 22.6148H6.25761L7.662 18.6913L7.03948 22.6148H8.15846L9.02036 17.4102H7.28948Z" fill="#7A809A"/>
<path d="M28.3776 18.2805C27.6269 18.2805 27.0532 18.5213 27.0532 18.5213L26.8939 19.4632C26.8939 19.4632 27.3684 19.2706 28.0851 19.2706C28.4923 19.2706 28.7905 19.3159 28.7905 19.6467C28.7905 19.8478 28.7529 19.9222 28.7529 19.9222C28.7529 19.9222 28.4328 19.896 28.2827 19.896C27.3379 19.896 26.3457 20.2982 26.3457 21.5156C26.3457 22.4746 26.9973 22.6934 27.4009 22.6934C28.1715 22.6934 28.5043 22.1934 28.522 22.192L28.4859 22.6098H29.4477L29.8769 19.5999C29.879 18.3216 28.7643 18.2805 28.3776 18.2805ZM27.8393 21.7777C27.4994 21.7777 27.4116 21.5192 27.4116 21.3648C27.4116 21.0659 27.5737 20.7062 28.3747 20.7062C28.561 20.7069 28.5808 20.726 28.6127 20.7317C28.6332 20.9158 28.4966 21.7777 27.8393 21.7777Z" fill="#7A809A"/>
<path d="M36.2679 22.1352C36.2389 22.0814 36.1964 22.0403 36.1433 22.012C36.0909 21.9829 36.037 21.9688 35.9804 21.9688C35.9258 21.9695 35.8713 21.9836 35.8175 22.012C35.7644 22.0403 35.7233 22.0814 35.6935 22.1352C35.6638 22.1883 35.6489 22.2435 35.6489 22.3009C35.6489 22.3583 35.6638 22.4128 35.6935 22.4652C35.7226 22.5176 35.7637 22.5594 35.8161 22.5891C35.8692 22.6182 35.9237 22.6331 35.9804 22.6331C36.0384 22.6331 36.0937 22.6182 36.1454 22.5891C36.1978 22.5594 36.2389 22.5176 36.2679 22.4652C36.2984 22.4128 36.3118 22.3583 36.3118 22.3009C36.3118 22.2421 36.2977 22.1869 36.2679 22.1352ZM36.2219 22.4376C36.1978 22.4815 36.1638 22.5148 36.1192 22.541C36.0753 22.5651 36.0299 22.5778 35.9825 22.5778C35.9343 22.5778 35.8883 22.5651 35.8451 22.541C35.8005 22.5162 35.7672 22.4822 35.7417 22.4376C35.7162 22.393 35.7049 22.3476 35.7049 22.3002C35.7049 22.2527 35.7169 22.2067 35.7431 22.1621C35.7679 22.1182 35.8012 22.0842 35.8465 22.0594C35.8918 22.0346 35.9365 22.024 35.9825 22.024C36.0285 22.024 36.0739 22.0353 36.1171 22.0594C36.1624 22.0842 36.1957 22.1175 36.2205 22.1621C36.2452 22.2067 36.2587 22.2527 36.2587 22.3002C36.2587 22.3476 36.2467 22.3937 36.2219 22.4376Z" fill="#7A809A"/>
<path d="M36.0925 22.4135C36.072 22.3802 36.0536 22.3569 36.0401 22.3427C36.0316 22.3349 36.0224 22.3285 36.0097 22.3243C36.0401 22.3222 36.0649 22.3108 36.0833 22.2917C36.101 22.2733 36.1117 22.2492 36.1117 22.2237C36.1117 22.206 36.106 22.1876 36.0947 22.1713C36.0833 22.1557 36.0685 22.1437 36.0507 22.1366C36.033 22.1295 36.0019 22.126 35.9601 22.126H35.8354V22.4829H35.8935V22.3314H35.9268C35.9473 22.3314 35.9636 22.3356 35.9735 22.3434C35.9884 22.3561 36.0083 22.3831 36.0345 22.4277L36.0649 22.4836H36.1364L36.0925 22.4135ZM35.9651 22.2825H35.8949V22.1741H35.9601C35.9884 22.1741 36.0068 22.1763 36.0182 22.1798C36.0274 22.1848 36.0359 22.1897 36.0415 22.1989C36.0479 22.2081 36.0507 22.2159 36.0507 22.228C36.0507 22.2435 36.0444 22.257 36.0337 22.2669C36.0203 22.279 35.9983 22.2825 35.9651 22.2825Z" fill="#7A809A"/>
<path d="M32.0916 18.332C31.6022 18.332 31.2389 18.9999 31.2389 18.9999L31.3367 18.3859H30.3182L29.6362 22.6224H30.758C31.0774 20.8122 31.1355 19.3441 31.894 19.6125C32.0279 18.9128 32.1568 18.6415 32.302 18.3462C32.302 18.3469 32.234 18.332 32.0916 18.332Z" fill="#7A809A"/>
<path d="M34.9102 17.4157L34.6744 18.8782C34.6744 18.8782 34.2636 18.3095 33.6191 18.3095C32.617 18.3102 31.7827 19.5177 31.7827 20.9044C31.7827 21.8003 32.2282 22.6777 33.1375 22.6777C33.7926 22.6777 34.1552 22.2209 34.1552 22.2209L34.1078 22.6112H35.1708L36.0065 17.4136L34.9102 17.4157ZM33.5242 21.6154C33.1304 21.6154 32.9463 21.2854 32.9463 20.767C32.9463 19.9192 33.3266 19.3605 33.8075 19.3605C34.1999 19.3612 34.4017 19.631 34.4017 20.267C34.4017 20.8442 34.1163 21.6154 33.5242 21.6154Z" fill="#7A809A"/>
<path d="M38.9703 7.03906H1.02974C0.46034 7.03906 0 7.50011 0 8.06881V31.9321C0 32.5008 0.46034 32.9619 1.02974 32.9619H38.9703C39.5397 32.9619 40 32.5008 40 31.9321V8.06881C40 7.50011 39.5397 7.03906 38.9703 7.03906ZM36.4086 25.8627C36.3789 25.9165 36.3385 25.9576 36.2861 25.9867C36.2337 26.0157 36.1785 26.0306 36.1218 26.0306C36.0637 26.0306 36.0085 26.0157 35.9561 25.9867C35.9044 25.9576 35.8633 25.9165 35.8329 25.8627C35.8038 25.811 35.789 25.7558 35.789 25.6984C35.789 25.641 35.8038 25.5865 35.8336 25.5327C35.8626 25.4789 35.9051 25.4385 35.9575 25.4095C36.0106 25.3818 36.0644 25.367 36.1211 25.367C36.1771 25.367 36.2309 25.3818 36.2833 25.4095C36.3364 25.4385 36.3782 25.4789 36.4072 25.5327C36.437 25.5865 36.4511 25.6418 36.4511 25.6984C36.4511 25.7551 36.4384 25.8124 36.4086 25.8627ZM37.1509 20.0008C37.1523 25.6701 32.5588 30.2678 26.8888 30.2692C24.2373 30.2699 21.8194 29.265 19.9979 27.6141C18.1763 29.2622 15.7635 30.2664 13.1161 30.2664C7.44972 30.2664 2.85057 25.668 2.85057 20.0008C2.85057 14.3563 7.4136 9.77136 13.0503 9.73453C13.0722 9.73453 13.0942 9.73453 13.1161 9.73453C15.7635 9.73453 18.1771 10.7388 19.9986 12.3868C21.8194 10.7381 24.2344 9.73311 26.8839 9.7324C32.5538 9.73028 37.1508 14.3259 37.1523 19.9959C37.1508 19.9973 37.1509 19.998 37.1509 20.0008Z" fill="#7A809A"/>
<path d="M18.9468 26.4915C19.2718 26.8895 19.616 27.2691 19.9964 27.6133C20.0049 27.6055 20.0141 27.5984 20.0226 27.5913C20.0226 27.5913 20.0218 27.5913 20.0218 27.5906H20.024C20.3979 27.25 20.7471 26.8831 21.0665 26.4915H18.9468Z" fill="#7A809A"/>
<path d="M20.3448 20.8569C20.3448 20.8569 20.4885 20.1486 20.4885 19.8604C20.4885 19.1402 20.1302 18.262 18.9305 18.262C17.8313 18.2627 17.0176 19.4468 17.0176 20.7853C17.0176 22.33 18.0367 22.6968 18.9057 22.6968C19.7074 22.6968 20.0601 22.5169 20.0601 22.5169L20.2527 21.4631C20.2527 21.4631 19.6429 21.7322 19.0919 21.7322C17.9184 21.7322 18.1238 20.8569 18.1238 20.8569H20.3448ZM18.934 19.2428C19.5509 19.2428 19.4368 19.9362 19.4368 19.9914H18.2237C18.2237 19.9199 18.3384 19.2428 18.934 19.2428Z" fill="#7A809A"/>
<path d="M25.4709 18.4073C26.0268 18.4073 26.4737 18.7196 26.4737 18.7196L26.6522 17.5617C26.6522 17.5617 25.9907 17.2939 25.4213 17.2939C24.16 17.2939 22.9326 18.3888 22.9326 20.4448C22.9326 21.8081 23.5948 22.7083 24.8993 22.7083C25.2676 22.7083 25.8554 22.5588 25.8554 22.5588L26.0509 21.3662C26.0509 21.3662 25.5155 21.6346 25.1472 21.6346C24.371 21.6339 24.0601 21.0418 24.0601 20.4073C24.0601 19.1162 24.7272 18.4073 25.4709 18.4073Z" fill="#7A809A"/>
<path d="M17.5767 24.335C17.7544 24.7167 17.9612 25.08 18.1829 25.4341H21.8252C22.0462 25.0814 22.2452 24.7146 22.423 24.335H17.5767Z" fill="#7A809A"/>
<path d="M22.9127 18.3336C22.4234 18.3336 22.0607 19.0014 22.0607 19.0014L22.1592 18.3874H21.1415L20.4595 22.624H21.5813C21.8993 20.8145 21.9588 19.3456 22.7173 19.614C22.8504 18.9136 22.9786 18.6424 23.1238 18.3463C23.1238 18.3463 23.0558 18.3322 22.9127 18.3336Z" fill="#7A809A"/>
</svg>
