<svg width="156" height="156" viewBox="0 0 156 156" fill="none" xmlns="http://www.w3.org/2000/svg">
<path d="M77.9999 0L135.073 6.34146V109.707C135.073 122.39 116.049 137.821 77.9999 156C39.9511 137.821 20.9268 122.39 20.9268 109.707V6.34146L77.9999 0Z" fill="#3385FF"/>
<path d="M83.096 134.413L83.0972 134.413C83.3655 134.454 83.5887 134.652 83.6724 134.922C83.7561 135.192 83.6863 135.489 83.4923 135.687L81.2633 137.961L81.7896 141.174C81.8346 141.454 81.7249 141.738 81.5049 141.905C81.3989 141.987 81.2714 142.036 81.138 142.046C81.0046 142.056 80.8711 142.027 80.7541 141.962L78 140.445L75.2446 141.963C75.1275 142.027 74.9941 142.057 74.8607 142.046C74.7273 142.036 74.5997 141.987 74.4938 141.906C74.3849 141.821 74.3009 141.708 74.2509 141.58C74.2009 141.451 74.1866 141.311 74.2097 141.175L74.736 137.962L72.5083 135.687C72.4122 135.587 72.3448 135.463 72.313 135.328C72.2812 135.194 72.2862 135.053 72.3275 134.921C72.3661 134.79 72.4407 134.673 72.5428 134.583C72.6449 134.493 72.7703 134.434 72.9046 134.412L75.984 133.944L77.3582 131.021C77.4914 130.781 77.7355 130.634 78 130.634C78.2644 130.634 78.5092 130.781 78.6424 131.021L80.0165 133.943L83.096 134.412V134.413ZM96.6166 128.714L96.6179 128.715C96.707 128.73 96.7902 128.769 96.858 128.829C96.9257 128.889 96.9752 128.967 97.0009 129.053C97.0285 129.141 97.0319 129.235 97.0108 129.325C96.9897 129.415 96.9449 129.497 96.881 129.564L95.3952 131.08L95.7453 133.222C95.7607 133.312 95.7513 133.405 95.718 133.491C95.6847 133.577 95.6288 133.652 95.5563 133.709C95.4856 133.763 95.4005 133.796 95.3115 133.803C95.2225 133.809 95.1335 133.79 95.0553 133.747L93.2195 132.736L91.383 133.748C91.3049 133.791 91.2158 133.811 91.1268 133.804C91.0378 133.797 90.9527 133.764 90.882 133.71C90.8095 133.653 90.7536 133.578 90.7203 133.493C90.687 133.407 90.6776 133.314 90.693 133.223L91.0431 131.081L89.5579 129.564C89.4938 129.497 89.4488 129.415 89.4276 129.325C89.4064 129.235 89.4098 129.141 89.4374 129.053C89.4632 128.966 89.513 128.888 89.5811 128.828C89.6492 128.768 89.7328 128.729 89.8224 128.714L91.8751 128.402L92.7914 126.453C92.8332 126.376 92.8949 126.311 92.9702 126.266C93.0455 126.22 93.1316 126.196 93.2195 126.195C93.3958 126.195 93.5587 126.294 93.6475 126.453L94.5639 128.402L96.6166 128.714ZM66.1776 128.714L66.1788 128.715C66.268 128.73 66.3512 128.769 66.419 128.829C66.4867 128.889 66.5362 128.967 66.5619 129.053C66.5894 129.141 66.5929 129.235 66.5718 129.325C66.5507 129.415 66.5059 129.497 66.442 129.564L64.9562 131.08L65.3063 133.222C65.3217 133.312 65.3122 133.405 65.279 133.491C65.2457 133.577 65.1898 133.652 65.1173 133.709C65.0466 133.763 64.9615 133.796 64.8725 133.803C64.7835 133.809 64.6944 133.79 64.6163 133.747L62.7804 132.736L60.944 133.748C60.8658 133.791 60.7768 133.811 60.6878 133.804C60.5988 133.797 60.5137 133.764 60.443 133.71C60.3704 133.653 60.3146 133.578 60.2813 133.493C60.248 133.407 60.2386 133.314 60.254 133.223L60.6041 131.081L59.1189 129.564C59.0548 129.497 59.0098 129.415 58.9886 129.325C58.9674 129.235 58.9708 129.141 58.9984 129.053C59.0242 128.966 59.074 128.888 59.1421 128.828C59.2102 128.768 59.2938 128.729 59.3833 128.714L61.4361 128.402L62.3524 126.453C62.3941 126.376 62.4559 126.311 62.5312 126.266C62.6065 126.22 62.6925 126.196 62.7804 126.195C62.9567 126.195 63.1197 126.294 63.2085 126.453L64.1248 128.402L66.1776 128.714Z" fill="white"/>
<path d="M37.4146 31.0732H118.585V32.3415H37.4146V31.0732Z" fill="white"/>
<path d="M136.976 126.195V105.902H156L151.561 116.049L156 126.195H136.976ZM19.0244 126.195H0L4.43902 116.049L0 105.902H19.0244V126.195Z" fill="#43474E"/>
<path d="M136.975 121.122H145.854L136.975 126.195V121.122ZM19.0243 121.122V126.195L10.1462 121.122H19.0243Z" fill="#373B42"/>
<path d="M145.854 100.829V121.122H10.1462V100.829H145.854Z" fill="#5B5E64"/>
<path d="M67.9142 44.9043C69.284 44.9043 70.5015 45.1009 71.5669 45.4941C72.6323 45.8745 73.5328 46.3945 74.2684 47.0541C75.004 47.7136 75.562 48.4809 75.9425 49.356C76.323 50.2184 76.5133 51.1316 76.5133 52.0955C76.5133 52.9706 76.4245 53.7443 76.2469 54.4165C76.0694 55.076 75.803 55.6531 75.4479 56.1477C75.1054 56.6297 74.6742 57.0419 74.1542 57.3843C73.6469 57.7267 73.0635 58.0121 72.404 58.2404C75.4733 59.3058 77.0079 61.3921 77.0079 64.4994C77.0079 65.9706 76.7415 67.2516 76.2089 68.3423C75.6762 69.4331 74.9596 70.3399 74.0591 71.0628C73.1713 71.7858 72.1376 72.3311 70.9581 72.6989C69.7786 73.0541 68.5484 73.2316 67.2674 73.2316C65.9484 73.2316 64.7752 73.0921 63.7479 72.8131C62.7206 72.5214 61.8074 72.0775 61.0084 71.4814C60.2094 70.8726 59.5055 70.0989 58.8967 69.1604C58.3006 68.2219 57.7806 67.1058 57.3367 65.8121L59.962 64.7467C60.1903 64.6453 60.4123 64.5755 60.6279 64.5375C60.8562 64.4994 61.0781 64.4804 61.2937 64.4804C61.6996 64.4804 62.0611 64.5628 62.3781 64.7277C62.7079 64.8799 62.9552 65.1082 63.1201 65.4126C63.6908 66.4653 64.2933 67.2326 64.9274 67.7145C65.5742 68.1838 66.3289 68.4184 67.1913 68.4184C67.8508 68.4184 68.4215 68.3106 68.9035 68.095C69.3981 67.8667 69.804 67.5814 70.1211 67.2389C70.4508 66.8838 70.6981 66.4843 70.863 66.0404C71.0279 65.5965 71.1103 65.1462 71.1103 64.6897C71.1103 64.0936 71.0659 63.5609 70.9772 63.0916C70.9011 62.6097 70.6728 62.1975 70.2923 61.855C69.9118 61.5126 69.3347 61.2526 68.5611 61.075C67.8001 60.8848 66.7347 60.7897 65.365 60.7897V56.7184C66.5191 56.7184 67.4513 56.6297 68.1615 56.4521C68.8718 56.2745 69.4172 56.0336 69.7976 55.7292C70.1908 55.4121 70.4508 55.0316 70.5776 54.5877C70.7045 54.1438 70.7679 53.6555 70.7679 53.1228C70.7679 52.0321 70.5015 51.195 69.9689 50.6116C69.4489 50.0155 68.6498 49.7175 67.5718 49.7175C67.1279 49.7175 66.722 49.7809 66.3542 49.9077C65.9864 50.0345 65.6567 50.2058 65.365 50.4214C65.0733 50.637 64.8196 50.8906 64.604 51.1823C64.4011 51.4741 64.2362 51.7911 64.1094 52.1336C63.9064 52.7043 63.6464 53.1165 63.3294 53.3702C63.025 53.6238 62.6064 53.7506 62.0737 53.7506C61.9469 53.7506 61.8074 53.7443 61.6552 53.7316C61.5157 53.7189 61.3698 53.6999 61.2176 53.6745L58.0976 53.1228C58.3006 51.7404 58.6874 50.5355 59.2581 49.5082C59.8415 48.4809 60.5581 47.6248 61.4079 46.9399C62.2703 46.255 63.2533 45.7477 64.3567 45.418C65.4601 45.0755 66.6459 44.9043 67.9142 44.9043Z" fill="white"/>
<path d="M99.3074 59.0584C99.3074 61.4809 99.0474 63.5799 98.5274 65.3555C98.0074 67.1311 97.2845 68.6023 96.3587 69.7692C95.4455 70.936 94.3548 71.8048 93.0865 72.3755C91.8309 72.9462 90.4674 73.2316 88.9962 73.2316C87.525 73.2316 86.1616 72.9462 84.906 72.3755C83.6631 71.8048 82.585 70.936 81.6718 69.7692C80.7587 68.6023 80.0421 67.1311 79.5221 65.3555C79.0148 63.5799 78.7611 61.4809 78.7611 59.0584C78.7611 56.636 79.0148 54.537 79.5221 52.7614C80.0421 50.9858 80.7587 49.5145 81.6718 48.3477C82.585 47.1809 83.6631 46.3184 84.906 45.7604C86.1616 45.1897 87.525 44.9043 88.9962 44.9043C90.4674 44.9043 91.8309 45.1897 93.0865 45.7604C94.3548 46.3184 95.4455 47.1809 96.3587 48.3477C97.2845 49.5145 98.0074 50.9858 98.5274 52.7614C99.0474 54.537 99.3074 56.636 99.3074 59.0584ZM93.2196 59.0584C93.2196 57.1433 93.0992 55.577 92.8582 54.3594C92.6172 53.1292 92.2938 52.1653 91.8879 51.4677C91.4948 50.7702 91.0445 50.2945 90.5372 50.0409C90.0299 49.7745 89.5162 49.6414 88.9962 49.6414C88.4762 49.6414 87.9626 49.7745 87.4552 50.0409C86.9606 50.2945 86.5167 50.7702 86.1235 51.4677C85.7431 52.1653 85.4323 53.1292 85.1913 54.3594C84.9631 55.577 84.8489 57.1433 84.8489 59.0584C84.8489 60.9862 84.9631 62.5589 85.1913 63.7765C85.4323 64.9941 85.7431 65.958 86.1235 66.6682C86.5167 67.3658 86.9606 67.8477 87.4552 68.1141C87.9626 68.3677 88.4762 68.4945 88.9962 68.4945C89.5162 68.4945 90.0299 68.3677 90.5372 68.1141C91.0445 67.8477 91.4948 67.3658 91.8879 66.6682C92.2938 65.958 92.6172 64.9941 92.8582 63.7765C93.0992 62.5589 93.2196 60.9862 93.2196 59.0584Z" fill="white"/>
<path d="M69.4288 85.77C69.4288 86.5715 69.2893 87.3122 69.0103 87.992C68.7363 88.6667 68.3482 89.2527 67.846 89.7499C67.3437 90.242 66.7375 90.6275 66.0272 90.9065C65.3221 91.1805 64.5383 91.3175 63.6758 91.3175H59.3687V80.2301H63.6758C64.5383 80.2301 65.3221 80.3696 66.0272 80.6486C66.7375 80.9276 67.3437 81.3132 67.846 81.8053C68.3482 82.2974 68.7363 82.8833 69.0103 83.5631C69.2893 84.2379 69.4288 84.9735 69.4288 85.77ZM66.7958 85.77C66.7958 85.2221 66.7248 84.7274 66.5828 84.2861C66.4407 83.8447 66.2352 83.4718 65.9664 83.1674C65.7026 82.858 65.3779 82.6221 64.9923 82.4597C64.6068 82.2923 64.1679 82.2086 63.6758 82.2086H61.956V89.3389H63.6758C64.1679 89.3389 64.6068 89.2578 64.9923 89.0954C65.3779 88.928 65.7026 88.6921 65.9664 88.3877C66.2352 88.0782 66.4407 87.7028 66.5828 87.2615C66.7248 86.8201 66.7958 86.3229 66.7958 85.77Z" fill="white"/>
<path d="M80.5225 91.3175H78.5288C78.3055 91.3175 78.1204 91.2667 77.9733 91.1653C77.8312 91.0587 77.7323 90.9243 77.6765 90.762L77.022 88.8291H72.8062L72.1518 90.762C72.1011 90.904 72.0021 91.0334 71.855 91.1501C71.7079 91.2617 71.5278 91.3175 71.3147 91.3175H69.3057L73.5976 80.2301H76.2306L80.5225 91.3175ZM73.3998 87.0788H76.4285L75.4088 84.0425C75.3428 83.8498 75.2642 83.624 75.1729 83.3653C75.0866 83.1015 75.0004 82.8174 74.9141 82.513C74.833 82.8224 74.7493 83.1091 74.663 83.3729C74.5768 83.6367 74.4956 83.865 74.4195 84.0578L73.3998 87.0788Z" fill="white"/>
<path d="M85.4338 87.1017V91.3175H82.8617V87.1017L78.8437 80.2301H81.1114C81.3347 80.2301 81.5122 80.2833 81.6441 80.3899C81.776 80.4913 81.8826 80.6232 81.9637 80.7856L83.5313 84.0121C83.6582 84.2708 83.7749 84.5093 83.8814 84.7274C83.9879 84.9456 84.0818 85.1612 84.163 85.3742C84.2391 85.1561 84.3304 84.938 84.4369 84.7198C84.5434 84.5017 84.6576 84.2658 84.7793 84.0121L86.3317 80.7856C86.3622 80.7196 86.4028 80.6537 86.4535 80.5877C86.5093 80.5218 86.5702 80.4634 86.6361 80.4127C86.7072 80.3569 86.7858 80.3138 86.872 80.2833C86.9634 80.2478 87.0623 80.2301 87.1688 80.2301H89.4517L85.4338 87.1017Z" fill="white"/>
<path d="M96.3881 82.4825C96.3121 82.6043 96.2309 82.6956 96.1446 82.7565C96.0635 82.8174 95.9569 82.8478 95.825 82.8478C95.7083 82.8478 95.5815 82.8123 95.4445 82.7413C95.3126 82.6652 95.1604 82.5815 94.988 82.4902C94.8205 82.3988 94.6278 82.3177 94.4096 82.2466C94.1915 82.1705 93.9429 82.1325 93.6639 82.1325C93.1819 82.1325 92.8217 82.2365 92.5833 82.4445C92.3499 82.6474 92.2332 82.9239 92.2332 83.274C92.2332 83.4972 92.3042 83.6823 92.4463 83.8295C92.5883 83.9766 92.7735 84.1034 93.0018 84.21C93.2352 84.3165 93.499 84.4154 93.7932 84.5067C94.0925 84.593 94.3969 84.6919 94.7064 84.8035C95.0159 84.9101 95.3177 85.0369 95.612 85.184C95.9113 85.3311 96.1751 85.5188 96.4034 85.7471C96.6367 85.9754 96.8244 86.2544 96.9665 86.5842C97.1085 86.9089 97.1796 87.3021 97.1796 87.7637C97.1796 88.2761 97.0908 88.7555 96.9132 89.202C96.7357 89.6484 96.4769 90.039 96.137 90.3739C95.8022 90.7036 95.3862 90.9649 94.889 91.1577C94.3969 91.3454 93.8363 91.4392 93.2073 91.4392C92.8623 91.4392 92.5097 91.4037 92.1495 91.3327C91.7944 91.2617 91.4494 91.1627 91.1146 91.0359C90.7798 90.904 90.4652 90.7493 90.171 90.5717C89.8767 90.3941 89.6205 90.1963 89.4024 89.9782L90.1634 88.7758C90.2192 88.6845 90.2978 88.6109 90.3993 88.5551C90.5007 88.4993 90.6098 88.4714 90.7265 88.4714C90.8787 88.4714 91.0309 88.5196 91.1831 88.616C91.3403 88.7124 91.5154 88.8189 91.7081 88.9356C91.906 89.0523 92.1318 89.1588 92.3854 89.2552C92.6391 89.3516 92.9384 89.3998 93.2834 89.3998C93.7501 89.3998 94.1128 89.2983 94.3716 89.0954C94.6303 88.8874 94.7597 88.5602 94.7597 88.1138C94.7597 87.855 94.6886 87.6445 94.5466 87.4822C94.4045 87.3198 94.2168 87.1854 93.9835 87.0788C93.7552 86.9723 93.4939 86.8784 93.1997 86.7973C92.9054 86.7161 92.6036 86.6273 92.2941 86.5309C91.9846 86.4295 91.6828 86.3077 91.3885 86.1657C91.0943 86.0185 90.8305 85.8283 90.5971 85.5949C90.3688 85.3565 90.1837 85.0622 90.0416 84.7122C89.8996 84.3571 89.8285 83.9208 89.8285 83.4033C89.8285 82.9873 89.9122 82.5815 90.0797 82.1858C90.2471 81.7901 90.4931 81.4375 90.8178 81.128C91.1425 80.8185 91.5407 80.5725 92.0125 80.3899C92.4843 80.2022 93.0246 80.1083 93.6334 80.1083C93.9733 80.1083 94.3031 80.1362 94.6227 80.192C94.9474 80.2427 95.2543 80.3214 95.5435 80.4279C95.8326 80.5294 96.1015 80.6537 96.3501 80.8008C96.6038 80.9428 96.8295 81.1052 97.0274 81.2878L96.3881 82.4825Z" fill="white"/>
<path d="M44.3455 17.7601C44.4216 17.9047 44.4938 18.055 44.5623 18.211C44.6346 18.367 44.7031 18.5268 44.7678 18.6904C44.8325 18.523 44.901 18.3613 44.9733 18.2053C45.0456 18.0455 45.1198 17.8914 45.1958 17.743L47.3304 13.5424C47.3684 13.4701 47.4065 13.4149 47.4445 13.3769C47.4864 13.335 47.532 13.3046 47.5815 13.2856C47.631 13.2665 47.6861 13.2551 47.747 13.2513C47.8117 13.2475 47.8859 13.2456 47.9696 13.2456H49.4421V21.5612H47.7413V16.7784C47.7413 16.5463 47.7527 16.2952 47.7756 16.0251L45.5725 20.2999C45.504 20.433 45.4108 20.5339 45.2929 20.6023C45.1787 20.6708 45.0475 20.7051 44.8991 20.7051H44.6365C44.4881 20.7051 44.355 20.6708 44.237 20.6023C44.1229 20.5339 44.0316 20.433 43.9631 20.2999L41.7486 16.0194C41.7638 16.1525 41.7753 16.2857 41.7829 16.4189C41.7905 16.5482 41.7943 16.6681 41.7943 16.7784V21.5612H40.0935V13.2456H41.566C41.6497 13.2456 41.722 13.2475 41.7829 13.2513C41.8476 13.2551 41.9046 13.2665 41.9541 13.2856C42.0036 13.3046 42.0473 13.335 42.0854 13.3769C42.1272 13.4149 42.1672 13.4701 42.2052 13.5424L44.3455 17.7601Z" fill="white"/>
<path d="M59.0241 17.4005C59.0241 18.0017 58.9195 18.561 58.7102 19.0785C58.5048 19.596 58.2137 20.0468 57.837 20.4311C57.4603 20.8116 57.0057 21.1103 56.473 21.3272C55.9441 21.5441 55.3562 21.6525 54.7094 21.6525C54.0626 21.6525 53.4728 21.5441 52.9401 21.3272C52.4075 21.1103 51.9509 20.8116 51.5704 20.4311C51.1937 20.0468 50.9007 19.596 50.6915 19.0785C50.486 18.561 50.3833 18.0017 50.3833 17.4005C50.3833 16.7994 50.486 16.2401 50.6915 15.7226C50.9007 15.2051 51.1937 14.7562 51.5704 14.3757C51.9509 13.9952 52.4075 13.6965 52.9401 13.4796C53.4728 13.2627 54.0626 13.1543 54.7094 13.1543C55.3562 13.1543 55.9441 13.2646 56.473 13.4853C57.0057 13.7022 57.4603 14.0009 57.837 14.3814C58.2137 14.7619 58.5048 15.2108 58.7102 15.7283C58.9195 16.2458 59.0241 16.8032 59.0241 17.4005ZM57.0494 17.4005C57.0494 16.9896 56.9961 16.6205 56.8896 16.2933C56.7831 15.9623 56.629 15.6826 56.4273 15.4543C56.2295 15.2261 55.9859 15.051 55.6968 14.9293C55.4076 14.8075 55.0785 14.7466 54.7094 14.7466C54.3365 14.7466 54.0036 14.8075 53.7106 14.9293C53.4215 15.051 53.176 15.2261 52.9744 15.4543C52.7765 15.6826 52.6243 15.9623 52.5178 16.2933C52.4113 16.6205 52.358 16.9896 52.358 17.4005C52.358 17.8153 52.4113 18.1881 52.5178 18.5192C52.6243 18.8464 52.7765 19.1241 52.9744 19.3524C53.176 19.5807 53.4215 19.7558 53.7106 19.8775C54.0036 19.9955 54.3365 20.0544 54.7094 20.0544C55.0785 20.0544 55.4076 19.9955 55.6968 19.8775C55.9859 19.7558 56.2295 19.5807 56.4273 19.3524C56.629 19.1241 56.7831 18.8464 56.8896 18.5192C56.9961 18.1881 57.0494 17.8153 57.0494 17.4005Z" fill="white"/>
<path d="M60.9624 13.2456C61.0461 13.2456 61.1165 13.2494 61.1736 13.257C61.2306 13.2646 61.282 13.2799 61.3277 13.3027C61.3733 13.3217 61.4171 13.3502 61.4589 13.3883C61.5008 13.4263 61.5484 13.4777 61.6016 13.5424L65.5511 18.5363C65.5359 18.3765 65.5245 18.2224 65.5168 18.074C65.5092 17.9218 65.5054 17.7791 65.5054 17.646V13.2456H67.2062V21.5612H66.2017C66.0533 21.5612 65.9278 21.5383 65.825 21.4927C65.7223 21.447 65.6234 21.3633 65.5283 21.2416L61.6073 16.2876C61.6187 16.4322 61.6283 16.5749 61.6359 16.7157C61.6435 16.8526 61.6473 16.982 61.6473 17.1038V21.5612H59.9465V13.2456H60.9624Z" fill="white"/>
<path d="M73.9278 13.2456V14.7295H70.5148V16.67H73.1288V18.0968H70.5148V20.0773H73.9278V21.5612H68.5744V13.2456H73.9278Z" fill="white"/>
<path d="M79.172 18.3993V21.5612H77.243V18.3993L74.2295 13.2456H75.9303C76.0977 13.2456 76.2309 13.2856 76.3298 13.3655C76.4287 13.4416 76.5086 13.5405 76.5695 13.6622L77.7452 16.0821C77.8403 16.2762 77.9278 16.455 78.0078 16.6186C78.0877 16.7822 78.158 16.944 78.2189 17.1038C78.276 16.9401 78.3445 16.7765 78.4244 16.6129C78.5043 16.4493 78.5899 16.2724 78.6812 16.0821L79.8455 13.6622C79.8683 13.6128 79.8988 13.5633 79.9368 13.5139C79.9787 13.4644 80.0243 13.4206 80.0738 13.3826C80.1271 13.3407 80.186 13.3084 80.2507 13.2856C80.3192 13.2589 80.3934 13.2456 80.4733 13.2456H82.1855L79.172 18.3993Z" fill="white"/>
<path d="M81.7253 17.3777H84.8072V18.8045H81.7253V17.3777Z" fill="white"/>
<path d="M86.0642 21.5612V13.2456H89.1233C89.6978 13.2456 90.1868 13.2989 90.5901 13.4054C90.9934 13.512 91.3225 13.6622 91.5774 13.8563C91.8324 14.0503 92.0169 14.2862 92.131 14.564C92.249 14.8418 92.308 15.1519 92.308 15.4943C92.308 15.6807 92.2813 15.8615 92.2281 16.0365C92.1748 16.2077 92.0911 16.3694 91.9769 16.5216C91.8628 16.6738 91.7163 16.8127 91.5375 16.9382C91.3587 17.06 91.1437 17.1665 90.8926 17.2579C91.4405 17.391 91.8457 17.6079 92.1082 17.9085C92.3708 18.2053 92.502 18.5877 92.502 19.0557C92.502 19.4095 92.4335 19.7386 92.2966 20.043C92.1596 20.3474 91.9579 20.6138 91.6916 20.8421C91.429 21.0665 91.1037 21.2435 90.7156 21.3728C90.3275 21.4984 89.8843 21.5612 89.3858 21.5612H86.0642ZM87.9932 18.0341V20.1058H89.3516C89.6065 20.1058 89.8139 20.0735 89.9737 20.0088C90.1373 19.9441 90.2647 19.8604 90.3561 19.7577C90.4474 19.6549 90.5102 19.5389 90.5444 19.4095C90.5787 19.2801 90.5958 19.1489 90.5958 19.0157C90.5958 18.8635 90.5748 18.7265 90.533 18.6048C90.4949 18.483 90.4265 18.3803 90.3275 18.2966C90.2324 18.2129 90.1049 18.1482 89.9451 18.1025C89.7853 18.0569 89.5837 18.0341 89.3402 18.0341H87.9932ZM87.9932 16.7442H88.9977C89.2108 16.7442 89.4029 16.729 89.5742 16.6985C89.7454 16.6681 89.89 16.6148 90.0079 16.5387C90.1297 16.4626 90.221 16.358 90.2819 16.2248C90.3466 16.0917 90.3789 15.9242 90.3789 15.7226C90.3789 15.5247 90.3542 15.3611 90.3047 15.2318C90.2552 15.0986 90.1791 14.9921 90.0764 14.9121C89.9737 14.8322 89.8424 14.7752 89.6826 14.7409C89.5266 14.7067 89.3402 14.6896 89.1233 14.6896H87.9932V16.7442Z" fill="white"/>
<path d="M101.294 21.5612H99.7988C99.6314 21.5612 99.4925 21.5231 99.3822 21.447C99.2757 21.3671 99.2015 21.2663 99.1596 21.1445L98.6688 19.6949H95.5069L95.0161 21.1445C94.978 21.2511 94.9038 21.3481 94.7935 21.4356C94.6832 21.5193 94.5481 21.5612 94.3883 21.5612H92.8816L96.1005 13.2456H98.0752L101.294 21.5612ZM95.9521 18.3822H98.2236L97.4588 16.105C97.4094 15.9604 97.3504 15.7911 97.2819 15.597C97.2172 15.3992 97.1525 15.1861 97.0878 14.9578C97.027 15.1899 96.9642 15.4049 96.8995 15.6027C96.8348 15.8006 96.7739 15.9718 96.7169 16.1164L95.9521 18.3822Z" fill="white"/>
<path d="M107.213 19.4095C107.259 19.4095 107.304 19.419 107.35 19.4381C107.396 19.4533 107.439 19.4818 107.481 19.5237L108.246 20.3284C107.911 20.766 107.491 21.097 106.985 21.3215C106.482 21.5421 105.887 21.6525 105.198 21.6525C104.567 21.6525 104 21.546 103.498 21.3329C102.999 21.116 102.575 20.8192 102.225 20.4425C101.879 20.0621 101.612 19.6131 101.426 19.0956C101.239 18.5743 101.146 18.0093 101.146 17.4005C101.146 16.7803 101.253 16.2115 101.466 15.6941C101.679 15.1728 101.976 14.7238 102.356 14.3471C102.74 13.9704 103.199 13.6775 103.732 13.4682C104.264 13.2589 104.852 13.1543 105.495 13.1543C105.807 13.1543 106.1 13.1828 106.374 13.2399C106.652 13.2932 106.91 13.3693 107.15 13.4682C107.39 13.5633 107.611 13.6794 107.812 13.8163C108.014 13.9495 108.193 14.0979 108.349 14.2615L107.698 15.1347C107.656 15.188 107.607 15.2375 107.55 15.2831C107.493 15.325 107.413 15.3459 107.31 15.3459C107.242 15.3459 107.177 15.3307 107.116 15.3002C107.055 15.2698 106.99 15.2337 106.922 15.1918C106.853 15.1461 106.777 15.0986 106.694 15.0491C106.614 14.9959 106.517 14.9483 106.403 14.9064C106.292 14.8608 106.161 14.8227 106.009 14.7923C105.86 14.7619 105.685 14.7466 105.484 14.7466C105.134 14.7466 104.814 14.8094 104.525 14.935C104.236 15.0567 103.986 15.2337 103.777 15.4658C103.572 15.6941 103.41 15.9718 103.292 16.299C103.178 16.6262 103.121 16.9934 103.121 17.4005C103.121 17.8267 103.178 18.2053 103.292 18.5363C103.41 18.8673 103.568 19.147 103.766 19.3753C103.967 19.5998 104.201 19.771 104.468 19.8889C104.734 20.0069 105.019 20.0659 105.324 20.0659C105.499 20.0659 105.659 20.0582 105.803 20.043C105.948 20.024 106.081 19.9936 106.203 19.9517C106.328 19.9099 106.446 19.8566 106.557 19.7919C106.671 19.7234 106.785 19.6397 106.899 19.5408C106.945 19.5027 106.994 19.4723 107.047 19.4495C107.101 19.4228 107.156 19.4095 107.213 19.4095Z" fill="white"/>
<path d="M111.057 16.6129H111.365C111.65 16.6129 111.856 16.5235 111.981 16.3447L113.853 13.628C113.956 13.4796 114.072 13.3788 114.201 13.3255C114.335 13.2722 114.496 13.2456 114.686 13.2456H116.364L113.899 16.6072C113.811 16.729 113.72 16.8298 113.625 16.9097C113.53 16.9896 113.433 17.0562 113.334 17.1095C113.478 17.1627 113.61 17.2369 113.728 17.3321C113.849 17.4234 113.96 17.547 114.059 17.703L116.57 21.5612H114.846C114.736 21.5612 114.641 21.5536 114.561 21.5383C114.485 21.5231 114.418 21.5003 114.361 21.4699C114.304 21.4394 114.255 21.4033 114.213 21.3614C114.171 21.3158 114.131 21.2644 114.093 21.2073L112.209 18.3137C112.141 18.2072 112.053 18.133 111.947 18.0911C111.844 18.0455 111.703 18.0226 111.525 18.0226H111.057V21.5612H109.128V13.2456H111.057V16.6129Z" fill="white"/>
<path d="M29.5933 113.502H31.1914V109.308C31.1914 109.102 31.1971 108.887 31.2085 108.663L30.2668 109.445C30.2059 109.494 30.145 109.53 30.0842 109.553C30.0233 109.572 29.9643 109.582 29.9072 109.582C29.8083 109.582 29.7189 109.561 29.639 109.519C29.5629 109.473 29.5058 109.426 29.4678 109.376L28.9084 108.634L31.4996 106.46H32.9606V113.502H34.3304V114.781H29.5933V113.502Z" fill="white"/>
<path d="M41.1687 110.62C41.1687 111.347 41.0907 111.977 40.9347 112.509C40.7787 113.042 40.5618 113.483 40.284 113.833C40.0101 114.184 39.6829 114.444 39.3024 114.615C38.9257 114.787 38.5167 114.872 38.0753 114.872C37.6339 114.872 37.2249 114.787 36.8482 114.615C36.4753 114.444 36.1519 114.184 35.878 113.833C35.604 113.483 35.389 113.042 35.233 112.509C35.0809 111.977 35.0048 111.347 35.0048 110.62C35.0048 109.894 35.0809 109.264 35.233 108.731C35.389 108.198 35.604 107.757 35.878 107.407C36.1519 107.057 36.4753 106.798 36.8482 106.631C37.2249 106.46 37.6339 106.374 38.0753 106.374C38.5167 106.374 38.9257 106.46 39.3024 106.631C39.6829 106.798 40.0101 107.057 40.284 107.407C40.5618 107.757 40.7787 108.198 40.9347 108.731C41.0907 109.264 41.1687 109.894 41.1687 110.62ZM39.3423 110.62C39.3423 110.046 39.3062 109.576 39.2339 109.211C39.1616 108.841 39.0646 108.552 38.9428 108.343C38.8249 108.134 38.6898 107.991 38.5376 107.915C38.3854 107.835 38.2313 107.795 38.0753 107.795C37.9193 107.795 37.7652 107.835 37.613 107.915C37.4646 107.991 37.3314 108.134 37.2135 108.343C37.0993 108.552 37.0061 108.841 36.9338 109.211C36.8653 109.576 36.8311 110.046 36.8311 110.62C36.8311 111.199 36.8653 111.67 36.9338 112.036C37.0061 112.401 37.0993 112.69 37.2135 112.903C37.3314 113.112 37.4646 113.257 37.613 113.337C37.7652 113.413 37.9193 113.451 38.0753 113.451C38.2313 113.451 38.3854 113.413 38.5376 113.337C38.6898 113.257 38.8249 113.112 38.9428 112.903C39.0646 112.69 39.1616 112.401 39.2339 112.036C39.3062 111.67 39.3423 111.199 39.3423 110.62Z" fill="white"/>
<path d="M47.79 110.62C47.79 111.347 47.712 111.977 47.556 112.509C47.4 113.042 47.1832 113.483 46.9054 113.833C46.6315 114.184 46.3042 114.444 45.9237 114.615C45.5471 114.787 45.138 114.872 44.6967 114.872C44.2553 114.872 43.8463 114.787 43.4696 114.615C43.0967 114.444 42.7733 114.184 42.4994 113.833C42.2254 113.483 42.0104 113.042 41.8544 112.509C41.7022 111.977 41.6261 111.347 41.6261 110.62C41.6261 109.894 41.7022 109.264 41.8544 108.731C42.0104 108.198 42.2254 107.757 42.4994 107.407C42.7733 107.057 43.0967 106.798 43.4696 106.631C43.8463 106.46 44.2553 106.374 44.6967 106.374C45.138 106.374 45.5471 106.46 45.9237 106.631C46.3042 106.798 46.6315 107.057 46.9054 107.407C47.1832 107.757 47.4 108.198 47.556 108.731C47.712 109.264 47.79 109.894 47.79 110.62ZM45.9637 110.62C45.9637 110.046 45.9275 109.576 45.8553 109.211C45.783 108.841 45.6859 108.552 45.5642 108.343C45.4462 108.134 45.3112 107.991 45.159 107.915C45.0068 107.835 44.8527 107.795 44.6967 107.795C44.5407 107.795 44.3866 107.835 44.2344 107.915C44.086 107.991 43.9528 108.134 43.8349 108.343C43.7207 108.552 43.6275 108.841 43.5552 109.211C43.4867 109.576 43.4525 110.046 43.4525 110.62C43.4525 111.199 43.4867 111.67 43.5552 112.036C43.6275 112.401 43.7207 112.69 43.8349 112.903C43.9528 113.112 44.086 113.257 44.2344 113.337C44.3866 113.413 44.5407 113.451 44.6967 113.451C44.8527 113.451 45.0068 113.413 45.159 113.337C45.3112 113.257 45.4462 113.112 45.5642 112.903C45.6859 112.69 45.783 112.401 45.8553 112.036C45.9275 111.67 45.9637 111.199 45.9637 110.62Z" fill="white"/>
<path d="M52.2883 108.48C52.2883 108.784 52.2331 109.062 52.1228 109.313C52.0124 109.564 51.866 109.781 51.6833 109.964C51.5007 110.143 51.2876 110.282 51.0441 110.381C50.8044 110.479 50.5533 110.529 50.2907 110.529C50.0016 110.529 49.7352 110.479 49.4917 110.381C49.252 110.282 49.0427 110.143 48.8639 109.964C48.6889 109.781 48.5519 109.564 48.453 109.313C48.3541 109.062 48.3046 108.784 48.3046 108.48C48.3046 108.164 48.3541 107.879 48.453 107.624C48.5519 107.365 48.6889 107.145 48.8639 106.962C49.0427 106.779 49.252 106.638 49.4917 106.54C49.7352 106.437 50.0016 106.385 50.2907 106.385C50.5799 106.385 50.8462 106.437 51.0898 106.54C51.3371 106.638 51.5482 106.779 51.7233 106.962C51.9021 107.145 52.041 107.365 52.1399 107.624C52.2388 107.879 52.2883 108.164 52.2883 108.48ZM50.93 108.48C50.93 108.286 50.9128 108.126 50.8786 108.001C50.8481 107.871 50.8044 107.769 50.7473 107.692C50.6902 107.616 50.6218 107.563 50.5419 107.533C50.4658 107.502 50.3821 107.487 50.2907 107.487C50.1994 107.487 50.1157 107.502 50.0396 107.533C49.9635 107.563 49.8988 107.616 49.8456 107.692C49.7923 107.769 49.7504 107.871 49.72 108.001C49.6896 108.126 49.6743 108.286 49.6743 108.48C49.6743 108.663 49.6896 108.815 49.72 108.937C49.7504 109.058 49.7923 109.155 49.8456 109.228C49.8988 109.3 49.9635 109.351 50.0396 109.382C50.1157 109.412 50.1994 109.427 50.2907 109.427C50.3821 109.427 50.4658 109.412 50.5419 109.382C50.6218 109.351 50.6902 109.3 50.7473 109.228C50.8044 109.155 50.8481 109.058 50.8786 108.937C50.9128 108.815 50.93 108.663 50.93 108.48ZM54.9022 106.728C54.9593 106.663 55.0297 106.604 55.1134 106.551C55.1971 106.494 55.3132 106.465 55.4616 106.465H56.7514L50.4848 114.53C50.4277 114.602 50.3554 114.663 50.2679 114.712C50.1842 114.758 50.0815 114.781 49.9597 114.781H48.6356L54.9022 106.728ZM57.071 112.829C57.071 113.133 57.0159 113.413 56.9055 113.668C56.7952 113.919 56.6487 114.136 56.4661 114.319C56.2834 114.497 56.0703 114.636 55.8268 114.735C55.5871 114.834 55.336 114.884 55.0735 114.884C54.7843 114.884 54.518 114.834 54.2744 114.735C54.0347 114.636 53.8255 114.497 53.6466 114.319C53.4716 114.136 53.3346 113.919 53.2357 113.668C53.1368 113.413 53.0873 113.133 53.0873 112.829C53.0873 112.513 53.1368 112.228 53.2357 111.973C53.3346 111.714 53.4716 111.493 53.6466 111.311C53.8255 111.128 54.0347 110.987 54.2744 110.889C54.518 110.786 54.7843 110.734 55.0735 110.734C55.3626 110.734 55.629 110.786 55.8725 110.889C56.1198 110.987 56.331 111.128 56.506 111.311C56.6848 111.493 56.8237 111.714 56.9226 111.973C57.0216 112.228 57.071 112.513 57.071 112.829ZM55.7127 112.829C55.7127 112.639 55.6956 112.481 55.6613 112.355C55.6309 112.226 55.5871 112.123 55.5301 112.047C55.473 111.971 55.4045 111.918 55.3246 111.887C55.2485 111.857 55.1648 111.842 55.0735 111.842C54.9821 111.842 54.8984 111.857 54.8223 111.887C54.7462 111.918 54.6816 111.971 54.6283 112.047C54.575 112.123 54.5332 112.226 54.5027 112.355C54.4723 112.481 54.4571 112.639 54.4571 112.829C54.4571 113.012 54.4723 113.164 54.5027 113.286C54.5332 113.407 54.575 113.504 54.6283 113.577C54.6816 113.649 54.7462 113.7 54.8223 113.731C54.8984 113.761 54.9821 113.776 55.0735 113.776C55.1648 113.776 55.2485 113.761 55.3246 113.731C55.4045 113.7 55.473 113.649 55.5301 113.577C55.5871 113.504 55.6309 113.407 55.6613 113.286C55.6956 113.164 55.7127 113.012 55.7127 112.829Z" fill="white"/>
<path d="M64.1677 113.388C64.4341 113.388 64.67 113.365 64.8754 113.32C65.0809 113.274 65.2749 113.213 65.4576 113.137V111.876H64.6357C64.514 111.876 64.4188 111.844 64.3504 111.779C64.2819 111.714 64.2476 111.632 64.2476 111.533V110.472H67.204V113.982C66.9909 114.138 66.7684 114.273 66.5363 114.387C66.308 114.497 66.0625 114.589 65.8 114.661C65.5413 114.733 65.2635 114.787 64.9667 114.821C64.6738 114.855 64.358 114.872 64.0193 114.872C63.4105 114.872 62.8474 114.766 62.33 114.553C61.8125 114.336 61.3635 114.039 60.983 113.662C60.6064 113.282 60.3096 112.833 60.0927 112.315C59.8796 111.794 59.7731 111.229 59.7731 110.62C59.7731 110 59.8758 109.431 60.0813 108.914C60.2867 108.393 60.5797 107.944 60.9602 107.567C61.3445 107.19 61.8068 106.897 62.3471 106.688C62.8912 106.479 63.4981 106.374 64.1677 106.374C64.514 106.374 64.8393 106.403 65.1437 106.46C65.4481 106.517 65.7277 106.595 65.9826 106.694C66.2414 106.793 66.4773 106.911 66.6904 107.047C66.9034 107.184 67.0937 107.333 67.2611 107.493L66.7018 108.343C66.6485 108.423 66.5838 108.486 66.5077 108.531C66.4354 108.577 66.3555 108.6 66.268 108.6C66.1539 108.6 66.0359 108.562 65.9142 108.486C65.762 108.394 65.6174 108.316 65.4804 108.252C65.3472 108.183 65.2103 108.128 65.0695 108.086C64.9287 108.044 64.7803 108.014 64.6243 107.995C64.4683 107.976 64.2933 107.966 64.0992 107.966C63.7378 107.966 63.4125 108.031 63.1233 108.16C62.8341 108.286 62.5868 108.465 62.3813 108.697C62.1797 108.929 62.0237 109.209 61.9133 109.536C61.803 109.859 61.7478 110.221 61.7478 110.62C61.7478 111.062 61.8087 111.454 61.9305 111.796C62.0522 112.138 62.2196 112.428 62.4327 112.663C62.6496 112.899 62.9045 113.08 63.1975 113.206C63.4943 113.327 63.8177 113.388 64.1677 113.388Z" fill="white"/>
<path d="M71.8374 113.257C72.0961 113.257 72.3263 113.215 72.528 113.131C72.7334 113.044 72.9065 112.92 73.0473 112.761C73.1881 112.601 73.2946 112.407 73.3669 112.178C73.443 111.946 73.4811 111.684 73.4811 111.391V106.465H75.4102V111.391C75.4102 111.901 75.3264 112.369 75.159 112.795C74.9954 113.221 74.7595 113.588 74.4513 113.896C74.1431 114.204 73.7683 114.444 73.327 114.615C72.8856 114.787 72.3891 114.872 71.8374 114.872C71.2819 114.872 70.7834 114.787 70.3421 114.615C69.9007 114.444 69.5259 114.204 69.2177 113.896C68.9095 113.588 68.6736 113.221 68.51 112.795C68.3464 112.369 68.2646 111.901 68.2646 111.391V106.465H70.1937V111.385C70.1937 111.678 70.2298 111.941 70.3021 112.173C70.3782 112.401 70.4866 112.597 70.6274 112.761C70.7682 112.92 70.9394 113.044 71.1411 113.131C71.3465 113.215 71.5786 113.257 71.8374 113.257Z" fill="white"/>
<path d="M84.1103 114.781H82.615C82.4476 114.781 82.3087 114.743 82.1984 114.667C82.0918 114.587 82.0177 114.486 81.9758 114.364L81.485 112.915H78.3231L77.8323 114.364C77.7942 114.471 77.72 114.568 77.6097 114.655C77.4994 114.739 77.3643 114.781 77.2045 114.781H75.6977L78.9167 106.465H80.8914L84.1103 114.781ZM78.7683 111.602H81.0398L80.275 109.325C80.2256 109.18 80.1666 109.011 80.0981 108.817C80.0334 108.619 79.9687 108.406 79.904 108.178C79.8432 108.41 79.7804 108.625 79.7157 108.822C79.651 109.02 79.5901 109.192 79.5331 109.336L78.7683 111.602Z" fill="white"/>
<path d="M86.7164 111.705V114.781H84.7873V106.465H87.4925C88.0937 106.465 88.6055 106.528 89.0278 106.654C89.454 106.775 89.8002 106.947 90.0665 107.167C90.3367 107.388 90.5326 107.649 90.6544 107.949C90.7762 108.25 90.837 108.577 90.837 108.931C90.837 109.201 90.8009 109.456 90.7286 109.696C90.6563 109.935 90.5479 110.158 90.4033 110.363C90.2625 110.565 90.0875 110.746 89.8782 110.906C89.6727 111.065 89.4349 111.197 89.1648 111.299C89.2942 111.364 89.414 111.444 89.5243 111.539C89.6385 111.634 89.7374 111.75 89.8211 111.887L91.5904 114.781H89.844C89.5205 114.781 89.2884 114.659 89.1477 114.416L87.7665 112.001C87.7056 111.895 87.6333 111.819 87.5496 111.773C87.4697 111.727 87.3556 111.705 87.2072 111.705H86.7164ZM86.7164 110.375H87.4925C87.7551 110.375 87.9777 110.343 88.1603 110.278C88.3467 110.209 88.4989 110.116 88.6169 109.998C88.7348 109.88 88.8204 109.743 88.8737 109.587C88.927 109.427 88.9536 109.256 88.9536 109.074C88.9536 108.708 88.8338 108.423 88.5941 108.217C88.3582 108.012 87.991 107.909 87.4925 107.909H86.7164V110.375Z" fill="white"/>
<path d="M100.118 114.781H98.6223C98.4548 114.781 98.316 114.743 98.2056 114.667C98.0991 114.587 98.0249 114.486 97.983 114.364L97.4922 112.915H94.3304L93.8395 114.364C93.8015 114.471 93.7273 114.568 93.6169 114.655C93.5066 114.739 93.3715 114.781 93.2117 114.781H91.705L94.9239 106.465H96.8987L100.118 114.781ZM94.7755 111.602H97.047L96.2823 109.325C96.2328 109.18 96.1738 109.011 96.1053 108.817C96.0406 108.619 95.976 108.406 95.9113 108.178C95.8504 108.41 95.7876 108.625 95.7229 108.822C95.6583 109.02 95.5974 109.192 95.5403 109.336L94.7755 111.602Z" fill="white"/>
<path d="M101.81 106.465C101.894 106.465 101.965 106.469 102.022 106.477C102.079 106.484 102.13 106.5 102.176 106.522C102.221 106.541 102.265 106.57 102.307 106.608C102.349 106.646 102.396 106.697 102.45 106.762L106.399 111.756C106.384 111.596 106.372 111.442 106.365 111.294C106.357 111.142 106.353 110.999 106.353 110.866V106.465H108.054V114.781H107.05C106.901 114.781 106.776 114.758 106.673 114.712C106.57 114.667 106.471 114.583 106.376 114.461L102.455 109.507C102.467 109.652 102.476 109.795 102.484 109.935C102.491 110.072 102.495 110.202 102.495 110.323V114.781H100.795V106.465H101.81Z" fill="white"/>
<path d="M115.461 106.465V107.995H113.121V114.781H111.192V107.995H108.852V106.465H115.461Z" fill="white"/>
<path d="M121.609 106.465V107.949H118.196V109.89H120.81V111.317H118.196V113.297H121.609V114.781H116.256V106.465H121.609Z" fill="white"/>
<path d="M128.063 106.465V107.949H124.65V109.89H127.264V111.317H124.65V113.297H128.063V114.781H122.71V106.465H128.063Z" fill="white"/>
</svg>
