<svg width="58" height="22" viewBox="0 0 58 22" fill="none" xmlns="http://www.w3.org/2000/svg">
<path d="M46.8067 11.7117C45.9211 11.7117 45.1983 10.9889 45.1983 10.1033C45.1983 9.20874 45.9211 8.49488 46.8067 8.49488C47.6922 8.49488 48.4151 9.21777 48.4151 10.1033C48.4242 10.9889 47.7013 11.7117 46.8067 11.7117ZM46.8067 6.95874C45.0717 6.95874 43.6621 8.36838 43.6621 10.1033C43.6621 11.8382 45.0717 13.2479 46.8067 13.2479C48.5416 13.2479 49.9513 11.8382 49.9513 10.1033C49.9513 8.35934 48.5416 6.95874 46.8067 6.95874Z" fill="#999C9F"/>
<path d="M32.3672 11.7117C31.4817 11.7117 30.7588 10.9889 30.7588 10.1033C30.7588 9.20874 31.4817 8.49488 32.3672 8.49488C33.2528 8.49488 33.9757 9.21777 33.9757 10.1033C33.9757 10.9889 33.2528 11.7117 32.3672 11.7117ZM32.3672 6.95874C30.6323 6.95874 29.2227 8.36838 29.2227 10.1033C29.2227 11.8382 30.6323 13.2479 32.3672 13.2479C34.1022 13.2479 35.5118 11.8382 35.5118 10.1033C35.5028 8.35934 34.1022 6.95874 32.3672 6.95874Z" fill="#999C9F"/>
<path d="M43.4634 11.8004C43.2646 11.8546 42.9573 11.9179 42.8489 11.9179C42.3067 11.9179 42.1983 11.7281 42.1983 11.2221V8.31247H43.4814V7.10163H42.1983V5.38477H40.7525L40.4453 7.10163H39.4423H39.361C38.5387 7.10163 37.9152 7.60765 37.5176 8.3938L37.0206 7.10163H35.9814V13.1287H37.7525V10.5082C37.7525 9.18897 38.5387 8.33958 39.4604 8.31247H40.4272V11.3125C40.4272 12.7221 41.1501 13.2462 42.3248 13.2462C42.9302 13.2462 43.4001 13.1197 43.6802 13.0293L43.4634 11.8004Z" fill="#999C9F"/>
<path d="M52.1019 9.00037V13.1299H50.376V7.09375H51.4242L51.7766 8.01544" fill="#999C9F"/>
<path d="M51.7676 8.025C52.2917 7.41958 53.0055 6.95874 53.8459 6.95874C55.2826 6.95874 55.87 8.10633 55.87 9.16355V13.1304H54.0989V9.21777C54.0989 8.70271 53.6652 8.42259 53.2043 8.42259C52.7073 8.42259 52.3911 8.71175 52.1109 9.00994" fill="#999C9F"/>
<path d="M22.3457 4.91602H24.3246L27.0355 10.0756V4.91602H28.671V13.1299H26.8818L23.9812 7.44613V13.1299H22.3457V4.91602Z" fill="#999C9F"/>
<path d="M55.8701 7.10059V7.21805H56.0328V7.78733H56.1683V7.21805H56.34V7.10059H55.8701Z" fill="black"/>
<path d="M56.8554 7.10059L56.7379 7.55239L56.6114 7.10059H56.4307V7.78733H56.5481V7.24516L56.6927 7.78733H56.7831L56.9277 7.24516V7.78733H57.0361V7.10059H56.8554Z" fill="black"/>
<path d="M24.4877 17.9748C24.4877 17.4507 24.3251 16.8362 23.7287 16.8362C23.4486 16.8362 23.1956 16.9627 22.9697 17.1977V18.9236C23.1775 19.1495 23.3673 19.267 23.6564 19.267C24.1895 19.2579 24.4877 18.7971 24.4877 17.9748ZM22.8522 19.2579L22.7257 19.6465H22.4004V15.1375H22.9697V16.782C23.1594 16.5742 23.4667 16.3573 23.8552 16.3573C24.7136 16.3573 25.0932 17.2067 25.0932 17.9748C25.0932 19.0049 24.56 19.7007 23.7648 19.7007C23.3492 19.7007 23.0691 19.529 22.8522 19.2579Z" fill="#727477"/>
<path d="M25.4541 16.4197H26.0324C26.0324 16.4197 26.8457 19.1396 26.8457 19.1486L27.6047 16.4197H28.1649L27.0806 19.8896C26.8908 20.4859 26.5746 20.8203 25.9511 20.8203C25.8246 20.8203 25.689 20.8022 25.5625 20.7661L25.6348 20.3594C25.7161 20.3685 25.7975 20.3956 25.9059 20.3956C26.2402 20.3956 26.4933 20.242 26.6198 19.8444L25.4541 16.4197Z" fill="#727477"/>
<path d="M29.8555 19.1754L30.1356 18.7778C30.4157 18.9856 30.8133 19.2116 31.4097 19.2116C31.997 19.2116 32.3404 18.9314 32.3404 18.4435C32.3404 17.9013 31.9247 17.7296 31.3284 17.5218C30.6868 17.2959 30.0994 17.0067 30.0994 16.1844C30.0994 15.4525 30.6778 15.0549 31.4368 15.0549C31.979 15.0549 32.2952 15.1453 32.6476 15.3441L32.4127 15.7778C32.1326 15.6242 31.8344 15.5338 31.4278 15.5338C30.9488 15.5338 30.6235 15.7236 30.6235 16.1754C30.6235 16.6543 30.9398 16.8079 31.5994 17.0429C32.232 17.2597 32.9006 17.5399 32.9006 18.4254C32.9006 19.2115 32.3404 19.6814 31.4187 19.6814C30.6687 19.6995 30.1537 19.4284 29.8555 19.1754Z" fill="#727477"/>
<path d="M33.2246 16.4197H33.8029C33.8029 16.4197 34.6162 19.1396 34.6162 19.1486L35.3752 16.4197H35.9354L34.8511 19.8896C34.6614 20.4859 34.3451 20.8203 33.7216 20.8203C33.5951 20.8203 33.4595 20.8022 33.333 20.7661L33.4053 20.3594C33.4867 20.3685 33.568 20.3956 33.6764 20.3956C34.0108 20.3956 34.2638 20.242 34.3903 19.8444L33.2246 16.4197Z" fill="#727477"/>
<path d="M39.9391 16.3564C40.5897 16.3564 40.7614 16.9076 40.7614 17.4408V19.6456H40.1921V17.4408C40.1921 17.1245 40.1379 16.8354 39.7493 16.8354C39.4873 16.8354 39.2072 16.998 38.927 17.2781V19.6456H38.3578V17.4408C38.3578 17.1245 38.3036 16.8354 37.915 16.8354C37.6439 16.8354 37.3548 17.0251 37.0927 17.2872V19.6456H36.5234V16.4197H36.8578L37.0024 16.9438C37.3005 16.6185 37.662 16.3564 38.0957 16.3564C38.5295 16.3564 38.7102 16.5914 38.8367 16.9167C39.1349 16.5823 39.5234 16.3564 39.9391 16.3564Z" fill="#727477"/>
<path d="M43.3917 17.9829C42.7502 18.1004 42.3345 18.236 42.1719 18.4348C42.0905 18.5342 42.0725 18.6245 42.0725 18.7601C42.0725 19.0763 42.2261 19.257 42.5694 19.257C42.8947 19.257 43.1839 19.0944 43.3917 18.9408V17.9829ZM43.3917 17.4679C43.3917 17.0342 43.2562 16.8173 42.7863 16.8173C42.461 16.8173 42.1719 16.9438 41.8646 17.0974L41.6568 16.7179C41.9911 16.5101 42.3526 16.3564 42.8225 16.3564C43.6267 16.3564 43.9429 16.7902 43.9429 17.5131V19.6546H43.6176L43.4731 19.2661C43.2472 19.492 42.8947 19.6998 42.4791 19.6998C41.9098 19.6998 41.4941 19.3474 41.4941 18.8052C41.4941 18.4528 41.6297 18.1998 41.9279 18.0191C42.217 17.8384 42.7321 17.7119 43.3917 17.6125V17.4679Z" fill="#727477"/>
<path d="M44.8916 16.4197H45.2259L45.3705 16.9528C45.6687 16.6185 46.0482 16.3564 46.5271 16.3564C47.2229 16.3564 47.4036 16.9076 47.4036 17.4408V19.6456H46.8344V17.4408C46.8344 17.1245 46.753 16.8354 46.3374 16.8354C46.0392 16.8354 45.7229 17.0251 45.4609 17.2962V19.6456H44.8916V16.4197Z" fill="#727477"/>
<path d="M48.0088 16.8163V16.4188H48.5058L48.6504 15.4971H49.057V16.4188H49.7799V16.8163H49.057V18.8043C49.057 19.1025 49.1112 19.2651 49.4184 19.2651C49.5449 19.2651 49.6443 19.238 49.7889 19.2019L49.8702 19.5904C49.7437 19.6447 49.5449 19.6898 49.3461 19.6898C48.7588 19.6898 48.4967 19.4097 48.4967 18.8314V16.8073H48.0088V16.8163Z" fill="#727477"/>
<path d="M52.3095 17.8113C52.2914 17.1336 52.0655 16.7811 51.6137 16.7811C51.2071 16.7811 50.936 17.0974 50.8908 17.8113H52.3095ZM51.695 19.248C52.0655 19.248 52.3005 19.1034 52.5715 18.9317L52.8065 19.2751C52.4902 19.5281 52.2011 19.6998 51.6408 19.6998C50.8095 19.6998 50.2764 19.0582 50.2764 18.0372C50.2764 17.0432 50.7914 16.3564 51.5956 16.3564C52.427 16.3564 52.8697 16.9799 52.8697 18.0552V18.1908H50.8637C50.9089 18.8775 51.1529 19.248 51.695 19.248Z" fill="#727477"/>
<path d="M53.3945 18.0552C53.3945 17.2239 53.765 16.3564 54.759 16.3564C55.1746 16.3564 55.4819 16.4558 55.771 16.6998L55.5271 17.0793C55.3192 16.9257 55.0753 16.8173 54.768 16.8173C54.0903 16.8173 53.9909 17.5131 53.9909 18.0643C53.9909 18.5974 54.1084 19.248 54.7861 19.248C55.1114 19.248 55.3373 19.1215 55.5542 18.9408L55.8253 19.2751C55.5903 19.5101 55.265 19.7088 54.759 19.7088C53.774 19.6998 53.3945 18.8595 53.3945 18.0552Z" fill="#727477"/>
<path d="M10.1022 5.89134C8.3853 5.89134 6.76784 6.56002 5.54796 7.77989C4.32808 8.99977 3.65941 10.6172 3.65941 12.3341C3.65941 14.051 4.32808 15.6684 5.54796 16.8883C6.76784 18.1082 8.3853 18.7769 10.1022 18.7769C11.819 18.7769 13.4365 18.1082 14.6564 16.8883C15.8672 15.6684 16.5359 14.051 16.5449 12.3341C16.5449 10.6172 15.8763 8.99977 14.6564 7.77989C13.4365 6.56905 11.819 5.89134 10.1022 5.89134ZM10.1022 21.7497C4.91543 21.7497 0.686523 17.5208 0.686523 12.3341C0.686523 7.13833 4.91543 2.91846 10.1022 2.91846C15.2889 2.91846 19.5178 7.13833 19.5178 12.3341C19.5178 17.5208 15.2889 21.7497 10.1022 21.7497Z" fill="#999C9F"/>
<path d="M21.0913 1.46387H20.3594V2.19579H21.0913V1.46387Z" fill="#727477"/>
<path d="M21.0913 0H20.3594V0.731927H21.0913V0Z" fill="#727477"/>
<path d="M18.9846 2.19531H18.2979V2.90917H18.9846V2.19531Z" fill="#727477"/>
<path d="M17.6284 3.60425H16.9326V4.29099H17.6284V3.60425Z" fill="#727477"/>
<path d="M19.7446 2.90991H18.9766V3.59666H19.7446V2.90991Z" fill="#727477"/>
<path d="M16.9338 2.94629H16.2471V3.60593H16.9338V2.94629Z" fill="#727477"/>
<path d="M18.9846 3.60425H18.2979V4.29099H18.9846V3.60425Z" fill="#727477"/>
<path d="M20.3586 0.739014H19.6357V1.47094H20.3586V0.739014Z" fill="#727477"/>
<path d="M19.6352 1.46387H18.2979V2.19579H19.6352V1.46387Z" fill="#727477"/>
<path d="M18.2976 2.19531H17.6289V3.60495H18.2976V2.19531Z" fill="#727477"/>
<path d="M17.629 4.29224V4.97898H16.9332V4.29224H15.7856V4.78922H15.1712V5.40368H15.8579V6.09043H15.1712V5.40368H14.4392V6.47898H13.7525V7.16572H13.2916V7.85247H12.7856C12.2163 8.69283 10.8067 11.3133 10.373 12.3796C8.8278 10.229 7.626 9.37958 6.68624 9.07235C6.18022 8.91873 5.56576 9.46994 6.40612 10.3464C8.34889 12.488 8.96334 14.25 9.55069 15.6687C9.86696 16.4097 11.2676 16.5272 11.5477 15.7681C12.1441 14.1687 13.0115 12.3615 14.0416 10.8886V10.1205H14.5929V9.43379H15.1712V8.62958H15.8579V7.86151H15.1621V7.15669H15.8579V7.86151H16.5356V7.16572H17.0778V6.32537H17.6922V5.74705H18.2796V4.29224H17.629Z" fill="#727477"/>
</svg>
