<svg width="66" height="16" viewBox="0 0 66 16" fill="none" xmlns="http://www.w3.org/2000/svg">
<path fill-rule="evenodd" clip-rule="evenodd" d="M62.9991 3.92539L61.5265 13.2936C61.498 13.4751 61.6383 13.6391 61.8219 13.6391H63.303C63.5483 13.6391 63.7571 13.4606 63.7954 13.2184L65.2473 4.01843C65.276 3.83686 65.1357 3.67271 64.9519 3.67271H63.2945C63.1473 3.67271 63.022 3.77994 62.9991 3.92539Z" fill="#009CDE"/>
<path fill-rule="evenodd" clip-rule="evenodd" d="M58.581 10.3355C58.4151 11.3172 57.6359 11.9763 56.6419 11.9763C56.1435 11.9763 55.7447 11.816 55.4882 11.5125C55.234 11.2116 55.1384 10.783 55.219 10.3057C55.3737 9.33283 56.1654 8.6525 57.1444 8.6525C57.6322 8.6525 58.0284 8.8144 58.2898 9.12062C58.553 9.4291 58.6563 9.86061 58.581 10.3355ZM60.9748 6.99163H59.2568C59.1096 6.99163 58.9843 7.09854 58.9614 7.24415L58.8858 7.72453L58.7658 7.55037C58.3937 7.01034 57.5645 6.8299 56.7365 6.8299C54.8385 6.8299 53.217 8.26827 52.9014 10.2857C52.7372 11.2921 52.9704 12.2538 53.5409 12.9251C54.0653 13.5419 54.8134 13.7986 55.7048 13.7986C57.2347 13.7986 58.0832 12.8158 58.0832 12.8158L58.0067 13.2932C57.9778 13.4748 58.1181 13.6391 58.3021 13.6391H59.8491C60.0944 13.6391 60.3032 13.4608 60.3416 13.2184L61.2703 7.3372C61.299 7.15563 61.1587 6.99163 60.9748 6.99163Z" fill="#009CDE"/>
<path fill-rule="evenodd" clip-rule="evenodd" d="M50.6641 7.03276C50.468 8.32069 49.4844 8.32069 48.533 8.32069H47.9916L48.3714 5.91608C48.3943 5.77079 48.5196 5.66372 48.6668 5.66372H48.915C49.5624 5.66372 50.1742 5.66372 50.4896 6.03266C50.6783 6.25342 50.7354 6.5806 50.6641 7.03276ZM50.2501 3.67271H46.662C46.4168 3.67271 46.208 3.85121 46.1697 4.09358L44.7189 13.2936C44.6902 13.475 44.8305 13.6391 45.0144 13.6391H46.8552C47.027 13.6391 47.1732 13.5142 47.1998 13.3445L47.6113 10.7364C47.6496 10.494 47.8584 10.3155 48.1037 10.3155H49.239C51.6024 10.3155 52.9662 9.17177 53.3228 6.90503C53.4832 5.91364 53.3292 5.13463 52.865 4.58927C52.3548 3.98973 51.4505 3.67271 50.2501 3.67271Z" fill="#009CDE"/>
<path fill-rule="evenodd" clip-rule="evenodd" d="M44.5352 6.99161H42.8083C42.6432 6.99161 42.4887 7.07352 42.396 7.21011L40.014 10.7185L39.0044 7.34717C38.9413 7.13625 38.7472 6.99161 38.5269 6.99161H36.8294C36.6245 6.99161 36.4801 7.19317 36.5462 7.38716L38.4477 12.9685L36.6593 15.4921C36.5188 15.6901 36.6606 15.9641 36.9033 15.9641H38.6285C38.792 15.9641 38.945 15.8839 39.0382 15.7494L44.7811 7.46118C44.9185 7.26284 44.7766 6.99161 44.5352 6.99161Z" fill="#003087"/>
<path fill-rule="evenodd" clip-rule="evenodd" d="M32.9904 10.3355C32.8245 11.3172 32.0452 11.9763 31.0512 11.9763C30.5529 11.9763 30.154 11.816 29.8976 11.5125C29.6435 11.2116 29.5478 10.783 29.6283 10.3057C29.7831 9.33283 30.5749 8.6525 31.5537 8.6525C32.0416 8.6525 32.4377 8.8144 32.6992 9.12062C32.9624 9.4291 33.0657 9.86061 32.9904 10.3355ZM35.3842 6.99163H33.6663C33.519 6.99163 33.3937 7.09854 33.3708 7.24415L33.2952 7.72453L33.1751 7.55037C32.8031 7.01034 31.9739 6.8299 31.1459 6.8299C29.2477 6.8299 27.6263 8.26827 27.3108 10.2857C27.1464 11.2921 27.3796 12.2538 27.9503 12.9251C28.4745 13.5419 29.2227 13.7986 30.1142 13.7986C31.6441 13.7986 32.4926 12.8158 32.4926 12.8158L32.4159 13.2932C32.3872 13.4748 32.5275 13.6391 32.7113 13.6391H34.2585C34.5038 13.6391 34.7126 13.4608 34.7508 13.2184L35.6797 7.3372C35.7084 7.15563 35.5681 6.99163 35.3842 6.99163Z" fill="#003087"/>
<path fill-rule="evenodd" clip-rule="evenodd" d="M25.0751 7.03276C24.879 8.32069 23.8953 8.32069 22.9441 8.32069H22.4028L22.7824 5.91608C22.8054 5.77079 22.9307 5.66372 23.0778 5.66372H23.3259C23.9735 5.66372 24.5853 5.66372 24.9006 6.03266C25.0894 6.25342 25.1465 6.5806 25.0751 7.03276ZM24.6607 3.67271H21.0727C20.8274 3.67271 20.6186 3.85121 20.5804 4.09358L19.1294 13.2936C19.1009 13.475 19.2412 13.6391 19.4248 13.6391H21.138C21.3833 13.6391 21.5923 13.4606 21.6305 13.2184L22.022 10.7364C22.06 10.494 22.269 10.3155 22.5143 10.3155H23.6497C26.0128 10.3155 27.3769 9.17177 27.7334 6.90503C27.8939 5.91364 27.7399 5.13463 27.2756 4.58927C26.7653 3.98973 25.8609 3.67271 24.6607 3.67271Z" fill="#003087"/>
<mask id="mask0" mask-type="alpha" maskUnits="userSpaceOnUse" x="0" y="0" width="66" height="16">
<path fill-rule="evenodd" clip-rule="evenodd" d="M65.2514 15.964V0.132355H0.00927734V15.964H65.2514Z" fill="white"/>
</mask>
<g mask="url(#mask0)">
<path fill-rule="evenodd" clip-rule="evenodd" d="M12.0911 4.1545C12.2843 2.92301 12.0898 2.08497 11.4237 1.32595C10.6903 0.490337 9.36546 0.132355 7.67036 0.132355H2.74972C2.40334 0.132355 2.10841 0.384394 2.05439 0.726573L0.00550596 13.7192C-0.0349686 13.9756 0.163212 14.2074 0.422668 14.2074H3.46036L3.25073 15.5369C3.21542 15.7612 3.3886 15.964 3.61565 15.964H6.17603C6.47918 15.964 6.73719 15.7435 6.78444 15.4442L6.80959 15.314L7.2919 12.2554L7.32302 12.0864C7.37027 11.7869 7.62827 11.5665 7.93127 11.5665H8.31425C10.7948 11.5665 12.7371 10.5587 13.3046 7.64418C13.5418 6.4264 13.4192 5.40985 12.7921 4.69518C12.6023 4.4791 12.3664 4.30027 12.0911 4.1545Z" fill="#009CDE"/>
<path fill-rule="evenodd" clip-rule="evenodd" d="M12.0911 4.1545C12.2843 2.92301 12.0898 2.08497 11.4237 1.32595C10.6903 0.490337 9.36546 0.132355 7.67036 0.132355H2.74972C2.40334 0.132355 2.10841 0.384394 2.05439 0.726573L0.00550596 13.7192C-0.0349686 13.9756 0.163212 14.2074 0.422668 14.2074H3.46036L4.22341 9.36878L4.19971 9.52052C4.25373 9.17834 4.54624 8.92615 4.89261 8.92615H6.33647C9.17195 8.92615 11.3921 7.77415 12.0408 4.44266C12.06 4.34413 12.0764 4.24851 12.0911 4.1545Z" fill="#012169"/>
<path fill-rule="evenodd" clip-rule="evenodd" d="M5.04306 4.17095C5.07563 3.96502 5.2077 3.79651 5.38556 3.71121C5.46651 3.67251 5.55681 3.6509 5.65147 3.6509H9.50849C9.96548 3.6509 10.3915 3.6809 10.7809 3.74362C10.8924 3.76152 11.0006 3.78216 11.1059 3.80554C11.211 3.82877 11.3132 3.85489 11.4121 3.88391C11.4616 3.89827 11.5101 3.91342 11.558 3.92939C11.7493 3.99276 11.9273 4.06774 12.0911 4.1545C12.2843 2.92301 12.0898 2.08497 11.4237 1.32595C10.6903 0.490337 9.36546 0.132355 7.67036 0.132355H2.74972C2.40334 0.132355 2.10841 0.384394 2.05439 0.726573L0.00550596 13.7192C-0.0349686 13.9756 0.163212 14.2074 0.422668 14.2074H3.46036L5.04306 4.17095Z" fill="#003087"/>
</g>
</svg>
