<svg width="40" height="40" viewBox="0 0 40 40" fill="none" xmlns="http://www.w3.org/2000/svg">
<path d="M8.58439 17.6068C8.42221 17.5006 8.18071 17.4468 7.86343 17.4468L7.59218 17.4482C7.41442 17.4468 7.23241 17.5898 7.19771 17.7626L6.94771 18.8391C6.90876 19.0133 7.01995 19.1557 7.19983 19.1557H7.40238C7.8521 19.1557 8.20054 19.0643 8.45054 18.8802C8.70054 18.6975 8.82873 18.4376 8.82306 18.1012C8.82448 17.8788 8.74445 17.7124 8.58439 17.6068Z" fill="#7A809A"/>
<path d="M13.0106 20.0879C12.9618 20.0893 12.5871 20.1318 12.3973 20.1552C12.1849 20.1856 12.0007 20.2281 11.8513 20.2784L11.5 20.5178C11.4179 20.6212 11.3789 20.7529 11.3789 20.9222L11.539 21.2324C11.6473 21.2933 11.8074 21.323 12.0113 21.323C12.1459 21.323 12.2918 21.2904 12.4448 21.2281L12.7705 21.0603L12.8994 20.8889C12.9504 20.6892 13.056 20.2451 13.068 20.1899L13.0106 20.0879Z" fill="#7A809A"/>
<path d="M38.9703 7.03906H1.02974C0.46034 7.03906 0 7.50011 0 8.06881V31.9314C0 32.5001 0.46034 32.9619 1.02974 32.9619H38.9703C39.5397 32.9619 40 32.5008 40 31.9321V8.06881C40 7.50011 39.5397 7.03906 38.9703 7.03906ZM9.54957 19.6141C8.98584 20.0291 8.20113 20.2359 7.18697 20.2374H6.95043C6.76841 20.2374 6.59065 20.3804 6.55312 20.5518L6.26841 21.7827C6.22804 21.9583 6.05028 22.0986 5.8704 22.0986H5.04178C4.8619 22.0986 4.74929 21.9541 4.79178 21.7827L5.9568 16.7097C5.99929 16.5355 6.17564 16.396 6.35552 16.3932L8.0864 16.3925C8.46034 16.396 8.78399 16.4187 9.06445 16.4697C9.34065 16.5221 9.58144 16.6099 9.78541 16.7345C9.98088 16.8578 10.1388 17.0228 10.238 17.2225C10.3484 17.4222 10.3973 17.6722 10.3973 17.9697C10.3973 18.6495 10.1176 19.1991 9.54957 19.6141ZM14.6926 18.9668L14.6615 19.18L14.0567 21.7947C14.0212 21.952 13.8654 22.0858 13.7004 22.1049L13.6891 22.1092H13.5694H12.9334H12.9186L12.9157 22.1063C12.7578 22.0915 12.6601 21.9576 12.6941 21.7961V21.7947L12.6955 21.7898L12.7266 21.6566L12.7224 21.6517L12.4101 21.8578L12.0701 22.0476L11.6693 22.185C11.546 22.2147 11.3725 22.2324 11.1487 22.2324C10.7953 22.2324 10.4993 22.1354 10.2755 21.935C10.0531 21.7303 9.93839 21.4689 9.93839 21.1488C9.93839 20.8089 10.017 20.5214 10.1749 20.282C10.3385 20.044 10.5722 19.8585 10.8881 19.7197C11.182 19.5858 11.5354 19.4867 11.9391 19.4307C12.3513 19.3712 12.6912 19.328 13.1622 19.2983L13.2812 19.2246L13.296 19.1078C13.296 18.9279 13.2125 18.8039 13.046 18.731C12.8775 18.6602 12.6239 18.6248 12.2925 18.6248C12.0673 18.6219 11.784 18.668 11.5156 18.7289C11.2344 18.7926 11.1572 18.8344 11.0198 18.8755C10.9561 18.8974 10.8024 18.908 10.8598 18.6418L10.961 18.2246C10.961 18.2246 11.0106 17.9095 11.3258 17.8408C11.478 17.8068 11.5021 17.8004 11.7507 17.7621C12.0871 17.7105 12.42 17.6842 12.7535 17.6842C13.4285 17.6842 13.9228 17.7721 14.2351 17.9484C14.5489 18.124 14.7089 18.3988 14.7075 18.7678L14.6926 18.9668ZM16.0248 24.1184L15.1664 24.1198C14.988 24.1198 14.9292 23.9782 15.0382 23.8039L15.7727 22.5235C15.7727 22.5235 15.8314 22.4505 15.779 22.0327C15.6657 21.2777 15.102 18.0681 15.102 18.0681C15.0609 17.8946 15.1714 17.7522 15.3499 17.7522L16.0928 17.7508C16.3201 17.7508 16.5028 17.9003 16.5439 18.0759L16.9136 20.3018L17.051 20.3032C17.1664 20.0986 18.3534 18.0617 18.3534 18.0617C18.4667 17.8903 18.6962 17.7452 18.8746 17.7452C18.8746 17.7452 19.6728 17.7473 19.869 17.7452C20.1636 17.7409 19.8463 18.2182 19.8463 18.2182L16.5432 23.8039C16.437 23.9782 16.2018 24.1184 16.0248 24.1184ZM24.6062 19.6361C24.0404 20.049 23.2521 20.2579 22.238 20.2579H22.0014C21.8229 20.2551 21.6445 20.4003 21.6034 20.5716L21.3229 21.8046C21.2819 21.9767 21.1006 22.1184 20.9249 22.1163L20.0942 22.1184C19.9178 22.1191 19.8017 21.976 19.8442 21.8039L21.0099 16.7282C21.0524 16.5561 21.2266 16.4158 21.4065 16.413L23.1395 16.4116C23.5113 16.413 23.8385 16.4392 24.1133 16.4881C24.3931 16.5391 24.6339 16.6269 24.835 16.7522C25.0326 16.879 25.1877 17.0412 25.2911 17.2423C25.3973 17.4406 25.449 17.6913 25.4504 17.9888C25.4504 18.668 25.1664 19.2161 24.6062 19.6361ZM29.7465 18.9704L29.716 19.185L29.1098 21.7976C29.0758 21.9555 28.9193 22.0893 28.7564 22.1092L28.745 22.1134H28.6261C28.4547 22.1134 28.0935 22.1134 27.9894 22.1134H27.9745L27.9731 22.1092C27.8123 22.0943 27.7132 21.9612 27.7521 21.799L27.7507 21.7969L27.7542 21.794L27.7819 21.6609L27.7769 21.6545L27.4667 21.8634L27.1246 22.0525L26.7245 22.1878C26.6013 22.2197 26.4271 22.2331 26.2054 22.2367C25.8513 22.2367 25.5581 22.1361 25.3329 21.9371C25.1091 21.7345 24.9936 21.4718 24.9936 21.1503C24.9936 20.8124 25.0722 20.5235 25.2309 20.2855C25.3931 20.0476 25.6303 19.8627 25.9433 19.7225C26.2394 19.5879 26.5949 19.4902 26.9965 19.4335C27.4058 19.374 27.7458 19.3308 28.2203 19.3018L28.3392 19.2267L28.352 19.1099C28.352 18.9314 28.2698 18.8061 28.1013 18.7338C27.9327 18.6623 27.6792 18.6269 27.3491 18.6269C27.1225 18.6255 26.8385 18.6708 26.5708 18.731C26.2911 18.7961 26.2153 18.8365 26.0786 18.8776C26.0092 18.8981 25.8598 18.9102 25.9164 18.6439L26.0177 18.2274C26.0177 18.2274 26.0652 17.9116 26.3817 17.8436C26.5354 17.8103 26.5602 17.8025 26.8081 17.7664C27.1424 17.7126 27.4773 17.6864 27.8109 17.6864C28.483 17.6864 28.9766 17.7756 29.2918 17.952C29.6076 18.1276 29.7656 18.401 29.7656 18.7699L29.7465 18.9704ZM32.4023 16.7699L31.2918 21.799L31.2528 21.8585C31.187 22.0001 31.0467 22.1148 30.8945 22.1148H30.1239L30.1098 22.0971C29.9632 22.0745 29.8676 21.9562 29.9023 21.8018L29.9009 21.7983L29.9341 21.6531L30.9724 16.935L31.0092 16.7706L31.051 16.7062C31.1183 16.5674 31.2557 16.4548 31.4079 16.4548H32.1494C32.33 16.4548 32.4384 16.5957 32.4001 16.7685L32.4023 16.7699ZM33.8739 16.226H33.5963V16.595L33.5984 16.6942L33.6176 16.7607L33.6615 16.8032L33.7465 16.8167L33.8159 16.8068L33.8676 16.7912H33.8739V16.9123L33.7911 16.9286L33.7125 16.935L33.5241 16.8677L33.4596 16.6552V16.226H33.3661V16.1113H33.4596V15.8811H33.5963V16.1113H33.8739V16.226ZM35.216 16.3953V16.9172H35.0822V16.4569L35.0737 16.3585L35.056 16.2806L35.0092 16.2345L34.9193 16.2182L34.8067 16.2473L34.6912 16.3202L34.6933 16.3599L34.6948 16.4024V16.9187H34.5602V16.4583L34.5545 16.3585L34.5354 16.2813L34.4901 16.2352L34.3987 16.2189L34.2875 16.2466L34.1749 16.3167V16.9187H34.0418V16.112H34.1749V16.202L34.3038 16.1198L34.437 16.0901L34.5772 16.1233L34.6636 16.2197L34.8123 16.1198L34.9575 16.0901L35.1537 16.1701L35.2174 16.3953H35.216Z" fill="#7A809A"/>
<path d="M28.0654 20.092C28.0166 20.0913 27.6433 20.1353 27.4564 20.1593C27.2418 20.1898 27.0583 20.2316 26.9103 20.2826C26.7588 20.342 26.6355 20.4221 26.5555 20.5219C26.4762 20.6253 26.4365 20.7571 26.4365 20.927L26.5987 21.2365C26.7021 21.2981 26.86 21.3279 27.0704 21.3279C27.2028 21.3279 27.3487 21.2953 27.501 21.2337L27.8246 21.0658L27.9578 20.8945C28.0073 20.6926 28.115 20.25 28.1235 20.1947L28.0654 20.092Z" fill="#7A809A"/>
<path d="M23.6345 17.6261C23.4709 17.5192 23.2329 17.4667 22.9149 17.4653L22.6451 17.4667C22.4666 17.4653 22.2853 17.6098 22.2485 17.7819L21.9978 18.8577C21.9574 19.0305 22.0729 19.175 22.2521 19.1735H22.4581C22.9064 19.1735 23.2542 19.0815 23.5049 18.9016C23.7528 18.7167 23.8788 18.459 23.8774 18.1197C23.8732 17.8988 23.796 17.7323 23.6345 17.6261Z" fill="#7A809A"/>
</svg>
