<svg width="80" height="80" viewBox="0 0 80 80" fill="none" xmlns="http://www.w3.org/2000/svg">
<circle cx="40" cy="40" r="40" fill="white"/>
<path d="M23.6074 43.9825C23.6426 44.0353 25.4666 42.3478 25.5336 42.2782C26.7919 40.9735 27.8233 39.49 29.4317 38.5932C31.2947 37.5544 33.4264 37.3132 35.4969 37.6253C37.2543 37.8902 38.8943 39.0306 40.5134 39.7588C41.3909 40.1534 42.2647 40.6799 43.1866 40.9482C44.1971 41.2423 44.9595 41.258 46.0016 41.2855C47.9622 41.3372 49.9216 41.1238 51.8776 41.2726C52.3362 41.3074 52.8179 41.3532 53.1985 41.6198C53.9267 42.1301 53.9766 43.2969 53.5038 44.0638C53.0311 44.8306 52.4944 45.2658 51.662 45.5602C49.4293 46.3499 47.015 46.3792 44.6586 46.2488C42.3021 46.1183 39.6372 45.6794 37.285 45.8765C37.1035 45.8916 37.1593 46.1983 37.2659 46.3513C38.9307 46.5297 40.5955 46.708 42.2603 46.8864C45.0607 47.1864 47.9162 47.4839 50.6697 46.877C51.7402 46.641 52.8048 46.2574 53.6606 45.5519C54.5164 44.8465 55.1408 43.7796 55.1357 42.6483C55.1349 42.4586 55.1193 42.257 55.209 42.0915C55.2839 41.9534 55.4198 41.8644 55.5509 41.7827C56.4449 41.2253 57.3944 40.7959 58.3073 40.2791C60.2131 39.2006 62.9238 37.9033 64.9777 37.1621C65.3837 37.0156 65.8278 36.8771 66.2355 37.0186C66.9215 37.2567 67.1535 38.2059 66.9003 38.9064C66.6472 39.6069 66.0637 40.1131 65.513 40.598C62.5511 43.2066 58.9679 45.9272 55.45 47.6695C51.8267 49.464 47.9198 50.6461 43.9362 51.1785C41.5453 51.4979 39.1248 51.5831 36.7189 51.4246C35.4517 51.3411 34.3684 51.3614 33.2111 51.9487C32.147 52.4886 31.1774 53.2027 30.2666 53.9827C30.2661 53.9827 23.6582 44.0588 23.6074 43.9825Z" fill="#2D73F6"/>
<path d="M21.3438 42.2441L14 47.4507L24.2875 62.9513L31.6312 57.7447L21.3438 42.2441ZM26.1601 60.267C25.253 60.267 24.5177 59.507 24.5177 58.5695C24.5177 57.632 25.253 56.872 26.1601 56.872C27.0672 56.872 27.8025 57.632 27.8025 58.5695C27.8025 59.507 27.0672 60.267 26.1601 60.267Z" fill="#2D73F6"/>
<path d="M56.6285 38.964C57.1384 38.7427 57.5818 38.432 57.9592 38.0331C58.336 37.6342 58.6354 37.1688 58.8574 36.6369C59.0788 36.1049 59.1901 35.5289 59.1901 34.9082C59.1901 34.3098 59.0788 33.7447 58.8574 33.2127C58.6354 32.6808 58.336 32.2154 57.9592 31.8165C57.5818 31.4176 57.1384 31.1018 56.6285 30.8691C56.1181 30.6363 55.5639 30.52 54.9653 30.52C54.3883 30.52 53.8451 30.6312 53.3352 30.8525C52.8247 31.0743 52.3757 31.3844 51.9879 31.7834C51.5997 32.1823 51.2946 32.6477 51.0732 33.1796C50.8512 33.7115 50.7405 34.2881 50.7405 34.9083C50.7405 35.5291 50.8512 36.1051 51.0732 36.637C51.2946 37.169 51.5997 37.6343 51.9879 38.0333C52.3757 38.4322 52.8247 38.7428 53.3352 38.9641C53.8451 39.186 54.3883 39.2966 54.9653 39.2966C55.5639 39.2965 56.1181 39.1858 56.6285 38.964ZM53.7283 36.2364C53.3612 35.8841 53.1779 35.4398 53.1779 34.9036C53.1779 34.3681 53.3612 33.9306 53.7283 33.592C54.0949 33.2535 54.5043 33.0843 54.9561 33.0843C55.4641 33.0843 55.9013 33.2535 56.2686 33.592C56.635 33.9304 56.819 34.3681 56.819 34.9036C56.819 35.4398 56.6352 35.8841 56.2686 36.2364C55.9014 36.5894 55.4641 36.7654 54.9561 36.7654C54.5043 36.7654 54.0947 36.5894 53.7283 36.2364Z" fill="#2D73F6"/>
<path d="M46.2997 27.5773C46.8096 27.356 47.253 27.0453 47.6303 26.6464C48.0071 26.2475 48.3065 25.7821 48.5285 25.2502C48.7499 24.7182 48.8612 24.1422 48.8612 23.5214C48.8612 22.9231 48.7499 22.358 48.5285 21.826C48.3065 21.2941 48.0071 20.8287 47.6303 20.4298C47.253 20.0309 46.8096 19.7151 46.2997 19.4824C45.7892 19.2496 45.2351 19.1333 44.6364 19.1333C44.0595 19.1333 43.5163 19.2445 43.0064 19.4658C42.4959 19.6876 42.0468 19.9977 41.6591 20.3966C41.2708 20.7956 40.9658 21.2609 40.7443 21.7929C40.5223 22.3248 40.4116 22.9014 40.4116 23.5216C40.4116 24.1424 40.5223 24.7184 40.7443 25.2503C40.9658 25.7822 41.2708 26.2476 41.6591 26.6465C42.0468 27.0455 42.4959 27.3561 43.0064 27.5774C43.5163 27.7992 44.0595 27.9099 44.6364 27.9099C45.2351 27.9097 45.7892 27.7991 46.2997 27.5773ZM43.3994 24.8497C43.0323 24.4974 42.849 24.0531 42.849 23.5169C42.849 22.9814 43.0323 22.5438 43.3994 22.2053C43.766 21.8668 44.1754 21.6975 44.6274 21.6975C45.1354 21.6975 45.5726 21.8668 45.9399 22.2053C46.3063 22.5437 46.4903 22.9814 46.4903 23.5169C46.4903 24.0531 46.3065 24.4974 45.9399 24.8497C45.5727 25.2027 45.1354 25.3786 44.6274 25.3786C44.1754 25.3786 43.7659 25.2027 43.3994 24.8497Z" fill="#2D73F6"/>
<path d="M55.8469 22.0252C56.0684 21.6709 56.2128 21.3495 56.2794 21.0611C56.3461 20.7733 56.3792 20.5515 56.3792 20.3962C56.3792 19.9309 56.218 19.5817 55.897 19.3491C55.575 19.1163 55.1926 19 54.7492 19C54.3276 19 53.9783 19.1387 53.7013 19.4156C53.4237 19.693 53.13 20.0754 52.8197 20.5625L43.9043 36.0875C43.6158 36.5976 43.4328 36.98 43.3554 37.2344C43.2774 37.4894 43.239 37.7165 43.239 37.9159C43.239 38.3813 43.394 38.7637 43.7047 39.0628C44.015 39.362 44.3918 39.5116 44.8358 39.5116C45.5229 39.5116 46.155 38.9912 46.7319 37.9491L49.9254 32.3973L50.9235 30.6022L55.8469 22.0252Z" fill="#2D73F6"/>
</svg>
