<svg width="80" height="80" viewBox="0 0 80 80" fill="none" xmlns="http://www.w3.org/2000/svg">
<circle cx="40" cy="40" r="40" fill="white"/>
<path d="M23.6074 43.9825C23.6426 44.0353 25.4666 42.3478 25.5336 42.2782C26.7919 40.9735 27.8233 39.49 29.4317 38.5932C31.2947 37.5544 33.4264 37.3132 35.4969 37.6253C37.2543 37.8902 38.8943 39.0306 40.5134 39.7588C41.3909 40.1534 42.2647 40.6799 43.1866 40.9482C44.1971 41.2423 44.9595 41.258 46.0016 41.2855C47.9622 41.3372 49.9216 41.1238 51.8776 41.2726C52.3362 41.3074 52.8179 41.3532 53.1985 41.6198C53.9267 42.1301 53.9766 43.2969 53.5038 44.0638C53.0311 44.8306 52.4944 45.2658 51.662 45.5602C49.4293 46.3499 47.015 46.3792 44.6586 46.2488C42.3021 46.1183 39.6372 45.6794 37.285 45.8765C37.1035 45.8916 37.1593 46.1983 37.2659 46.3513C38.9307 46.5297 40.5955 46.708 42.2603 46.8864C45.0607 47.1864 47.9162 47.4839 50.6697 46.877C51.7402 46.641 52.8048 46.2574 53.6606 45.5519C54.5164 44.8465 55.1408 43.7796 55.1357 42.6483C55.1349 42.4586 55.1193 42.257 55.209 42.0915C55.2839 41.9534 55.4198 41.8644 55.5509 41.7827C56.4449 41.2253 57.3944 40.7959 58.3073 40.2791C60.2131 39.2006 62.9238 37.9033 64.9777 37.1621C65.3837 37.0156 65.8278 36.8771 66.2355 37.0186C66.9215 37.2567 67.1535 38.2059 66.9003 38.9064C66.6472 39.6069 66.0637 40.1131 65.513 40.598C62.5511 43.2066 58.9679 45.9272 55.45 47.6695C51.8267 49.464 47.9198 50.6461 43.9362 51.1785C41.5453 51.4979 39.1248 51.5831 36.7189 51.4246C35.4517 51.3411 34.3684 51.3614 33.2111 51.9487C32.147 52.4886 31.1774 53.2027 30.2666 53.9827C30.2661 53.9827 23.6582 44.0588 23.6074 43.9825Z" fill="#31C062"/>
<path d="M21.3438 42.2441L14 47.4507L24.2875 62.9513L31.6312 57.7447L21.3438 42.2441ZM26.1601 60.267C25.253 60.267 24.5177 59.507 24.5177 58.5695C24.5177 57.632 25.253 56.872 26.1601 56.872C27.0672 56.872 27.8025 57.632 27.8025 58.5695C27.8025 59.507 27.0672 60.267 26.1601 60.267Z" fill="#31C062"/>
<path d="M56.6293 38.9637C57.1392 38.7425 57.5826 38.4318 57.9599 38.0329C58.3367 37.6339 58.6361 37.1686 58.8581 36.6366C59.0795 36.1047 59.1908 35.5287 59.1908 34.9079C59.1908 34.3095 59.0795 33.7444 58.8581 33.2125C58.6361 32.6806 58.3367 32.2152 57.9599 31.8163C57.5826 31.4174 57.1392 31.1016 56.6293 30.8688C56.1188 30.6361 55.5647 30.5198 54.966 30.5198C54.3891 30.5198 53.8458 30.631 53.3359 30.8523C52.8255 31.0741 52.3764 31.3842 51.9887 31.7831C51.6004 32.182 51.2953 32.6474 51.0739 33.1794C50.8519 33.7113 50.7412 34.2879 50.7412 34.9081C50.7412 35.5288 50.8519 36.1048 51.0739 36.6368C51.2953 37.1687 51.6004 37.6341 51.9887 38.033C52.3764 38.4319 52.8255 38.7426 53.3359 38.9639C53.8458 39.1857 54.3891 39.2964 54.966 39.2964C55.5647 39.2962 56.1188 39.1856 56.6293 38.9637ZM53.729 36.2362C53.3619 35.8838 53.1786 35.4396 53.1786 34.9034C53.1786 34.3679 53.3619 33.9303 53.729 33.5917C54.0956 33.2533 54.505 33.084 54.9568 33.084C55.4649 33.084 55.902 33.2533 56.2693 33.5917C56.6358 33.9302 56.8198 34.3679 56.8198 34.9034C56.8198 35.4396 56.6359 35.8838 56.2693 36.2362C55.9022 36.5892 55.4649 36.7651 54.9568 36.7651C54.505 36.7651 54.0955 36.5892 53.729 36.2362Z" fill="#31C062"/>
<path d="M46.3002 27.577C46.8101 27.3557 47.2535 27.0451 47.6308 26.6461C48.0076 26.2472 48.307 25.7819 48.529 25.2499C48.7504 24.718 48.8617 24.142 48.8617 23.5212C48.8617 22.9228 48.7504 22.3577 48.529 21.8258C48.307 21.2938 48.0076 20.8285 47.6308 20.4296C47.2535 20.0306 46.8101 19.7149 46.3002 19.4821C45.7897 19.2494 45.2356 19.1331 44.6369 19.1331C44.06 19.1331 43.5167 19.2443 43.0068 19.4655C42.4964 19.6874 42.0473 19.9975 41.6596 20.3964C41.2713 20.7953 40.9662 21.2607 40.7448 21.7926C40.5228 22.3246 40.4121 22.9011 40.4121 23.5213C40.4121 24.1421 40.5228 24.7181 40.7448 25.2501C40.9662 25.782 41.2713 26.2474 41.6596 26.6463C42.0473 27.0452 42.4964 27.3559 43.0068 27.5772C43.5167 27.799 44.06 27.9096 44.6369 27.9096C45.2356 27.9095 45.7897 27.7989 46.3002 27.577ZM43.3999 24.8494C43.0328 24.4971 42.8495 24.0529 42.8495 23.5167C42.8495 22.9812 43.0328 22.5436 43.3999 22.205C43.7665 21.8666 44.1759 21.6973 44.6278 21.6973C45.1359 21.6973 45.5731 21.8666 45.9404 22.205C46.3068 22.5434 46.4908 22.9812 46.4908 23.5167C46.4908 24.0529 46.307 24.4971 45.9404 24.8494C45.5732 25.2025 45.1359 25.3784 44.6278 25.3784C44.1759 25.3784 43.7664 25.2025 43.3999 24.8494Z" fill="#31C062"/>
<path d="M55.8472 22.0252C56.0686 21.6709 56.213 21.3495 56.2797 21.0611C56.3463 20.7733 56.3795 20.5515 56.3795 20.3962C56.3795 19.9309 56.2183 19.5817 55.8972 19.3491C55.5753 19.1163 55.1928 19 54.7494 19C54.3278 19 53.9785 19.1387 53.7015 19.4156C53.424 19.693 53.1302 20.0754 52.8199 20.5625L43.9045 36.0875C43.616 36.5976 43.433 36.98 43.3556 37.2344C43.2777 37.4894 43.2393 37.7165 43.2393 37.9159C43.2393 38.3813 43.3942 38.7637 43.7049 39.0628C44.0152 39.362 44.392 39.5116 44.836 39.5116C45.5231 39.5116 46.1552 38.9912 46.7322 37.9491L49.9257 32.3973L50.9238 30.6022L55.8472 22.0252Z" fill="#31C062"/>
</svg>
