<svg width="28" height="28" viewBox="0 0 28 28" fill="none" xmlns="http://www.w3.org/2000/svg">
<path d="M14 25.6666C7.55654 25.6666 2.33337 20.4434 2.33337 13.9999C2.33337 7.55642 7.55654 2.33325 14 2.33325C20.4435 2.33325 25.6667 7.55642 25.6667 13.9999C25.6667 20.4434 20.4435 25.6666 14 25.6666ZM12.3924 9.81742C12.3222 9.77057 12.2406 9.74365 12.1562 9.73951C12.0719 9.73537 11.9881 9.75418 11.9136 9.79392C11.8392 9.83367 11.7769 9.89287 11.7334 9.96521C11.6899 10.0376 11.6669 10.1203 11.6667 10.2048V17.7951C11.6669 17.8795 11.6899 17.9623 11.7334 18.0346C11.7769 18.107 11.8392 18.1662 11.9136 18.2059C11.9881 18.2457 12.0719 18.2645 12.1562 18.2603C12.2406 18.2562 12.3222 18.2293 12.3924 18.1824L18.0845 14.3884C18.1486 14.3458 18.201 14.2881 18.2374 14.2203C18.2737 14.1525 18.2927 14.0768 18.2927 13.9999C18.2927 13.923 18.2737 13.8473 18.2374 13.7796C18.201 13.7118 18.1486 13.654 18.0845 13.6114L12.3912 9.81742H12.3924Z" fill="white"/>
</svg>
