<svg width="44" height="44" viewBox="0 0 44 44" fill="none" xmlns="http://www.w3.org/2000/svg">
<g clip-path="url(#clip0)">
<path d="M10.6909 20.8105L12.7225 25.1844C13.0875 25.9699 14.0207 26.311 14.8063 25.9457C15.5921 25.5807 15.9332 24.6475 15.5679 23.862L12.8228 17.9518L12.8149 17.9344L11.6037 15.3233C11.2391 14.5374 10.3062 14.196 9.52031 14.5606C8.73409 14.9253 8.39265 15.8582 8.75762 16.644L10.6909 20.8105Z" fill="#31C062"/>
<path d="M7.23193 19.2416C6.69709 19.2426 6.19943 19.5162 5.91189 19.9671C5.62435 20.4184 5.58649 20.9849 5.81161 21.47L9.77172 30.0086C9.9467 30.3858 10.2646 30.6785 10.6552 30.8217C11.046 30.9647 11.4775 30.9469 11.8548 30.7716C12.2324 30.5966 12.5247 30.2787 12.668 29.8882C12.8112 29.4976 12.7931 29.0658 12.6182 28.6885L11.2988 25.8452L9.07657 21.0545L8.65873 20.1523C8.40154 19.5963 7.84453 19.2406 7.23193 19.2416Z" fill="#31C062"/>
<path d="M27.3502 2.17857C27.5757 1.64408 27.488 1.02909 27.122 0.579181C26.7564 0.129277 26.1724 -0.0822015 25.6031 0.0293364C25.0342 0.140874 24.573 0.55701 24.4042 1.11163L21.8613 7.70021L23.547 12.0768L27.3502 2.17857Z" fill="#31C062"/>
<path d="M11.948 43.9999H24.4976C24.9308 43.9999 25.2818 43.6489 25.2818 43.2157V40.6101C25.2818 38.9339 25.3769 37.1691 26.5094 35.6403C26.8757 35.1686 27.2819 34.7289 27.7237 34.3268C30.1042 32.0568 31.4406 29.15 32.8547 26.0699C34.2195 23.101 35.6299 20.0301 38.0612 17.5988C38.4337 17.2253 38.5585 16.8804 38.4316 16.5728C38.1475 16.0799 37.6157 15.7831 37.0471 15.8002C35.9805 15.8002 33.0901 18.4427 31.4249 20.9415C30.9596 21.6438 30.4258 22.2981 29.8309 22.8946C29.8169 22.9178 29.8013 22.9403 29.7849 22.9622C29.7409 23.0062 29.6907 23.0406 29.6461 23.0846C29.4035 23.3159 29.1856 23.5018 28.9823 23.6641C28.605 23.9745 28.207 24.2594 27.7908 24.5159C27.0404 24.9388 26.2382 25.2622 25.4042 25.4784C24.574 25.6858 23.8515 26.1971 23.3798 26.9114C23.0974 27.3391 22.9408 27.8374 22.9289 28.3498C22.9289 28.7829 22.5776 29.1343 22.1444 29.1343C21.7112 29.1343 21.3602 28.7829 21.3602 28.3498C21.3718 27.5414 21.6123 26.7528 22.0536 26.0753C22.7273 25.0405 23.7615 24.2924 24.9557 23.9773C25.4888 23.8313 26.0107 23.6457 26.5165 23.4226L22.8252 14.5593L20.2895 7.98265C20.2816 7.9615 20.2738 7.93967 20.2677 7.91819L18.1239 2.34231C17.9857 1.9463 17.6938 1.6226 17.3141 1.44421C16.9345 1.26547 16.4989 1.2474 16.1056 1.39338C15.2938 1.69491 14.8763 2.59438 15.17 3.40925L21.2988 19.4042C21.3994 19.6662 21.3523 19.9616 21.1757 20.1792C20.9993 20.3968 20.72 20.5039 20.4433 20.4599C20.1664 20.4159 19.9341 20.2276 19.8338 19.966L18.1866 15.6655L17.5331 17.3556C17.1794 18.2646 16.3031 18.8626 15.3276 18.8608C15.2048 18.8602 15.0823 18.8499 14.9613 18.8301L16.9891 23.2023C17.44 24.1737 17.3646 25.3082 16.7885 26.2114C16.2124 27.1143 15.2154 27.6611 14.144 27.6611C14.0485 27.6611 13.9533 27.6447 13.8578 27.6362L14.0396 28.0284C14.6877 29.4048 14.2525 31.0478 13.0078 31.9227C11.7631 32.7976 10.0696 32.651 8.99414 31.5752C9.23802 32.2324 9.43654 32.6527 9.442 32.6646C9.45496 32.6919 9.46656 32.7199 9.47645 32.7485C9.65382 33.222 9.86803 33.6807 10.1174 34.1204C10.5782 34.9431 10.923 35.8252 11.1424 36.7424C11.1563 36.8014 11.1635 36.8621 11.1635 36.9228V43.2157C11.1635 43.6489 11.5148 43.9999 11.948 43.9999ZM22.1352 40.825H22.9193C23.3525 40.825 23.7038 41.1763 23.7038 41.6095C23.7038 42.0427 23.3525 42.3937 22.9193 42.3937H22.1352C21.702 42.3937 21.3506 42.0427 21.3506 41.6095C21.3506 41.1763 21.702 40.825 22.1352 40.825ZM13.5072 40.825H18.9978C19.431 40.825 19.7819 41.1763 19.7819 41.6095C19.7819 42.0427 19.431 42.3937 18.9978 42.3937H13.5072C13.074 42.3937 12.723 42.0427 12.723 41.6095C12.723 41.1763 13.074 40.825 13.5072 40.825Z" fill="#31C062"/>
</g>
<defs>
<clipPath id="clip0">
<rect width="44" height="44" fill="white"/>
</clipPath>
</defs>
</svg>
