<svg width="44" height="44" viewBox="0 0 44 44" fill="none" xmlns="http://www.w3.org/2000/svg">
<g clip-path="url(#clip0)">
<path d="M10.6912 20.8105L12.7227 25.1844C13.0877 25.9699 14.021 26.311 14.8065 25.9457C15.5924 25.5807 15.9335 24.6475 15.5682 23.862L12.823 17.9518L12.8152 17.9344L11.604 15.3233C11.2393 14.5374 10.3064 14.196 9.52055 14.5606C8.73433 14.9253 8.39289 15.8582 8.75787 16.644L10.6912 20.8105Z" fill="#2D73F6"/>
<path d="M7.23242 19.2417C6.69758 19.2427 6.19992 19.5163 5.91238 19.9672C5.62484 20.4185 5.58698 20.985 5.8121 21.4701L9.77221 30.0087C9.94719 30.3859 10.2651 30.6786 10.6556 30.8219C11.0465 30.9648 11.478 30.947 11.8553 30.7717C12.2329 30.5967 12.5252 30.2788 12.6684 29.8883C12.8117 29.4977 12.7936 29.0659 12.6186 28.6887L11.2993 25.8453L9.07706 21.0546L8.65922 20.1524C8.40203 19.5964 7.84502 19.2407 7.23242 19.2417Z" fill="#2D73F6"/>
<path d="M27.35 2.17857C27.5754 1.64408 27.4878 1.02909 27.1218 0.579181C26.7561 0.129277 26.1722 -0.0822015 25.6029 0.0293364C25.0339 0.140874 24.5728 0.55701 24.4039 1.11163L21.8611 7.70021L23.5468 12.0768L27.35 2.17857Z" fill="#2D73F6"/>
<path d="M11.948 43.9996H24.4976C24.9308 43.9996 25.2818 43.6486 25.2818 43.2154V40.6098C25.2818 38.9337 25.3769 37.1689 26.5094 35.6401C26.8757 35.1683 27.2819 34.7287 27.7237 34.3265C30.1042 32.0565 31.4406 29.1497 32.8547 26.0696C34.2195 23.1007 35.6299 20.0299 38.0612 17.5986C38.4337 17.2251 38.5585 16.8802 38.4316 16.5725C38.1475 16.0797 37.6157 15.7829 37.0471 15.8C35.9805 15.8 33.0901 18.4424 31.4249 20.9413C30.9596 21.6436 30.4258 22.2978 29.8309 22.8944C29.8169 22.9176 29.8013 22.9401 29.7849 22.9619C29.7409 23.0059 29.6907 23.0404 29.6461 23.0844C29.4035 23.3156 29.1856 23.5015 28.9823 23.6639C28.605 23.9743 28.207 24.2591 27.7908 24.5156C27.0404 24.9386 26.2382 25.2619 25.4042 25.4782C24.574 25.6856 23.8515 26.1969 23.3798 26.9111C23.0974 27.3389 22.9408 27.8372 22.9289 28.3495C22.9289 28.7827 22.5776 29.134 22.1444 29.134C21.7112 29.134 21.3602 28.7827 21.3602 28.3495C21.3718 27.5411 21.6123 26.7525 22.0536 26.0751C22.7273 25.0402 23.7615 24.2922 24.9557 23.977C25.4888 23.831 26.0107 23.6455 26.5165 23.4224L22.8252 14.5591L20.2895 7.98241C20.2816 7.96126 20.2738 7.93943 20.2677 7.91794L18.1239 2.34206C17.9857 1.94605 17.6938 1.62236 17.3141 1.44396C16.9345 1.26523 16.4989 1.24715 16.1056 1.39314C15.2938 1.69467 14.8763 2.59413 15.17 3.40901L21.2988 19.404C21.3994 19.6659 21.3523 19.9613 21.1757 20.1789C20.9993 20.3966 20.72 20.5037 20.4433 20.4597C20.1664 20.4157 19.9341 20.2274 19.8338 19.9657L18.1866 15.6652L17.5331 17.3554C17.1794 18.2644 16.3031 18.8623 15.3276 18.8606C15.2048 18.8599 15.0823 18.8497 14.9613 18.8299L16.9891 23.2021C17.44 24.1735 17.3646 25.308 16.7885 26.2112C16.2124 27.1141 15.2154 27.6608 14.144 27.6608C14.0485 27.6608 13.9533 27.6445 13.8578 27.6359L14.0396 28.0282C14.6877 29.4045 14.2525 31.0476 13.0078 31.9225C11.7631 32.7974 10.0696 32.6507 8.99414 31.5749C9.23802 32.2322 9.43654 32.6524 9.442 32.6644C9.45496 32.6917 9.46656 32.7196 9.47645 32.7483C9.65382 33.2217 9.86803 33.6805 10.1174 34.1202C10.5782 34.9429 10.923 35.8249 11.1424 36.7422C11.1563 36.8012 11.1635 36.8619 11.1635 36.9226V43.2154C11.1635 43.6486 11.5148 43.9996 11.948 43.9996ZM22.1352 40.8247H22.9193C23.3525 40.8247 23.7038 41.176 23.7038 41.6092C23.7038 42.0424 23.3525 42.3934 22.9193 42.3934H22.1352C21.702 42.3934 21.3506 42.0424 21.3506 41.6092C21.3506 41.176 21.702 40.8247 22.1352 40.8247ZM13.5072 40.8247H18.9978C19.431 40.8247 19.7819 41.176 19.7819 41.6092C19.7819 42.0424 19.431 42.3934 18.9978 42.3934H13.5072C13.074 42.3934 12.723 42.0424 12.723 41.6092C12.723 41.176 13.074 40.8247 13.5072 40.8247Z" fill="#2D73F6"/>
</g>
<defs>
<clipPath id="clip0">
<rect width="44" height="44" fill="white"/>
</clipPath>
</defs>
</svg>
