<svg width="39" height="29" viewBox="0 0 39 29" fill="none" xmlns="http://www.w3.org/2000/svg">
<path d="M0.238099 20.372C-0.0606849 18.8417 -0.0163659 17.2563 0.0436773 16.1977C0.185206 13.6705 0.869977 11.174 2.07655 8.77486C2.60264 7.72927 3.24452 6.70799 3.92643 5.7856C6.2781 2.60506 9.77058 0.601422 13.3688 0.011351L13.446 2.25965e-06L13.8263 1.27741L13.7377 1.31145C11.8578 2.04255 10.3338 2.85957 9.21018 3.73981C8.09082 4.61843 7.09439 5.79533 6.25237 7.23646C5.56331 8.39876 5.00863 9.56918 4.59977 10.7201C5.84351 9.92257 7.25165 9.50109 8.69124 9.50109C13.2731 9.50109 17 13.7272 17 18.9244C17 24.1199 13.2716 28.3477 8.69124 28.3477C7.90211 28.3477 7.01577 28.1953 6.19661 27.9181C4.86996 27.469 3.56618 26.5272 2.52687 25.2628C1.95646 24.5706 1.4318 23.7033 1.01008 22.7533C0.652679 21.9574 0.386775 21.1339 0.238099 20.372Z" fill="#1A1E27"/>
<path d="M22.2381 20.372C21.9393 18.8417 21.9836 17.2563 22.0437 16.1977C22.1852 13.6705 22.8699 11.174 24.0764 8.77486C24.6024 7.72927 25.2442 6.70799 25.9261 5.7856C28.2776 2.60506 31.7698 0.601422 35.3677 0.011351L35.4449 2.25976e-06L35.8252 1.27741L35.7365 1.31145C33.8553 2.04255 32.333 2.85957 31.2094 3.73981C30.0887 4.61843 29.0938 5.79533 28.2518 7.23646C27.5628 8.39876 27.0082 9.56918 26.5994 10.7201C27.843 9.92257 29.251 9.50109 30.6905 9.50109C35.272 9.50109 39 13.7272 39 18.9244C39 24.1199 35.272 28.3477 30.6905 28.3477C29.9014 28.3477 29.0152 28.1953 28.1961 27.9181C26.8696 27.469 25.5673 26.5272 24.5267 25.2628C23.9563 24.5706 23.4317 23.7033 23.01 22.7533C22.6526 21.9574 22.3867 21.1339 22.2381 20.372Z" fill="#1A1E27"/>
</svg>
