<svg width="36" height="36" viewBox="0 0 36 36" fill="none" xmlns="http://www.w3.org/2000/svg">
<path d="M28.0757 7.92281C26.5939 6.44105 24.6237 5.625 22.5281 5.625C20.4325 5.625 18.4624 6.44105 16.9807 7.92288C13.9218 10.9818 13.9218 15.959 16.9807 19.0178C18.4624 20.4996 20.4326 21.3157 22.5281 21.3157C24.6238 21.3157 26.5939 20.4996 28.0756 19.0178C31.1346 15.959 31.1346 10.9818 28.0757 7.92281ZM26.2893 15.9665L24.7977 17.458L22.4149 15.0751L20.0321 17.458L18.5406 15.9665L20.9234 13.5836L18.5406 11.2007L20.0321 9.70917L22.4149 12.0921L24.7977 9.70917L26.2893 11.2007L23.9065 13.5836L26.2893 15.9665Z" fill="#2D73F6"/>
<path d="M4.72928 25.7056L1.15431 29.2805C0.410895 30.0239 0.00146484 31.0123 0.00146484 32.0637C0.00146484 33.1151 0.410895 34.1035 1.15431 34.8469C1.89779 35.5902 2.88625 35.9996 3.93756 35.9996C4.98894 35.9996 5.97739 35.5902 6.72074 34.8468L10.2956 31.2719L4.72928 25.7056Z" fill="#2D73F6"/>
<path d="M32.0533 3.94537C29.5091 1.40119 26.1263 0 22.5282 0C18.9302 0 15.5475 1.40119 13.0033 3.94537C10.459 6.48956 9.05792 9.87223 9.05792 13.4703C9.05792 16.7145 10.1975 19.7833 12.2865 22.2206L10.8666 23.6405L8.83067 21.6046L6.22095 24.2143L11.7873 29.7806L14.397 27.1709L12.3581 25.132L13.7781 23.712C16.2153 25.801 19.2842 26.9406 22.5283 26.9406C26.1264 26.9406 29.5091 25.5394 32.0533 22.9952C34.5976 20.451 35.9987 17.0684 35.9987 13.4703C35.9987 9.87216 34.5975 6.48956 32.0533 3.94537ZM29.5674 20.5094C27.6873 22.3896 25.1874 23.425 22.5283 23.425C19.8693 23.425 17.3695 22.3895 15.4893 20.5094C11.608 16.6281 11.608 10.3126 15.4893 6.43134C17.3694 4.55112 19.8692 3.51562 22.5282 3.51562C25.1873 3.51562 27.6871 4.55112 29.5673 6.43127C33.4487 10.3126 33.4487 16.6281 29.5674 20.5094Z" fill="#2D73F6"/>
</svg>
