<svg width="68" height="22" viewBox="0 0 68 22" fill="none" xmlns="http://www.w3.org/2000/svg">
<path d="M15.0315 7.28297C15.3034 7.28009 15.5732 7.33134 15.8251 7.43374C16.077 7.53613 16.306 7.68762 16.4988 7.87939C16.6979 8.06266 16.8561 8.28582 16.9632 8.53432C17.0702 8.78282 17.1237 9.05109 17.1202 9.32166V19.7119C17.1237 19.9824 17.0702 20.2507 16.9632 20.4992C16.8561 20.7477 16.6979 20.9709 16.4988 21.1542C16.3059 21.3458 16.0769 21.4971 15.825 21.5993C15.5731 21.7016 15.3033 21.7527 15.0315 21.7497H2.60258C2.33073 21.7527 2.06101 21.7016 1.8091 21.5993C1.5572 21.4971 1.32814 21.3458 1.13528 21.1542C0.936215 20.9709 0.777993 20.7477 0.670919 20.4992C0.563846 20.2507 0.510322 19.9824 0.513834 19.7119V9.32079C0.510443 9.05037 0.564026 8.78227 0.671096 8.53393C0.778166 8.28558 0.936324 8.06257 1.13528 7.87939C1.32807 7.68762 1.55709 7.53613 1.809 7.43374C2.06091 7.33134 2.33067 7.28009 2.60258 7.28297H3.62192V5.19509C3.61496 4.27943 3.8553 3.37888 4.3176 2.58847C4.77028 1.80259 5.42191 1.14976 6.20696 0.695649C7.00132 0.239839 7.90119 0 8.81704 0C9.73288 0 10.6327 0.239839 11.4271 0.695649C12.2122 1.14976 12.8638 1.80259 13.3165 2.58847C13.7791 3.38001 14.0194 4.28175 14.0121 5.19854V7.28297H15.0315ZM12.0235 7.28297V5.19509C12.0255 4.63566 11.8764 4.08608 11.592 3.60436C11.3088 3.11401 10.9016 2.70679 10.4112 2.42361C9.92946 2.13886 9.3801 1.98864 8.82049 1.98864C8.26087 1.98864 7.71151 2.13886 7.22976 2.42361C6.73814 2.70631 6.32969 3.11357 6.04556 3.60436C5.76113 4.08608 5.61203 4.63566 5.614 5.19509V7.28297H12.0235ZM8.81704 16.6047C9.2307 16.6088 9.63615 16.4891 9.98114 16.2608C10.3261 16.0325 10.5949 15.7061 10.7527 15.3237C10.9106 14.9413 10.9503 14.5204 10.8669 14.1153C10.7834 13.7101 10.5805 13.3392 10.2843 13.0503C10.094 12.8535 9.86599 12.697 9.61392 12.5901C9.36184 12.4832 9.09084 12.4281 8.81704 12.4281C8.54323 12.4281 8.27223 12.4832 8.02015 12.5901C7.76808 12.697 7.54008 12.8535 7.34973 13.0503C7.06164 13.3423 6.86591 13.7126 6.78699 14.1151C6.70807 14.5176 6.74945 14.9344 6.90596 15.3136C7.06247 15.6927 7.32718 16.0173 7.66705 16.2469C8.00692 16.4765 8.40689 16.601 8.81704 16.6047Z" fill="#999C9F"/>
<path d="M10.5436 21.4038C13.356 21.4038 15.636 19.1238 15.636 16.3114C15.636 13.4989 13.356 11.219 10.5436 11.219C7.73112 11.219 5.45117 13.4989 5.45117 16.3114C5.45117 19.1238 7.73112 21.4038 10.5436 21.4038Z" fill="#999C9F"/>
<path d="M7.09071 16.3701L12.5715 10.8755L13.3052 11.6083L7.09071 17.8227L4.20703 14.9408L4.92774 14.2071L7.09071 16.3701Z" fill="#727477"/>
<path d="M20.7022 12.9371C20.7022 12.9371 21.7095 13.8563 22.8272 13.8563C23.2752 13.8563 23.7594 13.6837 23.7594 13.1486C23.7594 12.0921 19.758 12.1292 19.758 9.39488C19.758 7.75496 21.139 6.67261 22.9023 6.67261C24.8159 6.67261 25.761 7.67987 25.761 7.67987L24.8409 9.45703C24.8409 9.45703 23.9458 8.67418 22.8773 8.67418C22.4302 8.67418 21.933 8.8727 21.933 9.36985C21.933 10.4919 25.9344 10.2899 25.9344 13.0985C25.9344 14.5779 24.8038 15.8605 22.8031 15.8605C20.7152 15.8605 19.5586 14.5926 19.5586 14.5926L20.7022 12.9371Z" fill="#999C9F"/>
<path d="M27.4258 6.82031H32.9938V8.68465H29.6008V10.3004H32.311V12.1716H29.6008V13.8461H33.1681V15.7104H27.4258V6.82031Z" fill="#999C9F"/>
<path d="M38.7863 6.67285C40.9864 6.67285 42.1171 7.92869 42.1171 7.92869L41.1107 9.56862C41.1107 9.56862 40.1164 8.66061 38.8856 8.66061C37.1826 8.66061 36.3747 9.91645 36.3747 11.1965C36.3747 12.5136 37.2448 13.8721 38.8856 13.8721C40.2277 13.8721 41.2471 12.7786 41.2471 12.7786L42.3691 14.3693C42.3691 14.3693 41.1141 15.8608 38.7898 15.8608C36.0053 15.8608 34.1289 13.8842 34.1289 11.2491C34.1255 8.66148 36.1141 6.67285 38.7863 6.67285Z" fill="#999C9F"/>
<path d="M43.5576 6.82031H45.7327V12.4384C45.7327 13.3705 46.342 13.8677 47.2742 13.8677C48.2064 13.8677 48.8149 13.3705 48.8149 12.4384V6.82031H50.9899V12.4384C50.9899 14.4391 49.5226 15.8563 47.2863 15.8563C45.0241 15.8563 43.5576 14.4391 43.5576 12.4384V6.82031Z" fill="#999C9F"/>
<path d="M52.9551 6.82031H56.0494C56.9565 6.82031 57.3915 6.88246 57.7756 7.03178C58.782 7.41673 59.4155 8.32645 59.4155 9.62113C59.4155 10.5654 58.9684 11.5977 58.0863 12.0448V12.0698C58.209 12.2407 58.3209 12.4191 58.4212 12.6041L60.1474 15.7113H57.7273L56.1486 12.7163H55.1293V15.7104H52.9551V6.82031ZM56.0744 10.8476C56.7701 10.8476 57.2051 10.4618 57.2051 9.75405C57.2051 9.08255 56.9565 8.68465 55.8629 8.68465H55.1293V10.8511L56.0744 10.8476Z" fill="#999C9F"/>
<path d="M61.4307 6.82031H66.9995V8.68465H63.6057V10.3004H66.3159V12.1716H63.6057V13.8461H67.173V15.7104H61.4307V6.82031Z" fill="#999C9F"/>
<path d="M20.7506 20.17C20.7506 20.17 21.2046 20.5852 21.7096 20.5852C21.9115 20.5852 22.1308 20.5066 22.1308 20.2649C22.1308 19.7885 20.3243 19.8049 20.3243 18.5706C20.3243 17.8301 20.9466 17.3416 21.7432 17.3416C22.6063 17.3416 23.0379 17.7964 23.0379 17.7964L22.6227 18.5991C22.6227 18.5991 22.2188 18.2452 21.7363 18.2452C21.5343 18.2452 21.3099 18.3315 21.3099 18.5594C21.3099 19.0643 23.1164 18.9746 23.1164 20.2425C23.1164 20.9105 22.6063 21.488 21.7027 21.488C21.1573 21.4978 20.63 21.2922 20.2354 20.9157L20.7506 20.17Z" fill="#727477"/>
<path d="M24.006 20.171C24.006 20.171 24.4609 20.5861 24.9658 20.5861C25.1678 20.5861 25.387 20.5076 25.387 20.2659C25.387 19.7895 23.5797 19.8059 23.5797 18.5716C23.5797 17.8311 24.2028 17.3425 24.9995 17.3425C25.8626 17.3425 26.2899 17.7974 26.2899 17.7974L25.8747 18.6001C25.8747 18.6001 25.4708 18.2462 24.9883 18.2462C24.7863 18.2462 24.5619 18.3325 24.5619 18.5604C24.5619 19.0653 26.3684 18.9755 26.3684 20.2435C26.3684 20.9115 25.8583 21.489 24.9546 21.489C24.4092 21.4988 23.882 21.2932 23.4873 20.9167L24.006 20.171Z" fill="#727477"/>
<path d="M27.0391 17.4104H28.0204V20.5798H29.6604V21.4213H27.0391V17.4104Z" fill="#727477"/>
<path d="M31.4824 17.4104H33.9958V18.2519H32.4655V18.9813H33.6886V19.8228H32.4655V20.5798H34.0761V21.4213H31.4867L31.4824 17.4104Z" fill="#727477"/>
<path d="M34.7812 17.4104H35.7738L36.8847 19.2842C37.009 19.5062 37.1214 19.7347 37.2213 19.9687H37.2325C37.2325 19.9687 37.1876 19.5371 37.1876 19.2842V17.4104H38.1699V21.4213H37.1824L36.0656 19.5535C35.9414 19.3315 35.829 19.103 35.729 18.8691H35.7177C35.7177 18.8691 35.7626 19.3006 35.7626 19.5535V21.4213H34.7812V17.4104Z" fill="#727477"/>
<path d="M40.9412 17.3425C41.9338 17.3425 42.4447 17.9096 42.4447 17.9096L41.9899 18.6502C41.9899 18.6502 41.5411 18.241 40.9861 18.241C40.217 18.241 39.8528 18.8072 39.8528 19.3855C39.8528 19.9802 40.2455 20.5939 40.9861 20.5939C41.5903 20.5939 42.052 20.1002 42.052 20.1002L42.557 20.8183C42.3479 21.035 42.0967 21.2065 41.8188 21.3223C41.5409 21.4381 41.2422 21.4957 40.9412 21.4915C39.6845 21.4915 38.8369 20.5999 38.8369 19.4106C38.8369 18.241 39.7346 17.3425 40.9412 17.3425Z" fill="#727477"/>
<path d="M43.1504 17.4104H44.5486C44.9586 17.4104 45.1528 17.438 45.3255 17.5053C45.7795 17.678 46.066 18.0888 46.066 18.6723C46.066 19.0987 45.864 19.5647 45.4618 19.7667V19.7779C45.5174 19.855 45.5682 19.9354 45.6137 20.0187L46.3905 21.4213H45.3056L44.5927 20.0697H44.1326V21.4213H43.1504V17.4104ZM44.559 19.2281C44.8732 19.2281 45.07 19.0555 45.07 18.7344C45.07 18.4315 44.9578 18.2519 44.4658 18.2519H44.1343V19.2281H44.559Z" fill="#727477"/>
<path d="M47.7352 19.7779L46.4111 17.4104H47.528L47.982 18.3754C48.1115 18.6498 48.2237 18.9528 48.2237 18.9528H48.2349C48.2349 18.9528 48.3471 18.6498 48.4757 18.3754L48.9245 17.4104H50.0414L48.7174 19.7779V21.4179H47.7352V19.7779Z" fill="#727477"/>
<path d="M50.4893 17.4104H52.1559C52.9327 17.4104 53.4636 17.9818 53.4636 18.7914C53.4636 19.601 52.9362 20.1827 52.1559 20.1827H51.4715V21.4222H50.4893V17.4104ZM51.9566 19.3403C52.3018 19.3403 52.4675 19.1099 52.4675 18.7905C52.4675 18.4712 52.2949 18.2519 51.9738 18.2519H51.4715V19.3403H51.9566Z" fill="#727477"/>
<path d="M54.8155 18.2519H53.5977V17.4104H57.0147V18.2519H55.7969V21.4213H54.8155V18.2519Z" fill="#727477"/>
<path d="M57.5068 17.4104H58.4882V21.4213H57.5068V17.4104Z" fill="#727477"/>
<path d="M61.2555 17.3425C62.4638 17.3425 63.3537 18.241 63.3537 19.3907C63.3537 20.5689 62.4673 21.489 61.2555 21.489C60.0436 21.489 59.1572 20.5689 59.1572 19.3907C59.1572 18.241 60.0436 17.3425 61.2555 17.3425ZM61.2555 20.5913C61.8597 20.5913 62.3378 20.0734 62.3378 19.3907C62.3378 18.7347 61.8553 18.241 61.2555 18.241C60.6556 18.241 60.1714 18.7347 60.1714 19.3907C60.1714 20.0752 60.6547 20.5913 61.2555 20.5913Z" fill="#727477"/>
<path d="M64.0205 17.4104H65.014L66.1265 19.2842C66.2509 19.5062 66.3632 19.7347 66.4631 19.9687H66.4718C66.4718 19.9687 66.4269 19.5371 66.4269 19.2842V17.4104H67.4082V21.4213H66.4217L65.3057 19.5535C65.1815 19.3315 65.0692 19.103 64.9691 18.8691H64.9579C64.9579 18.8691 65.0027 19.3006 65.0027 19.5535V21.4213H64.0205V17.4104Z" fill="#727477"/>
</svg>
