<svg width="36" height="40" viewBox="0 0 36 40" fill="none" xmlns="http://www.w3.org/2000/svg">
<g clip-path="url(#clip0)">
<path d="M28.5468 16.4843H19.8179L27.3532 1.75323C27.5397 1.39038 27.5386 0.945127 27.3501 0.583494C27.1606 0.222167 26.8135 0 26.4375 0H13.7812C13.3272 0 12.9243 0.322875 12.7812 0.801084L6.45311 21.9729C6.3449 22.33 6.39955 22.7236 6.59731 23.0291C6.79616 23.3349 7.11449 23.5156 7.45314 23.5156H16.4007L10.7029 38.3669C10.4988 38.8945 10.6699 39.5092 11.1066 39.8168C11.5362 40.122 12.1133 40.0417 12.4599 39.6065L29.3348 18.4347C29.6109 18.0902 29.679 17.5967 29.509 17.1768C29.3389 16.7556 28.9621 16.4843 28.5468 16.4843Z" fill="#2D73F6"/>
</g>
<defs>
<clipPath id="clip0">
<rect width="36" height="40" fill="white"/>
</clipPath>
</defs>
</svg>
