<svg width="24" height="24" viewBox="0 0 24 24" fill="none" xmlns="http://www.w3.org/2000/svg">
<path fill-rule="evenodd" clip-rule="evenodd" d="M12 24C18.6274 24 24 18.6274 24 12C24 5.37258 18.6274 0 12 0C5.37258 0 0 5.37258 0 12C0 18.6274 5.37258 24 12 24Z" fill="#FF2626"/>
<path d="M7.68198 17.2094L7.78898 17.3183L7.89599 17.2094L12 13.0319L16.104 17.2094L16.211 17.3183L16.318 17.2094L17.107 16.4063L17.2103 16.3011L17.107 16.196L12.9993 12.0148L17.107 7.83352L17.2103 7.7284L17.107 7.62328L16.318 6.82017L16.211 6.71125L16.104 6.82017L12 10.9976L7.89599 6.82017L7.78898 6.71125L7.68198 6.82017L6.893 7.62328L6.78972 7.7284L6.893 7.83352L11.0007 12.0148L6.893 16.196L6.78972 16.3011L6.893 16.4063L7.68198 17.2094Z" fill="white" stroke="white" stroke-width="0.3"/>
</svg>
