<svg width="300" height="215" viewBox="0 0 300 215" fill="none" xmlns="http://www.w3.org/2000/svg">
<g clip-path="url(#clip0)">
<path opacity="0.1" d="M150 214.534C232.843 214.534 300 210.313 300 205.106C300 199.899 232.843 195.677 150 195.677C67.1573 195.677 0 199.899 0 205.106C0 210.313 67.1573 214.534 150 214.534Z" fill="#4156A9"/>
<path d="M276.471 198.123C276.473 198.868 276.397 199.611 276.243 200.34C276.214 200.477 276.183 200.626 276.151 200.743C275.34 203.997 273.051 206.377 270.32 206.528C270.228 206.528 270.137 206.528 270.034 206.528C267.146 206.528 264.703 204.037 263.897 200.606C263.874 200.514 263.854 200.423 263.834 200.32C263.68 199.591 263.603 198.848 263.606 198.103C263.606 193.454 266.483 189.688 270.034 189.688C273.586 189.688 276.471 193.48 276.471 198.123Z" fill="#3F3D56"/>
<path opacity="0.1" d="M276.472 198.123C276.474 198.868 276.397 199.611 276.243 200.34C276.214 200.477 276.183 200.626 276.152 200.743C276.054 200.743 275.96 200.743 275.866 200.743C275.158 200.705 274.455 200.609 273.763 200.457C273.15 200.647 272.523 200.79 271.889 200.886C271.402 200.959 270.912 201.005 270.42 201.023H269.923C269.334 201.023 268.746 200.984 268.163 200.906C267.22 200.78 266.293 200.55 265.4 200.22C264.911 200.383 264.413 200.517 263.909 200.62C263.886 200.529 263.866 200.437 263.846 200.335C263.692 199.606 263.615 198.862 263.617 198.117C263.617 193.469 266.494 189.703 270.046 189.703C273.597 189.703 276.472 193.48 276.472 198.123Z" fill="black"/>
<path d="M290.186 182.451C290.188 180.407 289.709 178.39 288.786 176.566L281.226 178.917L287.863 175.014C286.75 173.406 285.29 172.068 283.591 171.099C281.892 170.13 279.997 169.555 278.046 169.417C277.735 168.947 277.394 168.496 277.026 168.069L266.169 171.449L275.075 166.214C273.371 164.908 271.372 164.041 269.253 163.69C267.135 163.34 264.963 163.517 262.929 164.206C260.896 164.894 259.063 166.073 257.593 167.639C256.124 169.204 255.062 171.107 254.503 173.18L263.803 183.889L253.714 176.589C251.156 178.4 249.335 181.071 248.582 184.114C247.828 187.157 248.194 190.369 249.612 193.164C251.03 195.96 253.405 198.153 256.305 199.343C259.205 200.534 262.436 200.642 265.409 199.649C268.098 200.634 271.036 200.715 273.775 199.877C275.684 200.3 277.664 200.288 279.568 199.843C281.473 199.399 283.253 198.532 284.778 197.308C286.304 196.084 287.534 194.533 288.38 192.77C289.226 191.006 289.666 189.076 289.666 187.12C289.666 186.834 289.666 186.549 289.637 186.263C290.008 185.027 290.193 183.742 290.186 182.451Z" fill="#00BF6A"/>
<path opacity="0.1" d="M289.96 184.877C285.968 184.119 281.874 184.067 277.863 184.723C273.323 185.474 268.683 187.126 264.243 185.917C261.637 185.209 259.386 183.569 256.84 182.66C254.385 181.801 251.738 181.642 249.197 182.2C248.228 184.516 247.947 187.063 248.387 189.535C248.826 192.007 249.968 194.3 251.677 196.141C253.385 197.981 255.587 199.29 258.02 199.912C260.452 200.534 263.013 200.443 265.395 199.649C268.084 200.634 271.021 200.715 273.76 199.877C275.67 200.3 277.65 200.288 279.554 199.843C281.459 199.399 283.239 198.532 284.764 197.308C286.289 196.084 287.52 194.533 288.366 192.77C289.212 191.006 289.651 189.076 289.652 187.12C289.652 186.834 289.652 186.549 289.623 186.263C289.761 185.808 289.873 185.345 289.96 184.877Z" fill="black"/>
<path d="M199.6 49.1343H197.963C197.602 49.1343 197.309 49.4272 197.309 49.7886V72.7714C197.309 73.1328 197.602 73.4257 197.963 73.4257H199.6C199.961 73.4257 200.254 73.1328 200.254 72.7714V49.7886C200.254 49.4272 199.961 49.1343 199.6 49.1343Z" fill="#3F3D56"/>
<path d="M100.586 30.103H99.7889C99.5522 30.103 99.3604 30.2949 99.3604 30.5316V37.6716C99.3604 37.9083 99.5522 38.1002 99.7889 38.1002H100.586C100.823 38.1002 101.015 37.9083 101.015 37.6716V30.5316C101.015 30.2949 100.823 30.103 100.586 30.103Z" fill="#3F3D56"/>
<path d="M100.68 44.7456H99.7827C99.516 44.7456 99.2998 44.9618 99.2998 45.2285V58.1828C99.2998 58.4494 99.516 58.6656 99.7827 58.6656H100.68C100.946 58.6656 101.163 58.4494 101.163 58.1828V45.2285C101.163 44.9618 100.946 44.7456 100.68 44.7456Z" fill="#3F3D56"/>
<path d="M100.643 63.5342H99.7891C99.5351 63.5342 99.3291 63.7401 99.3291 63.9942V77.1142C99.3291 77.3682 99.5351 77.5742 99.7891 77.5742H100.643C100.897 77.5742 101.103 77.3682 101.103 77.1142V63.9942C101.103 63.7401 100.897 63.5342 100.643 63.5342Z" fill="#3F3D56"/>
<path d="M188.7 3.67725H110.494C104.862 3.67725 100.297 8.24266 100.297 13.8744V193.872C100.297 199.503 104.862 204.069 110.494 204.069H188.7C194.331 204.069 198.897 199.503 198.897 193.872V13.8744C198.897 8.24266 194.331 3.67725 188.7 3.67725Z" fill="#3F3D56"/>
<path d="M153.128 9.66016H140.811C140.41 9.66016 140.085 9.98507 140.085 10.3859V11.7316C140.085 12.1324 140.41 12.4573 140.811 12.4573H153.128C153.529 12.4573 153.854 12.1324 153.854 11.7316V10.3859C153.854 9.98507 153.529 9.66016 153.128 9.66016Z" fill="#E6E8EC"/>
<path d="M157.523 12.6426C158.398 12.6426 159.108 11.9327 159.108 11.0569C159.108 10.1811 158.398 9.47119 157.523 9.47119C156.647 9.47119 155.937 10.1811 155.937 11.0569C155.937 11.9327 156.647 12.6426 157.523 12.6426Z" fill="#E6E8EC"/>
<path d="M192.423 16.7255V191.011C192.422 193.088 191.597 195.079 190.128 196.547C188.659 198.015 186.668 198.84 184.591 198.84H113.831C111.755 198.84 109.763 198.015 108.295 196.547C106.826 195.079 106.001 193.088 106 191.011V16.7255C106 15.697 106.203 14.6787 106.596 13.7285C106.99 12.7784 107.567 11.915 108.294 11.1878C109.021 10.4606 109.884 9.88374 110.834 9.49018C111.785 9.09661 112.803 8.89404 113.831 8.89404H124.42V10.254C124.423 11.9626 125.104 13.6002 126.313 14.8075C127.522 16.0148 129.16 16.6933 130.869 16.694H166.869C167.715 16.694 168.554 16.5272 169.336 16.2032C170.119 15.8791 170.83 15.4041 171.428 14.8053C172.027 14.2065 172.502 13.4956 172.826 12.7132C173.15 11.9309 173.317 11.0923 173.317 10.2455V8.89404H184.606C186.68 8.89783 188.669 9.72459 190.134 11.1929C191.6 12.6611 192.423 14.6509 192.423 16.7255Z" fill="white"/>
<path fill-rule="evenodd" clip-rule="evenodd" d="M131.749 33.4756V40.2337H133.552V38.0373H136.829V36.5366H133.552V34.9862H137.477V33.4756H131.749Z" fill="#222222"/>
<path fill-rule="evenodd" clip-rule="evenodd" d="M139.924 33.4756L136.956 40.2337H138.73L139.189 39.1802H142.534L142.983 40.2337H144.767L141.79 33.4756H139.924ZM140.872 35.3239L141.953 37.8483H139.771L140.872 35.3239Z" fill="#222222"/>
<path fill-rule="evenodd" clip-rule="evenodd" d="M151.035 35.3676H149.28C149.28 35.013 148.849 34.5333 148.096 34.5333C147.568 34.5333 146.922 34.7627 146.922 35.1695C146.922 35.5136 147.406 35.6492 148.44 35.9099C149.592 36.2021 151.217 36.5776 151.217 38.1421C151.217 39.4981 149.99 40.3428 148.279 40.3428C145.986 40.3428 145.027 38.8409 145.027 37.7352H146.782C146.782 37.7352 146.922 38.8617 148.375 38.8617C149.161 38.8617 149.452 38.5384 149.452 38.236C149.452 37.7875 148.838 37.6309 148.16 37.4745C147.062 37.2242 145.135 36.8279 145.135 35.2529C145.135 33.9595 146.448 33 148.117 33C150.022 33 151.035 34.262 151.035 35.3676Z" fill="#222222"/>
<path fill-rule="evenodd" clip-rule="evenodd" d="M158.731 34.7104H156.136V40.2177H154.349V34.7104H151.755V33.125H158.731V34.7104Z" fill="#222222"/>
<path fill-rule="evenodd" clip-rule="evenodd" d="M159.936 40.218H161.702V33.1255H159.936V40.218Z" fill="#222222"/>
<path fill-rule="evenodd" clip-rule="evenodd" d="M170.486 40.2175H168.709L165.006 35.8785V40.2175H163.229V33.125H165.006L168.709 37.4535V33.125H170.486V40.2175Z" fill="#222222"/>
<path fill-rule="evenodd" clip-rule="evenodd" d="M178.925 34.5541L177.396 35.3052C177.03 34.8566 176.459 34.6063 175.62 34.6063C174.339 34.6063 173.445 35.472 173.445 36.6507C173.445 37.7771 174.36 38.7472 175.641 38.7472C176.427 38.7472 177.051 38.5073 177.439 38.1525V37.4642H175.211V36.15H179V38.7784C178.946 38.8827 177.794 40.343 175.652 40.343C173.23 40.343 171.669 38.5801 171.669 36.6716C171.669 34.7001 173.337 33 175.641 33C177.051 33 178.193 33.6155 178.925 34.5541Z" fill="#222222"/>
<path fill-rule="evenodd" clip-rule="evenodd" d="M121.195 36.8343H122.091C122.837 36.8343 123.353 36.3592 123.353 35.637C123.353 34.8641 122.85 34.4522 122.091 34.4522H121.195V36.8343ZM124.439 35.637C124.439 36.8913 123.478 37.7972 122.091 37.7972H120.123V33.4957L122.091 33.4893C123.556 33.483 124.439 34.3952 124.439 35.637Z" fill="#DE2B70"/>
<path fill-rule="evenodd" clip-rule="evenodd" d="M121.32 36.7147H122.092C122.773 36.7147 123.23 36.2816 123.23 35.637C123.23 34.9602 122.815 34.5721 122.092 34.5721H121.32V36.7147ZM122.092 36.9543H121.072V34.3326H122.092C122.947 34.3326 123.477 34.8325 123.477 35.637C123.477 36.4125 122.908 36.9543 122.092 36.9543ZM120.247 37.6776H122.092C123.401 37.6776 124.316 36.8386 124.316 35.637C124.316 35.055 124.117 34.5552 123.74 34.1922C123.342 33.8078 122.77 33.6031 122.092 33.6092L120.247 33.6151V37.6776ZM122.092 37.9173H120V33.3766L122.091 33.3698C122.097 33.3698 122.102 33.3696 122.107 33.3696C122.847 33.3696 123.472 33.5953 123.915 34.0224C124.339 34.4315 124.563 34.9898 124.563 35.6371C124.563 36.9583 123.524 37.9173 122.092 37.9173Z" fill="#DE2B70"/>
<path fill-rule="evenodd" clip-rule="evenodd" d="M125.884 35.643C125.884 36.3462 126.473 36.91 127.199 36.91C127.911 36.91 128.5 36.3462 128.5 35.643C128.5 34.946 127.911 34.3823 127.199 34.3823C126.473 34.3823 125.884 34.946 125.884 35.643ZM129.494 35.6432C129.494 36.8722 128.46 37.8733 127.198 37.8733C125.923 37.8733 124.903 36.8722 124.903 35.6432C124.903 34.4206 125.923 33.4131 127.198 33.4131C128.46 33.4131 129.494 34.4206 129.494 35.6432Z" fill="#DE2B70"/>
<path fill-rule="evenodd" clip-rule="evenodd" d="M127.198 34.5024C126.542 34.5024 126.007 35.0143 126.007 35.6434C126.007 36.2761 126.542 36.7907 127.198 36.7907C127.847 36.7907 128.376 36.2761 128.376 35.6434C128.376 35.0143 127.847 34.5024 127.198 34.5024ZM127.198 37.0303C126.405 37.0303 125.76 36.4082 125.76 35.6435C125.76 34.8822 126.405 34.2629 127.198 34.2629C127.984 34.2629 128.623 34.8822 128.623 35.6435C128.623 36.4082 127.984 37.0303 127.198 37.0303ZM127.198 33.5331C126.001 33.5331 125.027 34.4797 125.027 35.6434C125.027 36.807 126.001 37.7536 127.198 37.7536C128.396 37.7536 129.37 36.807 129.37 35.6434C129.37 34.4797 128.396 33.5331 127.198 33.5331ZM127.198 37.9931C125.864 37.9931 124.779 36.9389 124.779 35.6433C124.779 34.3477 125.864 33.2935 127.198 33.2935C128.532 33.2935 129.617 34.3477 129.617 35.6433C129.617 36.9389 128.532 37.9931 127.198 37.9931Z" fill="#DE2B70"/>
<path opacity="0.2" d="M193.429 88.6942V147.96H192.809V148.02H106.386V75.6142C106.94 74.9818 107.502 74.3256 108.071 73.6456C120.209 59.1513 136.706 55.337 149.474 54.937C158.223 54.6513 166.931 56.4599 175.246 60.0513C179.637 61.9485 185.94 64.0285 192.809 64.2342V86.6399C193.229 87.837 193.429 88.6942 193.429 88.6942Z" fill="#027BFF"/>
<path opacity="0.2" d="M193.043 88.6944V147.96H106V109.137C109.1 108.357 113.429 105.357 118.983 97.0687C125.626 87.1515 134.651 84.543 141.637 84.2687C146.423 84.0801 151.189 85.3087 155.737 87.7687C160.854 90.5315 170.717 93.8629 178.211 84.1915C186.497 73.4972 190.903 82.3172 192.423 86.6401C192.843 87.8372 193.043 88.6944 193.043 88.6944Z" fill="#027BFF"/>
<path d="M180.857 137.105H118.571C116.678 137.105 115.143 138.64 115.143 140.534V155.391C115.143 157.285 116.678 158.82 118.571 158.82H180.857C182.75 158.82 184.285 157.285 184.285 155.391V140.534C184.285 138.64 182.75 137.105 180.857 137.105Z" fill="#DE2B70"/>
<path d="M38.3033 195.349L43.7718 192.123C43.0323 190.86 42.0869 189.729 40.9747 188.777L30.6576 191.997L38.7433 187.243C36.7417 186.147 34.4891 185.59 32.2073 185.629C29.9254 185.667 27.6928 186.299 25.7294 187.463C23.766 188.626 22.1393 190.281 21.0095 192.264C19.8798 194.247 19.2858 196.49 19.2861 198.772C19.2861 206.032 25.169 206.283 32.429 206.283C39.689 206.283 45.5718 206.032 45.5718 198.772C45.5744 196.935 45.1899 195.118 44.4433 193.44L38.3033 195.349Z" fill="#00BF6A"/>
<path opacity="0.1" d="M39.6945 202.408C39.1125 201.825 38.4621 201.313 37.7574 200.886C36.7631 200.226 35.7374 199.554 34.5659 199.328C33.5374 199.131 32.4774 199.297 31.4231 199.24C29.604 199.128 27.8919 198.342 26.6202 197.037C25.8745 196.266 25.2859 195.323 24.3888 194.726C23.4202 194.091 22.1916 193.954 21.0431 194.111C20.7102 194.162 20.3802 194.229 20.0545 194.314C19.5389 195.744 19.2759 197.254 19.2773 198.774C19.2773 206.034 25.1602 206.286 32.4202 206.286C35.9431 206.286 39.1402 206.226 41.5002 205.334L41.1059 204.597C40.7299 203.811 40.2556 203.075 39.6945 202.408Z" fill="black"/>
<path d="M65.211 166.372C64.7934 166.738 64.4717 167.201 64.2739 167.72C63.7853 169.246 65.151 170.743 65.2825 172.34C65.3853 173.609 64.711 174.792 64.3282 176.009C63.8961 177.521 63.9241 179.127 64.4085 180.623C64.8929 182.119 65.8119 183.437 67.0482 184.409C67.3114 184.632 67.6221 184.792 67.9567 184.877C68.2328 184.911 68.5128 184.887 68.7796 184.809C69.0463 184.73 69.2942 184.598 69.5082 184.42C70.1717 183.938 70.6776 183.27 70.9625 182.5C71.1995 181.744 71.3274 180.958 71.3425 180.166L71.5453 177.109C71.7567 173.917 71.9482 170.626 71.171 167.492C70.9167 166.463 70.4453 164.1 69.2567 163.957C68.0682 163.814 65.9996 165.6 65.211 166.372Z" fill="#3F3D56"/>
<path d="M85.1425 153.24C83.7153 158.252 82.6807 163.368 82.0482 168.54C81.9568 169.269 81.8625 170.034 81.4225 170.623C80.5453 171.803 78.7882 171.729 77.3311 171.537C76.9813 171.519 76.6403 171.421 76.3339 171.252C75.7853 170.88 75.6653 170.137 75.5996 169.477C74.6015 159.748 73.9349 149.993 73.5996 140.212C73.5853 139.837 85.7968 139.803 86.8425 140.783C87.8882 141.763 87.0768 145.429 86.8425 146.677C86.4596 148.9 85.7682 151.066 85.1425 153.24Z" fill="#FBBEBE"/>
<path opacity="0.05" d="M85.1425 153.24C83.7153 158.252 82.6807 163.368 82.0482 168.54C81.9568 169.269 81.8625 170.034 81.4225 170.623C80.5453 171.803 78.7882 171.729 77.3311 171.537C76.9813 171.519 76.6403 171.421 76.3339 171.252C75.7853 170.88 75.6653 170.137 75.5996 169.477C74.6015 159.748 73.9349 149.993 73.5996 140.212C73.5853 139.837 85.7968 139.803 86.8425 140.783C87.8882 141.763 87.0768 145.429 86.8425 146.677C86.4596 148.9 85.7682 151.066 85.1425 153.24Z" fill="black"/>
<path d="M59.7139 138.82L64.6596 149.697C66.3053 153.314 67.9624 156.972 68.7481 160.866C69.0633 162.493 69.2648 164.14 69.351 165.794C69.4704 167.213 69.4263 168.64 69.2196 170.049C69.0396 171.094 68.7081 172.112 68.5624 173.163C67.991 177.354 70.3653 181.297 71.991 185.197C73.3956 188.547 74.2894 192.088 74.6424 195.703C74.791 197.243 74.8739 198.877 75.7539 200.149C77.3624 199.666 78.9339 199.249 80.611 199.437C80.911 196.977 79.3567 194.712 78.7853 192.294C77.7367 187.866 80.0539 183.212 79.2653 178.729C78.8367 176.3 77.5081 174.014 77.6167 171.552C77.8196 167.06 78.6624 162.523 77.8053 158.123C76.8396 153.149 74.0624 148.626 73.4481 143.597C72.9767 139.734 73.7339 135.463 71.5824 132.217C66.8824 131.94 62.0224 134.714 59.7139 138.82Z" fill="#FBBEBE"/>
<path d="M75.9688 207.129C75.4745 207.146 74.8974 207.129 74.5916 206.737C74.4425 206.51 74.3567 206.246 74.3431 205.974C74.109 204.252 73.9944 202.516 74.0002 200.777C74.0002 200.143 74.0288 199.469 74.3831 198.946C74.643 198.627 74.9393 198.339 75.2659 198.089C76.0231 197.389 76.5745 196.374 77.5516 196.052C77.9797 195.927 78.4336 195.921 78.8648 196.034C79.2961 196.148 79.6885 196.376 80.0002 196.694C80.6168 197.352 80.9985 198.195 81.0859 199.092C81.2288 200.154 81.1088 201.312 81.6716 202.234C81.8945 202.592 82.2059 202.883 82.4573 203.22C83.3145 204.363 84.0831 206.6 82.3145 207.063C80.4402 207.552 77.9145 207.066 75.9688 207.129Z" fill="#3F3D56"/>
<path d="M80.2568 74.4488C81.2568 72.5173 80.6596 70.0316 79.2311 68.3916C77.8025 66.7516 75.7139 65.8373 73.5825 65.343C70.7254 64.6745 67.6625 64.6802 64.9282 65.7316C62.7482 66.5688 60.8711 68.0173 58.8596 69.2002C55.305 71.2927 51.3265 72.5619 47.2168 72.9145C42.6454 73.3002 37.5396 72.7002 34.0054 75.6116C27.5311 80.943 32.0396 92.9573 26.0054 98.7745C24.3768 100.343 22.2025 101.192 20.3368 102.469C18.4711 103.746 16.8025 105.789 17.1025 108.029C17.2454 109.106 17.8339 110.077 18.5139 110.926C21.4339 114.574 26.3368 116.486 30.9739 115.917C35.6111 115.349 39.8568 112.372 42.1168 108.274C42.6882 107.249 43.1511 106.126 44.0511 105.38C45.8539 103.892 48.4996 104.494 50.8368 104.423C56.0339 104.263 60.7539 99.8088 61.2082 94.6259C61.4025 92.4116 61.0254 89.8345 62.6168 88.2802C63.8996 87.023 65.9054 87.0345 67.6596 86.6488C70.8825 85.943 73.2282 83.6116 74.6996 80.7659C75.3739 79.4573 75.3054 77.9945 76.3054 76.9088C77.3711 75.7145 79.3054 76.2831 80.2568 74.4488Z" fill="#3F3D56"/>
<g opacity="0.1">
<path opacity="0.1" d="M42.9572 73.8201C44.8528 73.6585 46.7265 73.3014 48.5486 72.7544C48.0343 72.8258 47.5201 72.8858 47.0029 72.9287C43.4201 73.2287 39.5001 72.9287 36.2715 74.1887C38.4715 73.963 40.7772 74.003 42.9572 73.8201Z" fill="black"/>
<path opacity="0.1" d="M39.7686 106.286C38.8686 107.028 38.3943 108.154 37.8343 109.18C36.1028 112.301 33.33 114.715 30 116C30.2543 115.983 30.5086 115.96 30.7629 115.928C35.4 115.357 39.6457 112.386 41.9057 108.288C42.4771 107.263 42.9371 106.137 43.84 105.394L43.9943 105.274C42.4257 105.237 40.9229 105.331 39.7686 106.286Z" fill="black"/>
<path opacity="0.1" d="M79.0169 68.4085C77.5883 66.7685 75.4855 65.8571 73.3683 65.3599C70.5112 64.6914 67.4483 64.6999 64.7112 65.7514L64.5283 65.8256C66.1386 65.734 67.7537 65.8774 69.3226 66.2514C71.4397 66.7485 73.5455 67.6599 74.9712 69.3028C76.3969 70.9457 76.9969 73.4285 75.9969 75.3599C75.0455 77.1942 73.1112 76.6228 72.0226 77.8085C71.0226 78.8914 71.0912 80.3571 70.4169 81.6657C69.1512 84.1142 67.234 86.1771 64.674 87.1571C65.5683 86.9457 66.5283 86.8514 67.4197 86.6571C70.6426 85.9485 72.9883 83.6199 74.4597 80.7742C75.1369 79.4657 75.0683 77.9999 76.0655 76.9171C77.1569 75.7314 79.0912 76.2999 80.0398 74.4685C81.0398 72.5428 80.4426 70.0571 79.0169 68.4085Z" fill="black"/>
<path opacity="0.1" d="M63.377 87.5516C61.6227 87.9345 59.617 87.9259 58.3341 89.1802C56.7427 90.7373 57.1198 93.3145 56.9256 95.5288C56.5856 99.4002 53.8627 102.866 50.3398 104.44H50.5998C55.797 104.28 60.5141 99.8231 60.9684 94.6431C61.1656 92.4259 60.7884 89.8488 62.3798 88.2945C62.7445 87.9465 63.1735 87.6729 63.6427 87.4888L63.377 87.5516Z" fill="black"/>
</g>
<path d="M80.3433 100.451C80.1062 100.871 79.6176 101.066 79.1633 101.234C74.4604 102.966 69.5119 104.728 64.5519 104C64.3662 103.22 64.1833 102.437 64.0004 101.657C63.7357 100.526 63.469 99.3942 63.2004 98.2627C63.0747 97.7227 62.9462 97.177 62.8433 96.6285C62.6661 95.7623 62.6093 94.8758 62.6747 93.9942C62.705 93.6746 62.7623 93.3583 62.8462 93.0485C62.9929 92.4849 63.2386 91.9518 63.5719 91.4742C63.629 91.397 63.689 91.3199 63.7519 91.2456C64.0344 90.9049 64.3772 90.6192 64.7633 90.4028C65.6062 89.9399 66.7633 89.7427 67.1033 88.8456C67.2348 88.3765 67.2219 87.8787 67.0662 87.417C66.7804 86.2742 66.2633 85.1999 65.9433 84.0685C65.5376 82.6399 66.149 82.7285 67.529 82.3827C70.0147 81.757 72.6147 81.3085 75.1662 81.8113C75.0462 83.0713 74.929 84.3628 75.2462 85.5913C75.5633 86.8199 76.4119 87.9856 77.6319 88.3256C77.8119 88.377 78.0033 88.4085 78.2033 88.4513C78.4683 88.4939 78.7197 88.5976 78.9376 88.7542C79.088 88.8783 79.2073 89.0358 79.2862 89.2142C79.4104 89.5157 79.4921 89.833 79.529 90.157C79.9766 93.1551 80.2995 96.1675 80.4976 99.1942V99.3085C80.5563 99.6963 80.5028 100.093 80.3433 100.451Z" fill="#FBBEBE"/>
<path d="M56.1318 95.5283C55.0632 97.154 54.7032 99.1312 54.3775 101.051L52.3032 113.08C52.0175 114.725 51.7632 116.534 52.6061 117.977C52.8918 118.465 53.2918 118.888 53.5004 119.405C53.658 119.926 53.7614 120.461 53.8089 121.003C54.2947 123.76 57.0061 125.62 59.7261 126.288C60.7089 126.531 61.8575 126.625 62.6318 125.971C63.4889 125.26 63.4889 123.905 62.9832 122.928C62.4775 121.951 61.5547 121.26 60.6604 120.605L57.6975 118.423L59.4118 105.28C59.5375 104.325 59.9832 103.088 60.9489 103.194C61.8289 103.288 62.5061 104.571 63.2889 104.157C63.5343 103.991 63.707 103.737 63.7718 103.448C64.1147 102.371 64.0204 101.211 63.9232 100.083L63.5689 96.0083C63.4518 94.6855 63.7918 93.694 63.9518 92.4512C64.1375 91.0026 63.1718 91.4426 61.9804 91.754C59.6918 92.3597 57.4547 93.5112 56.1318 95.5283Z" fill="#FBBEBE"/>
<path d="M92.9741 115.283C92.7564 115.649 92.4339 115.942 92.0483 116.123C89.735 117.427 87.0145 117.81 84.4312 117.194C83.8358 117.02 83.2311 116.878 82.6198 116.772C81.6426 116.652 80.6483 116.846 79.6626 116.772C77.6626 116.62 75.9055 115.372 74.5198 113.914C73.6855 113.057 72.9283 111.654 73.7055 110.734C73.9226 110.512 74.1922 110.349 74.4894 110.259C74.7866 110.169 75.1017 110.156 75.4055 110.22C76.0104 110.355 76.594 110.572 77.1398 110.866C79.0519 111.752 81.0977 112.316 83.194 112.534C84.6226 112.683 86.4398 112.44 86.934 111.083C87.174 110.423 87.0055 109.692 86.8369 109.009C86.3759 107.138 85.915 105.267 85.454 103.394C85.4224 103.231 85.3645 103.074 85.2826 102.929C85.2592 102.89 85.2314 102.853 85.1998 102.82C85.0176 102.668 84.7972 102.57 84.5626 102.534C83.4969 102.272 82.4312 101.846 81.6683 101.06C81.1683 100.502 80.7699 99.8612 80.4912 99.1659C80.4112 98.9916 80.3369 98.8144 80.2598 98.6373C79.674 97.2716 79.0569 95.8716 78.5798 94.4373C78.2467 93.4679 78.0009 92.4706 77.8455 91.4573C77.7198 90.5802 77.6512 90.1773 78.1312 89.7887C78.2599 89.6916 78.3966 89.6056 78.5398 89.5316C78.7598 89.4145 79.0083 89.2973 79.2712 89.1859L79.5255 89.0802C80.307 88.7676 81.11 88.5117 81.9283 88.3145C83.9112 87.8545 86.0283 88.8145 87.3883 90.3316C88.7483 91.8487 89.4541 93.8345 89.9055 95.8202C90.3569 97.8059 90.5883 99.8402 91.1541 101.794C91.3741 102.56 91.6483 103.314 91.8369 104.08C92.0393 104.991 92.1834 105.914 92.2683 106.843C92.5369 109.211 92.8045 111.578 93.0712 113.946C93.1698 114.392 93.136 114.856 92.9741 115.283Z" fill="#FBBEBE"/>
<path d="M63.6375 114.254C64.209 117.9 62.5661 121.486 60.9775 124.826C61.8775 125.483 62.9775 125.808 64.0518 126.091C71.2421 127.981 78.7168 128.544 86.109 127.751C86.2861 126.517 86.4518 125.208 85.9461 124.071C85.6318 123.366 85.089 122.791 84.7433 122.1C84.1718 120.957 84.229 119.628 84.2918 118.36L84.8033 107.551C81.2575 105.917 77.1461 107.448 73.2461 107.668C71.2261 107.783 69.1804 107.537 67.189 107.894C66.1547 108.08 62.9033 108.591 62.4147 109.657C61.9261 110.723 63.4633 113.094 63.6375 114.254Z" fill="#FBBEBE"/>
<path opacity="0.05" d="M63.6375 114.254C64.209 117.9 62.5661 121.486 60.9775 124.826C61.8775 125.483 62.9775 125.808 64.0518 126.091C71.2421 127.981 78.7168 128.544 86.109 127.751C86.2861 126.517 86.4518 125.208 85.9461 124.071C85.6318 123.366 85.089 122.791 84.7433 122.1C84.1718 120.957 84.229 119.628 84.2918 118.36L84.8033 107.551C81.2575 105.917 77.1461 107.448 73.2461 107.668C71.2261 107.783 69.1804 107.537 67.189 107.894C66.1547 108.08 62.9033 108.591 62.4147 109.657C61.9261 110.723 63.4633 113.094 63.6375 114.254Z" fill="black"/>
<path d="M73.032 124.717C69.1891 123.917 65.412 122.594 61.4891 122.503C61.2921 122.483 61.0936 122.52 60.9177 122.611C60.7262 122.77 60.5984 122.992 60.5577 123.237C60.152 124.637 59.7891 126.048 59.4691 127.469C58.4062 132.191 57.8834 137.409 60.2205 141.649C60.1977 140.271 61.0634 138.983 62.2205 138.22C63.3777 137.457 64.7634 137.149 66.1348 137.023C67.5062 136.897 68.972 136.949 70.2491 137.511C71.1416 137.917 71.9117 138.55 72.4819 139.348C73.0521 140.145 73.4025 141.079 73.4977 142.054L86.9977 142.491C87.0767 142.514 87.1602 142.517 87.2407 142.5C87.3211 142.483 87.396 142.446 87.4584 142.392C87.5209 142.338 87.5689 142.27 87.5982 142.193C87.6275 142.116 87.6372 142.033 87.6263 141.951C88.1239 137.621 88.1057 133.246 87.572 128.92C87.4234 127.711 87.4034 126.034 86.0434 125.58C84.4205 125.037 81.8548 125.671 80.1205 125.597C77.7377 125.497 75.367 125.203 73.032 124.717Z" fill="#3F3D56"/>
<path d="M85.2856 103.551L85.2428 109.551L71.5856 110.006C69.0799 110.091 66.5542 110.177 64.1114 110.734C63.4085 110.894 62.7142 111.094 62.0228 111.291C61.3028 108.654 60.5942 105.891 60.7828 103.203C60.8349 102.478 60.9613 101.76 61.1599 101.06C61.5942 99.5515 62.4085 98.1286 62.8428 96.6372C63.0178 96.0565 63.1139 95.4549 63.1285 94.8486C63.0961 94.2431 63.0003 93.6427 62.8428 93.0572C62.7175 92.577 62.6579 92.082 62.6657 91.5857L63.7485 91.2515C63.7799 91.38 63.8057 91.5057 63.8285 91.6372C63.8742 91.9086 63.9114 92.1857 63.9371 92.4629C63.9982 93.1497 64.0173 93.8395 63.9942 94.5286C63.9571 95.9058 63.7714 97.44 64.6314 98.5286C65.7485 99.9258 67.8971 99.7086 69.6514 99.36L74.2456 98.4429C75.6971 98.1572 77.3171 97.7515 78.0742 96.48C78.3973 95.8626 78.5677 95.1768 78.5714 94.48V94.3429C78.6397 92.8253 78.4886 91.3059 78.1228 89.8315C78.0114 89.3686 77.8742 88.9115 77.7199 88.4629H78.1799C78.4449 88.5055 78.6963 88.6092 78.9142 88.7657C79.0646 88.8899 79.1839 89.0474 79.2628 89.2257L79.5171 89.12C80.5308 93.2639 82.2014 97.2187 84.4656 100.834C84.7568 101.248 84.9877 101.701 85.1514 102.18C85.2193 102.44 85.2577 102.706 85.2656 102.974C85.2885 103.143 85.2856 103.346 85.2856 103.551Z" fill="#DE2B70"/>
<path d="M70.857 85.3913C75.4331 85.3913 79.1427 81.6816 79.1427 77.1055C79.1427 72.5295 75.4331 68.8198 70.857 68.8198C66.2809 68.8198 62.5713 72.5295 62.5713 77.1055C62.5713 81.6816 66.2809 85.3913 70.857 85.3913Z" fill="#FBBEBE"/>
<path d="M56.1318 95.5283C55.0632 97.1541 54.7032 99.1312 54.3775 101.051L52.3032 113.08C52.0175 114.725 51.7632 116.534 52.6061 117.977C52.8918 118.465 53.2918 118.888 53.5004 119.405C53.658 119.926 53.7614 120.461 53.8089 121.003C54.2947 123.76 57.0061 125.62 59.7261 126.288C60.709 126.531 61.8575 126.625 62.6318 125.971C63.4889 125.26 63.4889 123.905 62.9832 122.928C62.4775 121.951 61.5547 121.26 60.6604 120.605L57.6975 118.423L59.4118 105.28C59.5261 104.334 57.4547 93.5112 56.1318 95.5283Z" fill="#FBBEBE"/>
<path d="M89.9083 95.8369C90.3597 97.8226 90.5912 99.8569 91.1569 101.811C91.3769 102.58 91.6512 103.331 91.8398 104.097C92.0421 105.007 92.1862 105.929 92.2712 106.857L93.074 113.96C93.1665 114.398 93.1318 114.854 92.974 115.274C92.7555 115.64 92.4333 115.932 92.0483 116.114C89.7339 117.415 87.0147 117.798 84.4312 117.186C83.8365 117.008 83.2316 116.867 82.6198 116.763C81.6426 116.64 80.6483 116.837 79.6626 116.763C77.6626 116.611 75.9055 115.366 74.5198 113.92C73.6855 113.063 72.9283 111.657 73.7055 110.737C73.9226 110.515 74.1922 110.351 74.4894 110.261C74.7866 110.172 75.1017 110.158 75.4055 110.223C76.0105 110.358 76.5941 110.577 77.1398 110.871C79.0526 111.756 81.0981 112.318 83.194 112.537C84.6226 112.688 86.4398 112.446 86.934 111.086C87.174 110.426 87.0055 109.694 86.8369 109.011L85.454 103.397C85.3969 103.203 89.4569 93.8541 89.9083 95.8369Z" fill="#FBBEBE"/>
<path d="M65.7289 79.657C65.3604 78.3341 64.8432 76.6798 65.8804 75.7827C66.2531 75.4949 66.7022 75.3231 67.1718 75.2884C69.5004 75.0027 71.909 76.3741 74.1375 75.6427C74.8484 75.4104 75.4768 74.9774 75.947 74.3958C76.4171 73.8143 76.7089 73.1091 76.7872 72.3654C76.8654 71.6216 76.7267 70.8712 76.3879 70.2045C76.049 69.5379 75.5245 68.9835 74.8775 68.6084C73.9032 68.037 72.7404 67.9255 71.6175 67.8255C68.6604 67.5541 65.5775 67.3027 62.8118 68.397C60.0461 69.4913 57.7147 72.3084 58.2861 75.2255C58.5518 76.617 59.4118 77.8141 60.2861 78.9227C60.9575 79.7655 63.6518 83.7798 64.7347 83.7227C66.2604 83.637 65.9689 80.517 65.7289 79.657Z" fill="#3F3D56"/>
<path opacity="0.1" d="M74.8772 68.6084C74.7121 68.513 74.5402 68.4299 74.3629 68.3599C74.8646 68.8151 75.238 69.3941 75.4456 70.0389C75.6533 70.6838 75.688 71.3718 75.5463 72.0343C75.4045 72.6967 75.0913 73.3104 74.6379 73.8138C74.1846 74.3172 73.6069 74.6927 72.9629 74.9027C70.7343 75.6342 68.3257 74.2627 65.9972 74.5484C65.5276 74.5831 65.0785 74.755 64.7057 75.0427C63.6686 75.9399 64.1857 77.5942 64.5543 78.917C64.7943 79.7742 65.0858 82.897 63.5658 82.9827H63.54C64.0115 83.4427 64.4372 83.7427 64.74 83.7256C66.26 83.6399 65.9686 80.5199 65.7286 79.6599C65.36 78.337 64.8429 76.6827 65.88 75.7856C66.2528 75.4978 66.7019 75.326 67.1715 75.2913C69.5 75.0056 71.9086 76.377 74.1372 75.6456C74.848 75.4133 75.4764 74.9803 75.9466 74.3987C76.4168 73.8172 76.7086 73.112 76.7868 72.3683C76.8651 71.6245 76.7264 70.8741 76.3875 70.2074C76.0487 69.5407 75.5241 68.9864 74.8772 68.6113V68.6084Z" fill="black"/>
<path d="M196.572 171.677H103.429V200.534H196.572V171.677Z" fill="#3F3D56"/>
<path d="M146 181.003V191.203L154 186.103L146 181.003Z" fill="white"/>
<path d="M74.5719 9.7515L70.1376 12.5629L72.829 7.66864C72.0662 7.05979 71.1221 6.72294 70.1462 6.7115H70.0747C69.7666 6.71601 69.4587 6.69306 69.1547 6.64293L67.6519 7.59436L68.2976 6.42293C67.2314 6.05203 66.3108 5.35159 65.669 4.42293L62.9776 6.13722L64.6776 3.04864C63.1033 1.16007 60.9833 0.00292969 58.6519 0.00292969C55.8547 0.00292969 53.3633 1.66579 51.7547 4.25722C51.279 5.03533 50.605 5.67295 49.8017 6.10473C48.9984 6.53651 48.0947 6.74691 47.1833 6.71436H47.0319C43.9433 6.71436 41.4404 10.2144 41.4404 14.5344C41.4404 18.8544 43.9433 22.3544 47.0319 22.3544C47.7113 22.3512 48.3799 22.1835 48.9804 21.8658C50.0311 21.3544 51.1805 21.0778 52.3488 21.0551C53.5171 21.0324 54.6764 21.2642 55.7461 21.7344C56.6513 22.1393 57.6317 22.3486 58.6233 22.3486C59.6149 22.3486 60.5953 22.1393 61.5004 21.7344C62.5626 21.2739 63.7115 21.0473 64.869 21.0699C66.0265 21.0926 67.1656 21.364 68.209 21.8658C68.8034 22.1769 69.4639 22.3405 70.1347 22.3429C73.2233 22.3429 75.7262 18.8401 75.7262 14.5229C75.7473 12.8609 75.3504 11.2201 74.5719 9.7515Z" fill="white"/>
<path opacity="0.03" d="M66.2114 21.1943C64.6008 20.8888 62.9358 21.0699 61.4285 21.7143C60.5232 22.1183 59.5428 22.3271 58.5514 22.3271C57.5599 22.3271 56.5796 22.1183 55.6742 21.7143C54.6041 21.2451 53.4448 21.0141 52.2766 21.0373C51.1084 21.0605 49.9592 21.3373 48.9085 21.8485C48.3076 22.1651 47.6391 22.3317 46.96 22.3343C44.2171 22.3343 41.9342 19.5714 41.46 15.9257C42.0068 15.5249 42.4722 15.0236 42.8314 14.4485C44.44 11.8543 46.9314 10.1914 49.7285 10.1914C52.5257 10.1914 54.9857 11.8343 56.5857 14.4C57.0672 15.1717 57.7395 15.8061 58.5378 16.242C59.3361 16.678 60.2333 16.9006 61.1428 16.8885H61.2142C63.4 16.8885 65.2914 18.64 66.2114 21.1943Z" fill="black"/>
<path d="M226.286 73.4774L224.074 74.8803L225.417 72.4374C225.037 72.1344 224.566 71.9665 224.08 71.9603H224.043C223.89 71.9628 223.737 71.9523 223.586 71.9288L222.823 72.4088L223.146 71.8231C222.614 71.6388 222.155 71.2907 221.834 70.8288L220.491 71.686L221.348 70.146C220.992 69.6855 220.537 69.3101 220.017 69.0472C219.497 68.7843 218.925 68.6404 218.343 68.626C216.948 68.626 215.706 69.4545 214.914 70.7488C214.676 71.1374 214.339 71.4556 213.937 71.671C213.536 71.8864 213.084 71.9911 212.628 71.9746H212.554C211.014 71.9746 209.766 73.7231 209.766 75.8746C209.766 78.026 211.014 79.7774 212.554 79.7774C212.893 79.776 213.226 79.6927 213.526 79.5346C214.05 79.2794 214.623 79.1411 215.205 79.1293C215.788 79.1175 216.366 79.2323 216.9 79.466C217.349 79.6691 217.836 79.7752 218.328 79.7774C218.82 79.7757 219.307 79.6726 219.757 79.4746C220.287 79.2449 220.86 79.1316 221.437 79.1424C222.014 79.1533 222.582 79.288 223.103 79.5374C223.399 79.6936 223.728 79.7759 224.063 79.7774C225.603 79.7774 226.851 78.0288 226.851 75.8746C226.868 75.0406 226.673 74.2159 226.286 73.4774Z" fill="white"/>
<path opacity="0.03" d="M222.106 79.1859C221.301 79.0316 220.469 79.1221 219.717 79.4459C219.268 79.6463 218.781 79.7499 218.289 79.7499C217.796 79.7499 217.31 79.6463 216.86 79.4459C216.326 79.2126 215.748 79.0976 215.166 79.109C214.583 79.1203 214.01 79.2577 213.486 79.5116C213.187 79.6709 212.853 79.7552 212.514 79.7573C211.146 79.7573 210.009 78.3773 209.771 76.5602C210.044 76.3606 210.276 76.1104 210.454 75.8231C211.257 74.5288 212.5 73.7002 213.883 73.7002C215.266 73.7002 216.506 74.5202 217.311 75.7973C217.552 76.1857 217.889 76.505 218.289 76.7239C218.69 76.9428 219.141 77.0537 219.597 77.0459H219.631C220.703 77.0373 221.649 77.9116 222.106 79.1859Z" fill="black"/>
<path d="M231.18 37.0458L234.731 39.3001L232.571 35.3772C233.183 34.8906 233.938 34.6212 234.72 34.6115H234.777C235.024 34.6152 235.27 34.597 235.514 34.5572L236.72 35.3201L236.203 34.3829C237.055 34.0839 237.792 33.5241 238.308 32.7829L240.466 34.1487L239.103 31.6744C240.363 30.1601 242.063 29.2344 243.931 29.2344C246.174 29.2344 248.168 30.5658 249.457 32.6429C249.838 33.2645 250.377 33.7741 251.019 34.1199C251.661 34.4656 252.383 34.6353 253.111 34.6115H253.231C255.706 34.6115 257.711 37.4172 257.711 40.8772C257.711 44.3372 255.711 47.1429 253.231 47.1429C252.687 47.1401 252.152 47.0058 251.671 46.7515C250.828 46.3406 249.906 46.1183 248.969 46.1001C248.031 46.0818 247.101 46.268 246.243 46.6458C245.518 46.9697 244.732 47.1372 243.938 47.1372C243.144 47.1372 242.359 46.9697 241.634 46.6458C240.783 46.2763 239.863 46.0942 238.936 46.112C238.008 46.1297 237.096 46.3469 236.26 46.7487C235.782 46.9973 235.252 47.1285 234.714 47.1315C232.24 47.1315 230.234 44.3258 230.234 40.8658C230.225 39.5334 230.55 38.22 231.18 37.0458Z" fill="white"/>
<path opacity="0.03" d="M237.874 46.2145C239.167 45.9682 240.504 46.1134 241.714 46.6316C242.439 46.9555 243.224 47.123 244.018 47.123C244.812 47.123 245.598 46.9555 246.323 46.6316C247.181 46.255 248.111 46.0697 249.049 46.0884C249.986 46.1072 250.908 46.3296 251.751 46.7402C252.232 46.9936 252.767 47.1269 253.311 47.1287C255.508 47.1287 257.337 44.9145 257.72 41.9859C257.279 41.6664 256.905 41.2636 256.62 40.8002C255.331 38.7259 253.334 37.3916 251.094 37.3916C248.854 37.3916 246.88 38.7087 245.591 40.763C245.206 41.3825 244.668 41.892 244.028 42.2424C243.388 42.5928 242.669 42.7721 241.94 42.763H241.883C240.128 42.7659 238.611 44.1687 237.874 46.2145Z" fill="black"/>
</g>
<defs>
<clipPath id="clip0">
<rect width="300" height="214.534" fill="white"/>
</clipPath>
</defs>
</svg>
