<svg width="30" height="19" viewBox="0 0 30 19" fill="none" xmlns="http://www.w3.org/2000/svg">
<path fill-rule="evenodd" clip-rule="evenodd" d="M20.7886 0.0457248L17.8871 0.0448532L20.772 0.046721C20.7775 0.046721 20.783 0.0457248 20.7886 0.0457248Z" fill="#CD4045"/>
<path fill-rule="evenodd" clip-rule="evenodd" d="M6.77348 17.0104L10.2058 1.85869C10.4319 0.867701 11.6896 0.0642879 12.6891 0.0438885L6.0306 0.0420227C5.02546 0.0420227 3.73675 0.854765 3.5069 1.85869L0.0745442 17.0104C0.0537284 17.1028 0.0421364 17.1935 0.0351562 17.282V17.5631C0.10234 18.2871 0.656389 18.8141 1.45262 18.8262H8.15156C7.16262 18.8112 6.54663 18.0032 6.77348 17.0104Z" fill="#D8232A"/>
<path fill-rule="evenodd" clip-rule="evenodd" d="M17.8872 0.0448867L12.7293 0.0420227C12.7164 0.0420227 12.7029 0.0430189 12.6895 0.0438905L17.8872 0.0448867Z" fill="#2D4C6C"/>
<path fill-rule="evenodd" clip-rule="evenodd" d="M14.8765 17.0103L18.3079 1.85859C18.534 0.874945 19.7754 0.0771284 20.7722 0.0466536L17.8873 0.0447878L12.6896 0.0437927C11.6901 0.0641921 10.4324 0.867606 10.2063 1.85859L6.77394 17.0103C6.54708 18.0031 7.16308 18.8111 8.15202 18.8261H16.255C15.2655 18.8111 14.6504 18.0031 14.8765 17.0103Z" fill="#0067A5"/>
<path fill-rule="evenodd" clip-rule="evenodd" d="M28.0461 0.0474285L20.7903 0.0455627C20.7894 0.0455627 20.7884 0.0455627 20.7884 0.0455627C20.7828 0.0455627 20.7773 0.0465578 20.7718 0.0465578C19.7751 0.0770326 18.5336 0.874849 18.3075 1.8585L14.8761 17.0102C14.65 18.003 15.2651 18.811 16.2546 18.826H23.8773C24.8517 18.7778 25.7987 17.9892 26.0209 17.0166L29.4524 1.86497C29.6821 0.861912 29.0522 0.0474285 28.0461 0.0474285Z" fill="#009294"/>
<path fill-rule="evenodd" clip-rule="evenodd" d="M12.8296 11.0844H12.9557C13.0715 11.0844 13.1492 11.0457 13.1859 10.969L13.5133 10.4799H14.3902L14.2074 10.8016H15.2587L15.1254 11.2944H13.8743C13.7302 11.5107 13.5528 11.6123 13.3397 11.6004H12.6879L12.8296 11.0844ZM12.6853 11.7906H14.9887L14.8419 12.326H13.9155L13.7742 12.8427H14.6756L14.5288 13.378H13.6273L13.4179 14.1415C13.3661 14.2693 13.4343 14.3266 13.6214 14.3135H14.356L14.2199 14.811H12.8094C12.5421 14.811 12.4503 14.6585 12.5342 14.3525L12.8019 13.378H12.2257L12.372 12.8427H12.9483L13.0896 12.326H12.5388L12.6853 11.7906ZM16.362 10.4762L16.3258 10.7895C16.3258 10.7895 16.7602 10.464 17.1549 10.464H18.6131L18.0554 12.4784C18.0092 12.7088 17.8109 12.8233 17.4606 12.8233H15.8078L15.4207 14.2379C15.3984 14.3136 15.4299 14.3526 15.5133 14.3526H15.8385L15.7191 14.7916H14.8922C14.5748 14.7916 14.4428 14.6964 14.4952 14.5051L15.5892 10.4762H16.362ZM17.597 11.0457H16.2954L16.1397 11.5893C16.1397 11.5893 16.3565 11.433 16.7187 11.4274C17.0799 11.4218 17.4923 11.4274 17.4923 11.4274L17.597 11.0457ZM17.1257 12.3065C17.222 12.3195 17.2758 12.2815 17.2823 12.1919L17.362 11.9053H16.0584L15.9491 12.3065H17.1257ZM16.2457 12.9576H16.9971L16.9832 13.282H17.1832C17.2843 13.282 17.3343 13.2497 17.3343 13.1859L17.3936 12.976H18.0181L17.9347 13.282C17.8641 13.5372 17.6771 13.6703 17.3733 13.6834H16.9731L16.9712 14.238C16.9638 14.3268 17.0444 14.3721 17.2101 14.3721H17.5863L17.4649 14.8112H16.5626C16.3097 14.8232 16.1857 14.703 16.1883 14.4478L16.2457 12.9576Z" fill="#FFFFFE"/>
<path fill-rule="evenodd" clip-rule="evenodd" d="M19.44 11.1063L19.6143 10.4943H20.4953L20.4573 10.719C20.4573 10.719 20.9075 10.4943 21.2317 10.4943C21.556 10.4943 22.3211 10.4943 22.3211 10.4943L22.148 11.1063H21.9766L21.1548 13.9926H21.3262L21.1631 14.5659H20.9917L20.9204 14.8145H20.0671L20.1385 14.5659H18.4552L18.6192 13.9926H18.7879L19.6104 11.1063H19.44ZM20.3907 11.1065L20.1665 11.8876C20.1665 11.8876 20.55 11.7407 20.8808 11.6992C20.954 11.4263 21.0494 11.1065 21.0494 11.1065H20.3907ZM20.0628 12.2536L19.8378 13.0718C19.8378 13.0718 20.2629 12.8628 20.5547 12.8452C20.639 12.5291 20.7234 12.2536 20.7234 12.2536H20.0628ZM20.2279 13.9928L20.3965 13.3993H19.7389L19.5692 13.9928H20.2279ZM22.3579 10.4564H23.1862L23.2213 10.7616C23.2158 10.8392 23.2621 10.8762 23.3603 10.8762H23.5066L23.3586 11.3929H22.7498C22.5173 11.4049 22.3978 11.3163 22.3867 11.1249L22.3579 10.4564ZM22.1157 11.565H24.7986L24.6412 12.1197H23.787L23.6405 12.6354H24.4938L24.3354 13.1892H23.385L23.17 13.5139H23.635L23.7426 14.1637C23.7554 14.2285 23.8129 14.2599 23.9111 14.2599H24.0556L23.9038 14.795H23.3924C23.1274 14.8081 22.9904 14.7193 22.9792 14.528L22.8559 13.9344L22.4326 14.5659C22.3325 14.7443 22.1787 14.8275 21.9713 14.8146H21.1902L21.3422 14.2792H21.5859C21.686 14.2792 21.7692 14.2348 21.8443 14.1452L22.5067 13.1892H21.6526L21.811 12.6354H22.7373L22.8847 12.1197H21.9573L22.1157 11.565Z" fill="#FFFFFE"/>
<path fill-rule="evenodd" clip-rule="evenodd" d="M7.14067 7.79204C7.03884 8.29033 6.80251 8.67307 6.43618 8.94485C6.07296 9.21204 5.60467 9.34612 5.03117 9.34612C4.49158 9.34612 4.09596 9.2093 3.84355 8.93465C3.66843 8.73961 3.5813 8.49184 3.5813 8.19231C3.5813 8.06842 3.59626 7.93533 3.6258 7.79204L4.23681 4.85216H5.15956L4.5569 7.7587C4.53833 7.83918 4.53097 7.91406 4.53184 7.98148C4.53097 8.13037 4.56799 8.25239 4.64303 8.34755C4.75234 8.4891 4.92971 8.55938 5.17663 8.55938C5.46058 8.55938 5.69454 8.48997 5.87614 8.35041C6.05775 8.21172 6.17629 8.01481 6.22951 7.7587L6.83404 4.85216H7.75206L7.14067 7.79204Z" fill="#FFFFFE"/>
<path fill-rule="evenodd" clip-rule="evenodd" d="M7.99157 6.63444H8.64334L8.5688 7.01357L8.66229 6.90536C8.87356 6.67984 9.13021 6.56789 9.4331 6.56789C9.70732 6.56789 9.90513 6.64738 10.0293 6.80734C10.1516 6.9673 10.185 7.18821 10.127 7.47206L9.76802 9.26H9.09817L9.4225 7.63936C9.45578 7.47206 9.44656 7.3473 9.39508 7.26682C9.34422 7.18634 9.24688 7.14667 9.10652 7.14667C8.93427 7.14667 8.7893 7.20028 8.67114 7.30663C8.55248 7.41385 8.4742 7.56274 8.43581 7.75218L8.13703 9.26H7.46594L7.99157 6.63444Z" fill="#FFFFFE"/>
<path fill-rule="evenodd" clip-rule="evenodd" d="M15.465 6.63444H16.1172L16.0432 7.01357L16.1357 6.90536C16.3471 6.67984 16.6046 6.56789 16.9066 6.56789C17.1808 6.56789 17.379 6.64738 17.5022 6.80734C17.6237 6.9673 17.6588 7.18821 17.5995 7.47206L17.2419 9.26H16.5712L16.8955 7.63936C16.9289 7.47206 16.9194 7.3473 16.8686 7.26682C16.8157 7.18634 16.7204 7.14667 16.5805 7.14667C16.4082 7.14667 16.2637 7.20028 16.1442 7.30663C16.0255 7.41385 15.9468 7.56274 15.9098 7.75218L15.6097 9.26H14.9393L15.465 6.63444Z" fill="#FFFFFE"/>
<path fill-rule="evenodd" clip-rule="evenodd" d="M11.0167 6.63552H11.7392L11.1732 9.2592H10.452L11.0167 6.63552ZM11.2441 5.67958H11.9732L11.8371 6.31644H11.1079L11.2441 5.67958Z" fill="#FFFFFE"/>
<path fill-rule="evenodd" clip-rule="evenodd" d="M12.3791 9.05952C12.19 8.87928 12.0945 8.63623 12.0936 8.32738C12.0936 8.27464 12.0969 8.21456 12.1038 8.14901C12.1108 8.08246 12.1197 8.01766 12.1321 7.95758C12.2178 7.53143 12.4004 7.1931 12.6815 6.94345C12.9622 6.69294 13.3008 6.56718 13.6973 6.56718C14.022 6.56718 14.2795 6.65774 14.468 6.83897C14.6566 7.02107 14.7511 7.26698 14.7511 7.57957C14.7511 7.63305 14.747 7.695 14.74 7.76154C14.7316 7.82909 14.7215 7.89377 14.7098 7.95758C14.626 8.37738 14.4439 8.71198 14.1629 8.95702C13.8817 9.20381 13.544 9.3267 13.1502 9.3267C12.8242 9.3267 12.5675 9.23801 12.3791 9.05952ZM13.7565 8.53993C13.8838 8.40211 13.9751 8.19314 14.0307 7.91489C14.039 7.87148 14.0464 7.8262 14.051 7.78093C14.0556 7.73652 14.0575 7.69485 14.0575 7.65704C14.0575 7.49521 14.0162 7.36945 13.9333 7.28077C13.8509 7.19096 13.7338 7.14668 13.5822 7.14668C13.3822 7.14668 13.2191 7.21683 13.0914 7.35739C12.9625 7.49794 12.8712 7.71065 12.8138 7.9935C12.8059 8.03691 12.7994 8.08045 12.7935 8.12299C12.7888 8.1664 12.7875 8.20707 12.7883 8.24402C12.7883 8.40485 12.8295 8.52874 12.9125 8.61656C12.9949 8.70437 13.1117 8.74791 13.265 8.74791C13.466 8.74791 13.6291 8.6785 13.7565 8.53993Z" fill="#FFFFFE"/>
<path fill-rule="evenodd" clip-rule="evenodd" d="M18.6893 5.00759H20.5829C20.947 5.00759 21.2286 5.08994 21.4222 5.25164C21.6149 5.41533 21.7114 5.65017 21.7114 5.95616V5.96537C21.7114 6.02358 21.7075 6.08926 21.702 6.16041C21.6927 6.23069 21.6807 6.30196 21.665 6.37584C21.5816 6.78085 21.3879 7.10624 21.0888 7.35303C20.7885 7.59894 20.4329 7.72283 20.0234 7.72283H19.0079L18.6939 9.26025H17.8147L18.6893 5.00759ZM19.1632 6.98334H20.0053C20.2249 6.98334 20.3992 6.93234 20.5261 6.83159C20.6521 6.72996 20.7355 6.57473 20.7817 6.36389C20.7891 6.32509 20.7938 6.28988 20.7993 6.25754C20.8022 6.22694 20.8058 6.19647 20.8058 6.16699C20.8058 6.01623 20.7522 5.90715 20.6446 5.83873C20.5372 5.76933 20.3685 5.73611 20.1351 5.73611H19.4198L19.1632 6.98334Z" fill="#FFFFFE"/>
<path fill-rule="evenodd" clip-rule="evenodd" d="M25.6462 9.76769C25.3683 10.3575 25.1033 10.7013 24.9478 10.8613C24.792 11.0195 24.4836 11.3875 23.7406 11.3596L23.8045 10.9094C24.4298 10.7171 24.7679 9.85078 24.9606 9.46717L24.7309 6.64198L25.2145 6.63551H25.6202L25.6639 8.40777L26.4243 6.63551H27.1943L25.6462 9.76769Z" fill="#FFFFFE"/>
<path fill-rule="evenodd" clip-rule="evenodd" d="M23.4932 6.84927L23.1874 7.05911C22.8678 6.80946 22.576 6.6551 22.0128 6.91581C21.2456 7.27081 20.6046 9.99351 22.7168 9.09668L22.8372 9.23898L23.6682 9.26025L24.2139 6.78633L23.4932 6.84927ZM23.02 8.20194C22.8865 8.59488 22.5884 8.85472 22.3549 8.78071C22.1214 8.70857 22.0381 8.32956 22.1733 7.93575C22.3067 7.54182 22.6068 7.28297 22.8384 7.35698C23.0719 7.42912 23.1561 7.80813 23.02 8.20194Z" fill="#FFFFFE"/>
</svg>
