<svg width="34" height="21" viewBox="0 0 34 21" fill="none" xmlns="http://www.w3.org/2000/svg">
<path d="M0 0V10.9521H15.0934V0H0ZM12.6401 1.55916L12.7896 2.02818H13.2752L12.8767 2.31973L13.0262 2.78874L12.6401 2.49719L12.2541 2.78874L12.4035 2.31973L12.005 2.02818H12.4907L12.6401 1.55916ZM13.0262 7.18735L12.6401 6.8958L12.2541 7.18735L12.4035 6.71833L12.005 6.42678H12.4907L12.6401 5.95777L12.7896 6.42678H13.2752L12.8767 6.71833L13.0262 7.18735ZM11.7559 8.29017L11.3699 7.99862L10.9838 8.29017L11.1333 7.82116L10.7348 7.5296H11.2204L11.3699 7.06059L11.5193 7.5296H12.005L11.6065 7.82116L11.7559 8.29017ZM10.4981 7.18735L10.1121 6.8958L9.72604 7.18735L9.87547 6.71833L9.47697 6.42678H9.96265L10.1121 5.95777L10.2615 6.42678H10.7472L10.3487 6.71833L10.4981 7.18735ZM9.22791 8.29017L8.84185 7.99862L8.4558 8.29017L8.60524 7.82116L8.20673 7.5296H8.69241L8.84185 7.06059L8.99129 7.5296H9.47697L9.07846 7.82116L9.22791 8.29017ZM7.95767 7.18735L7.57161 6.8958L7.18556 7.18735L7.335 6.71833L6.9365 6.42678H7.42218L7.57161 5.97044L7.72105 6.43946H8.20673L7.80823 6.73101L7.95767 7.18735ZM6.68743 8.29017L6.30138 7.99862L5.91532 8.29017L6.06476 7.82116L5.66626 7.5296H6.15194L6.30138 7.06059L6.45081 7.5296H6.9365L6.53799 7.82116L6.68743 8.29017ZM5.42964 7.18735L5.04359 6.8958L4.65754 7.18735L4.80698 6.71833L4.40847 6.42678H4.89415L5.04359 5.95777L5.19303 6.42678H5.67871L5.28021 6.71833L5.42964 7.18735ZM4.15941 8.29017L3.77336 7.99862L3.3873 8.29017L3.53674 7.82116L3.13823 7.5296H3.62392L3.77336 7.06059L3.92279 7.5296H4.40847L4.00997 7.82116L4.15941 8.29017ZM2.88917 7.18735L2.50312 6.8958L2.11706 7.18735L2.26651 6.71833L1.868 6.42678H2.35368L2.50312 5.95777L2.65256 6.42678H3.13823L2.73973 6.71833L2.88917 7.18735ZM2.88917 4.98171L2.50312 4.69016L2.11706 4.98171L2.26651 4.51269L1.868 4.22114H2.35368L2.50312 3.75212L2.65256 4.22114H3.13823L2.73973 4.51269L2.88917 4.98171ZM4.15941 6.08453L3.77336 5.79298L3.3873 6.08453L3.53674 5.61551L3.13823 5.32396H3.62392L3.77336 4.85495L3.92279 5.32396H4.40847L4.00997 5.61551L4.15941 6.08453ZM5.42964 4.98171L5.04359 4.69016L4.65754 4.98171L4.80698 4.51269L4.40847 4.22114H4.89415L5.04359 3.75212L5.19303 4.22114H5.67871L5.28021 4.51269L5.42964 4.98171ZM4.00997 3.40987L4.15941 3.87889L3.77336 3.58734L3.3873 3.87889L3.53674 3.40987L3.13823 3.11832H3.62392L3.77336 2.6493L3.92279 3.11832H4.40847L4.00997 3.40987ZM6.68743 6.08453L6.30138 5.79298L5.91532 6.08453L6.06476 5.61551L5.66626 5.32396H6.15194L6.30138 4.85495L6.45081 5.32396H6.9365L6.53799 5.61551L6.68743 6.08453ZM7.95767 4.98171L7.57161 4.69016L7.18556 4.98171L7.335 4.51269L6.9365 4.22114H7.42218L7.57161 3.7648L7.72105 4.23382H8.20673L7.80823 4.52537L7.95767 4.98171ZM6.55044 3.40987L6.69988 3.87889L6.31383 3.58734L5.92778 3.87889L6.07722 3.40987L5.67871 3.11832H6.16439L6.31383 2.6493L6.46327 3.11832H6.94895L6.55044 3.40987ZM9.22791 6.08453L8.84185 5.79298L8.4558 6.08453L8.60524 5.61551L8.20673 5.32396H8.69241L8.84185 4.85495L8.99129 5.32396H9.47697L9.07846 5.61551L9.22791 6.08453ZM10.4981 4.98171L10.1121 4.69016L9.72604 4.98171L9.87547 4.51269L9.47697 4.22114H9.96265L10.1121 3.75212L10.2615 4.22114H10.7472L10.3487 4.51269L10.4981 4.98171ZM9.07846 3.40987L9.22791 3.87889L8.84185 3.58734L8.4558 3.87889L8.60524 3.40987L8.20673 3.11832H8.69241L8.84185 2.6493L8.99129 3.11832H9.47697L9.07846 3.40987ZM11.7559 6.08453L11.3699 5.79298L10.9838 6.08453L11.1333 5.61551L10.7348 5.32396H11.2204L11.3699 4.85495L11.5193 5.32396H12.005L11.6065 5.61551L11.7559 6.08453ZM11.7559 3.87889L11.3699 3.58734L10.9838 3.87889L11.1333 3.40987L10.7348 3.11832H11.2204L11.3699 2.6493L11.5193 3.11832H12.005L11.6065 3.40987L11.7559 3.87889ZM13.0262 4.98171L12.6401 4.69016L12.2541 4.98171L12.4035 4.51269L12.005 4.22114H12.4907L12.6401 3.75212L12.7896 4.22114H13.2752L12.8767 4.51269L13.0262 4.98171ZM11.2204 0.925355L11.3699 0.45634L11.5193 0.925355H12.005L11.6065 1.2169L11.7559 1.68592L11.3699 1.39437L10.9838 1.68592L11.1333 1.2169L10.7348 0.925355H11.2204ZM10.0996 1.55916L10.2491 2.02818H10.7348L10.3363 2.31973L10.4857 2.78874L10.0996 2.49719L9.71358 2.78874L9.86302 2.31973L9.46452 2.02818H9.9502L10.0996 1.55916ZM8.69241 0.925355L8.84185 0.45634L8.99129 0.925355H9.47697L9.07846 1.2169L9.22791 1.68592L8.84185 1.39437L8.4558 1.68592L8.60524 1.2169L8.20673 0.925355H8.69241ZM7.57161 1.55916L7.72105 2.02818H8.20673L7.80823 2.31973L7.95767 2.78874L7.57161 2.48451L7.18556 2.77606L7.335 2.30705L6.9365 2.0155H7.42218L7.57161 1.55916ZM6.15194 0.925355L6.30138 0.45634L6.45081 0.925355H6.9365L6.53799 1.2169L6.68743 1.68592L6.30138 1.39437L5.91532 1.68592L6.06476 1.2169L5.66626 0.925355H6.15194ZM5.04359 1.55916L5.19303 2.02818H5.67871L5.28021 2.31973L5.42964 2.78874L5.04359 2.49719L4.65754 2.78874L4.80698 2.31973L4.40847 2.02818H4.89415L5.04359 1.55916ZM3.62392 0.925355L3.77336 0.45634L3.92279 0.925355H4.40847L4.00997 1.2169L4.15941 1.68592L3.77336 1.39437L3.3873 1.68592L3.53674 1.2169L3.13823 0.925355H3.62392ZM2.50312 1.55916L2.65256 2.02818H3.13823L2.73973 2.31973L2.88917 2.78874L2.50312 2.49719L2.11706 2.78874L2.26651 2.31973L1.868 2.02818H2.35368L2.50312 1.55916ZM1.09589 0.925355L1.24533 0.45634L1.39477 0.925355H1.88045L1.48195 1.2169L1.63139 1.68592L1.24533 1.39437L0.859281 1.68592L1.00872 1.2169L0.610214 0.925355H1.09589ZM1.09589 3.131L1.24533 2.66198L1.39477 3.131H1.88045L1.48195 3.42255L1.63139 3.89156L1.24533 3.60001L0.859281 3.89156L1.00872 3.42255L0.610214 3.131H1.09589ZM1.09589 5.32396L1.24533 4.85495L1.39477 5.32396H1.88045L1.48195 5.61551L1.63139 6.08453L1.24533 5.79298L0.859281 6.08453L1.00872 5.61551L0.610214 5.32396H1.09589ZM1.09589 7.5296L1.24533 7.06059L1.39477 7.5296H1.88045L1.48195 7.82116L1.63139 8.29017L1.24533 7.99862L0.859281 8.29017L1.00872 7.82116L0.610214 7.5296H1.09589ZM1.63139 10.4958L1.24533 10.2043L0.859281 10.4958L1.00872 10.0268L0.610214 9.73524H1.09589L1.24533 9.26623L1.39477 9.73524H1.88045L1.48195 10.0268L1.63139 10.4958ZM2.50312 9.10144L2.11706 9.39299L2.26651 8.92397L1.868 8.63242H2.35368L2.50312 8.16341L2.65256 8.63242H3.13823L2.73973 8.92397L2.88917 9.39299L2.50312 9.10144ZM4.15941 10.4958L3.77336 10.2043L3.3873 10.4958L3.53674 10.0268L3.13823 9.73524H3.62392L3.77336 9.26623L3.92279 9.73524H4.40847L4.00997 10.0268L4.15941 10.4958ZM5.04359 9.10144L4.65754 9.39299L4.80698 8.92397L4.40847 8.63242H4.89415L5.04359 8.16341L5.19303 8.63242H5.67871L5.28021 8.92397L5.42964 9.39299L5.04359 9.10144ZM6.68743 10.4958L6.30138 10.2043L5.91532 10.4958L6.06476 10.0268L5.66626 9.73524H6.15194L6.30138 9.26623L6.45081 9.73524H6.9365L6.53799 10.0268L6.68743 10.4958ZM7.57161 9.10144L7.18556 9.39299L7.335 8.92397L6.9365 8.63242H7.42218L7.57161 8.17608L7.72105 8.6451H8.20673L7.80823 8.93665L7.95767 9.40567L7.57161 9.10144ZM9.22791 10.4958L8.84185 10.2043L8.4558 10.4958L8.60524 10.0268L8.20673 9.73524H8.69241L8.84185 9.26623L8.99129 9.73524H9.47697L9.07846 10.0268L9.22791 10.4958ZM10.0996 9.10144L9.71358 9.39299L9.86302 8.92397L9.46452 8.63242H9.9502L10.0996 8.16341L10.2491 8.63242H10.7348L10.3363 8.92397L10.4857 9.39299L10.0996 9.10144ZM11.7559 10.4958L11.3699 10.2043L10.9838 10.4958L11.1333 10.0268L10.7348 9.73524H11.2204L11.3699 9.26623L11.5193 9.73524H12.005L11.6065 10.0268L11.7559 10.4958ZM12.6401 9.10144L12.2541 9.39299L12.4035 8.92397L12.005 8.63242H12.4907L12.6401 8.16341L12.7896 8.63242H13.2752L12.8767 8.92397L13.0262 9.39299L12.6401 9.10144ZM14.2964 10.4958L13.9103 10.2043L13.5243 10.4958L13.6737 10.0268L13.2752 9.73524H13.7609L13.9103 9.26623L14.0598 9.73524H14.5455L14.147 10.0268L14.2964 10.4958ZM14.147 7.82116L14.2964 8.29017L13.9103 7.99862L13.5243 8.29017L13.6737 7.82116L13.2752 7.5296H13.7609L13.9103 7.06059L14.0598 7.5296H14.5455L14.147 7.82116ZM14.147 5.61551L14.2964 6.08453L13.9103 5.79298L13.5243 6.08453L13.6737 5.61551L13.2752 5.32396H13.7609L13.9103 4.85495L14.0598 5.32396H14.5455L14.147 5.61551ZM14.147 3.40987L14.2964 3.87889L13.9103 3.58734L13.5243 3.87889L13.6737 3.40987L13.2752 3.11832H13.7609L13.9103 2.6493L14.0598 3.11832H14.5455L14.147 3.40987ZM14.147 1.20423L14.2964 1.67324L13.9103 1.38169L13.5243 1.67324L13.6737 1.20423L13.2752 0.912681H13.7609L13.9103 0.443666L14.0598 0.912681H14.5455L14.147 1.20423Z" fill="#C31A49"/>
<path d="M33.3249 0H15.0933V1.55914H33.3249V0Z" fill="#C31A49"/>
<path d="M33.3249 3.13098H15.0933V4.69019H33.3249V3.13098Z" fill="#C31A49"/>
<path d="M33.3249 6.26202H15.0933V7.82117H33.3249V6.26202Z" fill="#C31A49"/>
<path d="M33.3249 9.39301H15.0933V10.9521H33.3249V9.39301Z" fill="#C31A49"/>
<path d="M33.325 12.524H0V14.0832H33.325V12.524Z" fill="#C31A49"/>
<path d="M33.325 15.6677H0V17.2269H33.325V15.6677Z" fill="#C31A49"/>
<path d="M33.325 18.7987H0V20.3578H33.325V18.7987Z" fill="#C31A49"/>
</svg>
