<svg width="38" height="38" viewBox="0 0 38 38" fill="none" xmlns="http://www.w3.org/2000/svg">
<path d="M12.667 19.0821C15.8257 19.0821 18.2087 16.6992 18.2087 13.5404C18.2087 10.3817 15.8257 7.99878 12.667 7.99878C9.50824 7.99878 7.12532 10.3817 7.12532 13.5404C7.12532 16.6992 9.50824 19.0821 12.667 19.0821ZM14.2503 20.5831H11.0837C6.71841 20.5831 3.16699 24.1345 3.16699 28.4998V30.0831H4.75033H6.33366H19.0003H20.5837H22.167V28.4998C22.167 24.1345 18.6156 20.5831 14.2503 20.5831ZM32.1325 13.1288L25.3242 19.9244L23.2785 17.8788L21.0397 20.1176L25.3242 24.3989L34.3682 15.3708L32.1325 13.1288Z" fill="#2D73F6"/>
</svg>
