<svg width="29" height="23" viewBox="0 0 29 23" fill="none" xmlns="http://www.w3.org/2000/svg">
<path d="M27.63 0.214421C25.6548 -1.00625 19.4754 3.17275 15.5674 7.98361C16.7525 9.41969 17.6695 10.7696 18.2903 11.7031C19.814 8.98887 21.6904 6.26032 23.9336 4.178C24.4133 3.73282 25.1751 3.76154 25.6125 4.24981C26.064 4.73807 26.0216 5.51356 25.542 5.95874C20.5476 10.6116 17.345 19.0989 16.3292 22.0859C19.4189 23.0481 23.1859 21.3104 25.2739 17.6772C28.6035 11.8898 29.6616 1.46381 27.63 0.214421Z" fill="#C31A49"/>
<path d="M4.92991 6.3752C8.17482 8.52931 12.4638 15.9108 14.5941 19.8169C15.1726 18.2516 16.0332 16.1262 17.1618 13.8715C16.8091 13.2827 15.7792 11.6169 14.2837 9.74998L14.2696 9.76434C10.3757 4.59446 3.09583 1.06171 1.21942 2.32545C-1.08024 3.86206 -0.0503319 12.6652 3.66016 18.2372C5.95982 21.6694 9.75496 23.1055 12.7883 22.0572L13.014 21.9136C10.8272 17.792 6.45361 10.2813 3.63194 8.41443C3.08172 8.04105 2.92652 7.29429 3.29334 6.73421C3.63194 6.17414 4.37968 6.01618 4.92991 6.3752Z" fill="#C31A49"/>
</svg>
