<svg width="496" height="444" viewBox="0 0 496 444" fill="none" xmlns="http://www.w3.org/2000/svg">
<circle cx="197.759" cy="246.218" r="197.259" stroke="#E9EDF3"/>
<circle cx="231.253" cy="197.759" r="197.259" stroke="#E9EDF3"/>
<circle cx="298.242" cy="234.103" r="197.259" stroke="#E9EDF3"/>
<g style="mix-blend-mode:multiply" opacity="0.02">
<circle cx="197.759" cy="246.218" r="197.259" stroke="#E9EDF3"/>
<circle cx="231.253" cy="197.759" r="197.259" stroke="#E9EDF3"/>
<circle cx="298.242" cy="234.103" r="197.259" stroke="#E9EDF3"/>
</g>
<circle cx="159" cy="96" r="49" fill="url(#paint0_linear)"/>
<circle cx="296" cy="76" r="34" fill="url(#paint1_linear)"/>
<circle cx="280" cy="211" r="49" fill="#2D73F6"/>
<circle cx="396" cy="309" r="45" fill="url(#paint2_linear)"/>
<circle cx="156" cy="283" r="64" fill="url(#paint3_linear)"/>
<circle cx="279" cy="366" r="34" fill="url(#paint4_linear)"/>
<path d="M134.568 76.2L131.054 86H129.528L126.028 76.2H127.61L130.298 83.844L132.986 76.2H134.568ZM137.706 76.2H139.232V86H137.706V76.2ZM145.342 77.628H142.528V76.2H149.696V77.628H146.868V86H145.342V77.628ZM157.328 83.494H153.646L152.764 86H151.224L154.724 76.2H156.25L159.764 86H158.21L157.328 83.494ZM156.852 82.136L155.494 78.286L154.136 82.136H156.852ZM171.09 86L170.194 78.958L167.604 83.788L164.972 78.972L164.076 86H162.48L163.824 76.2H165.098L167.59 80.89L170.068 76.2H171.356L172.686 86H171.09ZM176.372 76.2H177.898V86H176.372V76.2ZM182.09 76.2H183.658L188.222 83.102V76.2H189.762V86H188.474L183.616 78.692V86H182.09V76.2Z" fill="white"/>
<path d="M274.464 64.2H280.456V65.628H275.99V68.162H279.434V69.59H275.99V74H274.464V64.2ZM287.966 74.196C287.033 74.196 286.202 73.986 285.474 73.566C284.746 73.146 284.172 72.5533 283.752 71.788C283.342 71.0133 283.136 70.1173 283.136 69.1C283.136 68.0827 283.342 67.1913 283.752 66.426C284.172 65.6513 284.746 65.054 285.474 64.634C286.202 64.214 287.033 64.004 287.966 64.004C288.9 64.004 289.73 64.214 290.458 64.634C291.186 65.054 291.756 65.6513 292.166 66.426C292.586 67.1913 292.796 68.0827 292.796 69.1C292.796 70.1173 292.586 71.0133 292.166 71.788C291.756 72.5533 291.186 73.146 290.458 73.566C289.73 73.986 288.9 74.196 287.966 74.196ZM287.966 72.712C288.657 72.712 289.24 72.558 289.716 72.25C290.202 71.9327 290.566 71.5033 290.808 70.962C291.051 70.4113 291.172 69.7907 291.172 69.1C291.172 68.4093 291.051 67.7933 290.808 67.252C290.566 66.7013 290.202 66.272 289.716 65.964C289.24 65.6467 288.657 65.488 287.966 65.488C287.276 65.488 286.688 65.6467 286.202 65.964C285.726 66.272 285.362 66.7013 285.11 67.252C284.868 67.7933 284.746 68.4093 284.746 69.1C284.746 69.7907 284.868 70.4113 285.11 70.962C285.362 71.5033 285.726 71.9327 286.202 72.25C286.688 72.558 287.276 72.712 287.966 72.712ZM296.429 64.2H297.955V72.628H302.253V74H296.429V64.2ZM305.443 64.2H306.969V74H305.443V64.2ZM315.558 74.196C314.596 74.196 313.738 73.986 312.982 73.566C312.226 73.146 311.633 72.5533 311.204 71.788C310.784 71.0133 310.574 70.1173 310.574 69.1C310.574 68.0827 310.788 67.1913 311.218 66.426C311.656 65.6513 312.254 65.054 313.01 64.634C313.775 64.214 314.643 64.004 315.614 64.004C316.099 64.004 316.561 64.0553 317 64.158C317.448 64.2607 317.844 64.4007 318.19 64.578L318.036 66.006C317.186 65.6233 316.374 65.432 315.6 65.432C314.881 65.432 314.27 65.5907 313.766 65.908C313.271 66.2253 312.893 66.6593 312.632 67.21C312.38 67.7607 312.254 68.3907 312.254 69.1C312.254 69.8093 312.38 70.4393 312.632 70.99C312.884 71.5407 313.257 71.9747 313.752 72.292C314.246 72.6093 314.848 72.768 315.558 72.768C316.015 72.768 316.44 72.7213 316.832 72.628C317.224 72.5253 317.625 72.3807 318.036 72.194L318.19 73.636C317.359 74.0093 316.482 74.196 315.558 74.196ZM283.691 88.494H280.009L279.127 91H277.587L281.087 81.2H282.613L286.127 91H284.573L283.691 88.494ZM283.215 87.136L281.857 83.286L280.499 87.136H283.215ZM293.55 91.196C292.589 91.196 291.73 90.986 290.974 90.566C290.218 90.146 289.625 89.5533 289.196 88.788C288.776 88.0133 288.566 87.1173 288.566 86.1C288.566 85.0827 288.781 84.1913 289.21 83.426C289.649 82.6513 290.246 82.054 291.002 81.634C291.767 81.214 292.635 81.004 293.606 81.004C294.091 81.004 294.553 81.0553 294.992 81.158C295.44 81.2607 295.837 81.4007 296.182 81.578L296.028 83.006C295.179 82.6233 294.367 82.432 293.592 82.432C292.873 82.432 292.262 82.5907 291.758 82.908C291.263 83.2253 290.885 83.6593 290.624 84.21C290.372 84.7607 290.246 85.3907 290.246 86.1C290.246 86.8093 290.372 87.4393 290.624 87.99C290.876 88.5407 291.249 88.9747 291.744 89.292C292.239 89.6093 292.841 89.768 293.55 89.768C294.007 89.768 294.432 89.7213 294.824 89.628C295.216 89.5253 295.617 89.3807 296.028 89.194L296.182 90.636C295.351 91.0093 294.474 91.196 293.55 91.196ZM299.74 81.2H301.266V91H299.74V81.2ZM305.459 81.2H309.099C310.041 81.2 310.881 81.396 311.619 81.788C312.356 82.18 312.93 82.7447 313.341 83.482C313.751 84.2193 313.957 85.092 313.957 86.1C313.957 87.108 313.751 87.9807 313.341 88.718C312.93 89.4553 312.356 90.02 311.619 90.412C310.881 90.804 310.041 91 309.099 91H305.459V81.2ZM309.099 89.628C310.125 89.628 310.909 89.3153 311.451 88.69C312.001 88.0553 312.277 87.192 312.277 86.1C312.277 85.008 312.001 84.1493 311.451 83.524C310.909 82.8893 310.125 82.572 309.099 82.572H306.985V89.628H309.099Z" fill="white"/>
<path d="M256.568 187.2L253.054 197H251.528L248.028 187.2H249.61L252.298 194.844L254.986 187.2H256.568ZM259.706 187.2H261.232V197H259.706V187.2ZM267.342 188.628H264.528V187.2H271.696V188.628H268.868V197H267.342V188.628ZM279.328 194.494H275.646L274.764 197H273.224L276.724 187.2H278.25L281.764 197H280.21L279.328 194.494ZM278.852 193.136L277.494 189.286L276.136 193.136H278.852ZM293.09 197L292.194 189.958L289.604 194.788L286.972 189.972L286.076 197H284.48L285.824 187.2H287.098L289.59 191.89L292.068 187.2H293.356L294.686 197H293.09ZM298.372 187.2H299.898V197H298.372V187.2ZM304.09 187.2H305.658L310.222 194.102V187.2H311.762V197H310.474L305.616 189.692V197H304.09V187.2Z" fill="white"/>
<path d="M377.761 293.494H374.079L373.197 296H371.657L375.157 286.2H376.683L380.197 296H378.643L377.761 293.494ZM377.285 292.136L375.927 288.286L374.569 292.136H377.285ZM383.375 286.2H386.707C388.965 286.2 390.095 287.259 390.095 289.378C390.095 290.461 389.801 291.268 389.213 291.8C388.634 292.323 387.808 292.584 386.735 292.584H384.943V296H383.375V286.2ZM386.525 291.268C387.197 291.268 387.701 291.114 388.037 290.806C388.373 290.498 388.541 290.027 388.541 289.392C388.541 288.748 388.377 288.277 388.051 287.978C387.724 287.67 387.211 287.516 386.511 287.516H384.943V291.268H386.525ZM393.523 286.2H396.855C399.114 286.2 400.243 287.259 400.243 289.378C400.243 290.461 399.949 291.268 399.361 291.8C398.782 292.323 397.956 292.584 396.883 292.584H395.091V296H393.523V286.2ZM396.673 291.268C397.345 291.268 397.849 291.114 398.185 290.806C398.521 290.498 398.689 290.027 398.689 289.392C398.689 288.748 398.526 288.277 398.199 287.978C397.872 287.67 397.359 287.516 396.659 287.516H395.091V291.268H396.673ZM403.671 286.2H405.197V294.628H409.495V296H403.671V286.2ZM412.685 286.2H418.789V287.628H414.225V290.162H417.809V291.59H414.225V294.572H418.915V296H412.685V286.2ZM377.574 313.196C376.613 313.196 375.754 312.986 374.998 312.566C374.242 312.146 373.65 311.553 373.22 310.788C372.8 310.013 372.59 309.117 372.59 308.1C372.59 307.083 372.805 306.191 373.234 305.426C373.673 304.651 374.27 304.054 375.026 303.634C375.792 303.214 376.66 303.004 377.63 303.004C378.116 303.004 378.578 303.055 379.016 303.158C379.464 303.261 379.861 303.401 380.206 303.578L380.052 305.006C379.203 304.623 378.391 304.432 377.616 304.432C376.898 304.432 376.286 304.591 375.782 304.908C375.288 305.225 374.91 305.659 374.648 306.21C374.396 306.761 374.27 307.391 374.27 308.1C374.27 308.809 374.396 309.439 374.648 309.99C374.9 310.541 375.274 310.975 375.768 311.292C376.263 311.609 376.865 311.768 377.574 311.768C378.032 311.768 378.456 311.721 378.848 311.628C379.24 311.525 379.642 311.381 380.052 311.194L380.206 312.636C379.376 313.009 378.498 313.196 377.574 313.196ZM383.764 303.2H385.29V313H383.764V303.2ZM389.483 303.2H393.123C394.066 303.2 394.906 303.396 395.643 303.788C396.38 304.18 396.954 304.745 397.365 305.482C397.776 306.219 397.981 307.092 397.981 308.1C397.981 309.108 397.776 309.981 397.365 310.718C396.954 311.455 396.38 312.02 395.643 312.412C394.906 312.804 394.066 313 393.123 313H389.483V303.2ZM393.123 311.628C394.15 311.628 394.934 311.315 395.475 310.69C396.026 310.055 396.301 309.192 396.301 308.1C396.301 307.008 396.026 306.149 395.475 305.524C394.934 304.889 394.15 304.572 393.123 304.572H391.009V311.628H393.123ZM401.614 303.2H407.718V304.628H403.154V307.162H406.738V308.59H403.154V311.572H407.844V313H401.614V303.2ZM411.448 303.2H414.794C415.858 303.2 416.688 303.447 417.286 303.942C417.883 304.437 418.182 305.183 418.182 306.182C418.182 307.461 417.617 308.371 416.488 308.912L418.686 313H416.908L414.962 309.262H414.892H413.016V313H411.448V303.2ZM414.584 307.932C415.256 307.932 415.755 307.783 416.082 307.484C416.418 307.176 416.586 306.756 416.586 306.224C416.586 305.673 416.422 305.253 416.096 304.964C415.769 304.665 415.274 304.516 414.612 304.516H413.016V307.932H414.584ZM369.808 320.2L366.294 330H364.768L361.268 320.2H362.85L365.538 327.844L368.226 320.2H369.808ZM372.946 320.2H374.472V330H372.946V320.2ZM378.665 320.2H380.233L384.797 327.102V320.2H386.337V330H385.049L380.191 322.692V330H378.665V320.2ZM390.536 320.2H396.64V321.628H392.076V324.162H395.66V325.59H392.076V328.572H396.766V330H390.536V320.2ZM404.517 330.196C403.565 330.196 402.72 329.986 401.983 329.566C401.246 329.146 400.672 328.549 400.261 327.774C399.85 326.999 399.645 326.103 399.645 325.086C399.645 324.078 399.86 323.191 400.289 322.426C400.728 321.651 401.334 321.054 402.109 320.634C402.884 320.214 403.761 320.004 404.741 320.004C405.236 320.004 405.721 320.055 406.197 320.158C406.682 320.261 407.107 320.396 407.471 320.564L407.317 321.964C406.458 321.609 405.609 321.432 404.769 321.432C403.63 321.432 402.772 321.768 402.193 322.44C401.614 323.112 401.325 323.994 401.325 325.086C401.325 326.206 401.614 327.102 402.193 327.774C402.781 328.437 403.635 328.768 404.755 328.768C405.315 328.768 405.819 328.698 406.267 328.558V326.402H404.811V325.086H407.793V329.454C407.41 329.678 406.93 329.86 406.351 330C405.782 330.131 405.17 330.196 404.517 330.196ZM416.666 327.494H412.984L412.102 330H410.562L414.062 320.2H415.588L419.102 330H417.548L416.666 327.494ZM416.19 326.136L414.832 322.286L413.474 326.136H416.19ZM422.28 320.2H425.626C426.69 320.2 427.52 320.447 428.118 320.942C428.715 321.437 429.014 322.183 429.014 323.182C429.014 324.461 428.449 325.371 427.32 325.912L429.518 330H427.74L425.794 326.262H425.724H423.848V330H422.28V320.2ZM425.416 324.932C426.088 324.932 426.587 324.783 426.914 324.484C427.25 324.176 427.418 323.756 427.418 323.224C427.418 322.673 427.254 322.253 426.928 321.964C426.601 321.665 426.106 321.516 425.444 321.516H423.848V324.932H425.416Z" fill="white"/>
<path d="M98.2154 273.2H101.547C103.806 273.2 104.935 274.259 104.935 276.378C104.935 277.461 104.641 278.268 104.053 278.8C103.475 279.323 102.649 279.584 101.575 279.584H99.7834V283H98.2154V273.2ZM101.365 278.268C102.037 278.268 102.541 278.114 102.877 277.806C103.213 277.498 103.381 277.027 103.381 276.392C103.381 275.748 103.218 275.277 102.891 274.978C102.565 274.67 102.051 274.516 101.351 274.516H99.7834V278.268H101.365ZM112.62 283.196C111.686 283.196 110.856 282.986 110.128 282.566C109.4 282.146 108.826 281.553 108.406 280.788C107.995 280.013 107.79 279.117 107.79 278.1C107.79 277.083 107.995 276.191 108.406 275.426C108.826 274.651 109.4 274.054 110.128 273.634C110.856 273.214 111.686 273.004 112.62 273.004C113.553 273.004 114.384 273.214 115.112 273.634C115.84 274.054 116.409 274.651 116.82 275.426C117.24 276.191 117.45 277.083 117.45 278.1C117.45 279.117 117.24 280.013 116.82 280.788C116.409 281.553 115.84 282.146 115.112 282.566C114.384 282.986 113.553 283.196 112.62 283.196ZM112.62 281.712C113.31 281.712 113.894 281.558 114.37 281.25C114.855 280.933 115.219 280.503 115.462 279.962C115.704 279.411 115.826 278.791 115.826 278.1C115.826 277.409 115.704 276.793 115.462 276.252C115.219 275.701 114.855 275.272 114.37 274.964C113.894 274.647 113.31 274.488 112.62 274.488C111.929 274.488 111.341 274.647 110.856 274.964C110.38 275.272 110.016 275.701 109.764 276.252C109.521 276.793 109.4 277.409 109.4 278.1C109.4 278.791 109.521 279.411 109.764 279.962C110.016 280.503 110.38 280.933 110.856 281.25C111.341 281.558 111.929 281.712 112.62 281.712ZM129.162 283L128.266 275.958L125.676 280.788L123.044 275.972L122.148 283H120.552L121.896 273.2H123.17L125.662 277.89L128.14 273.2H129.428L130.758 283H129.162ZM134.444 273.2H140.548V274.628H135.984V277.162H139.568V278.59H135.984V281.572H140.674V283H134.444V273.2ZM148.425 283.196C147.473 283.196 146.628 282.986 145.891 282.566C145.154 282.146 144.58 281.549 144.169 280.774C143.758 279.999 143.553 279.103 143.553 278.086C143.553 277.078 143.768 276.191 144.197 275.426C144.636 274.651 145.242 274.054 146.017 273.634C146.792 273.214 147.669 273.004 148.649 273.004C149.144 273.004 149.629 273.055 150.105 273.158C150.59 273.261 151.015 273.396 151.379 273.564L151.225 274.964C150.366 274.609 149.517 274.432 148.677 274.432C147.538 274.432 146.68 274.768 146.101 275.44C145.522 276.112 145.233 276.994 145.233 278.086C145.233 279.206 145.522 280.102 146.101 280.774C146.689 281.437 147.543 281.768 148.663 281.768C149.223 281.768 149.727 281.698 150.175 281.558V279.402H148.719V278.086H151.701V282.454C151.318 282.678 150.838 282.86 150.259 283C149.69 283.131 149.078 283.196 148.425 283.196ZM155.506 273.2H158.852C159.916 273.2 160.747 273.447 161.344 273.942C161.942 274.437 162.24 275.183 162.24 276.182C162.24 277.461 161.676 278.371 160.546 278.912L162.744 283H160.966L159.02 279.262H158.95H157.074V283H155.506V273.2ZM158.642 277.932C159.314 277.932 159.814 277.783 160.14 277.484C160.476 277.176 160.644 276.756 160.644 276.224C160.644 275.673 160.481 275.253 160.154 274.964C159.828 274.665 159.333 274.516 158.67 274.516H157.074V277.932H158.642ZM171.16 280.494H167.478L166.596 283H165.056L168.556 273.2H170.082L173.596 283H172.042L171.16 280.494ZM170.684 279.136L169.326 275.286L167.968 279.136H170.684ZM176.774 273.2H178.342L182.906 280.102V273.2H184.446V283H183.158L178.3 275.692V283H176.774V273.2ZM193.713 280.494H190.031L189.149 283H187.609L191.109 273.2H192.635L196.149 283H194.595L193.713 280.494ZM193.237 279.136L191.879 275.286L190.521 279.136H193.237ZM200.493 274.628H197.679V273.2H204.847V274.628H202.019V283H200.493V274.628ZM208.163 273.2H214.267V274.628H209.703V277.162H213.287V278.59H209.703V281.572H214.393V283H208.163V273.2ZM134.844 301.092C135.302 301.092 135.628 300.989 135.824 300.784C136.03 300.588 136.132 300.257 136.132 299.79V290.2H137.658V300.14C137.658 300.924 137.472 301.498 137.098 301.862C136.725 302.226 136.17 302.408 135.432 302.408H135.012L134.844 301.092ZM145.799 300.196C144.455 300.196 143.442 299.813 142.761 299.048C142.08 298.273 141.739 297.2 141.739 295.828V290.2H143.265V295.422C143.265 296.477 143.442 297.298 143.797 297.886C144.152 298.474 144.819 298.768 145.799 298.768C146.779 298.768 147.446 298.474 147.801 297.886C148.156 297.298 148.333 296.477 148.333 295.422V290.2H149.859V295.828C149.859 297.2 149.518 298.273 148.837 299.048C148.156 299.813 147.143 300.196 145.799 300.196ZM153.941 290.2H155.467V300H153.941V290.2ZM164.056 300.196C163.094 300.196 162.236 299.986 161.48 299.566C160.724 299.146 160.131 298.553 159.702 297.788C159.282 297.013 159.072 296.117 159.072 295.1C159.072 294.083 159.286 293.191 159.716 292.426C160.154 291.651 160.752 291.054 161.508 290.634C162.273 290.214 163.141 290.004 164.112 290.004C164.597 290.004 165.059 290.055 165.498 290.158C165.946 290.261 166.342 290.401 166.688 290.578L166.534 292.006C165.684 291.623 164.872 291.432 164.098 291.432C163.379 291.432 162.768 291.591 162.264 291.908C161.769 292.225 161.391 292.659 161.13 293.21C160.878 293.761 160.752 294.391 160.752 295.1C160.752 295.809 160.878 296.439 161.13 296.99C161.382 297.541 161.755 297.975 162.25 298.292C162.744 298.609 163.346 298.768 164.056 298.768C164.513 298.768 164.938 298.721 165.33 298.628C165.722 298.525 166.123 298.381 166.534 298.194L166.688 299.636C165.857 300.009 164.98 300.196 164.056 300.196ZM170.246 290.2H176.35V291.628H171.786V294.162H175.37V295.59H171.786V298.572H176.476V300H170.246V290.2Z" fill="white"/>
<path d="M266.336 357.652C266.952 357.82 267.419 358.119 267.736 358.548C268.063 358.977 268.226 359.528 268.226 360.2C268.226 361.068 267.946 361.754 267.386 362.258C266.826 362.753 266.056 363 265.076 363H261.212V353.2H264.558C265.473 353.2 266.168 353.401 266.644 353.802C267.13 354.203 267.372 354.796 267.372 355.58C267.372 356.056 267.284 356.471 267.106 356.826C266.929 357.181 266.672 357.456 266.336 357.652ZM262.738 357.176H264.348C264.834 357.176 265.202 357.078 265.454 356.882C265.706 356.686 265.832 356.35 265.832 355.874C265.832 355.398 265.706 355.062 265.454 354.866C265.202 354.661 264.834 354.558 264.348 354.558H262.738V357.176ZM264.894 361.628C265.436 361.628 265.856 361.507 266.154 361.264C266.453 361.012 266.602 360.625 266.602 360.102C266.602 359.066 266.033 358.548 264.894 358.548H262.738V361.628H264.894ZM271.744 353.2H277.848V354.628H273.284V357.162H276.868V358.59H273.284V361.572H277.974V363H271.744V353.2ZM281.578 353.2H287.682V354.628H283.118V357.162H286.702V358.59H283.118V361.572H287.808V363H281.578V353.2ZM293.33 354.628H290.516V353.2H297.684V354.628H294.856V363H293.33V354.628ZM257.844 381.092C258.302 381.092 258.628 380.989 258.824 380.784C259.03 380.588 259.132 380.257 259.132 379.79V370.2H260.658V380.14C260.658 380.924 260.472 381.498 260.098 381.862C259.725 382.226 259.17 382.408 258.432 382.408H258.012L257.844 381.092ZM268.799 380.196C267.455 380.196 266.442 379.813 265.761 379.048C265.08 378.273 264.739 377.2 264.739 375.828V370.2H266.265V375.422C266.265 376.477 266.442 377.298 266.797 377.886C267.152 378.474 267.819 378.768 268.799 378.768C269.779 378.768 270.446 378.474 270.801 377.886C271.156 377.298 271.333 376.477 271.333 375.422V370.2H272.859V375.828C272.859 377.2 272.518 378.273 271.837 379.048C271.156 379.813 270.143 380.196 268.799 380.196ZM276.941 370.2H278.467V380H276.941V370.2ZM287.056 380.196C286.094 380.196 285.236 379.986 284.48 379.566C283.724 379.146 283.131 378.553 282.702 377.788C282.282 377.013 282.072 376.117 282.072 375.1C282.072 374.083 282.286 373.191 282.716 372.426C283.154 371.651 283.752 371.054 284.508 370.634C285.273 370.214 286.141 370.004 287.112 370.004C287.597 370.004 288.059 370.055 288.498 370.158C288.946 370.261 289.342 370.401 289.688 370.578L289.534 372.006C288.684 371.623 287.872 371.432 287.098 371.432C286.379 371.432 285.768 371.591 285.264 371.908C284.769 372.225 284.391 372.659 284.13 373.21C283.878 373.761 283.752 374.391 283.752 375.1C283.752 375.809 283.878 376.439 284.13 376.99C284.382 377.541 284.755 377.975 285.25 378.292C285.744 378.609 286.346 378.768 287.056 378.768C287.513 378.768 287.938 378.721 288.33 378.628C288.722 378.525 289.123 378.381 289.534 378.194L289.688 379.636C288.857 380.009 287.98 380.196 287.056 380.196ZM293.246 370.2H299.35V371.628H294.786V374.162H298.37V375.59H294.786V378.572H299.476V380H293.246V370.2Z" fill="white"/>
<path d="M152.704 107.212C155.896 108.244 157.492 110.452 157.492 113.836C157.492 116.092 156.76 117.856 155.296 119.128C153.832 120.376 151.828 121 149.284 121H138.772V95.8H148.276C153.076 95.8 155.476 97.828 155.476 101.884C155.476 104.38 154.552 106.156 152.704 107.212ZM143.38 105.7H147.592C148.72 105.7 149.56 105.472 150.112 105.016C150.664 104.536 150.94 103.804 150.94 102.82C150.94 101.788 150.664 101.044 150.112 100.588C149.56 100.132 148.72 99.904 147.592 99.904H143.38V105.7ZM148.6 116.896C149.944 116.896 150.964 116.632 151.66 116.104C152.38 115.552 152.74 114.628 152.74 113.332C152.74 112.06 152.368 111.16 151.624 110.632C150.904 110.08 149.896 109.804 148.6 109.804H143.38V116.896H148.6ZM169.875 105.844C171.267 105.844 172.527 106.168 173.655 106.816C174.783 107.464 175.659 108.364 176.283 109.516C176.931 110.668 177.255 111.976 177.255 113.44C177.255 115.024 176.919 116.428 176.247 117.652C175.575 118.876 174.615 119.824 173.367 120.496C172.119 121.168 170.655 121.504 168.975 121.504C167.247 121.504 165.723 121.12 164.403 120.352C163.083 119.56 162.063 118.456 161.343 117.04C160.623 115.624 160.263 113.98 160.263 112.108C160.263 109.564 160.839 107.176 161.991 104.944C163.143 102.712 164.595 100.78 166.347 99.148C168.123 97.516 169.935 96.232 171.783 95.296L174.987 97.816C173.235 98.68 171.411 99.928 169.515 101.56C167.619 103.168 166.227 105.004 165.339 107.068C166.587 106.252 168.099 105.844 169.875 105.844ZM169.047 117.688C170.199 117.688 171.159 117.304 171.927 116.536C172.695 115.744 173.079 114.772 173.079 113.62C173.079 112.492 172.695 111.556 171.927 110.812C171.159 110.044 170.199 109.66 169.047 109.66C167.871 109.66 166.899 110.044 166.131 110.812C165.387 111.556 165.015 112.492 165.015 113.62C165.015 114.772 165.399 115.744 166.167 116.536C166.935 117.304 167.895 117.688 169.047 117.688Z" fill="white"/>
<path d="M267.704 218.212C270.896 219.244 272.492 221.452 272.492 224.836C272.492 227.092 271.76 228.856 270.296 230.128C268.832 231.376 266.828 232 264.284 232H253.772V206.8H263.276C268.076 206.8 270.476 208.828 270.476 212.884C270.476 215.38 269.552 217.156 267.704 218.212ZM258.38 216.7H262.592C263.72 216.7 264.56 216.472 265.112 216.016C265.664 215.536 265.94 214.804 265.94 213.82C265.94 212.788 265.664 212.044 265.112 211.588C264.56 211.132 263.72 210.904 262.592 210.904H258.38V216.7ZM263.6 227.896C264.944 227.896 265.964 227.632 266.66 227.104C267.38 226.552 267.74 225.628 267.74 224.332C267.74 223.06 267.368 222.16 266.624 221.632C265.904 221.08 264.896 220.804 263.6 220.804H258.38V227.896H263.6ZM278.719 213.316C277.711 213.988 276.655 214.42 275.551 214.612L275.155 210.724C275.947 210.556 276.835 210.076 277.819 209.284C278.803 208.468 279.463 207.64 279.799 206.8H283.327V232H278.719V213.316ZM295.032 221.812C296.424 219.676 297.372 218.068 297.876 216.988C298.404 215.908 298.668 214.888 298.668 213.928C298.668 212.896 298.368 212.092 297.768 211.516C297.192 210.916 296.388 210.616 295.356 210.616C294.204 210.616 293.136 210.892 292.152 211.444C291.168 211.996 290.208 212.74 289.272 213.676L288.696 209.032C289.824 208.12 291 207.436 292.224 206.98C293.448 206.524 294.804 206.296 296.292 206.296C297.756 206.296 299.004 206.608 300.036 207.232C301.068 207.832 301.836 208.648 302.34 209.68C302.868 210.712 303.132 211.852 303.132 213.1C303.132 214.516 302.82 215.968 302.196 217.456C301.596 218.944 300.528 220.852 298.992 223.18L296.04 227.68H304.032V232H288.408L295.032 221.812Z" fill="white"/>
<defs>
<linearGradient id="paint0_linear" x1="153" y1="141" x2="154.5" y2="71.5" gradientUnits="userSpaceOnUse">
<stop stop-color="#16BAC5"/>
<stop offset="1" stop-color="#18CBD7"/>
</linearGradient>
<linearGradient id="paint1_linear" x1="296" y1="42" x2="296" y2="110" gradientUnits="userSpaceOnUse">
<stop stop-color="#84D310"/>
<stop offset="1" stop-color="#79C10F"/>
</linearGradient>
<linearGradient id="paint2_linear" x1="396" y1="264" x2="396" y2="354" gradientUnits="userSpaceOnUse">
<stop stop-color="#FFAE02"/>
<stop offset="1" stop-color="#EDA100"/>
</linearGradient>
<linearGradient id="paint3_linear" x1="156" y1="219" x2="156" y2="347" gradientUnits="userSpaceOnUse">
<stop stop-color="#E41364"/>
<stop offset="1" stop-color="#C01054"/>
</linearGradient>
<linearGradient id="paint4_linear" x1="279" y1="332" x2="279" y2="400" gradientUnits="userSpaceOnUse">
<stop stop-color="#C01045"/>
<stop offset="1" stop-color="#9C0D38"/>
</linearGradient>
</defs>
</svg>
