<svg width="268" height="113" viewBox="0 0 268 113" fill="none" xmlns="http://www.w3.org/2000/svg">
<path d="M97.7771 4.53909C98.3529 4.57972 99.1516 5.0786 99.5489 5.71934C99.9341 6.29115 99.8002 6.74124 99.2365 6.76954C94.3665 6.56206 85.2711 7.38395 75.3319 10.2738C79.2934 11.7787 82.4925 14.2 84.6533 17.5862C88.1357 23.2272 89.3226 31.974 84.4145 43.6436C78.3584 58.0744 64.1361 68.1167 52.3153 71.6226C48.3332 72.8223 44.5052 73.2841 41.1518 72.8092C37.4415 72.3261 34.1815 70.7685 31.7854 68.0635C28.6554 64.4217 27.4276 58.6675 29.3548 50.651C32.8929 35.2426 41.7951 24.859 52.1565 17.9142C56.7878 14.752 61.6906 12.3237 66.6217 10.4591C63.5359 10.2924 60.2351 10.519 56.8329 10.9768C37.0888 13.8896 13.3045 26.5419 3.82567 42.9268C3.59855 43.2511 2.87272 43.1659 2.21183 42.6427C1.56309 42.1885 0.719872 40.6312 0.934842 40.2379C10.5272 23.6908 33.9465 11.3872 53.8407 8.51903C59.5299 7.7291 66.1152 7.98954 70.7621 8.94716C81.926 5.34383 92.3556 4.42885 97.7771 4.53909ZM72.3716 11.2222C66.3943 13.2002 60.137 16.0095 54.35 19.8731C44.1954 26.7814 35.4068 37.0028 31.8322 52.2044C30.0956 59.6897 30.983 64.7221 33.5656 67.6785C34.9968 69.3453 37.2269 70.3026 39.9234 70.6801C42.9768 71.0658 46.5979 70.6405 50.3854 69.5462C61.9873 66.0078 75.0579 55.8843 81.0126 41.6845C85.7626 30.3272 85.6542 22.4564 82.488 17.3994C80.5379 14.4025 77.2739 12.4191 73.1096 11.3764C72.8785 11.275 72.6595 11.2426 72.3716 11.2222ZM92.6372 35.2989C92.8643 34.9746 93.6023 35.1288 94.251 35.583C94.9119 36.1062 95.2403 36.7591 95.0942 37.1402C90.9126 44.0615 91.2283 48.2707 91.7838 48.5992C92.7325 49.1427 97.4451 44.8288 100.061 37.8992L100.22 37.587C100.447 37.2626 101.173 37.3479 101.834 37.8711C102.482 38.3253 102.892 39.035 102.665 39.3594C102.665 39.3594 102.563 39.5905 102.267 39.927C101.565 41.188 97.6837 49.407 102.416 46.0136C104.874 44.2297 107.595 41.1199 108.974 38.4601C109.189 38.0667 109.343 37.3288 110.073 37.8398C110.722 38.294 110.45 38.7684 110.223 39.0928C108.787 41.8338 106.739 45.5357 104.212 47.3317C102.006 48.9291 98.8759 48.9124 97.9396 46.0211C92.1481 53.0841 86.3697 52.9657 88.6783 43.8869C89.4329 40.9106 91.1852 37.5452 92.6372 35.2989ZM111.723 30.512C111.869 30.1308 112.595 30.2161 113.244 30.6703C113.961 31.1124 114.371 31.8221 114.225 32.2032L112.391 36.7202C114.598 35.1229 117.712 33.4364 119.395 34.9167C120.137 35.4967 120.209 37.1187 121.118 37.0296C122.44 36.8676 124.321 36.2515 126.085 35.3718C126.475 35.161 126.827 34.7434 127.35 35.2909C127.955 35.8952 127.715 36.1506 127.314 36.2925C125.424 37.2654 122.237 38.5382 120.765 38.6556C118.948 38.8338 118.311 38.4485 116.479 36.9236C115.226 35.865 110.051 42.3928 110.051 42.3928C109.925 42.4861 107.41 49.1846 107.175 49.8658C107.029 50.2469 106.303 50.1617 105.654 49.7074C104.937 49.2653 104.527 48.5557 104.673 48.1745L111.723 30.512ZM187.314 38.7204C187.878 38.6921 188.664 39.1221 189.131 39.7507C189.585 40.3103 189.601 40.805 189.049 40.9023C174.216 42.2383 163.511 44.4103 155.915 46.8869C152.67 55.4911 148.825 63.9169 146.481 64.3301C143.298 64.8203 140.236 63.5831 138.432 61.4135C137.431 60.1685 136.875 58.6315 137.09 57.0298C137.33 55.566 138.121 54.005 139.751 52.367C142.225 49.8694 146.597 47.2505 153.572 44.8834C154.639 42.0653 156.273 37.2279 157.17 34.6531C155.422 37.2359 151.375 40.082 149.797 40.0047C147.218 39.8908 146.529 38.804 146.566 36.594C146.623 31.6794 153.031 24.0812 158.403 28.7492C159.604 26.6895 160.395 25.1284 160.395 25.1284C160.541 24.7473 161.198 24.8447 161.834 25.23C162.552 25.6721 162.962 26.3818 162.884 26.7508L162.357 28.1943L162.3 28.2754C162.312 28.3443 159.988 35.72 157.083 43.8377C164.452 41.6855 174.366 39.8662 187.314 38.7204ZM152.371 48.1515C147.395 50.1662 144.066 52.2459 142.083 54.3015C140.566 55.7773 139.832 57.2573 139.625 58.5022C139.474 59.6659 139.77 60.5378 140.237 61.1664C141.027 62.0221 142.665 62.444 144.608 62.1726C146.469 61.8444 149.54 55.4745 152.371 48.1515ZM157.645 30.0913C153.826 26.5711 146.61 38.8608 150.093 38.4598C151.979 38.2695 156.554 33.9799 157.645 30.0913ZM168.844 21.8616C169.071 21.5372 169.809 21.6914 170.458 22.1456C171.119 22.6688 171.447 23.3217 171.301 23.7029C167.12 30.6242 167.435 34.8333 167.991 35.1618C168.94 35.7053 173.652 31.3915 176.269 24.4618L176.427 24.1496C176.654 23.8253 177.38 23.9105 178.041 24.4337C178.689 24.888 179.099 25.5976 178.872 25.922C178.872 25.922 178.77 26.1531 178.474 26.4896C177.773 27.7506 173.891 35.9696 178.623 32.5762C181.081 30.7924 183.802 27.6826 185.181 25.0227C185.396 24.6294 185.551 23.8914 186.28 24.4024C186.929 24.8567 186.657 25.3311 186.43 25.6554C184.994 28.3964 182.946 32.0983 180.42 33.8943C178.214 35.4917 175.083 35.475 174.147 32.5837C168.355 39.6467 162.577 39.5283 164.885 30.4495C165.64 27.4732 167.392 24.1078 168.844 21.8616ZM186.292 19.0694C186.369 18.7004 187.095 18.7857 187.744 19.2399C188.461 19.682 188.927 20.3106 188.794 20.7607L187.93 23.1165C189.702 20.6716 191.466 18.5835 192.691 17.87C196.71 15.6687 196.847 20.478 196.21 24.9262C196.392 24.7518 196.644 24.5654 196.838 24.46C197.41 24.0748 197.925 23.7708 198.408 23.6857C199.498 23.4222 200.492 23.8157 201.343 25.0161C201.822 25.7136 202.028 26.8856 201.756 28.5683C201.712 28.7184 208.075 21.2702 208.144 21.2581C208.371 20.9337 208.858 20.066 209.519 20.5892C210.236 21.0313 210.24 21.4571 210.013 21.7814C209.956 21.8625 196.544 42.1397 199.21 27.0271C199.23 26.7392 199.263 26.5202 199.283 26.2323L199.032 26.4188C197.341 27.7121 195.28 30.1367 194.944 31.049L194.956 31.118C194.822 31.5681 194.177 31.5396 193.459 31.0975C192.742 30.6554 192.332 29.9457 192.409 29.5767C192.397 29.5078 195.022 19.8046 194.828 19.91C191.336 21.8762 183.548 35.7594 183.492 35.8405C183.333 36.1527 182.677 36.0553 182.04 35.6699C181.391 35.2157 180.913 34.5182 181.059 34.137L186.292 19.0694ZM209.652 14.9503C209.729 14.5813 210.455 14.6666 211.104 15.1209C211.822 15.5629 212.288 16.1915 212.154 16.6416L211.29 18.9975C213.062 16.5525 214.826 14.4645 216.051 13.751C220.07 11.5497 220.207 16.3589 219.57 20.8071C219.752 20.6328 220.004 20.4463 220.199 20.3409C220.77 19.9558 221.285 19.6517 221.768 19.5666C222.859 19.3032 223.852 19.6967 224.704 20.8971C225.182 21.5946 225.389 22.7665 225.117 24.4493C225.072 24.5993 231.435 17.1512 231.504 17.139C231.731 16.8147 232.218 15.947 232.879 16.4701C233.597 16.9122 233.601 17.338 233.374 17.6624C233.317 17.7435 219.904 38.0206 222.57 22.908C222.591 22.6201 222.623 22.4012 222.643 22.1133L222.392 22.2998C220.701 23.5931 218.641 26.0177 218.304 26.93L218.316 26.9989C218.182 27.449 217.537 27.4205 216.82 26.9784C216.102 26.5364 215.693 25.8267 215.77 25.4577C215.758 25.3887 218.383 15.6855 218.188 15.7909C214.696 17.7571 206.909 31.6403 206.852 31.7214C206.694 32.0336 206.037 31.9362 205.4 31.5509C204.752 31.0966 204.273 30.3991 204.419 30.018L209.652 14.9503ZM235.267 10.7181C235.563 10.3815 236.301 10.5357 236.962 11.0589C237.623 11.5821 237.951 12.235 237.655 12.5715C236.37 14.1487 234.411 17.5506 233.405 20.7134C232.78 22.8138 233.043 23.9046 233.793 24.1277C236.693 24.043 243.032 15.2486 243.02 15.1796C243.247 14.8553 243.632 14.2187 244.293 14.7419C245.023 15.2529 244.784 15.5083 244.556 15.8327C244.487 15.8449 235.232 30.2712 231.356 25.6237C230.087 24.0704 230.156 21.6415 230.915 19.091C231.909 15.8593 233.913 12.3074 235.267 10.7181ZM239.189 7.96527C238.974 8.35857 238.236 8.20438 237.587 7.75013C236.926 7.22694 236.529 6.5862 236.744 6.1929L239.826 1.10026C240.041 0.706951 240.71 0.8733 241.428 1.31539C242.089 1.83858 242.417 2.49148 242.271 2.87263L239.189 7.96527ZM245.658 14.0036C246.575 13.5577 247.536 12.9617 248.554 12.2847C249.868 11.2711 250.853 9.60463 251.381 8.16113C251.47 7.86107 251.502 7.64211 251.592 7.34205C250.894 7.82044 250.095 8.52996 249.195 9.47059C247.998 10.7477 246.644 12.3371 245.658 14.0036ZM250.747 14.2435C247.799 16.4693 244.218 17.5272 244.011 17.5636C241.098 28.4549 258.204 16.6248 259.66 12.3876C259.794 11.9375 260.399 11.3334 261.116 11.7755C261.765 12.2297 261.814 12.5055 261.68 12.9556C260.345 16.6738 250.904 26.0152 245.673 24.1654C243.098 23.2689 241.164 20.7667 241.242 17.9809C241.283 16.1967 242.001 14.222 243.1 12.3934C244.211 10.6337 245.541 8.90643 246.864 7.53603C248.62 5.8048 250.335 4.64936 251.118 4.65353C251.762 4.682 252.375 4.92944 252.954 5.39585C253.777 6.03259 254.211 6.88015 254.219 7.7317C254.26 8.36428 254.093 9.03333 253.87 9.78347C253.367 11.3649 252.256 13.1246 250.747 14.2435ZM260.36 14.2545C260.133 14.5788 259.379 15.1383 258.73 14.6841C258.069 14.1609 259.298 12.6648 259.525 12.3404L263.589 5.15552C264.315 4.03238 264.907 3.35934 264.907 3.35934C265.134 3.03497 265.872 3.18916 266.464 3.7245C267.113 4.17875 267.522 4.88843 267.295 5.2128L265.92 7.09007C264.764 8.99981 263.357 12.3044 264.674 15.3418C265.44 17.268 265.513 18.89 265.168 20.1592C264.933 20.8404 264.536 21.4081 264.126 21.9068C263.704 22.3365 263.201 22.7095 262.674 22.9446C261.746 23.3216 260.756 23.3539 259.925 23.074C255.643 21.7677 257.099 17.5304 257.087 17.4615C257.233 17.0804 257.878 17.1088 258.596 17.5509C259.313 17.993 259.723 18.7027 259.646 19.0717C259.658 19.1406 258.997 21.0342 259.147 21.0788C259.447 21.1681 259.998 21.0709 260.525 20.8357C260.996 20.6817 261.442 20.3898 261.795 19.9722C262.16 19.6235 262.488 19.068 262.61 18.549C262.922 17.4988 262.91 16.2215 262.286 14.6967C262.128 13.8006 261.495 13.841 262.615 10.5161L260.36 14.2545ZM43.0402 89.5658C43.4375 90.2065 43.3036 90.6566 42.7278 90.616C42.152 90.5754 41.3533 90.0765 40.9681 89.5047C39.3584 88.438 36.2601 90.6191 35.2016 91.872C33.0156 94.3898 32.0055 97.1268 31.8064 100.432C34.0976 99.3168 39.0824 90.9034 39.0824 90.9034C39.3095 90.579 39.9664 90.6764 40.6962 91.1875C41.276 91.6539 41.6611 92.2257 41.5151 92.6068C41.438 92.9758 40.9268 94.914 41.6808 96.7713C42.2483 98.3772 49.8851 89.2829 50.0108 89.1897C50.2379 88.8653 50.7286 88.4234 51.3774 88.8776C52.0383 89.4008 52.0666 89.9644 51.8394 90.2888C48.0068 95.1583 45.7437 98.0452 44.0526 99.3385C41.1732 101.552 38.5903 101.012 38.0636 97.6224C35.9952 100.404 33.8213 102.991 32.1832 102.569C31.5952 102.459 31.1087 102.118 30.6221 101.778C29.7747 101.003 29.3288 100.087 29.2844 99.0282C29.2074 98.1888 29.3252 97.244 29.5808 96.2749C30.1366 94.1867 31.3453 91.7701 32.8824 90.0064C35.5348 86.9087 41.1633 85.7741 43.0402 89.5658ZM52.6947 81.5373C52.8407 81.1562 53.5666 81.2414 54.2153 81.6957C54.933 82.1378 55.3424 82.8475 55.1964 83.2286L53.3629 87.7456C55.5691 86.1483 58.6835 84.4618 60.3661 85.9421C61.1081 86.5221 61.1809 88.1441 62.0892 88.055C63.4112 87.893 65.2928 87.2769 67.0568 86.3972C67.4461 86.1864 67.799 85.7688 68.322 86.3163C68.9261 86.9206 68.6868 87.176 68.2853 87.3179C66.3956 88.2908 63.2082 89.5636 61.7362 89.681C59.9195 89.8592 59.283 89.4739 57.4503 87.9489C56.1975 86.8904 51.0224 93.4182 51.0224 93.4182C50.8967 93.5115 48.3817 100.21 48.1464 100.891C48.0003 101.272 47.2745 101.187 46.6258 100.733C45.9081 100.291 45.4986 99.581 45.6447 99.1999L52.6947 81.5373ZM69.7608 85.6361C70.6773 85.1902 71.6384 84.5942 72.6563 83.9172C73.9703 82.9036 74.9559 81.2372 75.4832 79.7937C75.5725 79.4936 75.6049 79.2746 75.6942 78.9746C74.9967 79.453 74.1977 80.1625 73.2974 81.1031C72.101 82.3803 70.7464 83.9696 69.7608 85.6361ZM74.8498 85.8761C71.9015 88.1018 68.3208 89.1597 68.114 89.1962C65.201 100.087 82.3066 88.2574 83.7629 84.0201C83.8968 83.57 84.5011 82.9659 85.2187 83.408C85.8675 83.8623 85.9161 84.138 85.7822 84.5881C84.4476 88.3063 75.0063 97.6477 69.7756 95.7979C67.2008 94.9014 65.2669 92.3992 65.3444 89.6134C65.3852 87.8293 66.1032 85.8546 67.2023 84.0259C68.3136 82.2662 69.6439 80.539 70.966 79.1686C72.7221 77.4373 74.4375 76.2819 75.2201 76.2861C75.8649 76.3145 76.4771 76.562 77.0569 77.0284C77.88 77.6651 78.3138 78.5127 78.3218 79.3642C78.3622 79.9968 78.1959 80.6659 77.9728 81.416C77.4697 82.9974 76.3584 84.7571 74.8498 85.8761ZM145.259 86.753C145.822 86.7247 146.609 87.1547 147.075 87.7833C147.529 88.3429 147.545 88.8376 146.994 88.9349C132.16 90.2709 121.455 92.4429 113.86 94.9195C110.614 103.524 106.769 111.949 104.425 112.363C101.242 112.853 98.1807 111.616 96.3765 109.446C95.3751 108.201 94.8198 106.664 95.0349 105.062C95.2744 103.599 96.0653 102.038 97.6956 100.4C100.17 97.902 104.541 95.2831 111.516 92.916C112.774 89.5667 113.962 86.2296 114.948 83.3548C113.139 85.5929 111.188 87.4295 109.716 87.5469C109.084 87.5874 108.577 87.5346 108.046 87.3439C106.533 86.8287 105.568 85.7905 105.313 84.3429C105.098 83.5278 105.192 82.4451 105.48 81.257C105.987 78.893 107.305 75.8885 109.049 72.8799C109.264 72.4866 110.002 72.6408 110.651 73.0951C111.312 73.6182 111.709 74.259 111.494 74.6523C109.738 77.5919 108.477 80.5154 107.957 82.8104C107.868 83.1105 107.998 84.6514 108.46 84.8542C113.399 85.0496 119.467 71.896 118.842 71.5796L118.855 71.6486C119.07 71.2553 119.657 71.3648 120.375 71.8069C121.024 72.2612 121.49 72.8898 121.344 73.2709L120.302 76.2269L120.245 76.308C120.257 76.3769 117.932 83.7526 115.028 91.8703C122.396 89.7181 132.311 87.8988 145.259 86.753ZM110.315 96.1841C105.34 98.1988 102.01 100.279 100.027 102.334C98.5102 103.81 97.7761 105.29 97.5691 106.535C97.4189 107.699 97.7148 108.57 98.181 109.199C98.9716 110.055 100.61 110.477 102.552 110.205C104.413 109.877 107.484 103.507 110.315 96.1841ZM125.973 70.038C126.2 69.7137 126.938 69.8678 127.587 70.3221C128.248 70.8453 128.576 71.4982 128.43 71.8793C124.248 78.8006 124.564 83.0097 125.119 83.3383C126.068 83.8818 130.781 79.5679 133.397 72.6383L133.555 72.3261C133.782 72.0017 134.508 72.087 135.169 72.6102C135.818 73.0644 136.227 73.7741 136 74.0985C136 74.0985 135.899 74.3296 135.603 74.6661C134.901 75.9271 131.019 84.146 135.752 80.7527C138.21 78.9688 140.931 75.859 142.31 73.1991C142.525 72.8058 142.679 72.0678 143.409 72.5789C144.058 73.0331 143.786 73.5075 143.559 73.8319C142.123 76.5729 140.075 80.2748 137.548 82.0708C135.342 83.6682 132.212 83.6515 131.275 80.7602C125.484 87.8231 119.705 87.7047 122.014 78.6259C122.769 75.6497 124.521 72.2843 125.973 70.038ZM143.42 67.2459C143.498 66.8769 144.223 66.9621 144.872 67.4164C145.59 67.8585 146.056 68.4871 145.922 68.9371L145.058 71.293C146.83 68.8481 148.595 66.76 149.819 66.0465C153.838 63.8452 153.975 68.6544 153.338 73.1027C153.521 72.9283 153.772 72.7418 153.967 72.6364C154.539 72.2513 155.054 71.9472 155.536 71.8621C156.627 71.5987 157.62 71.9922 158.472 73.1926C158.95 73.8901 159.157 75.062 158.885 76.7448C158.84 76.8948 165.204 69.4467 165.272 69.4345C165.5 69.1102 165.986 68.2425 166.647 68.7657C167.365 69.2078 167.369 69.6335 167.142 69.9579C167.085 70.039 153.672 90.3161 156.339 75.2036C156.359 74.9157 156.391 74.6967 156.412 74.4088L156.16 74.5953C154.469 75.8886 152.409 78.3132 152.072 79.2255L152.084 79.2945C151.95 79.7445 151.306 79.7161 150.588 79.274C149.87 78.8319 149.461 78.1222 149.538 77.7532C149.526 77.6843 152.151 67.981 151.956 68.0864C148.464 70.0526 140.677 83.9358 140.62 84.0169C140.462 84.3291 139.805 84.2317 139.168 83.8464C138.52 83.3922 138.041 82.6946 138.187 82.3135L143.42 67.2459ZM166.781 63.1268C166.858 62.7578 167.584 62.8431 168.232 63.2973C168.95 63.7394 169.416 64.368 169.282 64.8181L168.418 67.1739C170.191 64.729 171.955 62.6409 173.18 61.9274C177.198 59.7261 177.336 64.5354 176.698 68.9836C176.881 68.8093 177.132 68.6228 177.327 68.5174C177.899 68.1322 178.414 67.8282 178.896 67.7431C179.987 67.4797 180.981 67.8731 181.832 69.0735C182.31 69.771 182.517 70.943 182.245 72.6258C182.201 72.7758 188.564 65.3276 188.633 65.3155C188.86 64.9911 189.347 64.1234 190.008 64.6466C190.725 65.0887 190.729 65.5145 190.502 65.8388C190.445 65.9199 177.033 86.1971 179.699 71.0845C179.719 70.7966 179.752 70.5776 179.772 70.2897L179.521 70.4762C177.829 71.7695 175.769 74.1941 175.432 75.1065L175.445 75.1754C175.311 75.6255 174.666 75.597 173.948 75.1549C173.231 74.7128 172.821 74.0031 172.898 73.6341C172.886 73.5652 175.511 63.862 175.316 63.9674C171.825 65.9336 164.037 79.8168 163.98 79.8979C163.822 80.2101 163.165 80.1127 162.529 79.7273C161.88 79.2731 161.402 78.5756 161.548 78.1944L166.781 63.1268ZM192.396 58.8945C192.692 58.558 193.43 58.7122 194.091 59.2354C194.751 59.7586 195.08 60.4115 194.784 60.748C193.498 62.3252 191.539 65.7271 190.533 68.8898C189.908 70.9902 190.172 72.081 190.922 72.3042C193.821 72.2194 200.16 63.425 200.148 63.3561C200.375 63.0317 200.761 62.3951 201.422 62.9183C202.151 63.4294 201.912 63.6848 201.685 64.0092C201.616 64.0213 192.361 78.4477 188.485 73.8001C187.216 72.2469 187.285 69.818 188.043 67.2675C189.037 64.0358 191.041 60.4839 192.396 58.8945ZM196.317 56.1417C196.102 56.535 195.364 56.3808 194.716 55.9266C194.055 55.4034 193.657 54.7627 193.872 54.3694L196.955 49.2767C197.17 48.8834 197.839 49.0498 198.557 49.4919C199.217 50.015 199.546 50.6679 199.4 51.0491L196.317 56.1417ZM202.787 62.18C203.703 61.7341 204.664 61.1382 205.682 60.4611C206.996 59.4476 207.982 57.7811 208.509 56.3376C208.598 56.0375 208.631 55.8186 208.72 55.5185C208.023 55.9969 207.224 56.7064 206.323 57.6471C205.127 58.9242 203.772 60.5136 202.787 62.18ZM207.876 62.42C204.927 64.6458 201.347 65.7036 201.14 65.7401C198.227 76.6314 215.333 64.8013 216.789 60.564C216.923 60.114 217.527 59.5099 218.245 59.9519C218.893 60.4062 218.942 60.6819 218.808 61.132C217.474 64.8503 208.032 74.1917 202.802 72.3419C200.227 71.4453 198.293 68.9431 198.37 66.1574C198.411 64.3732 199.129 62.3985 200.228 60.5699C201.34 58.8101 202.67 57.0829 203.992 55.7125C205.748 53.9813 207.463 52.8258 208.246 52.83C208.891 52.8585 209.503 53.1059 210.083 53.5723C210.906 54.2091 211.34 55.0566 211.348 55.9082C211.388 56.5407 211.222 57.2098 210.999 57.9599C210.496 59.5413 209.384 61.301 207.876 62.42ZM217.488 62.4309C217.261 62.7553 216.507 63.3148 215.858 62.8605C215.197 62.3373 216.426 60.8412 216.653 60.5169L220.718 53.332C221.444 52.2088 222.036 51.5358 222.036 51.5358C222.263 51.2114 223.001 51.3656 223.593 51.901C224.241 52.3552 224.651 53.0649 224.424 53.3893L223.049 55.2665C221.893 57.1763 220.485 60.4809 221.803 63.5183C222.569 65.4445 222.642 67.0665 222.297 68.3357C222.062 69.0169 221.664 69.5845 221.254 70.0832C220.833 70.513 220.33 70.886 219.803 71.1211C218.874 71.4981 217.885 71.5304 217.053 71.2505C212.771 69.9442 214.228 65.7069 214.216 65.638C214.362 65.2568 215.006 65.2853 215.724 65.7274C216.442 66.1695 216.851 66.8792 216.774 67.2482C216.786 67.3171 216.125 69.2107 216.275 69.2553C216.575 69.3446 217.127 69.2473 217.654 69.0122C218.124 68.8582 218.57 68.5663 218.923 68.1487C219.288 67.8 219.617 67.2445 219.738 66.7255C220.051 65.6753 220.039 64.398 219.415 62.8732C219.257 61.977 218.624 62.0175 219.744 58.6925L217.488 62.4309ZM245.232 27.8276C245.378 27.4465 246.023 27.4749 246.741 27.917C247.389 28.3713 247.868 29.0688 247.722 29.4499L237.912 60.891C237.778 61.3411 237.122 61.2437 236.473 60.7894C235.755 60.3473 235.289 59.7187 235.423 59.2686L245.232 27.8276ZM235.309 63.056C236.205 62.898 237.097 63.5226 237.255 64.4187C237.413 65.3149 236.788 66.2069 235.892 66.3649C234.927 66.5351 234.104 65.8984 233.946 65.0022C233.788 64.106 234.344 63.2262 235.309 63.056Z" fill="#C31A49"/>
</svg>
