<svg width="435" height="420" viewBox="0 0 435 420" fill="none" xmlns="http://www.w3.org/2000/svg">
<circle fill="transparent" cx="173.27" cy="231.73" r="172.77" stroke="#D9E2F0"/>
<circle fill="transparent" cx="202.617" cy="189.27" r="172.77" stroke="#D9E2F0"/>
<circle fill="transparent" cx="261.311" cy="221.115" r="172.77" stroke="#D9E2F0"/>
<mask id="mask0" mask-type="alpha" maskUnits="userSpaceOnUse" x="9" y="307" width="40" height="40">
<circle cx="29" cy="327" r="20" fill="#B7CFFC"/>
</mask>
<g mask="url(#mask0)">
<circle cx="29" cy="327" r="20" fill="#B7CFFC"/>
<path d="M31.7471 338.48C30.8642 338.691 29.947 338.815 29.0002 338.815C27.9313 338.815 26.9013 338.661 25.9156 338.393L26.0541 340.687C27.0056 340.891 27.9897 341 29.0002 341C29.8917 341 30.7646 340.914 31.6095 340.754L31.7471 338.48Z" fill="#222222"/>
<path d="M29 313C21.2679 313 15 319.269 15 327C15 332.695 18.4035 337.593 23.2844 339.78L23.4275 337.414C19.7159 335.42 17.1853 331.501 17.1853 327C17.1853 320.485 22.4854 315.184 29.0007 315.184C35.5161 315.184 40.8154 320.485 40.8154 327C40.8154 331.628 38.1354 335.632 34.2503 337.569L34.3935 339.922C39.4486 337.81 43.0007 332.821 43.0007 327C42.9999 319.269 36.732 313 29 313Z" fill="#222222"/>
<path d="M31.8199 337.257L32.2555 330.078C31.0248 329.621 30.1185 328.102 30.1185 326.292C30.1185 324.122 31.4208 322.362 33.0249 322.362C34.6298 322.362 35.9313 324.122 35.9313 326.292C35.9313 328.102 35.0258 329.621 33.7951 330.078L34.1716 336.3C37.4328 334.478 39.646 330.995 39.646 327.001C39.646 321.13 34.8686 316.352 28.9975 316.352C23.1263 316.352 18.3505 321.129 18.3505 327C18.3505 330.861 20.4221 334.238 23.5059 336.105L23.877 329.983H23.3021C22.6198 329.983 22.0659 329.429 22.0659 328.746V323.596C22.0659 322.968 22.5374 322.454 23.145 322.377V326.72H24.0139V322.361H25.268V326.72H26.1369V322.377C26.7437 322.455 27.2167 322.969 27.2167 323.596V328.746C27.2167 329.429 26.6621 329.983 25.9798 329.983H25.4041L25.8398 337.17C26.8379 337.48 27.8982 337.648 28.999 337.648C29.9761 337.649 30.9198 337.505 31.8199 337.257Z" fill="#222222"/>
</g>
<circle cx="367" cy="132" r="20" fill="#C9B4F4"/>
<path d="M357 132C357 126.477 361.476 122 367 122C372.523 122 377 126.476 377 132C377 137.523 372.524 142 367 142C361.477 142 357 137.524 357 132ZM368.053 126.208C368.053 125.919 367.819 125.684 367.521 125.684H366.479C366.185 125.684 365.947 125.92 365.947 126.21V132.526C365.947 132.805 366.058 133.073 366.256 133.271L368.516 135.531C368.721 135.736 369.052 135.737 369.263 135.527L370 134.789C370.208 134.582 370.209 134.246 370.003 134.04L368.053 132.09V126.208Z" fill="#222222"/>
<circle cx="146" cy="120" r="120" fill="#C9B4F4"/>
<path d="M116.801 114.02C119.121 110.46 120.701 107.78 121.541 105.98C122.421 104.18 122.861 102.48 122.861 100.88C122.861 99.16 122.361 97.82 121.361 96.86C120.401 95.86 119.061 95.36 117.341 95.36C115.421 95.36 113.641 95.82 112.001 96.74C110.361 97.66 108.761 98.9 107.201 100.46L106.241 92.72C108.121 91.2 110.081 90.06 112.121 89.3C114.161 88.54 116.421 88.16 118.901 88.16C121.341 88.16 123.421 88.68 125.141 89.72C126.861 90.72 128.141 92.08 128.981 93.8C129.861 95.52 130.301 97.42 130.301 99.5C130.301 101.86 129.781 104.28 128.741 106.76C127.741 109.24 125.961 112.42 123.401 116.3L118.481 123.8H131.801V131H105.761L116.801 114.02Z" fill="#222222"/>
<path d="M151.336 113V131H148.528L148.48 130.232C148.016 130.568 147.528 130.824 147.016 131C146.52 131.16 145.928 131.24 145.24 131.24C144.072 131.24 143.064 130.96 142.216 130.4C141.384 129.84 140.752 129.088 140.32 128.144C139.888 127.2 139.672 126.16 139.672 125.024C139.672 123.888 139.888 122.848 140.32 121.904C140.752 120.96 141.384 120.208 142.216 119.648C143.064 119.088 144.072 118.808 145.24 118.808C146.408 118.808 147.448 119.128 148.36 119.768V113H151.336ZM145.672 128.792C146.616 128.792 147.32 128.456 147.784 127.784C148.264 127.112 148.504 126.192 148.504 125.024C148.504 123.856 148.264 122.936 147.784 122.264C147.32 121.592 146.616 121.256 145.672 121.256C144.744 121.256 144.016 121.6 143.488 122.288C142.976 122.976 142.72 123.888 142.72 125.024C142.72 126.16 142.976 127.072 143.488 127.76C144.016 128.448 144.744 128.792 145.672 128.792ZM156.695 131.24C155.703 131.24 154.871 130.92 154.199 130.28C153.543 129.624 153.215 128.744 153.215 127.64C153.215 126.6 153.591 125.768 154.343 125.144C155.095 124.504 155.983 124.056 157.007 123.8C158.031 123.528 159.015 123.376 159.959 123.344C159.927 122.64 159.743 122.136 159.407 121.832C159.087 121.528 158.551 121.376 157.799 121.376C157.271 121.376 156.751 121.448 156.239 121.592C155.743 121.736 155.167 121.968 154.511 122.288L154.247 119.864C155.703 119.16 157.159 118.808 158.615 118.808C160.023 118.808 161.095 119.192 161.831 119.96C162.583 120.728 162.959 121.952 162.959 123.632V126.872C162.959 127.48 162.983 127.92 163.031 128.192C163.095 128.448 163.191 128.616 163.319 128.696C163.463 128.76 163.695 128.792 164.015 128.792H164.399L164.135 131.24H163.055C162.399 131.24 161.847 131.12 161.399 130.88C160.951 130.624 160.607 130.28 160.367 129.848C159.983 130.28 159.455 130.624 158.783 130.88C158.127 131.12 157.431 131.24 156.695 131.24ZM157.943 128.96C158.247 128.96 158.591 128.888 158.975 128.744C159.359 128.584 159.695 128.368 159.983 128.096V125.36C159.023 125.408 158.175 125.616 157.439 125.984C156.703 126.352 156.335 126.864 156.335 127.52C156.335 128.016 156.463 128.384 156.719 128.624C156.975 128.848 157.383 128.96 157.943 128.96ZM169.164 130.208L164.172 119H167.484L170.556 126.728L173.676 119H176.988L169.476 136.808H166.5L169.164 130.208ZM181.745 131.24C180.977 131.24 180.273 131.168 179.633 131.024C179.009 130.88 178.361 130.656 177.689 130.352L177.953 127.808C178.625 128.208 179.249 128.512 179.825 128.72C180.417 128.912 181.025 129.008 181.649 129.008C182.865 129.008 183.473 128.608 183.473 127.808C183.473 127.376 183.313 127.048 182.993 126.824C182.673 126.584 182.097 126.304 181.265 125.984C180.081 125.552 179.209 125.064 178.649 124.52C178.089 123.96 177.809 123.208 177.809 122.264C177.809 121.224 178.209 120.384 179.009 119.744C179.809 119.088 180.889 118.76 182.249 118.76C183.609 118.76 184.849 119.072 185.969 119.696L185.705 122.24C185.097 121.824 184.521 121.504 183.977 121.28C183.449 121.056 182.889 120.944 182.297 120.944C181.785 120.944 181.385 121.048 181.097 121.256C180.825 121.464 180.689 121.76 180.689 122.144C180.689 122.448 180.769 122.696 180.929 122.888C181.105 123.08 181.345 123.256 181.649 123.416C181.953 123.56 182.457 123.768 183.161 124.04C184.329 124.488 185.169 124.984 185.681 125.528C186.193 126.056 186.449 126.768 186.449 127.664C186.449 128.8 186.041 129.68 185.225 130.304C184.409 130.928 183.249 131.24 181.745 131.24Z" fill="#222222"/>
<path d="M89.1645 155.6H94.3245V156.92H90.5565V158.96H93.4605V160.28H90.5565V164H89.1645V155.6ZM100.181 161.912H97.0607L96.3287 164H94.9367L97.9367 155.6H99.3047L102.293 164H100.913L100.181 161.912ZM99.7367 160.676L98.6207 157.484L97.4927 160.676H99.7367ZM106.714 164.168C106.234 164.168 105.73 164.108 105.202 163.988C104.674 163.868 104.254 163.732 103.942 163.58L104.11 162.104C105.15 162.6 106.09 162.848 106.93 162.848C107.402 162.848 107.77 162.76 108.034 162.584C108.298 162.408 108.43 162.144 108.43 161.792C108.43 161.52 108.358 161.3 108.214 161.132C108.078 160.964 107.874 160.82 107.602 160.7C107.33 160.572 106.926 160.42 106.39 160.244C105.87 160.076 105.438 159.896 105.094 159.704C104.75 159.504 104.474 159.252 104.266 158.948C104.066 158.636 103.966 158.248 103.966 157.784C103.966 157.08 104.226 156.512 104.746 156.08C105.274 155.648 106.026 155.432 107.002 155.432C107.482 155.432 107.954 155.484 108.418 155.588C108.882 155.692 109.294 155.824 109.654 155.984L109.51 157.424C109.03 157.192 108.582 157.02 108.166 156.908C107.758 156.796 107.342 156.74 106.918 156.74C106.438 156.74 106.066 156.824 105.802 156.992C105.538 157.152 105.406 157.4 105.406 157.736C105.406 157.976 105.47 158.176 105.598 158.336C105.734 158.488 105.918 158.616 106.15 158.72C106.39 158.824 106.734 158.948 107.182 159.092C108.142 159.388 108.846 159.736 109.294 160.136C109.75 160.528 109.978 161.068 109.978 161.756C109.978 162.436 109.73 163.008 109.234 163.472C108.738 163.936 107.898 164.168 106.714 164.168ZM113.906 156.92H111.506V155.6H117.698V156.92H115.298V164H113.906V156.92ZM119.813 155.6H121.205V164H119.813V155.6ZM124.082 155.6H125.498L129.278 161.336V155.6H130.682V164H129.53L125.474 157.916V164H124.082V155.6ZM137.251 164.168C136.411 164.168 135.671 163.988 135.031 163.628C134.399 163.268 133.911 162.76 133.567 162.104C133.223 161.44 133.051 160.668 133.051 159.788C133.051 158.924 133.235 158.164 133.603 157.508C133.979 156.844 134.499 156.332 135.163 155.972C135.827 155.612 136.583 155.432 137.431 155.432C137.863 155.432 138.283 155.476 138.691 155.564C139.099 155.652 139.455 155.772 139.759 155.924L139.615 157.208C138.895 156.904 138.171 156.752 137.443 156.752C136.499 156.752 135.783 157.032 135.295 157.592C134.815 158.144 134.575 158.872 134.575 159.776C134.575 160.704 134.815 161.448 135.295 162.008C135.783 162.568 136.487 162.848 137.407 162.848C137.823 162.848 138.235 162.796 138.643 162.692V160.976H137.431V159.788H140.035V163.532C139.707 163.716 139.299 163.868 138.811 163.988C138.331 164.108 137.811 164.168 137.251 164.168ZM145.414 155.6H146.866L148.582 161.912L150.514 155.66H151.63L153.61 161.816L155.29 155.6H156.742L154.306 164H152.998L151.066 157.976L149.146 164H147.778L145.414 155.6ZM158.739 155.6H160.131V164H158.739V155.6ZM163.008 155.6H164.424L168.204 161.336V155.6H169.608V164H168.456L164.4 157.916V164H163.008V155.6ZM172.481 155.6H175.613C176.421 155.6 177.137 155.768 177.761 156.104C178.393 156.44 178.885 156.924 179.237 157.556C179.589 158.188 179.765 158.936 179.765 159.8C179.765 160.664 179.589 161.412 179.237 162.044C178.885 162.676 178.393 163.16 177.761 163.496C177.137 163.832 176.421 164 175.613 164H172.481V155.6ZM175.613 162.752C176.469 162.752 177.121 162.492 177.569 161.972C178.017 161.444 178.241 160.72 178.241 159.8C178.241 158.88 178.017 158.16 177.569 157.64C177.121 157.112 176.469 156.848 175.613 156.848H173.873V162.752H175.613ZM185.801 164.168C185.001 164.168 184.289 163.988 183.665 163.628C183.041 163.268 182.549 162.76 182.189 162.104C181.837 161.44 181.661 160.672 181.661 159.8C181.661 158.928 181.837 158.164 182.189 157.508C182.549 156.844 183.041 156.332 183.665 155.972C184.289 155.612 185.001 155.432 185.801 155.432C186.601 155.432 187.313 155.612 187.937 155.972C188.561 156.332 189.049 156.844 189.401 157.508C189.761 158.164 189.941 158.928 189.941 159.8C189.941 160.672 189.761 161.44 189.401 162.104C189.049 162.76 188.561 163.268 187.937 163.628C187.313 163.988 186.601 164.168 185.801 164.168ZM185.801 162.824C186.657 162.824 187.313 162.544 187.769 161.984C188.233 161.424 188.465 160.696 188.465 159.8C188.465 158.904 188.233 158.176 187.769 157.616C187.313 157.056 186.657 156.776 185.801 156.776C184.945 156.776 184.285 157.056 183.821 157.616C183.357 158.176 183.125 158.904 183.125 159.8C183.125 160.696 183.357 161.424 183.821 161.984C184.285 162.544 184.945 162.824 185.801 162.824ZM191.383 155.6H192.835L194.551 161.912L196.483 155.66H197.599L199.579 161.816L201.259 155.6H202.711L200.275 164H198.967L197.035 157.976L195.115 164H193.747L191.383 155.6Z" fill="#222222"/>
<circle cx="297" cy="330" r="90" fill="#B7CFFC"/>
<path d="M269.987 314.6C274.067 314.6 277.347 315.8 279.827 318.2C282.347 320.56 283.607 323.8 283.607 327.92C283.607 330.76 282.967 333.22 281.687 335.3C280.447 337.38 278.707 338.98 276.467 340.1C274.267 341.22 271.727 341.78 268.847 341.78C264.447 341.78 260.607 340.66 257.327 338.42L259.127 331.46C260.727 332.46 262.287 333.24 263.807 333.8C265.327 334.32 266.967 334.58 268.727 334.58C271.007 334.58 272.807 333.98 274.127 332.78C275.487 331.58 276.167 329.96 276.167 327.92C276.167 325.72 275.387 324 273.827 322.76C272.307 321.52 270.127 320.9 267.287 320.9C265.047 320.9 262.427 321.18 259.427 321.74L262.127 299H281.927L281.447 306.44H267.887L266.867 314.78C267.827 314.66 268.867 314.6 269.987 314.6Z" fill="#222222"/>
<path d="M303.336 323V341H300.528L300.48 340.232C300.016 340.568 299.528 340.824 299.016 341C298.52 341.16 297.928 341.24 297.24 341.24C296.072 341.24 295.064 340.96 294.216 340.4C293.384 339.84 292.752 339.088 292.32 338.144C291.888 337.2 291.672 336.16 291.672 335.024C291.672 333.888 291.888 332.848 292.32 331.904C292.752 330.96 293.384 330.208 294.216 329.648C295.064 329.088 296.072 328.808 297.24 328.808C298.408 328.808 299.448 329.128 300.36 329.768V323H303.336ZM297.672 338.792C298.616 338.792 299.32 338.456 299.784 337.784C300.264 337.112 300.504 336.192 300.504 335.024C300.504 333.856 300.264 332.936 299.784 332.264C299.32 331.592 298.616 331.256 297.672 331.256C296.744 331.256 296.016 331.6 295.488 332.288C294.976 332.976 294.72 333.888 294.72 335.024C294.72 336.16 294.976 337.072 295.488 337.76C296.016 338.448 296.744 338.792 297.672 338.792ZM308.695 341.24C307.703 341.24 306.871 340.92 306.199 340.28C305.543 339.624 305.215 338.744 305.215 337.64C305.215 336.6 305.591 335.768 306.343 335.144C307.095 334.504 307.983 334.056 309.007 333.8C310.031 333.528 311.015 333.376 311.959 333.344C311.927 332.64 311.743 332.136 311.407 331.832C311.087 331.528 310.551 331.376 309.799 331.376C309.271 331.376 308.751 331.448 308.239 331.592C307.743 331.736 307.167 331.968 306.511 332.288L306.247 329.864C307.703 329.16 309.159 328.808 310.615 328.808C312.023 328.808 313.095 329.192 313.831 329.96C314.583 330.728 314.959 331.952 314.959 333.632V336.872C314.959 337.48 314.983 337.92 315.031 338.192C315.095 338.448 315.191 338.616 315.319 338.696C315.463 338.76 315.695 338.792 316.015 338.792H316.399L316.135 341.24H315.055C314.399 341.24 313.847 341.12 313.399 340.88C312.951 340.624 312.607 340.28 312.367 339.848C311.983 340.28 311.455 340.624 310.783 340.88C310.127 341.12 309.431 341.24 308.695 341.24ZM309.943 338.96C310.247 338.96 310.591 338.888 310.975 338.744C311.359 338.584 311.695 338.368 311.983 338.096V335.36C311.023 335.408 310.175 335.616 309.439 335.984C308.703 336.352 308.335 336.864 308.335 337.52C308.335 338.016 308.463 338.384 308.719 338.624C308.975 338.848 309.383 338.96 309.943 338.96ZM321.164 340.208L316.172 329H319.484L322.556 336.728L325.676 329H328.988L321.476 346.808H318.5L321.164 340.208ZM333.745 341.24C332.977 341.24 332.273 341.168 331.633 341.024C331.009 340.88 330.361 340.656 329.689 340.352L329.953 337.808C330.625 338.208 331.249 338.512 331.825 338.72C332.417 338.912 333.025 339.008 333.649 339.008C334.865 339.008 335.473 338.608 335.473 337.808C335.473 337.376 335.313 337.048 334.993 336.824C334.673 336.584 334.097 336.304 333.265 335.984C332.081 335.552 331.209 335.064 330.649 334.52C330.089 333.96 329.809 333.208 329.809 332.264C329.809 331.224 330.209 330.384 331.009 329.744C331.809 329.088 332.889 328.76 334.249 328.76C335.609 328.76 336.849 329.072 337.969 329.696L337.705 332.24C337.097 331.824 336.521 331.504 335.977 331.28C335.449 331.056 334.889 330.944 334.297 330.944C333.785 330.944 333.385 331.048 333.097 331.256C332.825 331.464 332.689 331.76 332.689 332.144C332.689 332.448 332.769 332.696 332.929 332.888C333.105 333.08 333.345 333.256 333.649 333.416C333.953 333.56 334.457 333.768 335.161 334.04C336.329 334.488 337.169 334.984 337.681 335.528C338.193 336.056 338.449 336.768 338.449 337.664C338.449 338.8 338.041 339.68 337.225 340.304C336.409 340.928 335.249 341.24 333.745 341.24Z" fill="#222222"/>
<path d="M244.416 365.6H249.696V366.92H245.832V368.96H248.868V370.28H245.832V372.68H249.816V374H244.416V365.6ZM256.534 371.912H253.414L252.682 374H251.29L254.29 365.6H255.658L258.646 374H257.266L256.534 371.912ZM256.09 370.676L254.974 367.484L253.846 370.676H256.09ZM261.654 366.92H259.254V365.6H265.446V366.92H263.046V374H261.654V366.92ZM267.561 365.6H268.953V374H267.561V365.6ZM271.831 365.6H273.247L277.027 371.336V365.6H278.431V374H277.279L273.223 367.916V374H271.831V365.6ZM284.999 374.168C284.159 374.168 283.419 373.988 282.779 373.628C282.147 373.268 281.659 372.76 281.315 372.104C280.971 371.44 280.799 370.668 280.799 369.788C280.799 368.924 280.983 368.164 281.351 367.508C281.727 366.844 282.247 366.332 282.911 365.972C283.575 365.612 284.331 365.432 285.179 365.432C285.611 365.432 286.031 365.476 286.439 365.564C286.847 365.652 287.203 365.772 287.507 365.924L287.363 367.208C286.643 366.904 285.919 366.752 285.191 366.752C284.247 366.752 283.531 367.032 283.043 367.592C282.563 368.144 282.323 368.872 282.323 369.776C282.323 370.704 282.563 371.448 283.043 372.008C283.531 372.568 284.235 372.848 285.155 372.848C285.571 372.848 285.983 372.796 286.391 372.692V370.976H285.179V369.788H287.783V373.532C287.455 373.716 287.047 373.868 286.559 373.988C286.079 374.108 285.559 374.168 284.999 374.168ZM293.162 365.6H294.614L296.33 371.912L298.262 365.66H299.378L301.358 371.816L303.038 365.6H304.49L302.054 374H300.746L298.814 367.976L296.894 374H295.526L293.162 365.6ZM306.487 365.6H307.879V374H306.487V365.6ZM310.756 365.6H312.172L315.952 371.336V365.6H317.356V374H316.204L312.148 367.916V374H310.756V365.6ZM320.229 365.6H323.361C324.169 365.6 324.885 365.768 325.509 366.104C326.141 366.44 326.633 366.924 326.985 367.556C327.337 368.188 327.513 368.936 327.513 369.8C327.513 370.664 327.337 371.412 326.985 372.044C326.633 372.676 326.141 373.16 325.509 373.496C324.885 373.832 324.169 374 323.361 374H320.229V365.6ZM323.361 372.752C324.217 372.752 324.869 372.492 325.317 371.972C325.765 371.444 325.989 370.72 325.989 369.8C325.989 368.88 325.765 368.16 325.317 367.64C324.869 367.112 324.217 366.848 323.361 366.848H321.621V372.752H323.361ZM333.549 374.168C332.749 374.168 332.037 373.988 331.413 373.628C330.789 373.268 330.297 372.76 329.937 372.104C329.585 371.44 329.409 370.672 329.409 369.8C329.409 368.928 329.585 368.164 329.937 367.508C330.297 366.844 330.789 366.332 331.413 365.972C332.037 365.612 332.749 365.432 333.549 365.432C334.349 365.432 335.061 365.612 335.685 365.972C336.309 366.332 336.797 366.844 337.149 367.508C337.509 368.164 337.689 368.928 337.689 369.8C337.689 370.672 337.509 371.44 337.149 372.104C336.797 372.76 336.309 373.268 335.685 373.628C335.061 373.988 334.349 374.168 333.549 374.168ZM333.549 372.824C334.405 372.824 335.061 372.544 335.517 371.984C335.981 371.424 336.213 370.696 336.213 369.8C336.213 368.904 335.981 368.176 335.517 367.616C335.061 367.056 334.405 366.776 333.549 366.776C332.693 366.776 332.033 367.056 331.569 367.616C331.105 368.176 330.873 368.904 330.873 369.8C330.873 370.696 331.105 371.424 331.569 371.984C332.033 372.544 332.693 372.824 333.549 372.824ZM339.131 365.6H340.583L342.299 371.912L344.231 365.66H345.347L347.327 371.816L349.007 365.6H350.459L348.023 374H346.715L344.783 367.976L342.863 374H341.495L339.131 365.6Z" fill="#222222"/>
</svg>
