<svg width="435" height="432" viewBox="0 0 435 432" fill="none" xmlns="http://www.w3.org/2000/svg">
<circle fill="transparent" cx="173.27" cy="242.729" r="172.77" stroke="#D9E2F0"/>
<circle fill="transparent" cx="202.617" cy="200.27" r="172.77" stroke="#D9E2F0"/>
<circle fill="transparent" cx="261.311" cy="232.115" r="172.77" stroke="#D9E2F0"/>
<circle fill="transparent" cx="135" cy="100" r="100" fill="#C9B4F4"/>
<path d="M79.1645 135.6H84.3245V136.92H80.5565V138.96H83.4605V140.28H80.5565V144H79.1645V135.6ZM90.1807 141.912H87.0607L86.3287 144H84.9367L87.9367 135.6H89.3047L92.2927 144H90.9127L90.1807 141.912ZM89.7367 140.676L88.6207 137.484L87.4927 140.676H89.7367ZM96.7135 144.168C96.2335 144.168 95.7295 144.108 95.2015 143.988C94.6735 143.868 94.2535 143.732 93.9415 143.58L94.1095 142.104C95.1495 142.6 96.0895 142.848 96.9295 142.848C97.4015 142.848 97.7695 142.76 98.0335 142.584C98.2975 142.408 98.4295 142.144 98.4295 141.792C98.4295 141.52 98.3575 141.3 98.2135 141.132C98.0775 140.964 97.8735 140.82 97.6015 140.7C97.3295 140.572 96.9255 140.42 96.3895 140.244C95.8695 140.076 95.4375 139.896 95.0935 139.704C94.7495 139.504 94.4735 139.252 94.2655 138.948C94.0655 138.636 93.9655 138.248 93.9655 137.784C93.9655 137.08 94.2255 136.512 94.7455 136.08C95.2735 135.648 96.0255 135.432 97.0015 135.432C97.4815 135.432 97.9535 135.484 98.4175 135.588C98.8815 135.692 99.2935 135.824 99.6535 135.984L99.5095 137.424C99.0295 137.192 98.5815 137.02 98.1655 136.908C97.7575 136.796 97.3415 136.74 96.9175 136.74C96.4375 136.74 96.0655 136.824 95.8015 136.992C95.5375 137.152 95.4055 137.4 95.4055 137.736C95.4055 137.976 95.4695 138.176 95.5975 138.336C95.7335 138.488 95.9175 138.616 96.1495 138.72C96.3895 138.824 96.7335 138.948 97.1815 139.092C98.1415 139.388 98.8455 139.736 99.2935 140.136C99.7495 140.528 99.9775 141.068 99.9775 141.756C99.9775 142.436 99.7295 143.008 99.2335 143.472C98.7375 143.936 97.8975 144.168 96.7135 144.168ZM103.906 136.92H101.506V135.6H107.698V136.92H105.298V144H103.906V136.92ZM109.813 135.6H111.205V144H109.813V135.6ZM114.082 135.6H115.498L119.278 141.336V135.6H120.682V144H119.53L115.474 137.916V144H114.082V135.6ZM127.251 144.168C126.411 144.168 125.671 143.988 125.031 143.628C124.399 143.268 123.911 142.76 123.567 142.104C123.223 141.44 123.051 140.668 123.051 139.788C123.051 138.924 123.235 138.164 123.603 137.508C123.979 136.844 124.499 136.332 125.163 135.972C125.827 135.612 126.583 135.432 127.431 135.432C127.863 135.432 128.283 135.476 128.691 135.564C129.099 135.652 129.455 135.772 129.759 135.924L129.615 137.208C128.895 136.904 128.171 136.752 127.443 136.752C126.499 136.752 125.783 137.032 125.295 137.592C124.815 138.144 124.575 138.872 124.575 139.776C124.575 140.704 124.815 141.448 125.295 142.008C125.783 142.568 126.487 142.848 127.407 142.848C127.823 142.848 128.235 142.796 128.643 142.692V140.976H127.431V139.788H130.035V143.532C129.707 143.716 129.299 143.868 128.811 143.988C128.331 144.108 127.811 144.168 127.251 144.168ZM135.414 135.6H136.866L138.582 141.912L140.514 135.66H141.63L143.61 141.816L145.29 135.6H146.742L144.306 144H142.998L141.066 137.976L139.146 144H137.778L135.414 135.6ZM148.739 135.6H150.131V144H148.739V135.6ZM153.008 135.6H154.424L158.204 141.336V135.6H159.608V144H158.456L154.4 137.916V144H153.008V135.6ZM162.481 135.6H165.613C166.421 135.6 167.137 135.768 167.761 136.104C168.393 136.44 168.885 136.924 169.237 137.556C169.589 138.188 169.765 138.936 169.765 139.8C169.765 140.664 169.589 141.412 169.237 142.044C168.885 142.676 168.393 143.16 167.761 143.496C167.137 143.832 166.421 144 165.613 144H162.481V135.6ZM165.613 142.752C166.469 142.752 167.121 142.492 167.569 141.972C168.017 141.444 168.241 140.72 168.241 139.8C168.241 138.88 168.017 138.16 167.569 137.64C167.121 137.112 166.469 136.848 165.613 136.848H163.873V142.752H165.613ZM175.801 144.168C175.001 144.168 174.289 143.988 173.665 143.628C173.041 143.268 172.549 142.76 172.189 142.104C171.837 141.44 171.661 140.672 171.661 139.8C171.661 138.928 171.837 138.164 172.189 137.508C172.549 136.844 173.041 136.332 173.665 135.972C174.289 135.612 175.001 135.432 175.801 135.432C176.601 135.432 177.313 135.612 177.937 135.972C178.561 136.332 179.049 136.844 179.401 137.508C179.761 138.164 179.941 138.928 179.941 139.8C179.941 140.672 179.761 141.44 179.401 142.104C179.049 142.76 178.561 143.268 177.937 143.628C177.313 143.988 176.601 144.168 175.801 144.168ZM175.801 142.824C176.657 142.824 177.313 142.544 177.769 141.984C178.233 141.424 178.465 140.696 178.465 139.8C178.465 138.904 178.233 138.176 177.769 137.616C177.313 137.056 176.657 136.776 175.801 136.776C174.945 136.776 174.285 137.056 173.821 137.616C173.357 138.176 173.125 138.904 173.125 139.8C173.125 140.696 173.357 141.424 173.821 141.984C174.285 142.544 174.945 142.824 175.801 142.824ZM181.383 135.6H182.835L184.551 141.912L186.483 135.66H187.599L189.579 141.816L191.259 135.6H192.711L190.275 144H188.967L187.035 137.976L185.115 144H183.747L181.383 135.6Z" fill="#222222"/>
<path d="M98.6869 79.86C97.0069 80.98 95.2469 81.7 93.4069 82.02L92.7469 75.54C94.0669 75.26 95.5469 74.46 97.1869 73.14C98.8269 71.78 99.9269 70.4 100.487 69H106.367V111H98.6869V79.86ZM125.875 94.02C128.195 90.46 129.775 87.78 130.615 85.98C131.495 84.18 131.935 82.48 131.935 80.88C131.935 79.16 131.435 77.82 130.435 76.86C129.475 75.86 128.135 75.36 126.415 75.36C124.495 75.36 122.715 75.82 121.075 76.74C119.435 77.66 117.835 78.9 116.275 80.46L115.315 72.72C117.195 71.2 119.155 70.06 121.195 69.3C123.235 68.54 125.495 68.16 127.975 68.16C130.415 68.16 132.495 68.68 134.215 69.72C135.935 70.72 137.215 72.08 138.055 73.8C138.935 75.52 139.375 77.42 139.375 79.5C139.375 81.86 138.855 84.28 137.815 86.76C136.815 89.24 135.035 92.42 132.475 96.3L127.555 103.8H140.875V111H114.835L125.875 94.02Z" fill="#222222"/>
<path d="M155.44 98.808C156.96 98.808 158.088 99.304 158.824 100.296C159.576 101.272 159.952 102.616 159.952 104.328V111H156.976V104.544C156.976 103.408 156.792 102.576 156.424 102.048C156.056 101.52 155.472 101.256 154.672 101.256C153.728 101.256 152.952 101.6 152.344 102.288V111H149.368V93H152.344V99.768C152.824 99.464 153.312 99.232 153.808 99.072C154.304 98.896 154.848 98.808 155.44 98.808ZM162.611 99H165.395L165.467 100.272C165.819 99.872 166.267 99.52 166.811 99.216C167.371 98.912 167.955 98.76 168.563 98.76C168.755 98.76 168.931 98.776 169.091 98.808L168.875 101.736C168.571 101.656 168.227 101.616 167.843 101.616C167.347 101.616 166.891 101.736 166.475 101.976C166.059 102.2 165.763 102.48 165.587 102.816V111H162.611V99ZM173.941 111.24C173.173 111.24 172.469 111.168 171.829 111.024C171.205 110.88 170.557 110.656 169.885 110.352L170.149 107.808C170.821 108.208 171.445 108.512 172.021 108.72C172.613 108.912 173.221 109.008 173.845 109.008C175.061 109.008 175.669 108.608 175.669 107.808C175.669 107.376 175.509 107.048 175.189 106.824C174.869 106.584 174.293 106.304 173.461 105.984C172.277 105.552 171.405 105.064 170.845 104.52C170.285 103.96 170.005 103.208 170.005 102.264C170.005 101.224 170.405 100.384 171.205 99.744C172.005 99.088 173.085 98.76 174.445 98.76C175.805 98.76 177.045 99.072 178.165 99.696L177.901 102.24C177.293 101.824 176.717 101.504 176.173 101.28C175.645 101.056 175.085 100.944 174.493 100.944C173.981 100.944 173.581 101.048 173.293 101.256C173.021 101.464 172.885 101.76 172.885 102.144C172.885 102.448 172.965 102.696 173.125 102.888C173.301 103.08 173.541 103.256 173.845 103.416C174.149 103.56 174.653 103.768 175.357 104.04C176.525 104.488 177.365 104.984 177.877 105.528C178.389 106.056 178.645 106.768 178.645 107.664C178.645 108.8 178.237 109.68 177.421 110.304C176.605 110.928 175.445 111.24 173.941 111.24Z" fill="#222222"/>
<mask id="mask0" mask-type="alpha" maskUnits="userSpaceOnUse" x="35" y="265" width="40" height="40">
<circle cx="55" cy="285" r="20" fill="#B7CFFC"/>
</mask>
<g mask="url(#mask0)">
<circle cx="55" cy="285" r="20" fill="#B7CFFC"/>
<path d="M57.7471 296.48C56.8642 296.691 55.947 296.815 55.0002 296.815C53.9313 296.815 52.9013 296.661 51.9156 296.393L52.0541 298.687C53.0056 298.891 53.9897 299 55.0002 299C55.8917 299 56.7646 298.914 57.6095 298.754L57.7471 296.48Z" fill="#222222"/>
<path d="M55 271C47.2679 271 41 277.269 41 285C41 290.695 44.4035 295.593 49.2844 297.78L49.4275 295.414C45.7159 293.42 43.1853 289.501 43.1853 285C43.1853 278.485 48.4854 273.184 55.0007 273.184C61.5161 273.184 66.8154 278.485 66.8154 285C66.8154 289.628 64.1354 293.632 60.2503 295.569L60.3935 297.922C65.4486 295.81 69.0007 290.821 69.0007 285C68.9999 277.269 62.732 271 55 271Z" fill="#222222"/>
<path d="M57.8199 295.257L58.2555 288.077C57.0248 287.621 56.1185 286.101 56.1185 284.292C56.1185 282.121 57.4208 280.362 59.0249 280.362C60.6298 280.362 61.9313 282.121 61.9313 284.292C61.9313 286.101 61.0258 287.621 59.7951 288.077L60.1716 294.3C63.4328 292.477 65.646 288.995 65.646 285.001C65.646 279.129 60.8686 274.352 54.9975 274.352C49.1263 274.352 44.3505 279.129 44.3505 285C44.3505 288.861 46.4221 292.238 49.5059 294.105L49.877 287.982H49.3021C48.6198 287.982 48.0659 287.429 48.0659 286.746V281.596C48.0659 280.968 48.5374 280.454 49.145 280.376V284.72H50.0139V280.361H51.268V284.72H52.1369V280.376C52.7437 280.455 53.2167 280.969 53.2167 281.596V286.746C53.2167 287.429 52.6621 287.982 51.9798 287.982H51.4041L51.8398 295.17C52.8379 295.48 53.8982 295.648 54.999 295.648C55.9761 295.648 56.9198 295.505 57.8199 295.257Z" fill="#222222"/>
</g>
<circle cx="369" cy="152" r="20" fill="#C9B4F4"/>
<path d="M359 152C359 146.477 363.476 142 369 142C374.523 142 379 146.476 379 152C379 157.523 374.524 162 369 162C363.477 162 359 157.524 359 152ZM370.053 146.208C370.053 145.919 369.819 145.684 369.521 145.684H368.479C368.185 145.684 367.947 145.92 367.947 146.21V152.526C367.947 152.805 368.058 153.073 368.256 153.271L370.516 155.531C370.721 155.736 371.052 155.737 371.263 155.527L372 154.789C372.208 154.582 372.209 154.246 372.003 154.04L370.053 152.09V146.208Z" fill="#222222"/>
<circle cx="296" cy="332" r="100" fill="#B7CFFC"/>
<path d="M259.687 311.86C258.007 312.98 256.247 313.7 254.407 314.02L253.747 307.54C255.067 307.26 256.547 306.46 258.187 305.14C259.827 303.78 260.927 302.4 261.487 301H267.367V343H259.687V311.86ZM286.875 326.02C289.195 322.46 290.775 319.78 291.615 317.98C292.495 316.18 292.935 314.48 292.935 312.88C292.935 311.16 292.435 309.82 291.435 308.86C290.475 307.86 289.135 307.36 287.415 307.36C285.495 307.36 283.715 307.82 282.075 308.74C280.435 309.66 278.835 310.9 277.275 312.46L276.315 304.72C278.195 303.2 280.155 302.06 282.195 301.3C284.235 300.54 286.495 300.16 288.975 300.16C291.415 300.16 293.495 300.68 295.215 301.72C296.935 302.72 298.215 304.08 299.055 305.8C299.935 307.52 300.375 309.42 300.375 311.5C300.375 313.86 299.855 316.28 298.815 318.76C297.815 321.24 296.035 324.42 293.475 328.3L288.555 335.8H301.875V343H275.835L286.875 326.02Z" fill="#222222"/>
<path d="M316.44 330.808C317.96 330.808 319.088 331.304 319.824 332.296C320.576 333.272 320.952 334.616 320.952 336.328V343H317.976V336.544C317.976 335.408 317.792 334.576 317.424 334.048C317.056 333.52 316.472 333.256 315.672 333.256C314.728 333.256 313.952 333.6 313.344 334.288V343H310.368V325H313.344V331.768C313.824 331.464 314.312 331.232 314.808 331.072C315.304 330.896 315.848 330.808 316.44 330.808ZM323.611 331H326.395L326.467 332.272C326.819 331.872 327.267 331.52 327.811 331.216C328.371 330.912 328.955 330.76 329.563 330.76C329.755 330.76 329.931 330.776 330.091 330.808L329.875 333.736C329.571 333.656 329.227 333.616 328.843 333.616C328.347 333.616 327.891 333.736 327.475 333.976C327.059 334.2 326.763 334.48 326.587 334.816V343H323.611V331ZM334.941 343.24C334.173 343.24 333.469 343.168 332.829 343.024C332.205 342.88 331.557 342.656 330.885 342.352L331.149 339.808C331.821 340.208 332.445 340.512 333.021 340.72C333.613 340.912 334.221 341.008 334.845 341.008C336.061 341.008 336.669 340.608 336.669 339.808C336.669 339.376 336.509 339.048 336.189 338.824C335.869 338.584 335.293 338.304 334.461 337.984C333.277 337.552 332.405 337.064 331.845 336.52C331.285 335.96 331.005 335.208 331.005 334.264C331.005 333.224 331.405 332.384 332.205 331.744C333.005 331.088 334.085 330.76 335.445 330.76C336.805 330.76 338.045 331.072 339.165 331.696L338.901 334.24C338.293 333.824 337.717 333.504 337.173 333.28C336.645 333.056 336.085 332.944 335.493 332.944C334.981 332.944 334.581 333.048 334.293 333.256C334.021 333.464 333.885 333.76 333.885 334.144C333.885 334.448 333.965 334.696 334.125 334.888C334.301 335.08 334.541 335.256 334.845 335.416C335.149 335.56 335.653 335.768 336.357 336.04C337.525 336.488 338.365 336.984 338.877 337.528C339.389 338.056 339.645 338.768 339.645 339.664C339.645 340.8 339.237 341.68 338.421 342.304C337.605 342.928 336.445 343.24 334.941 343.24Z" fill="#222222"/>
<path d="M243.416 367.6H248.696V368.92H244.832V370.96H247.868V372.28H244.832V374.68H248.816V376H243.416V367.6ZM255.534 373.912H252.414L251.682 376H250.29L253.29 367.6H254.658L257.646 376H256.266L255.534 373.912ZM255.09 372.676L253.974 369.484L252.846 372.676H255.09ZM260.654 368.92H258.254V367.6H264.446V368.92H262.046V376H260.654V368.92ZM266.561 367.6H267.953V376H266.561V367.6ZM270.831 367.6H272.247L276.027 373.336V367.6H277.431V376H276.279L272.223 369.916V376H270.831V367.6ZM283.999 376.168C283.159 376.168 282.419 375.988 281.779 375.628C281.147 375.268 280.659 374.76 280.315 374.104C279.971 373.44 279.799 372.668 279.799 371.788C279.799 370.924 279.983 370.164 280.351 369.508C280.727 368.844 281.247 368.332 281.911 367.972C282.575 367.612 283.331 367.432 284.179 367.432C284.611 367.432 285.031 367.476 285.439 367.564C285.847 367.652 286.203 367.772 286.507 367.924L286.363 369.208C285.643 368.904 284.919 368.752 284.191 368.752C283.247 368.752 282.531 369.032 282.043 369.592C281.563 370.144 281.323 370.872 281.323 371.776C281.323 372.704 281.563 373.448 282.043 374.008C282.531 374.568 283.235 374.848 284.155 374.848C284.571 374.848 284.983 374.796 285.391 374.692V372.976H284.179V371.788H286.783V375.532C286.455 375.716 286.047 375.868 285.559 375.988C285.079 376.108 284.559 376.168 283.999 376.168ZM292.162 367.6H293.614L295.33 373.912L297.262 367.66H298.378L300.358 373.816L302.038 367.6H303.49L301.054 376H299.746L297.814 369.976L295.894 376H294.526L292.162 367.6ZM305.487 367.6H306.879V376H305.487V367.6ZM309.756 367.6H311.172L314.952 373.336V367.6H316.356V376H315.204L311.148 369.916V376H309.756V367.6ZM319.229 367.6H322.361C323.169 367.6 323.885 367.768 324.509 368.104C325.141 368.44 325.633 368.924 325.985 369.556C326.337 370.188 326.513 370.936 326.513 371.8C326.513 372.664 326.337 373.412 325.985 374.044C325.633 374.676 325.141 375.16 324.509 375.496C323.885 375.832 323.169 376 322.361 376H319.229V367.6ZM322.361 374.752C323.217 374.752 323.869 374.492 324.317 373.972C324.765 373.444 324.989 372.72 324.989 371.8C324.989 370.88 324.765 370.16 324.317 369.64C323.869 369.112 323.217 368.848 322.361 368.848H320.621V374.752H322.361ZM332.549 376.168C331.749 376.168 331.037 375.988 330.413 375.628C329.789 375.268 329.297 374.76 328.937 374.104C328.585 373.44 328.409 372.672 328.409 371.8C328.409 370.928 328.585 370.164 328.937 369.508C329.297 368.844 329.789 368.332 330.413 367.972C331.037 367.612 331.749 367.432 332.549 367.432C333.349 367.432 334.061 367.612 334.685 367.972C335.309 368.332 335.797 368.844 336.149 369.508C336.509 370.164 336.689 370.928 336.689 371.8C336.689 372.672 336.509 373.44 336.149 374.104C335.797 374.76 335.309 375.268 334.685 375.628C334.061 375.988 333.349 376.168 332.549 376.168ZM332.549 374.824C333.405 374.824 334.061 374.544 334.517 373.984C334.981 373.424 335.213 372.696 335.213 371.8C335.213 370.904 334.981 370.176 334.517 369.616C334.061 369.056 333.405 368.776 332.549 368.776C331.693 368.776 331.033 369.056 330.569 369.616C330.105 370.176 329.873 370.904 329.873 371.8C329.873 372.696 330.105 373.424 330.569 373.984C331.033 374.544 331.693 374.824 332.549 374.824ZM338.131 367.6H339.583L341.299 373.912L343.231 367.66H344.347L346.327 373.816L348.007 367.6H349.459L347.023 376H345.715L343.783 369.976L341.863 376H340.495L338.131 367.6Z" fill="#222222"/>
</svg>
