<svg width="435" height="420" viewBox="0 0 435 420" fill="none" xmlns="http://www.w3.org/2000/svg">
<circle fill="transparent" cx="173.27" cy="231.729" r="172.77" stroke="#D9E2F0"/>
<circle fill="transparent" cx="202.617" cy="189.27" r="172.77" stroke="#D9E2F0"/>
<circle fill="transparent" cx="261.311" cy="221.115" r="172.77" stroke="#D9E2F0"/>
<mask id="mask0" mask-type="alpha" maskUnits="userSpaceOnUse" x="9" y="307" width="40" height="40">
<circle cx="29" cy="327" r="20" fill="#B7CFFC"/>
</mask>
<g mask="url(#mask0)">
<circle cx="29" cy="327" r="20" fill="#B7CFFC"/>
<path d="M31.7471 338.48C30.8642 338.691 29.947 338.815 29.0002 338.815C27.9313 338.815 26.9013 338.661 25.9156 338.393L26.0541 340.687C27.0056 340.891 27.9897 341 29.0002 341C29.8917 341 30.7646 340.914 31.6095 340.754L31.7471 338.48Z" fill="#222222"/>
<path d="M29 313C21.2679 313 15 319.269 15 327C15 332.695 18.4035 337.593 23.2844 339.78L23.4275 337.414C19.7159 335.42 17.1853 331.501 17.1853 327C17.1853 320.485 22.4854 315.184 29.0007 315.184C35.5161 315.184 40.8154 320.485 40.8154 327C40.8154 331.628 38.1354 335.632 34.2503 337.569L34.3935 339.922C39.4486 337.81 43.0007 332.821 43.0007 327C42.9999 319.269 36.732 313 29 313Z" fill="#222222"/>
<path d="M31.8199 337.257L32.2556 330.077C31.0249 329.621 30.1185 328.101 30.1185 326.292C30.1185 324.121 31.4208 322.362 33.025 322.362C34.6299 322.362 35.9314 324.121 35.9314 326.292C35.9314 328.101 35.0258 329.621 33.7951 330.077L34.1717 336.3C37.4328 334.477 39.6461 330.995 39.6461 327.001C39.6461 321.129 34.8687 316.352 28.9975 316.352C23.1264 316.352 18.3505 321.129 18.3505 327C18.3505 330.861 20.4222 334.238 23.506 336.105L23.8771 329.982H23.3022C22.6199 329.982 22.066 329.429 22.066 328.746V323.596C22.066 322.968 22.5374 322.454 23.145 322.376V326.72H24.014V322.361H25.268V326.72H26.137V322.376C26.7438 322.455 27.2168 322.969 27.2168 323.596V328.746C27.2168 329.429 26.6621 329.982 25.9799 329.982H25.4042L25.8398 337.17C26.8379 337.48 27.8983 337.648 28.9991 337.648C29.9762 337.648 30.9198 337.505 31.8199 337.257Z" fill="#222222"/>
</g>
<circle cx="367" cy="132" r="20" fill="#C9B4F4"/>
<path d="M357 132C357 126.477 361.476 122 367 122C372.523 122 377 126.476 377 132C377 137.523 372.524 142 367 142C361.477 142 357 137.524 357 132ZM368.053 126.208C368.053 125.919 367.819 125.684 367.521 125.684H366.479C366.185 125.684 365.947 125.92 365.947 126.21V132.526C365.947 132.805 366.058 133.073 366.256 133.271L368.516 135.531C368.721 135.736 369.052 135.737 369.263 135.527L370 134.789C370.208 134.582 370.209 134.246 370.003 134.04L368.053 132.09V126.208Z" fill="#222222"/>
<circle cx="146" cy="120" r="120" fill="#C9B4F4"/>
<path d="M107.933 99.86C106.253 100.98 104.493 101.7 102.653 102.02L101.993 95.54C103.313 95.26 104.793 94.46 106.433 93.14C108.073 91.78 109.173 90.4 109.733 89H115.613V131H107.933V99.86ZM155.581 115.16V121.4H150.181V131H142.801V121.4H121.861L144.961 89H150.181V115.16H155.581ZM142.801 115.16V102.26L133.741 115.16H142.801Z" fill="#222222"/>
<path d="M170.44 118.808C171.96 118.808 173.088 119.304 173.824 120.296C174.576 121.272 174.952 122.616 174.952 124.328V131H171.976V124.544C171.976 123.408 171.792 122.576 171.424 122.048C171.056 121.52 170.472 121.256 169.672 121.256C168.728 121.256 167.952 121.6 167.344 122.288V131H164.368V113H167.344V119.768C167.824 119.464 168.312 119.232 168.808 119.072C169.304 118.896 169.848 118.808 170.44 118.808ZM177.611 119H180.395L180.467 120.272C180.819 119.872 181.267 119.52 181.811 119.216C182.371 118.912 182.955 118.76 183.563 118.76C183.755 118.76 183.931 118.776 184.091 118.808L183.875 121.736C183.571 121.656 183.227 121.616 182.843 121.616C182.347 121.616 181.891 121.736 181.475 121.976C181.059 122.2 180.763 122.48 180.587 122.816V131H177.611V119ZM188.941 131.24C188.173 131.24 187.469 131.168 186.829 131.024C186.205 130.88 185.557 130.656 184.885 130.352L185.149 127.808C185.821 128.208 186.445 128.512 187.021 128.72C187.613 128.912 188.221 129.008 188.845 129.008C190.061 129.008 190.669 128.608 190.669 127.808C190.669 127.376 190.509 127.048 190.189 126.824C189.869 126.584 189.293 126.304 188.461 125.984C187.277 125.552 186.405 125.064 185.845 124.52C185.285 123.96 185.005 123.208 185.005 122.264C185.005 121.224 185.405 120.384 186.205 119.744C187.005 119.088 188.085 118.76 189.445 118.76C190.805 118.76 192.045 119.072 193.165 119.696L192.901 122.24C192.293 121.824 191.717 121.504 191.173 121.28C190.645 121.056 190.085 120.944 189.493 120.944C188.981 120.944 188.581 121.048 188.293 121.256C188.021 121.464 187.885 121.76 187.885 122.144C187.885 122.448 187.965 122.696 188.125 122.888C188.301 123.08 188.541 123.256 188.845 123.416C189.149 123.56 189.653 123.768 190.357 124.04C191.525 124.488 192.365 124.984 192.877 125.528C193.389 126.056 193.645 126.768 193.645 127.664C193.645 128.8 193.237 129.68 192.421 130.304C191.605 130.928 190.445 131.24 188.941 131.24Z" fill="#222222"/>
<path d="M89.1645 155.6H94.3245V156.92H90.5565V158.96H93.4605V160.28H90.5565V164H89.1645V155.6ZM100.181 161.912H97.0607L96.3287 164H94.9367L97.9367 155.6H99.3047L102.293 164H100.913L100.181 161.912ZM99.7367 160.676L98.6207 157.484L97.4927 160.676H99.7367ZM106.714 164.168C106.234 164.168 105.73 164.108 105.202 163.988C104.674 163.868 104.254 163.732 103.942 163.58L104.11 162.104C105.15 162.6 106.09 162.848 106.93 162.848C107.402 162.848 107.77 162.76 108.034 162.584C108.298 162.408 108.43 162.144 108.43 161.792C108.43 161.52 108.358 161.3 108.214 161.132C108.078 160.964 107.874 160.82 107.602 160.7C107.33 160.572 106.926 160.42 106.39 160.244C105.87 160.076 105.438 159.896 105.094 159.704C104.75 159.504 104.474 159.252 104.266 158.948C104.066 158.636 103.966 158.248 103.966 157.784C103.966 157.08 104.226 156.512 104.746 156.08C105.274 155.648 106.026 155.432 107.002 155.432C107.482 155.432 107.954 155.484 108.418 155.588C108.882 155.692 109.294 155.824 109.654 155.984L109.51 157.424C109.03 157.192 108.582 157.02 108.166 156.908C107.758 156.796 107.342 156.74 106.918 156.74C106.438 156.74 106.066 156.824 105.802 156.992C105.538 157.152 105.406 157.4 105.406 157.736C105.406 157.976 105.47 158.176 105.598 158.336C105.734 158.488 105.918 158.616 106.15 158.72C106.39 158.824 106.734 158.948 107.182 159.092C108.142 159.388 108.846 159.736 109.294 160.136C109.75 160.528 109.978 161.068 109.978 161.756C109.978 162.436 109.73 163.008 109.234 163.472C108.738 163.936 107.898 164.168 106.714 164.168ZM113.906 156.92H111.506V155.6H117.698V156.92H115.298V164H113.906V156.92ZM119.813 155.6H121.205V164H119.813V155.6ZM124.082 155.6H125.498L129.278 161.336V155.6H130.682V164H129.53L125.474 157.916V164H124.082V155.6ZM137.251 164.168C136.411 164.168 135.671 163.988 135.031 163.628C134.399 163.268 133.911 162.76 133.567 162.104C133.223 161.44 133.051 160.668 133.051 159.788C133.051 158.924 133.235 158.164 133.603 157.508C133.979 156.844 134.499 156.332 135.163 155.972C135.827 155.612 136.583 155.432 137.431 155.432C137.863 155.432 138.283 155.476 138.691 155.564C139.099 155.652 139.455 155.772 139.759 155.924L139.615 157.208C138.895 156.904 138.171 156.752 137.443 156.752C136.499 156.752 135.783 157.032 135.295 157.592C134.815 158.144 134.575 158.872 134.575 159.776C134.575 160.704 134.815 161.448 135.295 162.008C135.783 162.568 136.487 162.848 137.407 162.848C137.823 162.848 138.235 162.796 138.643 162.692V160.976H137.431V159.788H140.035V163.532C139.707 163.716 139.299 163.868 138.811 163.988C138.331 164.108 137.811 164.168 137.251 164.168ZM145.414 155.6H146.866L148.582 161.912L150.514 155.66H151.63L153.61 161.816L155.29 155.6H156.742L154.306 164H152.998L151.066 157.976L149.146 164H147.778L145.414 155.6ZM158.739 155.6H160.131V164H158.739V155.6ZM163.008 155.6H164.424L168.204 161.336V155.6H169.608V164H168.456L164.4 157.916V164H163.008V155.6ZM172.481 155.6H175.613C176.421 155.6 177.137 155.768 177.761 156.104C178.393 156.44 178.885 156.924 179.237 157.556C179.589 158.188 179.765 158.936 179.765 159.8C179.765 160.664 179.589 161.412 179.237 162.044C178.885 162.676 178.393 163.16 177.761 163.496C177.137 163.832 176.421 164 175.613 164H172.481V155.6ZM175.613 162.752C176.469 162.752 177.121 162.492 177.569 161.972C178.017 161.444 178.241 160.72 178.241 159.8C178.241 158.88 178.017 158.16 177.569 157.64C177.121 157.112 176.469 156.848 175.613 156.848H173.873V162.752H175.613ZM185.801 164.168C185.001 164.168 184.289 163.988 183.665 163.628C183.041 163.268 182.549 162.76 182.189 162.104C181.837 161.44 181.661 160.672 181.661 159.8C181.661 158.928 181.837 158.164 182.189 157.508C182.549 156.844 183.041 156.332 183.665 155.972C184.289 155.612 185.001 155.432 185.801 155.432C186.601 155.432 187.313 155.612 187.937 155.972C188.561 156.332 189.049 156.844 189.401 157.508C189.761 158.164 189.941 158.928 189.941 159.8C189.941 160.672 189.761 161.44 189.401 162.104C189.049 162.76 188.561 163.268 187.937 163.628C187.313 163.988 186.601 164.168 185.801 164.168ZM185.801 162.824C186.657 162.824 187.313 162.544 187.769 161.984C188.233 161.424 188.465 160.696 188.465 159.8C188.465 158.904 188.233 158.176 187.769 157.616C187.313 157.056 186.657 156.776 185.801 156.776C184.945 156.776 184.285 157.056 183.821 157.616C183.357 158.176 183.125 158.904 183.125 159.8C183.125 160.696 183.357 161.424 183.821 161.984C184.285 162.544 184.945 162.824 185.801 162.824ZM191.383 155.6H192.835L194.551 161.912L196.483 155.66H197.599L199.579 161.816L201.259 155.6H202.711L200.275 164H198.967L197.035 157.976L195.115 164H193.747L191.383 155.6Z" fill="#222222"/>
<circle cx="297" cy="330" r="90" fill="#B7CFFC"/>
<path d="M254.884 309.86C253.204 310.98 251.444 311.7 249.604 312.02L248.944 305.54C250.264 305.26 251.744 304.46 253.384 303.14C255.024 301.78 256.124 300.4 256.684 299H262.564V341H254.884V309.86ZM289.573 341.84C286.053 341.84 282.953 340.92 280.273 339.08C277.633 337.24 275.573 334.64 274.093 331.28C272.613 327.92 271.873 324.04 271.873 319.64C271.873 315.44 272.613 311.72 274.093 308.48C275.573 305.2 277.653 302.66 280.333 300.86C283.013 299.06 286.093 298.16 289.573 298.16C293.093 298.16 296.193 299.08 298.873 300.92C301.553 302.72 303.613 305.24 305.053 308.48C306.533 311.72 307.273 315.44 307.273 319.64C307.273 324.04 306.533 327.92 305.053 331.28C303.613 334.64 301.553 337.24 298.873 339.08C296.193 340.92 293.093 341.84 289.573 341.84ZM289.573 334.94C292.613 334.94 295.033 333.68 296.833 331.16C298.673 328.64 299.593 324.8 299.593 319.64C299.593 314.84 298.673 311.2 296.833 308.72C294.993 306.2 292.573 304.94 289.573 304.94C286.573 304.94 284.153 306.2 282.313 308.72C280.473 311.2 279.553 314.84 279.553 319.64C279.553 324.76 280.453 328.6 282.253 331.16C284.093 333.68 286.533 334.94 289.573 334.94Z" fill="#222222"/>
<path d="M322.44 328.808C323.96 328.808 325.088 329.304 325.824 330.296C326.576 331.272 326.952 332.616 326.952 334.328V341H323.976V334.544C323.976 333.408 323.792 332.576 323.424 332.048C323.056 331.52 322.472 331.256 321.672 331.256C320.728 331.256 319.952 331.6 319.344 332.288V341H316.368V323H319.344V329.768C319.824 329.464 320.312 329.232 320.808 329.072C321.304 328.896 321.848 328.808 322.44 328.808ZM329.611 329H332.395L332.467 330.272C332.819 329.872 333.267 329.52 333.811 329.216C334.371 328.912 334.955 328.76 335.563 328.76C335.755 328.76 335.931 328.776 336.091 328.808L335.875 331.736C335.571 331.656 335.227 331.616 334.843 331.616C334.347 331.616 333.891 331.736 333.475 331.976C333.059 332.2 332.763 332.48 332.587 332.816V341H329.611V329ZM340.941 341.24C340.173 341.24 339.469 341.168 338.829 341.024C338.205 340.88 337.557 340.656 336.885 340.352L337.149 337.808C337.821 338.208 338.445 338.512 339.021 338.72C339.613 338.912 340.221 339.008 340.845 339.008C342.061 339.008 342.669 338.608 342.669 337.808C342.669 337.376 342.509 337.048 342.189 336.824C341.869 336.584 341.293 336.304 340.461 335.984C339.277 335.552 338.405 335.064 337.845 334.52C337.285 333.96 337.005 333.208 337.005 332.264C337.005 331.224 337.405 330.384 338.205 329.744C339.005 329.088 340.085 328.76 341.445 328.76C342.805 328.76 344.045 329.072 345.165 329.696L344.901 332.24C344.293 331.824 343.717 331.504 343.173 331.28C342.645 331.056 342.085 330.944 341.493 330.944C340.981 330.944 340.581 331.048 340.293 331.256C340.021 331.464 339.885 331.76 339.885 332.144C339.885 332.448 339.965 332.696 340.125 332.888C340.301 333.08 340.541 333.256 340.845 333.416C341.149 333.56 341.653 333.768 342.357 334.04C343.525 334.488 344.365 334.984 344.877 335.528C345.389 336.056 345.645 336.768 345.645 337.664C345.645 338.8 345.237 339.68 344.421 340.304C343.605 340.928 342.445 341.24 340.941 341.24Z" fill="#222222"/>
<path d="M244.416 365.6H249.696V366.92H245.832V368.96H248.868V370.28H245.832V372.68H249.816V374H244.416V365.6ZM256.534 371.912H253.414L252.682 374H251.29L254.29 365.6H255.658L258.646 374H257.266L256.534 371.912ZM256.09 370.676L254.974 367.484L253.846 370.676H256.09ZM261.654 366.92H259.254V365.6H265.446V366.92H263.046V374H261.654V366.92ZM267.561 365.6H268.953V374H267.561V365.6ZM271.831 365.6H273.247L277.027 371.336V365.6H278.431V374H277.279L273.223 367.916V374H271.831V365.6ZM284.999 374.168C284.159 374.168 283.419 373.988 282.779 373.628C282.147 373.268 281.659 372.76 281.315 372.104C280.971 371.44 280.799 370.668 280.799 369.788C280.799 368.924 280.983 368.164 281.351 367.508C281.727 366.844 282.247 366.332 282.911 365.972C283.575 365.612 284.331 365.432 285.179 365.432C285.611 365.432 286.031 365.476 286.439 365.564C286.847 365.652 287.203 365.772 287.507 365.924L287.363 367.208C286.643 366.904 285.919 366.752 285.191 366.752C284.247 366.752 283.531 367.032 283.043 367.592C282.563 368.144 282.323 368.872 282.323 369.776C282.323 370.704 282.563 371.448 283.043 372.008C283.531 372.568 284.235 372.848 285.155 372.848C285.571 372.848 285.983 372.796 286.391 372.692V370.976H285.179V369.788H287.783V373.532C287.455 373.716 287.047 373.868 286.559 373.988C286.079 374.108 285.559 374.168 284.999 374.168ZM293.162 365.6H294.614L296.33 371.912L298.262 365.66H299.378L301.358 371.816L303.038 365.6H304.49L302.054 374H300.746L298.814 367.976L296.894 374H295.526L293.162 365.6ZM306.487 365.6H307.879V374H306.487V365.6ZM310.756 365.6H312.172L315.952 371.336V365.6H317.356V374H316.204L312.148 367.916V374H310.756V365.6ZM320.229 365.6H323.361C324.169 365.6 324.885 365.768 325.509 366.104C326.141 366.44 326.633 366.924 326.985 367.556C327.337 368.188 327.513 368.936 327.513 369.8C327.513 370.664 327.337 371.412 326.985 372.044C326.633 372.676 326.141 373.16 325.509 373.496C324.885 373.832 324.169 374 323.361 374H320.229V365.6ZM323.361 372.752C324.217 372.752 324.869 372.492 325.317 371.972C325.765 371.444 325.989 370.72 325.989 369.8C325.989 368.88 325.765 368.16 325.317 367.64C324.869 367.112 324.217 366.848 323.361 366.848H321.621V372.752H323.361ZM333.549 374.168C332.749 374.168 332.037 373.988 331.413 373.628C330.789 373.268 330.297 372.76 329.937 372.104C329.585 371.44 329.409 370.672 329.409 369.8C329.409 368.928 329.585 368.164 329.937 367.508C330.297 366.844 330.789 366.332 331.413 365.972C332.037 365.612 332.749 365.432 333.549 365.432C334.349 365.432 335.061 365.612 335.685 365.972C336.309 366.332 336.797 366.844 337.149 367.508C337.509 368.164 337.689 368.928 337.689 369.8C337.689 370.672 337.509 371.44 337.149 372.104C336.797 372.76 336.309 373.268 335.685 373.628C335.061 373.988 334.349 374.168 333.549 374.168ZM333.549 372.824C334.405 372.824 335.061 372.544 335.517 371.984C335.981 371.424 336.213 370.696 336.213 369.8C336.213 368.904 335.981 368.176 335.517 367.616C335.061 367.056 334.405 366.776 333.549 366.776C332.693 366.776 332.033 367.056 331.569 367.616C331.105 368.176 330.873 368.904 330.873 369.8C330.873 370.696 331.105 371.424 331.569 371.984C332.033 372.544 332.693 372.824 333.549 372.824ZM339.131 365.6H340.583L342.299 371.912L344.231 365.66H345.347L347.327 371.816L349.007 365.6H350.459L348.023 374H346.715L344.783 367.976L342.863 374H341.495L339.131 365.6Z" fill="#222222"/>
</svg>
