<svg width="451" height="404" viewBox="0 0 451 404" fill="none" xmlns="http://www.w3.org/2000/svg">
<circle fill="transparent" cx="261.311" cy="188.271" r="172.77" transform="rotate(-180 261.311 188.271)" stroke="#D9E2F0"/>
<circle fill="transparent" cx="231.964" cy="230.73" r="172.77" transform="rotate(-180 231.964 230.73)" stroke="#D9E2F0"/>
<circle fill="transparent" cx="173.27" cy="198.885" r="172.77" transform="rotate(-180 173.27 198.885)" stroke="#D9E2F0"/>
<mask id="mask0" mask-type="alpha" maskUnits="userSpaceOnUse" x="31" y="302" width="41" height="40">
<circle cx="51.999" cy="322" r="20" fill="#B7CFFC"/>
</mask>
<g mask="url(#mask0)">
<circle cx="51.999" cy="322" r="20" fill="#B7CFFC"/>
<path d="M54.7462 333.48C53.8632 333.691 52.946 333.815 51.9992 333.815C50.9303 333.815 49.9003 333.661 48.9147 333.393L49.0531 335.687C50.0046 335.891 50.9887 336 51.9992 336C52.8908 336 53.7636 335.914 54.6085 335.754L54.7462 333.48Z" fill="#222222"/>
<path d="M51.999 308C44.267 308 37.999 314.269 37.999 322C37.999 327.695 41.4025 332.593 46.2834 334.78L46.4265 332.414C42.7149 330.42 40.1843 326.501 40.1843 322C40.1843 315.485 45.4844 310.184 51.9998 310.184C58.5151 310.184 63.8145 315.485 63.8145 322C63.8145 326.628 61.1344 330.632 57.2494 332.569L57.3925 334.922C62.4476 332.81 65.9997 327.821 65.9997 322C65.9989 314.269 59.731 308 51.999 308Z" fill="#222222"/>
<path d="M54.8189 332.257L55.2545 325.078C54.0238 324.621 53.1175 323.102 53.1175 321.292C53.1175 319.122 54.4198 317.362 56.0239 317.362C57.6288 317.362 58.9303 319.122 58.9303 321.292C58.9303 323.102 58.0248 324.621 56.7941 325.078L57.1706 331.3C60.4318 329.478 62.645 325.996 62.645 322.001C62.645 316.13 57.8677 311.352 51.9965 311.352C46.1253 311.352 41.3495 316.129 41.3495 322C41.3495 325.861 43.4212 329.238 46.505 331.105L46.876 324.983H46.3011C45.6189 324.983 45.065 324.43 45.065 323.747V318.597C45.065 317.968 45.5364 317.455 46.144 317.377V321.72H47.013V317.361H48.267V321.72H49.136V317.377C49.7428 317.455 50.2158 317.969 50.2158 318.597V323.747C50.2158 324.43 49.6611 324.983 48.9788 324.983H48.4031L48.8388 332.17C49.8369 332.481 50.8972 332.648 51.998 332.648C52.9751 332.649 53.9188 332.505 54.8189 332.257Z" fill="#222222"/>
</g>
<circle cx="430.999" cy="167" r="20" fill="#C9B4F4"/>
<path d="M420.999 167C420.999 161.477 425.475 157 430.999 157C436.522 157 440.999 161.476 440.999 167C440.999 172.523 436.523 177 430.999 177C425.476 177 420.999 172.524 420.999 167ZM432.052 161.208C432.052 160.919 431.818 160.684 431.52 160.684H430.478C430.184 160.684 429.946 160.92 429.946 161.21V167.526C429.946 167.805 430.057 168.073 430.255 168.271L432.515 170.531C432.72 170.736 433.051 170.737 433.262 170.527L433.999 169.789C434.207 169.582 434.208 169.246 434.002 169.04L432.052 167.09V161.208Z" fill="#222222"/>
<circle cx="161.999" cy="130" r="130" fill="#C9B4F4"/>
<path d="M124.719 109.86C123.039 110.98 121.279 111.7 119.439 112.02L118.779 105.54C120.099 105.26 121.579 104.46 123.219 103.14C124.859 101.78 125.959 100.4 126.519 99H132.399V141H124.719V109.86ZM157.128 115.74C159.448 115.74 161.548 116.28 163.428 117.36C165.308 118.44 166.768 119.94 167.808 121.86C168.888 123.78 169.428 125.96 169.428 128.4C169.428 131.04 168.868 133.38 167.748 135.42C166.628 137.46 165.028 139.04 162.948 140.16C160.868 141.28 158.428 141.84 155.628 141.84C152.748 141.84 150.208 141.2 148.008 139.92C145.808 138.6 144.108 136.76 142.908 134.4C141.708 132.04 141.108 129.3 141.108 126.18C141.108 121.94 142.068 117.96 143.988 114.24C145.908 110.52 148.328 107.3 151.248 104.58C154.208 101.86 157.228 99.72 160.308 98.16L165.648 102.36C162.728 103.8 159.688 105.88 156.528 108.6C153.368 111.28 151.048 114.34 149.568 117.78C151.648 116.42 154.168 115.74 157.128 115.74ZM155.748 135.48C157.668 135.48 159.268 134.84 160.548 133.56C161.828 132.24 162.468 130.62 162.468 128.7C162.468 126.82 161.828 125.26 160.548 124.02C159.268 122.74 157.668 122.1 155.748 122.1C153.788 122.1 152.168 122.74 150.888 124.02C149.648 125.26 149.028 126.82 149.028 128.7C149.028 130.62 149.668 132.24 150.948 133.56C152.228 134.84 153.828 135.48 155.748 135.48Z" fill="#222222"/>
<path d="M183.439 128.808C184.959 128.808 186.087 129.304 186.823 130.296C187.575 131.272 187.951 132.616 187.951 134.328V141H184.975V134.544C184.975 133.408 184.791 132.576 184.423 132.048C184.055 131.52 183.471 131.256 182.671 131.256C181.727 131.256 180.951 131.6 180.343 132.288V141H177.367V123H180.343V129.768C180.823 129.464 181.311 129.232 181.807 129.072C182.303 128.896 182.847 128.808 183.439 128.808ZM190.61 129H193.394L193.466 130.272C193.818 129.872 194.266 129.52 194.81 129.216C195.37 128.912 195.954 128.76 196.562 128.76C196.754 128.76 196.93 128.776 197.09 128.808L196.874 131.736C196.57 131.656 196.226 131.616 195.842 131.616C195.346 131.616 194.89 131.736 194.474 131.976C194.058 132.2 193.762 132.48 193.586 132.816V141H190.61V129ZM201.94 141.24C201.172 141.24 200.468 141.168 199.828 141.024C199.204 140.88 198.556 140.656 197.884 140.352L198.148 137.808C198.82 138.208 199.444 138.512 200.02 138.72C200.612 138.912 201.22 139.008 201.844 139.008C203.06 139.008 203.668 138.608 203.668 137.808C203.668 137.376 203.508 137.048 203.188 136.824C202.868 136.584 202.292 136.304 201.46 135.984C200.276 135.552 199.404 135.064 198.844 134.52C198.284 133.96 198.004 133.208 198.004 132.264C198.004 131.224 198.404 130.384 199.204 129.744C200.004 129.088 201.084 128.76 202.444 128.76C203.804 128.76 205.044 129.072 206.164 129.696L205.9 132.24C205.292 131.824 204.716 131.504 204.172 131.28C203.644 131.056 203.084 130.944 202.492 130.944C201.98 130.944 201.58 131.048 201.292 131.256C201.02 131.464 200.884 131.76 200.884 132.144C200.884 132.448 200.964 132.696 201.124 132.888C201.3 133.08 201.54 133.256 201.844 133.416C202.148 133.56 202.652 133.768 203.356 134.04C204.524 134.488 205.364 134.984 205.876 135.528C206.388 136.056 206.644 136.768 206.644 137.664C206.644 138.8 206.236 139.68 205.42 140.304C204.604 140.928 203.444 141.24 201.94 141.24Z" fill="#222222"/>
<path d="M106.164 165.6H111.324V166.92H107.556V168.96H110.46V170.28H107.556V174H106.164V165.6ZM117.18 171.912H114.06L113.328 174H111.936L114.936 165.6H116.304L119.292 174H117.912L117.18 171.912ZM116.736 170.676L115.62 167.484L114.492 170.676H116.736ZM123.713 174.168C123.233 174.168 122.729 174.108 122.201 173.988C121.673 173.868 121.253 173.732 120.941 173.58L121.109 172.104C122.149 172.6 123.089 172.848 123.929 172.848C124.401 172.848 124.769 172.76 125.033 172.584C125.297 172.408 125.429 172.144 125.429 171.792C125.429 171.52 125.357 171.3 125.213 171.132C125.077 170.964 124.873 170.82 124.601 170.7C124.329 170.572 123.925 170.42 123.389 170.244C122.869 170.076 122.437 169.896 122.093 169.704C121.749 169.504 121.473 169.252 121.265 168.948C121.065 168.636 120.965 168.248 120.965 167.784C120.965 167.08 121.225 166.512 121.745 166.08C122.273 165.648 123.025 165.432 124.001 165.432C124.481 165.432 124.953 165.484 125.417 165.588C125.881 165.692 126.293 165.824 126.653 165.984L126.509 167.424C126.029 167.192 125.581 167.02 125.165 166.908C124.757 166.796 124.341 166.74 123.917 166.74C123.437 166.74 123.065 166.824 122.801 166.992C122.537 167.152 122.405 167.4 122.405 167.736C122.405 167.976 122.469 168.176 122.597 168.336C122.733 168.488 122.917 168.616 123.149 168.72C123.389 168.824 123.733 168.948 124.181 169.092C125.141 169.388 125.845 169.736 126.293 170.136C126.749 170.528 126.977 171.068 126.977 171.756C126.977 172.436 126.729 173.008 126.233 173.472C125.737 173.936 124.897 174.168 123.713 174.168ZM130.905 166.92H128.505V165.6H134.697V166.92H132.297V174H130.905V166.92ZM136.812 165.6H138.204V174H136.812V165.6ZM141.082 165.6H142.498L146.278 171.336V165.6H147.682V174H146.53L142.474 167.916V174H141.082V165.6ZM154.25 174.168C153.41 174.168 152.67 173.988 152.03 173.628C151.398 173.268 150.91 172.76 150.566 172.104C150.222 171.44 150.05 170.668 150.05 169.788C150.05 168.924 150.234 168.164 150.602 167.508C150.978 166.844 151.498 166.332 152.162 165.972C152.826 165.612 153.582 165.432 154.43 165.432C154.862 165.432 155.282 165.476 155.69 165.564C156.098 165.652 156.454 165.772 156.758 165.924L156.614 167.208C155.894 166.904 155.17 166.752 154.442 166.752C153.498 166.752 152.782 167.032 152.294 167.592C151.814 168.144 151.574 168.872 151.574 169.776C151.574 170.704 151.814 171.448 152.294 172.008C152.782 172.568 153.486 172.848 154.406 172.848C154.822 172.848 155.234 172.796 155.642 172.692V170.976H154.43V169.788H157.034V173.532C156.706 173.716 156.298 173.868 155.81 173.988C155.33 174.108 154.81 174.168 154.25 174.168ZM162.413 165.6H163.865L165.581 171.912L167.513 165.66H168.629L170.609 171.816L172.289 165.6H173.741L171.305 174H169.997L168.065 167.976L166.145 174H164.777L162.413 165.6ZM175.738 165.6H177.13V174H175.738V165.6ZM180.007 165.6H181.423L185.203 171.336V165.6H186.607V174H185.455L181.399 167.916V174H180.007V165.6ZM189.48 165.6H192.612C193.42 165.6 194.136 165.768 194.76 166.104C195.392 166.44 195.884 166.924 196.236 167.556C196.588 168.188 196.764 168.936 196.764 169.8C196.764 170.664 196.588 171.412 196.236 172.044C195.884 172.676 195.392 173.16 194.76 173.496C194.136 173.832 193.42 174 192.612 174H189.48V165.6ZM192.612 172.752C193.468 172.752 194.12 172.492 194.568 171.972C195.016 171.444 195.24 170.72 195.24 169.8C195.24 168.88 195.016 168.16 194.568 167.64C194.12 167.112 193.468 166.848 192.612 166.848H190.872V172.752H192.612ZM202.8 174.168C202 174.168 201.288 173.988 200.664 173.628C200.04 173.268 199.548 172.76 199.188 172.104C198.836 171.44 198.66 170.672 198.66 169.8C198.66 168.928 198.836 168.164 199.188 167.508C199.548 166.844 200.04 166.332 200.664 165.972C201.288 165.612 202 165.432 202.8 165.432C203.6 165.432 204.312 165.612 204.936 165.972C205.56 166.332 206.048 166.844 206.4 167.508C206.76 168.164 206.94 168.928 206.94 169.8C206.94 170.672 206.76 171.44 206.4 172.104C206.048 172.76 205.56 173.268 204.936 173.628C204.312 173.988 203.6 174.168 202.8 174.168ZM202.8 172.824C203.656 172.824 204.312 172.544 204.768 171.984C205.232 171.424 205.464 170.696 205.464 169.8C205.464 168.904 205.232 168.176 204.768 167.616C204.312 167.056 203.656 166.776 202.8 166.776C201.944 166.776 201.284 167.056 200.82 167.616C200.356 168.176 200.124 168.904 200.124 169.8C200.124 170.696 200.356 171.424 200.82 171.984C201.284 172.544 201.944 172.824 202.8 172.824ZM208.382 165.6H209.834L211.55 171.912L213.482 165.66H214.598L216.578 171.816L218.258 165.6H219.71L217.274 174H215.966L214.034 167.976L212.114 174H210.746L208.382 165.6Z" fill="#222222"/>
<circle cx="302.999" cy="330" r="70" fill="#B7CFFC"/>
<path d="M295.511 316.95C297.178 317.85 298.478 319.083 299.411 320.65C300.344 322.217 300.811 323.983 300.811 325.95C300.811 328.05 300.311 329.917 299.311 331.55C298.311 333.183 296.878 334.45 295.011 335.35C293.144 336.25 290.978 336.7 288.511 336.7C286.011 336.7 283.828 336.25 281.961 335.35C280.128 334.45 278.711 333.183 277.711 331.55C276.711 329.917 276.211 328.05 276.211 325.95C276.211 323.95 276.678 322.183 277.611 320.65C278.578 319.083 279.911 317.85 281.611 316.95C280.411 316.117 279.478 315.083 278.811 313.85C278.144 312.583 277.811 311.217 277.811 309.75C277.811 308.117 278.194 306.583 278.961 305.15C279.728 303.717 280.911 302.55 282.511 301.65C284.111 300.75 286.111 300.3 288.511 300.3C290.911 300.3 292.894 300.75 294.461 301.65C296.028 302.55 297.178 303.717 297.911 305.15C298.644 306.583 299.011 308.117 299.011 309.75C299.011 311.25 298.711 312.617 298.111 313.85C297.511 315.083 296.644 316.117 295.511 316.95ZM288.511 305.3C286.911 305.3 285.661 305.717 284.761 306.55C283.861 307.35 283.411 308.433 283.411 309.8C283.411 311.1 283.861 312.183 284.761 313.05C285.694 313.917 286.944 314.35 288.511 314.35C290.078 314.35 291.278 313.917 292.111 313.05C292.978 312.183 293.411 311.1 293.411 309.8C293.411 308.433 292.978 307.35 292.111 306.55C291.278 305.717 290.078 305.3 288.511 305.3ZM288.511 331.2C290.511 331.2 292.078 330.7 293.211 329.7C294.344 328.667 294.911 327.283 294.911 325.55C294.911 323.917 294.328 322.583 293.161 321.55C292.028 320.517 290.478 320 288.511 320C286.544 320 284.978 320.517 283.811 321.55C282.678 322.583 282.111 323.917 282.111 325.55C282.111 327.283 282.678 328.667 283.811 329.7C284.944 330.7 286.511 331.2 288.511 331.2Z" fill="#222222"/>
<path d="M315.439 323.808C316.959 323.808 318.087 324.304 318.823 325.296C319.575 326.272 319.951 327.616 319.951 329.328V336H316.975V329.544C316.975 328.408 316.791 327.576 316.423 327.048C316.055 326.52 315.471 326.256 314.671 326.256C313.727 326.256 312.951 326.6 312.343 327.288V336H309.367V318H312.343V324.768C312.823 324.464 313.311 324.232 313.807 324.072C314.303 323.896 314.847 323.808 315.439 323.808ZM322.61 324H325.394L325.466 325.272C325.818 324.872 326.266 324.52 326.81 324.216C327.37 323.912 327.954 323.76 328.562 323.76C328.754 323.76 328.93 323.776 329.09 323.808L328.874 326.736C328.57 326.656 328.226 326.616 327.842 326.616C327.346 326.616 326.89 326.736 326.474 326.976C326.058 327.2 325.762 327.48 325.586 327.816V336H322.61V324ZM333.94 336.24C333.172 336.24 332.468 336.168 331.828 336.024C331.204 335.88 330.556 335.656 329.884 335.352L330.148 332.808C330.82 333.208 331.444 333.512 332.02 333.72C332.612 333.912 333.22 334.008 333.844 334.008C335.06 334.008 335.668 333.608 335.668 332.808C335.668 332.376 335.508 332.048 335.188 331.824C334.868 331.584 334.292 331.304 333.46 330.984C332.276 330.552 331.404 330.064 330.844 329.52C330.284 328.96 330.004 328.208 330.004 327.264C330.004 326.224 330.404 325.384 331.204 324.744C332.004 324.088 333.084 323.76 334.444 323.76C335.804 323.76 337.044 324.072 338.164 324.696L337.9 327.24C337.292 326.824 336.716 326.504 336.172 326.28C335.644 326.056 335.084 325.944 334.492 325.944C333.98 325.944 333.58 326.048 333.292 326.256C333.02 326.464 332.884 326.76 332.884 327.144C332.884 327.448 332.964 327.696 333.124 327.888C333.3 328.08 333.54 328.256 333.844 328.416C334.148 328.56 334.652 328.768 335.356 329.04C336.524 329.488 337.364 329.984 337.876 330.528C338.388 331.056 338.644 331.768 338.644 332.664C338.644 333.8 338.236 334.68 337.42 335.304C336.604 335.928 335.444 336.24 333.94 336.24Z" fill="#222222"/>
<path d="M250.415 351.6H255.695V352.92H251.831V354.96H254.867V356.28H251.831V358.68H255.815V360H250.415V351.6ZM262.533 357.912H259.413L258.681 360H257.289L260.289 351.6H261.657L264.645 360H263.265L262.533 357.912ZM262.089 356.676L260.973 353.484L259.845 356.676H262.089ZM267.653 352.92H265.253V351.6H271.445V352.92H269.045V360H267.653V352.92ZM273.56 351.6H274.952V360H273.56V351.6ZM277.83 351.6H279.246L283.026 357.336V351.6H284.43V360H283.278L279.222 353.916V360H277.83V351.6ZM290.998 360.168C290.158 360.168 289.418 359.988 288.778 359.628C288.146 359.268 287.658 358.76 287.314 358.104C286.97 357.44 286.798 356.668 286.798 355.788C286.798 354.924 286.982 354.164 287.35 353.508C287.726 352.844 288.246 352.332 288.91 351.972C289.574 351.612 290.33 351.432 291.178 351.432C291.61 351.432 292.03 351.476 292.438 351.564C292.846 351.652 293.202 351.772 293.506 351.924L293.362 353.208C292.642 352.904 291.918 352.752 291.19 352.752C290.246 352.752 289.53 353.032 289.042 353.592C288.562 354.144 288.322 354.872 288.322 355.776C288.322 356.704 288.562 357.448 289.042 358.008C289.53 358.568 290.234 358.848 291.154 358.848C291.57 358.848 291.982 358.796 292.39 358.692V356.976H291.178V355.788H293.782V359.532C293.454 359.716 293.046 359.868 292.558 359.988C292.078 360.108 291.558 360.168 290.998 360.168ZM299.161 351.6H300.613L302.329 357.912L304.261 351.66H305.377L307.357 357.816L309.037 351.6H310.489L308.053 360H306.745L304.813 353.976L302.893 360H301.525L299.161 351.6ZM312.486 351.6H313.878V360H312.486V351.6ZM316.755 351.6H318.171L321.951 357.336V351.6H323.355V360H322.203L318.147 353.916V360H316.755V351.6ZM326.228 351.6H329.36C330.168 351.6 330.884 351.768 331.508 352.104C332.14 352.44 332.632 352.924 332.984 353.556C333.336 354.188 333.512 354.936 333.512 355.8C333.512 356.664 333.336 357.412 332.984 358.044C332.632 358.676 332.14 359.16 331.508 359.496C330.884 359.832 330.168 360 329.36 360H326.228V351.6ZM329.36 358.752C330.216 358.752 330.868 358.492 331.316 357.972C331.764 357.444 331.988 356.72 331.988 355.8C331.988 354.88 331.764 354.16 331.316 353.64C330.868 353.112 330.216 352.848 329.36 352.848H327.62V358.752H329.36ZM339.548 360.168C338.748 360.168 338.036 359.988 337.412 359.628C336.788 359.268 336.296 358.76 335.936 358.104C335.584 357.44 335.408 356.672 335.408 355.8C335.408 354.928 335.584 354.164 335.936 353.508C336.296 352.844 336.788 352.332 337.412 351.972C338.036 351.612 338.748 351.432 339.548 351.432C340.348 351.432 341.06 351.612 341.684 351.972C342.308 352.332 342.796 352.844 343.148 353.508C343.508 354.164 343.688 354.928 343.688 355.8C343.688 356.672 343.508 357.44 343.148 358.104C342.796 358.76 342.308 359.268 341.684 359.628C341.06 359.988 340.348 360.168 339.548 360.168ZM339.548 358.824C340.404 358.824 341.06 358.544 341.516 357.984C341.98 357.424 342.212 356.696 342.212 355.8C342.212 354.904 341.98 354.176 341.516 353.616C341.06 353.056 340.404 352.776 339.548 352.776C338.692 352.776 338.032 353.056 337.568 353.616C337.104 354.176 336.872 354.904 336.872 355.8C336.872 356.696 337.104 357.424 337.568 357.984C338.032 358.544 338.692 358.824 339.548 358.824ZM345.13 351.6H346.582L348.298 357.912L350.23 351.66H351.346L353.326 357.816L355.006 351.6H356.458L354.022 360H352.714L350.782 353.976L348.862 360H347.494L345.13 351.6Z" fill="#222222"/>
</svg>
