<svg width="435" height="406" viewBox="0 0 435 406" fill="none" xmlns="http://www.w3.org/2000/svg">
<circle fill="transparent" cx="173.27" cy="232.729" r="172.77" stroke="#D9E2F0"/>
<circle fill="transparent" cx="202.617" cy="190.27" r="172.77" stroke="#D9E2F0"/>
<circle fill="transparent" cx="261.311" cy="222.115" r="172.77" stroke="#D9E2F0"/>
<mask id="mask0" mask-type="alpha" maskUnits="userSpaceOnUse" x="29" y="329" width="40" height="40">
<circle cx="49" cy="349" r="20" fill="#B7CFFC"/>
</mask>
<g mask="url(#mask0)">
<circle cx="49" cy="349" r="20" fill="#B7CFFC"/>
<path d="M51.7471 360.48C50.8642 360.691 49.947 360.815 49.0002 360.815C47.9313 360.815 46.9013 360.661 45.9156 360.393L46.0541 362.687C47.0056 362.891 47.9897 363 49.0002 363C49.8917 363 50.7646 362.914 51.6095 362.754L51.7471 360.48Z" fill="#222222"/>
<path d="M49 335C41.2679 335 35 341.269 35 349C35 354.695 38.4035 359.593 43.2844 361.78L43.4275 359.414C39.7159 357.42 37.1853 353.501 37.1853 349C37.1853 342.485 42.4854 337.184 49.0007 337.184C55.5161 337.184 60.8154 342.485 60.8154 349C60.8154 353.628 58.1354 357.632 54.2503 359.569L54.3935 361.922C59.4486 359.81 63.0007 354.821 63.0007 349C62.9999 341.269 56.732 335 49 335Z" fill="#222222"/>
<path d="M51.8199 359.257L52.2556 352.078C51.0249 351.621 50.1185 350.102 50.1185 348.292C50.1185 346.122 51.4208 344.362 53.025 344.362C54.6299 344.362 55.9314 346.122 55.9314 348.292C55.9314 350.102 55.0258 351.621 53.7951 352.078L54.1717 358.3C57.4328 356.478 59.6461 352.996 59.6461 349.001C59.6461 343.13 54.8687 338.352 48.9975 338.352C43.1264 338.352 38.3505 343.129 38.3505 349C38.3505 352.861 40.4222 356.238 43.506 358.105L43.8771 351.983H43.3022C42.6199 351.983 42.066 351.43 42.066 350.747V345.597C42.066 344.968 42.5374 344.455 43.145 344.377V348.72H44.014V344.361H45.268V348.72H46.137V344.377C46.7438 344.455 47.2168 344.969 47.2168 345.597V350.747C47.2168 351.43 46.6621 351.983 45.9799 351.983H45.4042L45.8398 359.17C46.8379 359.481 47.8983 359.648 48.9991 359.648C49.9762 359.649 50.9198 359.505 51.8199 359.257Z" fill="#222222"/>
</g>
<circle cx="415" cy="160" r="20" fill="#C9B4F4"/>
<path d="M405 160C405 154.477 409.476 150 415 150C420.523 150 425 154.476 425 160C425 165.523 420.524 170 415 170C409.477 170 405 165.524 405 160ZM416.053 154.208C416.053 153.919 415.819 153.684 415.521 153.684H414.479C414.185 153.684 413.947 153.92 413.947 154.21V160.526C413.947 160.805 414.058 161.073 414.256 161.271L416.516 163.531C416.721 163.736 417.052 163.737 417.263 163.527L418 162.789C418.208 162.582 418.209 162.246 418.003 162.04L416.053 160.09V154.208Z" fill="#222222"/>
<circle cx="177" cy="140" r="140" fill="#C9B4F4"/>
<path d="M136.119 134.02C138.439 130.46 140.019 127.78 140.859 125.98C141.739 124.18 142.179 122.48 142.179 120.88C142.179 119.16 141.679 117.82 140.679 116.86C139.719 115.86 138.379 115.36 136.659 115.36C134.739 115.36 132.959 115.82 131.319 116.74C129.679 117.66 128.079 118.9 126.519 120.46L125.559 112.72C127.439 111.2 129.399 110.06 131.439 109.3C133.479 108.54 135.739 108.16 138.219 108.16C140.659 108.16 142.739 108.68 144.459 109.72C146.179 110.72 147.459 112.08 148.299 113.8C149.179 115.52 149.619 117.42 149.619 119.5C149.619 121.86 149.099 124.28 148.059 126.76C147.059 129.24 145.279 132.42 142.719 136.3L137.799 143.8H151.119V151H125.079L136.119 134.02ZM175.377 151.84C171.857 151.84 168.757 150.92 166.077 149.08C163.437 147.24 161.377 144.64 159.897 141.28C158.417 137.92 157.677 134.04 157.677 129.64C157.677 125.44 158.417 121.72 159.897 118.48C161.377 115.2 163.457 112.66 166.137 110.86C168.817 109.06 171.897 108.16 175.377 108.16C178.897 108.16 181.997 109.08 184.677 110.92C187.357 112.72 189.417 115.24 190.857 118.48C192.337 121.72 193.077 125.44 193.077 129.64C193.077 134.04 192.337 137.92 190.857 141.28C189.417 144.64 187.357 147.24 184.677 149.08C181.997 150.92 178.897 151.84 175.377 151.84ZM175.377 144.94C178.417 144.94 180.837 143.68 182.637 141.16C184.477 138.64 185.397 134.8 185.397 129.64C185.397 124.84 184.477 121.2 182.637 118.72C180.797 116.2 178.377 114.94 175.377 114.94C172.377 114.94 169.957 116.2 168.117 118.72C166.277 121.2 165.357 124.84 165.357 129.64C165.357 134.76 166.257 138.6 168.057 141.16C169.897 143.68 172.337 144.94 175.377 144.94Z" fill="#222222"/>
<path d="M208.44 138.808C209.96 138.808 211.088 139.304 211.824 140.296C212.576 141.272 212.952 142.616 212.952 144.328V151H209.976V144.544C209.976 143.408 209.792 142.576 209.424 142.048C209.056 141.52 208.472 141.256 207.672 141.256C206.728 141.256 205.952 141.6 205.344 142.288V151H202.368V133H205.344V139.768C205.824 139.464 206.312 139.232 206.808 139.072C207.304 138.896 207.848 138.808 208.44 138.808ZM215.611 139H218.395L218.467 140.272C218.819 139.872 219.267 139.52 219.811 139.216C220.371 138.912 220.955 138.76 221.563 138.76C221.755 138.76 221.931 138.776 222.091 138.808L221.875 141.736C221.571 141.656 221.227 141.616 220.843 141.616C220.347 141.616 219.891 141.736 219.475 141.976C219.059 142.2 218.763 142.48 218.587 142.816V151H215.611V139ZM226.941 151.24C226.173 151.24 225.469 151.168 224.829 151.024C224.205 150.88 223.557 150.656 222.885 150.352L223.149 147.808C223.821 148.208 224.445 148.512 225.021 148.72C225.613 148.912 226.221 149.008 226.845 149.008C228.061 149.008 228.669 148.608 228.669 147.808C228.669 147.376 228.509 147.048 228.189 146.824C227.869 146.584 227.293 146.304 226.461 145.984C225.277 145.552 224.405 145.064 223.845 144.52C223.285 143.96 223.005 143.208 223.005 142.264C223.005 141.224 223.405 140.384 224.205 139.744C225.005 139.088 226.085 138.76 227.445 138.76C228.805 138.76 230.045 139.072 231.165 139.696L230.901 142.24C230.293 141.824 229.717 141.504 229.173 141.28C228.645 141.056 228.085 140.944 227.493 140.944C226.981 140.944 226.581 141.048 226.293 141.256C226.021 141.464 225.885 141.76 225.885 142.144C225.885 142.448 225.965 142.696 226.125 142.888C226.301 143.08 226.541 143.256 226.845 143.416C227.149 143.56 227.653 143.768 228.357 144.04C229.525 144.488 230.365 144.984 230.877 145.528C231.389 146.056 231.645 146.768 231.645 147.664C231.645 148.8 231.237 149.68 230.421 150.304C229.605 150.928 228.445 151.24 226.941 151.24Z" fill="#222222"/>
<path d="M120.165 175.6H125.325V176.92H121.557V178.96H124.461V180.28H121.557V184H120.165V175.6ZM131.181 181.912H128.061L127.329 184H125.937L128.937 175.6H130.305L133.293 184H131.913L131.181 181.912ZM130.737 180.676L129.621 177.484L128.493 180.676H130.737ZM137.714 184.168C137.234 184.168 136.73 184.108 136.202 183.988C135.674 183.868 135.254 183.732 134.942 183.58L135.11 182.104C136.15 182.6 137.09 182.848 137.93 182.848C138.402 182.848 138.77 182.76 139.034 182.584C139.298 182.408 139.43 182.144 139.43 181.792C139.43 181.52 139.358 181.3 139.214 181.132C139.078 180.964 138.874 180.82 138.602 180.7C138.33 180.572 137.926 180.42 137.39 180.244C136.87 180.076 136.438 179.896 136.094 179.704C135.75 179.504 135.474 179.252 135.266 178.948C135.066 178.636 134.966 178.248 134.966 177.784C134.966 177.08 135.226 176.512 135.746 176.08C136.274 175.648 137.026 175.432 138.002 175.432C138.482 175.432 138.954 175.484 139.418 175.588C139.882 175.692 140.294 175.824 140.654 175.984L140.51 177.424C140.03 177.192 139.582 177.02 139.166 176.908C138.758 176.796 138.342 176.74 137.918 176.74C137.438 176.74 137.066 176.824 136.802 176.992C136.538 177.152 136.406 177.4 136.406 177.736C136.406 177.976 136.47 178.176 136.598 178.336C136.734 178.488 136.918 178.616 137.15 178.72C137.39 178.824 137.734 178.948 138.182 179.092C139.142 179.388 139.846 179.736 140.294 180.136C140.75 180.528 140.978 181.068 140.978 181.756C140.978 182.436 140.73 183.008 140.234 183.472C139.738 183.936 138.898 184.168 137.714 184.168ZM144.906 176.92H142.506V175.6H148.698V176.92H146.298V184H144.906V176.92ZM150.813 175.6H152.205V184H150.813V175.6ZM155.082 175.6H156.498L160.278 181.336V175.6H161.682V184H160.53L156.474 177.916V184H155.082V175.6ZM168.251 184.168C167.411 184.168 166.671 183.988 166.031 183.628C165.399 183.268 164.911 182.76 164.567 182.104C164.223 181.44 164.051 180.668 164.051 179.788C164.051 178.924 164.235 178.164 164.603 177.508C164.979 176.844 165.499 176.332 166.163 175.972C166.827 175.612 167.583 175.432 168.431 175.432C168.863 175.432 169.283 175.476 169.691 175.564C170.099 175.652 170.455 175.772 170.759 175.924L170.615 177.208C169.895 176.904 169.171 176.752 168.443 176.752C167.499 176.752 166.783 177.032 166.295 177.592C165.815 178.144 165.575 178.872 165.575 179.776C165.575 180.704 165.815 181.448 166.295 182.008C166.783 182.568 167.487 182.848 168.407 182.848C168.823 182.848 169.235 182.796 169.643 182.692V180.976H168.431V179.788H171.035V183.532C170.707 183.716 170.299 183.868 169.811 183.988C169.331 184.108 168.811 184.168 168.251 184.168ZM176.414 175.6H177.866L179.582 181.912L181.514 175.66H182.63L184.61 181.816L186.29 175.6H187.742L185.306 184H183.998L182.066 177.976L180.146 184H178.778L176.414 175.6ZM189.739 175.6H191.131V184H189.739V175.6ZM194.008 175.6H195.424L199.204 181.336V175.6H200.608V184H199.456L195.4 177.916V184H194.008V175.6ZM203.481 175.6H206.613C207.421 175.6 208.137 175.768 208.761 176.104C209.393 176.44 209.885 176.924 210.237 177.556C210.589 178.188 210.765 178.936 210.765 179.8C210.765 180.664 210.589 181.412 210.237 182.044C209.885 182.676 209.393 183.16 208.761 183.496C208.137 183.832 207.421 184 206.613 184H203.481V175.6ZM206.613 182.752C207.469 182.752 208.121 182.492 208.569 181.972C209.017 181.444 209.241 180.72 209.241 179.8C209.241 178.88 209.017 178.16 208.569 177.64C208.121 177.112 207.469 176.848 206.613 176.848H204.873V182.752H206.613ZM216.801 184.168C216.001 184.168 215.289 183.988 214.665 183.628C214.041 183.268 213.549 182.76 213.189 182.104C212.837 181.44 212.661 180.672 212.661 179.8C212.661 178.928 212.837 178.164 213.189 177.508C213.549 176.844 214.041 176.332 214.665 175.972C215.289 175.612 216.001 175.432 216.801 175.432C217.601 175.432 218.313 175.612 218.937 175.972C219.561 176.332 220.049 176.844 220.401 177.508C220.761 178.164 220.941 178.928 220.941 179.8C220.941 180.672 220.761 181.44 220.401 182.104C220.049 182.76 219.561 183.268 218.937 183.628C218.313 183.988 217.601 184.168 216.801 184.168ZM216.801 182.824C217.657 182.824 218.313 182.544 218.769 181.984C219.233 181.424 219.465 180.696 219.465 179.8C219.465 178.904 219.233 178.176 218.769 177.616C218.313 177.056 217.657 176.776 216.801 176.776C215.945 176.776 215.285 177.056 214.821 177.616C214.357 178.176 214.125 178.904 214.125 179.8C214.125 180.696 214.357 181.424 214.821 181.984C215.285 182.544 215.945 182.824 216.801 182.824ZM222.383 175.6H223.835L225.551 181.912L227.483 175.66H228.599L230.579 181.816L232.259 175.6H233.711L231.275 184H229.967L228.035 177.976L226.115 184H224.747L222.383 175.6Z" fill="#222222"/>
<circle cx="308" cy="329" r="60" fill="#B7CFFC"/>
<path d="M302.923 317.8V323H298.423V331H292.273V323H274.823L294.073 296H298.423V317.8H302.923ZM292.273 317.8V307.05L284.723 317.8H292.273Z" fill="#222222"/>
<path d="M319.44 318.808C320.96 318.808 322.088 319.304 322.824 320.296C323.576 321.272 323.952 322.616 323.952 324.328V331H320.976V324.544C320.976 323.408 320.792 322.576 320.424 322.048C320.056 321.52 319.472 321.256 318.672 321.256C317.728 321.256 316.952 321.6 316.344 322.288V331H313.368V313H316.344V319.768C316.824 319.464 317.312 319.232 317.808 319.072C318.304 318.896 318.848 318.808 319.44 318.808ZM326.611 319H329.395L329.467 320.272C329.819 319.872 330.267 319.52 330.811 319.216C331.371 318.912 331.955 318.76 332.563 318.76C332.755 318.76 332.931 318.776 333.091 318.808L332.875 321.736C332.571 321.656 332.227 321.616 331.843 321.616C331.347 321.616 330.891 321.736 330.475 321.976C330.059 322.2 329.763 322.48 329.587 322.816V331H326.611V319ZM337.941 331.24C337.173 331.24 336.469 331.168 335.829 331.024C335.205 330.88 334.557 330.656 333.885 330.352L334.149 327.808C334.821 328.208 335.445 328.512 336.021 328.72C336.613 328.912 337.221 329.008 337.845 329.008C339.061 329.008 339.669 328.608 339.669 327.808C339.669 327.376 339.509 327.048 339.189 326.824C338.869 326.584 338.293 326.304 337.461 325.984C336.277 325.552 335.405 325.064 334.845 324.52C334.285 323.96 334.005 323.208 334.005 322.264C334.005 321.224 334.405 320.384 335.205 319.744C336.005 319.088 337.085 318.76 338.445 318.76C339.805 318.76 341.045 319.072 342.165 319.696L341.901 322.24C341.293 321.824 340.717 321.504 340.173 321.28C339.645 321.056 339.085 320.944 338.493 320.944C337.981 320.944 337.581 321.048 337.293 321.256C337.021 321.464 336.885 321.76 336.885 322.144C336.885 322.448 336.965 322.696 337.125 322.888C337.301 323.08 337.541 323.256 337.845 323.416C338.149 323.56 338.653 323.768 339.357 324.04C340.525 324.488 341.365 324.984 341.877 325.528C342.389 326.056 342.645 326.768 342.645 327.664C342.645 328.8 342.237 329.68 341.421 330.304C340.605 330.928 339.445 331.24 337.941 331.24Z" fill="#222222"/>
<path d="M263.18 346H267.58V347.1H264.36V348.8H266.89V349.9H264.36V351.9H267.68V353H263.18V346ZM273.445 351.26H270.845L270.235 353H269.075L271.575 346H272.715L275.205 353H274.055L273.445 351.26ZM273.075 350.23L272.145 347.57L271.205 350.23H273.075ZM277.879 347.1H275.879V346H281.039V347.1H279.039V353H277.879V347.1ZM282.968 346H284.128V353H282.968V346ZM286.692 346H287.872L291.022 350.78V346H292.192V353H291.232L287.852 347.93V353H286.692V346ZM297.833 353.14C297.133 353.14 296.516 352.99 295.983 352.69C295.456 352.39 295.049 351.967 294.763 351.42C294.476 350.867 294.333 350.223 294.333 349.49C294.333 348.77 294.486 348.137 294.793 347.59C295.106 347.037 295.539 346.61 296.093 346.31C296.646 346.01 297.276 345.86 297.983 345.86C298.343 345.86 298.693 345.897 299.033 345.97C299.373 346.043 299.669 346.143 299.923 346.27L299.803 347.34C299.203 347.087 298.599 346.96 297.993 346.96C297.206 346.96 296.609 347.193 296.203 347.66C295.803 348.12 295.603 348.727 295.603 349.48C295.603 350.253 295.803 350.873 296.203 351.34C296.609 351.807 297.196 352.04 297.963 352.04C298.309 352.04 298.653 351.997 298.993 351.91V350.48H297.983V349.49H300.153V352.61C299.879 352.763 299.539 352.89 299.133 352.99C298.733 353.09 298.299 353.14 297.833 353.14ZM304.969 346H306.179L307.609 351.26L309.219 346.05H310.149L311.799 351.18L313.199 346H314.409L312.379 353H311.289L309.679 347.98L308.079 353H306.939L304.969 346ZM316.239 346H317.399V353H316.239V346ZM319.964 346H321.144L324.294 350.78V346H325.464V353H324.504L321.124 347.93V353H319.964V346ZM328.024 346H330.634C331.307 346 331.904 346.14 332.424 346.42C332.951 346.7 333.361 347.103 333.654 347.63C333.947 348.157 334.094 348.78 334.094 349.5C334.094 350.22 333.947 350.843 333.654 351.37C333.361 351.897 332.951 352.3 332.424 352.58C331.904 352.86 331.307 353 330.634 353H328.024V346ZM330.634 351.96C331.347 351.96 331.891 351.743 332.264 351.31C332.637 350.87 332.824 350.267 332.824 349.5C332.824 348.733 332.637 348.133 332.264 347.7C331.891 347.26 331.347 347.04 330.634 347.04H329.184V351.96H330.634ZM339.291 353.14C338.624 353.14 338.031 352.99 337.511 352.69C336.991 352.39 336.581 351.967 336.281 351.42C335.987 350.867 335.841 350.227 335.841 349.5C335.841 348.773 335.987 348.137 336.281 347.59C336.581 347.037 336.991 346.61 337.511 346.31C338.031 346.01 338.624 345.86 339.291 345.86C339.957 345.86 340.551 346.01 341.071 346.31C341.591 346.61 341.997 347.037 342.291 347.59C342.591 348.137 342.741 348.773 342.741 349.5C342.741 350.227 342.591 350.867 342.291 351.42C341.997 351.967 341.591 352.39 341.071 352.69C340.551 352.99 339.957 353.14 339.291 353.14ZM339.291 352.02C340.004 352.02 340.551 351.787 340.931 351.32C341.317 350.853 341.511 350.247 341.511 349.5C341.511 348.753 341.317 348.147 340.931 347.68C340.551 347.213 340.004 346.98 339.291 346.98C338.577 346.98 338.027 347.213 337.641 347.68C337.254 348.147 337.061 348.753 337.061 349.5C337.061 350.247 337.254 350.853 337.641 351.32C338.027 351.787 338.577 352.02 339.291 352.02ZM344.109 346H345.319L346.749 351.26L348.359 346.05H349.289L350.939 351.18L352.339 346H353.549L351.519 353H350.429L348.819 347.98L347.219 353H346.079L344.109 346Z" fill="#222222"/>
</svg>
