<svg width="40" height="40" viewBox="0 0 40 40" fill="none" xmlns="http://www.w3.org/2000/svg">
<path d="M38.9703 7.03906H1.02974C0.46034 7.03906 0 7.50011 0 8.06881V31.9314C0 32.5001 0.46034 32.9619 1.02974 32.9619H38.9703C39.5397 32.9619 40 32.5008 40 31.9321V8.06881C40 7.50011 39.5397 7.03906 38.9703 7.03906ZM9.83994 18.8833L9.72096 18.6134V18.6283C9.72096 18.9746 9.4398 19.2558 9.09348 19.2558H7.24575C6.99079 19.2558 6.76204 19.1021 6.66501 18.867L6.47592 18.408H5.42351L5.23159 18.8698C5.13527 19.1035 4.90581 19.2565 4.65368 19.2565H3.66643C3.45538 19.2565 3.2585 19.1503 3.14235 18.9746C3.02691 18.7976 3.00637 18.5752 3.08994 18.3818L4.71601 14.5808C4.81445 14.3507 5.04178 14.2005 5.2932 14.2005H6.64164C6.89306 14.2005 7.11898 14.35 7.21884 14.5801L7.55949 15.3748V14.8287C7.55949 14.4824 7.83994 14.2012 8.18697 14.2012H9.67068C9.91431 14.2012 10.1374 14.3443 10.2408 14.566L10.835 15.8563L11.3746 14.5844C11.4724 14.3521 11.7004 14.2012 11.9511 14.2012H13.4653C13.5928 14.2012 13.704 14.2487 13.8038 14.3139C13.903 14.2487 14.0142 14.2012 14.1424 14.2012H17.1763C17.2939 14.2012 17.398 14.2423 17.4908 14.2983C17.585 14.2423 17.6884 14.2012 17.8059 14.2012H19.8952C20.4356 14.2012 20.8824 14.2204 21.3095 14.4668C21.3527 14.493 21.3839 14.5263 21.4228 14.5546C21.5248 14.3478 21.7344 14.2012 21.9816 14.2012H22.9086C23.2224 14.2012 23.4717 14.435 23.5177 14.7345C23.9242 14.3825 24.478 14.2012 25.2231 14.2012H26.102C26.2415 14.2012 26.3725 14.2473 26.4766 14.3259C26.5822 14.2466 26.7132 14.2012 26.852 14.2012H28.2125C28.4632 14.2012 28.6891 14.3514 28.789 14.5816L29.1225 15.362V14.8287C29.1225 14.4824 29.4037 14.2012 29.7507 14.2012H31.1339C31.3541 14.2012 31.5574 14.316 31.6707 14.5044L32.1027 15.2204V14.828C32.1027 14.4817 32.3846 14.2005 32.7316 14.2005H33.6608C34.0078 14.2005 34.2882 14.4817 34.2882 14.828V18.629C34.2882 18.9753 34.0064 19.2565 33.6608 19.2565H32.3746C32.153 19.2565 31.9497 19.1418 31.8357 18.9534L31.2783 18.0291V18.629C31.2783 18.9753 30.9965 19.2565 30.6508 19.2565H28.8017C28.5489 19.2565 28.3215 19.1042 28.2224 18.8705L28.0305 18.4088H26.9837L26.7982 18.8641C26.704 19.1014 26.4731 19.2572 26.2188 19.2572H25.1551C24.7507 19.2572 24.0269 19.1842 23.5106 18.7515C23.4518 19.0376 23.211 19.2572 22.9072 19.2572H21.9795C21.8768 19.2572 21.7826 19.226 21.6955 19.1814C21.6098 19.226 21.517 19.2572 21.4136 19.2572H20.4972C20.1523 19.2572 19.8718 18.9789 19.869 18.6347L19.8654 18.1552L19.8669 18.0716C19.8669 18.0206 19.8683 17.9442 19.864 17.8797C19.8222 17.8769 19.7663 17.8748 19.6877 17.8748H19.3414V18.6297C19.3414 18.976 19.0602 19.2572 18.7139 19.2572H17.8045C17.687 19.2572 17.5843 19.2161 17.4894 19.1602C17.3966 19.2161 17.2925 19.2572 17.1749 19.2572H14.1409C14.0127 19.2572 13.9016 19.209 13.8024 19.1446C13.7025 19.209 13.5914 19.2572 13.4639 19.2572H12.5326C12.1856 19.2572 11.9051 18.9767 11.9051 18.6304V18.6148L11.7847 18.884C11.6841 19.1113 11.4603 19.2579 11.211 19.2579H10.4129C10.165 19.2579 9.9398 19.1106 9.83994 18.8833ZM34.9086 25.7983H33.1395C32.8803 25.7983 32.6586 25.6403 32.5623 25.4165C32.2174 25.6609 31.7613 25.7983 31.1969 25.7983H29.4278C29.3279 25.7983 29.2387 25.7707 29.1551 25.7303C29.0722 25.7707 28.9823 25.7983 28.8831 25.7983H25.852C25.7507 25.7983 25.6579 25.7706 25.5744 25.7274C25.4901 25.7692 25.3987 25.7983 25.2982 25.7983H24.3867C24.0389 25.7983 23.7585 25.5171 23.7585 25.1708V24.6184C23.7599 24.5646 23.7599 24.4824 23.7557 24.4151C23.7139 24.4123 23.6551 24.4095 23.5715 24.4095H23.2288V25.1708C23.2288 25.5178 22.9476 25.7983 22.6013 25.7983H21.6884C21.3407 25.7983 21.0602 25.5171 21.0602 25.1708V24.2048C20.738 24.3967 20.2932 24.5228 19.6799 24.5228H19.1749V25.1708C19.1749 25.5178 18.8938 25.7983 18.5467 25.7983H16.7812C16.602 25.7983 16.4306 25.7218 16.3116 25.5879L15.6537 24.8471L14.9603 25.5978C14.8414 25.726 14.6749 25.7997 14.5 25.7997H10.9016C10.5545 25.7997 10.2741 25.5178 10.2741 25.1715V21.3705C10.2741 21.0228 10.5552 20.7423 10.9016 20.7423H14.5545C14.7337 20.7423 14.903 20.8174 15.0212 20.9505L15.6813 21.685L16.369 20.9427C16.488 20.8146 16.6544 20.7423 16.8293 20.7423H19.7316C20.3676 20.7423 20.8152 20.8833 21.1331 21.0915C21.2358 20.8861 21.4426 20.7423 21.6884 20.7423H23.7861C24.2691 20.7423 24.7365 20.7607 25.1749 20.9952C25.2224 21.0228 25.2528 21.0589 25.2967 21.0886C25.4001 20.8854 25.6048 20.7423 25.8499 20.7423H28.881C29.1161 20.7423 29.3144 20.8776 29.4221 21.0695C29.721 20.867 30.1176 20.7423 30.6176 20.7423H32.4377C32.7118 20.7423 32.937 20.9187 33.0241 21.1616C33.3357 20.9087 33.7613 20.7423 34.3286 20.7423H36.1501C36.4965 20.7423 36.7769 21.0235 36.7769 21.3705V22.1793C36.7769 22.401 36.6636 22.5957 36.4901 22.7076C36.495 22.7133 36.5021 22.7197 36.5085 22.726C36.8201 23.0461 36.9618 23.4413 36.9618 23.9725C36.9618 25.1155 36.1948 25.7997 34.9086 25.7983Z" fill="#7A809A"/>
<path d="M20.8132 16.8654C21.0497 16.772 21.4534 16.4582 21.4534 15.8527C21.4534 15.4285 21.2806 15.1806 20.9945 15.0106C20.6999 14.8407 20.3578 14.8286 19.8939 14.8286H17.8047V18.6296H18.714V17.2479H19.6878C20.015 17.2479 20.2176 17.2769 20.35 17.4101C20.515 17.5928 20.4931 17.9214 20.4931 18.1501L20.4973 18.6296H21.4138V17.8824C21.4138 17.5432 21.3918 17.3746 21.2629 17.1856C21.1822 17.0744 21.0122 16.9412 20.8132 16.8654ZM20.2664 16.3867C20.1404 16.4625 19.9931 16.4646 19.8167 16.4646H18.7126L18.7133 15.6211H19.8323C19.9895 15.6211 20.1553 15.6289 20.2629 15.6898C20.3805 15.745 20.4534 15.8626 20.4534 16.0255C20.4534 16.1912 20.3833 16.3251 20.2664 16.3867Z" fill="#7A809A"/>
<path d="M22.91 14.8293H21.9829V18.6303H22.91V14.8293Z" fill="#7A809A"/>
<path d="M32.7314 14.8293V17.4767L31.1337 14.8293H29.7505V18.4242L28.2123 14.8293H26.8518L25.5685 17.818H25.1613C24.924 17.818 24.6676 17.7727 24.5281 17.6218C24.3574 17.4306 24.2781 17.1367 24.2781 16.7302C24.2781 16.3308 24.3837 16.0291 24.5387 15.869C24.7186 15.6934 24.9049 15.6438 25.2385 15.6438H26.099V14.8293H25.2201C24.594 14.8293 24.1329 14.9689 23.8404 15.272C23.4509 15.6792 23.3511 16.1948 23.3511 16.7585C23.3511 17.449 23.5182 17.8867 23.8383 18.2097C24.1542 18.5319 24.713 18.6296 25.1556 18.6303H26.2193L26.5607 17.7826H28.4474L28.8015 18.6303H30.6506V15.7776L32.3744 18.6303H33.6606V14.8293H32.7314ZM26.8858 16.9894L27.5097 15.4745L28.1393 16.9894H26.8858Z" fill="#7A809A"/>
<path d="M25.241 16.2705C25.0271 16.2698 25.0052 16.2925 24.979 16.3173C24.9705 16.3293 24.9067 16.466 24.9067 16.7294C24.9067 16.9901 24.9485 17.1154 24.979 17.1721C25.0108 17.1806 25.0696 17.1905 25.1574 17.1905L25.5512 16.2705H25.241Z" fill="#7A809A"/>
<path d="M28.8822 22.1557V21.3696H25.8511V25.1713H28.8822V24.3831L26.7548 24.3781V23.6232H28.8298V22.847H26.7548V22.1557H28.8822Z" fill="#7A809A"/>
<path d="M19.7314 21.3711H16.8291L15.6733 22.6161L14.5543 21.3711H10.9014V25.1721H14.4998L15.6627 23.9136L16.7817 25.1721H18.5473V23.8973H19.6804C20.4743 23.8973 21.2618 23.6792 21.2618 22.6232C21.2618 21.5708 20.4524 21.3697 19.7314 21.3711ZM14.0402 24.381H11.8079V23.6246H13.8015V22.8484H11.8079V22.1572H14.0848L15.0784 23.2642L14.0402 24.381ZM17.6422 24.8265L16.247 23.2769L17.6422 21.7783V24.8265ZM19.7201 23.1239H18.5473V22.1558H19.7314C20.06 22.1558 20.2866 22.2897 20.2866 22.6225C20.2866 22.9518 20.0699 23.1254 19.7201 23.1239Z" fill="#7A809A"/>
<path d="M24.7034 23.4043C24.9414 23.3094 25.3472 23.0007 25.3486 22.3923C25.3486 21.9589 25.168 21.7209 24.8826 21.5481C24.5823 21.3888 24.2481 21.3696 23.7884 21.3696H21.6914V25.1706H22.6036V23.7825H23.5738C23.9053 23.7825 24.1071 23.8151 24.2403 23.9511C24.4088 24.1281 24.3869 24.4667 24.3869 24.6954V25.1706H25.2983V24.4171C25.2955 24.0821 25.2771 23.9093 25.1475 23.7237C25.071 23.614 24.9046 23.478 24.7034 23.4043ZM24.156 22.932C24.0342 23.0042 23.8833 23.0106 23.7063 23.0106H22.6022V22.1565H23.7212C23.8812 22.1565 24.0441 22.16 24.1546 22.2252C24.2721 22.2868 24.3423 22.405 24.3423 22.5672C24.3423 22.7294 24.2721 22.8618 24.156 22.932Z" fill="#7A809A"/>
<path d="M32.3539 23.1642C32.1449 22.9574 31.8064 22.8724 31.3135 22.8611L30.8255 22.8469C30.6704 22.8469 30.5685 22.837 30.4714 22.8037C30.3574 22.7605 30.2731 22.6642 30.2731 22.5205C30.2731 22.4001 30.31 22.3087 30.4105 22.2464C30.5012 22.1848 30.6081 22.1777 30.7745 22.1777H32.4403V21.3689H30.6202C29.6669 21.3689 29.3213 21.9482 29.3213 22.5006C29.3213 23.7025 30.3857 23.6486 31.2342 23.6763C31.3935 23.6763 31.4884 23.7025 31.5578 23.7605C31.6216 23.8144 31.6683 23.9008 31.6683 24.012C31.6683 24.1154 31.6244 24.2018 31.5621 24.2598C31.4856 24.3321 31.3631 24.354 31.1917 24.354H29.4296V25.1692H31.1988C32.1145 25.1692 32.6265 24.7875 32.6265 23.9695C32.6265 23.5792 32.5309 23.3469 32.3539 23.1642Z" fill="#7A809A"/>
<path d="M11.9502 14.8279L10.8589 17.4065L9.66978 14.8279H8.18677V18.427L6.64074 14.8279H5.2923L3.66553 18.6289H4.65207L5.00476 17.7811H6.8957L7.24485 18.6289H9.09329V15.6494L10.4127 18.6282L11.2123 18.6289L12.5295 15.6522L12.5331 18.6289H13.4644V14.8279H11.9502ZM5.32842 16.9894L5.94598 15.4745L6.56709 16.9894H5.32842Z" fill="#7A809A"/>
<path d="M17.1741 15.6197V14.8279H14.1401V18.6296H17.1741V17.8435H15.0481V17.0835H17.1238V16.3052H15.0481V15.6197H17.1741Z" fill="#7A809A"/>
<path d="M36.0653 23.1642C35.8578 22.9574 35.5186 22.8724 35.0256 22.8611L34.537 22.8469C34.3833 22.8469 34.2806 22.837 34.1829 22.8037C34.0703 22.7605 33.9853 22.6642 33.9853 22.5205C33.9853 22.4001 34.0221 22.3087 34.122 22.2464C34.2133 22.1848 34.321 22.1777 34.4867 22.1777H36.1531V21.3689H34.3316C33.3797 21.3689 33.0327 21.9482 33.0327 22.5006C33.0327 23.7025 34.0979 23.6486 34.947 23.6763C35.1057 23.6763 35.1999 23.7025 35.2707 23.7605C35.333 23.8144 35.3805 23.9008 35.3805 24.012C35.3805 24.1154 35.3358 24.2018 35.2749 24.2598C35.1977 24.3321 35.0752 24.354 34.9038 24.354H33.1425V25.1692H34.9116C35.8273 25.1692 36.338 24.7875 36.338 23.9695C36.338 23.5792 36.2438 23.3469 36.0653 23.1642Z" fill="#7A809A"/>
</svg>
