<svg width="30" height="32" viewBox="0 0 30 32" fill="none" xmlns="http://www.w3.org/2000/svg">
<path d="M18.9219 0C17.674 0.314954 16.3596 1.056 15.6 1.92202C14.8403 2.78825 14.2935 3.92953 14.0446 5.355C6.75447 2.02096 -0.341806 7.56643 0.0127537 15.7872C0.367374 24.0094 6.43249 35.5509 14.8001 30.8301C23.2719 35.6824 28.6864 24.3304 29.7097 17.0982C30.7329 9.86593 24.9665 1.61529 15.9444 5.47721C16.1574 4.46836 16.4901 3.7926 17.0443 3.15523C17.5985 2.51785 18.5325 2.00881 19.644 1.57761C19.5847 0.823643 19.3106 0.291492 18.9219 0ZM11.9671 12.7876C13.2371 12.7876 14.3366 13.752 14.8001 14.854C15.2636 13.752 16.352 12.7876 17.622 12.7876C19.2066 12.7876 20.7308 14.0986 20.7439 15.7872C20.7721 19.4138 16.859 19.7925 14.8001 23.9975C12.7412 19.7925 8.81695 19.4138 8.84516 15.7872C8.85829 14.0986 10.3825 12.7876 11.9671 12.7876Z" fill="#DE2B70"/>
</svg>
