<svg width="129" height="112" viewBox="0 0 129 112" fill="none" xmlns="http://www.w3.org/2000/svg">
<path d="M88.7291 28.4241C88.8202 28.3702 88.9237 28.2627 89.0099 28.1757L89.0429 28.1394L89.0601 28.1189L89.0898 28.0762L89.1541 27.9925C89.2198 27.9041 89.1775 27.9531 89.1963 27.9278L89.2088 27.9057L89.2338 27.8615L89.2902 27.7699L89.4012 27.5916L89.6234 27.2348C89.916 26.7597 90.2069 26.2893 90.4964 25.8236C90.9516 25.077 91.4006 24.3492 91.8433 23.6247L93.1595 21.6149C93.2753 21.4381 93.4827 21.3333 93.6938 21.3451L101.159 21.756C101.695 21.7853 102.183 21.5425 102.47 21.102C102.764 20.6536 102.8 20.0835 102.565 19.6183C102.447 19.3857 102.273 19.1975 102.049 19.0504L95.797 14.9499C95.6202 14.8341 95.5154 14.6267 95.5272 14.4157L95.9381 6.95026C95.9528 6.68252 95.8998 6.42921 95.7871 6.1982C95.5521 5.73305 95.0722 5.4232 94.5367 5.39386C94.0122 5.3629 93.5267 5.61206 93.2325 6.06044L89.132 12.3124C89.0162 12.4893 88.8088 12.594 88.5977 12.5823L87.4181 12.5193C86.5313 12.4426 85.6287 12.3659 84.7104 12.2893C83.6125 12.2008 82.5004 12.1076 81.3726 12.0145L81.1631 11.998C81.075 11.9952 80.949 11.9957 80.8467 12.004C80.6216 12.0348 80.3967 12.0972 80.1988 12.2208C79.7903 12.4586 79.5164 12.8612 79.419 13.3009C79.3105 13.7423 79.4055 14.2505 79.6857 14.6415C79.7206 14.6949 79.7712 14.7482 79.8171 14.8L79.8914 14.8768L79.9277 14.9098L79.9483 14.927L80.0304 14.9959L80.0715 15.0304L80.16 15.0962L80.5152 15.3388C81.4642 15.9916 82.4305 16.6397 83.4093 17.2813C84.3819 17.9262 85.3576 18.5773 86.3349 19.2237C86.4091 19.2691 86.4614 19.3492 86.4743 19.4373C86.4759 19.4483 86.476 19.4641 86.4791 19.4546C86.4822 19.4294 86.4779 19.5381 86.4809 19.5128L86.4708 19.7349L86.4474 20.1727C86.4182 20.7555 86.3875 21.3429 86.3631 21.9272C86.3339 22.51 86.3048 23.0927 86.2772 23.6707C86.2543 24.2502 86.2314 24.8298 86.2149 25.4062C86.2034 25.696 86.1936 25.981 86.1821 26.2708L86.1665 26.7007L86.1595 26.9133L86.1581 26.9653L86.1569 27.0487L86.1639 27.2188C86.1972 27.6753 86.4683 28.1261 86.8331 28.3876C87.2026 28.6507 87.6597 28.7591 88.105 28.6801C88.3237 28.6367 88.5438 28.5571 88.7291 28.4241ZM88.5556 13.4595C89.0801 13.4905 89.5829 13.2365 89.8693 12.796L93.9698 6.54404C94.1372 6.28985 94.3654 6.26532 94.4946 6.2711C94.8238 6.29024 95.0878 6.5553 95.0671 6.90495L94.6562 14.3703C94.6284 14.8854 94.8887 15.4008 95.3197 15.6841L101.572 19.7845C101.861 19.9739 101.92 20.35 101.742 20.6215C101.676 20.7257 101.515 20.898 101.211 20.8819L93.7454 20.471C93.2209 20.44 92.7181 20.694 92.4317 21.1344L91.1107 23.1427C90.6254 23.8375 90.1322 24.5401 89.6296 25.2555C89.3181 25.7086 89.0018 26.1603 88.6825 26.6213C88.5322 26.8392 88.3834 27.0524 88.2332 27.2703L88.1642 27.3525L88.1297 27.3935L88.1125 27.4141C88.1125 27.4141 88.1078 27.4125 88.1062 27.4173C88.0857 27.4158 88.0984 27.4252 88.0638 27.4347C88.0166 27.4664 87.9616 27.4745 87.9049 27.4873C87.7916 27.4973 87.6576 27.4584 87.566 27.3864C87.4822 27.3064 87.4299 27.2263 87.4263 27.1098C87.4262 27.094 87.4262 27.0783 87.4261 27.0625L87.4229 27.0405L87.4242 26.9885L87.4423 26.7743L87.4736 26.3443C87.4945 26.0577 87.5154 25.771 87.5363 25.4843C87.5781 24.911 87.6167 24.3314 87.66 23.7533C87.6939 23.1721 87.7325 22.5925 87.7664 22.0113C87.8003 21.4302 87.8357 20.8443 87.8712 20.2584L87.8993 19.8221L87.9142 19.6016C87.9201 19.5039 87.9187 19.5401 87.9199 19.4409C87.9195 19.3622 87.913 19.3024 87.9017 19.241C87.8336 18.7469 87.5452 18.2851 87.1268 18.0112C86.1417 17.3727 85.1613 16.7358 84.1809 16.0988C83.2005 15.4619 82.2232 14.8312 81.2445 14.2211L80.8798 13.9911L80.8577 13.9786C80.8625 13.9801 80.8577 13.9786 80.853 13.977L80.8357 13.9661L80.7519 13.9018L80.7314 13.8846L80.733 13.8799L80.7345 13.8751C80.7361 13.8704 80.7345 13.8751 80.7251 13.872C80.6712 13.7967 80.6299 13.6992 80.6593 13.5778C80.6777 13.4581 80.7434 13.3539 80.8346 13.3C80.8769 13.2667 80.9273 13.2571 80.9807 13.238C81.017 13.2394 81.0343 13.2346 81.0878 13.2313L81.3004 13.2383C82.4327 13.2699 83.5492 13.3017 84.6453 13.3319C85.565 13.3566 86.4657 13.375 87.3539 13.3998L88.5556 13.4595Z" fill="#C31A49" stroke="#C31A49" stroke-width="2" stroke-miterlimit="10" stroke-linecap="round" stroke-linejoin="round"/>
<path d="M55.0753 12.712C55.1866 12.4183 55.2695 12.1378 55.3154 11.8801C53.2175 13.6368 50.4874 14.9312 48.0921 16.0303C45.0661 17.4181 41.9041 18.4845 38.6627 19.2348C38.6364 19.2409 38.6107 19.2455 38.5854 19.2487L38.6678 19.2567L38.6678 19.2567L38.7638 19.266C38.7542 19.3649 38.7455 19.463 38.7381 19.5603C38.738 19.561 38.738 19.5616 38.738 19.5622C38.7337 19.6192 38.7298 19.6758 38.7266 19.7323M55.0753 12.712C55.3135 12.5299 55.5456 12.3426 55.7705 12.1498C55.4576 13.53 54.363 15.1811 53.7815 16.002C52.7331 17.4971 51.3278 18.7666 49.7355 19.658M55.0753 12.712C53.0068 14.2935 50.4835 15.4831 48.3006 16.4847L48.3006 16.4847C45.2428 17.8872 42.0486 18.9642 38.7755 19.7219L38.7747 19.7221C38.7586 19.7258 38.7426 19.7292 38.7266 19.7323M55.0753 12.712C54.9597 13.0171 54.8135 13.3364 54.6464 13.6594C54.2256 14.4728 53.7138 15.2325 53.3735 15.713L53.3721 15.715C52.3669 17.1485 51.018 18.3669 49.4912 19.2217M49.7355 19.658C46.1938 21.6383 41.9154 21.5931 38.2151 20.1093M49.7355 19.658L49.4914 19.2215C49.4914 19.2216 49.4913 19.2216 49.4912 19.2217M49.7355 19.658L49.4912 19.2217M38.2151 20.1093C38.2151 19.9811 38.2192 19.853 38.2262 19.7252C38.27 19.7351 38.3146 19.7427 38.3601 19.7477L38.2151 20.1093ZM38.2151 20.1093H38.7151C38.7151 19.9973 38.7185 19.8844 38.7245 19.7705M38.7245 19.7705C38.701 19.7618 38.6776 19.7529 38.6541 19.744C38.6781 19.7408 38.7023 19.7369 38.7266 19.7323M38.7245 19.7705C42.2344 21.0839 46.2065 21.0582 49.4912 19.2217M38.7245 19.7705C38.7252 19.7578 38.7259 19.745 38.7266 19.7323M35.4554 40.1887C35.4652 39.0215 35.2781 37.8756 34.9387 36.7695C35.1015 36.7551 35.2644 36.71 35.4194 36.6315M35.4554 40.1887L35.3534 36.0814C35.3232 36.1058 35.2923 36.1278 35.261 36.1473C35.3168 36.3077 35.3697 36.4691 35.4194 36.6315M35.4554 40.1887C35.4497 40.7472 34.6677 40.8375 34.4977 40.3184L35.4554 40.1887ZM35.4194 36.6315C35.7704 37.7783 35.9657 38.9721 35.9554 40.1929L35.9554 40.1937C35.9496 40.761 35.5266 41.0998 35.1009 41.1537C34.6841 41.2064 34.1935 40.9961 34.0225 40.4741L34.0217 40.4714C32.2412 34.9304 29.3278 30.2484 23.7349 28.1256L23.7348 28.1255C18.2463 26.041 12.0108 27.6519 7.83971 31.7281L7.83903 31.7287C2.91246 36.5249 2.57931 43.5761 3.82222 50.161L3.82225 50.1611C5.11035 56.9972 8.14963 63.3608 11.5425 69.458C11.8606 70.0294 12.1736 70.6128 12.4882 71.1993C13.8343 73.7081 15.2094 76.2711 17.1352 78.1751C19.8724 80.8791 23.9775 80.9919 26.8266 78.377C27.4391 77.8133 28.2074 77.9921 28.6353 78.416C28.8489 78.6275 29.0054 78.9205 29.0274 79.2523C29.0467 79.5442 28.9594 79.8354 28.7639 80.0877C33.1401 83.464 38.5627 85.1409 43.7557 82.65C46.7724 81.1978 49.3601 78.8475 51.8861 76.5422L51.8862 76.542C54.433 74.2196 56.831 71.7353 58.8263 68.9531C62.5161 63.8012 64.8728 56.972 64.7191 50.552C64.5659 44.149 61.9222 38.1842 55.638 34.6324M35.4194 36.6315C35.5051 36.5881 35.5884 36.5344 35.6678 36.4701L35.6688 36.4693C41.2965 31.8936 49.2912 31.0482 55.638 34.6324M55.638 34.6324L55.8838 34.197L55.6378 34.6323C55.6379 34.6323 55.6379 34.6324 55.638 34.6324ZM38.4849 21.8481C38.6515 25.4847 38.1946 29.1656 37.1291 32.393C42.1516 29.6314 48.2055 28.9126 53.7403 30.8941L53.7405 30.8941C60.455 33.2998 65.4141 39.0071 66.9238 45.9385L66.9238 45.9386C68.572 53.5101 66.556 61.5611 62.6302 68.0639L62.6301 68.0641C60.5549 71.4981 57.8993 74.5391 55.0227 77.2951L55.0226 77.2952C52.235 79.9637 49.1562 82.8505 45.6404 84.7158L45.6401 84.7159C42.6624 86.2932 38.9655 86.8561 35.5214 86.2937C32.2385 85.7576 29.1453 84.1908 27.1325 81.4545C24.9697 82.8771 22.247 83.3944 19.6802 82.7388C16.2617 81.8738 14.0527 79.0296 12.3913 76.3331L12.8169 76.0708L12.3912 76.3331C8.04439 69.2764 3.89165 61.6414 1.80957 53.5149C-0.0523605 46.2585 -0.564705 37.6049 4.62879 31.3393C8.8339 26.2609 15.8145 23.5193 22.3633 25.0155C27.083 26.0926 31.9691 29.6249 34.391 34.1774C34.4143 34.1596 34.4377 34.1419 34.4612 34.1242C35.4128 30.0907 36.1248 26.2347 35.8125 22.1332C35.5107 18.1749 34.2555 14.7491 32.8913 11.0259C32.7984 10.7723 32.705 10.5174 32.6113 10.2608L32.6111 10.2601C32.4924 9.93351 32.5176 9.60729 32.6683 9.33298C32.8123 9.07074 33.0491 8.89422 33.2945 8.79846C33.7684 8.61358 34.4524 8.679 34.8267 9.25901C35.9071 10.927 36.7379 12.8308 37.3359 14.8607C38.6015 12.4712 40.7911 10.6114 43.4874 9.5774L43.4877 9.57728C46.1298 8.56601 48.986 8.38613 51.7346 8.56928C51.9166 8.58105 52.1702 8.58677 52.4691 8.59351C53.1862 8.60968 54.1642 8.63174 55.0397 8.75734C55.6732 8.84823 56.3172 8.99889 56.8432 9.26574C57.3735 9.53476 57.8407 9.95352 57.9913 10.5958L57.9915 10.5967C58.2248 11.5998 57.8977 12.8069 57.4631 13.8611C57.0185 14.9397 56.4144 15.9667 55.9698 16.6566C54.7335 18.5757 53.0555 20.2187 51.0554 21.3667L51.0549 21.367C47.1977 23.5748 42.4465 23.7237 38.4849 21.8481ZM50.2334 11.1705L50.2327 11.1704C48.2888 11.1428 46.3596 11.3591 44.5646 12.0198C42.0122 12.9633 40.1511 14.7701 39.2764 17.0765C42.0929 16.3501 44.8417 15.4209 47.4906 14.2314C48.6531 13.7093 49.7721 13.0841 50.8983 12.433C51.1165 12.3069 51.3351 12.1797 51.5544 12.0521C52.0092 11.7874 52.4668 11.5212 52.9282 11.26C52.0235 11.1933 51.1095 11.1816 50.2671 11.1709L50.2334 11.1705ZM39.0851 17.6413C42.0353 16.8974 44.9181 15.9348 47.6954 14.6875C49.115 14.05 50.4637 13.2652 51.8105 12.4816C52.4725 12.0964 53.1341 11.7114 53.8035 11.3443L39.0851 17.6413ZM66.4353 46.0449L66.4352 46.0449L66.4353 46.0449Z" fill="#C31A49" stroke="#C31A49"/>
<path d="M127.485 54.1856C124.984 51.1095 120.141 50.4381 116.462 49.6945C111.842 48.752 106.845 48.2527 102.158 48.8704C99.9196 49.1697 99.8091 52.3469 102.17 52.4515C106.667 52.6539 111.024 52.7181 115.479 53.5376C119.157 54.2006 123.081 56.2854 126.84 55.8085C127.693 55.6998 128.034 54.8602 127.485 54.1856Z" fill="#C31A49"/>
<path d="M118.236 86.7576C113.585 79.447 102.822 72.0508 94.1561 71.0224C92.506 70.8234 92.268 73.1353 93.422 73.8708C97.0257 76.1797 101.2 77.606 104.89 79.8641C109.034 82.3998 112.449 85.8649 116.387 88.6616C117.523 89.4656 118.94 87.8517 118.236 86.7576Z" fill="#C31A49"/>
<path d="M86.7177 108.865C86.8091 106.187 85.4816 103.603 84.3136 101.25C83.1913 98.9748 81.6966 95.7928 79.0465 95.139C78.2847 94.95 77.5138 95.5326 77.5286 96.3251C77.5497 98.6234 79.3512 100.417 80.4501 102.357C81.7657 104.705 82.3152 107.446 83.7705 109.676C84.6303 111.014 86.6581 110.456 86.7177 108.865Z" fill="#C31A49"/>
</svg>
