<svg width="26" height="15" viewBox="0 0 26 15" fill="none" xmlns="http://www.w3.org/2000/svg">
<path fill-rule="evenodd" clip-rule="evenodd" d="M22.282 7.01275L16.7754 1.91472L17.799 0.999675L25 7.66634L17.7637 14.333L16.7754 13.418L22.282 8.31994L1 8.31994L1 7.01275L22.282 7.01275ZM22.9878 7.66639L22.9172 7.60103L22.9172 7.73175L22.9878 7.66639Z" fill="white"/>
<path d="M16.7754 1.91472L16.4496 1.55023L16.0489 1.90838L16.4432 2.27347L16.7754 1.91472ZM22.282 7.01275L22.282 7.50164L23.5297 7.50164L22.6141 6.654L22.282 7.01275ZM17.799 0.999675L18.1312 0.640926L17.8048 0.338779L17.4732 0.635182L17.799 0.999675ZM25 7.66634L25.3313 8.0259L25.7206 7.66722L25.3321 7.30759L25 7.66634ZM17.7637 14.333L17.4316 14.6918L17.7629 14.9985L18.095 14.6926L17.7637 14.333ZM16.7754 13.418L16.4432 13.0592L16.0557 13.418L16.4432 13.7767L16.7754 13.418ZM22.282 8.31994L22.6141 8.67869L23.5297 7.83105L22.282 7.83105L22.282 8.31994ZM1 8.31994L0.511111 8.31994L0.511111 8.80883L1 8.80883L1 8.31994ZM1 7.01275L1 6.52386L0.511111 6.52386L0.511111 7.01275L1 7.01275ZM22.9172 7.60103L23.2494 7.24229L22.4283 6.48212L22.4283 7.60103L22.9172 7.60103ZM22.9878 7.66639L23.32 8.02513L23.7074 7.66639L23.32 7.30765L22.9878 7.66639ZM22.9172 7.73175L22.4283 7.73175L22.4283 8.85065L23.2494 8.09049L22.9172 7.73175ZM16.4432 2.27347L21.9499 7.3715L22.6141 6.654L17.1075 1.55597L16.4432 2.27347ZM17.4732 0.635182L16.4496 1.55023L17.1012 2.27922L18.1249 1.36417L17.4732 0.635182ZM25.3321 7.30759L18.1312 0.640926L17.4669 1.35842L24.6679 8.02509L25.3321 7.30759ZM18.095 14.6926L25.3313 8.0259L24.6687 7.30678L17.4325 13.9734L18.095 14.6926ZM16.4432 13.7767L17.4316 14.6918L18.0959 13.9743L17.1075 13.0592L16.4432 13.7767ZM21.9499 7.96119L16.4432 13.0592L17.1075 13.7767L22.6141 8.67869L21.9499 7.96119ZM1 8.80883L22.282 8.80883L22.282 7.83105L1 7.83105L1 8.80883ZM0.511111 7.01275L0.511111 8.31994L1.48889 8.31994L1.48889 7.01275L0.511111 7.01275ZM22.282 6.52386L1 6.52386L1 7.50164L22.282 7.50164L22.282 6.52386ZM22.5851 7.95976L22.6557 8.02513L23.32 7.30765L23.2494 7.24229L22.5851 7.95976ZM23.4061 7.73175L23.4061 7.60103L22.4283 7.60103L22.4283 7.73175L23.4061 7.73175ZM22.6557 7.30765L22.5851 7.37301L23.2494 8.09049L23.32 8.02513L22.6557 7.30765Z" fill="white"/>
</svg>
