<svg width="20" height="30" viewBox="0 0 20 30" fill="none" xmlns="http://www.w3.org/2000/svg">
<path d="M12.437 1.0625V0.812497V0H7.74949C7.24949 0 6.812 0.437498 6.812 0.937496V2.49999C6.812 2.56249 6.8745 2.62499 6.937 2.62499H5.1245C3.93701 2.62499 2.93701 3.62498 2.93701 4.81248V7.31247H16.312V4.81248C16.312 3.62498 15.312 2.62499 14.1245 2.62499H12.312C12.3745 2.62499 12.437 2.56249 12.437 2.49999V1.0625Z" fill="#DE2B70"/>
<path d="M7.68566 19.5L11.0606 15.625L10.1857 18.5625H11.5606L8.18566 22.4375L9.06066 19.5C8.99816 19.5 7.62316 19.5 7.68566 19.5Z" fill="black"/>
<path d="M7.68566 19.5L11.0606 15.625L10.1857 18.5625H11.5606L8.18566 22.4375L9.06066 19.5C8.99816 19.5 7.62316 19.5 7.68566 19.5Z" fill="black"/>
<path d="M16.9999 8.62512C16.6249 8.56262 17.3124 8.62512 2.62499 8.56262C1.1875 8.56262 0 9.75012 0 11.1876V27.375C0.0624997 28.8125 1.18749 30 2.68749 30H16.6249C18.0624 30 19.2499 28.8125 19.2499 27.375V11.1876C19.2499 9.87512 18.2499 8.81262 16.9999 8.62512ZM15.4999 23.0626H3.81248V14.9376H15.4999V23.0626Z" fill="#DE2B70"/>
<path d="M8.18566 22.4375L9.06066 19.5C8.99816 19.5 7.62316 19.5 7.68566 19.5L11.0606 15.625L10.1857 18.5625H11.5606L8.18566 22.4375Z" fill="black"/>
<path d="M8.18566 22.4375L9.06066 19.5C8.99816 19.5 7.62316 19.5 7.68566 19.5L11.0606 15.625L10.1857 18.5625H11.5606L8.18566 22.4375Z" fill="#DE2B70"/>
</svg>
