<svg width="99" height="88" viewBox="0 0 99 88" fill="none" xmlns="http://www.w3.org/2000/svg">
<path d="M98.493 21.3158C98.493 21.3158 98.493 21.3158 98.493 21.2919C96.2301 9.14799 86.2154 2.21025e-06 74.2032 2.21025e-06C73.1527 -0.000455398 72.1033 0.0701446 71.0623 0.21132C70.6744 0.263581 70.2899 0.324931 69.9088 0.39537C69.9088 0.39537 58.5534 2.07568 49.4915 12.1644C40.4262 2.07568 29.0742 0.39537 29.0742 0.39537C28.6931 0.324931 28.3086 0.263581 27.9206 0.21132C26.8796 0.0701446 25.8303 -0.000455398 24.7798 2.21025e-06C12.7676 2.21025e-06 2.75293 9.14799 0.490015 21.2919C0.490015 21.2919 0.490015 21.2919 0.490015 21.3158C0.1691 23.0275 0.00507922 24.765 0 26.5067C0.00275808 28.5704 0.230975 30.6277 0.680576 32.6417C6.2613 62.6522 49.5017 88 49.5017 88C49.5017 88 92.7387 62.6522 98.3194 32.6417C98.769 30.6277 98.9972 28.5704 99 26.5067C98.9893 24.7645 98.8196 23.027 98.493 21.3158Z" fill="url(#paint0_linear)"/>
<defs>
<linearGradient id="paint0_linear" x1="19.9056" y1="-7.04684e-07" x2="74.2571" y2="87.9221" gradientUnits="userSpaceOnUse">
<stop stop-color="#DE2B70"/>
<stop offset="1" stop-color="#DE2B70" stop-opacity="0.8"/>
</linearGradient>
</defs>
</svg>
