<svg width="46" height="64" viewBox="0 0 46 64" fill="none" xmlns="http://www.w3.org/2000/svg">
<path d="M22.7195 0C22.7195 0 0 29.8126 0 41.2805C0 53.8303 10.1697 64 22.7195 64C35.2693 64 45.439 53.8303 45.439 41.2805C45.439 29.8126 22.7195 0 22.7195 0ZM5.73397 50.9093C5.30121 49.9356 2.16376 44.2016 5.73397 39.9823C7.57316 37.7103 10.4942 37.0612 13.0908 37.7103C16.2282 38.4676 18.6083 43.1197 16.5528 46.9063C15.6873 48.6373 12.658 51.8829 15.1463 56.2105C15.5791 57.076 17.3101 59.3479 17.3101 59.3479C15.9036 59.0234 8.22229 57.1842 5.73397 50.9093Z" fill="url(#paint0_linearblob)"/>
<defs>
<linearGradient id="paint0_linearblob" x1="13.0001" y1="9.9999" x2="77.0001" y2="63.9999" gradientUnits="userSpaceOnUse">
<stop offset="0.356808" stop-color="#2D73F6"/>
<stop offset="1" stop-color="#AAC6FB"/>
</linearGradient>
</defs>
</svg>
