<?xml version="1.0" encoding="utf-8"?>
<svg id="master-artboard" viewBox="0 0 308.65277099609375 344.9222106933594" version="1.1" xmlns="http://www.w3.org/2000/svg" x="0px" y="0px" style="enable-background:new 0 0 1400 980;" width="308.65277099609375px" height="344.9222106933594px"><rect id="ee-background" x="0" y="0" width="308.65277099609375" height="344.9222106933594" style="fill: white; fill-opacity: 0; pointer-events: none;"/><g transform="matrix(10.558610916137695, 0, 0, 10.558610916137695, 3.8689956665039062, 5.28497745830191)"><path d="M16.7154 18.3799C17.9585 18.374 19.1781 18.0408 20.2516 17.4139C21.3251 16.787 22.2145 15.8884 22.8304 14.8086C23.9873 12.7898 24.0062 10.5264 22.8832 8.59496L16.7148 0L10.5476 8.56981C9.42233 10.5162 9.44351 12.7918 10.6069 14.8166C11.2232 15.8941 12.112 16.7905 13.1842 17.4159C14.2564 18.0413 15.4741 18.3738 16.7154 18.3799ZM12.9791 10.3605C12.9796 10.2305 13.0314 10.1059 13.1232 10.0139C13.2151 9.92182 13.3395 9.86977 13.4695 9.86902H15.3479V7.99169C15.3484 7.86168 15.4002 7.73711 15.492 7.64508C15.5838 7.55305 15.7083 7.50099 15.8383 7.50024H17.6497C17.7792 7.5012 17.9029 7.55349 17.9939 7.64563C18.0848 7.73778 18.1355 7.86224 18.1347 7.99169V9.86902H20.0185C20.1479 9.86997 20.2717 9.92227 20.3627 10.0144C20.4536 10.1066 20.5042 10.231 20.5035 10.3605V12.2416C20.5037 12.3053 20.4913 12.3684 20.467 12.4273C20.4427 12.4861 20.407 12.5396 20.3619 12.5846C20.3168 12.6296 20.2632 12.6652 20.2043 12.6894C20.1453 12.7136 20.0822 12.7258 20.0185 12.7255H18.1347V14.6103C18.1349 14.674 18.1225 14.7371 18.0982 14.796C18.0739 14.8549 18.0382 14.9084 17.9931 14.9534C17.948 14.9984 17.8944 15.034 17.8355 15.0582C17.7766 15.0824 17.7134 15.0946 17.6497 15.0943H15.8383C15.7743 15.0947 15.7109 15.0826 15.6516 15.0585C15.5923 15.0344 15.5383 14.9989 15.4928 14.954C15.4472 14.909 15.411 14.8555 15.3861 14.7966C15.3613 14.7376 15.3483 14.6743 15.3479 14.6103V12.7255H13.4695C13.4055 12.7259 13.3421 12.7138 13.2828 12.6897C13.2235 12.6657 13.1696 12.6301 13.124 12.5852C13.0785 12.5402 13.0422 12.4868 13.0174 12.4278C12.9925 12.3688 12.9795 12.3055 12.9791 12.2416V10.3605Z" fill="#2D73F6"/><path d="M16.3217 12.2415V14.1188H17.1577V12.2415C17.1582 12.1115 17.21 11.9869 17.3018 11.8949C17.3936 11.8029 17.5181 11.7508 17.6481 11.7501H19.5265V10.8444H17.6481C17.5841 10.8448 17.5207 10.8327 17.4614 10.8086C17.4021 10.7845 17.3481 10.749 17.3026 10.7041C17.257 10.6591 17.2208 10.6056 17.1959 10.5467C17.1711 10.4877 17.1581 10.4244 17.1577 10.3604V8.47559H16.3217V10.3604C16.3219 10.4241 16.3095 10.4873 16.2852 10.5461C16.2609 10.605 16.2252 10.6585 16.1801 10.7035C16.135 10.7485 16.0814 10.7841 16.0225 10.8083C15.9635 10.8325 15.9004 10.8447 15.8367 10.8444H13.9529V11.7501H15.8367C15.9661 11.751 16.0899 11.8033 16.1808 11.8955C16.2718 11.9876 16.3224 12.1121 16.3217 12.2415Z" fill="#2D73F6"/><path d="M26.3655 19.8519C26.3622 19.8545 26.3585 19.8571 26.3554 19.8596L22.1517 23.0031C22.2567 23.2527 22.3334 23.5133 22.3803 23.78C22.4026 23.9074 22.3733 24.0384 22.299 24.1443C22.2246 24.2501 22.1113 24.3221 21.9839 24.3443L15.1624 25.5378C15.0993 25.5488 15.0346 25.5473 14.9721 25.5334C14.9096 25.5194 14.8505 25.4933 14.7981 25.4565C14.7456 25.4197 14.701 25.3729 14.6667 25.3188C14.6323 25.2648 14.609 25.2045 14.5979 25.1414C14.5869 25.0783 14.5884 25.0137 14.6024 24.9512C14.6163 24.8886 14.6424 24.8295 14.6792 24.7771C14.716 24.7247 14.7628 24.68 14.8169 24.6457C14.8709 24.6113 14.9312 24.588 14.9943 24.577L21.291 23.4755C21.0738 22.8984 20.6621 22.4152 20.1269 22.1091C19.5916 21.803 18.9663 21.6932 18.3588 21.7987L14.2089 22.5246C13.3925 22.6662 12.5546 22.6225 11.7574 22.3966L11.2933 22.2643C10.1681 21.9411 8.9764 21.9281 7.84434 22.2265C6.71229 22.525 5.68195 23.1239 4.8623 23.9598L5.92498 30.034L6.59144 29.4911C7.21342 28.9723 8.01252 28.7154 8.82025 28.7745L16.2246 29.3069H16.2478C17.6504 29.3072 19.0177 28.8665 20.1562 28.0473L28.6024 19.7821C28.2717 19.5514 27.8754 19.4336 27.4724 19.4462C27.0694 19.4588 26.6812 19.6011 26.3655 19.8519Z" fill="#2D73F6"/><path d="M3.58985 22.3468L0 22.9747L1.57874 32L5.16859 31.3721L3.58985 22.3468Z" fill="#2D73F6"/></g></svg>