<svg width="486" height="80" viewBox="0 0 486 80" fill="none" xmlns="http://www.w3.org/2000/svg">
<rect y="27" width="486" height="8" rx="4" fill="#E2E3E9"/>
<rect x="191" y="27" width="106" height="8" fill="#2D73F6"/>
<circle cx="402" cy="31" r="14" fill="#DE2B70" stroke="white" stroke-width="4"/>
<path d="M448.11 67.493C448.11 68.447 447.951 69.332 447.633 70.148C447.321 70.958 446.877 71.66 446.301 72.254C445.725 72.848 445.032 73.313 444.222 73.649C443.412 73.979 442.512 74.144 441.522 74.144C440.538 74.144 439.641 73.979 438.831 73.649C438.021 73.313 437.325 72.848 436.743 72.254C436.167 71.66 435.72 70.958 435.402 70.148C435.084 69.332 434.925 68.447 434.925 67.493C434.925 66.539 435.084 65.657 435.402 64.847C435.72 64.031 436.167 63.326 436.743 62.732C437.325 62.138 438.021 61.676 438.831 61.346C439.641 61.01 440.538 60.842 441.522 60.842C442.182 60.842 442.803 60.92 443.385 61.076C443.967 61.226 444.501 61.442 444.987 61.724C445.473 62 445.908 62.339 446.292 62.741C446.682 63.137 447.012 63.581 447.282 64.073C447.552 64.565 447.756 65.099 447.894 65.675C448.038 66.251 448.11 66.857 448.11 67.493ZM445.635 67.493C445.635 66.779 445.539 66.14 445.347 65.576C445.155 65.006 444.882 64.523 444.528 64.127C444.174 63.731 443.742 63.428 443.232 63.218C442.728 63.008 442.158 62.903 441.522 62.903C440.886 62.903 440.313 63.008 439.803 63.218C439.299 63.428 438.867 63.731 438.507 64.127C438.153 64.523 437.88 65.006 437.688 65.576C437.496 66.14 437.4 66.779 437.4 67.493C437.4 68.207 437.496 68.849 437.688 69.419C437.88 69.983 438.153 70.463 438.507 70.859C438.867 71.249 439.299 71.549 439.803 71.759C440.313 71.969 440.886 72.074 441.522 72.074C442.158 72.074 442.728 71.969 443.232 71.759C443.742 71.549 444.174 71.249 444.528 70.859C444.882 70.463 445.155 69.983 445.347 69.419C445.539 68.849 445.635 68.207 445.635 67.493ZM451.967 71.606C452.219 71.912 452.492 72.128 452.786 72.254C453.086 72.38 453.401 72.443 453.731 72.443C454.073 72.443 454.379 72.383 454.649 72.263C454.925 72.137 455.159 71.945 455.351 71.687C455.543 71.423 455.69 71.09 455.792 70.688C455.894 70.28 455.945 69.794 455.945 69.23C455.945 68.216 455.777 67.484 455.441 67.034C455.105 66.578 454.622 66.35 453.992 66.35C453.566 66.35 453.194 66.449 452.876 66.647C452.558 66.839 452.255 67.112 451.967 67.466V71.606ZM451.967 65.9C452.339 65.51 452.75 65.201 453.2 64.973C453.656 64.739 454.175 64.622 454.757 64.622C455.291 64.622 455.771 64.727 456.197 64.937C456.629 65.147 456.995 65.45 457.295 65.846C457.601 66.236 457.835 66.71 457.997 67.268C458.159 67.826 458.24 68.453 458.24 69.149C458.24 69.899 458.147 70.58 457.961 71.192C457.775 71.804 457.508 72.329 457.16 72.767C456.818 73.199 456.404 73.535 455.918 73.775C455.432 74.015 454.892 74.135 454.298 74.135C454.01 74.135 453.749 74.105 453.515 74.045C453.281 73.991 453.065 73.913 452.867 73.811C452.669 73.709 452.486 73.586 452.318 73.442C452.156 73.292 452 73.127 451.85 72.947L451.751 73.568C451.715 73.724 451.652 73.835 451.562 73.901C451.478 73.967 451.361 74 451.211 74H449.744V60.626H451.967V65.9ZM465.906 68.321C465.906 68.033 465.864 67.763 465.78 67.511C465.702 67.253 465.582 67.028 465.42 66.836C465.258 66.644 465.051 66.494 464.799 66.386C464.553 66.272 464.265 66.215 463.935 66.215C463.293 66.215 462.786 66.398 462.414 66.764C462.048 67.13 461.814 67.649 461.712 68.321H465.906ZM461.667 69.662C461.703 70.136 461.787 70.547 461.919 70.895C462.051 71.237 462.225 71.522 462.441 71.75C462.657 71.972 462.912 72.14 463.206 72.254C463.506 72.362 463.836 72.416 464.196 72.416C464.556 72.416 464.865 72.374 465.123 72.29C465.387 72.206 465.615 72.113 465.807 72.011C466.005 71.909 466.176 71.816 466.32 71.732C466.47 71.648 466.614 71.606 466.752 71.606C466.938 71.606 467.076 71.675 467.166 71.813L467.805 72.623C467.559 72.911 467.283 73.154 466.977 73.352C466.671 73.544 466.35 73.7 466.014 73.82C465.684 73.934 465.345 74.015 464.997 74.063C464.655 74.111 464.322 74.135 463.998 74.135C463.356 74.135 462.759 74.03 462.207 73.82C461.655 73.604 461.175 73.289 460.767 72.875C460.359 72.455 460.038 71.939 459.804 71.327C459.57 70.709 459.453 69.995 459.453 69.185C459.453 68.555 459.555 67.964 459.759 67.412C459.963 66.854 460.254 66.371 460.632 65.963C461.016 65.549 461.481 65.222 462.027 64.982C462.579 64.742 463.2 64.622 463.89 64.622C464.472 64.622 465.009 64.715 465.501 64.901C465.993 65.087 466.416 65.36 466.77 65.72C467.124 66.074 467.4 66.512 467.598 67.034C467.802 67.55 467.904 68.141 467.904 68.807C467.904 69.143 467.868 69.371 467.796 69.491C467.724 69.605 467.586 69.662 467.382 69.662H461.667ZM475.207 66.566C475.147 66.662 475.084 66.731 475.018 66.773C474.952 66.809 474.868 66.827 474.766 66.827C474.658 66.827 474.541 66.797 474.415 66.737C474.295 66.677 474.154 66.611 473.992 66.539C473.83 66.461 473.644 66.392 473.434 66.332C473.23 66.272 472.987 66.242 472.705 66.242C472.267 66.242 471.922 66.335 471.67 66.521C471.424 66.707 471.301 66.95 471.301 67.25C471.301 67.448 471.364 67.616 471.49 67.754C471.622 67.886 471.793 68.003 472.003 68.105C472.219 68.207 472.462 68.3 472.732 68.384C473.002 68.462 473.275 68.549 473.551 68.645C473.833 68.741 474.109 68.852 474.379 68.978C474.649 69.098 474.889 69.254 475.099 69.446C475.315 69.632 475.486 69.857 475.612 70.121C475.744 70.385 475.81 70.703 475.81 71.075C475.81 71.519 475.729 71.93 475.567 72.308C475.411 72.68 475.177 73.004 474.865 73.28C474.553 73.55 474.166 73.763 473.704 73.919C473.248 74.069 472.72 74.144 472.12 74.144C471.802 74.144 471.49 74.114 471.184 74.054C470.884 74 470.593 73.922 470.311 73.82C470.035 73.718 469.777 73.598 469.537 73.46C469.303 73.322 469.096 73.172 468.916 73.01L469.429 72.164C469.495 72.062 469.573 71.984 469.663 71.93C469.753 71.876 469.867 71.849 470.005 71.849C470.143 71.849 470.272 71.888 470.392 71.966C470.518 72.044 470.662 72.128 470.824 72.218C470.986 72.308 471.175 72.392 471.391 72.47C471.613 72.548 471.892 72.587 472.228 72.587C472.492 72.587 472.717 72.557 472.903 72.497C473.095 72.431 473.251 72.347 473.371 72.245C473.497 72.143 473.587 72.026 473.641 71.894C473.701 71.756 473.731 71.615 473.731 71.471C473.731 71.255 473.665 71.078 473.533 70.94C473.407 70.802 473.236 70.682 473.02 70.58C472.81 70.478 472.567 70.388 472.291 70.31C472.021 70.226 471.742 70.136 471.454 70.04C471.172 69.944 470.893 69.833 470.617 69.707C470.347 69.575 470.104 69.41 469.888 69.212C469.678 69.014 469.507 68.771 469.375 68.483C469.249 68.195 469.186 67.847 469.186 67.439C469.186 67.061 469.261 66.701 469.411 66.359C469.561 66.017 469.78 65.72 470.068 65.468C470.362 65.21 470.725 65.006 471.157 64.856C471.595 64.7 472.099 64.622 472.669 64.622C473.305 64.622 473.884 64.727 474.406 64.937C474.928 65.147 475.363 65.423 475.711 65.765L475.207 66.566ZM483.432 68.321C483.432 68.033 483.39 67.763 483.306 67.511C483.228 67.253 483.108 67.028 482.946 66.836C482.784 66.644 482.577 66.494 482.325 66.386C482.079 66.272 481.791 66.215 481.461 66.215C480.819 66.215 480.312 66.398 479.94 66.764C479.574 67.13 479.34 67.649 479.238 68.321H483.432ZM479.193 69.662C479.229 70.136 479.313 70.547 479.445 70.895C479.577 71.237 479.751 71.522 479.967 71.75C480.183 71.972 480.438 72.14 480.732 72.254C481.032 72.362 481.362 72.416 481.722 72.416C482.082 72.416 482.391 72.374 482.649 72.29C482.913 72.206 483.141 72.113 483.333 72.011C483.531 71.909 483.702 71.816 483.846 71.732C483.996 71.648 484.14 71.606 484.278 71.606C484.464 71.606 484.602 71.675 484.692 71.813L485.331 72.623C485.085 72.911 484.809 73.154 484.503 73.352C484.197 73.544 483.876 73.7 483.54 73.82C483.21 73.934 482.871 74.015 482.523 74.063C482.181 74.111 481.848 74.135 481.524 74.135C480.882 74.135 480.285 74.03 479.733 73.82C479.181 73.604 478.701 73.289 478.293 72.875C477.885 72.455 477.564 71.939 477.33 71.327C477.096 70.709 476.979 69.995 476.979 69.185C476.979 68.555 477.081 67.964 477.285 67.412C477.489 66.854 477.78 66.371 478.158 65.963C478.542 65.549 479.007 65.222 479.553 64.982C480.105 64.742 480.726 64.622 481.416 64.622C481.998 64.622 482.535 64.715 483.027 64.901C483.519 65.087 483.942 65.36 484.296 65.72C484.65 66.074 484.926 66.512 485.124 67.034C485.328 67.55 485.43 68.141 485.43 68.807C485.43 69.143 485.394 69.371 485.322 69.491C485.25 69.605 485.112 69.662 484.908 69.662H479.193Z" fill="#222222"/>
<path opacity="0.6" d="M189.303 62.076V75H188.331C188.181 75 188.055 74.973 187.953 74.919C187.857 74.865 187.758 74.778 187.656 74.658L180.357 65.217C180.369 65.379 180.378 65.538 180.384 65.694C180.396 65.85 180.402 65.997 180.402 66.135V75H178.719V62.076H179.709C179.877 62.076 180.003 62.097 180.087 62.139C180.171 62.175 180.264 62.262 180.366 62.4L187.683 71.85C187.665 71.676 187.65 71.508 187.638 71.346C187.632 71.178 187.629 71.022 187.629 70.878V62.076H189.303ZM195.756 65.712C196.428 65.712 197.034 65.823 197.574 66.045C198.12 66.261 198.582 66.576 198.96 66.99C199.344 67.398 199.638 67.893 199.842 68.475C200.046 69.051 200.148 69.699 200.148 70.419C200.148 71.139 200.046 71.79 199.842 72.372C199.638 72.954 199.344 73.449 198.96 73.857C198.582 74.265 198.12 74.58 197.574 74.802C197.034 75.018 196.428 75.126 195.756 75.126C195.078 75.126 194.466 75.018 193.92 74.802C193.38 74.58 192.918 74.265 192.534 73.857C192.15 73.449 191.853 72.954 191.643 72.372C191.439 71.79 191.337 71.139 191.337 70.419C191.337 69.699 191.439 69.051 191.643 68.475C191.853 67.893 192.15 67.398 192.534 66.99C192.918 66.576 193.38 66.261 193.92 66.045C194.466 65.823 195.078 65.712 195.756 65.712ZM195.756 73.758C196.62 73.758 197.265 73.467 197.691 72.885C198.117 72.303 198.33 71.484 198.33 70.428C198.33 69.372 198.117 68.553 197.691 67.971C197.265 67.383 196.62 67.089 195.756 67.089C194.88 67.089 194.226 67.383 193.794 67.971C193.368 68.553 193.155 69.372 193.155 70.428C193.155 71.484 193.368 72.303 193.794 72.885C194.226 73.467 194.88 73.758 195.756 73.758ZM203.763 67.611C204.057 67.011 204.411 66.54 204.825 66.198C205.239 65.856 205.737 65.685 206.319 65.685C206.517 65.685 206.703 65.709 206.877 65.757C207.057 65.799 207.213 65.865 207.345 65.955L207.228 67.278C207.186 67.44 207.087 67.521 206.931 67.521C206.847 67.521 206.721 67.506 206.553 67.476C206.385 67.44 206.205 67.422 206.013 67.422C205.731 67.422 205.482 67.464 205.266 67.548C205.05 67.626 204.855 67.746 204.681 67.908C204.513 68.064 204.363 68.259 204.231 68.493C204.099 68.721 203.976 68.982 203.862 69.276V75H202.107V65.856H203.115C203.307 65.856 203.436 65.892 203.502 65.964C203.574 66.03 203.625 66.15 203.655 66.324L203.763 67.611ZM208.699 75V65.856H209.752C209.998 65.856 210.151 65.973 210.211 66.207L210.337 67.08C210.673 66.678 211.045 66.351 211.453 66.099C211.867 65.841 212.35 65.712 212.902 65.712C213.508 65.712 214 65.88 214.378 66.216C214.756 66.546 215.032 66.996 215.206 67.566C215.338 67.242 215.509 66.963 215.719 66.729C215.929 66.495 216.163 66.303 216.421 66.153C216.679 66.003 216.952 65.892 217.24 65.82C217.534 65.748 217.831 65.712 218.131 65.712C218.617 65.712 219.049 65.79 219.427 65.946C219.811 66.096 220.135 66.318 220.399 66.612C220.663 66.906 220.864 67.269 221.002 67.701C221.14 68.133 221.209 68.625 221.209 69.177V75H219.445V69.177C219.445 68.493 219.295 67.977 218.995 67.629C218.701 67.281 218.269 67.107 217.699 67.107C217.447 67.107 217.207 67.152 216.979 67.242C216.751 67.326 216.55 67.455 216.376 67.629C216.208 67.803 216.073 68.019 215.971 68.277C215.875 68.535 215.827 68.835 215.827 69.177V75H214.063V69.177C214.063 68.469 213.922 67.947 213.64 67.611C213.358 67.275 212.944 67.107 212.398 67.107C212.02 67.107 211.669 67.206 211.345 67.404C211.021 67.602 210.724 67.872 210.454 68.214V75H208.699ZM228.484 70.941C227.77 70.965 227.164 71.022 226.666 71.112C226.168 71.196 225.763 71.31 225.451 71.454C225.139 71.598 224.914 71.769 224.776 71.967C224.638 72.159 224.569 72.375 224.569 72.615C224.569 72.843 224.605 73.041 224.677 73.209C224.755 73.371 224.857 73.506 224.983 73.614C225.115 73.716 225.268 73.791 225.442 73.839C225.616 73.887 225.805 73.911 226.009 73.911C226.279 73.911 226.525 73.884 226.747 73.83C226.975 73.776 227.188 73.701 227.386 73.605C227.584 73.503 227.773 73.38 227.953 73.236C228.133 73.092 228.31 72.927 228.484 72.741V70.941ZM223.336 67.134C223.846 66.648 224.398 66.285 224.992 66.045C225.592 65.805 226.249 65.685 226.963 65.685C227.485 65.685 227.947 65.772 228.349 65.946C228.751 66.114 229.09 66.351 229.366 66.657C229.642 66.963 229.849 67.329 229.987 67.755C230.131 68.181 230.203 68.652 230.203 69.168V75H229.42C229.246 75 229.114 74.973 229.024 74.919C228.934 74.859 228.862 74.751 228.808 74.595L228.619 73.794C228.385 74.01 228.154 74.202 227.926 74.37C227.698 74.532 227.458 74.673 227.206 74.793C226.96 74.907 226.696 74.994 226.414 75.054C226.132 75.114 225.82 75.144 225.478 75.144C225.118 75.144 224.779 75.096 224.461 75C224.149 74.898 223.876 74.745 223.642 74.541C223.408 74.337 223.222 74.082 223.084 73.776C222.952 73.47 222.886 73.113 222.886 72.705C222.886 72.345 222.982 72 223.174 71.67C223.372 71.334 223.69 71.034 224.128 70.77C224.572 70.506 225.148 70.29 225.856 70.122C226.57 69.954 227.446 69.858 228.484 69.834V69.168C228.484 68.478 228.337 67.962 228.043 67.62C227.749 67.278 227.317 67.107 226.747 67.107C226.363 67.107 226.039 67.155 225.775 67.251C225.517 67.347 225.292 67.455 225.1 67.575C224.914 67.689 224.749 67.794 224.605 67.89C224.467 67.986 224.323 68.034 224.173 68.034C224.053 68.034 223.948 68.001 223.858 67.935C223.774 67.869 223.705 67.791 223.651 67.701L223.336 67.134ZM234.352 61.716V75H232.588V61.716H234.352ZM242.483 69.348C242.483 70.62 242.642 71.859 242.96 73.065C243.278 74.271 243.743 75.414 244.355 76.494C244.457 76.692 244.484 76.845 244.436 76.953C244.388 77.061 244.313 77.148 244.211 77.214L243.428 77.691C242.978 77.001 242.594 76.314 242.276 75.63C241.964 74.952 241.709 74.271 241.511 73.587C241.319 72.897 241.178 72.201 241.088 71.499C240.998 70.797 240.953 70.08 240.953 69.348C240.953 68.61 240.998 67.89 241.088 67.188C241.178 66.486 241.319 65.793 241.511 65.109C241.709 64.419 241.964 63.735 242.276 63.057C242.594 62.373 242.978 61.686 243.428 60.996L244.211 61.473C244.313 61.539 244.388 61.626 244.436 61.734C244.484 61.842 244.457 61.995 244.355 62.193C243.743 63.273 243.278 64.419 242.96 65.631C242.642 66.837 242.483 68.076 242.483 69.348ZM251.223 73.479C251.709 73.479 252.123 73.422 252.465 73.308C252.813 73.194 253.095 73.038 253.311 72.84C253.533 72.642 253.695 72.408 253.797 72.138C253.899 71.862 253.95 71.562 253.95 71.238C253.95 70.596 253.728 70.092 253.284 69.726C252.84 69.354 252.153 69.168 251.223 69.168H248.523V73.479H251.223ZM248.523 63.579V67.809H250.728C251.67 67.809 252.369 67.62 252.825 67.242C253.287 66.858 253.518 66.342 253.518 65.694C253.518 64.956 253.299 64.419 252.861 64.083C252.423 63.747 251.742 63.579 250.818 63.579H248.523ZM250.818 62.076C251.628 62.076 252.321 62.154 252.897 62.31C253.479 62.466 253.956 62.691 254.328 62.985C254.7 63.279 254.973 63.636 255.147 64.056C255.327 64.47 255.417 64.941 255.417 65.469C255.417 65.781 255.369 66.081 255.273 66.369C255.177 66.657 255.03 66.927 254.832 67.179C254.634 67.425 254.385 67.647 254.085 67.845C253.785 68.043 253.431 68.208 253.023 68.34C254.901 68.712 255.84 69.693 255.84 71.283C255.84 71.835 255.738 72.339 255.534 72.795C255.33 73.245 255.033 73.635 254.643 73.965C254.253 74.295 253.773 74.55 253.203 74.73C252.633 74.91 251.985 75 251.259 75H246.606V62.076H250.818ZM271.885 62.076V75H270.211V65.802C270.211 65.664 270.214 65.517 270.22 65.361C270.232 65.205 270.244 65.046 270.256 64.884L265.954 72.777C265.804 73.071 265.573 73.218 265.261 73.218H264.991C264.679 73.218 264.451 73.071 264.307 72.777L259.924 64.857C259.96 65.193 259.978 65.508 259.978 65.802V75H258.295V62.076H259.717C259.885 62.076 260.014 62.094 260.104 62.13C260.2 62.16 260.29 62.25 260.374 62.4L264.694 70.14C264.778 70.296 264.856 70.461 264.928 70.635C265 70.809 265.069 70.983 265.135 71.157C265.261 70.803 265.408 70.461 265.576 70.131L269.815 62.4C269.893 62.25 269.977 62.16 270.067 62.13C270.163 62.094 270.295 62.076 270.463 62.076H271.885ZM277.008 75H275.082V62.076H277.008V75ZM292.031 73.335C292.223 73.335 292.373 73.392 292.481 73.506C292.589 73.614 292.643 73.758 292.643 73.938V75H283.967V74.397C283.967 74.277 283.991 74.151 284.039 74.019C284.087 73.881 284.168 73.758 284.282 73.65L288.368 69.555C288.71 69.213 289.019 68.883 289.295 68.565C289.571 68.247 289.805 67.932 289.997 67.62C290.189 67.302 290.336 66.978 290.438 66.648C290.546 66.318 290.6 65.97 290.6 65.604C290.6 65.244 290.543 64.929 290.429 64.659C290.315 64.383 290.159 64.155 289.961 63.975C289.763 63.795 289.529 63.66 289.259 63.57C288.989 63.48 288.698 63.435 288.386 63.435C288.074 63.435 287.786 63.48 287.522 63.57C287.264 63.66 287.033 63.786 286.829 63.948C286.625 64.11 286.454 64.302 286.316 64.524C286.178 64.746 286.079 64.986 286.019 65.244C285.935 65.472 285.827 65.625 285.695 65.703C285.569 65.781 285.383 65.799 285.137 65.757L284.219 65.595C284.303 64.995 284.468 64.467 284.714 64.011C284.96 63.555 285.269 63.174 285.641 62.868C286.013 62.556 286.439 62.322 286.919 62.166C287.405 62.01 287.927 61.932 288.485 61.932C289.049 61.932 289.568 62.016 290.042 62.184C290.522 62.346 290.936 62.583 291.284 62.895C291.632 63.207 291.905 63.588 292.103 64.038C292.301 64.482 292.4 64.986 292.4 65.55C292.4 66.03 292.328 66.477 292.184 66.891C292.046 67.299 291.854 67.689 291.608 68.061C291.368 68.433 291.086 68.796 290.762 69.15C290.444 69.498 290.105 69.852 289.745 70.212L286.469 73.56C286.721 73.494 286.973 73.44 287.225 73.398C287.483 73.356 287.726 73.335 287.954 73.335H292.031ZM302.797 73.659V75H295.813V73.659H298.549V65.19C298.549 64.92 298.558 64.641 298.576 64.353L296.38 66.216C296.296 66.282 296.212 66.324 296.128 66.342C296.044 66.36 295.963 66.363 295.885 66.351C295.813 66.339 295.747 66.315 295.687 66.279C295.633 66.237 295.588 66.195 295.552 66.153L295.003 65.388L298.873 62.049H300.304V73.659H302.797ZM306.578 69.348C306.578 68.076 306.416 66.837 306.092 65.631C305.774 64.419 305.309 63.273 304.697 62.193C304.595 61.995 304.568 61.842 304.616 61.734C304.67 61.626 304.748 61.539 304.85 61.473L305.633 60.996C306.083 61.686 306.464 62.373 306.776 63.057C307.088 63.735 307.343 64.419 307.541 65.109C307.739 65.793 307.883 66.486 307.973 67.188C308.063 67.89 308.108 68.61 308.108 69.348C308.108 70.08 308.063 70.797 307.973 71.499C307.883 72.201 307.739 72.897 307.541 73.587C307.343 74.271 307.088 74.952 306.776 75.63C306.464 76.314 306.083 77.001 305.633 77.691L304.85 77.214C304.748 77.148 304.67 77.061 304.616 76.953C304.568 76.845 304.595 76.692 304.697 76.494C305.309 75.414 305.774 74.271 306.092 73.065C306.416 71.859 306.578 70.62 306.578 69.348Z" fill="#222222"/>
<rect x="241" y="17" width="7" height="28" rx="3.5" fill="#2D73F6" stroke="white" stroke-width="4"/>
<path opacity="0.6" d="M6.633 73.461C7.149 73.461 7.611 73.374 8.019 73.2C8.427 73.026 8.772 72.783 9.054 72.471C9.336 72.153 9.552 71.778 9.702 71.346C9.852 70.908 9.927 70.425 9.927 69.897V62.076H11.835V69.897C11.835 70.653 11.715 71.352 11.475 71.994C11.235 72.636 10.89 73.191 10.44 73.659C9.99 74.127 9.444 74.493 8.802 74.757C8.16 75.021 7.437 75.153 6.633 75.153C5.829 75.153 5.106 75.021 4.464 74.757C3.822 74.493 3.276 74.127 2.826 73.659C2.376 73.191 2.031 72.636 1.791 71.994C1.551 71.352 1.431 70.653 1.431 69.897V62.076H3.348V69.888C3.348 70.416 3.42 70.899 3.564 71.337C3.714 71.775 3.93 72.153 4.212 72.471C4.494 72.783 4.839 73.026 5.247 73.2C5.655 73.374 6.117 73.461 6.633 73.461ZM15.8702 67.125C16.0682 66.915 16.2752 66.723 16.4912 66.549C16.7072 66.375 16.9352 66.228 17.1752 66.108C17.4212 65.982 17.6822 65.886 17.9582 65.82C18.2402 65.748 18.5402 65.712 18.8582 65.712C19.3622 65.712 19.8032 65.796 20.1812 65.964C20.5652 66.132 20.8862 66.369 21.1442 66.675C21.4022 66.975 21.5972 67.338 21.7292 67.764C21.8612 68.19 21.9272 68.661 21.9272 69.177V75H20.1632V69.177C20.1632 68.523 20.0132 68.016 19.7132 67.656C19.4132 67.29 18.9542 67.107 18.3362 67.107C17.8862 67.107 17.4632 67.215 17.0672 67.431C16.6772 67.641 16.3142 67.929 15.9782 68.295V75H14.2232V65.856H15.2762C15.5222 65.856 15.6752 65.973 15.7352 66.207L15.8702 67.125ZM30.1905 68.07C29.9025 67.692 29.5905 67.428 29.2545 67.278C28.9245 67.128 28.5525 67.053 28.1385 67.053C27.3345 67.053 26.7105 67.344 26.2665 67.926C25.8285 68.502 25.6095 69.345 25.6095 70.455C25.6095 71.037 25.6575 71.535 25.7535 71.949C25.8555 72.357 25.9995 72.693 26.1855 72.957C26.3775 73.215 26.6115 73.407 26.8875 73.533C27.1635 73.653 27.4755 73.713 27.8235 73.713C28.3335 73.713 28.7745 73.599 29.1465 73.371C29.5185 73.143 29.8665 72.822 30.1905 72.408V68.07ZM31.9545 61.716V75H30.8925C30.6465 75 30.4935 74.883 30.4335 74.649L30.2805 73.596C29.8905 74.058 29.4465 74.43 28.9485 74.712C28.4565 74.988 27.8865 75.126 27.2385 75.126C26.7165 75.126 26.2425 75.024 25.8165 74.82C25.3965 74.616 25.0365 74.319 24.7365 73.929C24.4365 73.533 24.2055 73.044 24.0435 72.462C23.8815 71.88 23.8005 71.211 23.8005 70.455C23.8005 69.777 23.8905 69.147 24.0705 68.565C24.2505 67.983 24.5115 67.479 24.8535 67.053C25.1955 66.627 25.6095 66.294 26.0955 66.054C26.5815 65.808 27.1305 65.685 27.7425 65.685C28.2945 65.685 28.7625 65.775 29.1465 65.955C29.5365 66.135 29.8845 66.39 30.1905 66.72V61.716H31.9545ZM40.4599 69.411C40.4599 69.063 40.4089 68.742 40.3069 68.448C40.2109 68.154 40.0669 67.899 39.8749 67.683C39.6829 67.467 39.4489 67.299 39.1729 67.179C38.8969 67.059 38.5789 66.999 38.2189 66.999C37.4809 66.999 36.8989 67.212 36.4729 67.638C36.0529 68.064 35.7859 68.655 35.6719 69.411H40.4599ZM41.9089 73.695C41.6929 73.947 41.4439 74.166 41.1619 74.352C40.8799 74.532 40.5799 74.679 40.2619 74.793C39.9439 74.907 39.6139 74.991 39.2719 75.045C38.9359 75.099 38.6029 75.126 38.2729 75.126C37.6429 75.126 37.0579 75.021 36.5179 74.811C35.9839 74.595 35.5189 74.283 35.1229 73.875C34.7329 73.461 34.4269 72.951 34.2049 72.345C33.9889 71.733 33.8809 71.031 33.8809 70.239C33.8809 69.603 33.9799 69.012 34.1779 68.466C34.3759 67.914 34.6579 67.434 35.0239 67.026C35.3959 66.618 35.8489 66.297 36.3829 66.063C36.9169 65.829 37.5169 65.712 38.1829 65.712C38.7409 65.712 39.2539 65.805 39.7219 65.991C40.1959 66.171 40.6039 66.435 40.9459 66.783C41.2879 67.131 41.5549 67.56 41.7469 68.07C41.9449 68.58 42.0439 69.162 42.0439 69.816C42.0439 70.086 42.0139 70.269 41.9539 70.365C41.8939 70.455 41.7829 70.5 41.6209 70.5H35.6269C35.6449 71.046 35.7229 71.523 35.8609 71.931C35.9989 72.333 36.1879 72.669 36.4279 72.939C36.6739 73.209 36.9649 73.41 37.3009 73.542C37.6369 73.674 38.0119 73.74 38.4259 73.74C38.8159 73.74 39.1519 73.695 39.4339 73.605C39.7219 73.515 39.9679 73.419 40.1719 73.317C40.3819 73.209 40.5559 73.11 40.6939 73.02C40.8379 72.93 40.9639 72.885 41.0719 72.885C41.2159 72.885 41.3269 72.939 41.4049 73.047L41.9089 73.695ZM45.5863 67.611C45.8803 67.011 46.2343 66.54 46.6483 66.198C47.0623 65.856 47.5603 65.685 48.1423 65.685C48.3403 65.685 48.5263 65.709 48.7003 65.757C48.8803 65.799 49.0363 65.865 49.1683 65.955L49.0513 67.278C49.0093 67.44 48.9103 67.521 48.7543 67.521C48.6703 67.521 48.5443 67.506 48.3763 67.476C48.2083 67.44 48.0283 67.422 47.8363 67.422C47.5543 67.422 47.3053 67.464 47.0893 67.548C46.8733 67.626 46.6783 67.746 46.5043 67.908C46.3363 68.064 46.1863 68.259 46.0543 68.493C45.9223 68.721 45.7993 68.982 45.6853 69.276V75H43.9303V65.856H44.9383C45.1303 65.856 45.2593 65.892 45.3253 65.964C45.3973 66.03 45.4483 66.15 45.4783 66.324L45.5863 67.611ZM63.2391 65.856L60.2961 75H58.8921C58.7241 75 58.6101 74.889 58.5501 74.667L56.6241 68.709C56.5761 68.559 56.5341 68.412 56.4981 68.268C56.4621 68.118 56.4291 67.968 56.3991 67.818C56.3451 68.13 56.2701 68.433 56.1741 68.727L54.2211 74.667C54.1611 74.889 54.0321 75 53.8341 75H52.5021L49.5501 65.856H50.9361C51.0741 65.856 51.1881 65.889 51.2781 65.955C51.3741 66.021 51.4371 66.105 51.4671 66.207L53.1141 71.823C53.1681 72.051 53.2161 72.273 53.2581 72.489C53.3001 72.705 53.3391 72.921 53.3751 73.137C53.4291 72.921 53.4861 72.705 53.5461 72.489C53.6121 72.273 53.6781 72.051 53.7441 71.823L55.5711 66.171C55.6011 66.069 55.6581 65.988 55.7421 65.928C55.8261 65.862 55.9281 65.829 56.0481 65.829H56.8131C56.9451 65.829 57.0531 65.862 57.1371 65.928C57.2271 65.988 57.2871 66.069 57.3171 66.171L59.0991 71.823C59.1651 72.051 59.2281 72.276 59.2881 72.498C59.3481 72.714 59.4021 72.933 59.4501 73.155C59.4861 72.939 59.5281 72.723 59.5761 72.507C59.6241 72.285 59.6781 72.057 59.7381 71.823L61.4121 66.207C61.4421 66.105 61.5021 66.021 61.5921 65.955C61.6881 65.889 61.7961 65.856 61.9161 65.856H63.2391ZM70.6416 69.411C70.6416 69.063 70.5906 68.742 70.4886 68.448C70.3926 68.154 70.2486 67.899 70.0566 67.683C69.8646 67.467 69.6306 67.299 69.3546 67.179C69.0786 67.059 68.7606 66.999 68.4006 66.999C67.6626 66.999 67.0806 67.212 66.6546 67.638C66.2346 68.064 65.9676 68.655 65.8536 69.411H70.6416ZM72.0906 73.695C71.8746 73.947 71.6256 74.166 71.3436 74.352C71.0616 74.532 70.7616 74.679 70.4436 74.793C70.1256 74.907 69.7956 74.991 69.4536 75.045C69.1176 75.099 68.7846 75.126 68.4546 75.126C67.8246 75.126 67.2396 75.021 66.6996 74.811C66.1656 74.595 65.7006 74.283 65.3046 73.875C64.9146 73.461 64.6086 72.951 64.3866 72.345C64.1706 71.733 64.0626 71.031 64.0626 70.239C64.0626 69.603 64.1616 69.012 64.3596 68.466C64.5576 67.914 64.8396 67.434 65.2056 67.026C65.5776 66.618 66.0306 66.297 66.5646 66.063C67.0986 65.829 67.6986 65.712 68.3646 65.712C68.9226 65.712 69.4356 65.805 69.9036 65.991C70.3776 66.171 70.7856 66.435 71.1276 66.783C71.4696 67.131 71.7366 67.56 71.9286 68.07C72.1266 68.58 72.2256 69.162 72.2256 69.816C72.2256 70.086 72.1956 70.269 72.1356 70.365C72.0756 70.455 71.9646 70.5 71.8026 70.5H65.8086C65.8266 71.046 65.9046 71.523 66.0426 71.931C66.1806 72.333 66.3696 72.669 66.6096 72.939C66.8556 73.209 67.1466 73.41 67.4826 73.542C67.8186 73.674 68.1936 73.74 68.6076 73.74C68.9976 73.74 69.3336 73.695 69.6156 73.605C69.9036 73.515 70.1496 73.419 70.3536 73.317C70.5636 73.209 70.7376 73.11 70.8756 73.02C71.0196 72.93 71.1456 72.885 71.2536 72.885C71.3976 72.885 71.5086 72.939 71.5866 73.047L72.0906 73.695ZM75.9479 65.856V75H74.1929V65.856H75.9479ZM76.2809 63.03C76.2809 63.192 76.2479 63.348 76.1819 63.498C76.1159 63.642 76.0259 63.771 75.9119 63.885C75.8039 63.993 75.6749 64.08 75.5249 64.146C75.3749 64.206 75.2189 64.236 75.0569 64.236C74.8949 64.236 74.7419 64.206 74.5979 64.146C74.4539 64.08 74.3249 63.993 74.2109 63.885C74.1029 63.771 74.0159 63.642 73.9499 63.498C73.8899 63.348 73.8599 63.192 73.8599 63.03C73.8599 62.862 73.8899 62.706 73.9499 62.562C74.0159 62.412 74.1029 62.283 74.2109 62.175C74.3249 62.061 74.4539 61.974 74.5979 61.914C74.7419 61.848 74.8949 61.815 75.0569 61.815C75.2189 61.815 75.3749 61.848 75.5249 61.914C75.6749 61.974 75.8039 62.061 75.9119 62.175C76.0259 62.283 76.1159 62.412 76.1819 62.562C76.2479 62.706 76.2809 62.862 76.2809 63.03ZM81.7019 70.437C82.0139 70.437 82.2869 70.395 82.5209 70.311C82.7609 70.227 82.9589 70.11 83.1149 69.96C83.2769 69.804 83.3969 69.618 83.4749 69.402C83.5589 69.186 83.6009 68.949 83.6009 68.691C83.6009 68.163 83.4389 67.743 83.1149 67.431C82.7969 67.113 82.3259 66.954 81.7019 66.954C81.0839 66.954 80.6129 67.113 80.2889 67.431C79.9709 67.743 79.8119 68.163 79.8119 68.691C79.8119 68.949 79.8509 69.186 79.9289 69.402C80.0129 69.612 80.1329 69.795 80.2889 69.951C80.4509 70.101 80.6489 70.221 80.8829 70.311C81.1229 70.395 81.3959 70.437 81.7019 70.437ZM84.5009 75.477C84.5009 75.261 84.4409 75.09 84.3209 74.964C84.2009 74.832 84.0359 74.73 83.8259 74.658C83.6219 74.58 83.3819 74.526 83.1059 74.496C82.8299 74.46 82.5389 74.433 82.2329 74.415C81.9329 74.397 81.6239 74.382 81.3059 74.37C80.9879 74.352 80.6819 74.322 80.3879 74.28C80.0759 74.436 79.8179 74.625 79.6139 74.847C79.4159 75.069 79.3169 75.33 79.3169 75.63C79.3169 75.822 79.3649 76.002 79.4609 76.17C79.5629 76.338 79.7159 76.482 79.9199 76.602C80.1299 76.728 80.3909 76.824 80.7029 76.89C81.0209 76.962 81.3989 76.998 81.8369 76.998C82.2689 76.998 82.6499 76.959 82.9799 76.881C83.3099 76.809 83.5859 76.704 83.8079 76.566C84.0359 76.434 84.2069 76.275 84.3209 76.089C84.4409 75.903 84.5009 75.699 84.5009 75.477ZM86.2829 66.198V66.855C86.2829 67.071 86.1479 67.206 85.8779 67.26L84.8969 67.404C84.9809 67.59 85.0469 67.788 85.0949 67.998C85.1429 68.202 85.1669 68.418 85.1669 68.646C85.1669 69.096 85.0799 69.504 84.9059 69.87C84.7319 70.23 84.4919 70.539 84.1859 70.797C83.8799 71.055 83.5139 71.253 83.0879 71.391C82.6679 71.529 82.2059 71.598 81.7019 71.598C81.2879 71.598 80.9009 71.553 80.5409 71.463C80.3609 71.571 80.2229 71.691 80.1269 71.823C80.0369 71.949 79.9919 72.075 79.9919 72.201C79.9919 72.411 80.0789 72.567 80.2529 72.669C80.4329 72.771 80.6639 72.846 80.9459 72.894C81.2339 72.936 81.5609 72.963 81.9269 72.975C82.2989 72.987 82.6739 73.008 83.0519 73.038C83.4359 73.062 83.8109 73.11 84.1769 73.182C84.5489 73.248 84.8759 73.359 85.1579 73.515C85.4459 73.665 85.6769 73.875 85.8509 74.145C86.0309 74.409 86.1209 74.754 86.1209 75.18C86.1209 75.576 86.0219 75.96 85.8239 76.332C85.6319 76.704 85.3499 77.034 84.9779 77.322C84.6059 77.61 84.1529 77.841 83.6189 78.015C83.0849 78.189 82.4789 78.276 81.8009 78.276C81.1229 78.276 80.5319 78.21 80.0279 78.078C79.5299 77.946 79.1129 77.769 78.7769 77.547C78.4469 77.325 78.1979 77.067 78.0299 76.773C77.8679 76.479 77.7869 76.173 77.7869 75.855C77.7869 75.411 77.9249 75.036 78.2009 74.73C78.4769 74.418 78.8579 74.175 79.3439 74.001C79.0799 73.881 78.8699 73.719 78.7139 73.515C78.5579 73.305 78.4799 73.029 78.4799 72.687C78.4799 72.555 78.5039 72.42 78.5519 72.282C78.5999 72.138 78.6719 71.997 78.7679 71.859C78.8699 71.715 78.9929 71.58 79.1369 71.454C79.2869 71.328 79.4579 71.214 79.6499 71.112C79.1999 70.86 78.8459 70.527 78.5879 70.113C78.3299 69.693 78.2009 69.204 78.2009 68.646C78.2009 68.196 78.2879 67.791 78.4619 67.431C78.6359 67.071 78.8759 66.762 79.1819 66.504C79.4939 66.246 79.8629 66.048 80.2889 65.91C80.7209 65.772 81.1919 65.703 81.7019 65.703C82.4939 65.703 83.1749 65.868 83.7449 66.198H86.2829ZM89.6482 67.017C90.0322 66.627 90.4552 66.312 90.9172 66.072C91.3852 65.832 91.9222 65.712 92.5282 65.712C93.0322 65.712 93.4732 65.796 93.8512 65.964C94.2352 66.132 94.5562 66.369 94.8142 66.675C95.0722 66.975 95.2672 67.338 95.3992 67.764C95.5312 68.19 95.5972 68.661 95.5972 69.177V75H93.8332V69.177C93.8332 68.523 93.6832 68.016 93.3832 67.656C93.0832 67.29 92.6242 67.107 92.0062 67.107C91.5562 67.107 91.1332 67.215 90.7372 67.431C90.3472 67.641 89.9842 67.929 89.6482 68.295V75H87.8932V61.716H89.6482V67.017ZM100.704 75.144C99.9664 75.144 99.3964 74.937 98.9944 74.523C98.5984 74.109 98.4004 73.518 98.4004 72.75V67.278H97.3384C97.2364 67.278 97.1494 67.248 97.0774 67.188C97.0114 67.122 96.9784 67.026 96.9784 66.9V66.189L98.4634 65.982L98.8594 63.255C98.8834 63.153 98.9284 63.075 98.9944 63.021C99.0664 62.961 99.1564 62.931 99.2644 62.931H100.155V66H102.747V67.278H100.155V72.633C100.155 72.993 100.242 73.263 100.416 73.443C100.596 73.617 100.824 73.704 101.1 73.704C101.262 73.704 101.4 73.683 101.514 73.641C101.634 73.599 101.736 73.554 101.82 73.506C101.904 73.452 101.976 73.404 102.036 73.362C102.096 73.32 102.15 73.299 102.198 73.299C102.258 73.299 102.303 73.314 102.333 73.344C102.369 73.368 102.405 73.41 102.441 73.47L102.963 74.316C102.675 74.58 102.333 74.784 101.937 74.928C101.541 75.072 101.13 75.144 100.704 75.144Z" fill="#222222"/>
<path d="M393.083 6.36V10H391.341V6.36L387.915 0.600999H389.456C389.608 0.600999 389.727 0.637833 389.814 0.7115C389.905 0.785166 389.98 0.878333 390.041 0.991L391.757 4.1305C391.857 4.31683 391.943 4.49233 392.017 4.657C392.095 4.82167 392.164 4.98633 392.225 5.151C392.281 4.98633 392.346 4.82167 392.42 4.657C392.494 4.49233 392.578 4.31683 392.674 4.1305L394.383 0.991C394.431 0.895666 394.502 0.806833 394.598 0.7245C394.693 0.642166 394.814 0.600999 394.962 0.600999H396.509L393.083 6.36ZM405.894 5.3005C405.894 5.9895 405.779 6.62867 405.549 7.218C405.324 7.803 405.003 8.31 404.587 8.739C404.171 9.168 403.671 9.50383 403.086 9.7465C402.501 9.98483 401.851 10.104 401.136 10.104C400.425 10.104 399.777 9.98483 399.192 9.7465C398.607 9.50383 398.105 9.168 397.684 8.739C397.268 8.31 396.945 7.803 396.716 7.218C396.486 6.62867 396.371 5.9895 396.371 5.3005C396.371 4.6115 396.486 3.9745 396.716 3.3895C396.945 2.80017 397.268 2.291 397.684 1.862C398.105 1.433 398.607 1.09933 399.192 0.861C399.777 0.618333 400.425 0.497 401.136 0.497C401.612 0.497 402.061 0.553333 402.481 0.665999C402.902 0.774333 403.287 0.930333 403.638 1.134C403.989 1.33333 404.303 1.57817 404.581 1.8685C404.862 2.1545 405.101 2.47517 405.296 2.8305C405.491 3.18583 405.638 3.5715 405.738 3.9875C405.842 4.4035 405.894 4.84117 405.894 5.3005ZM404.106 5.3005C404.106 4.78483 404.037 4.32333 403.898 3.916C403.76 3.50433 403.562 3.1555 403.307 2.8695C403.051 2.5835 402.739 2.36467 402.371 2.213C402.007 2.06133 401.595 1.9855 401.136 1.9855C400.676 1.9855 400.263 2.06133 399.894 2.213C399.53 2.36467 399.218 2.5835 398.958 2.8695C398.703 3.1555 398.505 3.50433 398.367 3.916C398.228 4.32333 398.159 4.78483 398.159 5.3005C398.159 5.81617 398.228 6.27983 398.367 6.6915C398.505 7.09883 398.703 7.4455 398.958 7.7315C399.218 8.01317 399.53 8.22983 399.894 8.3815C400.263 8.53317 400.676 8.609 401.136 8.609C401.595 8.609 402.007 8.53317 402.371 8.3815C402.739 8.22983 403.051 8.01317 403.307 7.7315C403.562 7.4455 403.76 7.09883 403.898 6.6915C404.037 6.27983 404.106 5.81617 404.106 5.3005ZM411.212 8.5895C411.55 8.5895 411.851 8.53317 412.116 8.4205C412.384 8.30783 412.61 8.14967 412.792 7.946C412.974 7.74233 413.112 7.49533 413.208 7.205C413.307 6.91467 413.357 6.58967 413.357 6.23V0.600999H415.106V6.23C415.106 6.789 415.015 7.30683 414.833 7.7835C414.655 8.25583 414.397 8.66533 414.059 9.012C413.726 9.35433 413.318 9.623 412.837 9.818C412.356 10.0087 411.815 10.104 411.212 10.104C410.606 10.104 410.062 10.0087 409.581 9.818C409.1 9.623 408.69 9.35433 408.352 9.012C408.019 8.66533 407.761 8.25583 407.579 7.7835C407.401 7.30683 407.312 6.789 407.312 6.23V0.600999H409.061V6.2235C409.061 6.58317 409.108 6.90817 409.204 7.1985C409.303 7.48883 409.444 7.738 409.626 7.946C409.813 8.14967 410.038 8.30783 410.302 8.4205C410.571 8.53317 410.874 8.5895 411.212 8.5895Z" fill="#DE2B70"/>
</svg>
