<svg width="33" height="32" viewBox="0 0 33 32" fill="none" xmlns="http://www.w3.org/2000/svg">
<path d="M31.988 6.01616H30.6177H29.5435V4.6203C29.3311 4.50803 29.0647 4.53442 28.8862 4.71372L26.361 7.23858C26.1398 7.45935 26.1398 7.81628 26.361 8.03621L28.8862 10.5619C29.0651 10.742 29.3316 10.768 29.5435 10.6553V9.25864H30.6177H31.988C32.3001 9.25864 32.5523 9.00644 32.5523 8.69476V6.57961C32.5523 6.26835 32.3001 6.01616 31.988 6.01616Z" fill="#2D73F6"/>
<path d="M3.66601 4.71372C3.48713 4.53442 3.22069 4.50845 3.00872 4.6203V6.01616H1.9346H0.563873C0.252193 6.01616 0 6.26835 0 6.58003V8.69518C0 9.00686 0.252193 9.25906 0.563873 9.25906H1.93418H3.0083V10.6558C3.22069 10.7689 3.48713 10.7425 3.66559 10.5623L6.19129 8.03663C6.41206 7.8167 6.41206 7.45978 6.19129 7.239L3.66601 4.71372Z" fill="#2D73F6"/>
<path d="M25.8559 10.4836C22.9913 5.42466 26.2216 0 26.2216 0H6.74708C6.74708 0 9.97741 5.42466 7.11238 10.4836C4.24777 15.5425 2.63281 22.9483 7.38636 32H15.3409L16.4841 25.0509C16.4841 25.0509 10.1751 18.7884 5.32985 17.3255C5.32985 17.3255 6.12246 14.0495 7.17312 12.0831C7.17312 12.0831 8.66659 16.594 16.4841 16.594C24.3017 16.594 25.7948 12.0831 25.7948 12.0831C26.8463 14.0491 27.638 17.3255 27.638 17.3255C22.7927 18.7884 16.4841 25.0509 16.4841 25.0509L17.627 32H25.5811C30.3359 22.9483 28.7205 15.5425 25.8559 10.4836ZM16.4846 10.2398C16.2546 10.2398 16.0682 9.87155 16.0682 9.41659C16.0682 8.96248 16.2546 8.59424 16.4846 8.59424C16.7146 8.59424 16.901 8.96248 16.901 9.41659C16.901 9.87155 16.7141 10.2398 16.4846 10.2398Z" fill="#2D73F6"/>
</svg>
