<svg width="33" height="32" viewBox="0 0 33 32" fill="none" xmlns="http://www.w3.org/2000/svg">
<path d="M31.9882 6.0161H30.6179H29.5438V4.62024C29.3314 4.50797 29.0649 4.53436 28.8865 4.71366L26.3612 7.23852C26.14 7.45929 26.14 7.81622 26.3612 8.03615L28.8865 10.5619C29.0654 10.742 29.3318 10.768 29.5438 10.6553V9.25858H30.6179H31.9882C32.3003 9.25858 32.5525 9.00638 32.5525 8.6947V6.57955C32.5525 6.26829 32.3003 6.0161 31.9882 6.0161Z" fill="#EDA100"/>
<path d="M3.66601 4.71372C3.48713 4.53442 3.22069 4.50845 3.00872 4.6203V6.01616H1.9346H0.563873C0.252193 6.01616 0 6.26835 0 6.58003V8.69518C0 9.00686 0.252193 9.25906 0.563873 9.25906H1.93418H3.0083V10.6558C3.22069 10.7689 3.48713 10.7425 3.66559 10.5623L6.19129 8.03663C6.41206 7.8167 6.41206 7.45978 6.19129 7.239L3.66601 4.71372Z" fill="#EDA100"/>
<path d="M25.8562 10.4836C22.9916 5.42466 26.2219 0 26.2219 0H6.74732C6.74732 0 9.97765 5.42466 7.11262 10.4836C4.24801 15.5425 2.63306 22.9483 7.3866 32H15.3411L16.4844 25.0509C16.4844 25.0509 10.1754 18.7884 5.3301 17.3255C5.3301 17.3255 6.1227 14.0495 7.17337 12.0831C7.17337 12.0831 8.66683 16.594 16.4844 16.594C24.302 16.594 25.795 12.0831 25.795 12.0831C26.8465 14.0491 27.6383 17.3255 27.6383 17.3255C22.793 18.7884 16.4844 25.0509 16.4844 25.0509L17.6272 32H25.5813C30.3361 22.9483 28.7208 15.5425 25.8562 10.4836ZM16.4848 10.2398C16.2548 10.2398 16.0684 9.87155 16.0684 9.41659C16.0684 8.96248 16.2548 8.59424 16.4848 8.59424C16.7148 8.59424 16.9012 8.96248 16.9012 9.41659C16.9012 9.87155 16.7144 10.2398 16.4848 10.2398Z" fill="#EDA100"/>
</svg>
