<svg width="35" height="25" viewBox="0 0 35 25" fill="none" xmlns="http://www.w3.org/2000/svg">
<path d="M30.1489 3.24984C29.4564 3.25609 28.5338 4.0848 28.2213 4.43853C27.9088 4.79226 28.0613 5.11849 28.2976 5.36348C28.2976 5.36348 28.3826 5.81721 28.8076 5.76096C28.8638 6.14844 29.2701 6.10094 29.2701 6.10094C29.2976 6.78966 30.744 6.58717 31.1565 6.55467C32.1503 7.9296 30.4902 9.35578 31.1565 11.6819C29.1864 9.9645 27.265 11.6819 27.265 11.6819C24.3686 9.87826 21.8984 11.6819 21.8984 11.6819C21.2734 11.1457 20.5583 10.7845 19.9133 10.542L19.7983 8.94205C19.7983 8.94205 20.152 8.19834 20.4758 7.15839C20.8583 6.90341 21.0996 6.78216 21.2834 6.11719C21.5509 5.13724 21.2959 4.78726 20.9633 4.78726C21.0458 3.94355 21.1959 2.9211 20.9908 2.32988C20.4308 0.687465 18.3157 0 17.5006 0C16.8593 0 15.8593 0.146243 15.628 0.902455C14.8317 1.03245 14.2029 1.44243 13.9679 2.32863C13.7854 3.0111 13.9779 4.10354 14.0392 4.78726C13.7054 4.78726 13.4504 5.13724 13.7191 6.11719C13.9016 6.78216 14.0642 6.87591 14.5254 7.15839C14.848 8.19834 15.203 8.94205 15.203 8.94205L15.0892 10.542C14.4429 10.7832 13.7291 11.1444 13.1028 11.6819C13.1028 11.6819 10.6339 9.87826 7.73751 11.6819C7.73751 11.6819 5.81614 9.9645 3.84476 11.6819C4.51106 9.35578 2.85095 7.93085 3.84476 6.55467C4.25729 6.58717 5.70238 6.78966 5.73113 6.10094C5.73113 6.10094 6.13741 6.14844 6.19366 5.76096C6.61869 5.81721 6.70369 5.36348 6.70369 5.36348C6.93996 5.11849 7.09247 4.79101 6.77995 4.43853C6.46743 4.08605 5.54362 3.25609 4.85233 3.24984C4.16228 3.24359 2.75344 4.32353 2.21841 5.09599C1.71088 5.83096 -0.269246 9.0808 0.0307733 13.8781C0.0570249 14.2905 0.422048 14.7055 0.804572 14.8618C2.40342 15.5117 3.07847 16.6167 4.4148 16.9517C4.4148 16.9517 7.92877 17.8541 9.25761 16.7617C9.71388 19.9078 11.7003 21.6752 12.0253 24.6263C12.0478 24.8325 12.2253 25 12.4316 25H22.5672C22.7735 25 22.951 24.8325 22.9735 24.6263C23.2997 21.6764 25.2861 19.9078 25.7424 16.7617C27.0712 17.8541 30.5852 16.9517 30.5852 16.9517C31.9215 16.6167 32.5966 15.5117 34.1954 14.8618C34.5804 14.7055 34.9455 14.2905 34.9692 13.8781C35.2692 9.0808 33.2891 5.83096 32.7816 5.09599C32.2478 4.32353 30.839 3.24359 30.1489 3.24984Z" fill="#2D73F6"/>
</svg>
