<svg width="40" height="40" viewBox="0 0 40 40" fill="none" xmlns="http://www.w3.org/2000/svg">
<path d="M34.6565 16.5339C34.4993 16.5339 34.3711 16.6657 34.3711 16.83C34.3711 16.9943 34.5007 17.1253 34.6565 17.1253C34.8137 17.1253 34.9426 16.9922 34.9426 16.83C34.9426 16.6678 34.8151 16.5339 34.6565 16.5339ZM34.7217 17.0375L34.6055 16.8767V17.0368H34.5071V16.6239H34.6402C34.7408 16.6239 34.7974 16.6692 34.7974 16.7521C34.7974 16.8094 34.7656 16.8519 34.7075 16.8675L34.8421 17.0375H34.7217Z" fill="black"/>
<path d="M34.6242 16.7004H34.6064V16.8081H34.6227C34.6716 16.8074 34.6978 16.7904 34.6978 16.7536C34.6978 16.7181 34.673 16.7004 34.6242 16.7004Z" fill="black"/>
<path d="M38.9703 7.03906H1.02974C0.46034 7.03906 0 7.50011 0 8.06881V31.9314C0 32.5001 0.46034 32.9619 1.02974 32.9619H38.9703C39.5397 32.9619 40 32.5008 40 31.9321V8.06881C40 7.50011 39.5397 7.03906 38.9703 7.03906ZM34.6608 16.4697C34.8548 16.4697 35.0163 16.6333 35.0163 16.8301C35.0163 17.0284 34.8548 17.1906 34.6608 17.1906C34.4603 17.1906 34.2989 17.0299 34.2989 16.8301C34.2989 16.6297 34.4582 16.4697 34.6608 16.4697ZM31.2238 16.5631H32.585C33.6452 16.5631 34.2514 17.0716 34.2514 17.9527C34.2514 18.6736 33.8697 19.146 33.1785 19.2869L34.6608 21.2692H33.5312L32.2613 19.3783H32.1423V21.2692H31.2252H31.2238V16.5631ZM28.0135 16.5631H30.6154V17.3606H28.9306V18.4052H30.5545V19.202H28.9306V20.4725H30.6154V21.2692H28.0135V16.5631ZM24.0786 16.5617L25.3329 19.7225L26.6041 16.5617H27.5977L25.5644 21.3882H25.0729L23.0758 16.5624H24.0786V16.5617ZM18.5524 17.9583C18.9313 17.0596 19.8222 16.4293 20.8584 16.4293C22.2415 16.4293 23.3619 17.5497 23.3619 18.9314C23.3619 19.1049 23.3449 19.2742 23.3109 19.4371C23.3038 19.4732 23.2925 19.5093 23.284 19.5461C23.272 19.5893 23.2635 19.6333 23.2486 19.6765C22.9341 20.6949 21.9816 21.435 20.8584 21.435C19.4766 21.435 18.3562 20.3146 18.3562 18.9328C18.3562 18.5872 18.4249 18.2586 18.5524 17.9583ZM16.9278 16.4583C17.3222 16.4583 17.6544 16.5426 18.0567 16.7473V17.8266C17.6763 17.4534 17.3442 17.2969 16.9058 17.2969C16.0453 17.2969 15.369 18.01 15.369 18.913C15.369 19.8655 16.0241 20.5362 16.9483 20.5362C17.364 20.5362 17.6891 20.3875 18.056 20.0199V21.0993C17.6395 21.2976 17.301 21.374 16.9051 21.374C15.5078 21.374 14.4221 20.3018 14.4221 18.9194C14.4221 17.5518 15.5368 16.4569 16.9278 16.4583ZM8.34207 20.726C7.88952 21.1014 7.37535 21.2699 6.66431 21.2699H5.32365V16.5639H6.66926C8.15722 16.5639 9.19476 17.5313 9.19476 18.9201C9.19476 19.612 8.87819 20.2799 8.34207 20.726ZM10.5354 21.2685H9.61827V16.5624H10.5354V21.2685ZM12.5099 21.3833C11.8123 21.3833 11.3052 21.1078 10.8817 20.4867L11.4752 19.9151C11.6856 20.3238 12.0397 20.5433 12.4766 20.5433C12.886 20.5433 13.1891 20.26 13.1891 19.879C13.1891 19.6814 13.0977 19.5114 12.9136 19.3918C12.8215 19.3351 12.6388 19.2508 12.279 19.124C11.4171 18.8138 11.1225 18.4817 11.1225 17.8337C11.1225 17.0638 11.7557 16.4859 12.5885 16.4859C13.1041 16.4859 13.5758 16.6623 13.9717 17.0072L13.4915 17.6368C13.2521 17.3684 13.0255 17.2551 12.7514 17.2551C12.3555 17.2551 12.0666 17.4803 12.0666 17.777C12.0666 18.0299 12.2288 18.1658 12.7805 18.3691C13.8229 18.7501 14.1331 19.0886 14.1331 19.8358C14.1331 20.748 13.4639 21.3811 12.5099 21.3833ZM39.2812 32.2473H14.3031C30.4603 29.4612 39.2812 23.2367 39.2812 23.2367V32.2473Z" fill="#7A809A"/>
<path d="M7.74094 17.7416C7.43853 17.4675 7.07876 17.3606 6.48669 17.3606H6.24023V20.4725H6.48669C7.07805 20.4725 7.45341 20.3585 7.74094 20.0986C8.05893 19.816 8.25015 19.3648 8.25015 18.913C8.25015 18.4619 8.05893 18.0242 7.74094 17.7416Z" fill="#7A809A"/>
<path d="M32.4237 17.3032H32.1426V18.7282H32.4096C32.996 18.7282 33.3062 18.4739 33.3062 18.0001C33.3062 17.5433 32.996 17.3032 32.4237 17.3032Z" fill="#7A809A"/>
</svg>
