<?xml version="1.0" encoding="utf-8"?>
<svg id="master-artboard" viewBox="0 0 816.8912353515625 985.2849731445312" version="1.1" xmlns="http://www.w3.org/2000/svg" x="0px" y="0px" style="enable-background:new 0 0 1400 980;" width="816.8912353515625px" height="985.2849731445312px"><rect id="ee-background" x="0" y="0" width="816.8912353515625" height="985.2849731445312" style="fill: white; fill-opacity: 0; pointer-events: none;"/><defs><clipPath id="clip0">
<path d="M 0 0 H 331 V 338 H 0 V 0 Z" fill="white"/>
</clipPath></defs><g transform="matrix(2.8994083404541016, 0, 0, 2.8994083404541016, 1.2622908061835005, 0.8808324050194614)"><g clip-path="url(#clip0)">
<path d="M100.314 236.058C98.3233 235.304 95.165 235.509 93.1739 236.333C86.7201 239.214 83.0126 244.428 79.717 249.847C69.6243 252.248 70.2422 262.401 63.1018 266.929C62.2779 267.409 62.3465 268.918 62.0032 270.016C61.1107 273.103 64.1316 276.945 67.7705 277.356C76.3527 278.317 82.8066 274.749 85.4156 265.42C86.9261 260 88.7798 256.639 95.0964 254.512C101.55 252.317 104.091 247.034 104.434 240.037C103.473 239.008 102.237 236.744 100.314 236.058Z" fill="#F7D3E2"/>
<path d="M99.905 280.648C96.4721 281.402 94.0691 283.46 93.7258 286.273C93.0392 292.104 92.9019 298.004 92.5586 303.904C88.7824 303.835 84.8689 303.835 83.7017 307.883C82.7405 311.313 86.2421 315.703 90.7735 316.321C95.0989 316.938 99.699 317.281 103.956 316.595C110.341 315.635 115.01 310.352 115.49 304.864C116.108 297.455 113.499 290.732 109.586 284.352C107.869 281.471 103.475 279.825 99.905 280.648Z" fill="#F7D3E2"/>
<path d="M166.561 309.393C162.51 307.129 156.194 305.963 154.065 308.707C149.74 314.401 141.501 318.585 142.462 326.817C142.462 330.796 142.599 334.707 147.474 336.765C152.28 338.754 158.459 338.068 161.892 335.255C167.179 330.865 170.337 325.308 171.848 319.34C172.878 315.498 170.749 311.725 166.561 309.393Z" fill="#F7D3E2"/>
<path d="M137.934 195.445C136.149 194.896 134.227 194.759 131.137 194.141C129.352 195.376 125.782 196.611 124.958 198.6C123.173 203.197 122.417 208.136 122.006 213.007C121.662 217.466 126.468 221.308 131.755 221.445C140.749 221.719 148.919 216.643 150.293 209.988C151.528 204.226 146.242 197.914 137.934 195.445Z" fill="#F7D3E2"/>
<path d="M94.5448 189.477C92.0731 189.889 89.6701 190.644 87.1297 190.918C79.5773 191.81 76.625 196.475 74.7026 201.894C72.7802 207.382 78.0669 213.145 84.7267 213.076C96.3985 213.076 103.539 207.657 105.255 197.504C106.148 192.359 100.861 188.38 94.5448 189.477Z" fill="#F7D3E2"/>
<path d="M254.935 193.797C243.125 188.241 235.916 193.317 236.191 201.892C236.26 202.99 235.916 204.088 235.779 205.185C235.298 209.301 235.985 213.006 240.585 215.27C247.108 218.494 256.239 216.916 259.535 212.114C265.096 203.95 263.448 197.776 254.935 193.797Z" fill="#F7D3E2"/>
<path d="M100.108 20.3723C87.8866 17.0108 79.579 21.6071 78.3431 32.1718C78.2745 32.7206 78.3431 33.2694 78.3431 33.8182C78.3431 33.8182 78.3431 33.8182 78.4118 33.8182C78.4118 34.367 78.3431 34.9158 78.4118 35.4646C78.7551 38.9633 80.1969 42.0504 84.1104 43.4224C87.9553 44.7945 91.4568 43.6968 94.6837 41.3644C100.52 37.1797 102.648 31.5543 103.747 25.4488C104.227 23.1164 102.785 21.0583 100.108 20.3723Z" fill="#F7D3E2"/>
<path d="M242.506 256.776C237.494 253.072 231.933 252.317 226.646 254.649C221.36 256.913 220.33 261.167 219.849 265.626C219.231 274.338 226.372 279.072 235.847 275.71C239.142 274.544 242.369 272.28 244.566 269.879C248.548 265.42 247.45 260.412 242.506 256.776Z" fill="#F7D3E2"/>
<path d="M233.786 300.267C231.039 298.209 227.538 298.758 224.998 300.679C221.153 303.492 217.445 306.579 214.15 309.94C211.129 313.027 211.953 319.064 215.248 322.151C217.994 324.69 223.693 325.238 227.675 323.318C235.09 319.75 238.043 313.919 238.935 305.893C237.493 304.315 235.983 301.914 233.786 300.267Z" fill="#F7D3E2"/>
<path d="M41.7504 110.515C39.8966 109.623 37.1503 109.897 34.8159 109.76C34.198 109.692 33.5801 109.966 31.6576 110.309C31.0397 110.309 29.0486 110.172 27.1949 110.378C24.6545 110.652 22.0455 110.858 19.7112 111.612C14.4931 113.396 11.7468 120.119 14.2872 124.235C16.9648 128.557 22.6634 130.752 27.2635 128.488C32.2069 126.087 36.807 123 41.1324 119.776C43.6041 117.786 43.9474 111.681 41.7504 110.515Z" fill="#F7D3E2"/>
<path d="M205.628 0.616378C200.548 -1.03006 194.849 0.822182 190.592 5.55569C187.297 9.19158 186.335 13.5821 188.327 16.2575C188.67 16.7377 189.013 17.218 189.494 17.561C193.545 20.991 200.273 22.0201 205.56 19.7562C210.503 17.6296 213.455 14.1995 213.524 9.19158C213.524 5.62429 210.16 2.05701 205.628 0.616378Z" fill="#F7D3E2"/>
<path d="M149.27 237.36C143.159 238.526 137.186 240.447 131.419 242.642C126.544 244.494 126.544 251.08 131.35 253.481C134.508 255.059 138.216 255.882 140.138 256.568C150.025 256.157 154.694 252.315 157.097 245.935C158.882 241.339 154.694 236.262 149.27 237.36Z" fill="#F7D3E2"/>
<path d="M219.164 103.517C212.298 102.9 209.346 104.135 207.355 109.348C206.325 111.887 205.707 114.631 205.57 117.306C205.364 120.874 207.63 123.48 211.406 125.058C215.182 126.636 218.615 126.43 222.185 124.441C226.922 121.697 228.502 117.786 228.708 113.19C229.394 106.879 226.785 104.272 219.164 103.517Z" fill="#F7D3E2"/>
<path d="M182.841 202.167C178.859 206.283 175.22 210.81 172.473 215.613C170.688 218.768 173.16 221.855 176.181 224.119C178.515 225.903 182.223 225.766 184.763 223.639C188.333 220.62 191.972 217.533 195.062 214.103C196.504 212.525 196.847 210.193 198.014 207.38C195.817 205.528 193.963 203.401 191.629 201.961C188.814 200.246 184.9 200.04 182.841 202.167Z" fill="#F7D3E2"/>
<path d="M140.684 36.9074C135.466 36.5644 131.896 40.5433 131.484 47.3348C131.415 48.4325 131.346 49.5301 131.552 50.6277C132.17 54.3322 137.732 58.8599 141.988 59.2715C142.606 59.2029 143.293 59.2029 143.911 59.1343C150.159 58.0367 155.239 51.9997 154.072 46.9232C152.836 41.5723 147.206 37.3876 140.684 36.9074Z" fill="#F7D3E2"/>
<path d="M244.214 12.6916C238.378 12.5544 233.023 17.0135 233.229 21.8842C233.435 27.6468 239.751 32.9291 246.96 33.3407C252.041 33.6151 257.671 28.6758 257.945 23.8051C258.22 18.1797 251.629 12.8288 244.214 12.6916Z" fill="#F7D3E2"/>
<path d="M184.551 31.3502C180.569 30.3897 176.381 32.6536 174.527 37.1127C173.428 39.7196 172.536 42.3264 171.781 45.0019C170.682 49.0494 174.184 52.6853 179.058 52.7539C187.091 52.7539 193.682 47.3343 193.957 40.4742C194.163 36.4267 190.318 32.7222 184.551 31.3502Z" fill="#F7D3E2"/>
<path d="M20.7369 189.956C17.304 187.555 13.3219 187.144 10.3696 189.682C6.86802 192.7 3.70975 196.13 0.620144 199.56C0.00222219 200.315 0.208196 201.687 0.00222217 202.716C-0.135094 206.078 5.22023 210.262 9.13373 209.508C16.3428 208.067 22.0414 205.049 24.3758 198.463C25.4743 195.239 24.4445 192.563 20.7369 189.956Z" fill="#F7D3E2"/>
<path d="M130.727 153.597C121.802 152.637 116.79 156.547 116.034 166.494C116.584 167.66 116.996 170.61 118.918 172.394C121.939 175.207 125.99 174.04 129.423 172.325C132.1 170.953 134.915 169.444 136.975 167.455C139.721 164.779 139.721 161.418 138.074 158.193C136.632 155.449 134.091 154.009 130.727 153.597Z" fill="#F7D3E2"/>
<path d="M59.7365 142.415C53.4886 143.101 49.7124 146.805 47.9273 151.882C45.8676 157.781 52.1841 164.916 60.5604 164.161C62.2082 162.995 65.7097 161.349 67.6321 158.879C71.2024 154.283 69.6919 149.343 66.053 145.227C64.6798 143.718 61.7276 142.209 59.7365 142.415Z" fill="#F7D3E2"/>
<path d="M131.141 265.008C125.992 266.449 122.009 269.056 121.048 273.858C120.156 278.454 121.735 282.57 126.06 285.589C126.953 286.206 128.326 286.412 129.493 286.823C130.729 286.618 132.102 286.618 133.132 286.137C139.38 283.119 142.744 274.955 140.341 269.056C139.105 265.968 134.711 264.048 131.141 265.008Z" fill="#F7D3E2"/>
<path d="M241.954 48.6374C235.363 48.9804 231.244 53.5767 231.518 60.4368C231.724 65.9936 236.393 70.1097 242.297 69.9725C248.408 69.8353 252.734 64.8273 252.665 58.1044C252.665 52.4104 247.996 48.363 241.954 48.6374Z" fill="#F7D3E2"/>
<path d="M69.4865 95.0123C68.8685 98.6482 70.7223 102.421 73.7433 103.519C78.412 105.234 85.9644 104.205 87.8868 101.186C89.9465 97.825 91.251 94.1205 93.2421 89.8672C90.7018 87.9464 88.7794 85.2709 86.239 84.7221C78.7553 82.9385 70.7223 88.2894 69.4865 95.0123Z" fill="#F7D3E2"/>
<path d="M196.018 157.99C190.32 157.852 186.475 160.665 185.788 165.536C185.582 167.114 185.514 168.76 185.376 170.132C185.514 171.504 185.17 172.807 185.788 173.562C187.367 175.757 188.946 178.227 191.349 179.599C194.302 181.245 197.323 179.668 199.863 177.815C203.983 174.797 205.836 171.024 205.562 166.29C205.15 161.488 201.511 158.127 196.018 157.99Z" fill="#F7D3E2"/>
<path d="M176.665 278.384C175.704 277.835 174.331 277.766 173.164 277.492C171.996 277.766 170.211 277.698 169.662 278.315C165.886 282.637 162.728 287.302 162.865 292.996C162.934 297.318 169.044 300.542 173.85 299.101C178.313 297.729 181.609 295.465 182.295 291.212C183.119 286.067 182.226 281.471 176.665 278.384Z" fill="#F7D3E2"/>
<path d="M206.047 275.847C195.68 277.219 189.775 286.412 194.581 294.232C195.611 295.879 198.358 296.702 200.074 297.799C202.614 297.113 204.811 297.045 206.116 296.153C211.952 292.106 214.218 286.617 213.188 280.237C212.844 277.836 208.794 275.504 206.047 275.847Z" fill="#F7D3E2"/>
<path d="M269.554 88.0162C262.413 89.9371 257.676 97.5519 259.873 103.657C261.383 107.842 270.927 110.861 274.016 108.048C277.999 104.343 280.058 99.8843 280.676 95.4938C280.745 91.2405 273.673 86.85 269.554 88.0162Z" fill="#F7D3E2"/>
<path d="M173.506 120.806C167.189 119.434 161.834 121.766 159.912 126.843C159.363 128.352 159.019 130.067 159.088 131.645C159.294 135.898 164.1 139.877 169.043 140.014C173.3 140.151 177.282 137.339 178.449 133.223C178.724 132.194 178.861 131.096 179.067 129.998C179.548 124.99 177.488 121.629 173.506 120.806Z" fill="#F7D3E2"/>
<path d="M211.394 236.194C207 239.898 205.627 244.838 208.717 247.856C210.296 249.365 212.63 250.806 214.896 251.217C222.311 252.384 227.666 247.856 228.078 239.281C227.529 238.32 226.911 236.057 225.263 234.684C222.174 231.94 215.171 232.969 211.394 236.194Z" fill="#F7D3E2"/>
<path d="M55.4073 231.803C49.3654 231.46 41.9503 234.821 39.4786 239.417C38.1054 242.093 38.3801 244.905 40.7145 247.169C41.8816 248.335 43.8041 248.953 45.0399 249.639C51.0818 249.159 58.9088 243.122 60.5566 237.977C61.2432 235.919 58.0163 232.008 55.4073 231.803Z" fill="#F7D3E2"/>
<path d="M85.0714 121.836C78.8922 123.482 77.1757 125.609 77.0384 132.881C77.1757 133.635 77.1757 135.899 77.8623 137.957C78.8235 140.77 81.2952 142.554 84.6594 142.965C88.2983 143.377 91.1819 141.387 92.0058 138.781C93.2417 134.665 93.5849 130.274 93.5849 125.952C93.5163 122.522 89.2595 120.738 85.0714 121.836Z" fill="#F7D3E2"/>
<path d="M62.5522 175.686C59.6686 173.56 54.3132 173.354 52.0475 175.892C49.3699 178.842 47.4475 182.272 44.9758 185.771C46.8982 188.103 47.9281 190.367 49.8505 191.328C51.7729 192.288 55.5491 192.768 56.8536 191.808C60.1492 189.407 63.1015 186.32 65.0925 183.095C66.7403 180.557 65.2299 177.676 62.5522 175.686Z" fill="#F7D3E2"/>
<path d="M245.46 152.981C242.439 153.324 239.212 154.216 236.672 155.588C233.033 157.577 231.729 162.379 233.994 165.878C235.368 168.005 238.183 169.377 240.654 171.435C244.087 169.857 247.177 169.102 249.305 167.387C251.022 166.015 251.846 163.683 252.738 161.625C254.798 156.823 251.228 152.363 245.46 152.981Z" fill="#F7D3E2"/>
<path d="M142.466 3.77258C138.209 3.29237 135.051 5.07601 133.06 8.02588C131.481 10.2897 130.313 12.8966 129.558 15.5035C128.872 17.9045 132.373 22.5694 134.914 23.5298C138.484 24.9019 144.251 22.8438 145.899 19.2765C146.997 16.8069 147.478 14.1314 147.753 12.9652C147.753 7.27127 145.624 4.11559 142.466 3.77258Z" fill="#F7D3E2"/>
<path d="M115.621 123.826C112.051 127.531 108.892 131.509 105.734 135.488C104.635 136.86 106.833 140.153 108.892 140.565C117.749 142.348 126.949 135.9 126.606 126.707C125.164 125.678 123.104 123.689 120.564 122.66C119.397 122.111 116.582 122.866 115.621 123.826Z" fill="#F7D3E2"/>
<path d="M42.7761 277.013C36.9402 277.219 31.5849 282.981 32.0655 288.538C32.3401 291.419 36.5969 294.712 39.9611 294.575C45.8657 294.369 50.3285 290.185 50.3285 284.834C50.3285 280.375 46.9642 276.876 42.7761 277.013Z" fill="#F7D3E2"/>
<path d="M117.885 63.6623C111.912 63.5251 106.42 66.2692 105.802 69.7679C104.978 74.0898 109.097 79.5093 113.354 79.7151C119.121 79.9895 123.378 76.3536 124.271 70.4539C124.751 66.9552 121.73 63.7995 117.885 63.6623Z" fill="#F7D3E2"/>
<path d="M52.1127 55.3605C46.9633 55.3605 42.3633 59.065 41.814 63.5927C41.3334 67.7088 44.7663 71.0016 49.7783 71.0702C56.4381 71.2074 61.4502 67.503 61.3129 62.4264C61.2442 58.9964 56.5068 55.3605 52.1127 55.3605Z" fill="#F7D3E2"/>
<path d="M200.55 69.2194C198.147 72.3065 198.215 75.8738 200.893 78.2748C203.365 80.5387 206.523 80.7445 209.681 79.9213C214.144 78.6864 217.645 76.4912 218.95 71.2089C216.822 69.3566 214.624 66.6812 211.672 65.0347C208.377 63.1825 203.708 65.2405 200.55 69.2194Z" fill="#F7D3E2"/>
<path d="M143.222 94.6017C136.15 96.2482 131.207 100.09 128.735 106.127C127.843 108.253 131.55 112.232 134.022 111.958C141.3 111.135 147.547 106.058 148.097 99.9527C147.685 98.9922 147.204 97.4144 146.243 96.111C145.625 95.2877 144.046 94.3959 143.222 94.6017Z" fill="#F7D3E2"/>
<path d="M171.859 75.255C168.014 74.9119 163.139 78.2734 162.384 81.8407C161.354 86.8486 164.512 90.7589 169.936 91.0333C175.017 91.3077 179.274 87.9462 179.892 83.0755C180.372 80.0571 175.772 75.598 171.859 75.255Z" fill="#F7D3E2"/>
</g></g></svg>