<svg width="36" height="36" viewBox="0 0 36 36" fill="none" xmlns="http://www.w3.org/2000/svg">
<path d="M21.5273 32.7531C20.3923 33.0241 19.2133 33.1841 17.9963 33.1841C16.6223 33.1841 15.2982 32.9851 14.0312 32.6411L14.2092 35.5901C15.4322 35.8521 16.6973 35.9921 17.9963 35.9921C19.1423 35.9921 20.2643 35.8811 21.3503 35.6761L21.5273 32.7531Z" fill="#2D73F6"/>
<path d="M17.996 0C8.057 0 0 8.058 0 17.996C0 25.317 4.375 31.613 10.649 34.424L10.833 31.383C6.062 28.819 2.809 23.782 2.809 17.996C2.809 9.622 9.622 2.808 17.997 2.808C26.372 2.808 33.184 9.622 33.184 17.996C33.184 23.945 29.739 29.092 24.745 31.582L24.929 34.607C31.427 31.892 35.993 25.478 35.993 17.996C35.992 8.058 27.935 0 17.996 0Z" fill="#2D73F6"/>
<path d="M21.6226 31.1811L22.1826 21.9521C20.6006 21.3651 19.4356 19.4121 19.4356 17.0861C19.4356 14.2961 21.1096 12.0341 23.1716 12.0341C25.2346 12.0341 26.9076 14.2961 26.9076 17.0861C26.9076 19.4121 25.7436 21.3651 24.1616 21.9521L24.6456 29.9511C28.8376 27.6081 31.6826 23.1321 31.6826 17.9971C31.6826 10.4501 25.5416 4.30908 17.9946 4.30908C10.4476 4.30908 4.30859 10.4491 4.30859 17.9961C4.30859 22.9591 6.97159 27.3001 10.9356 29.7001L11.4126 21.8301H10.6736C9.79659 21.8301 9.08459 21.1191 9.08459 20.2411V13.6211C9.08459 12.8131 9.69059 12.1531 10.4716 12.0531V17.6361H11.5886V12.0331H13.2006V17.6361H14.3176V12.0531C15.0976 12.1541 15.7056 12.8141 15.7056 13.6211V20.2411C15.7056 21.1191 14.9926 21.8301 14.1156 21.8301H13.3756L13.9356 31.0691C15.2186 31.4681 16.5816 31.6831 17.9966 31.6831C19.2526 31.6841 20.4656 31.5001 21.6226 31.1811Z" fill="#2D73F6"/>
</svg>
