<svg width="24" height="32" viewBox="0 0 24 32" fill="none" xmlns="http://www.w3.org/2000/svg">
<path d="M23.7645 19.4722C23.3108 14.3773 20.9029 12.6325 20.9029 12.6325C21.1472 19.4722 15.4591 22.892 13.5049 21.6009C10.7481 19.7863 13.5049 16.9248 13.5049 16.9248C16.0523 13.819 16.7154 12.5278 16.855 9.45692C17.0643 3.8735 11.2017 0 11.2017 0C11.2017 5.40894 8.47983 7.18866 6.49073 9.07306C6.17666 9.35224 4.36205 10.9226 4.25736 10.9924L4.22247 11.0273C1.64013 13.1908 0 16.4711 0 20.1003C0 22.6827 0.802617 25.0556 2.19847 26.9749C2.19847 26.9749 2.37296 27.2192 2.68702 27.6031C3.59433 28.7197 4.71101 29.6619 5.96729 30.3599C7.43293 31.3021 9.35224 32 11.7252 32C11.7601 32 11.8299 32 11.8648 32C11.9346 32 12.0044 32 12.0742 32C12.1091 32 12.1439 32 12.1788 32C12.5627 32 12.9466 31.9651 13.2955 31.9302L13.3304 31.8953C13.5398 31.8604 13.7841 31.8255 13.9935 31.7906C14.0284 31.7906 14.0633 31.8255 14.0981 31.7906C14.7612 31.651 15.3544 31.4766 15.9826 31.2672C16.0175 31.2672 16.0523 31.2323 16.0872 31.2323C19.5071 29.9062 22.1592 27.0796 23.241 23.5551C23.5551 22.4733 23.7296 21.3217 23.7296 20.1352C23.7645 19.891 23.7645 19.6816 23.7645 19.4722Z" fill="#2D73F6"/>
</svg>
