<svg width="44" height="20" viewBox="0 0 44 20" fill="none" xmlns="http://www.w3.org/2000/svg">
<path fill-rule="evenodd" clip-rule="evenodd" d="M0.833984 4.25608C0.833984 2.48071 2.2807 1.04126 4.06438 1.04126H39.2702C41.0547 1.04126 42.5006 2.48071 42.5006 4.25608V15.7447C42.5006 17.519 41.0547 18.9587 39.2702 18.9587H4.06438C2.2807 18.9587 0.833984 17.519 0.833984 15.7447V4.25608Z" fill="#000268"/>
<path fill-rule="evenodd" clip-rule="evenodd" d="M2.15918 4.36627V15.6359C2.15918 16.7451 3.06346 17.6448 4.17891 17.6448H22.6236V2.35742H4.17891C3.06346 2.35742 2.15918 3.25704 2.15918 4.36627ZM27.3893 9.94481C27.3893 10.6623 27.0345 11.1555 26.4469 11.1555C25.9278 11.1555 25.4951 10.6623 25.4951 10.0052C25.4951 9.33079 25.8757 8.82936 26.4469 8.82936C27.0526 8.82936 27.3893 9.34817 27.3893 9.94481ZM23.9395 14.06H25.4951V11.613H25.5125C25.8072 12.1492 26.3955 12.3479 26.94 12.3479C28.2799 12.3479 28.9974 11.2416 28.9974 9.91004C28.9974 8.82105 28.3146 7.63582 27.0692 7.63582C26.3608 7.63582 25.7037 7.92144 25.3916 8.55282H25.3743V7.74037H23.9395V14.06ZM31.1222 10.8177C31.1222 10.3858 31.5367 10.2221 32.0649 10.2221C32.2981 10.2221 32.5232 10.2385 32.7219 10.2478C32.7219 10.7749 32.3502 11.3111 31.7619 11.3111C31.3987 11.3111 31.1222 11.1298 31.1222 10.8177ZM34.2602 12.2444C34.1915 11.8904 34.1741 11.5352 34.1741 11.1811V9.50381C34.1741 8.12922 33.1803 7.63582 32.0301 7.63582C31.3647 7.63582 30.7855 7.73102 30.2319 7.95619L30.2584 9.01145C30.6892 8.7689 31.1917 8.6737 31.6931 8.6737C32.2542 8.6737 32.7126 8.83844 32.7219 9.45246C32.5232 9.41769 32.2459 9.39122 31.9953 9.39122C31.166 9.39122 29.67 9.55595 29.67 10.9303C29.67 11.9077 30.4651 12.3479 31.3556 12.3479C31.9953 12.3479 32.428 12.0981 32.7824 11.5352H32.7998C32.7998 11.7695 32.8252 12.0019 32.8345 12.2444H34.2602ZM34.9603 14.06C35.2804 14.1296 35.6 14.1646 35.9284 14.1646C37.3552 14.1646 37.6919 13.0662 38.1329 11.9334L39.7848 7.74037H38.2281L37.303 10.6797H37.2857L36.3173 7.74037H34.6408L36.4646 12.3479C36.3521 12.7459 36.0584 12.971 35.6776 12.971C35.4607 12.971 35.2714 12.9446 35.0636 12.8758L34.9603 14.06Z" fill="white"/>
<path fill-rule="evenodd" clip-rule="evenodd" d="M5.96034 9.95381C5.96034 9.33979 6.26332 8.82927 6.84257 8.82927C7.54272 8.82927 7.83637 9.39114 7.83637 9.89257C7.83637 10.5844 7.39537 11.0511 6.84257 11.0511C6.37591 11.0511 5.96034 10.6539 5.96034 9.95381ZM9.34092 7.74029H7.93157V8.55274H7.91522C7.58577 7.99917 7.04932 7.63574 6.38421 7.63574C4.98392 7.63574 4.35254 8.63964 4.35254 9.97947C4.35254 11.311 5.12219 12.2444 6.35749 12.2444C6.98084 12.2444 7.49966 12.0018 7.87112 11.4747H7.88851V11.7172C7.88851 12.5987 7.40446 13.0223 6.50587 13.0223C5.85709 13.0223 5.45891 12.8841 4.98392 12.6509L4.90611 13.8789C5.26851 14.0088 5.88252 14.1645 6.62676 14.1645C8.44234 14.1645 9.34092 13.5676 9.34092 11.7172V7.74029ZM11.971 5.86426H10.4146V7.00539H11.971V5.86426ZM10.4154 12.2444H11.971V7.74029H10.4154V12.2444ZM16.3042 7.68789C16.1485 7.66246 15.9581 7.63574 15.7771 7.63574C15.1026 7.63574 14.7138 7.99917 14.4455 8.57012H14.4281V7.74029H13.0105V12.2444H14.5664V10.3429C14.5664 9.46067 14.9734 8.93356 15.6992 8.93356C15.8813 8.93356 16.0533 8.93356 16.2264 8.98466L16.3042 7.68789ZM18.9836 11.2589C18.2661 11.2589 17.9724 10.6622 17.9724 9.99686C17.9724 9.32241 18.2661 8.72577 18.9836 8.72577C19.7019 8.72577 19.9958 9.32241 19.9958 9.99686C19.9958 10.6622 19.7019 11.2589 18.9836 11.2589ZM18.9836 12.3479C20.4708 12.3479 21.6036 11.484 21.6036 9.99686C21.6036 8.50061 20.4708 7.63574 18.9836 7.63574C17.4967 7.63574 16.3646 8.50061 16.3646 9.99686C16.3646 11.484 17.4967 12.3479 18.9836 12.3479Z" fill="#FF0007"/>
</svg>
