<svg width="52" height="52" viewBox="0 0 52 52" fill="none" xmlns="http://www.w3.org/2000/svg">
<g clip-path="url(#clip0gym)">
<path d="M26.2673 41.0829C27.8988 42.7165 27.8887 45.3445 26.2673 46.9659L22.5984 50.6348C20.9906 52.2467 18.3478 52.267 16.7155 50.6348L1.36499 35.2842C-0.256276 33.6619 -0.256276 31.0226 1.36499 29.4013L5.03389 25.7324C6.65525 24.1109 9.28328 24.101 10.9168 25.7324L26.2673 41.0829ZM1.98344 39.2822C1.60812 38.9069 0.984161 38.9758 0.694434 39.4206C-0.456464 41.187 -0.101534 43.3165 1.21731 44.6355L7.36438 50.7825C8.67179 52.0899 10.7997 52.4661 12.5786 51.306C13.0235 51.0159 13.0933 50.3921 12.7178 50.0165L1.98344 39.2822ZM28.7902 17.545C28.1403 16.8961 27.0868 16.8961 26.4368 17.545L17.5454 26.4365C16.8954 27.0864 16.8954 28.1399 17.5454 28.7898L23.2099 34.4544C23.8577 35.1021 24.9111 35.1044 25.5633 34.4544L34.4548 25.5629C35.1047 24.9129 35.1047 23.8595 34.4548 23.2095L28.7902 17.545ZM50.0187 12.7153C50.3943 13.0909 51.0184 13.0209 51.3084 12.5759C52.4675 10.7965 52.0868 8.66808 50.7828 7.364L44.6357 1.21693C43.3201 -0.0977616 41.192 -0.460076 39.4233 0.691863C38.9784 0.98159 38.9091 1.60566 39.2845 1.98107L50.0187 12.7153ZM35.2846 1.3646C33.6623 -0.256664 31.023 -0.257704 29.4017 1.3646L25.7328 5.0335C24.1114 6.65476 24.1013 9.28279 25.7328 10.9164L41.0833 26.2669C42.7184 27.9 45.3466 27.8866 46.9662 26.2669L50.6351 22.598C52.2564 20.9768 52.2564 18.3374 50.6351 16.7151L35.2846 1.3646Z" fill="url(#paint0_lineargym)"/>
</g>
<defs>
<linearGradient id="paint0_lineargym" x1="22.2856" y1="30.6427" x2="25.9999" y2="79.3927" gradientUnits="userSpaceOnUse">
<stop stop-color="#2D73F6"/>
<stop offset="1" stop-color="#2D73F6" stop-opacity="0"/>
</linearGradient>
<clipPath id="clip0gym">
<rect width="52" height="52" fill="white"/>
</clipPath>
</defs>
</svg>
