<svg width="30" height="34" viewBox="0 0 30 34" fill="none" xmlns="http://www.w3.org/2000/svg">
<path d="M26.1587 17.7323C23.769 17.8928 22.6261 20.0401 22.6261 20.0401C22.6261 20.0401 23.7456 20.4951 24.2305 21.3215C24.8016 22.2945 24.5882 23.7803 24.5882 23.7803C24.5882 23.7803 23.9248 21.8237 22.7873 21.0557C21.4948 20.1832 19.9329 19.9904 18.9552 19.9363C16.4617 19.7975 14.4769 20.2662 13.241 20.9753C10.886 22.3259 9.22358 25.3735 9.22358 25.3735C9.22358 25.3735 9.08513 24.3691 9.36203 23.9537C10.1238 22.8108 11.2667 21.4949 11.2667 21.4949C11.2667 21.4949 11.0356 18.4116 10.5507 17.6844C10.0658 16.9572 7.77999 14.0022 7.77999 13.067C7.77999 12.1318 8.30169 7.13725 7.84922 6.891C5.33845 5.52313 7.01782 5.22893 7.01782 5.22893C7.01782 5.22893 8.26455 7.04171 8.61103 7.11093C8.95714 7.18015 10.0308 6.72985 10.4119 6.69559C10.793 6.66098 12.4785 7.20359 12.7208 6.9267C12.9631 6.64981 13.4022 6.32641 13.506 6.32641C13.6099 6.32641 13.7018 5.63382 13.4595 5.49537C13.2172 5.35692 14.5105 3.95588 14.5678 3.55605C14.6716 2.82885 11.7398 0.866449 11.0126 0.277334C10.2854 -0.311421 9.85776 0.185037 9.07324 0.41578C8.20687 0.670678 5.47148 1.66251 5.47148 1.66251C4.43278 2.23901 4.17824 2.3551 3.25527 5.26535C2.93728 6.26908 1.40788 17.3638 1.13063 18.3795C0.853379 19.3947 -0.162611 23.5514 0.0223437 25.3057C0.207299 27.0601 1.31559 28.5379 1.59248 29.3693C1.86973 30.2004 1.77635 31.8621 1.96167 32.3243C2.14662 32.7861 4.17788 32.9707 5.56342 32.6935C6.94896 32.4162 12.5823 34.171 15.6296 33.9864C18.0181 33.8414 24.944 32.1794 27.8316 31.6814C28.6287 31.5444 29.1244 31.9547 29.1244 31.9547L29.1129 18.4714C29.1136 18.4711 27.268 17.6577 26.1587 17.7323ZM5.14844 20.6873C5.05615 21.9798 5.70259 24.9355 5.70259 24.9355C5.70259 24.9355 4.68696 23.2727 4.5943 20.9638C4.50164 18.6557 5.3334 16.716 5.3334 16.716C5.3334 16.716 5.3334 17.547 5.61065 17.9166C5.8879 18.2857 5.2411 19.3944 5.14844 20.6873ZM17.2931 27.9358C14.3839 28.0285 12.4908 25.6735 12.4908 25.6735C12.4908 25.6735 15.6775 27.0129 17.5242 26.7356C19.3709 26.4584 21.6797 25.7661 21.6797 25.7661C21.6797 25.7661 20.2019 27.8432 17.2931 27.9358Z" fill="#2D73F6"/>
</svg>
