<svg width="28" height="32" viewBox="0 0 28 32" fill="none" xmlns="http://www.w3.org/2000/svg">
<path d="M25.4632 15.9688C24.6097 14.5819 24.7519 12.128 24.8231 11.2745C24.8231 11.0966 24.8586 10.8833 24.8231 10.6699C24.1829 -0.603697 12.6248 -0.0702466 11.1667 0.0364435C11.06 0.0364435 11.0245 0.0364435 11.0245 0.0364435C6.25899 0.143134 0.924485 3.45053 0.106528 9.42517C-0.711429 15.3998 3.44948 20.7699 3.44948 20.7699C6.01005 26.3533 2.73822 31.9368 2.73822 31.9368H15.6122C15.6122 31.9368 15.541 32.5058 15.8255 30.2297C16.11 27.9537 18.635 27.9537 21.5512 28.416C24.4674 28.9139 25.2143 27.9537 25.5699 27.5269C25.9255 27.1002 25.4988 25.2509 25.4988 25.2509C25.4988 25.2509 25.9967 24.6819 26.21 24.1484C26.459 23.615 25.9255 23.1171 25.9255 23.1171L26.3523 22.3702C26.459 22.1924 26.459 21.9435 26.3167 21.7657C25.9611 21.3745 25.7477 20.5921 25.7477 20.5921C25.7477 20.5921 27.2414 19.454 27.4903 18.9562C27.7393 18.4583 26.3523 17.4625 25.4632 15.9688ZM21.5512 6.79348C20.9822 6.61566 19.9864 6.43785 19.2752 6.90017C18.7062 6.50898 18.315 6.08221 18.1372 5.86883C18.1727 5.79771 18.2083 5.69102 18.2438 5.61989C18.3505 5.37095 18.5283 5.01531 18.5995 4.94419C18.9195 4.87306 19.5953 4.76637 19.9153 4.73081C20.6977 5.33538 21.2312 6.04665 21.5512 6.79348ZM7.11251 18.0671C5.4766 17.5336 5.26322 15.8266 5.26322 15.8266C6.22343 16.1111 9.45969 15.3287 9.45969 15.3287L10.74 16.0755C10.4199 16.8579 8.74842 18.6005 7.11251 18.0671ZM11.5935 12.5903C11.4868 12.4481 11.2734 12.4481 11.1312 12.5903C11.1312 12.5903 10.74 12.9815 10.171 13.2304C9.88645 13.3727 9.56638 13.4794 9.24631 13.515C9.0685 13.515 8.92624 13.6928 8.9618 13.8706C8.9618 14.0484 9.10406 14.1551 9.28188 14.1551C9.28188 14.1551 9.28187 14.1551 9.31744 14.1551C9.60194 14.1195 9.88645 14.0484 10.171 13.9773C10.2776 14.2618 10.3132 14.5107 10.3132 14.6174C10.3132 14.6174 10.3132 14.6174 10.3132 14.653C9.53082 14.7241 8.60617 14.9019 7.71709 15.0442C7.85934 14.5463 8.14385 13.7283 8.71286 13.2304C9.0685 12.9104 9.21075 12.5547 9.24631 12.1991C9.85089 12.1635 11.2023 12.0569 12.1625 12.2347C13.0872 12.3769 13.4428 12.2347 13.6562 12.128C13.7984 12.2347 14.0118 12.5903 14.0474 12.7326C14.0118 12.7681 13.9407 12.8393 13.834 12.8748C13.0516 13.4794 12.2692 14.084 12.1269 14.653C12.0203 14.653 11.9491 14.6174 11.878 14.6174C11.6291 14.5819 11.3446 14.5463 10.9889 14.5819C10.9889 14.2974 10.9178 13.9773 10.8111 13.6928C11.309 13.4083 11.6291 13.0882 11.6646 13.0526C11.7357 12.9459 11.7357 12.7326 11.5935 12.5903ZM12.7315 16.7157L11.878 18.9206C11.7713 19.134 11.5579 19.3118 11.309 19.3118C10.9889 19.3118 10.7044 19.0273 10.7044 18.7072V18.4583L9.42413 18.1382C10.5266 17.6047 11.2379 16.4667 11.2379 16.4667L12.7315 15.9688V16.7157ZM11.5579 15.8621L10.1354 15.0797C10.5266 15.0086 10.6333 14.9731 11.3446 15.0797C12.0558 15.1864 13.265 15.0797 13.265 15.0797L11.5579 15.8621ZM12.7671 14.653C12.8738 14.4396 13.2294 14.084 14.1541 13.3727C14.1896 13.3727 14.1896 13.3371 14.1896 13.3371C14.5097 13.5861 14.972 13.8706 15.5055 13.9417C14.7231 14.3329 13.6206 14.5819 12.7671 14.653ZM16.5368 13.1949C15.6477 13.5505 14.9365 13.0882 14.6164 12.8393C14.6164 12.7681 14.6164 12.7326 14.6164 12.6614C14.5808 12.1991 14.1185 11.6657 13.8695 11.5234C13.6562 11.4167 13.4784 11.4878 13.3361 11.5234C13.1938 11.5945 12.9449 11.7012 12.1981 11.559C11.1312 11.3812 9.70864 11.4878 9.10406 11.5234C8.99737 11.2033 8.81955 10.9188 8.6773 10.741C8.57061 10.5988 8.35723 10.5988 8.21497 10.7055C8.07272 10.8121 8.07272 11.0255 8.17941 11.1678C8.21498 11.2033 8.46392 11.5234 8.53505 11.9146C8.57061 12.1636 8.49948 12.4481 8.21497 12.7326C7.39702 13.4794 7.07695 14.6174 6.97026 15.1509C6.11674 15.2576 5.29878 15.3643 4.62308 15.3287C3.16498 15.2576 2.66709 14.2262 2.48927 13.6572C2.9516 13.515 3.55617 13.266 3.94737 12.8748C4.16075 12.6614 4.303 12.4481 4.44526 12.2702C4.58751 12.4836 4.76533 12.697 5.04984 12.8748C5.19209 12.9815 5.40547 12.9104 5.4766 12.7681C5.58329 12.6259 5.51216 12.4125 5.36991 12.3414C4.87202 12.0569 4.83646 11.4878 4.83646 11.4523C4.83646 11.31 4.72977 11.1678 4.55195 11.1322C4.4097 11.0966 4.23188 11.2033 4.19631 11.3456C4.19631 11.3456 4.05406 11.8435 3.48505 12.4125C3.20054 12.697 2.73822 12.9104 2.34702 13.0171C2.31146 12.7326 2.31146 12.2347 2.34702 11.5945L3.34279 11.2745C3.52061 11.2389 3.59174 11.0255 3.55617 10.8833C3.52061 10.7055 3.30723 10.6343 3.16498 10.6699L2.41815 10.8833C2.48927 10.2787 2.59596 9.63855 2.80934 8.92728C2.91603 9.28292 3.05829 9.63855 3.30723 9.8875C3.37836 9.95862 3.44948 9.95862 3.52061 9.95862C3.6273 9.95862 3.69843 9.92306 3.76955 9.85193C3.87624 9.70968 3.87624 9.53186 3.73399 9.38961C3.37836 9.1051 3.30723 8.18045 3.30723 7.54031C3.52061 7.11355 3.73399 6.68679 4.05406 6.26003C4.48082 6.22447 5.19209 6.29559 5.7611 6.72235C5.72554 6.75792 5.68998 6.79348 5.65441 6.82905C4.97871 7.647 4.72977 8.4294 4.6942 8.57165C4.58751 8.82059 4.62308 8.99841 4.65864 9.1051C4.80089 9.4963 5.26322 9.63855 5.7611 9.81637C6.04561 9.92306 6.43681 10.0653 6.50793 10.2076C6.68575 10.5276 6.29455 10.8477 6.25899 10.8833C6.18786 10.9544 6.1523 11.0255 6.1523 11.1322C6.1523 11.2389 6.18786 11.31 6.25899 11.3812C6.29455 11.4167 6.68575 11.8079 6.18786 12.6259C5.61885 13.515 4.51638 13.515 4.40969 13.515C4.37413 13.515 4.40969 13.515 4.40969 13.515C4.23188 13.515 4.08962 13.6572 4.08962 13.835C4.08962 14.0128 4.23188 14.1551 4.40969 14.1551C4.40969 14.1551 4.40969 14.1551 4.44526 14.1551C4.65864 14.1551 6.04561 14.1195 6.75688 12.9459C7.25476 12.1635 7.14807 11.5234 6.89913 11.1322C7.14807 10.8121 7.36145 10.3498 7.04138 9.85193C6.828 9.53186 6.40124 9.35404 5.97448 9.21179C5.7611 9.14066 5.29878 8.96285 5.26322 8.85616C5.26322 8.85616 5.26322 8.85616 5.26322 8.82059V8.78503C5.26322 8.78503 5.51216 8.0382 6.11674 7.25581C7.2192 5.9044 7.78821 6.01109 8.14385 6.26003C8.81955 6.72236 8.64173 7.50475 8.60617 7.50475C8.57061 7.68257 8.64174 7.86038 8.81955 7.89595C8.99737 7.93151 9.17519 7.86038 9.21075 7.68257C9.24631 7.54031 9.28188 7.3625 9.24631 7.11355C9.85089 7.04243 11.1667 6.9713 11.9491 7.50475C11.9847 7.75369 12.0914 8.0382 12.3403 8.25158C12.4115 8.32271 12.4826 8.32271 12.5537 8.32271C12.6248 8.32271 12.7315 8.28714 12.8026 8.21602C12.9093 8.07376 12.9093 7.89595 12.8026 7.75369C12.3759 7.3625 12.7671 6.61566 12.7671 6.61566C12.8382 6.47341 12.8026 6.26003 12.6248 6.1889C12.4826 6.11778 12.2692 6.15334 12.1981 6.33116C12.1981 6.36672 12.0914 6.54454 12.0203 6.79348C11.0245 6.2956 9.67307 6.40229 9.10406 6.47341C8.99737 6.1889 8.78399 5.9044 8.46392 5.69102C7.53927 5.08644 6.68575 5.65545 6.11674 6.1889C5.58329 5.76214 4.97871 5.61989 4.48082 5.54876C5.51216 4.33961 7.07695 3.34384 9.31744 2.91708C9.353 2.91708 9.38857 2.91708 9.45969 2.91708C9.7442 2.95264 10.5977 3.48609 10.7044 3.73503C10.74 3.87729 10.8822 3.94841 11.0245 3.94841C11.06 3.94841 11.0956 3.94841 11.1312 3.91285C11.309 3.84172 11.3801 3.66391 11.309 3.48609C11.2023 3.23715 10.9178 2.95264 10.5622 2.7037C11.3446 2.63257 12.0914 2.56144 12.8026 2.56144C13.0516 2.81039 13.3361 3.16602 13.4428 3.45053C13.5495 3.73503 12.8738 4.4463 12.1625 4.94419C11.9847 4.94419 11.8069 4.94419 11.6646 4.94419C11.309 4.94419 10.9889 4.94419 10.7044 4.90862C10.2776 4.8375 9.99314 4.55299 9.67307 4.23292C9.42413 4.01954 9.17519 3.7706 8.85511 3.59278C8.03716 3.16602 6.65019 4.01954 6.40124 4.19736C6.25899 4.30405 6.22343 4.48186 6.29455 4.65968C6.40124 4.80193 6.57906 4.8375 6.75688 4.76637C7.29033 4.41074 8.21497 3.98398 8.57061 4.19736C8.81955 4.33961 8.99737 4.51743 9.24631 4.73081C9.60195 5.05088 9.99314 5.44207 10.5977 5.54876C10.9178 5.61989 11.309 5.61989 11.6646 5.58433C12.2336 5.58433 12.9093 5.58433 13.1227 5.83327C13.265 6.04665 13.4784 6.43785 13.6562 6.82905C14.0474 7.68257 14.4386 8.50052 15.0076 8.64278C15.0431 8.64278 15.0431 8.64278 15.0787 8.64278C15.221 8.64278 15.3632 8.53609 15.3988 8.39383C15.4343 8.21602 15.3276 8.0382 15.1498 8.00264C15.0787 8.00264 14.972 7.89595 14.9009 7.75369C16.0389 8.07376 17.1414 8.57165 17.2481 8.92728C17.3903 9.35404 16.5724 10.0653 15.9322 10.4209C15.1143 9.95862 14.3319 9.63855 14.2963 9.60299C14.1185 9.53186 13.9407 9.60299 13.8695 9.7808C13.7984 9.95862 13.8695 10.1364 14.0474 10.2076C14.0474 10.2076 15.5055 10.8477 16.4657 11.5234C16.5368 11.7368 16.6079 11.9502 16.6791 12.2702C16.7857 12.697 16.6791 12.9459 16.5368 13.1949ZM17.7815 11.4878C17.6393 11.4878 17.4259 11.4167 17.1769 11.3456C16.9991 11.2033 16.8213 11.0611 16.6079 10.9188C17.2125 10.5276 18.2083 9.70968 17.9238 8.85616C17.6037 7.89595 15.2921 7.29137 14.5097 7.11355C14.4386 6.9713 14.3674 6.79348 14.2963 6.68679C14.0829 6.22447 13.9051 5.83327 13.6917 5.54876C13.5495 5.37095 13.3361 5.22869 13.1227 5.15757C13.4072 4.90862 13.7629 4.58855 13.9762 4.23292C14.2963 4.30405 14.7942 4.33961 15.221 4.33961C15.6122 4.33961 16.0034 4.26848 16.1812 4.12623C16.3234 4.01954 16.3234 3.84172 16.2167 3.69947C16.11 3.55722 15.8967 3.55722 15.7544 3.62834C15.6122 3.73503 14.9009 3.69947 14.1541 3.59278C14.1541 3.48609 14.1541 3.3794 14.0829 3.27271C13.9762 3.05933 13.8695 2.84595 13.6917 2.63257C16.0745 2.73926 17.8882 3.30827 19.1685 4.09067C18.884 4.12623 18.5639 4.19736 18.3861 4.23292C18.066 4.30405 17.8882 4.69524 17.6037 5.29982C17.4614 5.61989 17.1769 6.26003 17.0347 6.33116C16.5368 6.15334 15.6477 5.44207 15.3276 5.19313C15.1854 5.08644 14.972 5.08644 14.8653 5.22869C14.7586 5.37095 14.7586 5.58433 14.9009 5.69102C14.9365 5.72658 16.11 6.68679 16.8213 6.93574C16.8924 6.9713 16.9636 6.9713 17.0347 6.9713C17.3192 6.9713 17.5681 6.75792 17.746 6.43785C18.0305 6.72236 18.4572 7.14912 19.0262 7.54031C19.8086 8.07376 19.7375 9.53186 19.7375 9.53186C19.7375 9.70968 19.8442 9.85193 20.022 9.8875C20.022 9.8875 20.022 9.8875 20.0576 9.8875C20.2354 9.8875 20.3776 9.74524 20.3776 9.60299C20.3776 9.53186 20.4843 8.18045 19.7375 7.32693C20.4132 7.07799 21.3734 7.3625 21.7291 7.54031C21.8002 7.86038 21.8357 8.14489 21.8357 8.46496C21.9424 10.172 19.0974 11.5945 17.7815 11.4878Z" fill="#2D73F6"/>
</svg>
