<svg width="33" height="28" viewBox="0 0 33 28" fill="none" xmlns="http://www.w3.org/2000/svg">
<path fill-rule="evenodd" clip-rule="evenodd" d="M15.9487 27.8415C9.78491 23.3834 5.19556 19.6364 2.55943 16.1559H5.93702L8.60948 17.3804C9.01654 17.5668 9.49425 17.3407 9.60796 16.9074L11.7361 8.8046L13.5265 22.4697C13.6261 23.2334 14.7039 23.3255 14.932 22.5895L17.6354 13.8528L19.337 15.8962C19.4743 16.061 19.6775 16.1559 19.8921 16.1559H27.0449V14.712H20.2299L17.8938 11.907C17.5278 11.4676 16.8186 11.6096 16.6491 12.1553L14.529 19.0073L12.6888 4.96478C12.5866 4.18431 11.4751 4.11366 11.2752 4.8753L8.42984 15.7098L6.39521 14.778C6.30102 14.7349 6.19875 14.712 6.09513 14.712H1.57038C0.538934 13.0205 0 11.3795 0 9.73445C0 4.36058 4.36059 0 9.73445 0C12.2919 0 14.6205 0.991072 16.3578 2.60518L16.4371 2.68659L16.5165 2.60518C18.2531 0.991072 20.5824 0 23.1405 0C28.5144 0 32.8756 4.36058 32.8756 9.73445C32.8756 15.1749 26.9649 20.5804 16.9263 27.8415C16.6343 28.0528 16.2407 28.0528 15.9487 27.8415Z" fill="#2D73F6"/>
</svg>
