<svg width="73" height="22" viewBox="0 0 73 22" fill="none" xmlns="http://www.w3.org/2000/svg">
<path d="M26.7379 11.2027C25.8158 11.2027 24.98 11.5439 24.3893 12.2337H24.3605V7.56826H22.4297V18.7459H24.3605V14.9928C24.3605 13.6578 25.0161 12.9976 26.0463 12.9976C26.9685 12.9976 27.4512 13.4427 27.4512 14.7926V18.7533H29.3891V14.2882C29.3891 12.026 28.2869 11.2027 26.7307 11.2027H26.7379Z" fill="#999C9F"/>
<path d="M33.4813 18.872C34.4466 18.872 34.9221 18.6718 35.3832 18.4122L34.8861 16.8249C34.5619 16.9955 34.2017 17.0845 33.9784 17.0845C33.5245 17.0845 33.3444 16.773 33.3444 16.1351V12.9828H35.304V11.3362H33.3444V8.69567L31.4136 8.91077V11.3288H30.5635V12.9754H31.4136V16.4021C31.4136 18.071 32.2349 18.872 33.4741 18.872H33.4813Z" fill="#999C9F"/>
<path d="M39.1295 18.872C40.0949 18.872 40.5704 18.6718 41.0315 18.4122L40.5344 16.8249C40.2102 16.9955 39.85 17.0845 39.6266 17.0845C39.1727 17.0845 38.9926 16.773 38.9926 16.1351V12.9828H40.9522V11.3362H38.9926V8.69567L37.0618 8.91077V11.3288H36.2117V12.9754H37.0618V16.4021C37.0618 18.071 37.8832 18.872 39.1223 18.872H39.1295Z" fill="#999C9F"/>
<path d="M46.5284 11.2027C45.6423 11.2027 44.8786 11.5439 44.3455 12.1892H44.3167V11.3288H42.3859V21.7499H44.3167V17.9226H44.3455C44.8426 18.5382 45.5631 18.872 46.478 18.872C48.4664 18.872 49.9217 17.3589 49.9217 15.067C49.9217 12.8122 48.4592 11.2101 46.5284 11.2101V11.2027ZM46.1178 17.0993C45.0587 17.0993 44.2446 16.2908 44.2446 15.0744C44.2446 13.8877 45.0155 12.9976 46.1178 12.9976C47.148 12.9976 47.9621 13.8061 47.9621 15.0744C47.9621 16.276 47.2057 17.0993 46.1178 17.0993Z" fill="#999C9F"/>
<path d="M53.8265 18.872C55.7141 18.872 56.6218 17.8855 56.6218 16.5727C56.6218 15.1115 55.7069 14.7629 54.1435 14.1695C53.4375 13.8951 53.0628 13.68 53.0628 13.3685C53.0628 12.9828 53.4519 12.8122 53.7689 12.8122C54.2948 12.8122 54.9288 13.057 55.4835 13.5984L56.4201 12.1447C55.5988 11.4919 54.7847 11.2101 53.7833 11.2101C52.3136 11.2101 51.1897 12.0927 51.1897 13.4352C51.1897 14.8668 52.2199 15.4453 53.4087 15.8458C54.3452 16.1573 54.7199 16.3279 54.7199 16.6691C54.7199 17.0251 54.3957 17.2847 53.8337 17.2847C53.0484 17.2847 52.4289 16.9806 51.8381 16.4169L50.9015 17.7891C51.6868 18.4937 52.6666 18.872 53.8193 18.872H53.8265Z" fill="#999C9F"/>
<path d="M59.1001 13.6429C59.7485 13.6429 60.2889 13.094 60.2889 12.4339C60.2889 11.759 59.7485 11.2101 59.1001 11.2101C58.4301 11.2101 57.897 11.759 57.897 12.4339C57.897 13.094 58.4301 13.6429 59.1001 13.6429ZM59.1001 18.872C59.7485 18.872 60.2889 18.3306 60.2889 17.6704C60.2889 16.9955 59.7485 16.4466 59.1001 16.4466C58.4301 16.4466 57.897 16.9955 57.897 17.6704C57.897 18.3306 58.4301 18.872 59.1001 18.872Z" fill="#999C9F"/>
<path d="M62.1044 20.4445L67.7238 7.48667L66.2973 6.79688L60.6707 19.7621L62.1044 20.4445Z" fill="#999C9F"/>
<path d="M66.427 20.4445L72.0465 7.48667L70.62 6.79688L64.9934 19.7621L66.427 20.4445Z" fill="#999C9F"/>
<mask id="httpsmask0" mask-type="alpha" maskUnits="userSpaceOnUse" x="0" y="0" width="17" height="22">
<path d="M14.8547 7.28297C15.1329 7.28009 15.4089 7.33134 15.6667 7.43374C15.9244 7.53613 16.1588 7.68762 16.356 7.87939C16.5597 8.06266 16.7216 8.28582 16.8312 8.53432C16.9407 8.78282 16.9955 9.05109 16.9919 9.32166V19.7119C16.9955 19.9824 16.9407 20.2507 16.8312 20.4992C16.7216 20.7477 16.5597 20.9709 16.356 21.1542C16.1587 21.3458 15.9243 21.4971 15.6666 21.5993C15.4088 21.7016 15.1328 21.7527 14.8547 21.7497H2.13738C1.85922 21.7527 1.58324 21.7016 1.32549 21.5993C1.06774 21.4971 0.83337 21.3458 0.636031 21.1542C0.432348 20.9709 0.270455 20.7477 0.160896 20.4992C0.0513378 20.2507 -0.00342796 19.9824 0.000166109 19.7119V9.32079C-0.00330348 9.05037 0.0515226 8.78227 0.161077 8.53393C0.270631 8.28558 0.432459 8.06257 0.636031 7.87939C0.833297 7.68762 1.06763 7.53613 1.32538 7.43374C1.58314 7.33134 1.85916 7.28009 2.13738 7.28297H3.18037V5.19509C3.17324 4.27943 3.41917 3.37888 3.89219 2.58847C4.35537 1.80259 5.02213 1.14976 5.82539 0.695649C6.63818 0.239839 7.55893 0 8.49603 0C9.43312 0 10.3539 0.239839 11.1667 0.695649C11.9699 1.14976 12.6367 1.80259 13.0999 2.58847C13.5732 3.38001 13.8191 4.28175 13.8117 5.19854V7.28297H14.8547ZM11.7769 7.28297V5.19509C11.7789 4.63566 11.6264 4.08608 11.3353 3.60436C11.0456 3.11401 10.6289 2.70679 10.1272 2.42361C9.63426 2.13886 9.07216 1.98864 8.49956 1.98864C7.92696 1.98864 7.36485 2.13886 6.87192 2.42361C6.36889 2.70631 5.95097 3.11357 5.66025 3.60436C5.36922 4.08608 5.21666 4.63566 5.21867 5.19509V7.28297H11.7769Z" fill="#77BC1F"/>
</mask>
<g mask="url(#httpsmask0)">
<rect x="8.15625" width="8.83587" height="21.7498" fill="#727477"/>
<rect width="8.15618" height="21.7498" fill="#999C9F"/>
</g>
</svg>
