<svg width="29" height="28" viewBox="0 0 29 28" fill="none" xmlns="http://www.w3.org/2000/svg">
<path d="M27.94 14.0577C27.94 17.0406 27.9735 20.0234 27.94 22.9727C27.9064 25.0842 26.4988 27.0281 24.3874 27.6984C23.7506 27.8995 23.1138 28 22.4435 28C16.7794 28 11.1489 28 5.48485 28C3.40691 28 1.79819 27.1621 0.725704 25.3523C0.290008 24.615 0.0218874 23.8106 0.0218874 22.9392C0.0218874 19.3531 0.0218874 15.767 0.0218874 12.1809C0.0218874 9.83482 -0.0451428 7.45525 0.0554025 5.10919C0.122433 2.96422 1.19492 1.38901 3.20582 0.484107C3.84261 0.182471 4.51291 0.0148956 5.18321 0.0148956C11.0819 0.0148956 16.9805 -0.0186195 22.9127 0.0148956C24.3874 0.0148956 25.6609 0.618167 26.6329 1.72417C27.5713 2.76313 28.007 4.00319 28.007 5.37731C27.94 8.32664 27.94 11.1754 27.94 14.0577ZM13.9642 12.9852C15.6399 12.9852 17.2822 12.9852 18.9579 12.9852C19.226 12.9852 19.3936 12.9182 19.5947 12.6836C20.8012 11.1419 22.0413 9.63373 23.2478 8.12555C23.6835 7.58931 23.6835 7.58931 23.1808 7.05307C21.9408 5.81301 20.5331 4.87458 18.8909 4.2378C17.5168 3.70156 16.0756 3.33289 14.601 3.33289C13.5955 3.33289 12.5565 3.33289 11.5511 3.53398C10.5791 3.70156 9.6072 4.03671 8.7023 4.43889C7.09357 5.07568 5.71945 6.08113 4.54643 7.3547C4.34533 7.58931 4.37885 7.72337 4.54643 7.92446C5.85351 9.53318 7.12709 11.1419 8.40066 12.7506C8.53472 12.9517 8.7023 12.9852 8.9369 12.9852C10.6127 12.9517 12.2884 12.9852 13.9642 12.9852Z" fill="#DE2B70"/>
<path d="M18.1521 5.8133C18.085 6.14845 18.018 6.51712 17.9175 6.85227C17.7834 7.45554 17.6493 8.05881 17.5153 8.66208C17.3477 9.43293 17.1466 10.1703 16.979 10.9411C16.912 11.1757 16.845 11.4438 16.778 11.6784C16.7444 11.779 16.6439 11.8795 16.5769 11.8795C15.806 11.8795 15.0017 11.8795 14.2308 11.8795C14.1973 11.8795 14.1638 11.846 14.0632 11.8125C15.4038 9.8016 16.7109 7.79069 18.0515 5.77979C18.085 5.77979 18.1186 5.77979 18.1521 5.8133Z" fill="#DE2B70"/>
</svg>
