<svg width="25" height="25" viewBox="0 0 25 25" fill="none" xmlns="http://www.w3.org/2000/svg">
<path d="M12.4989 23.9977C18.8495 23.9977 23.9977 18.8495 23.9977 12.4989C23.9977 6.14821 18.8495 1 12.4989 1C6.14821 1 1 6.14821 1 12.4989C1 18.8495 6.14821 23.9977 12.4989 23.9977Z" fill="#5890FF" stroke="white" stroke-width="2"/>
<path d="M12.4989 22.9977C18.2972 22.9977 22.9977 18.2972 22.9977 12.4989C22.9977 6.7005 18.2972 2 12.4989 2C6.7005 2 2 6.7005 2 12.4989C2 18.2972 6.7005 22.9977 12.4989 22.9977Z" fill="#FFD972"/>
<path d="M6.47326 15.7067C8.16051 15.7067 9.5283 14.3389 9.5283 12.6516C9.5283 10.9644 8.16051 9.59657 6.47326 9.59657C4.786 9.59657 3.41821 10.9644 3.41821 12.6516C3.41821 14.3389 4.786 15.7067 6.47326 15.7067Z" fill="#FA9668"/>
<path d="M6.47309 14.9475C7.74105 14.9475 8.76893 13.9196 8.76893 12.6516C8.76893 11.3837 7.74105 10.3558 6.47309 10.3558C5.20513 10.3558 4.17725 11.3837 4.17725 12.6516C4.17725 13.9196 5.20513 14.9475 6.47309 14.9475Z" fill="#FA9668"/>
<path d="M6.47341 14.1883C7.32207 14.1883 8.01005 13.5003 8.01005 12.6516C8.01005 11.803 7.32207 11.115 6.47341 11.115C5.62475 11.115 4.93677 11.803 4.93677 12.6516C4.93677 13.5003 5.62475 14.1883 6.47341 14.1883Z" fill="#FA9668"/>
<path d="M6.47315 13.4199C6.89749 13.4199 7.24147 13.0759 7.24147 12.6516C7.24147 12.2273 6.89749 11.8833 6.47315 11.8833C6.04882 11.8833 5.70483 12.2273 5.70483 12.6516C5.70483 13.0759 6.04882 13.4199 6.47315 13.4199Z" fill="#FA9668"/>
<path d="M17.0244 11.7169C18.6424 11.7169 19.954 10.4052 19.954 8.78721C19.954 7.16921 18.6424 5.85756 17.0244 5.85756C15.4064 5.85756 14.0947 7.16921 14.0947 8.78721C14.0947 10.4052 15.4064 11.7169 17.0244 11.7169Z" fill="#FA9668"/>
<path d="M17.0244 10.9896C18.2407 10.9896 19.2268 10.0035 19.2268 8.78721C19.2268 7.57087 18.2407 6.58484 17.0244 6.58484C15.8081 6.58484 14.822 7.57087 14.822 8.78721C14.822 10.0035 15.8081 10.9896 17.0244 10.9896Z" fill="#FA9668"/>
<path d="M17.0246 10.26C17.838 10.26 18.4974 9.60062 18.4974 8.78721C18.4974 7.9738 17.838 7.31441 17.0246 7.31441C16.2112 7.31441 15.5518 7.9738 15.5518 8.78721C15.5518 9.60062 16.2112 10.26 17.0246 10.26Z" fill="#FA9668"/>
<path d="M17.0242 9.52361C17.4309 9.52361 17.7606 9.19391 17.7606 8.78721C17.7606 8.3805 17.4309 8.0508 17.0242 8.0508C16.6175 8.0508 16.2878 8.3805 16.2878 8.78721C16.2878 9.19391 16.6175 9.52361 17.0242 9.52361Z" fill="#FA9668"/>
<path d="M15.4105 11.083C14.918 12.3028 13.4612 13.0916 12.2642 13.4792C10.9122 13.9169 9.72898 13.771 8.58448 12.9206C8.20146 12.6357 7.82984 13.2786 8.21058 13.5613C9.63551 14.6214 11.1608 14.6967 12.8091 14.072C14.1862 13.5499 15.5586 12.6858 16.1263 11.2791C16.3064 10.8368 15.5883 10.6453 15.4105 11.083Z" fill="#262C38"/>
<path d="M17.3823 6.32494C16.9012 5.18272 15.6792 4.16361 14.3546 4.50787C12.8658 4.89545 12.3939 6.6464 12.3985 7.97557C12.4008 8.45435 13.1417 8.45435 13.1417 7.97557C13.1394 7.08414 13.2717 6.16762 13.9989 5.5589C14.9793 4.74042 16.2378 5.50418 16.6664 6.52329C16.8488 6.95646 17.567 6.76495 17.3823 6.32494Z" fill="#262C38"/>
<path d="M9.68991 8.68006C9.20886 7.53784 7.98684 6.51645 6.66223 6.86299C5.17346 7.25057 4.70153 9.00152 4.70609 10.3307C4.70837 10.8095 5.44933 10.8095 5.44933 10.3307C5.44705 9.43926 5.57928 8.52275 6.30656 7.91402C7.28691 7.09554 8.54541 7.8593 8.97403 8.87841C9.15642 9.30931 9.87686 9.12008 9.68991 8.68006Z" fill="#262C38"/>
</svg>
