<svg width="34" height="41" viewBox="0 0 34 41" fill="none" xmlns="http://www.w3.org/2000/svg">
<g clip-path="url(#clip0)">
<path d="M26.9024 12.54V9.95766C26.9024 4.46676 22.4612 0 17.0016 0C11.542 0 7.10073 4.46676 7.10073 9.95766V12.3662C4.012 13.2528 2.17569 15.6904 1.18207 17.2926C-0.315747 19.7096 -0.507558 23.4934 1.30266 26.8077C3.11641 30.129 8.58445 34.2284 10.1732 35.466C11.7613 36.7029 16.6934 40.12 16.6934 40.12C18.2173 38.7476 21.5769 36.8639 25.9427 33.7362C30.3078 30.6092 32.5637 28.4637 33.6786 24.5466C34.7392 20.821 33.3648 13.8514 26.9024 12.54ZM11.0491 12.1386V9.95766C11.0491 6.65617 13.7196 3.97101 17.0023 3.97101C20.2849 3.97101 22.9548 6.65688 22.9548 9.95766V12.4414C18.0911 13.2223 16.9381 17.3628 16.9381 17.3628C16.5129 14.1237 12.8367 12.5315 12.8367 12.5315C12.2126 12.3485 11.6175 12.2201 11.0491 12.1386ZM20.1418 32.0056H13.8621L15.5411 27.4247C14.1865 26.8509 13.2352 25.5034 13.2352 23.9324C13.2352 21.8395 14.922 20.1437 17.0023 20.1437C19.0826 20.1437 20.7694 21.8395 20.7694 23.9324C20.7694 25.5041 19.8174 26.8509 18.4634 27.4247L20.1418 32.0056Z" fill="#2D73F6"/>
</g>
<defs>
<clipPath id="clip0">
<rect width="34" height="40.12" fill="white"/>
</clipPath>
</defs>
</svg>
