<svg width="141" height="18" viewBox="0 0 141 18" fill="none" xmlns="http://www.w3.org/2000/svg">
<path fill-rule="evenodd" clip-rule="evenodd" d="M28.0518 1.13507V17.2709H32.3568V12.0266H40.1797V8.44356H32.3568V4.74186H41.7283V1.13507H28.0518Z" fill="white"/>
<path fill-rule="evenodd" clip-rule="evenodd" d="M47.5711 1.13495L40.4858 17.2708H44.7221L45.8176 14.7554H53.8039L54.875 17.2708H59.1357L52.0268 1.13495H47.5711ZM49.8347 5.54851L52.4156 11.5758H47.2059L49.8347 5.54851Z" fill="white"/>
<path fill-rule="evenodd" clip-rule="evenodd" d="M74.0977 5.65319H69.9076C69.9076 4.80655 68.8799 3.6611 67.0805 3.6611C65.8208 3.6611 64.2783 4.20892 64.2783 5.18007C64.2783 6.00181 65.4349 6.32552 67.9029 6.94805C70.653 7.64563 74.5342 8.54208 74.5342 12.2776C74.5342 15.5151 71.6046 17.5321 67.5174 17.5321C62.0427 17.5321 59.7549 13.946 59.7549 11.3061H63.9446C63.9446 11.3061 64.2783 13.9958 67.7484 13.9958C69.6253 13.9958 70.3188 13.2238 70.3188 12.5017C70.3188 11.431 68.8542 11.0571 67.2343 10.6836C64.6132 10.0859 60.0115 9.1397 60.0115 5.37928C60.0115 2.29118 63.1475 0.000274658 67.1319 0.000274658C71.681 0.000274658 74.0977 3.01332 74.0977 5.65319Z" fill="white"/>
<path fill-rule="evenodd" clip-rule="evenodd" d="M92.4738 4.08413H86.279V17.2333H82.0123V4.08413H75.8179V0.298798H92.4738V4.08413Z" fill="white"/>
<path fill-rule="evenodd" clip-rule="evenodd" d="M95.3511 17.2333H99.5665V0.299133H95.3511V17.2333Z" fill="white"/>
<path fill-rule="evenodd" clip-rule="evenodd" d="M120.539 17.2333H116.298L107.457 6.87333V17.2333H103.215V0.299072H107.457L116.298 10.6338V0.299072H120.539V17.2333Z" fill="white"/>
<path fill-rule="evenodd" clip-rule="evenodd" d="M140.69 3.71062L137.04 5.50386C136.166 4.43276 134.804 3.83513 132.799 3.83513C129.741 3.83513 127.607 5.90227 127.607 8.71646C127.607 11.4058 129.792 13.7219 132.851 13.7219C134.727 13.7219 136.218 13.1492 137.142 12.3022V10.6587H131.822V7.52085H140.87V13.7966C140.742 14.0457 137.991 17.5322 132.876 17.5322C127.093 17.5322 123.366 13.3232 123.366 8.76626C123.366 4.05924 127.35 0 132.851 0C136.218 0 138.942 1.46952 140.69 3.71062Z" fill="white"/>
<path fill-rule="evenodd" clip-rule="evenodd" d="M2.857 9.15535H4.99619C6.77568 9.15535 8.00915 8.02098 8.00915 6.29658C8.00915 4.45111 6.807 3.46784 4.99619 3.46784H2.857V9.15535ZM10.6002 6.29652C10.6002 9.29138 8.30535 11.4544 4.99565 11.4544H0.295898V1.18401L4.99565 1.16869C8.49232 1.15367 10.6002 3.33169 10.6002 6.29652Z" fill="#DE2B70"/>
<path fill-rule="evenodd" clip-rule="evenodd" d="M3.15084 8.86936H4.99487C6.62061 8.86936 7.71267 7.83521 7.71267 6.29625C7.71267 4.68035 6.72216 3.75379 4.99487 3.75379H3.15084V8.86936ZM4.99514 9.44117H2.56111V3.18173H4.99514C7.03562 3.18173 8.30326 4.37526 8.30326 6.29612C8.30326 8.14772 6.94293 9.44117 4.99514 9.44117ZM0.589273 11.1684H4.99355C8.11945 11.1684 10.3029 9.16508 10.3029 6.29619C10.3029 4.9065 9.82776 3.71327 8.92932 2.84648C7.97772 1.9288 6.6136 1.43992 4.99482 1.45464L0.589273 1.46874V11.1684ZM4.9946 11.7405H0V0.899059L4.99365 0.882814C5.00599 0.882814 5.01864 0.882507 5.03098 0.882507C6.79718 0.882507 8.28879 1.42134 9.34668 2.44109C10.359 3.41792 10.8943 4.75091 10.8943 6.29631C10.8943 9.45086 8.41312 11.7405 4.9946 11.7405Z" fill="#DE2B70"/>
<path fill-rule="evenodd" clip-rule="evenodd" d="M14.0475 6.31166C14.0475 7.99069 15.4527 9.33686 17.1857 9.33686C18.8877 9.33686 20.2926 7.99069 20.2926 6.31166C20.2926 4.64764 18.8877 3.30178 17.1857 3.30178C15.4527 3.30178 14.0475 4.64764 14.0475 6.31166ZM22.6653 6.31152C22.6653 9.246 20.1984 11.6361 17.1855 11.6361C14.1412 11.6361 11.7056 9.246 11.7056 6.31152C11.7056 3.39236 14.1412 0.986908 17.1855 0.986908C20.1984 0.986908 22.6653 3.39236 22.6653 6.31152Z" fill="#DE2B70"/>
<path fill-rule="evenodd" clip-rule="evenodd" d="M17.1857 3.58732C15.6181 3.58732 14.3429 4.80936 14.3429 6.31154C14.3429 7.822 15.6181 9.05078 17.1857 9.05078C18.7358 9.05078 19.9974 7.822 19.9974 6.31154C19.9974 4.80936 18.7358 3.58732 17.1857 3.58732ZM17.1872 9.62276C15.2942 9.62276 13.7539 8.13744 13.7539 6.31159C13.7539 4.49401 15.2942 3.01543 17.1872 3.01543C19.0632 3.01543 20.5893 4.49401 20.5893 6.31159C20.5893 8.13744 19.0632 9.62276 17.1872 9.62276ZM17.1859 1.27292C14.327 1.27292 12.0009 3.53308 12.0009 6.31155C12.0009 9.08972 14.327 11.3499 17.1859 11.3499C20.0448 11.3499 22.3709 9.08972 22.3709 6.31155C22.3709 3.53308 20.0448 1.27292 17.1859 1.27292ZM17.1876 11.9219C14.0032 11.9219 11.4126 9.40488 11.4126 6.31163C11.4126 3.21807 14.0032 0.70105 17.1876 0.70105C20.3721 0.70105 22.9627 3.21807 22.9627 6.31163C22.9627 9.40488 20.3721 11.9219 17.1876 11.9219Z" fill="#DE2B70"/>
</svg>
