<svg width="374" height="39" viewBox="0 0 374 39" fill="none" xmlns="http://www.w3.org/2000/svg">
<path d="M183.315 12.335V14H176.115V12.335H178.752V4.748C178.752 4.448 178.761 4.139 178.779 3.821L176.907 5.387C176.799 5.471 176.691 5.525 176.583 5.549C176.481 5.567 176.382 5.567 176.286 5.549C176.196 5.531 176.115 5.501 176.043 5.459C175.971 5.411 175.917 5.36 175.881 5.306L175.179 4.343L179.148 0.967999H180.975V12.335H183.315ZM190.849 9.095V4.838C190.849 4.436 190.876 3.992 190.93 3.506L186.889 9.095H190.849ZM194.422 9.095V10.382C194.422 10.502 194.383 10.607 194.305 10.697C194.227 10.781 194.116 10.823 193.972 10.823H192.784V14H190.849V10.823H185.359C185.209 10.823 185.077 10.778 184.963 10.688C184.849 10.592 184.777 10.475 184.747 10.337L184.513 9.212L190.678 0.977H192.784V9.095H194.422ZM204.873 7.493C204.873 8.627 204.75 9.614 204.504 10.454C204.264 11.288 203.928 11.978 203.496 12.524C203.07 13.07 202.563 13.478 201.975 13.748C201.393 14.012 200.763 14.144 200.085 14.144C199.407 14.144 198.777 14.012 198.195 13.748C197.619 13.478 197.118 13.07 196.692 12.524C196.266 11.978 195.933 11.288 195.693 10.454C195.453 9.614 195.333 8.627 195.333 7.493C195.333 6.353 195.453 5.366 195.693 4.532C195.933 3.698 196.266 3.008 196.692 2.462C197.118 1.916 197.619 1.511 198.195 1.247C198.777 0.977 199.407 0.842 200.085 0.842C200.763 0.842 201.393 0.977 201.975 1.247C202.563 1.511 203.07 1.916 203.496 2.462C203.928 3.008 204.264 3.698 204.504 4.532C204.75 5.366 204.873 6.353 204.873 7.493ZM202.578 7.493C202.578 6.551 202.509 5.771 202.371 5.153C202.233 4.535 202.047 4.043 201.813 3.677C201.585 3.311 201.321 3.056 201.021 2.912C200.721 2.762 200.409 2.687 200.085 2.687C199.767 2.687 199.458 2.762 199.158 2.912C198.864 3.056 198.603 3.311 198.375 3.677C198.147 4.043 197.964 4.535 197.826 5.153C197.694 5.771 197.628 6.551 197.628 7.493C197.628 8.435 197.694 9.215 197.826 9.833C197.964 10.451 198.147 10.943 198.375 11.309C198.603 11.675 198.864 11.933 199.158 12.083C199.458 12.227 199.767 12.299 200.085 12.299C200.409 12.299 200.721 12.227 201.021 12.083C201.321 11.933 201.585 11.675 201.813 11.309C202.047 10.943 202.233 10.451 202.371 9.833C202.509 9.215 202.578 8.435 202.578 7.493ZM215.314 7.493C215.314 8.627 215.191 9.614 214.945 10.454C214.705 11.288 214.369 11.978 213.937 12.524C213.511 13.07 213.004 13.478 212.416 13.748C211.834 14.012 211.204 14.144 210.526 14.144C209.848 14.144 209.218 14.012 208.636 13.748C208.06 13.478 207.559 13.07 207.133 12.524C206.707 11.978 206.374 11.288 206.134 10.454C205.894 9.614 205.774 8.627 205.774 7.493C205.774 6.353 205.894 5.366 206.134 4.532C206.374 3.698 206.707 3.008 207.133 2.462C207.559 1.916 208.06 1.511 208.636 1.247C209.218 0.977 209.848 0.842 210.526 0.842C211.204 0.842 211.834 0.977 212.416 1.247C213.004 1.511 213.511 1.916 213.937 2.462C214.369 3.008 214.705 3.698 214.945 4.532C215.191 5.366 215.314 6.353 215.314 7.493ZM213.019 7.493C213.019 6.551 212.95 5.771 212.812 5.153C212.674 4.535 212.488 4.043 212.254 3.677C212.026 3.311 211.762 3.056 211.462 2.912C211.162 2.762 210.85 2.687 210.526 2.687C210.208 2.687 209.899 2.762 209.599 2.912C209.305 3.056 209.044 3.311 208.816 3.677C208.588 4.043 208.405 4.535 208.267 5.153C208.135 5.771 208.069 6.551 208.069 7.493C208.069 8.435 208.135 9.215 208.267 9.833C208.405 10.451 208.588 10.943 208.816 11.309C209.044 11.675 209.305 11.933 209.599 12.083C209.899 12.227 210.208 12.299 210.526 12.299C210.85 12.299 211.162 12.227 211.462 12.083C211.762 11.933 212.026 11.675 212.254 11.309C212.488 10.943 212.674 10.451 212.812 9.833C212.95 9.215 213.019 8.435 213.019 7.493ZM216.792 7.637H221.454V9.491H216.792V7.637ZM231.795 12.335V14H224.595V12.335H227.232V4.748C227.232 4.448 227.241 4.139 227.259 3.821L225.387 5.387C225.279 5.471 225.171 5.525 225.063 5.549C224.961 5.567 224.862 5.567 224.766 5.549C224.676 5.531 224.595 5.501 224.523 5.459C224.451 5.411 224.397 5.36 224.361 5.306L223.659 4.343L227.628 0.967999H229.455V12.335H231.795ZM236.576 5.711C236.864 5.651 237.14 5.609 237.404 5.585C237.668 5.555 237.923 5.54 238.169 5.54C238.853 5.54 239.456 5.642 239.978 5.846C240.5 6.05 240.938 6.332 241.292 6.692C241.646 7.052 241.913 7.475 242.093 7.961C242.273 8.441 242.363 8.96 242.363 9.518C242.363 10.208 242.24 10.838 241.994 11.408C241.754 11.978 241.418 12.467 240.986 12.875C240.554 13.277 240.041 13.589 239.447 13.811C238.859 14.033 238.217 14.144 237.521 14.144C237.113 14.144 236.726 14.102 236.36 14.018C235.994 13.934 235.649 13.823 235.325 13.685C235.007 13.541 234.71 13.379 234.434 13.199C234.164 13.013 233.921 12.818 233.705 12.614L234.389 11.669C234.533 11.465 234.722 11.363 234.956 11.363C235.106 11.363 235.259 11.411 235.415 11.507C235.571 11.603 235.748 11.708 235.946 11.822C236.15 11.936 236.387 12.041 236.657 12.137C236.933 12.233 237.263 12.281 237.647 12.281C238.055 12.281 238.415 12.215 238.727 12.083C239.039 11.951 239.297 11.768 239.501 11.534C239.711 11.294 239.867 11.012 239.969 10.688C240.077 10.358 240.131 10.001 240.131 9.617C240.131 8.909 239.924 8.357 239.51 7.961C239.102 7.559 238.496 7.358 237.692 7.358C237.074 7.358 236.441 7.472 235.793 7.7L234.407 7.304L235.487 0.985999H241.913V1.931C241.913 2.249 241.814 2.507 241.616 2.705C241.418 2.903 241.082 3.002 240.608 3.002H237.035L236.576 5.711ZM253.353 7.493C253.353 8.627 253.23 9.614 252.984 10.454C252.744 11.288 252.408 11.978 251.976 12.524C251.55 13.07 251.043 13.478 250.455 13.748C249.873 14.012 249.243 14.144 248.565 14.144C247.887 14.144 247.257 14.012 246.675 13.748C246.099 13.478 245.598 13.07 245.172 12.524C244.746 11.978 244.413 11.288 244.173 10.454C243.933 9.614 243.813 8.627 243.813 7.493C243.813 6.353 243.933 5.366 244.173 4.532C244.413 3.698 244.746 3.008 245.172 2.462C245.598 1.916 246.099 1.511 246.675 1.247C247.257 0.977 247.887 0.842 248.565 0.842C249.243 0.842 249.873 0.977 250.455 1.247C251.043 1.511 251.55 1.916 251.976 2.462C252.408 3.008 252.744 3.698 252.984 4.532C253.23 5.366 253.353 6.353 253.353 7.493ZM251.058 7.493C251.058 6.551 250.989 5.771 250.851 5.153C250.713 4.535 250.527 4.043 250.293 3.677C250.065 3.311 249.801 3.056 249.501 2.912C249.201 2.762 248.889 2.687 248.565 2.687C248.247 2.687 247.938 2.762 247.638 2.912C247.344 3.056 247.083 3.311 246.855 3.677C246.627 4.043 246.444 4.535 246.306 5.153C246.174 5.771 246.108 6.551 246.108 7.493C246.108 8.435 246.174 9.215 246.306 9.833C246.444 10.451 246.627 10.943 246.855 11.309C247.083 11.675 247.344 11.933 247.638 12.083C247.938 12.227 248.247 12.299 248.565 12.299C248.889 12.299 249.201 12.227 249.501 12.083C249.801 11.933 250.065 11.675 250.293 11.309C250.527 10.943 250.713 10.451 250.851 9.833C250.989 9.215 251.058 8.435 251.058 7.493ZM263.795 7.493C263.795 8.627 263.672 9.614 263.426 10.454C263.186 11.288 262.85 11.978 262.418 12.524C261.992 13.07 261.485 13.478 260.897 13.748C260.315 14.012 259.685 14.144 259.007 14.144C258.329 14.144 257.699 14.012 257.117 13.748C256.541 13.478 256.04 13.07 255.614 12.524C255.188 11.978 254.855 11.288 254.615 10.454C254.375 9.614 254.255 8.627 254.255 7.493C254.255 6.353 254.375 5.366 254.615 4.532C254.855 3.698 255.188 3.008 255.614 2.462C256.04 1.916 256.541 1.511 257.117 1.247C257.699 0.977 258.329 0.842 259.007 0.842C259.685 0.842 260.315 0.977 260.897 1.247C261.485 1.511 261.992 1.916 262.418 2.462C262.85 3.008 263.186 3.698 263.426 4.532C263.672 5.366 263.795 6.353 263.795 7.493ZM261.5 7.493C261.5 6.551 261.431 5.771 261.293 5.153C261.155 4.535 260.969 4.043 260.735 3.677C260.507 3.311 260.243 3.056 259.943 2.912C259.643 2.762 259.331 2.687 259.007 2.687C258.689 2.687 258.38 2.762 258.08 2.912C257.786 3.056 257.525 3.311 257.297 3.677C257.069 4.043 256.886 4.535 256.748 5.153C256.616 5.771 256.55 6.551 256.55 7.493C256.55 8.435 256.616 9.215 256.748 9.833C256.886 10.451 257.069 10.943 257.297 11.309C257.525 11.675 257.786 11.933 258.08 12.083C258.38 12.227 258.689 12.299 259.007 12.299C259.331 12.299 259.643 12.227 259.943 12.083C260.243 11.933 260.507 11.675 260.735 11.309C260.969 10.943 261.155 10.451 261.293 9.833C261.431 9.215 261.5 8.435 261.5 7.493ZM271.944 0.625999V8.285H272.358C272.508 8.285 272.625 8.267 272.709 8.231C272.799 8.189 272.889 8.108 272.979 7.988L275.274 5.153C275.37 5.027 275.475 4.931 275.589 4.865C275.709 4.799 275.862 4.766 276.048 4.766H278.082L275.211 8.195C275.007 8.465 274.785 8.672 274.545 8.816C274.671 8.906 274.782 9.011 274.878 9.131C274.98 9.251 275.076 9.38 275.166 9.518L278.244 14H276.237C276.063 14 275.913 13.973 275.787 13.919C275.661 13.859 275.556 13.754 275.472 13.604L273.114 10.103C273.03 9.965 272.943 9.875 272.853 9.833C272.763 9.791 272.628 9.77 272.448 9.77H271.944V14H269.721V0.625999H271.944ZM285.477 6.719C285.411 6.803 285.345 6.869 285.279 6.917C285.219 6.965 285.129 6.989 285.009 6.989C284.895 6.989 284.784 6.956 284.676 6.89C284.568 6.818 284.439 6.74 284.289 6.656C284.139 6.566 283.959 6.488 283.749 6.422C283.545 6.35 283.29 6.314 282.984 6.314C282.594 6.314 282.252 6.386 281.958 6.53C281.664 6.668 281.418 6.869 281.22 7.133C281.028 7.397 280.884 7.718 280.788 8.096C280.692 8.468 280.644 8.891 280.644 9.365C280.644 9.857 280.695 10.295 280.797 10.679C280.905 11.063 281.058 11.387 281.256 11.651C281.454 11.909 281.694 12.107 281.976 12.245C282.258 12.377 282.576 12.443 282.93 12.443C283.284 12.443 283.569 12.401 283.785 12.317C284.007 12.227 284.193 12.131 284.343 12.029C284.493 11.921 284.622 11.825 284.73 11.741C284.844 11.651 284.97 11.606 285.108 11.606C285.288 11.606 285.423 11.675 285.513 11.813L286.152 12.623C285.906 12.911 285.639 13.154 285.351 13.352C285.063 13.544 284.763 13.7 284.451 13.82C284.145 13.934 283.827 14.015 283.497 14.063C283.173 14.111 282.849 14.135 282.525 14.135C281.955 14.135 281.418 14.03 280.914 13.82C280.41 13.604 279.969 13.292 279.591 12.884C279.213 12.476 278.913 11.978 278.691 11.39C278.475 10.796 278.367 10.121 278.367 9.365C278.367 8.687 278.463 8.06 278.655 7.484C278.853 6.902 279.141 6.401 279.519 5.981C279.897 5.555 280.365 5.222 280.923 4.982C281.481 4.742 282.123 4.622 282.849 4.622C283.539 4.622 284.142 4.733 284.658 4.955C285.18 5.177 285.648 5.495 286.062 5.909L285.477 6.719ZM292.423 10.058C291.781 10.088 291.241 10.145 290.803 10.229C290.365 10.307 290.014 10.409 289.75 10.535C289.486 10.661 289.297 10.808 289.183 10.976C289.069 11.144 289.012 11.327 289.012 11.525C289.012 11.915 289.126 12.194 289.354 12.362C289.588 12.53 289.891 12.614 290.263 12.614C290.719 12.614 291.112 12.533 291.442 12.371C291.778 12.203 292.105 11.951 292.423 11.615V10.058ZM287.329 6.053C288.391 5.081 289.669 4.595 291.163 4.595C291.703 4.595 292.186 4.685 292.612 4.865C293.038 5.039 293.398 5.285 293.692 5.603C293.986 5.915 294.208 6.29 294.358 6.728C294.514 7.166 294.592 7.646 294.592 8.168V14H293.584C293.374 14 293.212 13.97 293.098 13.91C292.984 13.844 292.894 13.715 292.828 13.523L292.63 12.857C292.396 13.067 292.168 13.253 291.946 13.415C291.724 13.571 291.493 13.703 291.253 13.811C291.013 13.919 290.755 14 290.479 14.054C290.209 14.114 289.909 14.144 289.579 14.144C289.189 14.144 288.829 14.093 288.499 13.991C288.169 13.883 287.884 13.724 287.644 13.514C287.404 13.304 287.218 13.043 287.086 12.731C286.954 12.419 286.888 12.056 286.888 11.642C286.888 11.408 286.927 11.177 287.005 10.949C287.083 10.715 287.209 10.493 287.383 10.283C287.563 10.073 287.794 9.875 288.076 9.689C288.358 9.503 288.703 9.341 289.111 9.203C289.525 9.065 290.005 8.954 290.551 8.87C291.097 8.78 291.721 8.726 292.423 8.708V8.168C292.423 7.55 292.291 7.094 292.027 6.8C291.763 6.5 291.382 6.35 290.884 6.35C290.524 6.35 290.224 6.392 289.984 6.476C289.75 6.56 289.543 6.656 289.363 6.764C289.183 6.866 289.018 6.959 288.868 7.043C288.724 7.127 288.562 7.169 288.382 7.169C288.226 7.169 288.094 7.13 287.986 7.052C287.878 6.968 287.791 6.872 287.725 6.764L287.329 6.053ZM298.936 0.625999V14H296.713V0.625999H298.936Z" fill="#222222"/>
<rect y="25" width="374" height="8" rx="4" fill="#E2E3E9"/>
<rect x="178" y="21" width="113" height="16" rx="8" fill="#2D73F6" stroke="white" stroke-width="4"/>
</svg>
