<svg width="26" height="16" viewBox="0 0 26 16" fill="none" xmlns="http://www.w3.org/2000/svg">
<path fill-rule="evenodd" clip-rule="evenodd" d="M9.4469 14.2895H16.4476V1.71037H9.4469V14.2895Z" fill="#7673C0"/>
<path fill-rule="evenodd" clip-rule="evenodd" d="M9.8893 8C9.8893 5.448 11.0843 3.17533 12.9453 1.71044C11.5842 0.639111 9.86707 0 8.00061 0C3.58203 0 0 3.58178 0 8C0 12.4182 3.58203 16 8.00061 16C9.86707 16 11.5842 15.3609 12.9453 14.2896C11.0843 12.8247 9.8893 10.552 9.8893 8Z" fill="#EB001B"/>
<path fill-rule="evenodd" clip-rule="evenodd" d="M25.892 8C25.892 12.4182 22.31 16 17.8914 16C16.025 16 14.3079 15.3609 12.947 14.2896C14.8079 12.8247 16.0028 10.552 16.0028 8C16.0028 5.448 14.8079 3.17533 12.947 1.71044C14.3079 0.639111 16.025 0 17.8914 0C22.31 0 25.892 3.58178 25.892 8Z" fill="#00A1DF"/>
</svg>
