<svg width="26" height="16" viewBox="0 0 26 16" fill="none" xmlns="http://www.w3.org/2000/svg">
<path fill-rule="evenodd" clip-rule="evenodd" d="M9.45056 14.2896H16.4545V1.71045H9.45056V14.2896Z" fill="#FF5F00"/>
<path fill-rule="evenodd" clip-rule="evenodd" d="M9.89339 8C9.89339 5.448 11.089 3.17511 12.9507 1.71044C11.5892 0.639111 9.87116 0 8.00388 0C3.58337 0 0 3.58156 0 8C0 12.4182 3.58337 16 8.00388 16C9.87116 16 11.5892 15.3609 12.9507 14.2896C11.089 12.8247 9.89339 10.552 9.89339 8Z" fill="#EB001B"/>
<path fill-rule="evenodd" clip-rule="evenodd" d="M25.6503 12.9575V12.6468H25.5692L25.476 12.8604L25.3826 12.6468H25.3015V12.9575H25.3588V12.7233L25.4462 12.925H25.5056L25.5932 12.7226V12.9575H25.6503ZM25.1367 12.9575V12.7H25.2405V12.6473H24.976V12.7H25.0798V12.9575H25.1367ZM25.9012 8C25.9012 12.4182 22.3179 16 17.8974 16C16.0301 16 14.3122 15.3609 12.9506 14.2896C14.8123 12.8247 16.0079 10.552 16.0079 8C16.0079 5.448 14.8123 3.17511 12.9506 1.71044C14.3122 0.639111 16.0301 0 17.8974 0C22.3179 0 25.9012 3.58156 25.9012 8Z" fill="#F79E1B"/>
</svg>
