<svg width="64" height="23" viewBox="0 0 64 23" fill="none" xmlns="http://www.w3.org/2000/svg">
<path d="M36.3682 7.76053L35.0679 7.05129L34.9497 7.1695C34.7133 7.64232 34.2405 7.87873 33.7676 7.87873C32.9402 7.76053 32.3492 7.05129 32.3492 6.22386C32.4674 5.51462 32.9402 4.92359 33.7676 4.80539C34.2405 4.80539 34.7133 5.0418 34.9497 5.51462L35.0679 5.63283L36.3682 4.80539L36.25 4.68718C35.7771 3.97795 34.8315 3.50513 33.7676 3.50513C32.1128 3.50513 30.8125 4.80539 30.8125 6.46027C30.8125 8.11514 32.1128 9.41541 33.7676 9.41541C34.7133 9.41541 35.6589 8.94258 36.25 8.11514L36.3682 7.76053Z" fill="#939598"/>
<path d="M36.25 9.29864H38.0231L38.6141 7.99838H41.3328L41.8057 9.29864H43.5787L40.3872 1.49707H38.8505L39.3233 2.56092L36.25 9.29864ZM39.9144 4.57042L40.6236 6.3435H39.2051L39.9144 4.57042Z" fill="#939598"/>
<path d="M44.4065 9.29807H45.9432V5.8701H47.007V4.33343H45.9432V3.7424C45.9432 3.38779 46.1796 3.15138 46.5342 3.15138C46.6524 3.15138 46.8888 3.15138 47.007 3.26958L47.2434 3.38779L47.8345 1.96932L47.598 1.85112C47.2434 1.73291 47.007 1.73291 46.6524 1.73291C46.0614 1.73291 45.3521 1.96932 44.9975 2.44214C44.5247 2.67855 44.4065 3.15138 44.4065 3.7424V4.33343H43.6973V5.8701H44.4065V9.29807Z" fill="#939598"/>
<path d="M23.2471 1.49707V9.29864H25.0202V4.80683L26.675 6.10709L28.3299 4.80683V9.29864H29.9848V1.49707L26.675 4.09759L23.2471 1.49707Z" fill="#939598"/>
<path d="M50.4346 3.50513C48.7798 3.50513 47.4795 4.80539 47.4795 6.46027C47.4795 8.11514 48.7798 9.41541 50.4346 9.41541C51.3803 9.41541 52.2077 8.94258 52.7987 8.23335L51.4985 7.52412C51.1439 7.87873 50.7892 7.99694 50.3164 7.99694C49.7254 7.99694 49.1344 7.64232 48.898 7.05129H53.1534V6.57847C53.3898 4.92359 52.2077 3.62333 50.4346 3.50513C50.5528 3.50513 50.5528 3.50513 50.4346 3.50513ZM49.1344 5.63283C49.2526 5.16001 49.7254 4.80539 50.3164 4.80539C50.9075 4.80539 51.3803 5.16001 51.6167 5.63283H49.1344Z" fill="#939598"/>
<path d="M56.935 3.50521C55.2801 3.387 53.9799 4.56906 53.8617 6.22394C53.7434 7.87882 54.9255 9.17908 56.5804 9.29728C56.6986 9.29728 56.8168 9.29728 56.935 9.29728C57.8806 9.29728 58.7081 8.82446 59.2991 8.11523L57.9988 7.40599C57.6442 7.76061 57.2896 7.87882 56.8168 7.87882C56.2258 7.87882 55.7529 7.5242 55.5165 6.93317H59.7719V6.57855C59.8901 4.92368 58.5899 3.62341 56.935 3.50521ZM55.5165 5.63291C55.6347 5.16009 56.1076 4.80547 56.6986 4.80547C57.2896 4.80547 57.7624 5.16009 57.9988 5.63291H55.5165Z" fill="#939598"/>
<path d="M60.7178 11.6626H61.7816V11.899H61.427V12.9629H61.1906V11.899H60.836L60.7178 11.6626Z" fill="#53565A"/>
<path d="M61.9004 11.6626H62.1368L62.4915 12.7264L62.8461 11.6626H63.2007V12.9629H62.9643V12.0172L62.6097 12.9629H62.3733L62.0186 12.0172V12.9629H61.7822L61.9004 11.6626Z" fill="#53565A"/>
<path d="M28.0935 16.9805C28.0935 17.5715 27.8571 18.1625 27.3843 18.5171C26.7932 18.8718 26.084 19.1082 25.3748 19.1082C24.6655 19.1082 23.9563 18.99 23.2471 18.6353V17.2169C23.6017 17.4533 24.0745 17.5715 24.5473 17.6897C24.9019 17.8079 25.1384 17.8079 25.493 17.8079C25.7294 17.8079 26.084 17.8079 26.3204 17.5715C26.5568 17.4533 26.5568 17.2169 26.5568 16.9805C26.5568 16.8623 26.5568 16.7441 26.4386 16.6259C26.3204 16.5076 26.2022 16.3894 26.084 16.2712C25.7294 16.0348 25.493 15.9166 25.1384 15.7984C24.7837 15.6802 24.4291 15.4438 24.0745 15.2074C23.8381 14.971 23.7199 14.7346 23.4835 14.4981C23.3653 14.2617 23.2471 13.9071 23.2471 13.5525C23.2471 12.9615 23.4835 12.3704 23.9563 12.0158C24.4291 11.6612 25.1384 11.4248 25.8476 11.4248C26.2022 11.4248 26.5568 11.4248 26.9114 11.543C27.2661 11.6612 27.6207 11.7794 27.9753 11.8976L27.5025 13.0797C27.2661 13.0797 26.9114 12.9615 26.675 12.9615C26.4386 12.8433 26.2022 12.8433 25.9658 12.8433C25.7294 12.8433 25.493 12.8433 25.2566 13.0797C25.1384 13.1979 25.0202 13.4343 25.0202 13.5525C25.0202 13.6707 25.0202 13.7889 25.1384 13.9071C25.2566 14.0253 25.3748 14.1435 25.493 14.2617C25.8476 14.4982 26.2022 14.6164 26.4386 14.7346C27.0296 14.971 27.5025 15.3256 27.8571 15.6802C27.9753 16.153 28.2117 16.5076 28.0935 16.9805Z" fill="#53565A"/>
<path d="M33.649 19.1095H29.3936V11.6626H33.649V12.9629H30.9302V14.6177H33.4125V15.918H30.9302V17.8093H33.649V19.1095Z" fill="#53565A"/>
<path d="M38.0229 12.8447C37.4318 12.8447 36.959 13.0811 36.6044 13.5539C36.2498 14.1449 36.1316 14.7359 36.1316 15.4452C36.1316 17.1001 36.7226 17.9275 38.0229 17.9275C38.6139 17.9275 39.3231 17.8093 39.9142 17.5729V18.8731C39.3231 19.1095 38.6139 19.2278 37.9047 19.2278C36.959 19.2278 36.0134 18.8731 35.4224 18.2821C34.8313 17.4547 34.4767 16.3908 34.5949 15.4452C34.5949 14.7359 34.7131 14.1449 35.0677 13.4357C35.3041 12.8447 35.777 12.3718 36.2498 12.1354C36.8408 11.7808 37.4318 11.6626 38.0229 11.6626C38.7321 11.6626 39.5595 11.899 40.1506 12.1354L39.6778 13.3175C39.4413 13.1993 39.0867 13.0811 38.8503 12.9629C38.6139 12.8447 38.2593 12.8447 38.0229 12.8447Z" fill="#53565A"/>
<path d="M47.2424 11.6626V16.3908C47.2424 16.8636 47.1242 17.3365 46.8878 17.8093C46.6514 18.2821 46.2967 18.5185 45.8239 18.7549C45.3511 18.9913 44.7601 19.1095 44.169 19.1095C43.3416 19.1095 42.6324 18.8731 41.9231 18.4003C41.3321 17.9275 41.0957 17.1001 41.0957 16.3908V11.6626H42.6324V16.1544C42.6324 16.6272 42.7506 17.1001 42.987 17.4547C43.3416 17.8093 43.6962 17.9275 44.169 17.8093C44.5237 17.8093 44.9965 17.6911 45.2329 17.4547C45.4693 17.1001 45.5875 16.6272 45.5875 16.1544V11.6626H47.2424Z" fill="#53565A"/>
<path d="M50.317 16.2717V19.1087H48.6621V11.6617H50.7898C51.6173 11.5435 52.3265 11.7799 53.0357 12.2527C53.5085 12.6074 53.8632 13.3166 53.8632 13.9076C53.8632 14.3804 53.745 14.7351 53.5085 15.0897C53.2721 15.4443 52.9175 15.6807 52.4447 15.9171L54.5724 19.1087H52.7993L51.0262 16.2717H50.317ZM50.317 14.9715H50.7898C51.1444 14.9715 51.499 14.9715 51.8537 14.7351C52.0901 14.4986 52.2083 14.2622 52.2083 14.0258C52.2083 13.6712 52.0901 13.4348 51.8537 13.3166C51.6172 12.962 51.2626 12.962 50.7898 12.962H50.317V14.9715Z" fill="#53565A"/>
<path d="M59.6538 19.1095H55.3984V11.6626H59.6538V12.9629H56.9351V14.6177H59.4174V15.918H56.9351V17.8093H59.6538V19.1095Z" fill="#53565A"/>
<path d="M4.57071 15.7992V6.93376L10.1264 9.53428V5.27888L0.669922 0.905273V18.2815L10.1264 22.6551V18.3997L4.57071 15.7992Z" fill="#939598"/>
<path d="M15.6816 15.7989V6.93351L10.126 9.53404V5.27864L19.4642 0.905029V18.2812L10.126 22.6549V18.3995L15.6816 15.7989Z" fill="#727477"/>
</svg>
