<svg width="22" height="35" viewBox="0 0 22 35" fill="none" xmlns="http://www.w3.org/2000/svg">
<path d="M11.6355 15.1572V13.8588H14.712L22 1L15.5 -0.5L11 7.53055L6.5 -0.5L0 1L7.28843 13.8588H10.3645V15.1572C5.21806 15.49 1.09852 19.85 1.09852 25.0665C1.09852 30.5443 5.54046 35 11 35C16.4604 35 20.9015 30.5443 20.9015 25.0665C20.9015 19.8505 16.7811 15.4895 11.6355 15.1572ZM14.3189 29.8316L11 27.4129L7.68115 29.8312L8.9487 25.9173L5.62985 23.4982H9.73245L11 19.5853L12.2676 23.4982H16.3697L13.0513 25.9173L14.3189 29.8316Z" fill="#2D73F6"/>
</svg>
