<svg width="26" height="42" viewBox="0 0 26 42" fill="none" xmlns="http://www.w3.org/2000/svg">
<path fill-rule="evenodd" clip-rule="evenodd" d="M3.93985 24.5116C6.34862 26.4063 9.38422 27.5359 12.6829 27.5359C15.9816 27.5359 19.0172 26.4063 21.426 24.5116C21.8958 26.2698 22.3936 28.1329 22.9194 30.1009C23.8165 33.4581 24.6319 36.5101 25.3659 39.257L20.1891 38.1946L16.2356 41.7103C15.3408 38.3614 14.5254 35.3094 13.7892 32.5543C13.4385 31.2415 13.0697 29.8614 12.6829 28.4139L11.5767 32.5543C10.8427 35.3011 10.0273 38.3531 9.13022 41.7103L5.17672 38.1946L0 39.257L2.44644 30.1009L3.93985 24.5116ZM12.6829 25.6401C5.89646 25.6401 0.394936 20.123 0.394936 13.3174C0.394936 6.51167 5.89646 0.994568 12.6829 0.994568C19.4694 0.994568 24.9709 6.51167 24.9709 13.3174C24.9709 20.123 19.4694 25.6401 12.6829 25.6401ZM12.6829 15.5641L10.0492 16.9527L10.5522 14.0116L8.42142 11.9288L11.3661 11.4997L12.6829 8.82385L13.9998 11.4997L16.9444 11.9288L14.8137 14.0116L15.3167 16.9527L12.6829 15.5641ZM7.53839 20.4182L12.6829 17.7059L17.8275 20.4182L16.8449 14.6735L21.007 10.6051L15.2552 9.7669L12.6829 4.54016L10.1107 9.7669L4.35889 10.6051L8.52091 14.6735L7.53839 20.4182Z" fill="#C31A49"/>
</svg>
