<svg width="43" height="43" viewBox="0 0 43 43" fill="none" xmlns="http://www.w3.org/2000/svg">
<path d="M25.7228 18.064C25.5293 18.8655 25.276 19.6509 24.9663 20.4155C25.4877 22.024 26.6171 23.3301 28.0556 24.0994L28.0012 23.6083C27.7761 21.5832 26.9732 19.6597 25.7228 18.064Z" fill="#2D73F6"/>
<path d="M26.8749 38.2969H26.6431C26.3025 39.0346 26.0163 39.7992 25.8187 40.5893L25.72 40.9844H31.793C31.7259 40.8493 31.664 40.7129 31.6016 40.5759C30.4486 39.128 28.7286 38.2969 26.8749 38.2969Z" fill="#2D73F6"/>
<path d="M32.6155 26.203H31.0709C29.2588 26.203 27.5536 25.5587 26.2031 24.4702V27.1402C26.2031 28.3765 26.5149 29.5785 27.1041 30.6542C28.2866 29.9447 29.5538 29.4038 30.8901 29.0504C31.2912 28.011 31.8737 27.0502 32.6155 26.203Z" fill="#2D73F6"/>
<path d="M30.4386 30.5845C29.3361 30.95 28.2886 31.4552 27.3137 32.0975C26.5989 32.8306 26.2031 33.79 26.2031 34.7716C26.2031 35.5416 26.3597 36.2766 26.6425 36.9532H26.875C28.249 36.9532 29.5605 37.3321 30.6966 38.0208C30.3956 36.8349 30.2344 35.6135 30.2344 34.3792V32.5208C30.2344 31.8617 30.3103 31.2154 30.4386 30.5845Z" fill="#2D73F6"/>
<path d="M40.3125 2.01562H32.7432C32.4113 2.01562 32.125 2.26355 32.0787 2.59209L31.8617 4.10986C31.648 5.60545 30.4521 6.78056 28.9531 6.96802L22.5333 7.77023C21.0875 7.95097 19.6927 8.37291 18.3885 9.0253C14.8209 10.8085 12.2537 14.2135 11.5186 18.1326L11.1901 19.8855C13.5739 18.3328 16.3917 17.4688 19.2653 17.4688H19.5139C20.5728 17.4688 21.5746 16.9084 22.1289 16.0054L22.2713 15.7736L23.4169 16.4757L23.2744 16.7082C22.4769 18.0063 21.0364 18.8125 19.5139 18.8125H19.2653C15.6493 18.8125 12.2631 20.2248 9.73211 22.788L9.66492 22.8558C8.94602 23.5835 8.30706 24.3911 7.76755 25.2565L2.01562 34.4585V40.6814L6.74697 38.8787C11.7444 36.9753 15.3544 32.51 16.1667 27.225L16.2365 26.7702L16.686 26.6707C16.8614 26.6318 17.0354 26.5881 17.2081 26.5391C19.2653 25.9512 21.0304 24.6336 22.1793 22.8283L22.4393 22.4205C24.0229 19.9318 24.8594 17.0582 24.8594 14.1094H26.2031C26.2031 14.8733 26.148 15.6325 26.0459 16.3823C27.8727 18.3167 29.0425 20.8127 29.3368 23.4605L29.4691 24.6524C29.9851 24.7868 30.5219 24.8594 31.0709 24.8594H36.0636C38.2855 24.8594 40.248 23.4592 40.9844 21.3697V2.6875C40.9844 2.3173 40.6834 2.01562 40.3125 2.01562ZM32.25 22.1719C31.5076 22.1719 30.9062 21.5705 30.9062 20.8281C30.9062 20.0857 31.5076 19.4844 32.25 19.4844C32.9924 19.4844 33.5938 20.0857 33.5938 20.8281C33.5938 21.5705 32.9924 22.1719 32.25 22.1719Z" fill="#2D73F6"/>
<path d="M36.0636 26.2034H34.521C33.0381 27.4544 32.0653 29.1529 31.7246 31.0281C32.8547 30.5081 34.0849 30.2346 35.344 30.2346H40.9844V23.9849C39.7649 25.3656 37.9905 26.2034 36.0636 26.2034Z" fill="#2D73F6"/>
<path d="M31.5781 32.6249V34.3792C31.5781 34.791 31.6043 35.2009 31.6413 35.6094H40.9844V31.5781H35.344C34.0096 31.5781 32.717 31.9416 31.5781 32.6249Z" fill="#2D73F6"/>
<path d="M33.3168 40.9844H40.9842V36.9531H31.8306C32.1054 38.3641 32.6073 39.7239 33.3168 40.9844Z" fill="#2D73F6"/>
</svg>
