<svg width="35" height="32" viewBox="0 0 35 32" fill="none" xmlns="http://www.w3.org/2000/svg">
<path d="M19.3784 0.0101314C18.7801 0.0553523 18.2131 0.208435 17.66 0.472802C15.959 1.29373 14.9189 3.01211 14.9815 4.89399C15.0059 5.62448 15.1763 6.28192 15.5033 6.91154C15.7468 7.38461 15.9625 7.67335 16.3799 8.09077C16.8008 8.51515 17.093 8.73081 17.5661 8.97083C17.7504 9.06475 17.907 9.14474 17.9104 9.14822C17.9174 9.15518 17.1486 11.3049 17.1278 11.3188C17.1243 11.3223 16.9886 11.2945 16.8217 11.2632C15.8964 11.0753 14.8563 11.1519 13.9588 11.4754C13.117 11.778 12.3205 12.3102 11.7569 12.9502L11.5761 13.1555L9.45416 11.5449C8.28537 10.6614 7.31487 9.91699 7.29399 9.8996C7.25921 9.86829 7.26965 9.83348 7.34965 9.66303C7.56184 9.20039 7.64185 8.80037 7.62098 8.30294C7.58619 7.55506 7.29747 6.89763 6.76178 6.3689C6.35479 5.96539 5.8678 5.71145 5.24514 5.57927C5.01208 5.53057 4.43813 5.53403 4.17376 5.59316C2.79974 5.88536 1.85358 7.04371 1.85358 8.43512C1.85358 10.2509 3.52328 11.618 5.30428 11.2632C5.55821 11.211 5.90259 11.0893 6.10782 10.9779C6.29914 10.8736 6.5809 10.6718 6.67134 10.5744C6.70612 10.5396 6.74439 10.5083 6.75482 10.5083C6.77222 10.5083 11.0125 13.712 11.0891 13.7851C11.103 13.799 11.0612 13.9103 10.9812 14.0599C10.0699 15.8061 10.1777 17.935 11.2595 19.5664C11.3639 19.7195 11.4334 19.8586 11.423 19.869C11.4091 19.8795 10.5534 20.6865 9.52025 21.657L7.63837 23.4241L7.48531 23.2745C6.92875 22.7458 6.13912 22.3457 5.32167 22.1823C5.07122 22.1301 4.95643 22.1231 4.45204 22.1231C3.94766 22.1266 3.83634 22.1336 3.5998 22.1823C2.18057 22.4918 1.04657 23.3719 0.441304 24.645C-0.0596032 25.6956 -0.136131 26.847 0.222157 27.9462C0.66393 29.3098 1.71792 30.3707 3.06411 30.8125C3.5998 30.9864 3.79808 31.0177 4.46248 31.0177C5.13383 31.0177 5.33559 30.9899 5.89563 30.802C6.83483 30.489 7.67315 29.8385 8.21928 28.9967C9.05413 27.7096 9.16544 26.0538 8.508 24.6694C8.44191 24.5337 8.34103 24.3355 8.27494 24.2346C8.20885 24.1302 8.16015 24.0398 8.1671 24.0259C8.17058 24.0154 9.02978 23.2049 10.0664 22.224L11.9622 20.4465L12.1674 20.6273C12.9431 21.3126 13.8441 21.7474 14.8493 21.9248C16.1816 22.1544 17.6113 21.8587 18.7383 21.1143C18.8914 21.0135 19.0201 20.93 19.0271 20.93C19.034 20.93 22.3803 24.8468 22.4917 24.9859C22.523 25.0242 22.516 25.0416 22.4256 25.1494C21.9247 25.7408 21.6151 26.36 21.4585 27.0939C21.4064 27.327 21.3994 27.4383 21.3994 27.894C21.3994 28.4749 21.4342 28.7253 21.5942 29.1949C22.0255 30.4924 23.1004 31.5047 24.4257 31.8595C25.5493 32.1621 26.7668 31.9708 27.7373 31.3342C28.0086 31.1568 28.106 31.0768 28.3669 30.8229C28.9791 30.2211 29.3652 29.5046 29.5357 28.6593C29.6122 28.2732 29.6192 27.5705 29.5461 27.1844C29.2296 25.466 27.9182 24.1546 26.2067 23.8415C25.8137 23.7719 25.198 23.7685 24.8258 23.8346C24.297 23.9285 23.8065 24.1093 23.3648 24.3772C23.2361 24.4537 23.1213 24.5128 23.1143 24.4989C23.1074 24.485 22.3282 23.5737 21.3855 22.4675C20.4428 21.3648 19.6601 20.443 19.6497 20.4256C19.6358 20.4047 19.681 20.3386 19.7784 20.2308C20.4428 19.5142 20.9263 18.5263 21.1072 17.5071C21.1768 17.114 21.1977 16.3383 21.149 15.9627L21.1142 15.6948L21.2672 15.6252C21.3542 15.587 23.1978 14.7452 25.3649 13.7573L29.3096 11.9589L29.3861 12.0563C29.5287 12.2406 29.8487 12.5606 30.0192 12.6893C30.2383 12.8563 30.6975 13.0824 30.9793 13.1624C32.0924 13.4755 33.3133 13.1137 34.0612 12.2511C34.5239 11.7154 34.7569 11.1136 34.7813 10.4144C34.7952 10.0005 34.7674 9.73262 34.6561 9.38825C34.343 8.40731 33.5568 7.65595 32.562 7.3881C32.2489 7.30462 31.6993 7.2733 31.3584 7.32199C30.7427 7.41244 30.127 7.72898 29.6713 8.19163C28.9478 8.92559 28.6452 10.0144 28.8956 10.9849C28.9304 11.1205 28.9513 11.2388 28.9408 11.2493C28.8991 11.2945 20.9368 14.9052 20.9228 14.8878C20.9124 14.8773 20.8602 14.7521 20.8081 14.6165C20.3419 13.3955 19.3679 12.3311 18.1713 11.7432C18.0113 11.6667 17.8791 11.5971 17.8791 11.5901C17.8791 11.5728 18.6583 9.43345 18.6688 9.41954C18.6722 9.41606 18.8044 9.42997 18.954 9.45432C19.354 9.51694 19.7784 9.53088 20.1332 9.49957C22.1577 9.3013 23.8205 7.88204 24.3075 5.93058C24.4257 5.45751 24.4605 5.12706 24.4431 4.60528C24.4188 3.83305 24.2727 3.27996 23.9179 2.58774C23.2708 1.31808 22.0255 0.382333 20.6341 0.114486C20.2237 0.0101314 19.7784 -0.0176976 19.3784 0.0101314ZM20.3141 1.36329C20.5576 1.42938 20.8707 1.58245 21.0376 1.71811C21.1907 1.84333 21.3611 2.03811 21.3368 2.06246C21.3298 2.06942 21.1733 2.04855 20.9924 2.01725C20.5993 1.94768 19.9349 1.93376 19.6845 1.99289C19.2601 2.08681 18.8218 2.28509 18.38 2.58424C17.5278 3.1582 17.1243 3.71479 16.8843 4.66442C16.8565 4.77921 16.8182 4.91833 16.8043 4.97399L16.7799 5.07835L16.7138 4.94963C16.533 4.59482 16.4808 4.18437 16.5608 3.78087C16.7277 2.95645 17.3817 2.15293 18.2548 1.69029C18.5401 1.54071 18.9575 1.39809 19.2601 1.34243C19.5349 1.29026 20.0776 1.30416 20.3141 1.36329ZM5.02948 6.35151C5.22775 6.38629 5.51995 6.53935 5.63126 6.66457C5.68344 6.72023 5.71822 6.77587 5.71127 6.78282C5.70431 6.78978 5.59995 6.77936 5.48516 6.76197C5.15818 6.70631 4.81729 6.71675 4.5877 6.78632C4.19115 6.90807 3.72503 7.20375 3.43979 7.51681C3.25543 7.71509 3.10933 8.01076 3.01541 8.36209L2.94236 8.62994L2.88671 8.51166C2.81018 8.33773 2.77191 8.13947 2.79279 7.96902C2.89366 7.00547 4.04853 6.16714 5.02948 6.35151ZM32.2211 8.14295C32.2976 8.1673 32.4055 8.20901 32.4646 8.23684C32.5655 8.28902 32.8403 8.52904 32.8403 8.5673C32.8403 8.57773 32.7498 8.57078 32.642 8.54991C32.3533 8.49425 31.9115 8.49773 31.7063 8.54991C31.2228 8.67861 30.6036 9.10302 30.3427 9.48218C30.2105 9.6735 30.0888 9.95526 30.0261 10.2127C29.9914 10.3449 29.96 10.4527 29.9531 10.4527C29.9044 10.4527 29.8174 10.1674 29.807 9.9761C29.7931 9.7013 29.8313 9.52043 29.9705 9.24215C30.374 8.43165 31.421 7.92032 32.2211 8.14295ZM16.446 12.7172C16.7138 12.7833 17.0791 12.9572 17.2774 13.1137C17.4443 13.2494 17.653 13.4964 17.6113 13.5103C17.5974 13.5138 17.4756 13.5033 17.3434 13.479C16.8634 13.399 16.7104 13.3851 16.359 13.3851C15.9346 13.3851 15.5868 13.4442 15.2389 13.5799C14.4667 13.879 13.6527 14.4599 13.2144 15.0235C12.8701 15.4652 12.7031 15.8339 12.5153 16.5679C12.47 16.7488 12.4248 16.9053 12.4144 16.9123C12.39 16.9366 12.2231 16.554 12.1744 16.3592C12.15 16.2479 12.1326 16.0775 12.1326 15.9001C12.1361 14.4426 13.5971 12.9537 15.2876 12.6789C15.6181 12.6267 16.1503 12.6442 16.446 12.7172ZM5.06078 23.3858C5.36341 23.4658 5.60343 23.6015 5.82258 23.8172C5.92346 23.918 6.00694 24.012 6.00694 24.0259C6.00694 24.0398 5.84693 24.0224 5.65213 23.9911C4.68162 23.8276 4.0381 23.9702 3.21717 24.5163C2.38232 25.0764 1.99273 25.6434 1.75966 26.6417C1.73531 26.753 1.70401 26.8435 1.69705 26.8435C1.66227 26.8435 1.52312 26.4921 1.49182 26.3321C1.41877 25.9634 1.50573 25.4521 1.70749 25.052C2.02055 24.4294 2.64321 23.8589 3.31804 23.5702C3.53719 23.4763 3.89896 23.3719 4.10767 23.3371C4.34769 23.3023 4.82772 23.3267 5.06078 23.3858ZM26.0224 24.9477C26.3076 25.0242 26.5754 25.1738 26.7529 25.3616C26.8433 25.4556 26.9094 25.5356 26.9024 25.546C26.8955 25.5564 26.7668 25.5425 26.6207 25.5147C26.4259 25.4799 26.238 25.466 25.9284 25.4695C25.5423 25.4729 25.4832 25.4764 25.2745 25.5425C24.704 25.7164 24.0292 26.1547 23.6291 26.6104C23.3474 26.9304 23.1769 27.2853 23.0378 27.8314C22.9439 28.1862 22.93 28.1862 22.8186 27.887C22.7247 27.6261 22.7073 27.2435 22.7839 26.9478C23.0761 25.7964 24.3631 24.8538 25.5841 24.8955C25.7406 24.9025 25.9354 24.9268 26.0224 24.9477Z" fill="#2D73F6"/>
</svg>
