<svg width="74" height="18" viewBox="0 0 74 18" fill="none" xmlns="http://www.w3.org/2000/svg">
<path opacity="0.6" fill-rule="evenodd" clip-rule="evenodd" d="M70.8747 4.41611L69.218 14.9553C69.1859 15.1596 69.3437 15.3441 69.5504 15.3441H71.2166C71.4925 15.3441 71.7275 15.1432 71.7705 14.8708L73.4039 4.52078C73.4362 4.31651 73.2783 4.13184 73.0715 4.13184H71.207C71.0414 4.13184 70.9004 4.25247 70.8747 4.41611Z" fill="white"/>
<path opacity="0.6" fill-rule="evenodd" clip-rule="evenodd" d="M65.9046 11.6274C65.718 12.7318 64.8414 13.4732 63.7232 13.4732C63.1624 13.4732 62.7138 13.2929 62.4252 12.9515C62.1393 12.613 62.0317 12.1308 62.1224 11.5938C62.2964 10.4994 63.1871 9.73402 64.2885 9.73402C64.8372 9.73402 65.2829 9.91615 65.577 10.2606C65.8731 10.6077 65.9893 11.0931 65.9046 11.6274ZM68.5975 7.86555H66.6648C66.4991 7.86555 66.3582 7.98582 66.3324 8.14964L66.2473 8.69006L66.1124 8.49413C65.6937 7.88659 64.7609 7.68359 63.8293 7.68359C61.6941 7.68359 59.8699 9.30177 59.5149 11.5714C59.3302 12.7036 59.5925 13.7855 60.2343 14.5407C60.8243 15.2346 61.6658 15.5234 62.6687 15.5234C64.3899 15.5234 65.3445 14.4177 65.3445 14.4177L65.2583 14.9549C65.2258 15.1591 65.3836 15.344 65.5906 15.344H67.3311C67.607 15.344 67.8419 15.1434 67.8851 14.8707L68.9298 8.25431C68.9621 8.05004 68.8043 7.86555 68.5975 7.86555Z" fill="white"/>
<path opacity="0.6" fill-rule="evenodd" clip-rule="evenodd" d="M56.9973 7.9119C56.7767 9.36082 55.6701 9.36082 54.5998 9.36082H53.9908L54.418 6.65563C54.4438 6.49218 54.5848 6.37173 54.7504 6.37173H55.0296C55.7579 6.37173 56.4462 6.37173 56.801 6.78679C57.0133 7.03514 57.0775 7.40322 56.9973 7.9119ZM56.5314 4.13184H52.4949C52.219 4.13184 51.984 4.33266 51.941 4.60532L50.3089 14.9553C50.2766 15.1594 50.4344 15.3441 50.6412 15.3441H52.7122C52.9054 15.3441 53.07 15.2035 53.0999 15.0126L53.5628 12.0785C53.6058 11.8058 53.8408 11.605 54.1167 11.605H55.394C58.0527 11.605 59.5871 10.3183 59.9882 7.7682C60.1687 6.65289 59.9955 5.7765 59.4732 5.16297C58.8992 4.48849 57.8819 4.13184 56.5314 4.13184Z" fill="white"/>
<path fill-rule="evenodd" clip-rule="evenodd" d="M50.1025 7.86548H48.1598C47.974 7.86548 47.8002 7.95763 47.6959 8.11129L45.0161 12.0582L43.8803 8.26549C43.8094 8.0282 43.591 7.86548 43.3432 7.86548H41.4335C41.2029 7.86548 41.0405 8.09224 41.1149 8.31048L43.2541 14.5894L41.2421 17.4285C41.0841 17.6513 41.2435 17.9595 41.5166 17.9595H43.4575C43.6414 17.9595 43.8136 17.8693 43.9184 17.718L50.3791 8.39374C50.5337 8.17061 50.3741 7.86548 50.1025 7.86548Z" fill="white"/>
<path fill-rule="evenodd" clip-rule="evenodd" d="M37.1147 11.6274C36.9281 12.7318 36.0513 13.4732 34.9331 13.4732C34.3725 13.4732 33.9237 13.2929 33.6353 12.9515C33.3494 12.613 33.2418 12.1308 33.3323 11.5938C33.5065 10.4994 34.3972 9.73402 35.4984 9.73402C36.0473 9.73402 36.4928 9.91615 36.7871 10.2606C37.0832 10.6077 37.1994 11.0931 37.1147 11.6274ZM39.8076 7.86555H37.8748C37.7092 7.86555 37.5683 7.98582 37.5425 8.14964L37.4574 8.69006L37.3223 8.49413C36.9038 7.88659 35.9709 7.68359 35.0394 7.68359C32.904 7.68359 31.0799 9.30177 30.7249 11.5714C30.5401 12.7036 30.8024 13.7855 31.4444 14.5407C32.0342 15.2346 32.8759 15.5234 33.8787 15.5234C35.6 15.5234 36.5545 14.4177 36.5545 14.4177L36.4682 14.9549C36.4359 15.1591 36.5937 15.344 36.8005 15.344H38.5412C38.8171 15.344 39.052 15.1434 39.095 14.8707L40.1399 8.25431C40.1722 8.05004 40.0144 7.86555 39.8076 7.86555Z" fill="white"/>
<path fill-rule="evenodd" clip-rule="evenodd" d="M28.2096 7.9119C27.9891 9.36082 26.8825 9.36082 25.8123 9.36082H25.2033L25.6304 6.65563C25.6563 6.49218 25.7973 6.37173 25.9627 6.37173H26.2419C26.9704 6.37173 27.6587 6.37173 28.0134 6.78679C28.2258 7.03514 28.29 7.40322 28.2096 7.9119ZM27.7435 4.13184H23.7069C23.431 4.13184 23.1961 4.33266 23.1531 4.60532L21.5208 14.9553C21.4887 15.1594 21.6465 15.3441 21.8531 15.3441H23.7804C24.0563 15.3441 24.2914 15.1432 24.3344 14.8708L24.7749 12.0785C24.8177 11.8058 25.0528 11.605 25.3287 11.605H26.606C29.2646 11.605 30.7992 10.3183 31.2002 7.7682C31.3808 6.65289 31.2075 5.7765 30.6852 5.16297C30.1111 4.48849 29.0937 4.13184 27.7435 4.13184Z" fill="white"/>
<mask id="mask0" mask-type="alpha" maskUnits="userSpaceOnUse" x="0" y="0" width="74" height="18">
<path fill-rule="evenodd" clip-rule="evenodd" d="M73.4081 17.9596V0.148926H0.0107422V17.9596H73.4081Z" fill="white"/>
</mask>
<g mask="url(#mask0)">
<path opacity="0.6" fill-rule="evenodd" clip-rule="evenodd" d="M13.6032 4.67384C13.8205 3.28841 13.6018 2.34562 12.8524 1.49172C12.0273 0.551656 10.5368 0.148926 8.62986 0.148926H3.09413C2.70446 0.148926 2.37266 0.43247 2.31189 0.817422L0.00689611 15.4342C-0.0386378 15.7226 0.184315 15.9833 0.476204 15.9833H3.89361L3.65777 17.479C3.61804 17.7314 3.81288 17.9596 4.0683 17.9596H6.94873C7.28978 17.9596 7.58004 17.7114 7.63319 17.3747L7.66149 17.2283L8.20409 13.7873L8.2391 13.5972C8.29225 13.2603 8.58251 13.0123 8.92338 13.0123H9.35423C12.1449 13.0123 14.3299 11.8785 14.9683 8.59973C15.2352 7.22972 15.0973 6.08611 14.3918 5.2821C14.1783 5.03901 13.9129 4.83783 13.6032 4.67384Z" fill="white"/>
<path opacity="0.6" fill-rule="evenodd" clip-rule="evenodd" d="M13.6032 4.67384C13.8205 3.28841 13.6018 2.34562 12.8524 1.49172C12.0273 0.551656 10.5368 0.148926 8.62986 0.148926H3.09413C2.70446 0.148926 2.37266 0.43247 2.31189 0.817422L0.00689611 15.4342C-0.0386378 15.7226 0.184315 15.9833 0.476204 15.9833H3.89361L4.75204 10.5399L4.72537 10.7106C4.78614 10.3257 5.11522 10.0419 5.50489 10.0419H7.12923C10.3191 10.0419 12.8168 8.74595 13.5466 4.99802C13.5682 4.88717 13.5867 4.7796 13.6032 4.67384Z" fill="white"/>
<path fill-rule="evenodd" clip-rule="evenodd" d="M5.67317 4.69234C5.70981 4.46068 5.85839 4.27111 6.05848 4.17514C6.14955 4.1316 6.25114 4.10729 6.35763 4.10729H10.6968C11.2109 4.10729 11.6902 4.14103 12.1283 4.2116C12.2536 4.23174 12.3754 4.25496 12.4938 4.28126C12.6121 4.30739 12.7271 4.33678 12.8383 4.36943C12.894 4.38558 12.9486 4.40263 13.0025 4.42059C13.2176 4.49188 13.4179 4.57624 13.6022 4.67384C13.8196 3.28841 13.6008 2.34562 12.8514 1.49172C12.0263 0.551656 10.5359 0.148926 8.62888 0.148926H3.09316C2.70349 0.148926 2.37169 0.43247 2.31091 0.817422L0.00591955 15.4342C-0.0396144 15.7226 0.183339 15.9833 0.475227 15.9833H3.89263L5.67317 4.69234Z" fill="white"/>
</g>
</svg>
