<svg width="37" height="22" viewBox="0 0 37 22" fill="none" xmlns="http://www.w3.org/2000/svg">
<path d="M35.9459 4.05187C36.4226 5.49592 35.6559 5.9329 34.9792 6.05516C32.9452 2.51408 27.8176 0 21.8093 0C17.8181 0 14.2181 1.11168 11.652 2.894L11.6501 2.88992C11.6501 2.88992 10.6217 -0.0937347 6.78284 0.198337C6.78284 0.198337 8.49982 1.45402 7.70149 3.83542C7.70149 3.83542 4.55163 5.00461 2.73628 8.77165H0.00137375C0.00137375 9.65828 0.00228862 10.5454 1.14156e-06 11.432C1.14156e-06 11.5081 -0.000456053 11.5855 0.0169288 11.6598C0.0379736 11.7494 0.0832656 11.8318 0.12993 11.9115C0.748007 12.9766 1.62548 13.8809 2.5844 14.6516C3.82284 15.6469 5.22689 16.4312 6.68813 17.0579C8.17591 17.6964 9.7314 18.1736 11.3102 18.5359C11.3102 18.5359 12.0976 20.008 11.8569 22H16.5815C16.5815 22 17.9581 20.474 18.1777 18.5631L18.1763 18.5594C19.3361 18.7659 20.5521 18.8791 21.8088 18.8791C23.647 18.8791 25.4011 18.6414 27.0119 18.2135L26.9987 18.2198C28.1406 19.4624 27.7375 22 27.7375 22H32.0247C33.9279 19.4234 32.64 15.4879 32.64 15.4879L32.6355 15.4902C34.6832 13.8519 35.9171 11.7422 35.9171 9.43957C35.9171 8.73905 35.7995 8.0571 35.5831 7.40005C35.9789 7.33258 36.731 7.07628 36.9538 6.10044C37.2598 4.75692 35.9459 4.05187 35.9459 4.05187ZM8.00892 9.57723C7.38215 9.57723 6.87388 9.07414 6.87388 8.45377C6.87388 7.8334 7.38215 7.33031 8.00892 7.33031C8.63569 7.33031 9.14397 7.8334 9.14397 8.45377C9.14397 9.07459 8.63569 9.57723 8.00892 9.57723ZM26.7997 3.37127C25.3407 2.67483 23.615 2.30669 21.8088 2.30669C19.6577 2.30669 17.6035 2.83694 16.0243 3.8001C15.9497 3.84583 15.8664 3.86712 15.785 3.86712C15.6317 3.86712 15.4812 3.79059 15.3947 3.65157C15.2621 3.43874 15.3293 3.15981 15.5443 3.02849C17.2654 1.97884 19.4902 1.40058 21.8088 1.40058C23.7514 1.40058 25.6147 1.79952 27.1972 2.55483C27.4246 2.66351 27.5202 2.9343 27.4104 3.15935C27.3006 3.38531 27.0261 3.47905 26.7997 3.37127Z" fill="#2D73F6"/>
</svg>
