<svg width="90" height="90" viewBox="0 0 90 90" fill="none" xmlns="http://www.w3.org/2000/svg">
<circle opacity="0.6" cx="45" cy="45" r="45" fill="white"/>
<circle cx="45" cy="45" r="36" fill="#DE2B70"/>
<path d="M53.22 45.52L39.9713 54.3525C39.8771 54.4152 39.7678 54.4511 39.6549 54.4565C39.5419 54.4619 39.4297 54.4366 39.33 54.3832C39.2303 54.3298 39.147 54.2504 39.0889 54.1535C39.0308 54.0565 39.0001 53.9456 39 53.8325V36.1675C39.0001 36.0545 39.0308 35.9436 39.0889 35.8466C39.147 35.7496 39.2303 35.6702 39.33 35.6168C39.4297 35.5635 39.5419 35.5382 39.6549 35.5436C39.7678 35.549 39.8771 35.5849 39.9713 35.6475L53.22 44.48C53.3056 44.5371 53.3758 44.6144 53.4243 44.7051C53.4729 44.7959 53.4983 44.8971 53.4983 45C53.4983 45.1029 53.4729 45.2042 53.4243 45.2949C53.3758 45.3856 53.3056 45.4629 53.22 45.52Z" fill="white"/>
</svg>
