<svg width="39" height="25" viewBox="0 0 39 25" fill="none" xmlns="http://www.w3.org/2000/svg">
<path d="M0.238099 17.9662C-0.0606849 16.6166 -0.0163659 15.2184 0.0436773 14.2849C0.185206 12.0561 0.869977 9.85446 2.07655 7.7386C2.60264 6.81649 3.24452 5.91582 3.92643 5.10236C6.2781 2.29742 9.77058 0.530392 13.3688 0.0100063L13.446 -3.504e-06L13.8263 1.12655L13.7377 1.15657C11.8578 1.80133 10.3338 2.52187 9.21018 3.29816C8.09082 4.07303 7.09439 5.11094 6.25237 6.38188C5.56331 7.40693 5.00863 8.43913 4.59977 9.45416C5.84351 8.75078 7.25165 8.37908 8.69124 8.37908C13.2731 8.37908 17 12.1061 17 16.6895C17 21.2715 13.2716 25 8.69124 25C7.90211 25 7.01577 24.8656 6.19661 24.6211C4.86996 24.2251 3.56618 23.3945 2.52687 22.2794C1.95646 21.669 1.4318 20.9041 1.01008 20.0663C0.652679 19.3644 0.386775 18.6381 0.238099 17.9662Z" fill="white" fill-opacity="0.8"/>
<path d="M22.2381 17.9662C21.9393 16.6166 21.9836 15.2184 22.0437 14.2849C22.1852 12.0561 22.8699 9.85446 24.0764 7.7386C24.6024 6.81649 25.2442 5.91582 25.9261 5.10236C28.2776 2.29742 31.7698 0.530392 35.3677 0.0100063L35.4449 -3.5039e-06L35.8252 1.12655L35.7365 1.15657C33.8553 1.80133 32.333 2.52187 31.2094 3.29816C30.0887 4.07303 29.0938 5.11094 28.2518 6.38188C27.5628 7.40693 27.0082 8.43913 26.5994 9.45416C27.843 8.75078 29.251 8.37908 30.6905 8.37908C35.272 8.37908 39 12.1061 39 16.6895C39 21.2715 35.272 25 30.6905 25C29.9014 25 29.0152 24.8656 28.1961 24.6211C26.8696 24.2251 25.5673 23.3945 24.5267 22.2794C23.9563 21.669 23.4317 20.9041 23.01 20.0663C22.6526 19.3644 22.3867 18.6381 22.2381 17.9662Z" fill="white" fill-opacity="0.8"/>
</svg>
