<svg width="53" height="53" viewBox="0 0 53 53" fill="none" xmlns="http://www.w3.org/2000/svg">
<g clip-path="url(#clip0)">
<path d="M0.0112685 36.7771C0.0112685 43.7452 5.65966 49.3936 12.6276 49.3936C19.5957 49.3936 25.2441 43.7452 25.2441 36.7771C25.2441 29.809 19.5957 24.1608 12.6276 24.1608C11.1956 24.1608 9.82481 24.4104 8.54155 24.8503C11.3808 8.56664 24.0789 -1.93448 12.3078 6.70815C-0.744646 16.2919 -0.00271059 36.3915 0.0118944 36.7599C0.0118944 36.7656 0.0112685 36.7707 0.0112685 36.7771Z" fill="#D8DDED"/>
<path d="M27.7672 36.7771C27.7672 43.7452 33.4155 49.3936 40.3836 49.3936C47.3517 49.3936 53 43.7452 53 36.7771C53 29.809 47.3515 24.1608 40.3835 24.1608C38.9514 24.1608 37.5807 24.4104 36.2974 24.8503C39.1366 8.56664 51.8348 -1.93448 40.0636 6.70815C27.0112 16.2919 27.7531 36.3915 27.7678 36.7599C27.7678 36.7656 27.7672 36.7707 27.7672 36.7771Z" fill="#D8DDED"/>
</g>
<defs>
<clipPath id="clip0">
<rect width="53" height="53" fill="white"/>
</clipPath>
</defs>
</svg>
