<svg width="30" height="24" viewBox="0 0 30 24" fill="none" xmlns="http://www.w3.org/2000/svg">
<path d="M11.13 3.88913C12.3034 3.32438 13.6118 3 14.9985 3C19.9613 3 23.9985 7.03725 23.9985 12H20.9985L25.4985 17.25L29.9985 12H26.9985C26.9985 5.37262 21.6259 0 14.9985 0C12.7733 0 10.6924 0.609375 8.90625 1.66537L11.13 3.88913Z" fill="#DE2B70"/>
<path d="M18.8685 20.1109C17.6955 20.6756 16.3867 21 15 21C10.0372 21 6 16.9628 6 12H9L4.5 6.75L0 12H3C3 18.6274 8.37263 24 15 24C17.2253 24 19.3057 23.3906 21.0922 22.3346L18.8685 20.1109Z" fill="#DE2B70"/>
</svg>
