<?xml version="1.0" encoding="utf-8"?>
<svg id="master-artboard" viewBox="0 0 289.2745361328125 291.191650390625" version="1.1" xmlns="http://www.w3.org/2000/svg" x="0px" y="0px" style="enable-background:new 0 0 1400 980;" width="289.2745361328125px" height="291.191650390625px"><rect id="ee-background" x="0" y="0" width="289.2745361328125" height="291.191650390625" style="fill: white; fill-opacity: 0; pointer-events: none;"/><g transform="matrix(9.319514274597168, 0, 0, 9.319514274597168, 4.404135160493752, 4.922267913818359)"><path d="M14.9669 0C13.5567 0 12.4141 1.14061 12.4141 2.55045C12.4141 3.95697 13.5567 5.09758 14.9669 5.09758C16.371 5.09758 17.5116 3.95697 17.5116 2.55045C17.512 1.14061 16.371 0 14.9669 0Z" fill="#2D73F6"/><path d="M19.1786 7.74603C18.5538 6.46847 17.5852 5.69141 15.206 5.69141H14.9617H14.7178C12.339 5.69141 11.37 6.4688 10.7452 7.74603C10.4323 8.38481 9.77451 16.3751 9.77451 16.3751C9.72386 16.8479 10.0654 17.2697 10.5362 17.3167C10.5676 17.3207 10.5969 17.3207 10.6279 17.3207C11.0614 17.3207 11.4343 16.9945 11.4776 16.555L12.1494 9.61139L12.3156 15.0022L11.8255 28.9314C11.7905 29.4805 12.2043 29.961 12.7531 29.996C12.7821 30 12.8038 30 12.8235 30C13.3469 30 13.7881 29.5978 13.8274 29.0703L14.9621 17.5976L16.097 29.0703C16.136 29.5978 16.5775 30 17.101 30C17.1203 30 17.142 30 17.1713 29.996C17.7201 29.961 18.134 29.4802 18.099 28.9314L17.6081 15.0019L17.7744 9.61106L18.4462 16.5547C18.4895 16.9942 18.8624 17.3204 19.2959 17.3204C19.3272 17.3204 19.3565 17.3204 19.3875 17.3164C19.8584 17.2697 20.2002 16.8479 20.1493 16.3747C20.1493 16.3751 19.4912 8.38481 19.1786 7.74603Z" fill="#2D73F6"/><path d="M23.0896 7.02285C25.3472 8.38605 27.0416 10.6673 27.5984 13.4686C28.3711 17.3563 26.7021 21.1557 23.6581 23.3009L22.4948 20.8071L20.6328 25.9927L25.7774 27.8433L24.5558 25.2246C28.4501 22.6621 30.6134 17.9154 29.6484 13.0614C28.9463 9.52966 26.7364 6.68197 23.821 5.0542" fill="#2D73F6"/><path d="M6.82242 25.1232C4.54787 23.7633 2.83546 21.4838 2.27832 18.6794C1.50526 14.7914 3.17468 10.9924 6.21863 8.84712L7.38157 11.3406L9.24359 6.15505L4.09936 4.30469L5.32094 6.92312C1.42662 9.48557 -0.736305 14.2326 0.228696 19.0866C0.936119 22.646 3.17535 25.511 6.125 27.1322" fill="#2D73F6"/></g></svg>