<?xml version="1.0" encoding="utf-8"?>
<svg id="master-artboard" viewBox="0 0 482.17608642578125 743.9378051757812" version="1.1" xmlns="http://www.w3.org/2000/svg" x="0px" y="0px" style="enable-background:new 0 0 1400 980;" width="482.17608642578125px" height="743.9378051757812px"><rect id="ee-background" x="0" y="0" width="482.17608642578125" height="743.9378051757812" style="fill: white; fill-opacity: 0; pointer-events: none;"/><g transform="matrix(23.90243911743164, 0, 0, 23.90243911743164, -172.8005423072833, -109.2227982103706)"><path d="M15.3704 25.4272L13.8391 24.5172C13.1244 24.0925 12.1947 24.1847 11.5999 24.7983L10.8902 25.5277C9.28133 27.1503 8.36049 29.3199 8.33628 31.6079L8.31255 35.5999L11.8074 33.6705C13.8054 32.5554 15.2707 30.7094 15.9267 28.5206L16.2281 27.5485C16.4486 26.7125 16.0851 25.8518 15.3704 25.4272ZM13.1855 28.8717L11.8918 29.5764L11.8923 28.1032C11.882 27.2682 12.2248 26.4589 12.8536 25.8656L13.1037 25.5998C13.3335 25.368 13.6728 25.3394 13.9451 25.5011L14.4896 25.8247C14.7618 25.9865 14.8989 26.2982 14.8052 26.6109L14.6913 26.9576C14.457 27.7393 13.91 28.4273 13.1855 28.8717Z" fill="#2D73F6"/><path d="M7.89975 19.0099L11.5203 19.5036C11.3457 19.9524 11.185 20.4555 11.0104 20.9043C10.8964 21.251 11.0473 21.617 11.3876 21.8192L13.6125 22.9571C14.6398 23.4754 15.6267 24.0619 16.5731 24.7164L18.5341 26.0658C18.8201 26.2818 19.2477 26.2596 19.4978 25.9938C19.8426 25.6461 20.2075 25.2644 20.5183 24.8964L22.6627 27.8744C22.9157 28.3011 23.5263 28.2034 23.6466 27.7684L24.197 26.2997C25.036 24.0354 25.005 21.5304 24.2282 19.273C26.0857 15.4497 26.9296 11.1623 26.7142 6.79796L26.6126 5.2641C26.5702 4.87052 26.1618 4.62786 25.7958 4.77877L24.6373 5.33361C20.6127 7.22449 17.2101 10.0835 14.6656 13.5907C12.2775 13.9674 10.0965 15.158 8.45464 16.9912L7.42777 18.1768C7.17771 18.4427 7.40408 18.9916 7.89975 19.0099ZM22.7931 10.6843C23.9161 11.3517 24.289 12.8165 23.6217 13.9395C22.9543 15.0625 21.4895 15.4353 20.3665 14.768C19.2435 14.1007 18.8707 12.6359 19.538 11.5129C20.2053 10.3899 21.6701 10.017 22.7931 10.6843Z" fill="#2D73F6"/></g></svg>