<?xml version="1.0" encoding="utf-8"?>
<svg id="master-artboard" viewBox="0 0 279.5854187011719 349.32635498046875" version="1.1" xmlns="http://www.w3.org/2000/svg" x="0px" y="0px" style="enable-background:new 0 0 1400 980;" width="279.5854187011719px" height="349.32635498046875px"><rect id="ee-background" x="0" y="0" width="279.5854187011719" height="349.32635498046875" style="fill: white; fill-opacity: 0; pointer-events: none;"/><g transform="matrix(11.497406005859375, 0, 0, 11.497406005859375, 4.906726837158203, 0.0000033600963433855213)"><path d="M0.971774 29.7378C1.30873 29.925 1.64568 29.9998 2.02007 29.9998C2.65654 29.9624 3.25557 29.6255 3.55508 29.0264L8.34731 20.5651L6.88718 19.9661C6.17584 19.6666 5.53937 19.1799 5.12753 18.506L0.222988 27.117C-0.263723 28.053 0.0732304 29.2136 0.971774 29.7378Z" fill="#2D73F6"/><path d="M17.3509 6.82191C19.189 6.7304 20.6048 5.16617 20.5133 3.32811C20.4218 1.49005 18.8576 0.0742018 17.0195 0.165717C15.1814 0.257233 13.7656 1.82146 13.8571 3.65952C13.9486 5.49758 15.5129 6.91343 17.3509 6.82191Z" fill="#2D73F6"/><path d="M3.10772 12.5534C3.81906 13.0776 4.79249 12.9652 5.31664 12.2539L7.48812 9.44595L9.88423 9.14644L6.73933 15.5111C6.51469 15.9978 6.47725 16.522 6.66445 17.0087C6.85165 17.4954 7.22604 17.9072 7.71275 18.0944L13.1789 20.3408L10.4084 24.534C9.84679 25.3951 10.0714 26.5932 10.97 27.1547C11.3069 27.3794 11.7188 27.4917 12.0931 27.4543C12.6922 27.4168 13.2538 27.1173 13.5907 26.5932L17.5967 20.4905C17.8962 20.0038 18.0086 19.4422 17.8214 18.8807C17.6716 18.3565 17.2598 17.9072 16.7356 17.6826L12.9168 16.1101L15.3129 12.179L16.7356 14.987C17.0351 15.5486 17.5967 15.8855 18.2332 15.8481C18.383 15.8481 18.5327 15.8106 18.645 15.7732L22.2392 14.5751C23.0629 14.3131 23.5121 13.4145 23.2501 12.5909C22.988 11.7672 22.0894 11.3179 21.2658 11.58L18.9445 12.3662L17.6716 9.85779C17.2972 9.109 16.6982 8.47253 15.9868 8.0607L13.1789 6.41337C12.3552 5.92666 11.3818 5.73946 10.4458 5.85178L6.47725 6.37593C6.06542 6.41337 5.69103 6.63801 5.42895 6.97496L2.88308 10.3071C2.28405 11.0184 2.43381 11.9918 3.10772 12.5534Z" fill="#2D73F6"/></g></svg>