<svg width="36" height="36" viewBox="0 0 36 36" fill="none" xmlns="http://www.w3.org/2000/svg">
<path d="M28.0757 7.92281C26.5939 6.44105 24.6237 5.625 22.5281 5.625C20.4325 5.625 18.4624 6.44105 16.9807 7.92288C13.9218 10.9818 13.9218 15.959 16.9807 19.0178C18.4624 20.4996 20.4326 21.3157 22.5281 21.3157C24.6238 21.3157 26.5939 20.4996 28.0756 19.0178C31.1346 15.959 31.1346 10.9818 28.0757 7.92281ZM26.2893 15.9665L24.7977 17.458L22.4149 15.0751L20.0321 17.458L18.5406 15.9665L20.9234 13.5836L18.5406 11.2007L20.0321 9.70917L22.4149 12.0921L24.7977 9.70917L26.2893 11.2007L23.9065 13.5836L26.2893 15.9665Z" fill="#31C062"/>
<path d="M4.72879 25.7057L1.15382 29.2806C0.410406 30.0241 0.000976562 31.0124 0.000976562 32.0638C0.000976562 33.1152 0.410406 34.1036 1.15382 34.847C1.8973 35.5903 2.88576 35.9998 3.93707 35.9998C4.98845 35.9998 5.97691 35.5903 6.72025 34.8469L10.2951 31.272L4.72879 25.7057Z" fill="#31C062"/>
<path d="M32.053 3.94537C29.5088 1.40119 26.1261 0 22.528 0C18.93 0 15.5473 1.40119 13.003 3.94537C10.4588 6.48956 9.05767 9.87223 9.05767 13.4703C9.05767 16.7145 10.1972 19.7833 12.2862 22.2206L10.8663 23.6405L8.83042 21.6046L6.2207 24.2143L11.7871 29.7806L14.3968 27.1709L12.3579 25.132L13.7778 23.712C16.2151 25.801 19.2839 26.9406 22.5281 26.9406C26.1262 26.9406 29.5088 25.5394 32.0531 22.9952C34.5974 20.451 35.9985 17.0684 35.9985 13.4703C35.9985 9.87216 34.5973 6.48956 32.053 3.94537ZM29.5671 20.5094C27.687 22.3896 25.1871 23.425 22.5281 23.425C19.8691 23.425 17.3692 22.3895 15.4891 20.5094C11.6078 16.6281 11.6078 10.3126 15.4891 6.43134C17.3692 4.55112 19.869 3.51562 22.528 3.51562C25.187 3.51562 27.6869 4.55112 29.5671 6.43127C33.4484 10.3126 33.4484 16.6281 29.5671 20.5094Z" fill="#31C062"/>
</svg>
