<svg width="26" height="40" viewBox="0 0 26 40" fill="none" xmlns="http://www.w3.org/2000/svg">
<path d="M19.315 26.8H4.81259C5.03196 26.2355 5.30361 25.6989 5.6294 25.2H17.89H18.3806L18.0298 24.857C16.7313 23.5873 14.9568 22.8 13.001 22.8H7.95299C9.38311 21.7937 11.1233 21.2 13.001 21.2C17.8535 21.2 21.801 25.1475 21.801 30V35.1655C21.2029 35.5564 20.801 36.2274 20.801 37C20.801 38.2155 21.7855 39.2 23.001 39.2C24.2165 39.2 25.201 38.2155 25.201 37C25.201 36.2282 24.799 35.5573 24.201 35.1656V30C24.201 25.6285 21.6783 21.8429 18.0188 20C21.6774 18.157 24.2 14.3715 24.2 10V4.83438C24.798 4.44269 25.2 3.77184 25.2 3C25.2 1.78454 24.2155 0.8 23 0.8C21.7845 0.8 20.8 1.78454 20.8 3C20.8 3.77184 21.202 4.44269 21.8 4.83438V6.8H6H5.8V7V9V9.2H6H21.8V10C21.8 10.269 21.7857 10.5354 21.7607 10.8H6.08H5.84903L5.88206 11.0286C5.98695 11.7546 6.19885 12.446 6.50452 13.0862L6.55887 13.2H6.685H21.1874C20.968 13.7645 20.6964 14.3011 20.3706 14.8H8.111H7.6204L7.97117 15.143C9.2697 16.4127 11.0442 17.2 13 17.2H18.048C16.6179 18.2063 14.8777 18.8 13 18.8C8.14746 18.8 4.2 14.8525 4.2 10V4.83438C4.79797 4.44269 5.2 3.77184 5.2 3C5.2 1.78454 4.21546 0.8 3 0.8C1.78454 0.8 0.8 1.78454 0.8 3C0.8 3.77184 1.20203 4.44269 1.8 4.83438V10C1.8 14.3715 4.32266 18.157 7.98216 20C4.32266 21.843 1.8 25.6285 1.8 30V35.1655C1.20188 35.5564 0.8 36.2274 0.8 37C0.8 38.2155 1.78454 39.2 3 39.2C4.21546 39.2 5.2 38.2155 5.2 37C5.2 36.2282 4.79797 35.5573 4.2 35.1656V33.2H20H20.2V33V31V30.8H20H4.2V30C4.2 29.731 4.2143 29.4646 4.23934 29.2H19.92H20.151L20.1179 28.9714C20.0131 28.2454 19.8011 27.554 19.4955 26.9138L19.4411 26.8H19.315Z" fill="#2D73F6" stroke="#2D73F6" stroke-width="0.4"/>
</svg>
