<svg width="27" height="33" viewBox="0 0 27 33" fill="none" xmlns="http://www.w3.org/2000/svg">
<path d="M26.0469 10.6859C26.0469 12.7311 26.0878 14.7787 26.0373 16.8215C25.9675 19.5813 25.1879 22.1173 23.4483 24.3093C22.2549 25.8131 20.7703 26.9897 19.2015 28.0725C17.2285 29.4368 15.152 30.6446 13.1886 32.0257C13.09 32.0955 13.0178 32.1124 12.9119 32.0378C10.4047 30.3102 7.71469 28.8545 5.3182 26.9657C3.54248 25.5653 2.04828 23.9315 1.12673 21.8334C0.46505 20.3272 0.108944 18.7439 0.0608218 17.1054C-0.054672 13.1617 0.0343545 9.21571 0.0102933 5.27208C0.00788714 4.92801 0.022324 4.58152 0.00548114 4.23985C-0.00654946 4.01127 0.0680402 3.94149 0.301434 3.91984C2.68349 3.71291 5.03427 3.32553 7.32249 2.61572C9.2113 2.02863 11.0063 1.22739 12.7002 0.207197C12.9408 0.0604235 13.1164 0.0387667 13.3715 0.190352C16.42 2.00697 19.7212 3.10176 23.2245 3.61667C24.0907 3.74419 24.957 3.8645 25.8304 3.92225C26.0734 3.93909 26.0565 4.07143 26.0565 4.23504C26.0541 6.38612 26.0565 8.53478 26.0565 10.6859C26.0541 10.6859 26.0517 10.6859 26.0469 10.6859Z" fill="#16BAC5"/>
<path fill-rule="evenodd" clip-rule="evenodd" d="M12 19.6V11H14V19.6H12Z" fill="white"/>
<path fill-rule="evenodd" clip-rule="evenodd" d="M8.7002 14H17.3002V16H8.7002V14Z" fill="white"/>
</svg>
