<svg width="37" height="36" viewBox="0 0 37 36" fill="none" xmlns="http://www.w3.org/2000/svg">
<path d="M17.4543 21.85V27.5124L13.4492 25.5097L13.4491 25.5096C13.2376 25.404 12.9817 25.4455 12.8143 25.6128L12.8143 25.6128L10.7689 27.6581L6.35363 23.9788C6.35362 23.9788 6.35362 23.9788 6.35362 23.9788C6.17398 23.8291 5.91918 23.8092 5.71847 23.9298C5.71844 23.9298 5.71841 23.9298 5.71838 23.9298L2.08287 26.1112C1.04126 24.0608 0.38194 21.7773 0.201502 19.3502H17.4543V20.7347L13.1132 21.4583C13.1131 21.4583 13.113 21.4583 13.113 21.4583L13.1128 21.4583L13.1375 21.6063M17.4543 21.85L11.2139 23.2123L11.3199 23.3184M17.4543 21.85L13.4676 22.5145M17.4543 21.85V21.698L13.3955 22.3744M13.1375 21.6063C13.0552 21.6198 12.9793 21.6589 12.9203 21.718M13.1375 21.6063L17.6043 20.8617L13.1375 21.6063ZM12.9203 21.718L12.8143 21.6119L12.8142 21.612L12.9203 21.718ZM12.9203 21.718L11.3199 23.3184M11.3199 23.3184L11.2139 23.2123C10.999 23.4271 10.9991 23.7754 11.2139 23.9902C11.3213 24.0976 11.4623 24.1514 11.6029 24.1514C11.7435 24.1514 11.8845 24.0976 11.9919 23.9901M11.3199 23.3184C11.1637 23.4745 11.1637 23.7279 11.3199 23.8841C11.3981 23.9623 11.5005 24.0014 11.6029 24.0014C11.7053 24.0014 11.8077 23.9623 11.8858 23.8841M11.8858 23.8841L11.9918 23.9902L11.9919 23.9901M11.8858 23.8841L11.9919 23.9901M11.8858 23.8841L13.3955 22.3744M11.9919 23.9901L13.4676 22.5145M13.4676 22.5145L13.4201 22.5224L13.3955 22.3744M13.4676 22.5145L13.5015 22.4805L13.3955 22.3744" fill="#2D73F6" stroke="#E9EDF3" stroke-width="0.3"/>
<path d="M11.1933 28.7914L11.1932 28.7914C10.9921 28.9925 10.6707 29.0072 10.4522 28.8249C10.4521 28.8249 10.4521 28.8249 10.4521 28.8249L5.95114 25.0741L2.61338 27.0767C4.26498 29.8823 6.66014 32.1867 9.52751 33.7292C9.53342 33.7189 9.53972 33.7087 9.54645 33.6986L11.1468 31.2981C11.1468 31.2981 11.1468 31.2981 11.1468 31.298C11.2843 31.0916 11.5429 31.0026 11.7785 31.0812M11.1933 28.7914L11.731 31.2235M11.1933 28.7914L13.3135 26.6712L17.456 28.7424V35.8459M11.1933 28.7914L17.456 35.8459M11.7785 31.0812L11.731 31.2235M11.7785 31.0812L11.7785 31.0812L11.731 31.2235M11.7785 31.0812L14.179 31.8814L14.1316 32.0237M11.731 31.2235L14.1316 32.0237M14.1316 32.0237L14.179 31.8814M14.1316 32.0237L14.179 31.8814M14.179 31.8814C14.4673 31.9775 14.6231 32.289 14.527 32.5772L14.527 32.5772C14.4309 32.8652 14.1195 33.0214 13.8311 32.925L11.8292 32.2579L10.5186 34.2236C12.6392 35.1992 14.9845 35.7718 17.456 35.8459M14.179 31.8814L17.456 35.8459" fill="#2D73F6" stroke="#E9EDF3" stroke-width="0.3"/>
<path d="M17.4543 18.2501H0.152035C0.150678 18.1651 0.15 18.0819 0.15 18C0.15 8.3394 7.86325 0.446039 17.4543 0.15398V18.2501Z" fill="#2D73F6" stroke="#E9EDF3" stroke-width="0.3"/>
<path d="M18.5533 11.5085V0.15398C28.1444 0.446038 35.8576 8.3394 35.8577 18C35.8577 18.0816 35.857 18.1648 35.8556 18.2501H18.5533V12.7386L22.6958 10.6674L25.6162 13.5878C25.6162 13.5878 25.6162 13.5879 25.6162 13.5879C25.7236 13.6953 25.8648 13.749 26.0052 13.749C26.1456 13.749 26.2868 13.6952 26.3941 13.5878C26.3941 13.5878 26.3941 13.5878 26.3941 13.5878L29.5948 10.3871C29.8097 10.1723 29.8097 9.82395 29.5949 9.60911C29.3802 9.39431 29.0317 9.3943 28.817 9.60908C28.817 9.60909 28.817 9.6091 28.817 9.60911L26.0052 12.4208L23.1933 9.60908C23.026 9.44173 22.7703 9.40016 22.5584 9.50598L22.5584 9.50601L18.5533 11.5085Z" fill="#2D73F6" stroke="#E9EDF3" stroke-width="0.3"/>
<path d="M35.8062 19.3502C35.6248 21.7882 34.9605 24.0812 33.9107 26.1389L29.4519 23.9094L29.4519 23.9094C29.2399 23.8036 28.9843 23.8453 28.817 24.0126L26.0052 26.8243L23.1934 24.0127C23.1934 24.0126 23.1933 24.0126 23.1933 24.0126C22.9786 23.7977 22.6301 23.7977 22.4154 24.0127L22.5215 24.1187M35.8062 19.3502L26.0052 27.0364L23.0873 24.1187C22.9311 23.9624 22.6776 23.9624 22.5215 24.1187M35.8062 19.3502H18.5533V35.846C24.8671 35.6568 30.359 32.2151 33.3802 27.1036L29.3145 25.0709L26.3942 27.9911L26.288 27.8852M35.8062 19.3502L26.3941 27.9912M22.5215 24.1187C22.3652 24.2748 22.3652 24.5281 22.5215 24.6844L25.7223 27.8852M22.5215 24.1187L22.4155 24.0125C22.2005 24.2273 22.2006 24.5756 22.4155 24.7905L25.6161 27.9911L25.7223 27.8852M25.7223 27.8852C25.8003 27.9634 25.9028 28.0024 26.0052 28.0024C26.1075 28.0024 26.21 27.9634 26.288 27.8852M25.7223 27.8852L25.6162 27.9912M26.288 27.8852L25.6162 27.9912M26.288 27.8852L26.3941 27.9912M26.288 27.8852L29.2849 24.8884L26.288 27.8852ZM25.6162 27.9912C25.7236 28.0988 25.8648 28.1524 26.0052 28.1524C26.1456 28.1524 26.2867 28.0988 26.3941 27.9912M25.6162 27.9912L26.3941 27.9912" fill="#2D73F6" stroke="#E9EDF3" stroke-width="0.3"/>
</svg>
