<svg width="51" height="62" viewBox="0 0 51 62" fill="none" xmlns="http://www.w3.org/2000/svg">
<path d="M45.949 39.0552C45.7023 39.7612 45.1156 40.3722 44.2331 40.0308C41.0558 38.8132 35.9447 37.8896 32.8 38.2178C31.6445 38.3384 31.1874 37.7803 30.9471 36.3859C30.3466 32.9208 29.2319 28.6908 30.2784 23.6042C32.6205 12.2087 37.7979 9.66231 41.348 10.3505C44.8981 11.0386 53.3282 17.9611 45.949 39.0552ZM30.308 43.94C30.308 43.94 29.3988 45.85 28.6017 49.0523C27.2826 54.3487 27.9369 58.2349 33.0861 59.6959C37.43 60.9303 40.7218 57.9826 42.0371 52.6857C42.832 49.485 43.1417 47.4156 43.1417 47.4156L30.308 43.94Z" fill="url(#paint0_linearsteps)"/>
<path d="M9.51924 1.15644C13.0758 0.503483 18.229 3.09633 20.4642 14.5132C21.4631 19.6094 20.3091 23.8308 19.6759 27.2882C19.4204 28.6785 18.96 29.2321 17.8059 29.1026C14.6644 28.745 9.54471 29.6188 6.35636 30.8084C5.47047 31.1396 4.88971 30.5251 4.64965 29.8168C-2.53169 8.65451 5.96482 1.81109 9.51924 1.15644ZM7.37657 38.2034C7.37657 38.2034 7.66885 40.2754 8.43184 43.4836C9.69938 48.7923 12.9615 51.771 17.3168 50.5773C22.4795 49.1646 23.1704 45.2866 21.9006 39.9761C21.1335 36.7665 20.2423 34.8481 20.2423 34.8481L7.37657 38.2034Z" fill="#2D73F6"/>
<defs>
<linearGradient id="paint0_linearsteps" x1="35.0659" y1="41.8969" x2="58.2914" y2="102.921" gradientUnits="userSpaceOnUse">
<stop stop-color="#2D73F6"/>
<stop offset="1" stop-color="#2D73F6" stop-opacity="0"/>
</linearGradient>
</defs>
</svg>
