<svg width="32" height="32" viewBox="0 0 32 32" fill="none" xmlns="http://www.w3.org/2000/svg">
<path d="M29.7273 13.7269C28.9846 13.7269 28.3267 14.0849 27.912 14.636H24.5298C24.3097 13.2475 23.7583 11.9694 22.9593 10.8843L25.3129 8.53065C26.0179 8.65417 26.7696 8.4452 27.3139 7.90056C28.2016 7.01287 28.2016 5.57382 27.3142 4.68613C26.4262 3.79844 24.9871 3.79844 24.0994 4.68613C23.574 5.21157 23.3622 5.92966 23.4588 6.61255L21.0658 9.00553C19.9756 8.21448 18.6946 7.67112 17.3035 7.46023V4.13348C17.8891 3.72228 18.2728 3.04323 18.2728 2.2733C18.2735 1.01761 17.2559 0 16.0005 0C14.7448 0 13.7272 1.01761 13.7272 2.27298C13.7272 3.01603 14.0853 3.67364 14.6366 4.08836V7.47047C13.2478 7.69096 11.9697 8.24232 10.8849 9.04105L8.53097 6.68711C8.65449 5.98214 8.4452 5.23077 7.9012 4.68645C7.01319 3.79876 5.57446 3.79844 4.68645 4.68613C3.79876 5.57414 3.79876 7.01319 4.68645 7.90088C5.21189 8.42632 5.92998 8.63817 6.61319 8.54153L9.00617 10.9345C8.21512 12.0244 7.67176 13.3054 7.46119 14.6965L4.13412 14.6968C3.72292 14.1109 3.04355 13.7272 2.27394 13.7272C1.01793 13.7272 0 14.7445 0 16.0002C0.000320003 17.2559 1.01825 18.2735 2.2733 18.2735C3.01603 18.2735 3.67364 17.9154 4.08868 17.364H7.4708C7.69096 18.7525 8.24232 20.0306 9.04105 21.1157L6.68743 23.4694C5.98246 23.3458 5.23077 23.5551 4.68645 24.0994C3.79876 24.9871 3.79844 26.4262 4.68645 27.3142C5.57414 28.2016 7.01319 28.2016 7.9012 27.3142C8.42664 26.7884 8.63849 26.0703 8.54185 25.3875L10.9348 22.9942C12.0248 23.7852 13.3057 24.3289 14.6968 24.5394V27.8665C14.1112 28.2777 13.7278 28.9568 13.7278 29.7267C13.7278 30.9824 14.7451 32 16.0008 32C17.2565 31.9997 18.2741 30.9821 18.2741 29.7267C18.2741 28.9837 17.916 28.326 17.3647 27.9113V24.5289C18.7531 24.3087 20.0312 23.7574 21.1161 22.9586L23.47 25.3126C23.3465 26.0172 23.5558 26.7689 24.1001 27.3132C24.9881 28.2009 26.4268 28.2012 27.3148 27.3136C28.2025 26.4255 28.2022 24.9865 27.3148 24.0985C26.7894 23.573 26.071 23.3615 25.3881 23.4582L22.9951 21.0652C23.7862 19.9752 24.3298 18.6939 24.5404 17.3029H27.8675C28.2784 17.8885 28.9577 18.2722 29.7277 18.2722C30.983 18.2722 32.0006 17.2546 32.0006 15.9992C32.0003 14.7445 30.9827 13.7269 29.7273 13.7269ZM18.8056 15.8194C18.0706 16.5544 17.1007 16.956 16.0658 16.956C16.0514 16.956 16.0366 16.956 16.0216 16.956C16.0107 16.956 15.9995 16.9557 15.9883 16.9554L15.9672 16.9547C15.9554 16.9541 15.9438 16.9535 15.9326 16.9528C15.3861 16.933 14.8529 17.1413 14.4661 17.5285C14.0936 17.9007 13.8885 18.3957 13.8885 18.9218C13.8885 19.4485 14.0936 19.9429 14.4661 20.3151C14.8389 20.6882 14.8389 21.2927 14.4661 21.6658C14.2795 21.8524 14.035 21.9455 13.7909 21.9455C13.5467 21.9455 13.3022 21.8524 13.1157 21.6658C12.3825 20.9327 11.979 19.9583 11.979 18.9218C11.979 17.8856 12.3825 16.9109 13.1157 16.1781C13.8872 15.4066 14.9528 14.9954 16.0427 15.0459C16.5771 15.0565 17.077 14.8475 17.4559 14.4689C17.828 14.0968 18.0328 13.6021 18.0328 13.0757C18.0328 12.5492 17.828 12.0545 17.4559 11.6824C17.0827 11.3092 17.0827 10.7047 17.4555 10.3316C17.8287 9.9585 18.4331 9.9585 18.8063 10.3316C19.5394 11.0648 19.9429 12.0388 19.9429 13.0757C19.9429 14.1125 19.5388 15.0866 18.8056 15.8194Z" fill="#79C10F"/>
</svg>
