<svg width="40" height="12" viewBox="0 0 40 12" fill="none" xmlns="http://www.w3.org/2000/svg">
<path fill-rule="evenodd" clip-rule="evenodd" d="M5.27486 0H0.0389142L0 0.238698C1.34258 0.551568 2.53546 1.01073 3.57141 1.5845L6.42499 12L9.80241 11.9952L14.8279 0.0934695H11.4474L8.32225 8.22558L7.98794 6.57353C7.90817 6.31167 7.80513 6.04677 7.68145 5.78193C7.75318 5.93201 7.82008 6.08366 7.8821 6.23674L6.74565 0.967032C6.54949 0.240993 5.97928 0.0260119 5.27486 0ZM28.9026 0.579299C28.2712 0.345295 27.2799 0.093586 26.0435 0.093586C22.8924 0.093586 20.6717 1.65772 20.6522 3.90077C20.635 5.55728 22.2367 6.48329 23.4474 7.0352C24.6884 7.6002 25.1068 7.96044 25.1021 8.4654C25.0928 9.239 24.1093 9.59077 23.1913 9.59077C21.9159 9.59077 21.2384 9.41604 20.1901 8.98575L19.7795 8.80332L19.3315 11.3858C20.0754 11.7076 21.4538 11.9862 22.8846 12.0001C26.2378 12.0001 28.414 10.4552 28.439 8.05897C28.4507 6.74808 27.6022 5.74972 25.7617 4.92531C24.6463 4.39188 23.9625 4.03625 23.9695 3.49589C23.9695 3.0171 24.5487 2.50368 25.7968 2.50368C26.8389 2.48751 27.596 2.71228 28.183 2.94551L28.4702 3.07868L28.9026 0.579299ZM37.061 0.093586H34.6394C33.8882 0.093586 33.3265 0.306657 32.9966 1.08182L28.3398 12.0001H31.6338C31.6338 12.0001 32.1702 10.5325 32.2937 10.2097C32.4624 10.2097 33.2578 10.2109 34.1012 10.2122C35.0529 10.2137 36.0658 10.2152 36.3082 10.2152C36.4018 10.6318 36.6896 12.0001 36.6896 12.0001H39.6L37.061 0.093586ZM34.4438 4.44244C34.4438 4.44244 33.4555 7.08674 33.1954 7.77366H35.7981C35.6723 7.17658 35.0715 4.33273 35.0715 4.33273L34.8589 3.30554C34.7716 3.5535 34.6479 3.88644 34.5582 4.12809L34.5574 4.13004L34.5574 4.13009C34.4858 4.3228 34.436 4.4569 34.4438 4.44244ZM16.2127 0.0934695L14.2651 12H17.3792L19.3321 0.0934695H16.2127Z" fill="#16216A"/>
</svg>
