<svg width="40" height="40" viewBox="0 0 40 40" fill="none" xmlns="http://www.w3.org/2000/svg">
<path d="M38.9703 7.03906H1.02974C0.46034 7.03906 0 7.50011 0 8.06881V31.9321C0 32.5008 0.46034 32.9619 1.02974 32.9619H38.9703C39.5397 32.9619 40 32.5008 40 31.9321V8.06881C40 7.50011 39.5397 7.03906 38.9703 7.03906ZM3.09703 14.8726H7.36615C7.94193 14.8946 8.40581 15.078 8.56586 15.6935L9.49433 20.1588C8.58215 17.8231 6.38385 15.8797 3.06161 15.0752L3.09703 14.8726ZM8.26275 25.0568L5.79674 16.6318C7.56941 17.7664 9.07932 19.5667 9.61119 20.8195L9.89873 21.8599L12.5956 14.9697H15.5135L11.1771 25.0546L8.26275 25.0568ZM17.6579 25.0639H14.9044L16.6261 14.959H19.381L17.6579 25.0639ZM22.4497 25.2154C21.2153 25.2027 20.0262 24.9583 19.3817 24.6757L19.7691 22.4144L20.1239 22.5752C21.0283 22.9527 21.614 23.1056 22.7167 23.1056C23.5078 23.1056 24.3555 22.7961 24.3633 22.1191C24.3683 21.6765 24.0085 21.3606 22.9363 20.8648C21.8909 20.3818 20.5071 19.5716 20.5241 18.1205C20.539 16.1566 22.4568 14.7862 25.1785 14.7862C26.245 14.7862 27.0999 15.0058 27.6452 15.2105L27.2734 17.401L27.0248 17.2841C26.5177 17.0801 25.8654 16.8833 24.9639 16.8974C23.886 16.8974 23.386 17.3464 23.386 17.7664C23.3803 18.2395 23.9695 18.5511 24.9327 19.0199C26.5212 19.7409 27.2557 20.6155 27.2458 21.765C27.2245 23.8613 25.3456 25.2154 22.4497 25.2154ZM34.3831 25.0681C34.3831 25.0681 34.1317 23.9066 34.0482 23.5539C33.6473 23.5539 30.8371 23.5497 30.5212 23.5497C30.4143 23.8223 29.9426 25.0681 29.9426 25.0681H27.051L31.1395 15.8082C31.4299 15.1503 31.9221 14.9697 32.5822 14.9697H34.7096L36.9384 25.0674L34.3831 25.0681Z" fill="#7A809A"/>
<path d="M32.9617 18.5659L32.7762 17.6948C32.6359 18.0751 32.3944 18.6863 32.41 18.6594C32.41 18.6594 31.5396 20.9023 31.313 21.4838H33.5998C33.4893 20.9774 32.9617 18.5659 32.9617 18.5659Z" fill="#7A809A"/>
</svg>
