<svg width="313" height="57" viewBox="0 0 313 57" fill="none" xmlns="http://www.w3.org/2000/svg">
<path opacity="0.4" d="M17.1083 12L16.3883 6.372L14.2403 10.236L12.0803 6.384L11.3603 12H9.76433L10.9283 3.6H12.1883L14.2403 7.428L16.2803 3.6H17.5403L18.7043 12H17.1083ZM24.7221 12.168C23.9301 12.168 23.2181 11.988 22.5861 11.628C21.9621 11.26 21.4701 10.748 21.1101 10.092C20.7581 9.428 20.5821 8.664 20.5821 7.8C20.5821 6.936 20.7581 6.176 21.1101 5.52C21.4701 4.856 21.9621 4.344 22.5861 3.984C23.2181 3.616 23.9301 3.432 24.7221 3.432C25.5141 3.432 26.2221 3.616 26.8461 3.984C27.4781 4.344 27.9701 4.856 28.3221 5.52C28.6821 6.176 28.8621 6.936 28.8621 7.8C28.8621 8.664 28.6821 9.428 28.3221 10.092C27.9701 10.748 27.4781 11.26 26.8461 11.628C26.2221 11.988 25.5141 12.168 24.7221 12.168ZM24.7221 10.68C25.5381 10.68 26.1621 10.416 26.5941 9.888C27.0341 9.36 27.2541 8.664 27.2541 7.8C27.2541 6.936 27.0341 6.24 26.5941 5.712C26.1621 5.184 25.5381 4.92 24.7221 4.92C23.9061 4.92 23.2781 5.184 22.8381 5.712C22.4061 6.24 22.1901 6.936 22.1901 7.8C22.1901 8.664 22.4061 9.36 22.8381 9.888C23.2781 10.416 23.9061 10.68 24.7221 10.68ZM31.2033 3.6H32.7153L36.3033 9.024V3.6H37.8393V12H36.5793L32.7393 6.24V12H31.2033V3.6Z" fill="#222222"/>
<path opacity="0.4" d="M58.5169 5.088H56.1409V3.6H62.4289V5.088H60.0529V12H58.5169V5.088ZM67.9135 12.168C66.7615 12.168 65.8935 11.836 65.3095 11.172C64.7255 10.5 64.4335 9.576 64.4335 8.4V3.6H65.9695V8.004C65.9695 8.588 66.0215 9.076 66.1255 9.468C66.2295 9.852 66.4215 10.152 66.7015 10.368C66.9895 10.584 67.3935 10.692 67.9135 10.692C68.4335 10.692 68.8335 10.584 69.1135 10.368C69.4015 10.152 69.5975 9.852 69.7015 9.468C69.8055 9.076 69.8575 8.588 69.8575 8.004V3.6H71.3935V8.4C71.3935 9.576 71.1015 10.5 70.5175 11.172C69.9335 11.836 69.0655 12.168 67.9135 12.168ZM74.1428 3.6H79.5188V5.088H75.7148V6.876H78.6668V8.364H75.7148V10.512H79.6388V12H74.1428V3.6Z" fill="#222222"/>
<path opacity="0.4" d="M97.6141 3.6H99.2101L100.89 9.564L102.762 3.6H103.83L105.774 9.408L107.382 3.6H108.978L106.518 12H105.162L103.29 6.396L101.43 12H99.9781L97.6141 3.6ZM110.973 3.6H116.349V5.088H112.545V6.876H115.497V8.364H112.545V10.512H116.469V12H110.973V3.6ZM118.793 3.6H121.937C122.737 3.6 123.449 3.768 124.073 4.104C124.705 4.44 125.197 4.924 125.549 5.556C125.901 6.188 126.077 6.936 126.077 7.8C126.077 8.664 125.901 9.412 125.549 10.044C125.197 10.676 124.705 11.16 124.073 11.496C123.449 11.832 122.737 12 121.937 12H118.793V3.6ZM121.937 10.632C122.737 10.632 123.345 10.384 123.761 9.888C124.185 9.384 124.397 8.688 124.397 7.8C124.397 6.912 124.185 6.22 123.761 5.724C123.345 5.22 122.737 4.968 121.937 4.968H120.329V10.632H121.937Z" fill="#222222"/>
<path opacity="0.4" d="M145.544 5.088H143.168V3.6H149.456V5.088H147.08V12H145.544V5.088ZM151.557 3.6H153.093V6.924H156.933V3.6H158.469V12H156.933V8.364H153.093V12H151.557V3.6ZM164.706 12.168C163.554 12.168 162.686 11.836 162.102 11.172C161.518 10.5 161.226 9.576 161.226 8.4V3.6H162.762V8.004C162.762 8.588 162.814 9.076 162.918 9.468C163.022 9.852 163.214 10.152 163.494 10.368C163.782 10.584 164.186 10.692 164.706 10.692C165.226 10.692 165.626 10.584 165.906 10.368C166.194 10.152 166.39 9.852 166.494 9.468C166.598 9.076 166.65 8.588 166.65 8.004V3.6H168.186V8.4C168.186 9.576 167.894 10.5 167.31 11.172C166.726 11.836 165.858 12.168 164.706 12.168Z" fill="#222222"/>
<path opacity="0.4" d="M191.322 3.6H196.494V5.088H192.858V6.876H195.666V8.364H192.858V12H191.322V3.6ZM198.627 3.6H201.699C202.595 3.6 203.299 3.816 203.811 4.248C204.331 4.672 204.591 5.304 204.591 6.144C204.591 6.728 204.467 7.208 204.219 7.584C203.971 7.952 203.619 8.248 203.163 8.472L205.059 12H203.343L201.723 8.88H201.663H200.163V12H198.627V3.6ZM201.291 7.596C202.419 7.596 202.983 7.14 202.983 6.228C202.983 5.788 202.855 5.456 202.599 5.232C202.343 5 201.927 4.884 201.351 4.884H200.163V7.596H201.291ZM207.139 3.6H208.675V12H207.139V3.6Z" fill="#222222"/>
<path opacity="0.4" d="M236.124 12.168C235.652 12.168 235.144 12.104 234.6 11.976C234.064 11.848 233.644 11.708 233.34 11.556L233.52 9.924C234.576 10.436 235.504 10.692 236.304 10.692C236.728 10.692 237.06 10.612 237.3 10.452C237.54 10.284 237.66 10.04 237.66 9.72C237.66 9.48 237.592 9.284 237.456 9.132C237.328 8.972 237.14 8.84 236.892 8.736C236.644 8.624 236.248 8.472 235.704 8.28C235.192 8.104 234.768 7.92 234.432 7.728C234.096 7.528 233.828 7.276 233.628 6.972C233.436 6.66 233.34 6.28 233.34 5.832C233.34 5.112 233.604 4.532 234.132 4.092C234.66 3.652 235.416 3.432 236.4 3.432C236.864 3.432 237.324 3.484 237.78 3.588C238.244 3.692 238.668 3.82 239.052 3.972L238.896 5.544C238.4 5.328 237.944 5.168 237.528 5.064C237.12 4.952 236.712 4.896 236.304 4.896C235.848 4.896 235.5 4.972 235.26 5.124C235.02 5.276 234.9 5.496 234.9 5.784C234.9 6.008 234.964 6.192 235.092 6.336C235.22 6.48 235.392 6.6 235.608 6.696C235.832 6.792 236.16 6.908 236.592 7.044C237.56 7.348 238.264 7.7 238.704 8.1C239.152 8.492 239.376 9.032 239.376 9.72C239.376 10.376 239.148 10.948 238.692 11.436C238.236 11.924 237.38 12.168 236.124 12.168ZM246.005 10.008H242.945L242.249 12H240.761L243.749 3.6H245.201L248.189 12H246.701L246.005 10.008ZM245.525 8.664L244.481 5.664L243.425 8.664H245.525ZM251.148 5.088H248.772V3.6H255.06V5.088H252.684V12H251.148V5.088Z" fill="#222222"/>
<path d="M279.331 12.168C278.859 12.168 278.351 12.104 277.807 11.976C277.271 11.848 276.851 11.708 276.547 11.556L276.727 9.924C277.783 10.436 278.711 10.692 279.511 10.692C279.935 10.692 280.267 10.612 280.507 10.452C280.747 10.284 280.867 10.04 280.867 9.72C280.867 9.48 280.799 9.284 280.663 9.132C280.535 8.972 280.347 8.84 280.099 8.736C279.851 8.624 279.455 8.472 278.911 8.28C278.399 8.104 277.975 7.92 277.639 7.728C277.303 7.528 277.035 7.276 276.835 6.972C276.643 6.66 276.547 6.28 276.547 5.832C276.547 5.112 276.811 4.532 277.339 4.092C277.867 3.652 278.623 3.432 279.607 3.432C280.071 3.432 280.531 3.484 280.987 3.588C281.451 3.692 281.875 3.82 282.259 3.972L282.103 5.544C281.607 5.328 281.151 5.168 280.735 5.064C280.327 4.952 279.919 4.896 279.511 4.896C279.055 4.896 278.707 4.972 278.467 5.124C278.227 5.276 278.107 5.496 278.107 5.784C278.107 6.008 278.171 6.192 278.299 6.336C278.427 6.48 278.599 6.6 278.815 6.696C279.039 6.792 279.367 6.908 279.799 7.044C280.767 7.348 281.471 7.7 281.911 8.1C282.359 8.492 282.583 9.032 282.583 9.72C282.583 10.376 282.355 10.948 281.899 11.436C281.443 11.924 280.587 12.168 279.331 12.168ZM288.24 12.168C287.088 12.168 286.22 11.836 285.636 11.172C285.052 10.5 284.76 9.576 284.76 8.4V3.6H286.296V8.004C286.296 8.588 286.348 9.076 286.452 9.468C286.556 9.852 286.748 10.152 287.028 10.368C287.316 10.584 287.72 10.692 288.24 10.692C288.76 10.692 289.16 10.584 289.44 10.368C289.728 10.152 289.924 9.852 290.028 9.468C290.132 9.076 290.184 8.588 290.184 8.004V3.6H291.72V8.4C291.72 9.576 291.428 10.5 290.844 11.172C290.26 11.836 289.392 12.168 288.24 12.168ZM294.469 3.6H295.981L299.569 9.024V3.6H301.105V12H299.845L296.005 6.24V12H294.469V3.6Z" fill="#DE2B70"/>
<path d="M23.5625 29.12C22.8825 29.6267 22.2358 29.96 21.6225 30.12L21.3425 28.18C21.8492 28.0333 22.3758 27.7467 22.9225 27.32C23.4825 26.8933 23.8825 26.4533 24.1225 26H25.7025V40H23.5625V29.12Z" fill="#222222"/>
<path d="M67.5363 34.24C68.2563 33.1333 68.7697 32.26 69.0763 31.62C69.383 30.98 69.5363 30.3867 69.5363 29.84C69.5363 29.2 69.3497 28.6933 68.9763 28.32C68.6163 27.9467 68.123 27.76 67.4963 27.76C66.2963 27.76 65.1697 28.3 64.1163 29.38L63.8363 27.14C65.023 26.18 66.3563 25.7 67.8363 25.7C69.063 25.7 70.0097 26.06 70.6763 26.78C71.3563 27.5 71.6963 28.4133 71.6963 29.52C71.6963 30.36 71.523 31.1867 71.1763 32C70.843 32.8 70.263 33.8267 69.4363 35.08L67.5163 37.98H72.2163V39.98H63.7563L67.5363 34.24Z" fill="#222222"/>
<path d="M113.68 32.64C114.493 32.9067 115.12 33.3333 115.56 33.92C116 34.5067 116.22 35.2333 116.22 36.1C116.22 36.9667 116.006 37.7133 115.58 38.34C115.166 38.9667 114.586 39.4467 113.84 39.78C113.106 40.1133 112.266 40.28 111.32 40.28C109.92 40.28 108.593 39.9467 107.34 39.28L107.88 37.36C108.453 37.68 109.013 37.9267 109.56 38.1C110.12 38.2733 110.713 38.36 111.34 38.36C112.153 38.36 112.793 38.1667 113.26 37.78C113.726 37.38 113.96 36.8333 113.96 36.14C113.96 35.38 113.706 34.7933 113.2 34.38C112.706 33.9667 111.96 33.76 110.96 33.76H109.86V31.76H110.96C111.76 31.76 112.386 31.5733 112.84 31.2C113.293 30.8267 113.52 30.3067 113.52 29.64C113.52 28.9867 113.333 28.4933 112.96 28.16C112.586 27.8133 112.053 27.64 111.36 27.64C110.826 27.64 110.313 27.7333 109.82 27.92C109.34 28.1067 108.833 28.3667 108.3 28.7L107.94 26.62C109.033 26.02 110.26 25.72 111.62 25.72C112.913 25.72 113.92 26.0533 114.64 26.72C115.373 27.3867 115.74 28.2667 115.74 29.36C115.74 30.12 115.56 30.7867 115.2 31.36C114.84 31.92 114.333 32.3467 113.68 32.64Z" fill="#222222"/>
<path d="M161.223 34.74V36.56H159.423V40H157.263V36.56H150.323L157.883 26H159.423V34.74H161.223ZM157.263 34.74V29.92L153.843 34.74H157.263Z" fill="#222222"/>
<path d="M199.809 31.18C200.756 31.18 201.576 31.3667 202.269 31.74C202.976 32.1133 203.516 32.64 203.889 33.32C204.263 33.9867 204.449 34.7667 204.449 35.66C204.449 36.5933 204.236 37.4067 203.809 38.1C203.383 38.7933 202.789 39.3333 202.029 39.72C201.283 40.0933 200.436 40.28 199.489 40.28C198.756 40.28 198.056 40.1867 197.389 40C196.723 39.8 196.129 39.5267 195.609 39.18L196.129 37.18C196.689 37.5133 197.223 37.7667 197.729 37.94C198.249 38.1133 198.809 38.2 199.409 38.2C200.249 38.2 200.923 37.9733 201.429 37.52C201.936 37.0533 202.189 36.4333 202.189 35.66C202.189 34.7933 201.909 34.1267 201.349 33.66C200.803 33.1933 200.043 32.96 199.069 32.96C198.243 32.96 197.329 33.08 196.329 33.32L197.209 26H203.809L203.689 28.08H198.929L198.549 31.26C198.909 31.2067 199.329 31.18 199.809 31.18Z" fill="#222222"/>
<path d="M244.666 31.6C245.452 31.6 246.159 31.7867 246.786 32.16C247.426 32.52 247.919 33.02 248.266 33.66C248.626 34.3 248.806 35.02 248.806 35.82C248.806 36.6867 248.612 37.46 248.226 38.14C247.852 38.8067 247.312 39.3333 246.606 39.72C245.912 40.0933 245.112 40.28 244.206 40.28C243.246 40.28 242.406 40.0667 241.686 39.64C240.966 39.2 240.412 38.5867 240.026 37.8C239.652 37.0133 239.466 36.1067 239.466 35.08C239.466 33.68 239.772 32.36 240.386 31.12C241.012 29.88 241.799 28.8067 242.746 27.9C243.706 26.98 244.706 26.2533 245.746 25.72L247.246 27.02C246.166 27.5667 245.132 28.3067 244.146 29.24C243.159 30.1733 242.446 31.2133 242.006 32.36C242.739 31.8533 243.626 31.6 244.666 31.6ZM244.226 38.44C244.946 38.44 245.532 38.2 245.986 37.72C246.452 37.2267 246.686 36.62 246.686 35.9C246.686 35.1933 246.452 34.6067 245.986 34.14C245.532 33.6733 244.946 33.44 244.226 33.44C243.492 33.44 242.892 33.6733 242.426 34.14C241.972 34.6067 241.746 35.2 241.746 35.92C241.746 36.6533 241.972 37.26 242.426 37.74C242.892 38.2067 243.492 38.44 244.226 38.44Z" fill="#222222"/>
<path d="M293.881 26L287.921 40H285.621L290.701 28.06H284.761V26H293.881Z" fill="#DE2B70"/>
<circle cx="24" cy="54" r="3" fill="#A7A7A7"/>
<circle cx="68" cy="54" r="3" fill="#A7A7A7"/>
<circle cx="112" cy="54" r="3" fill="#A7A7A7"/>
<circle cx="156" cy="54" r="3" fill="#A7A7A7"/>
<circle cx="200" cy="54" r="3" fill="#A7A7A7"/>
<circle cx="244" cy="54" r="3" fill="#A7A7A7"/>
<circle cx="289" cy="54" r="3" fill="#DE2B70"/>
</svg>
