<svg width="35" height="35" viewBox="0 0 35 35" fill="none" xmlns="http://www.w3.org/2000/svg">
<path d="M34.1942 22.6374C34.1942 17.8695 34.1942 13.1016 34.1942 8.37382C34.1942 7.3321 34.2343 6.29038 34.1542 5.28873C33.9138 2.40397 31.8704 0.160265 28.9456 0C28.2644 0 27.5432 0 26.8621 0C20.2512 0 13.6403 0 6.98932 0C4.82574 0 2.82244 0.0801328 1.33999 1.92318C0.338336 3.16523 0.0578733 4.68774 0.0178072 6.25032C-0.022259 9.65594 0.0178072 13.0616 0.0178072 16.4271C0.0178072 20.3135 0.0178072 24.1599 0.0178072 28.0463C0.0178072 31.4519 1.42012 34.6973 5.30654 34.8575C12.3181 35.1781 19.4098 34.8575 26.3813 34.8575C29.7068 34.8575 33.0724 34.4969 33.9538 30.5705C34.5949 28.0864 34.1942 25.1615 34.1942 22.6374ZM11.1161 1.68278C13.0393 1.68278 15.0025 1.68278 16.9257 1.68278C18.8489 1.68278 20.8121 1.68278 22.7353 1.68278C23.777 1.68278 25.3797 1.64271 26.3813 1.96324C26.5015 2.00331 26.6217 2.04337 26.7019 2.08344C27.0224 3.20529 27.0624 4.24701 26.8621 5.24866C26.6217 6.29038 26.1009 7.25197 25.4598 8.09336C23.9373 9.9364 21.4933 11.2185 19.0893 11.7394C18.4082 11.8596 17.687 11.9397 16.9658 11.9397C16.4049 11.9397 15.8439 11.8596 15.283 11.7794C12.839 11.3788 10.3148 10.1768 8.67209 8.33376C8.63203 8.29369 8.59196 8.21356 8.5519 8.17349C8.51183 8.13343 8.51183 8.13343 8.47176 8.09336C7.79064 7.25197 7.26978 6.21025 7.02938 5.12847C6.82905 4.16688 6.86912 3.12516 7.18965 2.04337C7.26978 2.00331 7.38998 1.96324 7.51017 1.92318C8.47176 1.68278 10.1145 1.68278 11.1161 1.68278Z" fill="#2D73F6"/>
</svg>
